<svg width="1004" height="815" viewBox="0 0 1004 815" fill="none" xmlns="http://www.w3.org/2000/svg">
<g clip-path="url(#clip0_1_783)">
<path d="M517.379 179.62C516.148 178.63 514.244 179.477 514.244 181.056V782.261C514.244 784.269 515.551 786.043 516.445 787.844C516.738 788.43 516.923 789.071 516.982 789.724C517.247 792.619 518.053 795.447 519.367 798.068C521 801.326 523.373 804.182 526.311 806.424C529.249 808.666 532.673 810.234 536.326 811.009C539.98 811.784 543.768 811.751 547.405 810.903C551.043 810.061 554.435 808.426 557.327 806.134C560.221 803.836 562.536 800.935 564.103 797.645C565.67 794.359 566.446 790.773 566.373 787.153C566.312 784.236 565.704 781.363 564.583 778.669C563.584 776.259 564.443 773.225 567.121 771.909C569.686 770.642 573.078 771.557 574.299 774.396C575.275 776.644 577.506 778.345 579.793 777.47C580.189 777.319 580.58 777.152 580.959 776.962C583.335 775.78 585.276 773.911 586.515 771.619C587.747 769.321 588.216 766.716 587.853 764.15C587.58 762.17 586.816 760.296 585.639 758.673C585.226 758.093 584.657 757.613 583.954 757.49C572.793 755.543 562.011 751.65 552.156 745.933C549.635 744.472 548.952 741.32 550.475 738.994C552.019 736.635 555.193 735.993 557.584 737.377C573.753 746.725 592.711 750.568 611.436 748.248C630.891 745.838 648.869 736.925 662.255 723.047C675.642 709.175 683.607 691.209 684.761 672.256C685.581 658.758 682.921 645.36 677.12 633.24C674.945 628.683 668.368 630.032 666.717 634.807C666.165 636.413 665.552 638.009 664.877 639.581C659.176 652.896 649.527 664.274 637.15 672.284C626.312 679.29 613.807 683.44 600.872 684.365C597.81 684.583 595.322 682.157 595.322 679.184C595.322 676.216 597.815 673.829 600.872 673.572C611.603 672.674 621.967 669.166 630.975 663.337C641.528 656.516 649.755 646.816 654.608 635.465C659.466 624.114 660.738 611.626 658.261 599.578C656.147 589.292 651.384 579.721 644.451 571.739C642.476 569.463 642.46 566.072 644.629 563.975C646.799 561.872 650.33 561.861 652.338 564.109C660.805 573.619 666.617 585.109 669.16 597.48C670.27 602.874 670.739 608.34 670.577 613.784C670.566 614.024 670.862 614.164 671.057 614.024C673.349 612.395 676.646 612.836 678.325 615.173C681.833 620.048 684.828 625.219 687.271 630.601C688.27 632.793 690.479 634.221 692.866 633.965C708.891 632.23 724.118 626.067 736.685 616.155C750.931 604.916 760.982 589.476 765.31 572.185C769.633 554.901 767.993 536.72 760.642 520.42C754.896 507.688 745.911 496.65 734.61 488.292C732.585 486.794 729.813 487.01 727.844 488.58C721.675 493.498 714.859 497.624 707.552 500.843C698.656 504.764 689.179 507.275 679.49 508.296C675.781 508.687 672.641 505.834 672.513 502.222C672.384 498.609 675.313 495.608 679.022 495.172C686.937 494.239 694.668 492.138 701.947 488.93C711.284 484.815 719.69 478.962 726.69 471.704C733.684 464.445 739.139 455.923 742.737 446.626C745.537 439.374 747.171 431.762 747.584 424.056C747.779 420.446 750.669 417.411 754.4 417.286C758.137 417.161 761.289 419.992 761.144 423.604C760.764 433.031 758.829 442.352 755.404 451.214C753.201 456.909 750.401 462.357 747.065 467.474C746.095 468.963 745.81 470.816 746.441 472.477C749.681 480.978 754.367 488.916 760.329 495.952C768.138 505.166 777.938 512.61 789.044 517.758C800.149 522.906 812.286 525.634 824.596 525.747C836.907 525.862 849.094 523.36 860.3 518.418C871.505 513.476 881.451 506.216 889.438 497.148C897.425 488.08 903.265 477.426 906.534 465.937C909.803 454.449 910.433 442.406 908.369 430.657C906.434 419.613 902.161 409.083 895.836 399.721C894.96 398.427 893.761 397.133 892.383 396.401C891.619 395.997 890.922 395.44 890.347 394.739C888.027 391.91 888.534 387.812 891.245 385.326C899.551 377.709 906.049 368.398 910.249 358.036C914.443 347.675 916.217 336.571 915.47 325.519C915.224 321.911 917.729 318.571 921.421 318.024C925.114 317.478 928.594 319.932 928.884 323.536C929.961 336.874 927.902 350.306 922.838 362.814C918.588 373.312 912.318 382.891 904.414 391.064C903.639 391.865 903.823 393.204 904.448 394.126C909.981 402.29 914.12 411.247 916.719 420.653C917.662 424.071 921.376 426.055 924.517 424.412C934.573 419.154 943.459 411.947 950.587 403.201C960.075 391.562 966.099 377.638 968.018 362.928C969.931 348.218 967.661 333.282 961.453 319.729C955.54 306.83 946.276 295.648 934.579 287.27C932.342 285.667 931.729 282.585 933.385 280.298C935.014 278.042 938.283 277.438 940.648 279.128C949.059 285.133 956.349 292.424 962.256 300.685C964.069 303.219 967.56 304.022 970.059 302.161C979.324 295.263 987.088 286.603 992.856 276.672C1000.58 263.374 1004.41 248.295 1003.97 233.049C1003.51 217.802 998.796 202.96 990.307 190.109C982.883 178.869 972.82 169.522 960.973 162.809C959.562 162.009 957.872 161.946 956.321 162.418C953.8 163.185 951.19 163.652 948.54 163.806C945.785 163.967 943.699 161.791 943.699 159.343C943.699 156.803 945.801 154.929 948.172 154.772C951.424 154.557 954.603 153.677 957.492 152.182C960.845 150.448 963.701 147.94 965.815 144.881C967.929 141.821 969.228 138.305 969.602 134.643C969.97 130.981 969.407 127.287 967.951 123.888C966.495 120.488 964.197 117.489 961.258 115.155C958.324 112.821 954.832 111.224 951.106 110.506C947.374 109.788 943.52 109.972 939.883 111.04C936.749 111.959 933.859 113.512 931.4 115.588C929.609 117.099 926.753 117.212 924.902 115.415C923.111 113.684 922.994 110.72 925.063 108.946C926.898 107.372 928.906 106.006 931.054 104.875C931.656 104.555 931.996 103.903 932.086 103.225C933.525 91.7868 932.671 80.18 929.565 69.0418C926.246 57.1444 920.423 46.037 912.469 36.4145C904.515 26.7918 894.597 18.8608 883.33 13.117C872.069 7.3732 859.697 3.94015 847.002 3.03238C834.302 2.12462 821.545 3.76168 809.531 7.84124C797.516 11.9208 786.5 18.3552 777.174 26.7421C767.842 35.1291 760.402 45.2884 755.315 56.5849C750.551 67.1604 747.947 78.5201 747.634 90.0382C747.612 90.7193 747.841 91.4142 748.387 91.8192C751.594 94.1914 754.657 96.779 757.54 99.5723C773.125 114.657 782.518 134.616 784.13 155.747C784.408 159.352 781.352 162.286 777.62 162.286C773.883 162.286 770.888 159.35 770.564 155.748C768.98 138.094 761.026 121.457 747.98 108.829C734.928 96.2 717.743 88.5004 699.498 86.9688C695.778 86.6564 692.749 83.7554 692.749 80.1404C692.749 76.526 695.778 73.5704 699.504 73.8364C709.878 74.5788 719.985 77.0225 729.406 81.0022C733.11 82.5668 737.471 80.1839 738.141 76.2198C739.53 68.04 741.962 60.0376 745.397 52.4012C748.287 45.993 751.851 39.9125 756.023 34.2526C757.719 31.9521 757.591 28.7247 755.471 26.8111C744.31 16.758 730.722 9.48991 715.874 5.72079C697.691 1.1053 678.492 1.95527 660.822 8.15766C643.151 14.3601 627.851 25.6211 616.952 40.4436C606.528 54.625 600.604 71.4235 599.879 88.781C599.773 91.3473 596.532 91.3992 594.452 89.8876C593.682 89.3259 592.895 88.7815 592.098 88.2544C590.335 87.0943 589.236 85.1119 589.443 83.0124C590.346 73.716 592.589 64.6141 596.08 55.9664C597.28 52.9937 595.958 49.5169 592.884 48.5977C587.558 47.0025 582.008 46.1248 576.391 46.0043C566.925 45.801 557.539 47.7561 548.997 51.7116C540.454 55.6671 532.993 61.5123 527.215 68.774C521.762 75.6303 517.953 83.5674 516.057 92.0099C516.036 92.0998 516.013 92.189 515.987 92.2766C515.806 92.8979 515.359 93.3927 514.878 93.8255C503.248 104.281 495.972 119.009 495.879 135.343C495.893 132.805 496.086 130.262 496.457 127.731C497.976 117.392 502.433 107.634 509.358 99.4953C516.281 91.3562 525.413 85.1387 535.782 81.5048C546.15 77.8703 557.368 76.955 568.242 78.8553C579.118 80.7557 589.248 85.4014 597.547 92.2978C605.853 99.1947 612.016 108.085 615.396 118.024C618.302 126.585 619.05 135.648 617.599 144.493C617.209 146.858 614.721 148.307 612.256 147.765C609.785 147.223 608.268 144.895 608.625 142.525C609.718 135.212 609.054 127.739 606.65 120.67C603.778 112.221 598.54 104.664 591.479 98.802C584.423 92.9398 575.816 88.9913 566.574 87.3759C557.328 85.7606 547.792 86.5387 538.979 89.6277C530.166 92.7172 522.404 98.0016 516.518 104.92C510.633 111.838 506.844 120.132 505.554 128.92C504.263 137.708 505.52 146.662 509.19 154.829C512.261 161.664 516.926 167.735 522.815 172.601C524.723 174.177 525.186 176.875 523.69 178.806C522.193 180.738 519.308 181.172 517.379 179.62ZM692.877 367.81C690.869 370.059 687.338 370.047 685.169 367.947C682.999 365.847 683.016 362.456 684.99 360.182C691.923 352.198 696.687 342.627 698.801 332.342C700.251 325.296 700.413 318.1 699.331 311.069C699.213 310.306 698.879 309.596 698.611 308.872C698.438 308.419 698.338 307.944 698.31 307.463C698.26 306.661 698.293 305.845 698.092 305.067C697.334 302.143 696.352 299.264 695.147 296.455C690.289 285.105 682.067 275.404 671.514 268.579C662.506 262.754 652.143 259.246 641.411 258.344C638.354 258.087 635.861 255.704 635.861 252.734C635.861 249.765 638.349 247.336 641.411 247.555C654.346 248.481 666.851 252.629 677.689 259.637C690.066 267.644 699.716 279.024 705.416 292.339C705.901 293.48 707.424 293.76 708.283 292.868C713.621 287.348 719.835 282.636 726.74 278.929C739.758 271.936 754.629 268.838 769.471 270.025C784.308 271.213 798.453 276.632 810.105 285.599C820.313 293.448 828.211 303.706 833.069 315.345C834.218 318.099 832.589 321.136 829.667 322.043C826.744 322.949 823.643 321.38 822.454 318.641C818.288 309.022 811.678 300.544 803.194 294.019C793.26 286.375 781.201 281.756 768.551 280.744C755.906 279.732 743.228 282.373 732.128 288.333C723.945 292.73 716.884 298.787 711.418 306.046C710.525 307.226 710.218 308.728 710.43 310.189C711.579 318.213 711.351 326.41 709.7 334.44C707.156 346.812 701.344 358.303 692.877 367.81ZM611.124 441.979C614.024 441.003 617.075 442.727 617.867 445.596C618.659 448.466 616.885 451.391 614.002 452.402C601.909 456.641 591.367 464.317 583.798 474.481C576.229 484.646 572.04 496.752 571.706 509.195C571.627 512.164 569.318 514.716 566.256 514.896C563.194 515.077 560.539 512.817 560.578 509.847C560.784 494.924 565.715 480.371 574.784 468.193C583.854 456.015 596.56 446.882 611.124 441.979ZM495.879 135.967C495.962 150.996 502.127 164.668 512.17 174.902C507.385 170.024 503.509 164.383 500.736 158.212C497.562 151.148 495.922 143.585 495.879 135.967ZM67.3065 409.945C67.4236 409.899 67.456 409.749 67.369 409.659C25.6204 366.453 0 308.021 0 243.702C0 110.649 109.636 2.78894 244.878 2.78894C380.121 2.78894 489.756 110.649 489.756 243.702V798.576C489.756 803.473 483.89 805.994 480.337 802.62L67.2502 410.236C67.157 410.147 67.1871 409.992 67.3065 409.945Z" stroke="url(#paint0_linear_1_783)" stroke-width="6"/>
</g>
<defs>
<linearGradient id="paint0_linear_1_783" x1="544.121" y1="811.566" x2="918.171" y2="577.712" gradientUnits="userSpaceOnUse">
<stop stop-color="#D02964"/>
<stop offset="1" stop-color="#FC8F59"/>
</linearGradient>
<clipPath id="clip0_1_783">
<rect width="1004" height="814.356" fill="white"/>
</clipPath>
</defs>
</svg>
