<svg width="640" height="1116" viewBox="0 0 640 1116" fill="none" xmlns="http://www.w3.org/2000/svg">
<path d="M465.176 280.117C480.14 245.105 486.148 206.817 487.588 168.769C488.5 144.725 484.776 115.845 463.192 105.217C448.564 98.0168 430.2 102.633 417.52 112.885C404.84 123.137 396.883 138.065 390.543 153.085C367.679 207.241 361.475 269.525 374.143 327.029C390.771 402.516 451.676 311.705 465.176 280.117Z" fill="#52D2EC"/>
<path d="M242.219 271.613C226.083 253.785 207.49 236.853 184.47 229.905C161.45 222.957 133.15 228.625 119.798 248.629C108.498 265.557 110.555 289.157 121.531 306.301C132.507 323.441 150.994 334.677 170.402 340.813C191.226 347.401 252.695 362.981 270.519 346.281C292.491 325.701 255.783 286.601 242.219 271.613Z" fill="#52D2EC"/>
<path d="M583.016 303.961C592.26 287.505 600.164 265.233 587.36 251.361C580.216 243.621 568.412 241.569 558.128 243.857C547.844 246.145 538.788 252.121 530.404 258.501C484.676 293.309 452.124 344.517 438.368 400.184C433.716 419.012 424.684 454.444 455.804 452.984C480.004 451.848 505.488 412.444 519.692 395.513C543.568 367.041 564.816 336.357 583.016 303.961Z" fill="#52D2EC"/>
<path d="M324.863 693.468C312.059 688.04 296.967 683.856 284.667 690.352C271.423 697.348 266.623 714.952 270.335 729.46C274.047 743.972 284.379 755.828 295.315 766.06C315.679 785.116 418.056 860.024 433.104 807.408C446.536 760.452 358.851 707.88 324.863 693.468Z" fill="#52D2EC"/>
<path d="M569.948 565.736C571.372 554.692 572.364 543.268 569.224 532.584C566.088 521.9 557.94 512.008 547.008 509.892C536.344 507.828 525.344 513.608 518.404 521.96C511.46 530.312 507.852 540.884 504.792 551.304C496.464 579.672 491.32 609.2 491.232 638.816C491.184 653.896 491.216 714.744 509.724 720.368C540.52 729.716 567.064 588.1 569.948 565.736Z" fill="url(#paint0_linear_1_717)"/>
<path d="M360.394 456.916C341.83 432.62 316.954 412.068 287.462 404C281.558 402.384 275.038 401.328 269.486 403.912C261.99 407.396 258.658 416.752 259.834 424.936C261.01 433.116 265.738 440.316 270.746 446.896C295.798 479.816 330.258 503.98 366.762 522.684C385.734 532.404 405.212 541.408 393.102 512.668C384.85 493.084 373.274 473.772 360.394 456.916Z" fill="url(#paint1_linear_1_717)"/>
<path d="M270.991 239.873C291.499 196.861 306.175 151.069 314.487 104.149C319.291 77.0368 321.755 48.0288 310.483 22.9089C305.383 11.5489 294.455 0.192932 282.379 3.21293C272.323 5.72892 267.255 16.781 264.219 26.693C255.939 53.7088 252.339 82.1528 253.627 110.381C248.619 98.6808 243.363 86.6208 234.055 77.9448C224.747 69.2648 210.199 64.8568 199.019 70.9328C189.315 76.2048 184.627 88.0048 184.815 99.0448C185.003 110.085 189.219 120.617 193.519 130.785C206.883 162.405 222.291 194.257 247.551 217.505" fill="url(#paint2_linear_1_717)"/>
<path d="M636.547 883.668C599.672 883.176 563.432 898.588 537.591 924.8C536.651 925.752 535.768 926.76 534.859 927.74C549.096 900.704 562.9 873.308 572.56 844.276C578.495 826.436 582.82 808.016 584.5 789.264C584.676 787.296 582.58 786.296 581.023 787.296C564 798.284 551 814.456 541.948 832.444C531.728 852.748 526.815 875.288 524.724 897.804C523.448 911.544 523.199 925.356 523.315 939.148C523.32 939.644 523.492 940.04 523.724 940.388C522.935 941.908 522.151 943.436 521.367 944.956C520.383 946.456 519.391 947.952 518.471 949.496C518.148 950.04 518.1 950.596 518.208 951.104C516.508 954.428 514.836 957.764 513.195 961.12C513 961.388 512.772 961.632 512.588 961.908C512.416 962.168 512.387 962.444 512.443 962.7C509.727 968.312 507.108 973.964 504.756 979.724C501.212 988.4 498.367 997.456 497.188 1006.78C496.688 1010.76 496.564 1014.77 496.74 1018.78C495.124 1014.32 493.608 1009.83 492.144 1005.31C492.164 1005.21 492.184 1005.11 492.18 1005.01C492.139 1002.63 490.911 1000.06 489.788 997.796C482.392 973.456 476.996 948.36 472.668 923.224C472.576 921.296 472.168 919.324 471.668 917.404C471.596 916.96 471.512 916.52 471.44 916.076C466.496 886.092 462.42 855.956 458.332 825.836C479.832 795.828 496.46 762.16 509.584 727.764C510.456 725.48 511.259 723.172 512.099 720.876C512.551 721.24 513.135 721.472 513.864 721.42C532.2 720.164 550.344 713.452 566.883 705.796C575.323 701.892 583.579 697.584 591.771 693.188C599.008 689.304 606.536 685.608 613.135 680.68C619.628 675.836 625.135 669.388 626.151 661.092C626.352 659.464 624.976 658.404 623.476 658.484C622.956 658.512 622.44 658.564 621.924 658.596C621.384 658.144 620.615 657.992 619.883 658.572C619.803 658.636 619.72 658.696 619.64 658.76C587.468 661.256 555.824 674.04 531.392 695.196C525.472 700.32 519.971 705.876 515.252 712.1C526.316 680.052 534.264 646.892 538.752 613.292C541.712 591.12 542.995 568.912 542.964 546.556C542.959 544.416 540.652 543.364 539.14 545C523.956 561.452 512.268 581.176 505.164 602.408C497.6 625.012 495.276 649.176 498.34 672.812C500.1 686.412 503.648 699.78 508.824 712.476C509.06 713.056 509.448 713.4 509.88 713.624C502.732 733.968 494.344 753.872 484.736 773.196C476.504 789.744 467.316 805.792 457.768 821.612C456.664 813.48 455.564 805.348 454.436 797.224C448.484 754.356 442.527 711.492 436.576 668.624C434.819 655.976 433.124 643.276 431.428 630.568C433.06 618.764 434.936 607 437.668 595.388C440.368 583.892 443.799 572.58 447.792 561.468C448.62 561.996 449.707 562.148 450.743 561.504C483.751 541.008 510.524 509.324 524.504 472.996C528.776 461.896 531.355 449.576 527.031 438.088C526.56 436.828 524.635 436.244 523.607 437.212C522.563 438.2 521.56 439.228 520.528 440.228C512.892 443.4 505.592 447.812 498.928 452.576C491.308 458.028 484.312 464.34 478.044 471.3C464.768 486.04 455.396 503.824 450.072 522.896C448.523 528.448 447.348 534.072 446.596 539.788C446.216 542.676 445.936 545.58 445.76 548.488C445.612 550.964 445.404 553.496 445.628 555.972C441.688 566.744 438.328 577.736 435.616 588.912C433.212 598.82 431.196 608.888 429.88 619.032C426.944 597.168 423.924 575.28 420.436 553.476C420.44 553.256 420.44 553.032 420.444 552.812C420.812 552.272 420.967 551.58 420.635 550.776C420.583 550.652 420.523 550.528 420.471 550.404C420.564 545.8 420.752 541.196 421.152 536.612C421.908 527.944 423.332 519.336 425.236 510.848C429.068 493.776 435.088 477.212 442.48 461.372C457.76 428.632 479.044 399.317 501.5 371.181C512.892 356.909 524.612 342.905 536.068 328.685C541.831 321.533 547.54 314.333 553.124 307.041C556.76 302.289 563.964 294.765 560.684 288.125C556.792 280.245 545.424 286.965 540.124 289.457C532.932 292.837 525.988 296.773 519.372 301.177C506.212 309.941 494.34 320.673 484.284 332.873C462.596 359.189 449.82 392.617 448.18 426.664C447.979 430.872 447.96 435.08 448.072 439.292C448.083 439.716 448.208 440.04 448.38 440.312C446.028 444.584 443.744 448.9 441.588 453.288C428.76 479.388 419.672 507.692 417.652 536.76C417.332 534.912 417.036 533.06 416.708 531.216C417.744 520.48 417.056 509.52 416 498.836C414.756 486.28 412.652 473.82 410.22 461.444C405.296 436.412 399.082 411.616 395.398 386.349C393.19 371.209 392.102 355.949 392.17 340.693C409.772 323.849 424.668 304.389 436.34 283.001C442.26 272.153 447.292 260.849 451.38 249.185C455.516 237.377 459.072 225.129 460.523 212.673C462.128 198.957 460.972 184.465 453.808 172.365C453.068 171.113 451.527 170.417 450.232 171.449C432.496 185.641 420.116 205.225 411.124 225.857C403.292 243.829 397.606 262.805 393.774 282.077C393.186 276.513 392.378 270.973 391.354 265.473C387.27 243.573 379.814 222.265 369.218 202.661C363.226 191.573 356.258 181.029 348.366 171.201C347.234 169.793 344.678 170.357 344.518 172.269C344.41 173.545 344.366 174.817 344.286 176.089C344.23 176.221 344.198 176.373 344.238 176.561C344.242 176.585 344.25 176.609 344.254 176.633C341.578 221.117 354.806 264.701 372.262 305.169C377.054 316.277 381.926 327.617 387.822 338.213C387.034 339.269 387.21 340.573 387.914 341.441C387.914 352.609 388.506 363.773 389.774 374.869C392.702 400.476 398.802 425.568 404.16 450.74C408.82 472.644 412.7 494.628 414.084 516.952C408.024 485.204 400.512 453.796 390.29 423.124C370.494 363.713 338.842 306.089 291.698 264.129C292.114 263.905 292.394 263.433 292.178 262.841C286.798 248.185 281.582 233.521 277.662 218.389C276.698 214.669 275.822 210.929 274.994 207.181C275.242 207.009 275.454 206.789 275.626 206.541C276.214 206.405 276.734 206.005 276.99 205.217C291.25 160.989 298.314 114.393 298.154 67.9288C298.114 56.4448 297.914 44.1648 291.954 33.9609C291.206 32.6809 289.354 32.1009 288.346 33.5169C270.854 58.1648 265.738 89.3968 264.07 118.941C262.954 138.757 263.698 158.685 266.258 178.377C263.354 170.597 259.938 162.981 255.978 155.685C247.518 140.105 236.982 125.513 224.478 112.917C221.418 109.833 218.266 106.841 215.002 103.973C211.922 101.265 208.258 98.4648 203.894 99.4368C199.326 100.453 197.878 104.713 199.066 108.885C200.246 113.037 202.058 117.101 203.746 121.069C210.586 137.125 219.538 152.249 230.17 166.081C241.862 181.297 255.69 194.825 271.158 206.173C271.67 208.497 272.158 210.829 272.718 213.141C276.806 229.925 282.09 246.681 289.598 262.273C285.17 258.413 280.662 254.645 275.962 251.073C259.89 238.861 242.646 228.853 224.642 220.481C224.73 220.065 224.634 219.597 224.21 219.217C215.266 211.117 205.578 203.857 196.462 195.941C193.754 193.589 191.078 191.213 188.418 188.813C174.33 155.201 174.242 112.169 143.354 87.8968C136.094 82.1888 127.594 78.1608 118.414 76.8288C117.002 76.6248 115.766 77.9408 115.974 79.3288C119.386 102.045 128.738 123.497 141.418 142.541C152.81 159.645 166.866 174.769 182.002 188.629C182.446 189.725 182.918 190.797 183.506 191.797C183.922 192.509 184.714 192.565 185.234 192.193C185.554 192.393 185.918 192.493 186.29 192.505C187.446 193.533 188.59 194.569 189.754 195.581C198.042 202.789 206.606 209.945 215.578 216.385C170.326 197.001 120.642 187.541 72.0143 181.205C62.9063 180.017 53.8343 179.145 44.6703 178.569C43.4783 178.493 43.2743 180.185 44.4463 180.405C80.6063 187.153 117.026 191.541 152.734 200.729C173.986 206.197 195.018 213.113 215.154 221.981C210.898 221.941 206.634 221.957 202.382 221.773C194.414 221.433 186.45 220.781 178.526 219.925C162.822 218.233 147.226 215.697 131.594 213.437C103.27 209.341 74.3143 206.265 45.8263 210.713C30.5785 213.093 15.6465 217.709 2.13847 225.241C0.694472 226.045 0.170456 228.689 2.17046 229.277C38.7265 240.037 77.9863 241.065 115.054 232.173C125.454 229.677 135.678 226.433 145.606 222.461C146.866 221.957 147.122 220.785 146.79 219.785C155.706 221.081 164.622 222.349 173.566 223.369C182.246 224.361 190.95 225.137 199.686 225.397C206.842 225.609 214.17 225.793 221.29 224.769C232.674 230.069 243.758 235.985 254.358 242.741C299.142 271.269 332.898 312.849 357.358 359.409C344.83 353.209 331.538 348.217 318.362 343.653C304.522 338.857 290.402 334.801 276.038 331.889C269.978 330.661 263.866 329.681 257.73 328.913C257.378 328.217 256.758 327.685 256.05 327.533C253.174 313.065 246.754 299.261 238.658 287.017C230.054 274.001 218.97 262.521 206.31 253.405C199.034 248.165 191.214 243.705 182.954 240.209C181.514 239.597 179.35 240.921 179.838 242.641C188.35 272.613 205.366 299.485 229.326 319.501C232.642 322.273 236.078 324.901 239.626 327.369C239.642 327.381 239.658 327.389 239.674 327.401C224.814 326.757 209.91 327.669 195.254 330.569C170.742 335.421 146.966 345.569 127.862 361.889C125.49 363.917 123.194 366.033 120.986 368.237C118.838 370.381 116.682 372.749 116.09 375.833C115.57 378.529 116.834 381.229 119.318 382.449C122.11 383.821 125.43 383.041 128.334 382.553C143.35 380.041 158.338 377.221 173.098 373.449C200.33 366.493 227.142 356.045 249.422 338.545C250.042 338.057 250.618 337.517 251.226 337.017C251.278 336.997 251.322 337.009 251.374 336.985C252.902 336.277 254.426 335.569 255.954 334.861C256.282 334.861 256.602 334.701 256.846 334.445C257.158 334.301 257.466 334.157 257.778 334.013C258.17 333.829 258.414 333.525 258.586 333.181C261.802 333.581 265.014 334.017 268.218 334.557C296.094 339.257 322.898 348.629 348.954 359.401C352.142 360.721 355.322 362.029 358.558 363.233C358.842 363.337 359.094 363.341 359.33 363.309C366.73 377.777 373.286 392.681 378.966 407.82C393.838 447.444 403.432 488.596 410.792 530.24C407.94 524.94 404.952 519.712 401.872 514.6C394.85 502.956 387.126 491.74 378.766 481.016C362.19 459.76 343.106 440.444 322.002 423.668C310.05 414.168 297.434 405.644 284.094 398.225C283.134 397.693 282.214 399.301 283.134 399.901C283.194 399.941 283.254 399.981 283.318 400.024C283.182 400.452 283.114 400.904 283.13 401.536C283.158 402.784 283.21 404.032 283.314 405.276C283.526 407.848 283.93 410.396 284.418 412.932C285.366 417.884 286.69 422.752 288.39 427.5C289.734 431.26 291.358 434.92 293.118 438.508C293.05 438.664 293.03 438.856 293.126 439.004C293.302 439.276 293.538 439.52 293.734 439.784C296.254 444.748 299.118 449.54 302.354 454.064C308.25 462.304 315.33 469.744 323.302 476C331.978 482.808 341.738 487.788 351.926 491.924C364.378 496.976 377.378 500.996 388.934 508C390.018 508.656 391.31 508.668 392.27 507.88C393.302 509.496 394.354 511.104 395.358 512.74C402.124 523.74 407.956 535.144 413.592 546.712C419.164 580.836 423.512 615.196 428.252 649.232C428.668 652.22 429.068 655.212 429.484 658.2C428.372 656.22 427.2 654.276 425.944 652.392C420.964 644.94 414.848 638.348 408.32 632.216C408.344 631.228 407.792 630.276 406.471 630.156C406.323 630.144 406.18 630.124 406.036 630.112C404.648 628.848 403.251 627.592 401.84 626.36C392.958 618.6 383.842 611.064 374.61 603.724C365.674 596.62 356.538 589.744 346.798 583.776C336.038 577.184 324.666 571.564 312.338 568.648C311.574 568.468 311.206 569.416 311.554 569.972C311.538 570.004 311.502 570.024 311.498 570.06C311.106 571.756 311.842 573.248 312.63 574.784C313.562 576.604 314.546 578.392 315.602 580.144C317.666 583.568 319.914 586.872 322.374 590.024C327.15 596.152 332.57 601.8 338.478 606.84C350.47 617.068 364.586 624.924 379.626 629.644C387.854 632.228 396.61 634.152 405.264 634.492C410.24 639.268 414.988 644.276 419.14 649.8C422.916 654.82 426.188 660.212 428.676 665.984C429.888 668.8 430.948 671.704 431.732 674.672C431.755 674.76 431.764 674.848 431.788 674.936C438.732 725.468 445.516 776.036 452.644 826.548C452.368 826.764 452.12 827.024 451.948 827.372C451.083 829.124 450.616 831.016 450.48 832.944C441.812 818.688 429.404 807.392 417.068 796.316C391.37 773.248 367.442 748.236 340.99 726.004C333.582 719.78 325.982 713.78 318.114 708.152C310.338 702.588 302.33 697.34 293.658 693.288C293.518 693.224 293.386 693.24 293.262 693.276C292.662 692.652 291.346 692.772 291.354 693.824C291.466 706.128 294.946 718.224 299.938 729.408C304.978 740.708 311.834 751.204 319.954 760.532C337.258 780.416 360.17 794.484 384.834 803.376C391.978 805.952 399.27 808.096 406.644 809.908C410.276 810.8 413.924 811.6 417.596 812.312C421.252 813.024 424.98 813.92 428.708 813.772C434.136 819.252 439.26 825.008 443.644 831.412C448.952 839.156 452.916 847.804 455.492 856.824C456.796 861.388 457.748 866.048 458.32 870.76C458.692 873.808 458.848 876.876 459.064 879.932C458.583 879.556 457.74 879.768 457.888 880.524C459.196 887.212 461.359 893.708 463.348 900.232C467.18 925.48 471.664 951.092 477.872 976.228C477.196 975.152 476.552 974.052 475.852 972.992C472.512 967.912 468.96 962.972 465.144 958.244C462.532 955.012 459.784 951.512 456.704 948.52C456.772 947.912 456.591 947.268 456.012 946.748C455.396 946.2 454.812 945.62 454.208 945.06C452.84 938.66 451.076 932.328 449.243 926.08C446.539 916.852 443.483 907.704 439.967 898.748C432.879 880.684 424.26 863.244 414.276 846.608C408.635 837.208 402.504 828.112 395.97 819.308C394.902 817.868 392.226 818.88 392.654 820.732C401.219 857.816 410.352 896.044 432.952 927.432C429.199 924.004 425.367 920.672 421.415 917.472C407.132 905.9 391.522 896.012 375.13 887.712C357.174 878.62 338.406 871.284 319.562 864.28C298.486 856.448 277.194 848.932 256.702 839.644C256.734 839.532 256.73 839.42 256.766 839.308C257.25 837.808 255.106 836.88 254.478 838.364C252.742 842.464 253.894 846.784 255.894 850.564C257.818 854.204 260.23 857.644 262.666 860.956C267.678 867.764 273.474 873.988 279.73 879.668C292.382 891.164 307.054 900.412 322.518 907.636C340.186 915.888 358.862 921.712 377.702 926.628C395.85 931.364 414.768 934.46 432.004 942.108C440.832 946.028 449.184 951.58 455.864 958.612C458.564 961.98 461.168 965.424 463.704 968.924C465.808 972.484 467.527 976.288 468.724 980.36C469.128 981.74 471.224 981.084 471.148 979.76C475.98 987.18 480.46 994.824 484.523 1002.68C484.755 1003.14 485.088 1003.42 485.448 1003.63C495.312 1035.46 508.768 1065.95 528.328 1093.22C533.22 1100.04 538.491 1106.52 544.159 1112.7C546.423 1115.18 550.54 1112.05 548.304 1109.46C527.82 1085.76 512.796 1059.09 501.376 1030.82C499.852 1023.46 499.643 1015.65 500.52 1008.26C501.52 999.808 503.956 991.632 507.072 983.732C510.195 975.808 513.84 968.068 517.7 960.424C520.16 958.504 522.643 956.62 525.336 955.008C529.247 952.668 533.416 950.724 537.632 948.992C546.364 945.404 555.456 942.808 564.315 939.564C582.576 932.88 599.643 922.996 614.607 910.584C623.135 903.512 630.976 895.608 638 887.044C638.919 885.896 638.164 883.688 636.547 883.668ZM512.072 707.32C511.964 707.048 511.88 706.768 511.776 706.492C511.332 665.16 515.792 623.964 527.268 584.172C529.296 577.136 531.62 570.216 534.076 563.336C533.916 564.296 533.76 565.256 533.583 566.2C532.656 571.152 531.748 576.108 530.848 581.068C529.004 591.236 527.26 601.416 525.516 611.6C522.023 631.972 518.852 652.396 516.203 672.896C514.776 683.932 513.391 694.968 512.487 706.056C512.339 706.472 512.212 706.9 512.072 707.32ZM610.396 676.716C604.24 681.34 597.227 684.772 590.464 688.392C574.864 696.748 558.916 704.724 542.06 710.24C533.391 713.076 524.588 714.888 515.596 716.192C516.307 715.468 517.028 714.76 517.744 714.04C546.964 706.816 574.971 694.076 600.044 677.54C606.66 673.176 613.168 668.536 619.304 663.492C619.824 663.452 620.344 663.388 620.867 663.352C619.203 668.9 615.028 673.236 610.396 676.716ZM612.668 664.172C602.468 671.996 592.003 679.376 580.815 685.82C567.199 693.66 552.916 700.256 538.208 705.776C534.072 707.328 529.876 708.732 525.648 710.044C527.752 709.2 529.844 708.316 531.935 707.392C537.539 704.924 543.064 702.28 548.504 699.468C559.192 693.94 569.527 687.724 579.435 680.892C585.131 676.964 590.68 672.828 596.083 668.504C596.607 668.088 596.735 667.548 596.659 667.036C596.667 667.036 596.672 667.032 596.68 667.032C601.951 665.768 607.296 664.836 612.668 664.172ZM551.716 685.912C563.724 678.4 576.864 672.552 590.5 668.656C572.9 682.54 553.732 694.452 533.424 703.948C530.16 705.476 526.852 706.892 523.56 708.344C532.263 700.056 541.424 692.352 551.716 685.912ZM514.719 699.156C517.448 681.544 519.844 663.872 522.52 646.252C525.584 626.064 528.956 605.928 532.788 585.868C533.876 580.172 534.995 574.48 536.143 568.796C536.691 566.076 537.247 563.36 537.812 560.644C538.02 559.636 538.247 558.624 538.476 557.612C537.616 592.956 532.979 628.356 524.867 662.708C521.964 674.988 518.547 687.14 514.719 699.156ZM501.928 640.952C503.484 618.708 510.008 597.02 520.784 577.508C523.779 572.088 527.172 566.908 530.831 561.92C525.391 577.552 521.088 593.664 517.684 609.792C513.344 630.348 510.635 651.288 509.84 672.288C509.471 682.016 509.487 691.736 509.971 701.444C503.331 682.064 500.5 661.416 501.928 640.952ZM451.004 555.092C469.82 526.132 488.224 496.924 507.764 468.44C510.596 464.312 513.468 460.208 516.34 456.108C517.588 454.324 518.807 452.492 520.052 450.676C517.7 457.332 514.7 463.82 511.704 470.156C507.884 478.232 503.696 486.136 499.2 493.856C490.2 509.3 479.74 523.784 468.02 537.284C462.888 543.196 457.467 548.832 452.004 554.428C451.668 554.644 451.34 554.872 451.004 555.092ZM520.468 470.592C517.124 479.324 512.796 487.76 507.967 495.756C498.359 511.672 486.416 526.252 472.54 538.632C468.484 542.252 464.243 545.648 459.884 548.88C468.588 539.936 476.572 530.216 483.928 520.232C494.636 505.7 504.255 490.396 512.299 474.232C516.768 465.256 520.348 455.92 524.528 446.824C525.452 454.836 523.34 463.096 520.468 470.592ZM518.927 448.104C517.571 450.092 516.172 452.052 514.852 454.032C512.415 457.68 509.992 461.336 507.572 464.992C502.736 472.308 497.879 479.612 493.023 486.912C483.243 501.616 473.587 516.4 464.068 531.272C459.911 537.764 455.828 544.304 451.799 550.876C462.271 524.568 476.28 499.7 493.484 477.204C501.316 466.956 509.848 457.26 518.927 448.104ZM449.884 542.232C450.38 537.32 451.208 532.464 452.224 527.632C454.264 517.908 457.7 508.448 462.144 499.568C470.508 482.856 482.784 468.26 497.676 456.996C502.863 453.072 508.328 449.8 513.96 446.78C496.504 464.8 481.28 484.912 468.708 506.648C461.46 519.18 455.096 532.18 449.648 545.552C449.728 544.444 449.772 543.336 449.884 542.232ZM556.023 294.921C554.471 298.473 551.607 301.509 549.263 304.553C543.948 311.461 538.519 318.277 533.039 325.057C521.855 338.889 510.504 352.585 499.415 366.493C482.475 387.741 466.164 409.644 452.48 433.132C452.484 432.624 452.512 432.112 452.523 431.604C456.728 422.26 460.864 412.944 465.704 403.88C471.232 393.529 477.136 383.361 483.428 373.453C495.824 353.933 509.763 335.321 525.107 318.021C533.879 308.129 543.108 298.637 552.796 289.641C553.016 289.437 553.16 289.209 553.252 288.973C553.299 288.965 553.344 288.949 553.392 288.945C557.564 288.389 557.224 292.177 556.023 294.921ZM532.328 298.425C535.628 296.585 538.995 294.865 542.419 293.269C543.476 292.777 544.543 292.321 545.607 291.853C530.523 306.685 516.416 322.473 503.612 339.321C489.42 357.993 476.784 377.913 466.012 398.749C463.023 404.532 460.196 410.408 457.424 416.3C455.824 419.7 454.22 423.096 452.684 426.524C453.68 407.216 458.304 388.109 466.204 370.469C469.952 367.021 473.436 363.213 476.892 359.529C481.5 354.617 485.972 349.573 490.312 344.417C499.116 333.957 507.523 323.033 515.143 311.673C515.615 310.969 515.399 310.241 514.935 309.765C520.479 305.613 526.28 301.797 532.328 298.425ZM510.328 313.437C503.468 323.473 496.284 333.233 488.48 342.581C484.164 347.753 479.708 352.809 475.124 357.741C473.292 359.713 471.4 361.633 469.512 363.557C472.952 356.789 476.876 350.269 481.292 344.085C489.504 332.585 499.34 322.317 510.328 313.437ZM448.028 244.397C440.284 266.961 429.091 288.345 414.911 307.525C408.367 316.377 401.148 324.705 393.398 332.521C416.64 296.549 433.967 256.777 445.068 215.441C446.639 209.585 448.096 203.697 449.428 197.781C450.656 192.317 452.22 186.689 452.911 181.089C460.931 200.993 454.684 225.009 448.028 244.397ZM451.044 177.021C450.996 177.025 450.952 177.045 450.904 177.053C450.94 177.021 450.975 176.989 451.016 176.957C451.023 176.977 451.032 177.001 451.044 177.021ZM446.74 180.685C447.707 179.765 448.74 178.913 449.756 178.053C449.744 178.085 449.724 178.101 449.716 178.133C448.264 183.541 447.695 189.205 446.568 194.693C445.467 200.037 444.248 205.357 442.932 210.653C440.276 221.333 437.188 231.901 433.696 242.337C426.692 263.273 418.024 283.605 407.928 303.237C403.388 312.065 398.53 320.741 393.422 329.261C393.618 327.613 393.826 325.965 393.982 324.317C396.802 318.981 399.218 313.385 401.544 307.869C404.896 299.925 407.948 291.849 410.624 283.653C415.988 267.241 420.02 250.413 422.76 233.365C424.144 224.745 425.116 216.069 425.799 207.369C431.612 197.609 438.471 188.521 446.74 180.685ZM411.652 237.005C414.66 229.197 418.08 221.461 422.04 214.021C419.164 244.737 411.867 274.949 400.471 303.637C398.622 308.285 396.562 312.845 394.514 317.409C394.826 312.297 394.95 307.169 394.894 302.049C397.978 279.825 403.596 257.941 411.652 237.005ZM377.142 230.505C378.698 234.649 380.09 238.853 381.382 243.085C380.978 242.449 380.574 241.813 380.19 241.169C378.33 238.049 376.53 234.893 374.782 231.709C371.418 225.577 368.286 219.317 365.362 212.965C361.542 204.673 358.118 196.201 354.994 187.621C364.006 200.993 371.458 215.389 377.142 230.505ZM348.482 178.449C349.43 179.701 350.334 180.981 351.254 182.253C354.758 193.097 358.866 203.733 363.598 214.109C366.498 220.469 369.622 226.729 372.918 232.893C374.566 235.973 376.266 239.029 378.018 242.053C379.738 245.021 381.358 248.245 383.466 250.953C383.526 251.029 383.598 251.073 383.666 251.125C386.77 262.945 388.874 275.029 389.898 287.209C374.466 260.609 362.102 232.345 353.21 202.889C351.446 197.049 349.83 191.165 348.262 185.265C348.306 182.993 348.362 180.721 348.482 178.449ZM376.382 267.757C380.49 276.073 384.902 284.225 389.606 292.213C389.79 292.525 390.03 292.705 390.278 292.829C390.31 293.429 390.37 294.025 390.398 294.625C390.506 296.897 390.538 299.169 390.57 301.441C389.43 309.997 388.682 318.605 388.278 327.225C379.382 295.629 368.698 264.421 356.998 233.769C354.782 227.965 352.486 222.197 350.154 216.441C349.906 214.621 349.646 212.805 349.442 210.981C348.806 205.281 348.43 199.557 348.286 193.833C354.962 219.369 364.726 244.157 376.382 267.757ZM365.378 276.481C359.306 259.477 354.362 242.021 351.342 224.213C361.434 250.185 370.658 276.477 378.566 303.205C380.318 309.121 381.998 315.057 383.666 320.997C381.694 316.649 379.718 312.301 377.854 307.921C373.438 297.545 369.174 287.105 365.378 276.481ZM292.942 99.0048C291.306 121.725 287.922 144.317 282.846 166.521C280.326 177.541 277.354 188.457 274.042 199.265C273.858 199.101 273.67 198.941 273.482 198.777C273.738 198.913 274.094 198.893 274.19 198.569C280.094 178.141 284.122 157.257 287.17 136.217C290.206 115.261 291.878 94.1008 292.31 72.9328C292.426 67.1368 292.458 61.3448 292.394 55.5488C292.362 52.5928 292.306 49.6328 292.226 46.6768C292.218 46.4528 292.218 46.2248 292.214 46.0008C293.766 52.2248 294.058 58.7808 294.09 65.2408C294.138 76.5048 293.75 87.7728 292.942 99.0048ZM288.938 40.3768C288.882 42.1288 289.042 43.8968 289.114 45.6528C289.226 48.3568 289.314 51.0648 289.382 53.7728C289.518 59.0568 289.57 64.3448 289.542 69.6328C289.482 80.1048 289.098 90.5728 288.41 101.021C287.03 122.033 284.502 142.981 280.594 163.673C278.406 175.261 275.906 186.829 273.222 198.313C273.194 198.429 273.234 198.521 273.286 198.605C273.274 198.597 273.266 198.585 273.254 198.577C272.586 195.125 271.97 191.661 271.414 188.185C272.602 183.909 273.338 179.477 274.182 175.125C275.062 170.577 275.878 166.013 276.65 161.445C278.218 152.185 279.59 142.897 280.718 133.573C282.978 114.933 284.43 96.1928 285.066 77.4288C285.238 72.3008 285.366 67.1728 285.43 62.0408C285.462 59.4128 285.478 56.7848 285.482 54.1568C285.482 51.7728 285.69 49.2488 285.186 46.9088C286.354 44.6928 287.602 42.5128 288.938 40.3768ZM273.13 81.3048C275.178 71.6488 278.09 62.1248 282.138 53.1248C282.162 55.5888 282.17 58.0528 282.166 60.5168C282.158 65.0248 282.106 69.5328 281.994 74.0408C281.762 83.3048 281.33 92.5608 280.702 101.805C279.446 120.289 277.386 138.721 274.622 157.041C273.838 162.237 272.99 167.425 272.082 172.605C271.566 175.533 270.962 178.465 270.406 181.401C270.006 178.505 269.638 175.605 269.326 172.701C266.11 142.469 266.81 111.109 273.13 81.3048ZM205.994 103.385C208.134 103.545 209.942 105.157 211.478 106.501C214.634 109.257 217.662 112.177 220.586 115.177C232.158 127.033 242.314 140.253 250.494 154.673C255.062 162.725 259.126 171.069 262.538 179.677C263.658 182.505 264.702 185.365 265.706 188.237C258.926 178.373 252.234 168.445 245.406 158.613C237.178 146.761 228.774 135.029 220.202 123.425C215.306 116.797 210.514 109.993 205.138 103.745C204.998 103.585 204.838 103.521 204.678 103.501C205.078 103.401 205.514 103.349 205.994 103.385ZM204.106 103.757C203.918 103.977 203.826 104.285 204.038 104.605C208.098 110.633 212.646 116.357 216.958 122.205C221.278 128.061 225.554 133.949 229.786 139.865C238.186 151.609 246.398 163.469 254.338 175.529C257.49 180.313 260.642 185.113 263.73 189.949C245.054 172.245 228.794 152.129 215.954 129.729C211.538 122.021 207.466 114.101 203.778 106.021C203.55 105.521 203.01 105.577 202.71 105.869C202.806 104.861 203.306 104.145 204.106 103.757ZM212.09 129.569C210.262 125.885 208.546 122.149 206.946 118.361C206.146 116.469 205.378 114.561 204.638 112.641C203.942 110.837 203.014 108.885 202.726 106.941C215.21 136.157 233.318 163.137 255.406 185.957C259.466 190.153 263.71 194.165 268.042 198.077C244.654 179.673 225.338 156.249 212.09 129.569ZM121.098 82.6848C125.726 88.1888 130.574 93.5008 135.022 99.1648C140.246 105.813 145.218 112.685 149.778 119.805C158.93 134.093 167.23 149.217 173.546 164.989C175.086 168.837 176.478 172.729 177.878 176.625C175.902 173.425 173.914 170.225 171.926 167.029C167.546 159.977 163.162 152.933 158.802 145.869C150.146 131.845 141.51 117.813 132.898 103.761C129.23 97.7808 125.554 91.7968 121.774 85.8888C121.55 84.8208 121.298 83.7608 121.098 82.6848ZM155.778 108.317C165.746 124.069 170.074 142.625 174.69 160.457C174.838 161.029 175.002 161.593 175.154 162.165C172.33 155.825 169.398 149.537 166.166 143.393C158.242 128.345 148.91 114.029 138.462 100.609C133.546 94.2928 128.41 87.8808 122.702 82.1848C136.702 85.8288 148.118 96.2168 155.778 108.317ZM170.306 171.333C154.498 154.701 140.65 135.961 131.214 114.961C127.698 107.137 124.89 99.0328 122.83 90.7288C129.19 101.553 135.91 112.185 142.43 122.901C151.002 136.993 159.498 151.133 167.99 165.273C169.902 168.457 171.814 171.641 173.726 174.825C172.582 173.665 171.426 172.517 170.306 171.333ZM83.5903 212.941C103.158 213.501 122.506 216.273 141.85 219.093C140.882 219.473 139.906 219.821 138.934 220.185C135.758 219.685 132.49 219.469 129.338 219.137C125.006 218.685 120.67 218.261 116.334 217.849C107.794 217.041 99.1943 216.701 90.6223 216.457C73.4183 215.973 56.2983 216.745 39.1664 218.389C34.7384 218.813 30.3105 219.313 25.8945 219.881C44.3983 214.053 64.1743 212.385 83.5903 212.941ZM9.17447 226.525C9.63047 226.301 10.0945 226.097 10.5545 225.881C10.6505 225.877 10.7344 225.905 10.8384 225.889C44.5663 219.881 78.8743 217.397 113.098 219.705C117.822 220.025 122.538 220.333 127.242 220.861C128.302 220.981 129.362 221.125 130.426 221.277C98.7743 224.985 66.9423 226.925 35.0624 226.929C29.9984 226.929 24.9384 226.885 19.8744 226.797C16.3984 226.733 12.7305 226.381 9.17447 226.525ZM34.7144 231.837C29.4664 231.125 24.2544 230.177 19.0784 229.065C23.4264 229.157 27.7705 229.213 32.1185 229.237C40.9543 229.285 49.7943 229.201 58.6263 228.977C76.5983 228.525 94.5543 227.589 112.466 226.049C116.618 225.693 120.766 225.301 124.914 224.901C95.7903 233.565 64.8423 235.933 34.7144 231.837ZM244.47 306.805C247.146 312.553 249.326 318.497 251.23 324.533C236.362 302.937 220.21 282.205 202.79 262.617C198.618 257.925 194.334 253.341 189.994 248.805C213.718 261.753 233.034 282.221 244.47 306.805ZM245.598 320.305C227.738 304.321 211.81 286.341 198.786 266.105C195.418 260.873 192.306 255.493 189.222 250.093C207.634 270.185 225.026 291.153 240.798 313.397C242.418 315.685 244.006 317.997 245.598 320.305ZM234.666 317.845C228.81 313.213 223.314 308.129 218.246 302.649C208.098 291.681 199.574 279.213 193.138 265.725C190.178 259.521 187.654 253.109 185.65 246.533C185.674 246.545 185.694 246.557 185.718 246.569C191.838 259.317 199.722 271.365 208.098 282.709C216.974 294.737 226.506 306.357 237.138 316.893C241.026 320.745 245.102 324.409 249.25 327.989C247.414 326.801 245.53 325.677 243.714 324.453C240.61 322.365 237.594 320.161 234.666 317.845ZM204.87 333.257C199.814 336.037 194.802 338.889 189.63 341.465C183.29 344.621 176.826 347.529 170.258 350.177C158.798 354.793 147.026 358.417 135.13 361.681C151.814 348.701 171.682 340.113 192.286 335.537C196.462 334.609 200.662 333.861 204.87 333.257ZM128.758 366.965C129.886 365.957 131.078 365.037 132.242 364.077C145.406 361.373 158.286 357.185 170.746 352.189C177.426 349.509 184.002 346.565 190.446 343.357C196.734 340.229 203.066 336.981 208.922 333.093C209.078 332.989 209.158 332.853 209.21 332.705C213.81 332.161 218.418 331.797 223.038 331.601C221.57 332.401 220.126 333.261 218.742 333.957C215.31 335.677 211.862 337.361 208.394 339.013C201.462 342.313 194.466 345.473 187.406 348.489C173.274 354.529 159.022 360.141 144.438 365.005C137.594 367.289 130.686 369.389 123.838 371.653C125.406 370.013 127.086 368.461 128.758 366.965ZM121.862 373.873C136.174 370.561 150.214 365.513 163.962 360.425C178.386 355.085 192.598 349.397 206.554 342.917C210.47 341.097 214.366 339.237 218.238 337.329C220.174 336.377 222.106 335.413 224.034 334.437C225.786 333.549 227.686 332.761 229.162 331.441C234.986 331.381 240.818 331.549 246.638 331.977C247.178 332.285 247.722 332.585 248.274 332.865C232.134 339.593 216.078 346.465 199.654 352.493C183.194 358.537 166.422 363.829 149.59 368.717C140.014 371.497 130.374 374.037 120.846 376.985C120.63 377.053 120.57 377.237 120.574 377.425C120.346 376.389 121.082 374.965 121.862 373.873ZM142.534 375.345C139.03 376.005 135.522 376.641 132.018 377.277C130.206 377.605 128.39 377.929 126.574 378.253C125.21 378.493 123.762 378.853 122.37 378.701C121.37 378.593 120.87 378.209 120.65 377.701C120.746 377.865 120.898 377.997 121.118 377.953C138.25 374.589 155.082 369.345 171.718 364.081C188.558 358.753 205.31 353.013 221.834 346.777C227.422 344.669 233.01 342.509 238.566 340.289C222.258 351.497 203.87 359.541 184.93 365.317C171.03 369.549 156.806 372.649 142.534 375.345ZM345.834 450.052C354.006 458.224 361.73 466.836 369.026 475.796C364.434 471.252 359.662 466.912 354.898 462.716C341.002 450.472 326.586 438.812 312.442 426.86C304.082 419.796 295.67 412.792 287.278 405.76C287.05 405.568 286.826 405.616 286.638 405.728C286.394 404.412 286.158 403.096 285.934 401.776C307.362 415.956 327.658 431.872 345.834 450.052ZM288.37 414.084C287.798 411.78 287.346 409.452 286.902 407.124C301.186 419.552 315.55 431.896 329.794 444.368C342.978 455.912 356.61 467.08 368.782 479.716C371.766 482.812 374.574 486.024 377.286 489.312C357.85 474.492 334.502 465.436 313.774 452.476C310.226 450.256 306.746 447.924 303.382 445.428C302.362 444.672 301.354 443.856 300.342 443.032C297.814 438.82 295.578 434.432 293.666 429.904C291.502 424.788 289.71 419.48 288.37 414.084ZM330.478 475.08C320.086 468.008 311.126 458.968 303.994 448.656C305.914 450.048 307.858 451.408 309.838 452.712C315.87 456.68 322.138 460.276 328.466 463.74C341.362 470.8 354.498 477.536 366.67 485.824C372.398 489.724 377.874 493.992 382.894 498.764C365.574 490.512 346.51 485.988 330.478 475.08ZM368.846 603.096C377.642 610.096 386.162 617.456 394.642 624.832C395.814 625.852 396.97 626.892 398.126 627.928C397.174 627.38 396.242 626.8 395.282 626.264C376.386 610.188 356.206 595.416 335.242 582.216C331.042 579.572 326.79 577.012 322.502 574.508C329.182 577.34 335.702 580.544 341.934 584.244C351.354 589.84 360.278 596.28 368.846 603.096ZM362.494 618.076C348.85 611.084 336.558 601.276 326.75 589.488C324.078 586.28 321.566 582.92 319.242 579.452C318.082 577.72 316.962 575.956 315.874 574.176C315.218 573.1 314.618 571.968 313.814 571.048C314.102 571.156 314.386 571.276 314.678 571.384C314.678 571.596 314.742 571.8 314.958 571.932C338.338 585.952 360.822 601 381.922 618.288C382.254 618.56 382.578 618.844 382.91 619.12C377.862 616.032 372.866 612.856 367.914 609.616C356.866 602.388 346.014 594.852 335.374 587.028C329.282 582.548 323.238 578 317.238 573.4C316.634 572.936 315.938 573.86 316.526 574.336C337.286 591.268 359.358 606.436 381.974 620.764C385.874 623.236 389.762 625.828 393.714 628.284C393.854 628.404 393.99 628.528 394.13 628.644C390.722 628.092 387.338 627.412 383.974 626.48C376.558 624.42 369.354 621.588 362.494 618.076ZM294.154 697.16C306.79 715.824 321.45 733 337.57 748.74C353.89 764.676 371.982 778.936 391.29 791.084C396.158 794.148 401.124 797.056 406.144 799.86C390.498 794.592 375.57 787.216 361.87 777.984C342.97 765.248 326.074 749.112 312.882 730.508C305.594 720.232 299.834 709.248 294.314 697.98C294.254 697.708 294.206 697.436 294.154 697.16ZM298.654 700.804C301.434 703.588 304.458 706.164 307.334 708.816C311.374 712.536 315.434 716.236 319.498 719.924C327.634 727.304 335.802 734.64 344.014 741.936C360.35 756.456 376.53 771.128 393.086 785.396C397.062 788.824 401.079 792.212 405.068 795.624C392.302 788.492 380.018 780.492 368.302 771.764C350.158 758.248 333.378 742.8 318.47 725.784C311.466 717.788 304.874 709.428 298.654 700.804ZM333.778 724.556C346.73 735.448 358.982 747.128 371.138 758.888C380.734 768.172 390.286 777.508 399.958 786.716C374.206 765.464 348.706 743.896 323.79 721.68C319.322 717.696 314.874 713.692 310.414 709.692C305.81 705.564 301.37 701.016 296.362 697.38C296.302 697.336 296.234 697.332 296.17 697.332C295.854 696.884 295.534 696.44 295.214 695.996C308.362 705.172 321.482 714.212 333.778 724.556ZM294.41 695.428C294.198 695.448 294.022 695.56 293.882 695.732C293.834 695.472 293.782 695.216 293.734 694.956C293.958 695.116 294.182 695.272 294.41 695.428ZM391.766 800.296C379.422 796.236 367.378 791.008 356.218 784.328C335.142 771.712 317.09 754.064 305.694 732.164C301.114 723.36 297.962 714.116 295.706 704.572C299.398 712.68 304.038 720.44 308.954 727.784C315.442 737.476 322.81 746.74 330.926 755.12C347.11 771.828 366.25 785.684 387.242 795.72C396.71 800.248 406.583 803.88 416.672 806.76C414.6 806.348 412.523 805.952 410.46 805.48C404.156 804.044 397.914 802.32 391.766 800.296ZM445.072 923.88C446.232 927.512 447.272 931.18 448.28 934.852C448.24 934.776 448.196 934.7 448.16 934.624C446.268 930.872 444.392 927.112 442.532 923.344C438.76 915.696 435.036 908.024 431.368 900.324C424.04 884.924 417.132 869.336 410.444 853.648C408.604 849.328 406.784 845 404.988 840.664C404.448 839.36 403.92 838.044 403.388 836.724C421.164 863.708 435.24 893.072 445.072 923.88ZM424.104 905.524C415.308 888.832 409.176 870.88 404.232 852.712C402.12 844.96 400.26 837.144 398.442 829.316C398.458 829.344 398.478 829.368 398.494 829.396C399.482 832.692 400.812 835.892 402.1 839.08C403.72 843.092 405.355 847.092 407.012 851.088C410.32 859.08 413.72 867.032 417.188 874.956C424.068 890.688 431.06 906.376 438.448 921.876C440.52 926.224 442.616 930.564 444.728 934.892C444.859 935.156 444.98 935.436 445.108 935.704C436.916 926.564 429.88 916.484 424.104 905.524ZM365.618 887.18C389.066 898.548 410.68 913.212 429.743 930.792C429.184 930.392 428.628 929.972 428.072 929.58C422.384 925.58 416.496 921.872 410.476 918.396C398.486 911.472 386.006 905.448 373.354 899.832C347.734 888.464 321.374 878.736 296.326 866.1C289.254 862.532 282.31 858.72 275.582 854.536C272.278 852.484 269.018 850.348 265.822 848.128C262.646 845.92 259.606 843.504 256.382 841.368C256.386 841.3 256.374 841.236 256.378 841.168C291.882 858.652 330.018 869.92 365.618 887.18ZM256.878 845.116C256.67 844.428 256.506 843.74 256.426 843.04C261.242 847.348 266.894 850.948 272.298 854.42C277.99 858.076 283.842 861.488 289.77 864.748C302.03 871.488 314.718 877.404 327.51 883.052C353.086 894.336 379.258 904.524 403.66 918.276C408.796 921.172 413.8 924.292 418.716 927.544C414 925.232 409.26 922.968 404.484 920.784C391.21 914.712 377.646 909.3 363.838 904.572C337.122 895.42 308.586 889.008 284.794 873.128C273.578 865.644 264.414 856.184 256.878 845.116ZM291.166 884.196C283.582 878.464 276.526 872.032 270.278 864.856C269.462 863.92 268.694 862.94 267.906 861.98C271.29 865.26 274.934 868.284 278.67 871.076C289.306 879.032 301.246 885.088 313.498 890.124C327.254 895.776 341.558 899.98 355.638 904.716C369.714 909.448 383.57 914.82 397.134 920.864C404.728 924.248 412.195 927.88 419.564 931.72C421.328 932.64 423.06 933.608 424.812 934.548C414.38 930.928 403.476 928.496 392.782 925.948C357.13 917.44 320.806 906.604 291.166 884.196ZM523.443 950.364C523.128 950.632 522.807 950.896 522.487 951.16C522.707 950.796 522.952 950.448 523.172 950.088C523.244 950.2 523.331 950.296 523.443 950.364ZM621.236 889.052C592.972 901.86 566.02 917.7 541.164 936.26C536.028 940.096 531.023 944.096 526.076 948.168C545.083 925.396 569.523 907.336 597.188 896.496C605.011 893.432 613.052 890.944 621.236 889.052ZM594.688 894.328C574.659 902.668 556.172 914.708 540.539 929.78C535.183 934.944 530.207 940.452 525.607 946.288C541.983 921.88 566.779 903.472 594.688 894.328ZM551.08 885.88C544.696 899.568 537.771 912.996 530.888 926.44C535.156 910.28 539.535 894.164 544.987 878.34C551.207 860.292 558.472 842.604 566.556 825.316C570.396 817.108 574.479 809.016 578.703 800.996C574.268 830.544 563.684 858.856 551.08 885.88ZM579.599 794.344C579.143 794.4 578.708 794.628 578.44 795.128C560.268 829.236 545.872 865.344 535.112 902.456C534.055 906.1 533.044 909.752 532.068 913.416C536.296 881.44 546.336 850.12 561.487 821.704C566.299 812.68 571.656 803.9 577.32 795.38C578.12 794.768 578.888 794.12 579.708 793.528C579.676 793.8 579.631 794.072 579.599 794.344ZM559.135 813.256C563.352 807.888 568.107 803 573.284 798.596C552.328 828.708 538.344 863.924 531.624 899.876C529.668 910.34 528.36 920.92 527.632 931.536C527.84 890.18 532.82 846.74 559.135 813.256ZM590.424 922.476C581.944 927.524 572.992 931.84 563.768 935.348C555.143 938.628 546.292 941.288 537.744 944.78C534.528 946.092 531.151 947.612 527.867 949.352C552.016 930.508 577.883 914.004 605.276 900.248C613.812 895.964 622.456 891.916 631.24 888.16C631.364 888.108 631.44 888.024 631.539 887.952C631.571 887.952 631.608 887.948 631.64 887.948C619.84 901.544 605.9 913.264 590.424 922.476Z" fill="white"/>
<defs>
<linearGradient id="paint0_linear_1_717" x1="534.622" y1="720.81" x2="574.656" y2="713.172" gradientUnits="userSpaceOnUse">
<stop stop-color="#0B9B8A"/>
<stop offset="1" stop-color="#08DEC5"/>
</linearGradient>
<linearGradient id="paint1_linear_1_717" x1="333.985" y1="532.101" x2="389.382" y2="502.589" gradientUnits="userSpaceOnUse">
<stop stop-color="#0B9B8A"/>
<stop offset="1" stop-color="#08DEC5"/>
</linearGradient>
<linearGradient id="paint2_linear_1_717" x1="257.278" y1="239.873" x2="321.398" y2="221.665" gradientUnits="userSpaceOnUse">
<stop stop-color="#0B9B8A"/>
<stop offset="1" stop-color="#08DEC5"/>
</linearGradient>
</defs>
</svg>
