<svg width="641" height="1510" viewBox="0 0 641 1510" fill="none" xmlns="http://www.w3.org/2000/svg">
<path d="M493.934 1508.57C329.492 1165.93 278.522 771.686 350.421 398.499L359.19 400.19C287.663 771.514 338.366 1163.78 501.996 1504.72L493.934 1508.57Z" fill="url(#paint0_linear_1_274)"/>
<path d="M379.68 871.325C375.945 871.325 372.21 871.192 368.456 870.915C366.737 870.771 364.883 870.743 363.212 870.743L359.697 870.762C358.082 870.762 353.784 870.762 353.363 866.607C353.058 863.617 354.997 862.337 357.194 861.63C371.923 810.468 404.391 761.895 448.867 724.613C490.008 690.148 540.511 664.882 598.999 649.551L603.584 648.338L604.511 652.999C610.433 683.127 603.489 716.541 584.957 747.098C570.314 771.208 549.146 793.236 518.369 816.4C469.949 852.842 423.286 871.325 379.68 871.325ZM366.44 861.869C367.367 861.897 368.274 861.945 369.153 862.021C414.173 865.336 462.211 847.493 513.01 809.274C542.851 786.807 563.302 765.592 577.335 742.475C593.736 715.442 600.48 686.155 596.563 659.466C541.371 674.568 493.629 698.783 454.617 731.481C412.138 767.063 380.969 813.21 366.44 861.869Z" fill="url(#paint1_linear_1_274)"/>
<path d="M387.236 1096.38C387.369 1096.25 387.713 1095.75 387.751 1094.97L378.82 1094.68L378.83 1094.54C380.845 1043.26 408.289 991.177 460.396 939.738C514.662 886.169 571.852 856.233 625.774 853.166L630.512 852.899L630.493 857.646C630.264 899.753 600.967 935.048 570.992 967.593C530.557 1011.55 480.217 1066.25 414.975 1087.16C411.193 1088.37 407.343 1089.48 403.704 1090.54C397.409 1092.34 388.783 1094.82 387.236 1096.38ZM621.399 862.423C558.077 867.982 502.502 910.719 466.672 946.081C419.302 992.849 393.005 1039.84 388.391 1085.94C391.802 1084.66 396.1 1083.42 401.23 1081.94C404.783 1080.92 408.556 1079.82 412.253 1078.64C475.25 1058.45 522.629 1006.97 564.43 961.537C593.163 930.339 619.107 899.237 621.399 862.423Z" fill="url(#paint2_linear_1_274)"/>
<path d="M409.292 1263.18L412.339 1253.39C445.18 1148.09 531.923 1062.15 633.33 1034.43L638.297 1033.06L638.937 1038.17C643.79 1076.84 626.519 1120.14 592.752 1154.01C562.5 1184.3 524.501 1204.25 487.754 1223.54C465.87 1235.01 443.24 1246.88 418.538 1258.74L409.292 1263.18ZM630.579 1044.49C537.445 1071.94 457.722 1149.95 424.165 1246.08C445.084 1235.83 464.628 1225.58 483.618 1215.62C519.763 1196.65 557.141 1177.02 586.438 1147.69C616.747 1117.31 632.986 1079.11 630.579 1044.49Z" fill="url(#paint3_linear_1_274)"/>
<path d="M378.963 673.174C373.117 673.174 367.348 672.686 361.846 671.712L356.353 670.738L358.502 665.589C403.78 557.286 489.292 466.052 593.134 415.301L595.092 414.843C596.296 414.843 597.28 414.996 602.763 416.591L606.469 417.661L605.944 421.472C599.677 467.944 586.753 513.202 567.553 555.987C561.936 568.481 555.431 581.539 545.946 592.409C534.77 605.2 520.289 614.141 506.276 622.795C464.714 648.328 420.802 673.174 378.963 673.174ZM369 663.717C372.258 664.07 375.591 664.252 378.963 664.252C418.471 664.252 461.132 640.065 501.423 615.287C515.025 606.891 528.924 598.313 539.212 586.544C547.923 576.543 554.065 564.192 559.386 552.328C577.707 511.511 590.211 468.402 596.544 424.118C596.258 424.042 596.009 423.975 595.809 423.927C496.16 473.025 413.819 560.142 369 663.717Z" fill="url(#paint4_linear_1_274)"/>
<path d="M367.835 475.566L367.663 468.851C366.822 434.912 383.376 409.723 397.877 391.564C442.696 335.511 509.046 296.682 579.885 285.047L587.393 283.815L584.814 290.969C571.231 328.653 556.186 358.934 538.811 383.531C515.455 416.524 486.875 439.822 456.174 450.883C443.842 455.316 430.899 457.914 418.376 460.436C402.691 463.578 387.895 466.559 373.977 472.806L367.835 475.566ZM573.743 295.23C507.919 307.963 446.717 344.806 404.859 397.152C392.279 412.894 378.037 434.234 376.68 462.04C389.662 457.092 403.331 454.351 416.609 451.686C428.816 449.231 441.445 446.7 453.146 442.487C489.75 429.295 515.971 400.352 531.513 378.382C547.293 356.039 561.144 328.777 573.743 295.23Z" fill="url(#paint5_linear_1_274)"/>
<path d="M345.091 425.885L349.036 405.806C365.017 324.593 366.803 241.938 354.366 160.104L353.545 154.764C349.705 129.871 345.731 104.118 354.978 80.2469C358.445 71.2774 363.661 63.1102 368.714 55.2201C375.744 44.2159 382.393 33.8231 384.284 21.8637L386.5 7.86011L392.699 20.6028C398.612 32.7437 407.095 43.0887 416.074 54.0643C421.538 60.7317 427.183 67.6284 432.16 74.9263C463.902 121.369 469.633 188.178 447.482 253.639C428.32 310.313 393.339 358.876 359.515 405.845L345.091 425.885ZM390.159 34.3675C386.777 43.5568 381.437 51.9054 376.241 60.044C371.427 67.5711 366.459 75.3562 363.307 83.4947C354.92 105.14 358.713 129.68 362.371 153.417L363.193 158.776C374.799 235.051 374.178 312.061 361.378 387.972C391.849 345.446 421.996 301.171 439.037 250.793C460.282 187.977 454.961 124.12 424.795 79.9795C420.038 73.0063 414.517 66.272 409.177 59.7478C402.576 51.6762 395.813 43.4135 390.159 34.3675Z" fill="url(#paint6_linear_1_274)"/>
<path d="M311.286 429.372L305.908 407.745C296.929 371.6 278.359 338.511 252.186 312.051C245.289 305.097 237.638 298.315 230.216 291.762C208.962 272.963 187.002 253.534 178.147 226.024C167.362 192.495 179.111 157.381 193.191 121.36L199.267 105.828L201.769 122.325C204.205 138.353 220.1 148.249 235.479 157.821C238.851 159.922 242.175 161.995 245.337 164.106C280.021 187.328 304.656 227.906 314.705 278.36C322.213 316.034 322.194 358.217 314.658 407.344L311.286 429.372ZM197.156 136.032C185.807 166.475 177.86 195.972 186.658 223.311C194.758 248.491 214.856 266.267 236.138 285.095C243.665 291.743 251.441 298.63 258.538 305.794C280.938 328.424 297.999 355.714 308.573 385.594C313.072 346.124 312.203 311.459 305.965 280.118C296.375 231.994 273.086 193.441 240.389 171.538C237.304 169.484 234.056 167.459 230.77 165.415C218.132 157.544 204.205 148.88 197.156 136.032Z" fill="url(#paint7_linear_1_274)"/>
<path d="M264.222 621.563L257.707 616.08C172.31 544.123 109.772 445.219 86.1109 344.748L82.6146 329.875L93.5807 340.517C110.775 357.233 134.417 366.919 157.294 376.271C185.731 387.924 215.152 399.96 233.005 425.704C242.806 439.812 247.84 456.634 251.814 472.72C264.184 522.754 268.883 572.607 265.043 613.08L264.222 621.563ZM98.2135 356.135C122.963 447.502 180.028 536.615 256.828 603.547C259.188 565.692 254.402 520.395 243.131 474.85C239.367 459.585 234.639 443.69 225.669 430.785C209.316 407.22 182.407 396.197 153.903 384.524C134.646 376.653 114.863 368.543 98.2135 356.135Z" fill="url(#paint8_linear_1_274)"/>
<path d="M299.183 830.7L291.121 829.286C260.898 823.965 227.379 811.499 194.968 799.425C162.156 787.265 124.969 773.462 99.3407 744.901C65.803 707.562 60.0907 654.938 56.8048 599.755L56.5278 595.074L62.6793 595.017C117.328 595.017 172.482 623.34 214.006 672.715C251.546 717.334 275.169 773.568 296.021 823.163L299.183 830.7ZM66.0031 603.987C69.2413 655.779 75.307 704.782 105.979 738.941C130.128 765.849 166.235 779.251 198.073 791.058C227.197 801.899 257.22 813.076 284.539 818.902C263.907 769.919 241.994 719.865 207.166 678.456C168.193 632.118 116.917 605.114 66.0031 603.987Z" fill="url(#paint9_linear_1_274)"/>
<path d="M263.391 980.268C252.769 967.392 229.136 967.707 207.634 967.984L206.221 968.003C203.422 968.051 200.623 968.07 197.824 968.07C170.696 968.07 135.372 966.303 102.693 952.557C66.194 937.178 39.9828 908.579 32.5608 876.073C27.1637 852.393 31.7105 828.034 36.8687 807.335L38.1392 802.243L42.9631 804.316C148.812 849.68 223.252 905.494 270.517 974.91L263.391 980.268ZM217.693 958.967C229.098 958.967 240.532 959.55 250.371 962.387C204.616 903.468 136.938 854.962 44.3098 814.604C39.9731 833.107 36.7255 854.103 41.2915 874.086C48.064 903.803 72.327 930.052 106.18 944.333C137.387 957.458 171.556 959.149 197.843 959.149C200.604 959.149 203.355 959.12 206.106 959.082L207.52 959.063C210.873 959.015 214.292 958.967 217.693 958.967Z" fill="url(#paint10_linear_1_274)"/>
<path d="M317.542 1159.62L306.185 1156.95C277.375 1150.14 247.162 1147.72 217.951 1145.39C193.43 1143.43 168.069 1141.4 143.405 1136.8C77.275 1124.46 27.9568 1091.73 8.10721 1047.03L6.05322 1042.41L10.9063 1040.94C45.3803 1030.57 81.0385 1019.83 117.738 1017.15C123.059 1016.78 128.408 1016.57 133.767 1016.57C168.938 1016.57 200.365 1025.19 224.656 1041.51C253.466 1060.96 271.95 1089.93 291.532 1120.6C297.722 1130.32 304.131 1140.35 310.885 1150.05L317.542 1159.62ZM18.443 1047.98C38.3881 1087.62 84.1717 1116.66 145.048 1128.01C169.244 1132.53 194.366 1134.54 218.658 1136.49C244.554 1138.56 271.214 1140.68 297.244 1145.86C292.688 1139.01 288.284 1132.12 283.995 1125.39C264.929 1095.52 246.913 1067.3 219.661 1048.89C196.859 1033.57 167.152 1025.48 133.767 1025.48C128.628 1025.48 123.489 1025.67 118.388 1026.03C84.4008 1028.52 50.9111 1038.23 18.443 1047.98Z" fill="url(#paint11_linear_1_274)"/>
<path d="M336.055 1309.38C326.579 1309.38 317.237 1308.79 308.286 1307.62C281.254 1304.12 255.72 1295.52 232.155 1286.75C220.711 1282.47 209.784 1277.9 201.903 1269.19C194.691 1261.19 191.367 1251.16 188.157 1241.47C185.798 1234.36 183.572 1227.63 179.943 1221.74L178.194 1218.92L180.382 1216.44C194.691 1200.24 217.397 1192.69 241.64 1195.86C263.334 1198.68 283.26 1208.81 299.909 1218.33C340.936 1241.88 370.682 1267.59 390.856 1296.97L394.648 1302.5L388.076 1303.87C370.491 1307.53 352.981 1309.38 336.055 1309.38ZM189.256 1220.03C192.446 1226 194.577 1232.43 196.64 1238.67C199.697 1247.89 202.581 1256.61 208.523 1263.2C215.066 1270.44 224.513 1274.35 235.279 1278.38C258.338 1286.96 283.288 1295.37 309.442 1298.77C318.001 1299.88 326.961 1300.45 336.055 1300.45C350.211 1300.45 364.797 1299.1 379.508 1296.45C360.222 1270.48 332.664 1247.42 295.477 1226.09C279.601 1216.99 260.649 1207.33 240.494 1204.72C237.18 1204.29 233.855 1204.08 230.598 1204.08C218.782 1204.07 202.295 1206.9 189.256 1220.03Z" fill="url(#paint12_linear_1_274)"/>
<path d="M334.717 897.422L327.572 892.044C336.293 880.457 346.61 870.141 358.235 861.372L363.613 868.507C352.647 876.77 342.932 886.494 334.717 897.422Z" fill="url(#paint13_linear_1_274)"/>
<path d="M372.2 1129.67L363.565 1127.38C367.319 1113.2 373.165 1099.57 380.922 1086.9L388.535 1091.56C381.227 1103.49 375.735 1116.31 372.2 1129.67Z" fill="url(#paint14_linear_1_274)"/>
<path d="M409.846 1273.48L402.118 1268.99C406.226 1261.94 410.811 1255.08 414.861 1249.02L422.283 1253.99C418.309 1259.93 413.8 1266.67 409.846 1273.48Z" fill="url(#paint15_linear_1_274)"/>
<path d="M382.908 1212.36C378.83 1206.41 371.981 1201.94 366.479 1198.36C344.891 1184.2 323.322 1169.99 301.762 1155.77L306.672 1148.32C328.241 1162.53 349.81 1176.74 371.369 1190.89C377.521 1194.9 385.191 1199.89 390.273 1207.32L382.908 1212.36Z" fill="url(#paint16_linear_1_274)"/>
<path d="M417.86 1322.01C406.483 1315.85 394.572 1310.05 382.479 1304.75L386.061 1296.56C398.383 1301.95 410.514 1307.87 422.111 1314.15L417.86 1322.01Z" fill="url(#paint17_linear_1_274)"/>
<path d="M349.447 1061C343.744 1054.14 338.051 1047.46 332.339 1040.78L331.708 1040.04C326.178 1033.58 320.446 1026.9 314.362 1020.92C306.108 1012.85 296.757 1005.62 287.73 998.628L255.711 973.849L261.175 966.79L293.194 991.569C302.431 998.714 311.973 1006.11 320.609 1014.54C326.98 1020.8 332.826 1027.63 338.491 1034.23L339.121 1034.97C344.862 1041.7 350.593 1048.4 356.315 1055.3L349.447 1061Z" fill="url(#paint18_linear_1_274)"/>
<path d="M332.941 878.9L328.088 877.353L324.688 878.843C315.861 858.85 300.816 841.818 286.268 825.341L292.965 819.428C307.962 836.412 323.474 853.978 332.864 875.232L333.246 877.821L332.941 878.9Z" fill="url(#paint19_linear_1_274)"/>
<path d="M326.694 704.419L321.841 696.92C336.552 687.426 349.504 674.75 362.037 662.475L368.274 668.856C355.427 681.436 342.159 694.437 326.694 704.419Z" fill="url(#paint20_linear_1_274)"/>
<path d="M319.634 703.311C313.148 686.203 301.084 672.362 288.303 657.709C276.162 643.791 263.611 629.396 256.284 611.934L264.528 608.486C271.281 624.61 282.811 637.84 295.018 651.843C307.761 666.449 320.934 681.551 327.983 700.159L319.634 703.311Z" fill="url(#paint21_linear_1_274)"/>
<path d="M337.736 541.123L329.54 537.58C332.721 530.215 337.019 523.528 341.194 517.061C344.002 512.706 346.82 508.35 349.265 503.784C351.997 498.74 354.357 493.276 356.64 488.003C360.633 478.747 364.778 469.176 371.188 460.846L378.256 466.291C372.516 473.742 368.79 482.396 364.826 491.547C362.467 496.992 360.031 502.637 357.117 508.025C354.529 512.839 351.568 517.443 348.692 521.904C344.556 528.343 340.621 534.437 337.736 541.123Z" fill="url(#paint22_linear_1_274)"/>
<path d="M331.259 529.623C330.161 518.867 327.209 508.407 322.51 498.53C321.545 496.524 320.523 494.556 319.491 492.589C317.819 489.379 316.148 486.169 314.753 482.836C311.391 474.984 309.614 466.702 308.181 458.917C304.055 436.173 302.746 412.971 304.274 389.94L313.196 390.542C311.706 412.827 312.986 435.304 316.979 457.312C318.316 464.572 319.969 472.271 322.987 479.359C324.305 482.482 325.862 485.463 327.429 488.443C328.499 490.506 329.588 492.569 330.591 494.671C335.739 505.484 338.959 516.928 340.162 528.706L331.259 529.623Z" fill="url(#paint23_linear_1_274)"/>
<path d="M597.184 1086.69C593.65 1086.74 590.794 1089.86 587.718 1091.37C565.347 1105.53 544.456 1121.87 524.492 1139.2C485.729 1173.31 450.328 1211.41 419.283 1252.67C440.948 1224.18 470.283 1199.89 498.596 1177.02C522.973 1158.4 545.793 1137.14 571.279 1120.28C564.63 1126.44 557.657 1132.33 550.961 1138.31C542.975 1145.2 534.713 1151.7 526.364 1158.19C539.097 1151.93 551.821 1144.92 562.481 1135.55C572.664 1124.03 581.461 1111.26 590.536 1098.84C592.895 1095.12 595.665 1091.61 597.27 1087.49C597.356 1087.22 597.442 1086.82 597.184 1086.69Z" fill="url(#paint24_linear_1_274)"/>
<path d="M530.338 722.549C464.112 757.825 412.855 813.868 358.961 864.906C407.009 827.929 453.003 788.412 501.49 751.979C508.282 746.84 514.758 741.08 521.999 736.534C520.212 738.406 518.426 740.24 516.678 742.16C510.918 748.493 505.301 754.931 499.665 761.398C508.282 751.893 518.025 743.402 526.555 733.888C526.65 734.04 526.555 734.203 526.459 734.346C527.042 733.591 527.625 732.827 528.208 732.073C531.427 728.366 534.464 724.479 537.139 720.285C540.253 716.34 531.369 721.833 530.338 722.549Z" fill="url(#paint25_linear_1_274)"/>
<path d="M524.807 952.194C492.96 977.833 462.641 1005.3 433.707 1034.13C418.175 1050.26 401.335 1066.02 388.697 1084.59C397.762 1072.62 413.533 1059.59 429.877 1044.76C464.886 1013.54 498.51 980.775 531.637 947.59C533.203 946.033 534.713 944.467 536.231 942.91C532.401 945.985 528.551 949.071 524.807 952.194Z" fill="url(#paint26_linear_1_274)"/>
<path d="M388.649 1084.59C386.653 1087.22 384.991 1089.81 383.711 1092.35C385.306 1089.73 386.959 1087.14 388.649 1084.59Z" fill="url(#paint27_linear_1_274)"/>
<path d="M522.963 503.669C474.381 558.986 419.245 608.467 371.493 664.548C369.755 666.296 368.026 667.977 366.316 669.725C367.071 669.143 367.835 668.522 368.59 667.939C367.835 668.885 367.033 669.725 366.23 670.661C367.214 669.553 368.284 668.474 369.306 667.404C413.819 632.796 456.021 594.969 493.132 552.472C470.483 573.496 447.31 593.861 424.403 614.58C461.963 577.346 496.838 537.513 529.574 495.98C535.334 488.749 525.285 501.071 522.963 503.669Z" fill="url(#paint28_linear_1_274)"/>
<path d="M328.871 1276.06C316.635 1271.82 305.067 1265.6 292.602 1261.99C306.28 1270.43 319.128 1280.48 334.354 1286.1C352.571 1293.33 373.194 1296.72 391.591 1301.28C371.646 1290.58 350.03 1283.65 328.871 1276.06Z" fill="url(#paint29_linear_1_274)"/>
<path d="M308.506 1150.86C292.602 1135.76 279.62 1124.15 261.127 1113.85C233.12 1098.74 202.008 1088.88 170.572 1084.32C189.457 1090.97 208.036 1100.45 228.086 1109.33C255.72 1122.05 281.177 1133.8 305.287 1150.5C307.914 1152.16 311.181 1154.25 313.368 1155.68C311.763 1154.12 310.159 1152.47 308.506 1150.86Z" fill="url(#paint30_linear_1_274)"/>
<path d="M188.157 915.141C153.101 900.039 119.973 891.863 88.8523 869.625C116.668 898.396 154.629 913.26 191.109 927.674C203.928 932.546 240.408 950.857 262.159 965.721C247.467 950.857 213.929 926.031 188.157 915.141Z" fill="url(#paint31_linear_1_274)"/>
<path d="M289.745 815.435C283.145 805.119 274.92 786.626 266.085 773.95C236.654 732.866 189.724 693.214 141.409 667.175C170.027 688.075 195.035 713.446 220.033 738.406C248.929 766.719 266.82 788.851 283.393 816.152C282.858 815.922 282.276 815.645 281.521 815.34C272.542 811.366 263.486 807.211 254.555 803.285C254.908 803.504 255.224 803.724 255.577 803.953C265.989 810.688 275.99 818.186 287.147 823.602C288.265 824.137 289.516 824.261 290.682 823.65C293.996 821.73 290.5 816.629 289.745 815.435Z" fill="url(#paint32_linear_1_274)"/>
<path d="M260.363 604.617C246.35 557.83 216.871 472.051 173.705 446.776C192.981 462.719 201.741 488.128 212.544 510.671C226.873 542.652 243.923 573.324 258.529 605.2C260 608.409 262.187 613.052 263.4 615.296C262.474 611.762 261.528 608.151 260.363 604.617Z" fill="url(#paint33_linear_1_274)"/>
<path d="M200.938 522.143C211.513 535.411 218.744 550.905 227.637 565.233C236.52 579.533 249.511 597.119 258.175 608.553C243.57 577.345 227.102 545.231 200.938 522.143Z" fill="url(#paint34_linear_1_274)"/>
<path d="M476.836 377.379C434.911 401.89 390.655 429.133 368.064 473.962C378.648 459.089 392.575 446.69 406.512 434.845C427.947 416.4 445.17 404.001 465.316 388.058C470.264 384.075 475.355 379.71 479.864 375.545C478.899 376.137 477.867 376.768 476.836 377.379Z" fill="url(#paint35_linear_1_274)"/>
<path d="M404.678 185.828C401.287 215.478 392.938 244.813 386.156 274.052C377.225 312.013 370.07 350.365 362.887 388.679C362.486 391 361.817 393.713 361.33 395.643C362.744 392.749 363.957 389.759 365.113 386.759C389.28 322.778 408.069 254.766 404.678 185.828Z" fill="url(#paint36_linear_1_274)"/>
<path d="M303.329 354.482C296.891 326.532 284.033 300.55 271.615 274.826C267.288 264.414 261.308 255.569 261.261 243.743C259.465 251.337 261.576 259.151 263.228 266.602C270.555 298.707 288.59 326.532 302.249 356.039C302.794 357.147 304.131 360.815 304.618 361.885C304.217 359.392 303.816 356.928 303.329 354.482Z" fill="url(#paint37_linear_1_274)"/>
<defs>
<linearGradient id="paint0_linear_1_274" x1="418.004" y1="1508.57" x2="512.37" y2="1500.72" gradientUnits="userSpaceOnUse">
<stop stop-color="#D02964"/>
<stop offset="1" stop-color="#FC8F59"/>
</linearGradient>
<linearGradient id="paint1_linear_1_274" x1="490.575" y1="871.325" x2="589.453" y2="814.772" gradientUnits="userSpaceOnUse">
<stop stop-color="#D02964"/>
<stop offset="1" stop-color="#FC8F59"/>
</linearGradient>
<linearGradient id="paint2_linear_1_274" x1="515.225" y1="1096.38" x2="617.835" y2="1042.96" gradientUnits="userSpaceOnUse">
<stop stop-color="#D02964"/>
<stop offset="1" stop-color="#FC8F59"/>
</linearGradient>
<linearGradient id="paint3_linear_1_274" x1="534.185" y1="1263.18" x2="629.384" y2="1215.16" gradientUnits="userSpaceOnUse">
<stop stop-color="#D02964"/>
<stop offset="1" stop-color="#FC8F59"/>
</linearGradient>
<linearGradient id="paint4_linear_1_274" x1="491.904" y1="673.174" x2="596.613" y2="622.116" gradientUnits="userSpaceOnUse">
<stop stop-color="#D02964"/>
<stop offset="1" stop-color="#FC8F59"/>
</linearGradient>
<linearGradient id="paint5_linear_1_274" x1="486.732" y1="475.566" x2="572.151" y2="426.264" gradientUnits="userSpaceOnUse">
<stop stop-color="#D02964"/>
<stop offset="1" stop-color="#FC8F59"/>
</linearGradient>
<linearGradient id="paint6_linear_1_274" x1="407.8" y1="425.885" x2="466.615" y2="417.686" gradientUnits="userSpaceOnUse">
<stop stop-color="#D02964"/>
<stop offset="1" stop-color="#FC8F59"/>
</linearGradient>
<linearGradient id="paint7_linear_1_274" x1="253.273" y1="429.372" x2="325.382" y2="412.941" gradientUnits="userSpaceOnUse">
<stop stop-color="#D02964"/>
<stop offset="1" stop-color="#FC8F59"/>
</linearGradient>
<linearGradient id="paint8_linear_1_274" x1="182.19" y1="621.563" x2="268.692" y2="594.121" gradientUnits="userSpaceOnUse">
<stop stop-color="#D02964"/>
<stop offset="1" stop-color="#FC8F59"/>
</linearGradient>
<linearGradient id="paint9_linear_1_274" x1="188.035" y1="830.699" x2="287.131" y2="779.316" gradientUnits="userSpaceOnUse">
<stop stop-color="#D02964"/>
<stop offset="1" stop-color="#FC8F59"/>
</linearGradient>
<linearGradient id="paint10_linear_1_274" x1="160.407" y1="980.268" x2="245.582" y2="922.346" gradientUnits="userSpaceOnUse">
<stop stop-color="#D02964"/>
<stop offset="1" stop-color="#FC8F59"/>
</linearGradient>
<linearGradient id="paint11_linear_1_274" x1="174.865" y1="1159.62" x2="248.148" y2="1079.26" gradientUnits="userSpaceOnUse">
<stop stop-color="#D02964"/>
<stop offset="1" stop-color="#FC8F59"/>
</linearGradient>
<linearGradient id="paint12_linear_1_274" x1="295.502" y1="1309.38" x2="354.203" y2="1253.36" gradientUnits="userSpaceOnUse">
<stop stop-color="#D02964"/>
<stop offset="1" stop-color="#FC8F59"/>
</linearGradient>
<linearGradient id="paint13_linear_1_274" x1="347.105" y1="897.422" x2="362.003" y2="889.921" gradientUnits="userSpaceOnUse">
<stop stop-color="#D02964"/>
<stop offset="1" stop-color="#FC8F59"/>
</linearGradient>
<linearGradient id="paint14_linear_1_274" x1="377.097" y1="1129.67" x2="389.006" y2="1126.16" gradientUnits="userSpaceOnUse">
<stop stop-color="#D02964"/>
<stop offset="1" stop-color="#FC8F59"/>
</linearGradient>
<linearGradient id="paint15_linear_1_274" x1="413.046" y1="1273.48" x2="421.959" y2="1269.78" gradientUnits="userSpaceOnUse">
<stop stop-color="#D02964"/>
<stop offset="1" stop-color="#FC8F59"/>
</linearGradient>
<linearGradient id="paint16_linear_1_274" x1="349.731" y1="1212.36" x2="380.626" y2="1190.85" gradientUnits="userSpaceOnUse">
<stop stop-color="#D02964"/>
<stop offset="1" stop-color="#FC8F59"/>
</linearGradient>
<linearGradient id="paint17_linear_1_274" x1="403.957" y1="1322.01" x2="416.672" y2="1312.04" gradientUnits="userSpaceOnUse">
<stop stop-color="#D02964"/>
<stop offset="1" stop-color="#FC8F59"/>
</linearGradient>
<linearGradient id="paint18_linear_1_274" x1="310.233" y1="1061" x2="350.67" y2="1039.26" gradientUnits="userSpaceOnUse">
<stop stop-color="#D02964"/>
<stop offset="1" stop-color="#FC8F59"/>
</linearGradient>
<linearGradient id="paint19_linear_1_274" x1="311.728" y1="878.9" x2="332.745" y2="870.539" gradientUnits="userSpaceOnUse">
<stop stop-color="#D02964"/>
<stop offset="1" stop-color="#FC8F59"/>
</linearGradient>
<linearGradient id="paint20_linear_1_274" x1="347.006" y1="704.419" x2="365.361" y2="694.185" gradientUnits="userSpaceOnUse">
<stop stop-color="#D02964"/>
<stop offset="1" stop-color="#FC8F59"/>
</linearGradient>
<linearGradient id="paint21_linear_1_274" x1="295.141" y1="703.311" x2="327.589" y2="690.955" gradientUnits="userSpaceOnUse">
<stop stop-color="#D02964"/>
<stop offset="1" stop-color="#FC8F59"/>
</linearGradient>
<linearGradient id="paint22_linear_1_274" x1="355.942" y1="541.123" x2="379.029" y2="534.067" gradientUnits="userSpaceOnUse">
<stop stop-color="#D02964"/>
<stop offset="1" stop-color="#FC8F59"/>
</linearGradient>
<linearGradient id="paint23_linear_1_274" x1="323.441" y1="529.623" x2="342.035" y2="527.175" gradientUnits="userSpaceOnUse">
<stop stop-color="#D02964"/>
<stop offset="1" stop-color="#FC8F59"/>
</linearGradient>
<linearGradient id="paint24_linear_1_274" x1="515.79" y1="1252.67" x2="587.213" y2="1214.08" gradientUnits="userSpaceOnUse">
<stop stop-color="#D02964"/>
<stop offset="1" stop-color="#FC8F59"/>
</linearGradient>
<linearGradient id="paint25_linear_1_274" x1="455.882" y1="864.906" x2="523.015" y2="823.501" gradientUnits="userSpaceOnUse">
<stop stop-color="#D02964"/>
<stop offset="1" stop-color="#FC8F59"/>
</linearGradient>
<linearGradient id="paint26_linear_1_274" x1="468.654" y1="1084.59" x2="528.612" y2="1053.14" gradientUnits="userSpaceOnUse">
<stop stop-color="#D02964"/>
<stop offset="1" stop-color="#FC8F59"/>
</linearGradient>
<linearGradient id="paint27_linear_1_274" x1="386.387" y1="1092.35" x2="388.708" y2="1091.61" gradientUnits="userSpaceOnUse">
<stop stop-color="#D02964"/>
<stop offset="1" stop-color="#FC8F59"/>
</linearGradient>
<linearGradient id="paint28_linear_1_274" x1="455.707" y1="670.661" x2="525.781" y2="637.729" gradientUnits="userSpaceOnUse">
<stop stop-color="#D02964"/>
<stop offset="1" stop-color="#FC8F59"/>
</linearGradient>
<linearGradient id="paint29_linear_1_274" x1="346.249" y1="1301.28" x2="365.901" y2="1276.34" gradientUnits="userSpaceOnUse">
<stop stop-color="#D02964"/>
<stop offset="1" stop-color="#FC8F59"/>
</linearGradient>
<linearGradient id="paint30_linear_1_274" x1="247.961" y1="1155.68" x2="284.668" y2="1118.68" gradientUnits="userSpaceOnUse">
<stop stop-color="#D02964"/>
<stop offset="1" stop-color="#FC8F59"/>
</linearGradient>
<linearGradient id="paint31_linear_1_274" x1="182.776" y1="965.721" x2="231.984" y2="921.026" gradientUnits="userSpaceOnUse">
<stop stop-color="#D02964"/>
<stop offset="1" stop-color="#FC8F59"/>
</linearGradient>
<linearGradient id="paint32_linear_1_274" x1="223.068" y1="824.058" x2="286.342" y2="793.453" gradientUnits="userSpaceOnUse">
<stop stop-color="#D02964"/>
<stop offset="1" stop-color="#FC8F59"/>
</linearGradient>
<linearGradient id="paint33_linear_1_274" x1="222.315" y1="615.296" x2="265.678" y2="603.673" gradientUnits="userSpaceOnUse">
<stop stop-color="#D02964"/>
<stop offset="1" stop-color="#FC8F59"/>
</linearGradient>
<linearGradient id="paint34_linear_1_274" x1="231.958" y1="608.553" x2="258.647" y2="599.649" gradientUnits="userSpaceOnUse">
<stop stop-color="#D02964"/>
<stop offset="1" stop-color="#FC8F59"/>
</linearGradient>
<linearGradient id="paint35_linear_1_274" x1="428.654" y1="473.962" x2="472.301" y2="448.991" gradientUnits="userSpaceOnUse">
<stop stop-color="#D02964"/>
<stop offset="1" stop-color="#FC8F59"/>
</linearGradient>
<linearGradient id="paint36_linear_1_274" x1="385.038" y1="395.643" x2="407.458" y2="393.289" gradientUnits="userSpaceOnUse">
<stop stop-color="#D02964"/>
<stop offset="1" stop-color="#FC8F59"/>
</linearGradient>
<linearGradient id="paint37_linear_1_274" x1="284.444" y1="361.885" x2="306.49" y2="357.746" gradientUnits="userSpaceOnUse">
<stop stop-color="#D02964"/>
<stop offset="1" stop-color="#FC8F59"/>
</linearGradient>
</defs>
</svg>
