<svg width="641" height="974" viewBox="0 0 641 974" fill="none" xmlns="http://www.w3.org/2000/svg">
<g clip-path="url(#clip0_1_541)">
<path d="M504.841 825.485C501.801 825.485 498.795 825.399 495.835 825.252C484.795 824.685 473.088 823.572 462.341 819.325C456.321 816.945 450.761 813.632 445.375 810.432C440.135 807.319 435.181 804.372 429.808 802.185C424.715 800.112 418.828 798.925 413.628 798.925C407.961 798.925 403.628 800.265 401.421 802.699L393.021 811.959L396.088 799.845C404.881 765.072 424.008 732.292 449.961 707.539C464.728 693.459 478.061 686.845 491.455 687.579C493.341 687.672 495.241 687.919 497.135 688.159C501.321 688.705 505.288 689.025 508.195 688.098C514.721 686.012 517.781 678.919 521.021 671.412C522.501 667.985 524.028 664.452 525.941 661.272C535.228 645.872 552.781 640.625 569.761 635.559C576.228 633.625 582.915 631.625 588.928 629.099C608.141 621.039 623.835 605.385 631.988 586.172L638.808 570.085L637.968 587.539C636.355 621.039 634.528 659.012 615.695 690.418C614.975 691.618 614.228 692.805 613.481 694.005C610.468 698.832 607.615 703.385 606.395 708.465C605.435 712.458 605.501 716.685 605.581 721.158C605.681 726.632 605.775 732.292 603.888 737.785C601.195 745.659 595.195 751.199 589.401 756.559C585.675 760.005 582.161 763.252 579.475 767.059C575.988 772.032 573.995 777.885 571.881 784.079C569.908 789.852 567.875 795.825 564.488 801.192C554.328 817.312 534.255 825.485 504.841 825.485ZM413.628 792.685C419.681 792.685 426.268 794.005 432.161 796.412C437.961 798.778 443.348 801.985 448.555 805.079C453.968 808.292 459.075 811.332 464.628 813.539C474.541 817.452 485.635 818.492 496.161 819.032C499.008 819.172 501.901 819.259 504.841 819.259C531.975 819.259 550.275 812.065 559.221 797.872C562.221 793.125 564.055 787.752 565.988 782.072C568.148 775.738 570.375 769.185 574.388 763.479C577.461 759.132 581.388 755.498 585.181 751.985C590.648 746.925 595.815 742.152 598.001 735.765C599.541 731.299 599.455 726.432 599.361 721.265C599.281 716.592 599.201 711.765 600.348 706.992C601.808 700.932 605.061 695.725 608.208 690.692C608.935 689.532 609.661 688.372 610.355 687.212C625.848 661.385 629.355 630.332 631.035 601.312C621.555 616.145 607.621 628.019 591.348 634.845C585.028 637.499 578.175 639.545 571.555 641.525C554.981 646.479 539.328 651.152 531.288 664.492C529.588 667.305 528.208 670.492 526.748 673.879C523.101 682.339 519.328 691.079 510.101 694.032C506.128 695.292 501.008 694.939 496.335 694.339C494.601 694.112 492.868 693.885 491.148 693.799C479.755 693.272 467.735 699.205 454.261 712.045C430.995 734.239 413.388 763.112 404.161 794.012C406.888 793.132 410.068 792.685 413.628 792.685Z" fill="url(#paint0_linear_1_541)"/>
<path d="M382.668 893.392L377.675 883.279C369.295 866.312 360.155 848.619 350.508 830.665C348.382 826.699 346.515 823.525 343.635 821.725C339.355 819.059 332.402 820.165 325.435 822.005C318.808 823.759 312.288 824.679 306.595 824.679C294.062 824.679 285.188 820.272 280.928 811.945C279.408 808.972 278.648 805.739 277.908 802.612C276.835 798.052 275.902 794.105 272.995 791.845C269.542 789.165 263.328 790.139 257.155 791.565C255.222 792.005 253.295 792.452 251.435 792.765C249.622 793.065 247.755 793.219 245.888 793.219C228.142 793.219 211.588 779.879 208.215 762.852C207.075 757.105 207.315 751.305 207.548 745.705C207.768 740.399 207.982 735.392 207.082 730.519C205.395 721.299 200.502 716.939 193.102 710.339C188.002 705.799 181.668 700.145 175.235 691.452L167.162 680.539L179.188 686.839C195.355 695.305 216.862 694.905 232.715 685.872C234.448 684.885 236.122 683.812 237.802 682.745C241.475 680.392 245.275 677.965 249.622 676.432C257.335 673.712 265.962 675.159 270.502 680.185C271.762 681.585 272.642 683.105 273.495 684.572C274.122 685.645 274.735 686.739 275.535 687.692C277.708 690.305 280.508 691.472 284.608 691.465C288.828 691.465 293.675 690.219 298.815 688.905C304.342 687.485 310.055 686.012 315.495 686.012C320.375 686.012 324.408 687.192 327.815 689.605C333.188 693.405 335.442 699.325 337.615 705.045C339.255 709.352 340.795 713.425 343.562 716.359C347.228 720.292 352.742 721.912 358.582 723.632C361.388 724.459 364.202 725.292 366.855 726.372C391.362 736.379 400.569 766.319 398.829 791.552C397.962 804.019 395.155 816.332 392.448 828.232C389.775 839.945 387.015 852.059 386.195 864.099C385.328 870.805 384.855 873.185 384.495 874.939C384.148 876.679 383.942 877.725 383.582 882.132L382.668 893.392ZM336.828 813.785C340.762 813.785 344.062 814.652 346.928 816.439C351.455 819.252 353.975 823.945 356.002 827.712C363.988 842.579 371.642 857.285 378.796 871.539C379.089 869.905 379.462 867.525 379.982 863.492C380.815 851.152 383.635 838.805 386.355 826.852C389.015 815.185 391.768 803.112 392.595 791.132C394.182 768.139 386.108 740.979 364.495 732.152C362.035 731.152 359.415 730.379 356.815 729.619C350.428 727.739 343.828 725.792 339.002 720.619C335.408 716.792 333.568 711.945 331.782 707.265C329.855 702.192 328.028 697.405 324.202 694.692C318.848 690.885 309.435 692.619 300.362 694.939C295.075 696.292 289.615 697.699 284.608 697.699C278.648 697.699 274.122 695.732 270.748 691.685C269.728 690.459 268.908 689.079 268.102 687.685C267.388 686.439 266.702 685.265 265.882 684.352C263.028 681.205 257.048 680.425 251.695 682.305C248.022 683.599 244.688 685.739 241.155 687.992C239.388 689.125 237.622 690.259 235.795 691.285C221.782 699.265 203.842 701.365 188.042 696.985C191.268 700.352 194.368 703.112 197.248 705.685C204.695 712.325 211.135 718.065 213.215 729.392C214.235 734.952 214.002 740.552 213.775 745.965C213.548 751.439 213.335 756.619 214.328 761.639C217.388 777.059 234.322 789.239 250.415 786.619C252.155 786.325 253.948 785.912 255.762 785.492C259.402 784.652 263.168 783.779 266.848 783.779C270.835 783.779 274.095 784.805 276.822 786.919C281.475 790.539 282.755 795.945 283.982 801.185C284.668 804.079 285.308 806.812 286.482 809.112C289.655 815.312 296.415 818.445 306.602 818.445C311.768 818.445 317.735 817.592 323.848 815.985C328.028 814.872 332.495 813.785 336.828 813.785Z" fill="url(#paint1_linear_1_541)"/>
<path d="M430.875 578.232L431.962 570.745C432.575 566.525 433.102 562.279 433.602 558.185C434.962 547.119 436.135 537.559 438.608 531.872C445.788 515.265 443.068 497.112 440.188 477.899C438.608 467.359 436.975 456.452 437.095 445.752C437.155 440.205 437.808 432.159 442.815 426.419C446.788 421.859 452.262 419.932 457.555 418.065C460.562 417.012 463.395 416.005 465.902 414.572C474.148 409.812 478.388 400.619 482.868 390.879C487.542 380.732 492.382 370.225 502.275 364.445C508.982 360.512 516.588 359.685 523.942 358.892C527.782 358.472 531.415 358.079 534.935 357.272C548.068 354.279 559.568 345.412 569.728 337.592L638.475 284.505L617.242 366.672C614.428 377.545 611.548 388.672 606.088 398.705C603.355 403.719 600.015 408.385 596.782 412.899C592.322 419.132 588.108 425.025 585.355 431.732C581.582 440.979 580.682 451.825 579.815 462.312C578.475 478.579 577.082 495.412 564.922 506.979C558.628 512.965 550.548 516.259 542.728 519.439C534.082 522.959 525.922 526.279 520.575 532.899C519.042 534.792 517.768 536.945 516.415 539.219C514.508 542.439 512.535 545.772 509.668 548.559C502.035 555.952 491.455 556.885 481.215 557.792C479.028 557.979 476.855 558.172 474.735 558.432C461.022 560.112 447.942 565.385 436.908 573.685L430.875 578.232ZM627.895 300.552L573.548 342.525C562.882 350.739 550.795 360.052 536.342 363.345C532.462 364.239 528.475 364.665 524.622 365.085C517.615 365.845 510.995 366.572 505.428 369.832C497.222 374.625 493.008 383.785 488.542 393.492C483.848 403.679 478.988 414.219 469.015 419.979C466.015 421.705 462.768 422.845 459.642 423.952C454.895 425.625 450.415 427.199 447.528 430.519C443.875 434.712 443.388 441.265 443.342 445.832C443.222 456.032 444.815 466.685 446.362 476.985C449.242 496.225 452.222 516.112 444.328 534.359C442.215 539.219 441.035 548.805 439.788 558.952C439.562 560.819 439.328 562.725 439.082 564.645C449.635 558.025 461.575 553.772 473.995 552.252C476.182 551.985 478.428 551.785 480.682 551.585C490.262 550.739 499.302 549.945 505.335 544.092C507.602 541.885 509.288 539.045 511.062 536.045C512.462 533.679 513.915 531.225 515.735 528.979C522.088 521.112 531.395 517.332 540.382 513.665C548.002 510.565 555.188 507.645 560.628 502.465C571.075 492.532 572.302 477.599 573.608 461.792C574.515 450.832 575.448 439.505 579.588 429.372C582.615 421.992 587.235 415.525 591.708 409.265C594.835 404.905 598.055 400.399 600.615 395.712C605.708 386.365 608.488 375.612 611.175 365.219L627.895 300.552Z" fill="url(#paint2_linear_1_541)"/>
<path d="M241.735 628.565C222.995 628.565 203.348 621.779 186.595 615.132C178.422 611.905 167.528 607.965 158.935 609.932L142.248 613.725L156.528 604.285C186.328 584.599 203.895 572.292 218.428 548.459C222.562 541.672 226.475 534.712 230.382 527.765C240.595 509.572 251.162 490.772 265.835 475.332C268.135 472.965 270.868 470.385 274.542 469.565C278.148 468.765 282.035 470.052 285.182 471.239L287.062 471.925C290.782 473.212 294.715 473.839 299.108 473.839C307.435 473.839 315.922 471.605 324.915 469.245C331.435 467.532 338.168 465.765 344.895 464.912C347.722 464.552 350.622 464.372 353.515 464.372C380.602 464.372 407.182 480.165 419.675 503.679C430.622 524.292 416.068 563.465 390.295 582.772C387.542 584.839 383.328 587.592 378.582 587.592C377.815 587.592 377.035 587.519 376.262 587.365C374.068 586.945 372.202 585.912 370.555 585.005C369.522 584.439 368.495 583.852 367.375 583.479C362.788 581.979 356.782 585.072 351.848 591.265C350.888 592.465 349.968 593.699 349.035 594.945C345.268 599.999 341.368 605.219 335.202 607.865C328.922 610.545 320.735 609.419 313.262 607.812C308.055 606.692 303.195 605.632 298.455 606.272C292.028 607.132 286.522 611.072 280.688 615.239C277.955 617.192 275.128 619.219 272.155 620.939C263.382 625.992 253.155 628.565 241.735 628.565ZM169.102 603.412C176.222 604.325 183.135 607.059 188.895 609.339C205.108 615.765 224.048 622.325 241.742 622.325C252.195 622.325 261.122 620.105 269.035 615.519C271.748 613.952 274.455 612.019 277.068 610.145C283.268 605.719 289.675 601.132 297.635 600.072C303.275 599.319 309.095 600.519 314.575 601.699C321.428 603.185 327.935 604.185 332.748 602.119C337.375 600.125 340.622 595.792 344.048 591.192C345.022 589.892 345.988 588.592 346.988 587.352C349.502 584.192 356.295 576.832 364.888 576.832C366.402 576.832 367.895 577.072 369.328 577.539C370.815 578.025 372.195 578.772 373.568 579.525C374.935 580.279 376.222 580.992 377.468 581.232C380.122 581.759 382.822 580.579 386.562 577.765C409.748 560.399 423.674 524.479 414.174 506.579C402.734 485.052 378.362 470.579 353.522 470.579C350.888 470.579 348.255 470.745 345.682 471.072C339.368 471.872 332.828 473.592 326.502 475.252C317.528 477.612 308.248 480.052 299.115 480.052C294.022 480.052 289.415 479.319 285.035 477.799L282.995 477.059C280.382 476.079 277.895 475.179 275.902 475.632C273.915 476.079 272.068 477.852 270.342 479.639C256.228 494.499 245.848 512.952 235.822 530.812C231.875 537.832 227.928 544.852 223.755 551.699C210.108 574.079 194.222 586.545 169.102 603.412Z" fill="url(#paint3_linear_1_541)"/>
<path d="M380.815 357.139C377.408 357.139 374.108 356.679 371.015 355.772L367.148 354.645L369.215 351.179C383.015 328.052 381.975 323.659 378.882 310.619L378.102 307.285C376.988 302.405 375.515 297.432 374.095 292.632C370.835 281.592 367.462 270.172 367.802 258.299C368.268 241.359 376.528 225.025 389.882 214.605C397.108 208.972 405.555 205.185 413.715 201.512C424.202 196.799 434.115 192.345 441.348 184.399C447.888 177.205 451.442 168.012 455.195 158.285C458.835 148.852 462.595 139.105 469.362 131.179C476.642 122.659 486.722 116.972 496.462 111.479C509.362 104.212 521.535 97.3454 526.255 84.7388L530.588 73.1521L532.255 85.4121C533.428 94.0254 530.075 102.759 526.835 111.199C523.668 119.452 520.388 127.985 521.568 136.019C522.734 144.079 525.942 151.572 529.335 159.492C532.135 166.025 535.028 172.785 536.695 179.919C540.475 195.959 537.728 213.259 529.154 227.372C527.894 229.459 526.488 231.519 525.075 233.585C520.955 239.612 517.062 245.312 516.768 251.785C516.608 255.425 517.588 259.079 518.628 262.945C519.188 265.019 519.742 267.085 520.142 269.179C523.635 287.685 513.382 307.612 496.302 315.525C495.262 316.012 494.188 316.459 493.108 316.905C490.295 318.072 487.642 319.179 485.688 320.952C483.768 322.692 482.408 325.165 480.961 327.779C479.008 331.305 476.994 334.952 473.341 337.432C470.488 339.359 467.068 340.305 462.882 340.305C459.695 340.305 456.488 339.779 453.395 339.272L450.695 338.839C438.795 337.079 426.255 342.472 414.055 347.679C403.148 352.332 391.895 357.139 380.815 357.139ZM376.755 350.639C378.062 350.812 379.408 350.899 380.808 350.899C390.615 350.899 400.802 346.559 411.582 341.959C424.555 336.419 438.108 330.692 451.582 332.679L454.381 333.119C460.348 334.099 466.368 334.625 469.828 332.272C472.242 330.639 473.822 327.785 475.488 324.765C477.115 321.819 478.795 318.772 481.475 316.332C484.228 313.825 487.521 312.465 490.701 311.145C491.694 310.725 492.702 310.319 493.662 309.872C507.995 303.225 516.935 285.859 514.008 270.325C513.635 268.399 513.122 266.485 512.602 264.565C511.482 260.412 510.321 256.105 510.528 251.505C510.894 243.259 515.482 236.552 519.915 230.065C521.262 228.099 522.601 226.132 523.808 224.139C531.548 211.405 534.022 195.805 530.608 181.339C529.068 174.725 526.288 168.225 523.588 161.939C520.182 153.992 516.668 145.772 515.375 136.912C513.968 127.272 517.542 117.959 521.002 108.959C522.282 105.619 523.535 102.359 524.495 99.1788C517.762 106.599 508.528 111.805 499.508 116.899C490.228 122.125 480.648 127.532 474.088 135.219C468.014 142.325 464.602 151.165 460.995 160.512C457.202 170.352 453.275 180.525 445.942 188.579C437.835 197.485 426.868 202.419 416.255 207.185C408.428 210.705 400.335 214.339 393.695 219.512C381.788 228.799 374.428 243.359 374.008 258.465C373.702 269.352 376.788 279.799 380.055 290.852C381.502 295.752 382.995 300.819 384.162 305.892L384.928 309.179C388.108 322.539 389.508 328.459 376.755 350.639Z" fill="url(#paint4_linear_1_541)"/>
<path d="M137.708 453.019C133.755 453.019 129.882 452.505 126.182 451.499C120.888 450.052 117.595 449.039 114.355 448.045C107.875 446.052 101.755 444.172 80.2949 439.045L67.6682 436.039L80.2882 432.985C99.2215 428.412 115.435 411.705 128.482 383.325C130.582 378.752 132.588 374.099 134.595 369.439C142.502 351.052 150.675 332.045 165.395 317.905C168.128 315.272 171.515 312.439 175.908 311.385C178.382 310.799 181.435 310.932 184.435 311.199C185.528 311.305 186.615 311.399 187.702 311.425H187.722C198.495 311.425 207.142 305.172 216.302 298.539C221.535 294.752 226.948 290.832 232.802 288.019C241.175 284.005 250.835 282.045 262.342 282.045C272.355 282.045 282.368 283.472 292.595 285.065C314.342 288.439 338.522 293.632 350.235 312.619L351.128 314.059L350.408 315.585C344.822 327.432 340.402 342.925 336.122 357.899C334.608 363.219 333.042 368.725 329.708 373.559C325.148 380.219 318.275 384.219 311.622 388.079C308.755 389.745 305.795 391.465 303.148 393.339C296.828 397.839 291.082 404.032 285.528 410.025C274.795 421.605 263.695 433.592 247.528 434.425C241.642 434.739 236.042 433.405 230.628 432.119C227.022 431.265 223.615 430.465 220.155 430.105C205.668 428.619 191.328 435.065 177.368 441.325C164.535 447.072 151.268 453.019 137.708 453.019ZM91.9216 435.459C105.622 438.845 110.782 440.425 116.188 442.085C119.382 443.065 122.622 444.065 127.828 445.485C130.995 446.345 134.315 446.785 137.708 446.785C149.935 446.785 162.022 441.365 174.815 435.639C189.502 429.065 204.835 422.252 220.782 423.912C224.648 424.312 228.415 425.192 232.048 426.052C237.275 427.292 242.195 428.445 247.188 428.199C260.828 427.499 270.602 416.945 280.948 405.785C286.715 399.559 292.682 393.132 299.528 388.259C302.415 386.212 305.502 384.419 308.482 382.685C314.815 379.005 320.802 375.539 324.562 370.039C327.315 366.032 328.742 361.032 330.122 356.199C334.282 341.619 338.575 326.579 344.028 314.519C333.342 298.899 311.428 294.305 291.635 291.232C281.655 289.679 271.908 288.285 262.342 288.285C251.795 288.285 243.015 290.039 235.502 293.645C230.148 296.219 224.968 299.965 219.955 303.592C210.388 310.512 200.502 317.672 188.362 317.672L187.542 317.659C186.322 317.632 185.102 317.519 183.868 317.412C181.535 317.199 179.082 317.039 177.342 317.459C174.422 318.152 171.848 320.352 169.715 322.399C155.902 335.665 147.975 354.092 140.315 371.905C138.288 376.619 136.268 381.325 134.142 385.932C122.568 411.099 108.402 427.705 91.9216 435.459Z" fill="url(#paint5_linear_1_541)"/>
<path d="M298.828 247.339C293.468 247.339 287.302 245.732 281.922 242.939L280.328 242.105L280.248 240.305C279.615 225.852 278.975 211.165 281.568 196.852C283.662 185.312 288.902 169.152 301.935 157.732C306.042 154.145 310.648 151.285 315.102 148.519C316.982 147.345 318.868 146.172 320.715 144.952C336.688 134.372 349.655 119.712 358.235 102.559L363.088 92.8452L364.115 103.652C365.162 114.592 364.762 128.412 362.795 133.319C363.315 134.919 363.908 136.505 364.502 138.079C365.642 141.132 366.822 144.292 367.555 147.639C369.388 156.045 368.102 164.825 367.068 171.879C364.702 187.999 360.748 204.065 348.028 212.425C344.075 215.012 339.542 216.679 335.162 218.285C328.168 220.852 321.562 223.272 318.802 228.999C318.195 230.259 317.808 231.619 317.402 232.972C316.828 234.925 316.228 236.939 315.115 238.885C312.008 244.332 306.222 247.339 298.828 247.339ZM286.388 238.179C290.495 240.045 294.942 241.099 298.822 241.099C304.028 241.099 307.682 239.312 309.688 235.792C310.442 234.465 310.922 232.872 311.422 231.199C311.915 229.525 312.422 227.859 313.175 226.299C317.042 218.292 325.155 215.319 333.008 212.432C337.062 210.945 341.248 209.405 344.602 207.212C355.802 199.859 358.888 184.652 360.888 170.972C361.855 164.425 363.048 156.265 361.455 148.965C360.822 146.059 359.768 143.245 358.655 140.265C357.755 137.865 356.862 135.459 356.175 132.992L359.182 132.145L359.522 129.572C358.122 129.572 357.262 130.512 357.068 130.959C357.555 129.832 358.508 123.672 358.455 114.879C349.688 128.912 337.988 140.979 324.148 150.145C322.255 151.405 320.322 152.605 318.382 153.812C313.948 156.572 309.755 159.179 306.022 162.425C294.355 172.652 289.615 187.399 287.695 197.965C285.315 211.072 285.808 224.825 286.388 238.179Z" fill="url(#paint6_linear_1_541)"/>
<path d="M254.355 223.865L256.728 218.639C260.075 211.292 258.775 201.845 253.562 195.665C251.202 192.852 248.155 190.645 244.922 188.319C243.768 187.485 242.608 186.652 241.488 185.792C223.602 172.152 212.068 150.579 210.635 128.072C210.195 121.025 210.708 113.945 211.208 107.099C211.795 99.0254 212.348 91.4054 211.488 83.7587C210.268 72.9387 206.115 62.1787 202.102 51.7654C196.348 36.8321 190.388 21.3921 192.675 5.0987L193.308 0.592041L197.288 2.81204C209.082 9.40539 217.348 20.1454 225.342 30.5254C231.575 38.6254 238.015 46.9987 246.002 53.1054C249.775 55.9854 253.848 58.3587 258.148 60.8654C262.048 63.1387 266.075 65.4854 269.842 68.2321C279.788 75.4921 285.508 84.4987 285.955 93.5987C286.255 99.6254 284.315 105.205 282.442 110.599C280.748 115.465 279.148 120.072 279.228 124.732C279.295 128.299 280.335 131.839 281.442 135.592C282.208 138.199 283.002 140.892 283.488 143.685C285.082 153.099 282.875 162.545 280.922 170.879L275.242 195.159C272.315 207.585 268.988 221.679 260.028 223.025L254.355 223.865ZM198.428 10.8787C198.008 23.8054 202.842 36.332 207.928 49.512C212.082 60.292 216.382 71.432 217.695 83.052C218.615 91.272 218.015 99.5454 217.435 107.539C216.948 114.179 216.455 121.045 216.868 127.679C218.182 148.399 228.808 168.279 245.282 180.839C246.368 181.672 247.468 182.465 248.575 183.265C251.982 185.719 255.495 188.259 258.342 191.665C262.462 196.545 264.688 202.832 264.835 209.159C266.682 204.339 268.122 198.219 269.182 193.732L274.862 169.452C276.675 161.699 278.735 152.905 277.348 144.732C276.928 142.305 276.222 139.899 275.475 137.359C274.302 133.372 273.088 129.259 273.002 124.852C272.902 119.072 274.762 113.725 276.562 108.552C278.322 103.499 279.982 98.7321 279.742 93.9121C279.268 84.2254 271.035 76.8254 266.182 73.272C262.675 70.712 258.788 68.4454 255.022 66.2521C250.735 63.7587 246.308 61.1721 242.228 58.0587C233.595 51.4587 226.888 42.7521 220.415 34.3321C213.528 25.3787 206.975 16.8721 198.428 10.8787Z" fill="url(#paint7_linear_1_541)"/>
<path d="M124.528 275.112C120.615 275.112 116.675 274.672 112.655 274.172C80.6949 270.225 44.4748 265.759 15.3148 246.179L3.94153 238.539L17.5015 240.505C35.6548 243.152 52.8149 232.025 63.3682 222.852C68.9149 218.045 74.1882 212.659 79.2949 207.445C86.4949 200.092 93.9349 192.492 102.422 186.185C119.888 173.165 141.748 165.999 163.975 165.999C170.215 165.999 176.448 166.572 182.482 167.705C210.102 172.892 235.468 190.225 250.335 214.052L252.822 218.045L248.182 218.779C245.455 219.219 242.428 218.545 239.588 217.859C235.728 216.939 231.755 216.279 228.728 217.865C223.015 220.885 218.688 226.452 214.508 231.832L212.515 234.379C207.508 240.665 200.575 248.092 191.242 249.752C189.735 250.012 188.235 250.125 186.722 250.125C184.055 250.125 181.428 249.792 178.888 249.472C174.742 248.952 170.742 248.599 167.655 249.319C161.755 250.692 157.355 255.465 152.702 260.512C148.562 264.999 144.275 269.639 138.548 272.345C134.608 274.212 130.022 275.112 124.528 275.112ZM28.5015 246.819C54.6481 260.739 85.6749 264.565 113.415 267.992C122.468 269.099 130.388 269.312 135.882 266.712C140.515 264.519 144.215 260.512 148.122 256.285C153.215 250.765 158.482 245.059 166.242 243.252C170.235 242.319 175.182 242.732 179.675 243.292C182.128 243.605 184.448 243.892 186.728 243.892C187.875 243.892 189.022 243.819 190.168 243.619C197.395 242.339 203.062 236.272 207.642 230.512L209.595 228.012C214.188 222.112 218.922 216.012 225.828 212.365C230.448 209.939 236.408 210.699 241.048 211.805C241.155 211.832 241.255 211.859 241.362 211.885C227.108 192.339 205.115 178.305 181.348 173.839C175.682 172.779 169.842 172.239 163.988 172.239C143.095 172.239 122.555 178.972 106.155 191.199C98.0615 197.219 90.7882 204.645 83.7615 211.819C78.5749 217.125 73.2015 222.599 67.4749 227.572C58.2282 235.585 44.3415 244.985 28.5015 246.819Z" fill="url(#paint8_linear_1_541)"/>
<path d="M403.242 797.319L399.362 792.445C433.528 765.279 465.615 746.892 500.315 734.585C505.475 732.752 510.728 731.145 515.982 729.552C523.928 727.132 532.155 724.632 539.822 721.312C592.422 698.559 615.635 639.525 629.988 590.639L635.962 592.399C621.228 642.585 597.262 703.245 542.288 727.025C534.302 730.492 525.902 733.039 517.782 735.512C512.628 737.079 507.462 738.652 502.388 740.452C468.355 752.525 436.855 770.599 403.242 797.319Z" fill="url(#paint9_linear_1_541)"/>
<path d="M438.168 568.472L433.195 564.719C445.555 548.352 452.235 538.932 457.015 520.099C458.161 515.619 458.902 510.885 459.622 506.319C460.582 500.185 461.568 493.852 463.561 487.745C471.295 463.959 491.715 448.599 511.461 433.739C519.601 427.619 528.008 421.292 535.341 414.499C569.628 382.745 597.201 346.952 630.515 290.939L635.868 294.125C602.228 350.685 574.335 386.892 539.575 419.072C532.015 426.085 523.468 432.512 515.208 438.719C495.361 453.652 476.621 467.752 469.495 489.679C467.661 495.312 466.748 501.125 465.788 507.279C465.048 511.999 464.282 516.879 463.068 521.645C457.988 541.585 450.668 551.925 438.168 568.472Z" fill="url(#paint10_linear_1_541)"/>
<path d="M377.375 882.292C376.868 878.352 376.422 874.739 376.008 871.379C373.828 853.625 372.508 842.912 366.955 828.025C364.188 820.585 359.315 814.239 354.148 807.519C351.322 803.839 348.402 800.032 345.848 796.019C341.748 789.552 338.382 782.312 335.135 775.305C327.822 759.579 320.922 744.725 306.502 738.552C299.268 735.465 291.288 735.192 282.835 734.899C279.582 734.785 276.328 734.679 273.122 734.405C236.368 731.312 192.942 703.832 175.975 692.159L179.502 687.019C196.055 698.412 238.375 725.219 273.648 728.192C276.762 728.459 279.908 728.565 283.048 728.672C291.702 728.965 300.648 729.272 308.948 732.819C325.568 739.925 333.302 756.572 340.782 772.679C343.948 779.492 347.228 786.552 351.108 792.665C353.508 796.439 356.348 800.139 359.095 803.712C364.308 810.499 369.702 817.519 372.795 825.839C378.608 841.405 379.955 852.392 382.195 870.605C382.615 873.959 383.055 877.552 383.562 881.479L377.375 882.292Z" fill="url(#paint11_linear_1_541)"/>
<path d="M163.642 608.345L162.468 602.225C195.342 595.939 229.215 587.005 254.315 564.379C257.748 561.292 261.115 557.872 264.502 554.439C277.228 541.539 290.382 528.185 308.515 529.465C314.035 529.852 319.162 531.679 324.122 533.445C325.922 534.085 327.715 534.725 329.528 535.292C356.655 543.805 395.548 531.145 416.235 507.099L420.962 511.159C398.428 537.359 357.455 550.572 327.668 541.232C325.782 540.645 323.908 539.979 322.035 539.312C317.262 537.612 312.748 536.005 308.088 535.679C292.708 534.645 280.688 546.912 268.948 558.812C265.468 562.339 262.008 565.845 258.488 569.012C232.188 592.719 195.782 602.199 163.642 608.345Z" fill="url(#paint12_linear_1_541)"/>
<path d="M373.722 355.299L370.048 350.265C381.015 342.259 386.548 335.165 391.915 328.312C397.388 321.305 402.562 314.692 412.582 308.919C414.668 307.719 416.788 306.565 418.915 305.425C426.048 301.572 432.788 297.932 437.855 292.359C446.662 282.639 448.822 268.499 450.915 254.825L451.475 251.205C460.388 194.445 484.128 140.812 520.128 96.0986L524.988 100.005C489.668 143.872 466.382 196.492 457.642 252.172L457.088 255.765C454.855 270.352 452.548 285.425 442.482 296.539C436.702 302.905 429.168 306.965 421.888 310.899C419.808 312.019 417.735 313.139 415.702 314.312C406.728 319.479 402.148 325.352 396.835 332.145C391.462 339.005 385.388 346.779 373.722 355.299Z" fill="url(#paint13_linear_1_541)"/>
<path d="M284.375 243.112L282.342 237.219C295.028 232.852 300.255 219.339 305.322 203.445C306.142 200.872 306.915 198.265 307.688 195.645C311.462 182.945 315.355 169.812 324.602 159.832C327.508 156.685 330.822 154.012 334.022 151.419C336.668 149.279 339.168 147.252 341.462 144.985C349.762 136.745 354.775 125.299 355.215 113.592L361.442 113.819C360.955 127.092 355.268 140.072 345.848 149.412C343.328 151.905 340.595 154.119 337.942 156.259C334.768 158.825 331.775 161.245 329.175 164.065C320.922 172.979 317.235 185.399 313.668 197.412C312.882 200.072 312.095 202.725 311.262 205.332C306.708 219.612 301.048 237.372 284.375 243.112Z" fill="url(#paint14_linear_1_541)"/>
<path d="M263.675 217.299L258.322 214.105C268.535 196.999 265.908 187.299 260.375 173.365C259.455 171.059 258.395 168.792 257.335 166.539C255.302 162.205 253.208 157.725 252.042 152.845C250.002 144.245 250.962 135.112 251.895 126.279C253.188 113.932 254.415 102.272 247.188 93.9986C245.128 91.6386 242.508 89.7653 239.735 87.7853C238.028 86.572 236.322 85.352 234.722 84.0186C223.395 74.4986 218.348 60.2653 213.475 46.512C208.408 32.2053 203.622 18.7053 192.408 10.6386L196.042 5.57861C208.848 14.7786 214.188 29.852 219.355 44.4253C224.162 57.9986 228.702 70.8186 238.728 79.2386C240.202 80.472 241.775 81.592 243.348 82.712C246.295 84.812 249.342 86.9853 251.882 89.892C260.895 100.212 259.475 113.792 258.095 126.925C257.222 135.239 256.315 143.832 258.115 151.399C259.122 155.652 261.002 159.652 262.982 163.892C264.095 166.259 265.208 168.639 266.175 171.065C272.042 185.852 275.302 197.825 263.675 217.299Z" fill="url(#paint15_linear_1_541)"/>
<path d="M91.8084 436.025C91.2017 436.025 90.595 436.012 89.9817 435.992L90.1884 429.759C108.048 430.425 120.342 420.972 134.408 410.099C141.855 404.345 149.555 398.385 158.662 393.619C166.382 389.559 174.682 386.692 182.715 383.919C192.468 380.552 201.675 377.379 210.048 372.225C217.295 367.765 223.502 362.085 230.068 356.059C234.268 352.212 238.602 348.239 243.208 344.652C256.782 334.072 272.308 326.965 287.328 320.092C306.808 311.165 331.382 302.752 348.662 316.959L344.702 321.772C330.102 309.765 307.755 317.592 289.915 325.759C275.228 332.485 260.035 339.439 247.028 349.565C242.628 352.999 238.382 356.892 234.275 360.652C227.775 366.605 221.068 372.759 213.308 377.525C204.348 383.039 194.382 386.479 184.742 389.805C176.935 392.499 168.855 395.285 161.548 399.125C152.928 403.645 145.448 409.425 138.215 415.019C124.262 425.819 111.062 436.025 91.8084 436.025Z" fill="url(#paint16_linear_1_541)"/>
<path d="M45.5151 250.279C38.2084 250.279 30.9152 249.472 23.7952 247.819L25.2018 241.745C50.4018 247.612 78.0283 242.165 99.1083 227.185C101.668 225.372 104.155 223.412 106.642 221.452C112.995 216.445 119.568 211.279 127.462 208.305C138.848 204.039 151.028 205.085 162.848 206.099C174.555 207.099 185.622 208.059 195.755 204.165C197.695 203.425 199.562 202.519 201.422 201.619C204.795 199.985 208.275 198.299 212.188 197.479C225.842 194.639 236.815 202.032 247.822 210.525L244.022 215.459C233.835 207.592 224.522 201.292 213.468 203.579C210.308 204.245 207.308 205.692 204.142 207.225C202.115 208.205 200.088 209.185 197.988 209.985C186.515 214.385 174.222 213.332 162.315 212.312C150.695 211.312 139.715 210.372 129.655 214.139C122.662 216.772 116.755 221.419 110.502 226.345C107.935 228.365 105.368 230.385 102.722 232.272C86.1616 244.019 65.8218 250.279 45.5151 250.279Z" fill="url(#paint17_linear_1_541)"/>
<path d="M384.368 970.718C366.555 917.798 378.994 860.412 389.901 821.845C394.121 806.945 398.942 791.939 403.622 777.425C413.948 745.312 424.628 712.099 429.182 678.305C437.028 620.012 426.915 561.252 414.828 506.439C403.588 455.519 388.275 396.152 359.862 341.859C330.428 285.572 290.255 242.405 243.668 217.025L246.648 211.552C294.315 237.525 335.375 281.585 365.382 338.965C394.135 393.905 409.588 453.772 420.908 505.092C433.128 560.465 443.334 619.879 435.354 679.132C430.741 713.472 419.968 746.952 409.554 779.325C404.901 793.785 400.095 808.739 395.908 823.539C378.928 883.565 377.142 929.699 390.282 968.725L384.368 970.718Z" fill="url(#paint18_linear_1_541)"/>
</g>
<defs>
<linearGradient id="paint0_linear_1_541" x1="526.226" y1="825.485" x2="629.361" y2="775.499" gradientUnits="userSpaceOnUse">
<stop stop-color="#D02964"/>
<stop offset="1" stop-color="#FC8F59"/>
</linearGradient>
<linearGradient id="paint1_linear_1_541" x1="292.825" y1="893.392" x2="386.247" y2="843.42" gradientUnits="userSpaceOnUse">
<stop stop-color="#D02964"/>
<stop offset="1" stop-color="#FC8F59"/>
</linearGradient>
<linearGradient id="paint2_linear_1_541" x1="543.384" y1="578.232" x2="638.861" y2="544.247" gradientUnits="userSpaceOnUse">
<stop stop-color="#D02964"/>
<stop offset="1" stop-color="#FC8F59"/>
</linearGradient>
<linearGradient id="paint3_linear_1_541" x1="294.595" y1="628.565" x2="378.144" y2="556.526" gradientUnits="userSpaceOnUse">
<stop stop-color="#D02964"/>
<stop offset="1" stop-color="#FC8F59"/>
</linearGradient>
<linearGradient id="paint4_linear_1_541" x1="459.934" y1="357.139" x2="541.161" y2="332.476" gradientUnits="userSpaceOnUse">
<stop stop-color="#D02964"/>
<stop offset="1" stop-color="#FC8F59"/>
</linearGradient>
<linearGradient id="paint5_linear_1_541" x1="221.29" y1="453.019" x2="307.836" y2="380.756" gradientUnits="userSpaceOnUse">
<stop stop-color="#D02964"/>
<stop offset="1" stop-color="#FC8F59"/>
</linearGradient>
<linearGradient id="paint6_linear_1_541" x1="327.807" y1="247.339" x2="370.262" y2="235.05" gradientUnits="userSpaceOnUse">
<stop stop-color="#D02964"/>
<stop offset="1" stop-color="#FC8F59"/>
</linearGradient>
<linearGradient id="paint7_linear_1_541" x1="243.016" y1="223.865" x2="289.544" y2="214.02" gradientUnits="userSpaceOnUse">
<stop stop-color="#D02964"/>
<stop offset="1" stop-color="#FC8F59"/>
</linearGradient>
<linearGradient id="paint8_linear_1_541" x1="138.823" y1="275.112" x2="194.421" y2="211.244" gradientUnits="userSpaceOnUse">
<stop stop-color="#D02964"/>
<stop offset="1" stop-color="#FC8F59"/>
</linearGradient>
<linearGradient id="paint9_linear_1_541" x1="527.587" y1="797.319" x2="619.604" y2="744.268" gradientUnits="userSpaceOnUse">
<stop stop-color="#D02964"/>
<stop offset="1" stop-color="#FC8F59"/>
</linearGradient>
<linearGradient id="paint10_linear_1_541" x1="543.034" y1="568.472" x2="635.542" y2="534.449" gradientUnits="userSpaceOnUse">
<stop stop-color="#D02964"/>
<stop offset="1" stop-color="#FC8F59"/>
</linearGradient>
<linearGradient id="paint11_linear_1_541" x1="288.477" y1="882.292" x2="372.081" y2="837.532" gradientUnits="userSpaceOnUse">
<stop stop-color="#D02964"/>
<stop offset="1" stop-color="#FC8F59"/>
</linearGradient>
<linearGradient id="paint12_linear_1_541" x1="302.559" y1="608.345" x2="353.042" y2="543.434" gradientUnits="userSpaceOnUse">
<stop stop-color="#D02964"/>
<stop offset="1" stop-color="#FC8F59"/>
</linearGradient>
<linearGradient id="paint13_linear_1_541" x1="454.018" y1="355.299" x2="527.634" y2="333.137" gradientUnits="userSpaceOnUse">
<stop stop-color="#D02964"/>
<stop offset="1" stop-color="#FC8F59"/>
</linearGradient>
<linearGradient id="paint14_linear_1_541" x1="325.21" y1="243.112" x2="362.656" y2="231.595" gradientUnits="userSpaceOnUse">
<stop stop-color="#D02964"/>
<stop offset="1" stop-color="#FC8F59"/>
</linearGradient>
<linearGradient id="paint15_linear_1_541" x1="235.266" y1="217.299" x2="274.843" y2="209.854" gradientUnits="userSpaceOnUse">
<stop stop-color="#D02964"/>
<stop offset="1" stop-color="#FC8F59"/>
</linearGradient>
<linearGradient id="paint16_linear_1_541" x1="230.174" y1="436.025" x2="295.318" y2="369.03" gradientUnits="userSpaceOnUse">
<stop stop-color="#D02964"/>
<stop offset="1" stop-color="#FC8F59"/>
</linearGradient>
<linearGradient id="paint17_linear_1_541" x1="145.207" y1="250.279" x2="166.464" y2="205.381" gradientUnits="userSpaceOnUse">
<stop stop-color="#D02964"/>
<stop offset="1" stop-color="#FC8F59"/>
</linearGradient>
<linearGradient id="paint18_linear_1_541" x1="349.086" y1="970.718" x2="448.228" y2="957.925" gradientUnits="userSpaceOnUse">
<stop stop-color="#D02964"/>
<stop offset="1" stop-color="#FC8F59"/>
</linearGradient>
<clipPath id="clip0_1_541">
<rect width="640" height="973.333" fill="white" transform="translate(0.121582 0.465332)"/>
</clipPath>
</defs>
</svg>
