<svg width="641" height="914" viewBox="0 0 641 914" fill="none" xmlns="http://www.w3.org/2000/svg">
<path d="M469.943 392.537C457.171 392.537 444.927 390.116 433.557 385.346L431.949 384.667L431.96 382.925C432.205 353.218 446.48 322.637 471.134 299.024C491.397 279.607 518.026 264.626 552.553 253.222C557.294 251.659 562.097 250.178 566.9 248.698C585.588 242.949 604.921 237 620.604 225.446L635.141 214.739L624.216 229.114C601.243 259.355 595.227 276.04 588.259 295.351C585.538 302.903 582.722 310.717 578.709 319.749C559.671 362.601 514.943 392.537 469.943 392.537ZM437.191 381.206C447.465 385.263 458.473 387.328 469.943 387.328C512.945 387.328 555.725 358.672 573.962 317.634C577.891 308.774 580.679 301.056 583.367 293.593C589.322 277.069 594.993 261.348 611.995 237.033C598.316 244.474 583.178 249.132 568.43 253.668C563.661 255.137 558.886 256.601 554.178 258.159C520.408 269.317 494.419 283.909 474.729 302.781C451.577 324.953 437.971 353.446 437.191 381.206Z" fill="url(#paint0_linear_1_726)"/>
<path d="M438.949 912.016L434.425 909.451C462.341 860.198 475.685 806.884 473.036 755.272C469.836 693.158 443.518 634.735 418.069 578.231C407.083 553.85 395.731 528.645 386.325 503.384C377.004 478.369 371.744 458.746 369.279 439.752C366.318 416.99 367.514 394.095 369.239 372.741C373.964 314.824 384.806 253.712 400.594 196.006L405.614 197.381C389.909 254.775 379.118 315.558 374.421 373.158C372.713 394.228 371.539 416.801 374.438 439.078C376.853 457.666 382.018 476.939 391.206 501.57C400.55 526.669 411.87 551.791 422.816 576.094C448.461 633.032 474.985 691.912 478.235 755.005C480.94 807.613 467.36 861.901 438.949 912.016Z" fill="url(#paint1_linear_1_726)"/>
<path d="M139.157 720.094C131.733 720.094 124.231 718.87 116.835 716.109C110.892 713.883 105.354 710.745 100.006 707.706C94.7803 704.745 89.371 701.679 83.7556 699.592C62.363 691.639 37.7034 697.516 17.8801 702.235L3.88379 705.569L15.8267 697.549C34.0862 685.284 48.9674 667.024 63.3591 649.371C83.4162 624.768 104.152 599.334 134.694 588.85C150.427 583.418 168.647 582.132 190.396 584.898C219.898 588.638 242.403 598.494 257.335 614.216C257.363 614.177 257.396 614.138 257.429 614.099L258.092 614.622C307.511 601.861 343.022 595.951 377.338 603.202C415.637 611.283 447.637 636.454 460.849 668.894L456.035 670.859C443.463 640 412.899 616.025 376.263 608.3C343.017 601.277 308.251 607.065 259.772 619.564C253.806 627.316 248.113 635.475 242.598 643.4C231.111 659.89 219.235 676.941 204.315 691.021C187.992 706.409 164.006 720.089 139.157 720.094ZM60.0033 690.47C68.6294 690.47 77.2722 691.634 85.5699 694.722C91.5803 696.948 97.1678 700.121 102.577 703.181C107.758 706.12 113.112 709.158 118.666 711.234C148.602 722.415 181.598 705.291 200.753 687.226C215.278 673.519 227.004 656.69 238.341 640.417C243.422 633.121 248.647 625.619 254.129 618.384C240.055 603.213 218.401 593.686 189.756 590.057C168.82 587.392 151.367 588.605 136.397 593.764C107.258 603.764 86.9946 628.619 67.3995 652.655C55.4231 667.347 43.1129 682.451 28.6711 694.411C38.6162 692.262 49.2959 690.47 60.0033 690.47Z" fill="url(#paint2_linear_1_726)"/>
<path d="M399.309 204.043L398.084 199.852C385.969 158.419 400.817 108.193 435.912 71.8965C463.498 43.3636 501.586 22.3493 555.775 5.76502L562.826 3.60571L558.691 9.71073C552.625 18.6652 553.81 29.9904 555.068 41.9723C555.552 46.558 556.047 51.3107 556.097 55.9076C556.559 98.9879 517.536 129.224 494.24 143.409C484.462 149.359 474.138 154.857 464.154 160.172C442.339 171.775 419.783 183.774 402.414 200.971L399.309 204.043ZM551.339 12.6046C501.185 28.6213 465.59 48.6896 439.656 75.5139C407.022 109.272 392.508 155.375 401.963 194.209C419.36 178.109 440.87 166.667 461.712 155.581C471.629 150.299 481.891 144.84 491.536 138.968C513.891 125.361 551.328 96.4725 550.894 55.9688C550.844 51.6168 550.36 46.9921 549.892 42.5232C548.829 32.3333 547.727 21.8596 551.339 12.6046Z" fill="url(#paint3_linear_1_726)"/>
<path d="M447.387 541.701C445.968 541.701 444.46 540.727 444.27 538.546C444.115 536.704 443.898 533.32 443.653 529.558C443.274 523.62 442.801 516.229 442.434 513.285C441.065 502.422 443.564 491.03 449.474 481.213C450.676 479.226 452.017 477.278 453.358 475.336C456.775 470.405 459.998 465.741 460.755 460.343L461.605 454.221L465.39 459.108C469.692 464.667 472.759 470.867 474.595 474.568C475.169 475.72 475.619 476.633 475.948 477.211C480.789 485.376 481.335 495.771 477.361 504.331C475.18 509.039 471.768 512.996 468.757 516.491C466.108 519.574 462.897 524.026 459.797 528.333C451.995 539.169 449.914 541.701 447.387 541.701ZM464.388 466.754C462.741 470.928 460.159 474.657 457.638 478.297C456.353 480.15 455.072 481.997 453.932 483.895C448.628 492.71 446.38 502.917 447.598 512.634C447.977 515.739 448.439 522.902 448.851 529.218C448.962 530.905 449.062 532.513 449.156 533.943C451.065 531.556 453.559 528.094 455.579 525.289C458.746 520.893 462.023 516.346 464.817 513.09C467.745 509.696 470.766 506.189 472.647 502.138C475.909 495.109 475.458 486.567 471.468 479.844C471.089 479.187 470.577 478.169 469.937 476.877C468.679 474.351 466.809 470.583 464.388 466.754Z" fill="url(#paint4_linear_1_726)"/>
<path d="M432.517 610.504C427.948 585.371 433.168 557.295 446.157 537.232L450.526 540.059C438.227 559.059 433.285 585.694 437.637 609.574L432.517 610.504Z" fill="url(#paint5_linear_1_726)"/>
<path d="M370.631 226.498L365.166 218.612C361.254 212.953 349.623 207.154 330.595 201.377C315.48 196.78 298.868 191.727 289.652 178.498C279.084 163.339 282.083 143.432 284.727 125.874L284.921 124.571C287.175 109.534 288.678 88.2027 275.667 76.5603L270.669 72.0858L277.375 72.019C296.508 72.019 314.317 83.9119 330.729 107.364C353.363 139.714 366.908 177.602 369.902 216.932L370.631 226.498ZM283.669 77.6622C293.659 91.2469 292.223 110.987 290.064 125.334L289.869 126.636C287.37 143.237 284.537 162.053 293.926 175.51C302.112 187.264 317.133 191.838 331.658 196.257C346.979 200.909 357.631 205.534 364.064 210.32C360.147 174.43 347.224 139.998 326.466 110.336C312.864 90.913 298.495 79.9495 283.669 77.6622Z" fill="url(#paint6_linear_1_726)"/>
<path d="M382.759 478.77L377.56 478.491C378.529 460.265 387.578 443.748 395.564 429.172C405.331 411.347 416.401 391.145 434.521 378.451L437.509 382.714C420.38 394.712 409.616 414.352 400.127 431.677C392.408 445.757 383.66 461.723 382.759 478.77Z" fill="url(#paint7_linear_1_726)"/>
<path d="M462.691 676.507L457.571 675.606C462.185 649.377 470.95 624.211 483.622 600.804L488.197 603.28C475.797 626.192 467.216 650.835 462.691 676.507Z" fill="url(#paint8_linear_1_726)"/>
<path d="M468.512 695.724L464.077 693.008C472.135 679.852 485.241 669.862 500.974 664.881L502.538 669.846C488.008 674.442 475.919 683.636 468.512 695.724Z" fill="url(#paint9_linear_1_726)"/>
<path d="M319.737 653.478L316.248 649.622C339.383 628.707 371.06 615.089 403.138 612.246L403.594 617.432C372.618 620.176 342.048 633.31 319.737 653.478Z" fill="url(#paint10_linear_1_726)"/>
<path d="M303.76 539.219L298.99 536.319C276.646 522.724 253.545 508.655 235.33 489.065C214.844 467.038 204.181 440.42 206.079 416.022C206.791 406.962 209.168 398.135 211.461 389.604C212.601 385.363 213.742 381.128 214.688 376.848C218.684 358.85 219.374 338.521 216.631 319.615L215.245 310.054L221.244 317.623C232.658 332.02 248.007 343.151 262.85 353.914C268.471 357.982 274.275 362.195 279.818 366.547C306.359 387.316 320.45 408.23 322.893 430.48C324.908 448.89 318.58 466.593 312.453 483.711C306.27 500.997 300.432 517.325 302.919 533.704L303.76 539.219ZM222.786 327.396C224.333 344.392 223.298 362.056 219.764 377.967C218.807 382.313 217.644 386.632 216.486 390.945C214.254 399.254 211.945 407.846 211.266 416.422C209.491 439.368 219.647 464.55 239.148 485.515C255.671 503.29 276.607 516.557 297.232 529.146C296.364 513.246 302.04 497.363 307.55 481.958C313.477 465.385 319.604 448.255 317.717 431.042C315.436 410.262 301.99 390.5 276.607 370.637C271.142 366.347 265.37 362.173 259.794 358.127C246.949 348.811 233.733 339.227 222.786 327.396Z" fill="url(#paint11_linear_1_726)"/>
<path d="M396.955 616.264C373.787 601.588 351.576 584.954 330.946 566.822C318.814 556.171 308.34 545.986 298.929 535.691L302.764 532.179C312.046 542.33 322.387 552.386 334.38 562.91C354.81 580.863 376.798 597.331 399.738 611.862L396.955 616.264Z" fill="url(#paint12_linear_1_726)"/>
<path d="M381.55 312.036L376.374 311.457C380.27 276.969 374.716 242.059 360.313 210.509L365.044 208.344C379.842 240.756 385.552 276.613 381.55 312.036Z" fill="url(#paint13_linear_1_726)"/>
<path d="M483.21 605.757L483.31 602.328C483.594 592.701 487.122 582.461 494.095 571.03C516.395 534.494 556.933 511.415 596.696 513.151L602.807 513.419L598.377 517.637C593.93 521.872 590.842 527.521 589.667 533.554C588.916 537.427 588.922 541.406 588.922 545.619C588.927 550.077 588.933 554.685 587.97 559.237C585.404 571.38 575.676 582.494 561.947 588.972C550.037 594.587 536.881 596.44 524.159 598.232C510.252 600.225 498.019 602.072 486.543 604.933L483.21 605.757ZM590.886 518.271C554.929 518.856 518.822 540.493 498.537 573.74C492.888 582.989 489.671 591.309 488.758 599.045C499.438 596.596 510.719 594.899 523.157 593.118C535.768 591.343 548.529 589.54 559.721 584.264C571.981 578.476 580.641 568.72 582.872 558.163C583.718 554.145 583.713 550.004 583.707 545.624C583.701 541.35 583.696 536.932 584.542 532.557C585.555 527.404 587.753 522.484 590.886 518.271Z" fill="url(#paint14_linear_1_726)"/>
<path d="M543.393 696.971C538.067 696.971 532.441 695.418 526.191 692.212C515.478 686.758 506.034 678.438 499.595 668.811L498.192 666.713L500.246 665.249C516.736 653.49 537.249 638.853 560.578 636.783C568.074 636.148 575.437 637 581.314 639.51C586.417 641.691 590.725 645.086 594.893 648.364C596.496 649.627 598.093 650.885 599.735 652.07C605.244 656.044 612.051 659.456 619.959 662.205L629.525 665.538L619.541 667.23C617.766 667.536 615.835 667.82 613.798 668.132C602.078 669.913 586.017 672.35 575.431 680.492C574.252 681.394 573.072 682.329 571.886 683.264C563.683 689.753 555.202 696.459 544.544 696.948L543.393 696.971ZM505.366 667.987C511.254 676.006 519.396 682.913 528.556 687.582C534.06 690.404 538.913 691.773 543.393 691.773L544.306 691.75C553.282 691.339 561.101 685.161 568.653 679.184C569.861 678.227 571.057 677.281 572.248 676.363C582.778 668.271 597.525 665.405 609.335 663.552C604.627 661.387 600.403 658.966 596.691 656.289C594.988 655.053 593.329 653.757 591.676 652.454C587.597 649.238 583.74 646.205 579.271 644.29C574.196 642.114 567.662 641.391 561.034 641.964C540.071 643.823 520.971 656.884 505.366 667.987Z" fill="url(#paint15_linear_1_726)"/>
<path d="M238.385 755.261L240.951 744.887C242.615 738.175 244.396 731.954 246.171 725.771L246.733 723.823C251.981 705.669 257.407 686.903 268.938 671.231C280.553 655.454 297.916 645.648 314.256 645.648C315.987 645.648 317.717 645.759 319.459 645.971L323.06 646.416L321.48 649.689C318.497 655.855 319.676 663.346 320.929 671.276C321.797 676.791 322.693 682.501 322.248 688.144C321.179 701.478 312.781 712.698 304.706 721.908C298.122 729.394 290.709 736.69 281.087 739.428C276.273 740.797 271.098 741.008 266.089 741.209C257.891 741.548 250.145 741.86 245.442 747.225L238.385 755.261ZM314.245 650.863C299.53 650.863 283.775 659.851 273.123 674.32C262.132 689.252 256.84 707.561 251.72 725.27L251.157 727.212C250.044 731.113 248.92 735.026 247.824 739.077C253.217 736.539 259.611 736.278 265.855 736.022C270.563 735.827 275.427 735.632 279.64 734.43C287.977 732.065 294.722 725.37 300.771 718.486C308.29 709.915 316.092 699.564 317.044 687.744C317.439 682.713 316.588 677.314 315.77 672.1C314.645 664.971 313.488 657.625 315.447 650.891C315.057 650.863 314.651 650.863 314.245 650.863Z" fill="url(#paint16_linear_1_726)"/>
<path d="M447.81 767.749L444.693 767.677C428.282 767.304 409.883 765.823 399.248 752.951C392.814 745.177 390.995 735.243 389.23 725.643C387.583 716.688 386.03 708.224 381.05 701.456L377.221 696.258L383.582 697.344C399.042 699.993 407.568 705.663 415.086 710.672C420.323 714.162 425.276 717.456 432.044 719.332C435.271 720.228 438.394 721.09 440.926 723.149C446.246 727.44 446.869 734.63 446.78 741.097L446.697 746.178C446.58 752.896 446.463 759.234 447.32 764.66L447.81 767.749ZM388.457 703.677C391.696 710.233 393.037 717.556 394.35 724.697C396.07 734.057 397.695 742.9 403.266 749.629C411.898 760.08 427.358 761.906 441.799 762.384C441.299 757.331 441.404 751.838 441.504 746.084L441.582 741.036C441.66 735.81 441.249 730.089 437.659 727.195C435.962 725.815 433.619 725.164 431.142 724.48C423.095 722.253 417.808 718.731 412.22 715.008C405.831 710.756 399.27 706.387 388.457 703.677Z" fill="url(#paint17_linear_1_726)"/>
<path d="M466.615 847.293L461.439 846.731C461.567 845.501 462.018 842.59 462.474 839.68C462.908 836.869 463.343 834.059 463.476 832.868C465.285 808.576 457.521 783.949 442.156 765.401L446.168 762.078C462.38 781.657 470.577 807.635 468.657 833.341C468.524 834.654 468.073 837.565 467.617 840.475C467.183 843.297 466.748 846.107 466.615 847.293Z" fill="url(#paint18_linear_1_726)"/>
<path d="M360.514 316.504C359.774 315.753 359.084 314.963 358.444 314.128C357.125 312.792 355.995 312.13 354.887 312.047C353.696 311.846 352.578 312.392 351.448 312.781C350.496 313.11 349.539 313.421 348.565 313.616C344.82 314.373 340.941 313.516 336.895 311.245C331.897 308.474 327.712 304.1 325.125 298.935C324.568 297.816 324.095 296.67 323.622 295.529C323.032 294.11 322.448 292.691 321.685 291.361C320.94 290.07 319.353 287.81 317.077 287.304L306.092 284.838L317.044 282.239C322.058 281.048 326.777 279.056 328.575 278.249C334.329 275.684 342.121 277.665 347.269 282.846C351.827 287.398 354.214 293.403 356.323 298.707C358.015 302.903 359.774 307.255 362.389 310.728C363.096 311.474 363.764 312.269 364.387 313.054L360.514 316.504ZM323.911 285.656C324.752 286.552 325.525 287.604 326.199 288.784C327.067 290.298 327.751 291.917 328.425 293.537C328.853 294.578 329.282 295.618 329.783 296.626C331.897 300.855 335.326 304.439 339.427 306.71C342.377 308.368 345.009 309.014 347.552 308.524C348.304 308.374 349.033 308.118 349.756 307.867C351.053 307.422 352.511 306.927 354.125 306.843C353.162 304.801 352.322 302.708 351.487 300.649C349.561 295.807 347.385 290.331 343.584 286.53C339.95 282.879 334.48 281.31 330.695 283.007C329.471 283.553 326.967 284.616 323.911 285.656Z" fill="url(#paint19_linear_1_726)"/>
<path d="M372.93 338.571C370.264 330.518 365.857 322.849 360.18 316.404L364.081 312.965C370.22 319.938 374.984 328.23 377.866 336.946L372.93 338.571Z" fill="url(#paint20_linear_1_726)"/>
<path d="M567.596 545.803C555.815 556.727 540.36 563.723 525.74 571.403C511.877 579.205 497.881 588.154 488.336 601.16C500.302 588.939 516.062 581.081 531.15 572.621C545.719 565.648 559.949 557.406 570.3 544.734C571.792 543.042 573.918 540.544 574.881 539.247C572.488 541.451 570.072 543.638 567.596 545.803Z" fill="url(#paint21_linear_1_726)"/>
<path d="M536.097 664.943C525.456 665.099 514.448 664.709 504.414 668.749C514.17 666.512 524.393 667.864 534.427 668.221C549.676 669.111 566.221 666.379 580.346 662.945C565.615 664.063 550.867 664.998 536.097 664.943Z" fill="url(#paint22_linear_1_726)"/>
<path d="M412.655 730.479C423.996 745.382 440.569 755.862 451.516 770.799C444.732 754.721 426.389 742.338 412.655 730.479Z" fill="url(#paint23_linear_1_726)"/>
<path d="M307.683 659.712C296.108 671.443 291.088 687.421 284.771 701.495C283.887 703.398 282.607 705.786 281.855 707.378C283.887 704.701 285.807 701.935 287.554 699.052C296.058 684.516 302.563 667.887 313.716 656.027C315.903 653.835 317.99 651.631 320.901 650.512C315.569 651.809 311.429 655.972 307.683 659.712Z" fill="url(#paint24_linear_1_726)"/>
<path d="M334.558 169.705C322.019 151.913 310.388 133.437 300.192 114.187C306.253 133.798 321.368 158.408 335.337 176.929C344.859 190.408 355.477 201.154 363.641 215.407C356.902 198.577 344.931 184.453 334.558 169.705Z" fill="url(#paint25_linear_1_726)"/>
<path d="M192.439 627.172C212.913 624.128 236.616 622.803 258.337 617.7C208.177 621.133 152.904 621.918 112.5 656C104.531 662.038 98.0083 667.659 90.4897 672.907C89.2153 674.025 86.6887 674.699 87.1116 676.758C87.3954 677.849 88.6643 678.394 89.6605 677.927C93.4782 676.185 97.5687 674.726 102.46 672.957C109.768 670.146 117.231 667.419 123.742 662.939C132.479 656.567 139.636 648.32 147.756 641.218C148.741 640.256 150.872 638.541 151.318 638.074C141.951 643.873 132.485 652.254 124.783 658.025C117.08 663.596 109.2 666.562 100.897 669.629C109.562 662.945 117.475 656.261 126.886 650.017C146.47 636.95 168.659 630.789 192.439 627.172Z" fill="url(#paint26_linear_1_726)"/>
<path d="M565.331 283.408C550.394 289.213 533.954 295.273 518.972 303.421C503.34 312.158 489.421 323.656 476.254 335.755C468.346 342.962 460.883 350.664 454.249 359.062C448.5 366.035 443.402 373.604 436.791 379.82C444.493 374.377 450.604 367.098 457.059 360.308C465.485 351.176 474.178 342.283 483.516 334.057C496.734 322.303 509.656 312.13 525.79 303.493C535.496 298.184 549.052 293.008 558.335 289.157C555.892 290.665 553.293 292.201 550.978 293.737C537.371 302.558 523.948 312.859 511.827 323.133C512.684 322.582 513.546 322.07 514.403 321.519C528.734 312.67 541.484 304.011 554.935 295.034C558.675 292.535 562.687 290.404 566.143 287.465C566.772 286.892 567.395 286.269 567.651 285.462C568.097 284.059 566.638 282.963 565.331 283.408Z" fill="url(#paint27_linear_1_726)"/>
<path d="M533.18 25.9946C519.757 37.4423 508.465 51.0715 497.123 64.5226C477.228 89.3658 457.243 114.187 439.139 140.382C437.887 142.146 434.476 146.103 438.327 146.804C440.748 146.649 442.646 144.801 444.493 143.426C455.657 134.194 469.776 120.976 477.745 111.771C471.267 117.203 464.79 122.696 458.2 127.999C453.103 132.057 446.753 137.911 441.994 141.478C458.829 119.129 483.127 86.8725 505.082 60.6715C514.682 49.4298 524.621 38.483 535.028 27.9981C540.877 22.2771 546.576 16.3446 553.783 12.5491C546.058 15.404 539.452 20.7132 533.18 25.9946Z" fill="url(#paint28_linear_1_726)"/>
<path d="M290.175 492.855C284.137 472.798 274.52 453.526 267.258 435.339C259.661 416.322 253.834 396.521 250.584 376.286C250.083 373.581 250.139 372.824 249.749 370.799C249.621 370.326 249.338 369.858 248.892 369.624C246.633 368.639 246.082 371.216 246.054 372.958C245.615 377.716 245.748 382.48 245.748 387.266C245.659 402.821 247.039 418.303 249.616 433.547C249.616 433.886 249.933 435.288 249.877 434.893C249.672 427.224 249.31 419.572 249.226 411.898C249.354 404.507 249.126 396.132 249.098 388.173C250.401 394.384 252.015 400.918 253.706 406.689C259.945 430.731 271.676 453.754 280.219 475.447C287.476 493.295 292.001 511.994 296.892 530.571C295.117 517.91 293.843 505.132 290.175 492.855Z" fill="url(#paint29_linear_1_726)"/>
<defs>
<linearGradient id="paint0_linear_1_726" x1="542.069" y1="392.537" x2="621.159" y2="347.016" gradientUnits="userSpaceOnUse">
<stop stop-color="#D02964"/>
<stop offset="1" stop-color="#FC8F59"/>
</linearGradient>
<linearGradient id="paint1_linear_1_726" x1="427.685" y1="912.016" x2="484.904" y2="907.545" gradientUnits="userSpaceOnUse">
<stop stop-color="#D02964"/>
<stop offset="1" stop-color="#FC8F59"/>
</linearGradient>
<linearGradient id="paint2_linear_1_726" x1="251.537" y1="720.094" x2="313.232" y2="616.159" gradientUnits="userSpaceOnUse">
<stop stop-color="#D02964"/>
<stop offset="1" stop-color="#FC8F59"/>
</linearGradient>
<linearGradient id="paint3_linear_1_726" x1="485.46" y1="204.043" x2="559.625" y2="172.567" gradientUnits="userSpaceOnUse">
<stop stop-color="#D02964"/>
<stop offset="1" stop-color="#FC8F59"/>
</linearGradient>
<linearGradient id="paint4_linear_1_726" x1="462.626" y1="541.701" x2="481.387" y2="537.604" gradientUnits="userSpaceOnUse">
<stop stop-color="#D02964"/>
<stop offset="1" stop-color="#FC8F59"/>
</linearGradient>
<linearGradient id="paint5_linear_1_726" x1="441.532" y1="610.504" x2="451.524" y2="609.155" gradientUnits="userSpaceOnUse">
<stop stop-color="#D02964"/>
<stop offset="1" stop-color="#FC8F59"/>
</linearGradient>
<linearGradient id="paint6_linear_1_726" x1="324.844" y1="226.498" x2="371.669" y2="211.238" gradientUnits="userSpaceOnUse">
<stop stop-color="#D02964"/>
<stop offset="1" stop-color="#FC8F59"/>
</linearGradient>
<linearGradient id="paint7_linear_1_726" x1="410.05" y1="478.77" x2="438.534" y2="470.197" gradientUnits="userSpaceOnUse">
<stop stop-color="#D02964"/>
<stop offset="1" stop-color="#FC8F59"/>
</linearGradient>
<linearGradient id="paint8_linear_1_726" x1="474.169" y1="676.507" x2="489.406" y2="673.403" gradientUnits="userSpaceOnUse">
<stop stop-color="#D02964"/>
<stop offset="1" stop-color="#FC8F59"/>
</linearGradient>
<linearGradient id="paint9_linear_1_726" x1="484.921" y1="695.724" x2="499.214" y2="686.747" gradientUnits="userSpaceOnUse">
<stop stop-color="#D02964"/>
<stop offset="1" stop-color="#FC8F59"/>
</linearGradient>
<linearGradient id="paint10_linear_1_726" x1="363.585" y1="653.478" x2="384.753" y2="630.895" gradientUnits="userSpaceOnUse">
<stop stop-color="#D02964"/>
<stop offset="1" stop-color="#FC8F59"/>
</linearGradient>
<linearGradient id="paint11_linear_1_726" x1="269.494" y1="539.219" x2="326.537" y2="524.5" gradientUnits="userSpaceOnUse">
<stop stop-color="#D02964"/>
<stop offset="1" stop-color="#FC8F59"/>
</linearGradient>
<linearGradient id="paint12_linear_1_726" x1="353.562" y1="616.264" x2="391.844" y2="593.15" gradientUnits="userSpaceOnUse">
<stop stop-color="#D02964"/>
<stop offset="1" stop-color="#FC8F59"/>
</linearGradient>
<linearGradient id="paint13_linear_1_726" x1="372.496" y1="312.036" x2="384.007" y2="310.779" gradientUnits="userSpaceOnUse">
<stop stop-color="#D02964"/>
<stop offset="1" stop-color="#FC8F59"/>
</linearGradient>
<linearGradient id="paint14_linear_1_726" x1="548.026" y1="605.757" x2="591.601" y2="577.443" gradientUnits="userSpaceOnUse">
<stop stop-color="#D02964"/>
<stop offset="1" stop-color="#FC8F59"/>
</linearGradient>
<linearGradient id="paint15_linear_1_726" x1="569.369" y1="696.971" x2="600.308" y2="663.084" gradientUnits="userSpaceOnUse">
<stop stop-color="#D02964"/>
<stop offset="1" stop-color="#FC8F59"/>
</linearGradient>
<linearGradient id="paint16_linear_1_726" x1="284.275" y1="755.261" x2="322.384" y2="740.435" gradientUnits="userSpaceOnUse">
<stop stop-color="#D02964"/>
<stop offset="1" stop-color="#FC8F59"/>
</linearGradient>
<linearGradient id="paint17_linear_1_726" x1="415.477" y1="767.749" x2="444.803" y2="753.166" gradientUnits="userSpaceOnUse">
<stop stop-color="#D02964"/>
<stop offset="1" stop-color="#FC8F59"/>
</linearGradient>
<linearGradient id="paint18_linear_1_726" x1="456.667" y1="847.293" x2="470.204" y2="845.151" gradientUnits="userSpaceOnUse">
<stop stop-color="#D02964"/>
<stop offset="1" stop-color="#FC8F59"/>
</linearGradient>
<linearGradient id="paint19_linear_1_726" x1="337.685" y1="316.504" x2="357.099" y2="302.029" gradientUnits="userSpaceOnUse">
<stop stop-color="#D02964"/>
<stop offset="1" stop-color="#FC8F59"/>
</linearGradient>
<linearGradient id="paint20_linear_1_726" x1="369.765" y1="338.571" x2="377.941" y2="335.727" gradientUnits="userSpaceOnUse">
<stop stop-color="#D02964"/>
<stop offset="1" stop-color="#FC8F59"/>
</linearGradient>
<linearGradient id="paint21_linear_1_726" x1="535.239" y1="601.16" x2="565.224" y2="580.051" gradientUnits="userSpaceOnUse">
<stop stop-color="#D02964"/>
<stop offset="1" stop-color="#FC8F59"/>
</linearGradient>
<linearGradient id="paint22_linear_1_726" x1="545.565" y1="668.749" x2="546.451" y2="662.912" gradientUnits="userSpaceOnUse">
<stop stop-color="#D02964"/>
<stop offset="1" stop-color="#FC8F59"/>
</linearGradient>
<linearGradient id="paint23_linear_1_726" x1="433.716" y1="770.799" x2="450.013" y2="762.888" gradientUnits="userSpaceOnUse">
<stop stop-color="#D02964"/>
<stop offset="1" stop-color="#FC8F59"/>
</linearGradient>
<linearGradient id="paint24_linear_1_726" x1="303.016" y1="707.378" x2="321.088" y2="701.128" gradientUnits="userSpaceOnUse">
<stop stop-color="#D02964"/>
<stop offset="1" stop-color="#FC8F59"/>
</linearGradient>
<linearGradient id="paint25_linear_1_726" x1="334.579" y1="215.407" x2="364.477" y2="205.968" gradientUnits="userSpaceOnUse">
<stop stop-color="#D02964"/>
<stop offset="1" stop-color="#FC8F59"/>
</linearGradient>
<linearGradient id="paint26_linear_1_726" x1="179.886" y1="678.095" x2="209.082" y2="636.396" gradientUnits="userSpaceOnUse">
<stop stop-color="#D02964"/>
<stop offset="1" stop-color="#FC8F59"/>
</linearGradient>
<linearGradient id="paint27_linear_1_726" x1="507.755" y1="379.82" x2="554.011" y2="348.214" gradientUnits="userSpaceOnUse">
<stop stop-color="#D02964"/>
<stop offset="1" stop-color="#FC8F59"/>
</linearGradient>
<linearGradient id="paint28_linear_1_726" x1="500.083" y1="146.804" x2="550.987" y2="124.418" gradientUnits="userSpaceOnUse">
<stop stop-color="#D02964"/>
<stop offset="1" stop-color="#FC8F59"/>
</linearGradient>
<linearGradient id="paint29_linear_1_726" x1="273.457" y1="530.571" x2="299.308" y2="526.437" gradientUnits="userSpaceOnUse">
<stop stop-color="#D02964"/>
<stop offset="1" stop-color="#FC8F59"/>
</linearGradient>
</defs>
</svg>
