<svg width="640" height="530" viewBox="0 0 640 530" fill="none" xmlns="http://www.w3.org/2000/svg">
<path d="M120.873 445.469L119.651 445.066C89.5127 435.176 64.1406 413.338 50.0315 385.149L48.6254 382.279C46.2738 377.416 43.8398 372.388 40.0144 368.795C35.515 364.557 28.3442 363.243 24.3102 366.254C21.9393 368.029 21.4836 371.573 22.2642 374.157C22.5793 375.214 23.6022 377.692 26.2253 377.847L26.109 381.726C18.2932 381.687 11.9417 379.161 7.75259 374.41C3.74288 369.862 1.9101 363.36 2.7295 356.553C4.25192 343.956 18.1284 330.88 27.0835 325.163C45.8859 313.163 69.3915 312.16 91.8497 312.16L95.2485 312.165C105.745 312.184 116.616 312.79 124.048 319.743C127.709 323.156 130.046 327.719 132.31 332.121C135.229 337.808 137.983 343.18 143.219 345.44C146.575 346.885 151.263 346.681 156.407 346.128C158.473 345.905 160.533 345.682 162.565 345.629L163.375 345.619C165.522 345.619 167.699 345.818 169.823 346.206L170.754 346.376L171.195 347.214C173.101 350.851 174.347 354.351 175.025 357.91C175.646 361.178 175.772 364.485 175.898 367.689C176.048 371.631 176.194 375.355 177.188 378.928C180.65 391.403 192.441 397.745 204.936 404.46C214.88 409.803 225.159 415.331 231.578 424.344C232.499 425.886 233.353 427.316 234.245 428.766L237.527 434.109L230.899 431.146C230.196 430.831 229.503 430.516 228.795 430.225C215.263 424.611 200.199 421.639 185.217 421.639C171.617 421.639 158.41 423.971 145.944 428.582C136.078 432.242 127.476 437.896 121.736 444.499L120.873 445.469ZM29.8131 360.649C34.3222 360.649 39.1223 362.633 42.6617 365.963C47.0108 370.056 49.6048 375.408 52.1115 380.586L53.4933 383.418C66.9527 410.313 91.0206 431.229 119.656 440.984C125.794 434.317 134.589 428.649 144.577 424.945C157.479 420.179 171.142 417.76 185.202 417.76C199.738 417.76 214.361 420.465 227.675 425.6C221.804 417.949 212.291 412.839 203.084 407.888C190.434 401.086 177.343 394.051 173.44 379.98C172.325 375.966 172.165 371.835 172.015 367.845C171.893 364.645 171.777 361.624 171.21 358.652C170.657 355.743 169.668 352.868 168.184 349.876C166.589 349.634 164.975 349.513 163.37 349.513L162.657 349.522C160.732 349.571 158.778 349.784 156.829 349.997C154.536 350.249 152.17 350.502 149.838 350.502C146.647 350.502 144.058 350.026 141.687 349.003C135.166 346.196 131.961 339.942 128.858 333.896C126.749 329.784 124.567 325.537 121.401 322.584C114.991 316.586 105.367 316.068 95.2436 316.048L91.8545 316.043C69.9636 316.043 47.0981 316.999 29.1732 328.436C19.1223 334.851 7.79143 347.049 6.58901 357.018C5.90052 362.72 7.38891 368.126 10.6713 371.84C12.8144 374.274 15.709 375.995 19.2047 376.955C18.9526 376.436 18.7295 375.874 18.555 375.277C17.1732 370.686 18.589 365.697 21.9926 363.151C24.1599 361.508 26.8749 360.649 29.8131 360.649Z" fill="url(#paint0_linear_1_493)"/>
<path d="M441.12 363.597L443.724 353.096C443.845 352.62 443.966 352.155 444.068 351.67C445.765 343.835 446.662 335.602 447.535 327.646C449.091 313.43 450.701 298.734 456.868 285.488C459.981 278.822 464.218 272.591 468.31 266.565C475.302 256.271 481.915 246.545 483.345 234.919C484.17 228.203 483.122 221.236 482.114 214.492L481.634 211.253C480.461 203.045 479.758 194.337 482.579 186.283C485.765 177.11 493.745 170.608 501.983 170.468H501.988C507.03 170.468 512.048 173.241 514.987 177.532C515.268 177.939 515.52 178.351 515.753 178.768C518.109 164.751 512.373 150.991 500.223 143.287C494.269 139.505 487.166 137.503 479.67 137.503C470.463 137.503 461.702 140.523 455.001 146.007C452.024 148.451 449.314 151.413 446.691 154.283C445.77 155.292 444.848 156.3 443.913 157.289L443.908 157.299L443.913 157.304C443.68 157.551 443.447 157.794 443.21 158.031L441.261 160.102L440.916 158.138L439.278 156.499C439.661 156.116 440.044 155.723 440.422 155.331C440.194 154.06 439.961 152.8 439.704 151.534C436.781 137.624 431.699 124.136 424.591 111.437L423.981 110.346L424.718 109.343C433.227 97.7258 445.678 86.3222 461.731 75.447C475.413 66.1864 491.816 56.7222 509.678 56.7222H510.221C528.039 56.8967 547.442 69.75 547.927 88.5913L547.995 91.2725L545.435 90.5064C541.503 89.3379 537.387 90.9767 534.245 94.8555C531.084 98.7682 529.648 104.16 530.594 108.606C532.698 118.463 541.561 125.779 549.707 131.859C558.308 138.274 568.063 145.551 571.433 156.451C576.669 173.382 564.528 188.921 553.823 202.637C551.627 205.445 549.459 208.223 547.462 210.972C538.705 223.011 532.688 237.469 530.046 252.776L529.91 253.58L529.232 254.046C523.84 257.76 518.356 262.443 512.941 267.98C493.828 287.476 478.032 310.487 462.759 332.732C457.561 340.3 452.359 347.874 447.025 355.335L441.12 363.597ZM502.206 174.346C494.303 174.472 488.427 181.285 486.25 187.559C483.704 194.831 484.373 202.982 485.484 210.7L485.959 213.91C487.006 220.911 488.092 228.15 487.205 235.389C485.658 247.951 478.473 258.521 471.53 268.746C467.52 274.647 463.37 280.751 460.393 287.127C454.497 299.796 452.926 314.167 451.404 328.068C450.773 333.832 450.124 339.738 449.173 345.575C452.669 340.577 456.121 335.549 459.578 330.521C474.943 308.136 490.831 284.989 510.182 265.251C515.549 259.767 520.994 255.079 526.381 251.302C529.193 235.709 535.389 220.989 544.335 208.679C546.361 205.896 548.553 203.083 550.778 200.237C561.392 186.637 572.373 172.582 567.733 157.585C564.737 147.893 555.918 141.319 547.399 134.957C538.686 128.451 529.193 120.582 526.812 109.401C525.615 103.777 527.316 97.2603 531.244 92.4022C534.705 88.1355 539.263 85.9682 543.874 86.2737C541.872 71.1997 525.096 60.7416 510.201 60.5961L509.697 60.5913C492.882 60.5913 477.125 69.721 463.927 78.6519C448.708 88.9694 436.834 99.7234 428.611 110.637C435.593 123.355 440.611 136.834 443.525 150.734C443.598 151.083 443.665 151.437 443.738 151.786C443.777 151.748 443.816 151.704 443.85 151.665C446.565 148.698 449.367 145.624 452.567 143.006C459.952 136.955 469.59 133.624 479.695 133.624C487.927 133.624 495.758 135.83 502.327 140.009C518.72 150.405 524.635 170.657 516.708 189.265L513.115 187.801C514.085 185.289 513.615 182.351 511.811 179.723C509.556 176.451 505.789 174.346 502.206 174.346Z" fill="url(#paint1_linear_1_493)"/>
<path d="M326.579 468.8C323.345 468.8 320.208 468.48 317.236 467.845L315.079 467.379L315.811 465.299C316.848 462.366 317.755 459.171 318.589 455.539L318.832 454.502L319.83 454.148C324.461 452.49 328.053 451.505 331.244 451.02C340.461 404.62 338.356 368.242 324.805 339.83C321.75 333.435 318.061 327.239 313.828 321.42L313.382 320.81L313.474 320.058C315.932 298.686 323.365 281.687 335.568 269.546C340.543 264.601 346.361 260.431 351.985 256.397C361.11 249.852 369.731 243.67 375.03 234.487C379.195 227.239 381.028 218.371 382.798 209.799C385.45 196.95 388.189 183.665 398.919 175.67C404.305 171.656 410.773 169.842 417.033 168.092C422.507 166.565 427.67 165.115 432.199 162.317C436.635 159.578 440.145 155.723 443.864 151.636C446.565 148.674 449.358 145.6 452.548 142.991C459.932 136.94 469.571 133.609 479.675 133.609C487.908 133.609 495.738 135.816 502.308 139.995C518.701 150.39 524.616 170.642 516.688 189.251L513.096 187.786C514.065 185.275 513.595 182.332 511.792 179.709C509.556 176.441 505.794 174.337 502.206 174.337C494.303 174.463 488.427 181.275 486.25 187.549C483.704 194.822 484.373 202.972 485.484 210.691L485.959 213.9C487.006 220.902 488.092 228.14 487.205 235.379C485.658 247.942 478.473 258.511 471.53 268.737C467.52 274.637 463.37 280.742 460.393 287.117C454.497 299.786 452.926 314.157 451.404 328.058C450.521 336.116 449.61 344.451 447.874 352.485C439.879 389.488 415.045 417.634 395.632 434.725C393.833 436.305 392.015 437.852 390.177 439.369L389.527 439.723C365.392 447.394 347.055 456.451 331.821 468.218L331.365 468.572L330.793 468.62C329.372 468.742 327.971 468.8 326.579 468.8ZM320.199 464.441C323.292 464.921 326.575 465.042 329.901 464.8C345.338 452.979 363.821 443.864 387.981 436.15C389.692 434.73 391.379 433.289 393.052 431.82C412.034 415.117 436.296 387.651 444.068 351.675C445.765 343.84 446.662 335.607 447.535 327.651C449.091 313.435 450.701 298.739 456.868 285.493C459.981 278.826 464.218 272.596 468.31 266.569C475.302 256.276 481.915 246.55 483.345 234.923C484.17 228.208 483.122 221.241 482.114 214.497L481.634 211.258C480.456 203.05 479.758 194.342 482.579 186.288C485.765 177.115 493.745 170.613 501.983 170.473H501.988C507.03 170.473 512.048 173.246 514.992 177.537C515.268 177.944 515.52 178.356 515.753 178.773C518.109 164.756 512.373 150.996 500.223 143.292C494.269 139.51 487.166 137.508 479.67 137.508C470.463 137.508 461.702 140.528 455.001 146.012C452.034 148.446 449.333 151.403 446.73 154.269C442.992 158.371 439.137 162.613 434.235 165.643C429.246 168.732 423.568 170.317 418.075 171.854C411.888 173.585 406.046 175.219 401.232 178.812C391.68 185.925 389.212 197.91 386.589 210.608C384.756 219.486 382.865 228.664 378.385 236.451C372.664 246.361 363.302 253.081 354.24 259.578C348.737 263.52 343.05 267.602 338.298 272.33C326.88 283.694 319.85 299.656 317.411 319.782C321.59 325.614 325.256 331.801 328.301 338.191C342.356 367.66 344.475 405.275 334.764 453.178L334.482 454.569L333.072 454.725C330.104 455.04 326.604 455.922 322.124 457.474C321.532 459.961 320.897 462.274 320.199 464.441Z" fill="url(#paint2_linear_1_493)"/>
<path d="M358.633 256.407L358.24 253.037C358.041 251.35 357.828 249.672 357.59 247.995C352.47 212.703 337.804 181.832 316.281 161.071C294.798 140.339 266.405 129.139 244.068 121.702L242.371 121.134L242.802 119.399C254.041 73.8034 284.364 34.487 323.918 14.2349C339.777 6.13307 353.086 3.37421 364.921 5.67724C378.613 8.32453 392.596 20.7561 391.302 36.2277L387.433 36.2179C386.987 30.424 377.59 29.6434 374.23 33.1925C369.886 37.8034 371.026 45.7064 374.308 50.8022C377.45 55.6894 382.361 59.3937 387.118 62.9719L389.615 64.8676C416.815 85.8519 436.456 117.149 443.501 150.734C443.84 152.359 444.131 153.997 444.412 155.631L444.582 156.591L443.913 157.294C441.285 160.077 438.085 163.248 434.23 165.634C429.241 168.722 423.564 170.308 418.07 171.845C411.884 173.576 406.041 175.209 401.227 178.802C391.675 185.915 389.207 197.9 386.584 210.599C384.752 219.476 382.861 228.654 378.381 236.441C373.862 244.257 367.224 249.886 361.329 254.361L358.633 256.407ZM247.006 118.594C269.459 126.167 297.479 137.537 318.977 158.283C341.11 179.631 356.189 211.302 361.43 247.447C361.518 248.029 361.595 248.606 361.673 249.183C366.507 245.304 371.51 240.582 375.03 234.502C379.195 227.253 381.028 218.385 382.798 209.813C385.45 196.965 388.189 183.68 398.919 175.685C404.306 171.67 410.773 169.857 417.033 168.106C422.507 166.579 427.67 165.129 432.199 162.332C435.355 160.378 438.109 157.76 440.427 155.34C440.204 154.07 439.971 152.8 439.709 151.534C432.849 118.841 413.731 88.3779 387.249 67.9513L384.786 66.0797C379.762 62.2931 374.57 58.3803 371.055 52.9113C366.875 46.4191 365.658 36.6446 371.418 30.5404C374.929 26.8119 381.91 25.9585 386.778 28.8579C384.039 18.9136 374.022 11.3937 364.189 9.49307C353.222 7.36458 340.747 10.0118 325.692 17.6967C287.622 37.1827 258.313 74.8119 247.006 118.594Z" fill="url(#paint3_linear_1_493)"/>
<path d="M279.539 469.857C277.949 469.857 276.359 469.76 274.788 469.561C254.807 467.006 240.082 446.337 228.31 426.458C222.511 418.322 212.635 413.013 203.079 407.879C190.429 401.076 177.338 394.041 173.435 379.971C172.32 375.956 172.16 371.825 172.01 367.835C171.888 364.635 171.772 361.614 171.205 358.642C169.115 347.636 161.459 339.268 153.353 330.4C148.97 325.609 144.436 320.65 140.834 315.219C116.514 278.589 122.749 247.656 159.893 220.64C159.903 220.635 159.918 220.635 159.913 220.625L162.196 223.762C159.879 225.449 157.76 229.513 156.96 231.04C153.338 237.954 149.6 245.954 151.088 253.517C152.427 260.305 159.098 265.416 164.461 268.509C168.858 271.04 173.973 272.989 179.675 274.279C191.447 276.955 205.784 276.989 223.132 274.332C228.674 273.483 232.911 273.163 236.984 273.299C273.711 274.584 310.41 300.649 328.315 338.162C342.371 367.636 344.49 405.251 334.778 453.154L334.497 454.545L333.086 454.7C326.972 455.355 319.758 458.22 312.116 461.26C301.993 465.294 290.526 469.857 279.539 469.857ZM152.15 231.917C113.561 267.127 136.247 301.285 144.073 313.071C147.51 318.254 151.942 323.098 156.223 327.782C164.339 336.659 172.727 345.837 175.021 357.92C175.641 361.183 175.767 364.49 175.893 367.694C176.044 371.636 176.189 375.36 177.183 378.933C180.645 391.408 192.436 397.75 204.931 404.465C214.875 409.808 225.154 415.336 231.573 424.349C242.953 443.559 256.965 463.374 275.292 465.711C276.698 465.891 278.119 465.978 279.544 465.978H279.549C289.789 465.978 300.417 461.755 310.686 457.668C318.022 454.744 324.979 451.98 331.253 451.03C340.47 404.63 338.366 368.252 324.814 339.84C307.525 303.597 272.175 278.419 236.848 277.188C233.008 277.052 229.013 277.367 223.724 278.172C205.872 280.911 191.093 280.858 178.817 278.07C172.737 276.688 167.258 274.599 162.531 271.874C153.721 266.797 148.591 260.873 147.292 254.269C145.745 246.502 148.727 238.783 152.15 231.917Z" fill="url(#paint4_linear_1_493)"/>
<path d="M397.314 520.286C381.993 520.286 369.556 508.102 359.108 496.688C348.718 485.328 336.189 473.726 322.609 475.549L316.47 476.373L321.038 472.198C354.298 441.779 402.288 431.18 440.839 422.671C451.52 420.32 456.305 421.735 462.696 424.15C465.639 425.26 468.95 426.511 473.794 427.675L473.799 427.166L476.465 428.15C476.989 428.373 477.629 428.489 478.366 428.489C484.412 428.489 494.696 421.197 501.503 416.378C503.53 414.938 505.319 413.672 506.725 412.78C510.948 410.089 514.817 406.632 518.555 403.287C521.018 401.086 523.481 398.885 526.075 396.853C537.396 388.009 550.531 383.146 563.064 383.146L564.383 383.161C579.181 383.554 592.771 390.933 599.855 402.414C607.83 415.331 606.735 433.755 597.319 445.26C592 451.99 585.183 455.859 578.638 455.859C574.288 455.859 567.985 454.143 562.672 445.944L560.955 443.302L564.087 442.962C566.153 442.734 567.966 441.643 569.052 439.971C570.167 438.259 570.405 436.111 569.721 433.925C568.107 428.79 560.029 426.894 555.583 428.518C549.362 430.807 545.939 437.251 544.446 440.887C543.166 443.995 542.235 447.34 541.328 450.574C540.567 453.304 539.801 456.024 538.836 458.686C532.048 477.251 515.045 491.214 495.52 494.264C489.183 495.248 480.907 495.074 472.844 494.666C469.164 494.482 465.489 494.293 461.852 494.293C453.993 494.293 448.136 495.205 442.87 497.226C436.805 499.563 431.219 503.651 425.813 507.607C417.77 513.488 409.45 519.568 399.21 520.232C398.584 520.266 397.944 520.286 397.314 520.286ZM327.646 471.563C340.698 472.659 352.286 483.471 361.973 494.065C372.257 505.304 384.461 517.314 398.967 516.354C408.078 515.762 415.588 510.274 423.53 504.465C429.139 500.363 434.943 496.121 441.484 493.605C447.219 491.394 453.503 490.409 461.862 490.409C465.561 490.409 469.299 490.594 473.052 490.783C480.844 491.185 488.887 491.369 494.933 490.424C512.805 487.636 528.979 474.346 535.2 457.352C536.126 454.792 536.863 452.16 537.6 449.527C538.531 446.186 539.501 442.729 540.863 439.413C543.85 432.111 548.606 426.952 554.255 424.872C560.553 422.56 571.064 425.236 573.43 432.761C574.473 436.082 574.08 439.394 572.315 442.099C571.152 443.878 569.488 445.241 567.544 446.051C570.71 449.949 574.507 451.99 578.647 451.99C583.995 451.99 589.702 448.649 594.298 442.831C602.739 432.519 603.704 416.034 596.558 404.455C590.158 394.075 577.789 387.403 564.286 387.049L563.074 387.03C551.404 387.03 539.118 391.607 528.475 399.912C525.949 401.891 523.549 404.043 521.149 406.191C517.295 409.639 513.309 413.202 508.815 416.063C507.457 416.931 505.716 418.162 503.753 419.554C495.496 425.401 483.874 433.459 476.684 432.237L476.412 432.523L475.384 432.606C474.468 432.606 473.682 432.043 473.164 431.525C467.927 430.283 464.281 428.902 461.329 427.786C455.215 425.474 451.229 424.368 441.682 426.468C403.205 434.952 359.806 444.533 327.646 471.563Z" fill="url(#paint5_linear_1_493)"/>
<path d="M316.761 325.459L313.828 321.43C294.419 294.729 265.644 278.186 236.839 277.188C234.618 277.105 232.369 277.197 230.114 277.386L228.747 277.503L227.952 275.733C224.718 268.053 222.463 258.933 221.241 248.586C204.369 245.26 198.162 224.368 196.64 217.891C195.956 215.001 195.379 212.053 194.798 209.095C192.776 198.826 190.686 188.203 184.116 180.451C177.687 172.843 167.932 169.008 158.347 165.997L154.07 164.683C145.518 162.08 136.679 159.384 129.173 154.128C120.693 148.218 113.236 137.144 115.704 125.735C117.44 117.716 125.6 111.19 133.896 111.19C137.144 111.19 140.131 112.228 142.546 114.191L144.63 115.893L136.257 121.212C136.388 122.23 136.834 123.146 137.586 123.946C140.228 126.739 146.744 127.495 150.579 125.386C154.061 123.466 156.805 120.489 159.709 117.343C161.959 114.899 164.281 112.378 167.03 110.322C172.742 106.051 179.675 103.975 188.233 103.975C197.435 103.975 206.924 106.371 215.811 108.96C250.817 119.195 290.492 130.802 318.977 158.283C341.11 179.631 356.189 211.302 361.43 247.447C361.678 249.163 361.891 250.875 362.095 252.591L362.221 253.692L361.338 254.361C359.016 256.126 356.63 257.842 354.24 259.558C348.742 263.5 343.055 267.583 338.303 272.315C326.739 283.815 319.68 300.034 317.329 320.514L316.761 325.459ZM235.2 273.275C235.796 273.275 236.388 273.285 236.979 273.304C265.566 274.298 294.085 289.929 314.104 315.36C317.062 296.184 324.276 280.79 335.569 269.556C340.538 264.606 346.356 260.436 351.981 256.402C354.041 254.918 356.097 253.449 358.109 251.937C357.949 250.623 357.779 249.309 357.59 247.995C352.47 212.703 337.804 181.832 316.281 161.071C288.485 134.254 249.295 122.792 214.72 112.683C206.114 110.172 196.946 107.849 188.233 107.849C180.543 107.849 174.371 109.672 169.358 113.42C166.899 115.263 164.8 117.551 162.57 119.966C159.583 123.209 156.495 126.555 152.461 128.78C147.074 131.748 138.623 130.681 134.778 126.608C133.057 124.785 132.223 122.516 132.359 120.043L132.417 119.049L137.624 115.743C136.485 115.292 135.239 115.064 133.901 115.064C127.442 115.064 120.853 120.325 119.501 126.55C117.411 136.213 123.971 145.76 131.399 150.938C138.4 155.845 146.943 158.443 155.2 160.96L159.515 162.283C169.173 165.318 180.005 169.551 187.084 177.934C194.303 186.463 196.495 197.585 198.609 208.339C199.181 211.248 199.753 214.148 200.422 216.989C201.847 223.045 207.709 242.962 223.258 244.974L224.776 245.173L224.936 246.695C226.036 256.902 228.136 265.886 231.19 273.406C232.533 273.323 233.867 273.275 235.2 273.275Z" fill="url(#paint6_linear_1_493)"/>
<path d="M109.702 528.47L105.367 525.915C98.0218 521.585 93.4158 513.934 94.1673 507.316C94.9236 500.635 99.457 495.185 103.103 490.802C106.41 486.826 110.526 481.871 111.112 476.31C111.345 474.051 111.021 471.753 110.686 469.314C110.473 467.791 110.264 466.264 110.177 464.732C109.12 445.163 128.048 431.074 144.577 424.95C157.479 420.184 171.142 417.765 185.202 417.765C200.688 417.765 216.272 420.839 230.269 426.642C231.011 426.953 231.753 427.287 232.485 427.617L233.92 428.266L234.23 428.776C243.273 443.539 257.367 463.428 275.282 465.716L277.619 466.017L276.882 468.252C273.673 477.997 274.628 489.139 279.505 498.822L280.339 500.475L278.725 501.386C274.356 503.85 269.629 505.309 265.052 505.605C255.762 506.22 246.739 503.345 238.061 500.591C236.325 500.039 234.589 499.491 232.858 498.962C219.215 494.894 210.153 494.822 202.662 498.458C197.561 500.926 193.076 505.353 188.737 509.643C181.726 516.567 174.434 523.787 164.354 522.773C156.509 522.012 150.933 516.475 145.547 511.127C141.581 507.185 137.479 503.113 132.601 501.163C126.322 498.652 118.244 500.16 113.304 504.727C108.276 509.367 106.182 517.159 108.213 523.675L109.702 528.47ZM185.202 421.639C171.602 421.639 158.395 423.971 145.929 428.582C130.637 434.25 113.115 447.059 114.061 464.519C114.138 465.939 114.341 467.36 114.535 468.776C114.889 471.336 115.258 473.983 114.982 476.713C114.269 483.452 109.731 488.906 106.09 493.285C102.604 497.474 98.657 502.23 98.0315 507.753C97.5903 511.656 99.8109 516.252 103.583 519.767C103.176 513.159 105.75 506.4 110.667 501.866C116.674 496.31 126.385 494.506 134.032 497.542C139.651 499.786 144.034 504.14 148.276 508.354C153.411 513.454 158.255 518.264 164.722 518.894C173.023 519.699 179.302 513.488 186.007 506.865C190.57 502.356 195.292 497.697 200.965 494.953C205.047 492.974 209.77 491.971 215.011 491.971C220.485 491.971 226.506 493.008 233.973 495.234C235.728 495.762 237.483 496.325 239.238 496.882C247.583 499.534 256.193 502.254 264.8 501.721C268.252 501.493 271.816 500.504 275.215 498.836C270.928 489.377 269.978 478.783 272.548 469.197C254.521 465.61 241.071 447.287 231.233 431.311L230.885 431.151C230.182 430.836 229.488 430.521 228.781 430.23C215.248 424.606 200.184 421.639 185.202 421.639Z" fill="url(#paint7_linear_1_493)"/>
<path d="M327.966 484.228C330.623 474.875 333.377 465.333 338.802 457.265C344.223 449.197 352.863 442.662 362.599 442.317C372.325 441.959 382.443 449.406 381.018 459.297C382.08 453.653 374.962 449.071 369.508 450.822C364.058 452.572 360.824 458.376 359.844 464.039C358.87 469.692 359.612 475.486 359.249 481.212C358.221 497.411 347.627 512.693 332.727 519.127C317.823 525.556 299.316 522.739 287.161 511.98C274.996 501.226 269.958 483.045 275.04 467.636C277.745 459.408 283.045 452.073 284.616 443.554C286.177 435.03 281.852 424.266 273.207 423.534C284.955 419.549 297.949 428.407 302.957 439.753C307.966 451.103 307.098 464.068 306.113 476.441C308.509 458.283 315.791 440.785 327.369 426.904C334.72 446.201 334.865 468.14 327.966 484.228Z" fill="url(#paint8_linear_1_493)"/>
<path d="M315.854 524.48C304.732 524.48 293.799 520.456 285.867 513.44C273.11 502.167 267.898 483.079 273.188 467.035C274.347 463.515 275.956 460.16 277.522 456.916C279.733 452.305 281.828 447.951 282.701 443.21C283.588 438.376 282.39 432.931 279.646 429.343C278.41 427.733 276.267 425.75 273.037 425.474L263.782 424.688L272.577 421.706C274.676 420.994 276.882 420.63 279.127 420.63C289.265 420.63 300.034 428.344 304.727 438.972C307.234 444.654 308.315 450.783 308.669 456.858C312.548 445.319 318.41 434.623 325.876 425.668L328 423.122L329.183 426.22C333.261 436.926 335.224 448.693 334.919 459.908C335.641 458.599 336.402 457.372 337.197 456.184C343.617 446.623 353.091 440.717 362.536 440.378L363.282 440.363C369.144 440.363 374.938 442.826 378.783 446.948C381.867 450.254 383.341 454.216 383.064 458.414C383.054 458.822 383.006 459.234 382.933 459.656L379.103 459.02C379.142 458.754 379.171 458.492 379.19 458.23C379.214 456.698 378.371 455.5 377.658 454.768C375.757 452.819 372.519 451.898 370.109 452.664C365.173 454.25 362.56 459.748 361.765 464.363C361.202 467.626 361.241 470.933 361.28 474.429C361.309 476.732 361.338 479.035 361.188 481.328C360.107 498.313 348.984 514.216 333.498 520.902C328.082 523.243 321.983 524.48 315.854 524.48ZM280.436 424.553C281.261 425.251 282.027 426.06 282.734 426.982C286.109 431.399 287.598 438.041 286.521 443.903C285.556 449.159 283.248 453.954 281.018 458.589C279.51 461.721 277.959 464.955 276.877 468.237C272.058 482.86 276.814 500.247 288.441 510.526C295.675 516.921 305.668 520.591 315.854 520.591C321.454 520.591 327.025 519.471 331.951 517.343C346.128 511.219 356.315 496.65 357.304 481.081C357.44 478.885 357.416 476.679 357.391 474.477C357.348 470.953 357.299 467.311 357.925 463.699C358.914 457.963 362.322 451.083 368.907 448.97C370.914 448.325 373.227 448.354 375.355 449.008C372.267 446.051 367.719 444.242 363.273 444.242L362.667 444.257C354.463 444.548 346.143 449.818 340.407 458.346C337.731 462.322 335.515 466.967 333.425 472.97C332.621 477.091 331.355 481.222 329.736 484.989L326.085 483.69C327.142 479.98 328.334 475.782 329.76 471.685C332.276 459.016 331.171 444.233 326.701 430.826C316.848 443.67 310.25 459.82 308.024 476.688L304.165 476.276C305.081 464.78 306.114 451.743 301.168 440.528C297.28 431.714 288.718 425.188 280.436 424.553Z" fill="url(#paint9_linear_1_493)"/>
<path d="M379.966 442.768L387.695 436.388C389.498 434.894 391.287 433.372 393.052 431.82C394.55 430.506 396.024 429.168 397.484 427.806L400.209 425.197C400.737 424.693 401.275 424.184 401.799 423.665C402.545 422.923 403.282 422.162 404.019 421.406L405.983 419.399C407.04 418.283 408.082 417.144 409.115 416L410.007 415.03C411.147 413.755 412.262 412.451 413.362 411.146L413.726 410.725C415.055 409.129 416.218 407.694 417.348 406.249C418.788 404.417 419.947 402.865 421.081 401.304C432.17 386.007 439.714 370.041 443.559 353.76L443.864 353.076C449.193 345.629 454.376 338.07 459.564 330.521C474.929 308.136 490.817 284.989 510.167 265.251C525.581 249.517 540.912 240.848 557.042 238.754C560.427 238.312 564.019 238.089 567.709 238.089C582.051 238.089 597.304 241.372 609.571 247.093C618.822 251.403 627.156 258.414 631.869 265.852C635.525 271.612 637.615 280.213 636.945 286.763C635.947 296.601 630.361 303.903 622.366 305.818L619.093 306.599L620.053 303.374C620.95 300.383 620.242 297.125 618.065 294.206C615.355 290.565 610.875 288.218 606.652 288.218C597.227 288.485 590.24 296.199 587.03 302.72C583.68 309.508 582.352 317.314 581.072 324.858L580.407 328.727C578.851 337.503 576.402 347.481 570.065 354.938C563.389 362.822 553.702 366.603 544.33 370.264C537.139 373.071 529.697 375.98 523.825 380.708C517.057 386.152 512.621 393.639 507.922 401.561C506.061 404.698 504.204 407.825 502.196 410.822C497.265 418.177 491.181 424.984 484.087 431.059L483.428 431.432C480.785 432.3 478.589 432.557 476.674 432.218L476.398 432.509L475.37 432.591C474.453 432.591 473.668 432.029 473.149 431.51C467.913 430.269 464.267 428.887 461.314 427.772C455.2 425.459 451.215 424.354 441.668 426.453C423.729 430.409 406.24 434.409 389.503 439.728L379.966 442.768ZM447.253 355.016C443.263 371.675 435.535 387.98 424.286 403.496C423.069 405.178 421.881 406.759 420.659 408.325C419.253 410.109 418.07 411.583 416.863 413.028L416.335 413.643C415.205 414.977 414.07 416.315 412.902 417.614L412 418.589C410.943 419.757 409.886 420.921 408.8 422.07L406.807 424.106C406.056 424.877 405.304 425.648 404.538 426.414C403.99 426.953 403.438 427.486 402.88 428.009L400.136 430.637C399.156 431.559 398.167 432.465 397.164 433.362C411.331 429.275 425.939 425.963 440.849 422.671C451.53 420.32 456.315 421.736 462.705 424.15C465.648 425.26 468.96 426.511 473.804 427.675L473.808 427.171L476.475 428.145C477.707 428.679 479.549 428.582 481.876 427.864C488.572 422.085 494.322 415.631 498.982 408.669C500.95 405.726 502.773 402.662 504.592 399.588C509.265 391.719 514.095 383.578 521.406 377.692C527.738 372.586 535.457 369.566 542.928 366.652C552.257 363.006 561.067 359.563 567.113 352.431C572.834 345.692 575.05 336.732 576.587 328.048L577.251 324.213C578.575 316.392 579.947 308.3 583.549 301.003C588.407 291.142 597.309 284.596 606.23 284.339C606.24 284.339 606.25 284.339 606.25 284.339C612.16 284.339 617.716 287.234 621.188 291.888C623.316 294.749 624.383 297.891 624.325 301.008C629.915 298.225 632.528 291.893 633.091 286.376C633.668 280.698 631.782 272.94 628.601 267.932C624.267 261.096 616.548 254.623 607.942 250.613C596.17 245.12 581.513 241.973 567.719 241.973C564.189 241.973 560.771 242.182 557.552 242.599C542.318 244.582 527.728 252.877 512.95 267.966C493.838 287.462 478.041 310.473 462.768 332.717C457.639 340.189 452.514 347.656 447.253 355.016Z" fill="url(#paint10_linear_1_493)"/>
<path d="M166.827 341.212L161.518 339.505C144.33 333.488 128.538 323.922 115.845 311.835C88.2715 285.566 73.3576 245.687 76.9212 207.767L77.1443 205.488C77.6825 200.184 78.24 194.7 76.4946 189.934C74.5891 184.678 68.6643 180.979 64.3976 182.817L57.2461 185.91L62.114 179.825C64.6497 176.654 68.354 174.977 72.834 174.977C78.657 174.977 85.4837 177.954 90.2303 182.565C92.5043 184.766 94.5746 187.229 96.5818 189.605C100.795 194.603 104.776 199.326 110.332 201.711C112.931 202.822 115.622 203.365 118.55 203.365C125.784 203.365 133.193 200.058 141.042 196.567C148.068 193.435 155.331 190.201 162.832 189.285C173.75 187.975 184.815 191.389 196.262 199.234L196.887 199.66L197.057 200.397C197.702 203.166 198.255 205.978 198.807 208.785C199.379 211.709 199.952 214.618 200.63 217.474C202.056 223.529 207.913 243.447 223.467 245.469L224.984 245.663L225.144 247.185C226.289 257.779 228.509 267.035 231.733 274.695L232.771 277.149L230.114 277.382C227.985 277.571 225.857 277.847 223.709 278.167C205.862 280.906 191.084 280.853 178.807 278.065C172.727 276.683 167.249 274.594 162.521 271.869C153.712 266.792 148.582 260.868 147.282 254.264C145.745 246.492 148.727 238.778 152.15 231.912C113.561 267.122 136.247 301.28 144.073 313.066C144.776 314.119 145.513 315.156 146.279 316.169L146.788 316.848L146.759 317.008L146.846 317.115C147.564 318.041 147.99 318.603 148.436 319.146C148.824 319.631 149.217 320.102 149.615 320.567L150.681 321.837C151.2 322.443 151.729 323.045 152.257 323.636L152.873 324.339C154.051 325.663 155.224 326.948 156.398 328.232C158.865 330.938 161.329 333.629 163.617 336.392L166.827 341.212ZM70.5794 179.059C74.7346 180.47 78.5115 184.111 80.1455 188.606C82.1915 194.206 81.5903 200.14 81.0134 205.881L80.7903 208.131C77.3382 244.902 91.8012 283.563 118.526 309.028C129.013 319.015 141.692 327.229 155.539 333.047C154.875 332.32 154.211 331.583 153.542 330.855C152.359 329.556 151.176 328.262 150.007 326.952L149.377 326.24C148.819 325.605 148.272 324.984 147.738 324.359L146.652 323.069C146.245 322.594 145.828 322.094 145.425 321.59C144.96 321.028 144.509 320.441 144.063 319.854L142.681 318.036L142.705 317.866C142.061 316.994 141.44 316.116 140.844 315.219C116.524 278.589 122.759 247.655 159.903 220.64C159.913 220.635 159.927 220.635 159.922 220.625L162.206 223.762C159.889 225.449 157.77 229.512 156.97 231.04C153.348 237.954 149.61 245.954 151.098 253.517C152.436 260.305 159.108 265.415 164.47 268.509C168.868 271.04 173.983 272.989 179.685 274.279C191.457 276.955 205.794 276.989 223.142 274.332C224.499 274.123 225.857 273.939 227.205 273.784C224.495 266.652 222.57 258.361 221.464 249.071C204.592 245.74 198.39 224.843 196.868 218.366C196.179 215.466 195.598 212.504 195.011 209.537C194.516 207.02 194.022 204.504 193.459 202.012C183.021 195.015 173.038 191.956 163.312 193.139C156.388 193.983 149.396 197.095 142.633 200.116C134.759 203.626 126.618 207.253 118.56 207.253C115.093 207.253 111.903 206.608 108.81 205.289C102.41 202.54 97.9394 197.241 93.6194 192.116C91.68 189.808 89.6679 187.423 87.5346 185.352C82.8073 180.766 75.6461 178.118 70.5794 179.059Z" fill="url(#paint11_linear_1_493)"/>
<defs>
<linearGradient id="paint0_linear_1_493" x1="129.891" y1="445.469" x2="197.989" y2="385.014" gradientUnits="userSpaceOnUse">
<stop stop-color="#D02964"/>
<stop offset="1" stop-color="#FC8F59"/>
</linearGradient>
<linearGradient id="paint1_linear_1_493" x1="504.574" y1="363.597" x2="577.301" y2="345.848" gradientUnits="userSpaceOnUse">
<stop stop-color="#D02964"/>
<stop offset="1" stop-color="#FC8F59"/>
</linearGradient>
<linearGradient id="paint2_linear_1_493" x1="425.455" y1="468.8" x2="523.178" y2="438.436" gradientUnits="userSpaceOnUse">
<stop stop-color="#D02964"/>
<stop offset="1" stop-color="#FC8F59"/>
</linearGradient>
<linearGradient id="paint3_linear_1_493" x1="351.96" y1="256.407" x2="441.982" y2="219.956" gradientUnits="userSpaceOnUse">
<stop stop-color="#D02964"/>
<stop offset="1" stop-color="#FC8F59"/>
</linearGradient>
<linearGradient id="paint4_linear_1_493" x1="242.539" y1="469.857" x2="336.083" y2="429.327" gradientUnits="userSpaceOnUse">
<stop stop-color="#D02964"/>
<stop offset="1" stop-color="#FC8F59"/>
</linearGradient>
<linearGradient id="paint5_linear_1_493" x1="472.937" y1="520.286" x2="543.368" y2="445.612" gradientUnits="userSpaceOnUse">
<stop stop-color="#D02964"/>
<stop offset="1" stop-color="#FC8F59"/>
</linearGradient>
<linearGradient id="paint6_linear_1_493" x1="249.085" y1="325.459" x2="346.382" y2="270.813" gradientUnits="userSpaceOnUse">
<stop stop-color="#D02964"/>
<stop offset="1" stop-color="#FC8F59"/>
</linearGradient>
<linearGradient id="paint7_linear_1_493" x1="195.027" y1="528.47" x2="251.206" y2="480.869" gradientUnits="userSpaceOnUse">
<stop stop-color="#D02964"/>
<stop offset="1" stop-color="#FC8F59"/>
</linearGradient>
<linearGradient id="paint8_linear_1_493" x1="331.648" y1="522.537" x2="374.847" y2="499.017" gradientUnits="userSpaceOnUse">
<stop stop-color="#D02964"/>
<stop offset="1" stop-color="#FC8F59"/>
</linearGradient>
<linearGradient id="paint9_linear_1_493" x1="328.445" y1="524.48" x2="374.764" y2="497.678" gradientUnits="userSpaceOnUse">
<stop stop-color="#D02964"/>
<stop offset="1" stop-color="#FC8F59"/>
</linearGradient>
<linearGradient id="paint10_linear_1_493" x1="519.304" y1="442.768" x2="614.451" y2="382.576" gradientUnits="userSpaceOnUse">
<stop stop-color="#D02964"/>
<stop offset="1" stop-color="#FC8F59"/>
</linearGradient>
<linearGradient id="paint11_linear_1_493" x1="152.372" y1="341.212" x2="223.276" y2="303.508" gradientUnits="userSpaceOnUse">
<stop stop-color="#D02964"/>
<stop offset="1" stop-color="#FC8F59"/>
</linearGradient>
</defs>
</svg>
