<svg width="641" height="2938" viewBox="0 0 641 2938" fill="none" xmlns="http://www.w3.org/2000/svg">
<path d="M210.435 2932.75C207.219 2932.75 204.232 2930.68 203.215 2927.46C109.808 2632.42 161.96 2310.47 232.228 2006.49C240.565 1970.4 249.147 1934.26 257.746 1898.05C320.154 1635.24 384.663 1363.48 359.375 1093.29C345.393 943.971 303.728 795.343 263.408 651.606C208.236 454.814 151.162 251.31 165.209 44.5741C165.504 40.3895 169.213 37.2059 173.283 37.5177C177.467 37.8131 180.618 41.4235 180.339 45.5917C166.472 249.719 223.17 451.942 278.013 647.503C318.513 791.897 360.392 941.198 374.472 1091.88C399.99 1364.55 335.17 1637.55 272.499 1901.56C263.916 1937.73 255.334 1973.85 246.997 2009.92C177.205 2311.8 125.348 2631.32 217.656 2922.88C218.92 2926.87 216.704 2931.14 212.716 2932.4C211.978 2932.63 211.19 2932.75 210.435 2932.75Z" fill="url(#paint0_linear_1_117)"/>
<path d="M333.857 860.886C330.23 860.886 327.047 858.293 326.407 854.601C278.144 576.841 259.666 293.091 271.465 11.2122C271.646 7.02755 275.19 3.74548 279.342 3.95881C283.527 4.13933 286.776 7.66758 286.595 11.8522C274.829 292.631 293.242 575.298 341.324 851.991C342.046 856.11 339.272 860.032 335.153 860.754C334.727 860.853 334.284 860.886 333.857 860.886Z" fill="url(#paint1_linear_1_117)"/>
<path d="M347.33 918.765L332.183 918.043L343.047 670.002C348.626 534.388 355.584 365.641 365.923 161.957L381.069 162.679L355.65 732.328C352.745 801.924 350.103 863.627 347.33 918.765Z" fill="url(#paint2_linear_1_117)"/>
<path d="M366.169 1076.07C365.709 1076.07 365.218 1076.04 364.759 1075.94C360.64 1075.15 357.932 1071.2 358.72 1067.08C406.868 812.574 423.063 552.554 406.833 294.24C406.571 290.071 409.754 286.461 413.939 286.215C418.091 285.723 421.717 289.12 421.963 293.304C438.292 552.865 422.031 814.149 373.637 1069.9C372.931 1073.55 369.73 1076.07 366.169 1076.07Z" fill="url(#paint3_linear_1_117)"/>
<path d="M369.828 1315.75C369.057 1315.75 368.269 1315.63 367.482 1315.38C363.51 1314.09 361.328 1309.82 362.608 1305.83C456.343 1016.77 498.944 716 489.229 411.885C489.098 407.7 492.364 404.189 496.565 404.057C500.027 403.778 504.245 407.192 504.392 411.393C514.156 717.263 471.309 1019.75 377.032 1310.49C375.998 1313.71 373.045 1315.75 369.828 1315.75Z" fill="url(#paint4_linear_1_117)"/>
<path d="M341.078 1555.61C339.88 1555.61 338.665 1555.33 337.517 1554.73C333.824 1552.76 332.413 1548.16 334.399 1544.45C496.171 1241.01 542.776 879.938 567.03 566.765C567.359 562.58 571.1 559.462 575.17 559.79C579.338 560.119 582.456 563.745 582.144 567.93C557.791 882.662 510.891 1245.67 347.789 1551.59C346.411 1554.15 343.785 1555.61 341.078 1555.61Z" fill="url(#paint5_linear_1_117)"/>
<path d="M286.989 1814.72C285.644 1814.72 284.265 1814.35 283.034 1813.6C279.457 1811.4 278.358 1806.72 280.557 1803.16C414.038 1586.58 513.517 1340.82 584.704 1051.87C585.705 1047.8 589.841 1045.27 593.878 1046.32C597.947 1047.31 600.442 1051.41 599.441 1055.49C527.875 1346.01 427.789 1593.18 293.488 1811.12C292.027 1813.42 289.549 1814.72 286.989 1814.72Z" fill="url(#paint6_linear_1_117)"/>
<path d="M250 1971.24C248.376 1971.24 246.751 1970.73 245.373 1969.64C242.058 1967.08 241.467 1962.31 244.027 1959.01C398.907 1759.43 514.123 1531.41 617.607 1219.71C618.936 1215.72 623.186 1213.62 627.19 1214.9C631.161 1216.22 633.328 1220.52 631.998 1224.49C527.957 1537.91 412.002 1767.31 256.023 1968.3C254.513 1970.22 252.281 1971.24 250 1971.24Z" fill="url(#paint7_linear_1_117)"/>
<path d="M189.562 2262.09C188.708 2262.09 187.839 2261.94 186.985 2261.65C183.047 2260.22 181.012 2255.86 182.44 2251.93C266.756 2019.48 389.471 1805.18 547.223 1614.99C549.882 1611.77 554.657 1611.33 557.89 1613.99C561.106 1616.66 561.566 1621.44 558.891 1624.65C402.271 1813.52 280.409 2026.31 196.717 2257.09C195.568 2260.19 192.663 2262.09 189.562 2262.09Z" fill="url(#paint8_linear_1_117)"/>
<path d="M339.765 889.505C337.254 889.505 334.792 888.258 333.348 885.977C195.404 668.508 107.067 418.334 77.9392 162.531C77.4633 158.379 80.4498 154.621 84.6016 154.145C88.7206 153.768 92.5115 156.656 93.0038 160.808C121.886 414.346 209.434 662.305 346.165 877.854C348.413 881.382 347.346 886.076 343.818 888.324C342.554 889.112 341.143 889.505 339.765 889.505Z" fill="url(#paint9_linear_1_117)"/>
<path d="M376.278 1295.95C372.848 1295.95 369.746 1293.61 368.909 1290.15C298.706 995.319 179.962 716.722 16.04 462.084C13.7754 458.572 14.7927 453.879 18.3208 451.598C21.849 449.349 26.5425 450.367 28.8071 453.879C193.664 709.961 313.049 990.133 383.679 1286.62C384.647 1290.7 382.136 1294.79 378.05 1295.76C377.459 1295.89 376.868 1295.95 376.278 1295.95Z" fill="url(#paint10_linear_1_117)"/>
<path d="M362.64 1403.88C359.326 1403.88 356.257 1401.67 355.338 1398.31C298.69 1191.42 211.453 1028.66 54.2103 836.5C51.5519 833.251 52.0278 828.476 55.2606 825.833C58.5098 823.175 63.2686 823.667 65.9271 826.884C224.614 1020.84 312.688 1185.23 369.943 1394.3C371.043 1398.34 368.679 1402.51 364.643 1403.61C363.986 1403.82 363.313 1403.88 362.64 1403.88Z" fill="url(#paint11_linear_1_117)"/>
<path d="M331.756 1606.86C327.572 1606.86 324.175 1603.47 324.175 1599.28C324.06 1402.7 250.821 1230.23 106.509 1086.67C103.523 1083.72 103.523 1078.93 106.476 1075.96C109.43 1072.99 114.238 1072.99 117.192 1075.94C264.491 1222.44 339.207 1398.52 339.322 1599.3C339.338 1603.48 335.941 1606.86 331.756 1606.86Z" fill="url(#paint12_linear_1_117)"/>
<path d="M306.96 1726.77C303.367 1726.77 300.183 1724.23 299.51 1720.57C272.023 1571.12 214.538 1424.25 133.258 1295.79C131.026 1292.25 132.077 1287.57 135.605 1285.32C139.166 1283.12 143.859 1284.16 146.074 1287.68C228.388 1417.77 286.595 1566.49 314.427 1717.81C315.182 1721.93 312.458 1725.89 308.339 1726.64C307.879 1726.74 307.436 1726.77 306.96 1726.77Z" fill="url(#paint13_linear_1_117)"/>
<defs>
<linearGradient id="paint0_linear_1_117" x1="276.017" y1="2932.75" x2="393.662" y2="2928.09" gradientUnits="userSpaceOnUse">
<stop stop-color="#D02964"/>
<stop offset="1" stop-color="#FC8F59"/>
</linearGradient>
<linearGradient id="paint1_linear_1_117" x1="307.806" y1="860.886" x2="345.783" y2="859.247" gradientUnits="userSpaceOnUse">
<stop stop-color="#D02964"/>
<stop offset="1" stop-color="#FC8F59"/>
</linearGradient>
<linearGradient id="paint2_linear_1_117" x1="358.677" y1="918.765" x2="383.982" y2="917.942" gradientUnits="userSpaceOnUse">
<stop stop-color="#D02964"/>
<stop offset="1" stop-color="#FC8F59"/>
</linearGradient>
<linearGradient id="paint3_linear_1_117" x1="396.262" y1="1076.07" x2="432.216" y2="1074.48" gradientUnits="userSpaceOnUse">
<stop stop-color="#D02964"/>
<stop offset="1" stop-color="#FC8F59"/>
</linearGradient>
<linearGradient id="paint4_linear_1_117" x1="440.017" y1="1315.75" x2="513.918" y2="1309.89" gradientUnits="userSpaceOnUse">
<stop stop-color="#D02964"/>
<stop offset="1" stop-color="#FC8F59"/>
</linearGradient>
<linearGradient id="paint5_linear_1_117" x1="468.264" y1="1555.61" x2="595.113" y2="1539.66" gradientUnits="userSpaceOnUse">
<stop stop-color="#D02964"/>
<stop offset="1" stop-color="#FC8F59"/>
</linearGradient>
<linearGradient id="paint6_linear_1_117" x1="452.978" y1="1814.72" x2="611.92" y2="1781.36" gradientUnits="userSpaceOnUse">
<stop stop-color="#D02964"/>
<stop offset="1" stop-color="#FC8F59"/>
</linearGradient>
<linearGradient id="paint7_linear_1_117" x1="453.773" y1="1971.24" x2="643.087" y2="1922.1" gradientUnits="userSpaceOnUse">
<stop stop-color="#D02964"/>
<stop offset="1" stop-color="#FC8F59"/>
</linearGradient>
<linearGradient id="paint8_linear_1_117" x1="387.194" y1="2262.09" x2="567.846" y2="2209.08" gradientUnits="userSpaceOnUse">
<stop stop-color="#D02964"/>
<stop offset="1" stop-color="#FC8F59"/>
</linearGradient>
<linearGradient id="paint9_linear_1_117" x1="223.921" y1="889.505" x2="358.949" y2="864.588" gradientUnits="userSpaceOnUse">
<stop stop-color="#D02964"/>
<stop offset="1" stop-color="#FC8F59"/>
</linearGradient>
<linearGradient id="paint10_linear_1_117" x1="214.843" y1="1295.95" x2="397.264" y2="1255.86" gradientUnits="userSpaceOnUse">
<stop stop-color="#D02964"/>
<stop offset="1" stop-color="#FC8F59"/>
</linearGradient>
<linearGradient id="paint11_linear_1_117" x1="224.68" y1="1403.88" x2="377.665" y2="1361.66" gradientUnits="userSpaceOnUse">
<stop stop-color="#D02964"/>
<stop offset="1" stop-color="#FC8F59"/>
</linearGradient>
<linearGradient id="paint12_linear_1_117" x1="231.654" y1="1606.88" x2="347.733" y2="1581.11" gradientUnits="userSpaceOnUse">
<stop stop-color="#D02964"/>
<stop offset="1" stop-color="#FC8F59"/>
</linearGradient>
<linearGradient id="paint13_linear_1_117" x1="230.974" y1="1726.77" x2="321.618" y2="1707.95" gradientUnits="userSpaceOnUse">
<stop stop-color="#D02964"/>
<stop offset="1" stop-color="#FC8F59"/>
</linearGradient>
</defs>
</svg>
