<svg width="754" height="827" viewBox="0 0 754 827" fill="none" xmlns="http://www.w3.org/2000/svg">
<g clip-path="url(#clip0_1_313)">
<path d="M130.933 794.04C156.025 771.668 148.125 730.321 131.964 700.821C115.811 671.361 92.7399 642.878 92.9193 609.239C92.9693 598.597 95.4826 587.849 93.4967 577.365C91.8271 568.404 87.008 560.347 82.9726 552.117C51.2966 487.526 72.3709 401.619 130.328 359.039C156.156 340.076 187.546 329.289 211.625 308.158C238.288 284.722 253.589 250.61 279.766 226.592C308.42 200.271 347.263 188.563 380.337 168.189C429.964 137.673 466.392 86.4814 478.998 29.6302C508.757 72.3353 467.871 130.225 474.728 181.783C481.084 229.226 527.737 266.704 524.94 314.543C523.357 341.559 505.946 364.796 496.729 390.216C474.834 450.337 497.655 524.526 460.182 576.388C426.15 623.59 355.499 631.923 320.761 678.596C310.84 691.884 304.208 707.949 291.385 718.475C279.499 728.226 263.942 731.846 249.249 736.338C205.119 749.772 164.136 773.265 130.933 794.04Z" fill="url(#paint0_linear_1_313)"/>
<path d="M168.624 801.682C195.995 768.093 253.131 784.653 289.14 760.559C304.282 750.436 313.946 734.176 325.198 719.825C373.182 658.387 450.725 629.869 522.227 598.778C593.728 567.679 668.55 525.219 696.669 454.081C717.527 475.339 700.159 510.541 682.387 534.406C661.209 562.892 639.243 592.112 608.763 610.296C590.663 621.102 570.104 627.634 552.924 639.894C518.115 664.713 501.206 709.969 464.275 731.484C433.596 749.414 395.279 747.284 362.037 759.75C340.237 767.93 320.97 782.221 298.764 789.123C253.064 803.227 199.999 784.513 168.624 801.682Z" fill="url(#paint1_linear_1_313)"/>
</g>
<defs>
<linearGradient id="paint0_linear_1_313" x1="380.005" y1="751.743" x2="588.74" y2="635.303" gradientUnits="userSpaceOnUse">
<stop stop-color="#D02964"/>
<stop offset="1" stop-color="#FC8F59"/>
</linearGradient>
<linearGradient id="paint1_linear_1_313" x1="482.758" y1="758.835" x2="591.001" y2="587.669" gradientUnits="userSpaceOnUse">
<stop stop-color="#D02964"/>
<stop offset="1" stop-color="#FC8F59"/>
</linearGradient>
<clipPath id="clip0_1_313">
<rect width="640" height="729.114" fill="white" transform="translate(0.121094 107.294) rotate(-9.63778)"/>
</clipPath>
</defs>
</svg>
