<svg width="641" height="1288" viewBox="0 0 641 1288" fill="none" xmlns="http://www.w3.org/2000/svg">
<g clip-path="url(#clip0_1_679)">
<path d="M118.007 1286.01L110.923 1278.51C254.754 1142.49 351.983 944.156 384.696 720.031C396.805 637.133 397.592 566.461 387.094 503.962C377.149 444.589 355.808 382.759 319.931 309.402C278.544 224.797 236.452 163.062 187.466 115.121L194.682 107.75C244.536 156.545 287.284 219.176 329.2 304.87C365.526 379.154 387.161 441.874 397.268 502.255C407.942 565.828 407.17 637.552 394.899 721.532C361.855 947.93 263.516 1148.4 118.007 1286.01Z" fill="url(#paint0_linear_1_679)"/>
<path d="M363.606 393.595L358.861 388.622C396.694 352.524 413.298 294.284 400.189 243.688L406.839 241.966C420.779 295.726 403.808 355.239 363.606 393.595Z" fill="url(#paint1_linear_1_679)"/>
<path d="M402.638 602.014L396.65 598.637C416.564 563.298 443.893 531.43 475.687 506.492L479.924 511.906C448.836 536.3 422.111 567.454 402.638 602.014Z" fill="url(#paint2_linear_1_679)"/>
<path d="M373.39 661.291C374.898 663.116 373.073 665.83 371.248 667.618C367.57 671.259 363.135 674.842 357.912 675.43C354.263 675.842 350.754 674.739 347.415 673.569C345.487 672.885 343.53 672.186 341.882 671.053C338.299 668.655 336.417 664.697 334.688 660.916C334.07 659.607 333.482 658.268 332.864 656.958C330.532 651.875 328.192 646.748 326.295 641.488C324.956 637.677 323.955 633.094 326.604 629.659C328.84 626.768 332.93 625.738 336.638 625.091C337.057 619.691 342.927 615.631 348.68 614.365C351.814 613.666 355.043 613.571 358.133 614.049C366.732 615.395 373.441 620.993 379.701 626.4C381.724 628.151 383.762 629.909 385.035 632.175C386.403 634.647 386.822 637.508 386.992 640.355C387.205 643.415 387.175 646.512 386.889 649.573C386.749 651.051 386.587 652.596 385.822 653.979C385.057 655.347 383.652 656.524 382.07 656.657C380.452 656.804 379.01 655.87 377.428 655.796C374.442 655.723 371.867 659.474 373.39 661.291Z" fill="url(#paint3_linear_1_679)"/>
<path d="M318.923 469.843C324.345 466.062 329.855 462.207 333.945 456.984C338.035 451.761 340.551 444.876 339.036 438.476C338.204 435.003 336.277 431.951 334.394 428.92C328.818 420.048 323.006 410.97 314.443 404.946C305.815 398.862 295.111 396.493 284.621 394.838C275.889 393.455 266.576 392.602 258.491 396.317C254.158 398.31 250.311 401.584 245.625 402.511C241.366 403.334 236.923 402.091 232.619 402.886C224.373 404.394 219.113 412.993 217.428 421.284C215.744 429.574 216.501 438.167 214.648 446.42C213.022 453.711 209.344 460.523 204.187 465.885C202.782 467.357 201.127 469.012 201.274 471.042C201.377 472.388 202.23 473.477 203.054 474.514C213.338 487.204 223.858 500.1 237.577 508.934C244.632 513.473 252.363 516.813 260.066 520.146C267.319 523.272 274.793 526.472 282.694 526.744C290.638 527.016 298.414 524.375 305.976 521.72C312.582 519.417 319.6 516.806 323.896 511.23C328.847 504.734 328.921 495.899 328.501 487.778C328.303 484.21 328.023 480.532 326.331 477.435C324.617 474.338 321.072 471.969 317.54 472.587C317.43 472.454 317.371 472.388 318.923 469.843Z" fill="url(#paint4_linear_1_679)"/>
<path d="M312.862 292.695C296.568 276.092 272.034 269.53 250.186 265.286C246.964 264.668 243.727 264.072 240.483 263.476C220.106 259.739 199.016 255.877 180.691 245.284L184.126 239.325C201.428 249.315 221.916 253.074 241.726 256.708C244.993 257.304 248.251 257.9 251.488 258.525C274.381 262.969 300.15 269.92 317.776 287.862L312.862 292.695Z" fill="url(#paint5_linear_1_679)"/>
<path d="M368.351 844.273L362.966 839.991C384.77 812.596 411.128 789.696 441.318 771.916L444.812 777.838C415.762 794.948 389.324 817.922 368.351 844.273Z" fill="url(#paint6_linear_1_679)"/>
<path d="M275.374 1080.34L270.203 1075.81C298.171 1043.82 340.227 1023.63 382.718 1021.82L383.004 1028.69C342.368 1030.42 302.129 1049.73 275.374 1080.34Z" fill="url(#paint7_linear_1_679)"/>
<path d="M410.642 103.476C430.828 97.1864 453.213 104.859 469.985 117.747C493.989 136.109 509.261 164.791 513.528 194.709C515.234 206.906 515.205 219.64 511.328 231.329C504.067 253.207 483.948 269.023 462.048 276.21C444.378 282.021 420.367 280.234 413.011 263.145C410.296 256.819 408.604 247.704 401.733 247.366C399.607 247.263 397.577 248.182 395.65 249.117C381.165 256.127 365.423 265.381 350.085 260.57C341.007 257.709 334.026 250.257 329.208 242.032C312.744 214.005 318.688 176.488 338.285 150.557C357.89 124.625 389.051 110.214 410.642 103.476Z" fill="url(#paint8_linear_1_679)"/>
<path d="M472.457 509.928C456.67 489.396 453.132 460.993 459.907 435.989C466.682 410.992 482.91 389.247 502.684 372.512C510.519 365.839 520.943 359.579 530.565 363.191C541.334 367.252 544.351 380.89 546.043 393.139C559.248 380.618 581.567 379.243 596.213 390.071C600.097 392.962 603.429 396.545 606.188 400.495C619.628 419.857 617.259 448.605 600.847 465.525C596.588 469.924 591.497 473.609 588.062 478.693C584.553 483.886 583.001 490.213 579.389 495.34C572.275 505.484 558.931 508.684 546.793 511.127C521.531 516.217 486.824 528.635 472.457 509.928Z" fill="url(#paint9_linear_1_679)"/>
<path d="M390.015 505.771C363.554 484.232 335.968 473.117 308.007 472.712L308.11 465.834C337.653 466.268 366.666 477.913 394.355 500.445L390.015 505.771Z" fill="url(#paint10_linear_1_679)"/>
<path d="M436.117 773.74C422.125 760.263 413.562 738.077 423.258 721.267C425.803 716.854 429.386 713.176 432.167 708.916C441.73 694.343 440.795 675.283 447.298 659.092C456.067 637.155 477.386 622.913 498.749 612.835C517.654 603.897 538.944 597.049 559.335 601.838C582.265 607.237 599.251 626.121 613.735 644.681C623.99 657.819 634.098 672.23 635.635 688.797C636.834 701.773 632.612 714.588 628.205 726.866C621.629 745.198 614.346 763.772 601.664 778.514C576.218 808.057 534.022 816.856 495.026 816.826C484.882 816.826 474.355 816.238 465.351 811.633C449.049 803.246 444.819 782.097 436.117 773.74Z" fill="url(#paint11_linear_1_679)"/>
<path d="M375.758 1020.2C377.097 1000.83 378.774 980.541 389.478 964.35C406.089 939.243 439.163 931.467 469.184 929.51C487.096 928.311 507.841 929.716 518.699 944.032C528.373 956.787 527.505 976.944 540.812 985.852C547.477 990.288 556.533 990.869 562.094 996.607C567.435 1002.15 567.839 1010.72 567.185 1018.37C564.124 1052.91 544.66 1085.4 516.323 1105.38C487.994 1125.36 451.403 1132.82 417.263 1126.73C404.911 1124.53 392.568 1120.5 382.695 1112.74C372.831 1105 365.673 1093.06 365.879 1080.51C366.261 1058.61 387.83 1037.08 375.758 1020.2Z" fill="url(#paint12_linear_1_679)"/>
<path d="M204.783 124.677C193.292 107.721 198.729 82.7239 185.59 67.0107C180.676 61.1625 173.739 57.374 166.758 54.3137C155.893 49.5395 144.446 46.0305 132.75 43.934C123.297 42.2126 112.704 40.8738 106.642 33.4439C104.097 30.3101 102.692 26.426 100.794 22.8214C95.0191 11.8899 84.2936 3.66545 72.1848 0.980389C69.7793 0.465446 67.1605 0.156535 64.9978 1.28941C62.7615 2.45906 61.5182 4.93075 60.4957 7.27742C53.8603 22.3432 50.2116 38.6742 49.7629 55.1082C49.5275 63.9137 50.2411 72.962 53.7868 81.032C57.1928 88.7708 62.9746 95.2076 68.8156 101.291C84.7349 117.828 104.612 133.99 127.549 133.063C141.371 132.511 154.061 125.773 167.096 121.205C180.124 116.592 195.529 114.356 204.783 124.677Z" fill="url(#paint13_linear_1_679)"/>
<path d="M183.92 240.392C176.593 224.708 161.881 213.74 146.653 205.523C131.425 197.335 115.014 191.222 100.573 181.659C93.7243 177.15 87.2655 171.824 79.5561 169.036C72.4351 166.424 64.7037 166.145 57.1341 165.865C41.6564 165.321 24.332 165.49 13.2166 176.289C5.06581 184.16 2.24848 196.063 1.60113 207.377C0.321127 229.527 6.20609 252.258 19.3445 270.134C32.4755 288.017 53.0069 300.633 75.0761 302.803C97.6379 305.047 119.817 296.683 140.694 287.848C152.347 282.897 164.316 277.468 172.739 268.008C181.176 258.547 185.502 243.754 183.92 240.392Z" fill="url(#paint14_linear_1_679)"/>
<path d="M311.979 983.586C288.777 964.901 271.254 939.059 262.633 910.833L269.217 908.824C277.434 935.748 294.162 960.399 316.29 978.231L311.979 983.586Z" fill="url(#paint15_linear_1_679)"/>
<path d="M257.498 937.455C256.019 925.383 264.31 912.87 276.007 909.574C284.15 907.265 293.191 908.986 300.967 905.58C313.134 900.247 316.93 885.085 318.784 871.918C324.088 834.128 325.941 795.338 317.614 758.093C309.294 720.848 289.932 685.126 259.124 662.593C245.265 652.486 229.103 645.122 212.043 643.371C186.907 640.797 160.976 651.044 143.681 669.508C139.554 673.915 135.839 678.866 133.64 684.5C131.543 689.966 130.962 695.917 129.719 701.663C126.901 714.764 118.169 728.727 104.788 729.514C101.036 729.72 97.2847 728.859 93.5404 728.859C80.5785 728.859 70.022 738.967 61.9742 749.118C56.3319 756.203 51.1386 763.728 47.4972 771.982C37.6324 794.301 39.7582 820.563 48.8433 843.235C57.921 865.893 73.362 885.387 89.9725 903.278C107.091 921.771 126.357 939.382 150.044 947.945C184.972 960.576 224.38 951.557 257.498 937.455Z" fill="url(#paint16_linear_1_679)"/>
<path d="M395.723 702.582L388.838 702.45C388.963 695.947 385.807 689.576 382.761 683.404L369.395 656.532L375.545 653.457L388.919 680.351C392.185 686.943 395.878 694.409 395.723 702.582Z" fill="url(#paint17_linear_1_679)"/>
</g>
<defs>
<linearGradient id="paint0_linear_1_679" x1="270.152" y1="1286.01" x2="420.032" y2="1267.19" gradientUnits="userSpaceOnUse">
<stop stop-color="#0B9B8A"/>
<stop offset="1" stop-color="#08DEC5"/>
</linearGradient>
<linearGradient id="paint1_linear_1_679" x1="387.468" y1="393.595" x2="414.004" y2="388.942" gradientUnits="userSpaceOnUse">
<stop stop-color="#0B9B8A"/>
<stop offset="1" stop-color="#08DEC5"/>
</linearGradient>
<linearGradient id="paint2_linear_1_679" x1="441.781" y1="602.014" x2="477.958" y2="586.131" gradientUnits="userSpaceOnUse">
<stop stop-color="#0B9B8A"/>
<stop offset="1" stop-color="#08DEC5"/>
</linearGradient>
<linearGradient id="paint3_linear_1_679" x1="358.646" y1="675.518" x2="384.28" y2="662.52" gradientUnits="userSpaceOnUse">
<stop stop-color="#0B9B8A"/>
<stop offset="1" stop-color="#08DEC5"/>
</linearGradient>
<linearGradient id="paint4_linear_1_679" x1="276.171" y1="526.763" x2="332.411" y2="497.352" gradientUnits="userSpaceOnUse">
<stop stop-color="#0B9B8A"/>
<stop offset="1" stop-color="#08DEC5"/>
</linearGradient>
<linearGradient id="paint5_linear_1_679" x1="254.984" y1="292.695" x2="281.555" y2="258.323" gradientUnits="userSpaceOnUse">
<stop stop-color="#0B9B8A"/>
<stop offset="1" stop-color="#08DEC5"/>
</linearGradient>
<linearGradient id="paint6_linear_1_679" x1="407.323" y1="844.273" x2="439.342" y2="826.032" gradientUnits="userSpaceOnUse">
<stop stop-color="#0B9B8A"/>
<stop offset="1" stop-color="#08DEC5"/>
</linearGradient>
<linearGradient id="paint7_linear_1_679" x1="331.336" y1="1080.34" x2="361.428" y2="1051.12" gradientUnits="userSpaceOnUse">
<stop stop-color="#0B9B8A"/>
<stop offset="1" stop-color="#08DEC5"/>
</linearGradient>
<linearGradient id="paint8_linear_1_679" x1="425.306" y1="279.204" x2="502.755" y2="236.473" gradientUnits="userSpaceOnUse">
<stop stop-color="#0B9B8A"/>
<stop offset="1" stop-color="#08DEC5"/>
</linearGradient>
<linearGradient id="paint9_linear_1_679" x1="542.406" y1="519.897" x2="607.739" y2="486.89" gradientUnits="userSpaceOnUse">
<stop stop-color="#0B9B8A"/>
<stop offset="1" stop-color="#08DEC5"/>
</linearGradient>
<linearGradient id="paint10_linear_1_679" x1="354.804" y1="505.771" x2="375.275" y2="483.48" gradientUnits="userSpaceOnUse">
<stop stop-color="#0B9B8A"/>
<stop offset="1" stop-color="#08DEC5"/>
</linearGradient>
<linearGradient id="paint11_linear_1_679" x1="536.57" y1="816.826" x2="626.125" y2="771.69" gradientUnits="userSpaceOnUse">
<stop stop-color="#0B9B8A"/>
<stop offset="1" stop-color="#08DEC5"/>
</linearGradient>
<linearGradient id="paint12_linear_1_679" x1="475.103" y1="1128.8" x2="558.085" y2="1086.6" gradientUnits="userSpaceOnUse">
<stop stop-color="#0B9B8A"/>
<stop offset="1" stop-color="#08DEC5"/>
</linearGradient>
<linearGradient id="paint13_linear_1_679" x1="133.758" y1="133.101" x2="193.412" y2="97.9649" gradientUnits="userSpaceOnUse">
<stop stop-color="#0B9B8A"/>
<stop offset="1" stop-color="#08DEC5"/>
</linearGradient>
<linearGradient id="paint14_linear_1_679" x1="100.505" y1="303.172" x2="165.903" y2="259.374" gradientUnits="userSpaceOnUse">
<stop stop-color="#0B9B8A"/>
<stop offset="1" stop-color="#08DEC5"/>
</linearGradient>
<linearGradient id="paint15_linear_1_679" x1="291.712" y1="983.586" x2="316.304" y2="974.698" gradientUnits="userSpaceOnUse">
<stop stop-color="#0B9B8A"/>
<stop offset="1" stop-color="#08DEC5"/>
</linearGradient>
<linearGradient id="paint16_linear_1_679" x1="194.003" y1="953.973" x2="315" y2="898.656" gradientUnits="userSpaceOnUse">
<stop stop-color="#0B9B8A"/>
<stop offset="1" stop-color="#08DEC5"/>
</linearGradient>
<linearGradient id="paint17_linear_1_679" x1="383.666" y1="702.582" x2="396.385" y2="699.149" gradientUnits="userSpaceOnUse">
<stop stop-color="#0B9B8A"/>
<stop offset="1" stop-color="#08DEC5"/>
</linearGradient>
<clipPath id="clip0_1_679">
<rect width="640" height="1287.36" fill="white" transform="translate(0.0341797 0.414062)"/>
</clipPath>
</defs>
</svg>
