<svg width="640" height="937" viewBox="0 0 640 937" fill="none" xmlns="http://www.w3.org/2000/svg">
<path d="M448.303 933.339C331.116 882.914 230.285 801.135 156.712 696.855L161.799 693.265C234.705 796.615 334.632 877.652 450.769 927.619L448.303 933.339Z" fill="url(#paint0_linear_1_83)"/>
<path d="M162.998 705.728L156.955 700.359C82.331 634.028 28.7665 543.39 6.14416 445.133L3.64478 434.28L11.4056 442.27C83.227 516.133 151.195 598.194 162.115 697.691L162.998 705.728ZM14.9087 454.855C37.9285 544.832 87.2219 627.715 154.88 690.085C141.905 599.757 80.9432 523.671 14.9087 454.855Z" fill="url(#paint1_linear_1_83)"/>
<path d="M191.832 732.433L184.69 731.752C115.16 725.157 53.8004 699.799 11.9241 660.335L4.56079 653.396L14.5515 654.999C84.2037 666.156 153.351 682.58 187.439 726.747L191.832 732.433ZM24.0976 662.882C63.0029 695.98 116.884 717.719 177.684 724.759C145.246 688.663 85.6319 673.276 24.0976 662.882Z" fill="url(#paint2_linear_1_83)"/>
<path d="M352.263 880.946C276.776 749.679 204.463 553.246 288.62 362.863C338.984 248.923 422.972 190.508 423.815 189.935L427.331 195.068C426.503 195.641 343.788 253.234 294.178 365.665C211.274 553.59 282.934 747.914 357.652 877.841L352.263 880.946Z" fill="url(#paint3_linear_1_83)"/>
<path d="M232.778 781.531L229.874 779.678C211.86 768.172 199.134 748.918 189.831 719.074C177.368 679.38 174.093 636.567 180.338 595.244L181.672 586.432L186.112 594.159C210.028 635.732 226.984 680.66 236.517 727.69C240.007 744.855 242.149 762.89 234.328 778.452L232.778 781.531ZM185.27 605.362C180.918 642.873 184.515 681.347 195.773 717.207C204.079 743.845 215.08 761.502 230.225 772.389C235.412 759.191 233.432 743.757 230.42 728.923C221.629 685.591 206.45 644.066 185.27 605.362Z" fill="url(#paint4_linear_1_83)"/>
<path d="M477.177 202.924C458.274 202.924 438.993 201.3 419.874 198.1L415.165 197.312L417.792 193.317C437.666 163.082 473.64 142.831 516.48 137.745C551.768 133.575 590.309 139.436 631.262 155.254L637.083 157.497L631.781 160.798C587.479 188.359 534.023 202.924 477.177 202.924ZM425.768 192.738C442.954 195.372 460.221 196.699 477.177 196.699C530.54 196.699 580.817 183.623 623.03 158.811C585.256 145.054 549.773 140.076 517.208 143.929C478.74 148.497 444.962 166.605 425.768 192.738Z" fill="url(#paint5_linear_1_83)"/>
<path d="M417.112 201.684L417.96 188.514C420.305 152.06 422.723 114.368 437.955 80.0773C452.749 46.7232 478.808 20.4428 498.069 4.26768L500.904 1.88281L502.764 5.09622C512.606 22.1068 513.429 44.8166 505.015 67.4121C497.584 87.3397 484.163 104.97 472.333 120.525C455.64 142.447 438.488 164.982 423.754 190.285L417.112 201.684ZM499.133 11.5368C480.748 27.4223 457.223 51.9914 443.648 82.6037C430.612 111.956 427.217 144.3 425.014 176.165C438.306 154.944 452.999 135.636 467.288 116.874C479.509 100.793 492.066 84.2946 499.174 65.236C506.396 45.8609 506.334 26.533 499.133 11.5368Z" fill="url(#paint6_linear_1_83)"/>
<path d="M286.37 738.058C242.574 641.297 271.441 537.536 303.367 467.54L309.033 470.12C277.639 538.951 249.209 640.866 292.035 735.498L286.37 738.058Z" fill="url(#paint7_linear_1_83)"/>
<path d="M306.041 472.249L304.701 470.039C298.543 459.921 300.921 445.942 311.572 429.598C317.851 419.991 324.581 412.305 332.167 406.093C340.473 399.208 350.37 393.644 359.936 388.268L361.405 387.459C369.913 382.743 378.705 377.859 388.52 374.976L391.7 374.039L392.434 377.26C394.119 384.616 392.381 392.99 386.971 403.621C372.52 432.131 341.693 458.715 308.46 471.326L306.041 472.249ZM386.809 382.063C379.035 384.785 371.907 388.739 364.423 392.889L363.311 393.509C353.657 398.932 344.017 404.355 336.128 410.89C329.027 416.704 322.715 423.933 316.793 432.994C310.824 442.142 304.882 454.733 308.85 464.488C339.719 452.025 368.007 427.274 381.426 400.798C385.253 393.273 387.005 387.217 386.809 382.063Z" fill="url(#paint8_linear_1_83)"/>
<path d="M267.769 611.365L267.54 605.437C266.415 576.771 280.354 540.419 303.919 510.562C315.345 496.023 339.867 471.218 370.587 473.529L374.232 473.819L373.369 477.369C362.254 523.072 330.213 564.517 272.512 607.801L267.769 611.365ZM366.377 479.592C340.062 479.646 319.023 501.42 308.81 514.408C287.798 541.039 274.722 572.844 273.758 599.043C325.565 559.235 355.16 521.071 366.377 479.592Z" fill="url(#paint9_linear_1_83)"/>
<path d="M359.491 886.942L356.783 880.542C344.077 850.577 337.711 821.083 337.853 792.862C338.028 759.522 347.917 729.859 365.696 709.339L369.098 705.411L370.951 710.269C384.606 745.933 398.457 792.317 384.195 834.738C380.571 845.517 375.262 855.67 370.129 865.492C367.501 870.511 364.874 875.537 362.456 880.657L359.491 886.942ZM367.043 717.538C352.35 736.711 344.232 763.227 344.077 792.896C343.956 818.26 349.272 844.743 359.902 871.724C361.445 868.665 363.028 865.634 364.611 862.602C369.637 852.995 374.831 843.065 378.294 832.744C391.276 794.142 379.655 751.478 367.043 717.538Z" fill="url(#paint10_linear_1_83)"/>
<path d="M258.324 631.751C231.33 522.91 239.313 430.925 250.765 372.935C263.188 310.013 282.321 272.253 282.509 271.875L288.047 274.718C287.299 276.187 213.282 424.276 264.36 630.248L258.324 631.751Z" fill="url(#paint11_linear_1_83)"/>
<path d="M282.139 281.516L280.845 278.356C269.258 250.129 273.32 219.853 291.968 195.324C309.133 172.803 336.27 158.817 364.551 157.915L368.33 157.793L367.724 161.526C359.39 212.975 328.529 257.236 285.164 279.926L282.139 281.516ZM360.913 164.355C335.879 166.275 312.185 179.075 296.92 199.097C280.347 220.891 276.21 247.562 285.352 272.764C324.877 250.856 352.175 211.675 360.913 164.355Z" fill="url(#paint12_linear_1_83)"/>
<path d="M246.979 575.114C246.838 574.481 231.963 511.579 184.751 456.391L189.48 452.335C237.73 508.743 252.894 573.073 253.043 573.719L246.979 575.114Z" fill="url(#paint13_linear_1_83)"/>
<path d="M167.768 463.821C162.048 463.821 156.133 462.723 150.656 460.642C140.113 456.586 129.987 448.872 120.556 437.703C98.2232 411.227 88.1517 376.229 92.9213 341.682L93.5142 337.384L97.3946 339.324C141.736 361.475 177.24 405.662 190.046 454.626L190.619 456.822L188.706 458.041C182.764 461.827 175.529 463.821 167.768 463.821ZM98.5668 346.937C95.4342 378.29 105.068 409.684 125.319 433.687C134.063 444.042 143.34 451.156 152.886 454.828C163.153 458.728 174.915 458.425 183.411 453.925C170.954 409.017 138.813 368.549 98.5668 346.937Z" fill="url(#paint14_linear_1_83)"/>
<path d="M245.996 559.781C216.421 478.245 199.909 393.004 196.918 306.415L203.143 306.206C206.114 392.141 222.504 476.749 251.85 557.666L245.996 559.781Z" fill="url(#paint15_linear_1_83)"/>
<path d="M254.895 550.322L248.697 549.703C258.803 449.135 314.267 354.469 397.069 296.458L400.64 301.565C319.299 358.545 264.819 451.533 254.895 550.322Z" fill="url(#paint16_linear_1_83)"/>
<path d="M208.35 415.687C202.321 407.225 194.109 397.948 185.209 389.575L189.48 385.047C198.656 393.691 207.165 403.291 213.423 412.069L208.35 415.687Z" fill="url(#paint17_linear_1_83)"/>
<path d="M211.092 395.887L204.901 395.213C206.107 384.185 214.003 374.915 220.962 366.737C222.147 365.349 223.313 363.981 224.431 362.62L229.241 366.582C228.103 367.963 226.91 369.357 225.711 370.779C219.008 378.641 212.089 386.765 211.092 395.887Z" fill="url(#paint18_linear_1_83)"/>
<path d="M205.413 350.272L199.559 348.156C202.786 339.244 208.33 331.314 215.606 325.218L219.608 329.994C213.174 335.377 208.263 342.39 205.413 350.272Z" fill="url(#paint19_linear_1_83)"/>
<path d="M201.229 369.108C193.826 361.778 187.109 353.876 181.261 345.63L186.341 342.026C191.98 349.996 198.467 357.615 205.608 364.689L201.229 369.108Z" fill="url(#paint20_linear_1_83)"/>
<path d="M200.098 326.753C193.482 324.342 187.453 320.34 182.669 315.186L187.23 310.949C191.346 315.382 196.534 318.824 202.233 320.899L200.098 326.753Z" fill="url(#paint21_linear_1_83)"/>
<path d="M190.841 313.536C191.731 301.362 173.238 299.921 172.214 312.074C171.338 324.247 189.838 325.696 190.841 313.536Z" fill="url(#paint22_linear_1_83)"/>
<path d="M208.761 299.995C209.644 287.821 191.151 286.38 190.141 298.54C189.191 310.713 207.69 312.087 208.761 299.995Z" fill="url(#paint23_linear_1_83)"/>
<path d="M191.872 344.458C192.761 332.284 174.262 330.849 173.245 343.003C172.362 355.176 190.868 356.551 191.872 344.458Z" fill="url(#paint24_linear_1_83)"/>
<path d="M194.614 385.317C195.503 373.157 177.011 371.709 176 383.862C175.111 396.049 193.603 397.484 194.614 385.317Z" fill="url(#paint25_linear_1_83)"/>
<path d="M236.073 366.191C236.962 354.024 218.462 352.582 217.452 364.742C216.562 376.916 235.069 378.364 236.073 366.191Z" fill="url(#paint26_linear_1_83)"/>
<path d="M229.834 326.053C230.717 313.879 212.224 312.438 211.213 324.604C210.324 336.778 228.837 338.152 229.834 326.053Z" fill="url(#paint27_linear_1_83)"/>
<path d="M407.956 302.595C408.839 290.415 390.339 288.987 389.329 301.14C388.44 313.307 406.946 314.695 407.956 302.595Z" fill="url(#paint28_linear_1_83)"/>
<path d="M392.307 352.583C393.196 340.402 374.703 338.961 373.686 351.127C372.743 363.287 391.242 364.736 392.307 352.583Z" fill="url(#paint29_linear_1_83)"/>
<path d="M370.109 293.083C370.984 280.903 352.492 279.468 351.481 291.641C350.531 303.801 369.024 305.236 370.109 293.083Z" fill="url(#paint30_linear_1_83)"/>
<path d="M357.888 336.684L351.919 334.905C355.786 321.917 356.554 311.912 356.723 295.683L362.947 295.751C362.779 312.215 361.95 323.069 357.888 336.684Z" fill="url(#paint31_linear_1_83)"/>
<path d="M320.519 380.332L317.198 375.07C339.564 360.957 346.57 356.982 374.481 350.151L375.963 356.2C348.915 362.816 342.656 366.373 320.519 380.332Z" fill="url(#paint32_linear_1_83)"/>
<defs>
<linearGradient id="paint0_linear_1_83" x1="316.077" y1="933.339" x2="426.451" y2="865.252" gradientUnits="userSpaceOnUse">
<stop stop-color="#D02964"/>
<stop offset="1" stop-color="#FC8F59"/>
</linearGradient>
<linearGradient id="paint1_linear_1_83" x1="90.0065" y1="705.728" x2="165.943" y2="683.277" gradientUnits="userSpaceOnUse">
<stop stop-color="#D02964"/>
<stop offset="1" stop-color="#FC8F59"/>
</linearGradient>
<linearGradient id="paint2_linear_1_83" x1="106.053" y1="732.433" x2="146.086" y2="684.661" gradientUnits="userSpaceOnUse">
<stop stop-color="#D02964"/>
<stop offset="1" stop-color="#FC8F59"/>
</linearGradient>
<linearGradient id="paint3_linear_1_83" x1="346.505" y1="880.946" x2="436.454" y2="869.378" gradientUnits="userSpaceOnUse">
<stop stop-color="#D02964"/>
<stop offset="1" stop-color="#FC8F59"/>
</linearGradient>
<linearGradient id="paint4_linear_1_83" x1="211.077" y1="781.531" x2="242.599" y2="776.453" gradientUnits="userSpaceOnUse">
<stop stop-color="#D02964"/>
<stop offset="1" stop-color="#FC8F59"/>
</linearGradient>
<linearGradient id="paint5_linear_1_83" x1="535.434" y1="202.924" x2="565.487" y2="152.399" gradientUnits="userSpaceOnUse">
<stop stop-color="#D02964"/>
<stop offset="1" stop-color="#FC8F59"/>
</linearGradient>
<linearGradient id="paint6_linear_1_83" x1="467.878" y1="201.684" x2="513.854" y2="190.828" gradientUnits="userSpaceOnUse">
<stop stop-color="#D02964"/>
<stop offset="1" stop-color="#FC8F59"/>
</linearGradient>
<linearGradient id="paint7_linear_1_83" x1="288.438" y1="738.058" x2="311.574" y2="736.121" gradientUnits="userSpaceOnUse">
<stop stop-color="#D02964"/>
<stop offset="1" stop-color="#FC8F59"/>
</linearGradient>
<linearGradient id="paint8_linear_1_83" x1="351.051" y1="472.249" x2="389.963" y2="453.952" gradientUnits="userSpaceOnUse">
<stop stop-color="#D02964"/>
<stop offset="1" stop-color="#FC8F59"/>
</linearGradient>
<linearGradient id="paint9_linear_1_83" x1="325.333" y1="611.365" x2="373.36" y2="592.652" gradientUnits="userSpaceOnUse">
<stop stop-color="#D02964"/>
<stop offset="1" stop-color="#FC8F59"/>
</linearGradient>
<linearGradient id="paint10_linear_1_83" x1="366.224" y1="886.942" x2="392.793" y2="883.083" gradientUnits="userSpaceOnUse">
<stop stop-color="#D02964"/>
<stop offset="1" stop-color="#FC8F59"/>
</linearGradient>
<linearGradient id="paint11_linear_1_83" x1="266.097" y1="631.751" x2="290.818" y2="630.093" gradientUnits="userSpaceOnUse">
<stop stop-color="#D02964"/>
<stop offset="1" stop-color="#FC8F59"/>
</linearGradient>
<linearGradient id="paint12_linear_1_83" x1="325.285" y1="281.516" x2="367.765" y2="265.266" gradientUnits="userSpaceOnUse">
<stop stop-color="#D02964"/>
<stop offset="1" stop-color="#FC8F59"/>
</linearGradient>
<linearGradient id="paint13_linear_1_83" x1="221.762" y1="575.114" x2="254.574" y2="565.922" gradientUnits="userSpaceOnUse">
<stop stop-color="#D02964"/>
<stop offset="1" stop-color="#FC8F59"/>
</linearGradient>
<linearGradient id="paint14_linear_1_83" x1="145.337" y1="463.821" x2="189.687" y2="446.358" gradientUnits="userSpaceOnUse">
<stop stop-color="#D02964"/>
<stop offset="1" stop-color="#FC8F59"/>
</linearGradient>
<linearGradient id="paint15_linear_1_83" x1="226.689" y1="559.781" x2="254.819" y2="556.712" gradientUnits="userSpaceOnUse">
<stop stop-color="#D02964"/>
<stop offset="1" stop-color="#FC8F59"/>
</linearGradient>
<linearGradient id="paint16_linear_1_83" x1="331.043" y1="550.322" x2="403.219" y2="528.566" gradientUnits="userSpaceOnUse">
<stop stop-color="#D02964"/>
<stop offset="1" stop-color="#FC8F59"/>
</linearGradient>
<linearGradient id="paint17_linear_1_83" x1="200.5" y1="415.687" x2="212.532" y2="410.107" gradientUnits="userSpaceOnUse">
<stop stop-color="#D02964"/>
<stop offset="1" stop-color="#FC8F59"/>
</linearGradient>
<linearGradient id="paint18_linear_1_83" x1="218.092" y1="395.887" x2="229.197" y2="391.795" gradientUnits="userSpaceOnUse">
<stop stop-color="#D02964"/>
<stop offset="1" stop-color="#FC8F59"/>
</linearGradient>
<linearGradient id="paint19_linear_1_83" x1="210.424" y1="350.272" x2="219.362" y2="346.67" gradientUnits="userSpaceOnUse">
<stop stop-color="#D02964"/>
<stop offset="1" stop-color="#FC8F59"/>
</linearGradient>
<linearGradient id="paint20_linear_1_83" x1="194.456" y1="369.108" x2="204.926" y2="364.368" gradientUnits="userSpaceOnUse">
<stop stop-color="#D02964"/>
<stop offset="1" stop-color="#FC8F59"/>
</linearGradient>
<linearGradient id="paint21_linear_1_83" x1="193.272" y1="326.753" x2="200.572" y2="322.202" gradientUnits="userSpaceOnUse">
<stop stop-color="#D02964"/>
<stop offset="1" stop-color="#FC8F59"/>
</linearGradient>
<linearGradient id="paint22_linear_1_83" x1="182.312" y1="321.962" x2="189.973" y2="318.025" gradientUnits="userSpaceOnUse">
<stop stop-color="#D02964"/>
<stop offset="1" stop-color="#FC8F59"/>
</linearGradient>
<linearGradient id="paint23_linear_1_83" x1="200.232" y1="308.398" x2="207.888" y2="304.458" gradientUnits="userSpaceOnUse">
<stop stop-color="#D02964"/>
<stop offset="1" stop-color="#FC8F59"/>
</linearGradient>
<linearGradient id="paint24_linear_1_83" x1="183.343" y1="352.861" x2="190.998" y2="348.92" gradientUnits="userSpaceOnUse">
<stop stop-color="#D02964"/>
<stop offset="1" stop-color="#FC8F59"/>
</linearGradient>
<linearGradient id="paint25_linear_1_83" x1="186.091" y1="393.754" x2="193.748" y2="389.821" gradientUnits="userSpaceOnUse">
<stop stop-color="#D02964"/>
<stop offset="1" stop-color="#FC8F59"/>
</linearGradient>
<linearGradient id="paint26_linear_1_83" x1="227.546" y1="374.629" x2="235.206" y2="370.694" gradientUnits="userSpaceOnUse">
<stop stop-color="#D02964"/>
<stop offset="1" stop-color="#FC8F59"/>
</linearGradient>
<linearGradient id="paint27_linear_1_83" x1="221.307" y1="334.462" x2="228.963" y2="330.524" gradientUnits="userSpaceOnUse">
<stop stop-color="#D02964"/>
<stop offset="1" stop-color="#FC8F59"/>
</linearGradient>
<linearGradient id="paint28_linear_1_83" x1="399.426" y1="310.999" x2="407.083" y2="307.058" gradientUnits="userSpaceOnUse">
<stop stop-color="#D02964"/>
<stop offset="1" stop-color="#FC8F59"/>
</linearGradient>
<linearGradient id="paint29_linear_1_83" x1="383.778" y1="361.005" x2="391.438" y2="357.068" gradientUnits="userSpaceOnUse">
<stop stop-color="#D02964"/>
<stop offset="1" stop-color="#FC8F59"/>
</linearGradient>
<linearGradient id="paint30_linear_1_83" x1="361.576" y1="301.511" x2="369.238" y2="297.573" gradientUnits="userSpaceOnUse">
<stop stop-color="#D02964"/>
<stop offset="1" stop-color="#FC8F59"/>
</linearGradient>
<linearGradient id="paint31_linear_1_83" x1="357.896" y1="336.684" x2="363.508" y2="335.923" gradientUnits="userSpaceOnUse">
<stop stop-color="#D02964"/>
<stop offset="1" stop-color="#FC8F59"/>
</linearGradient>
<linearGradient id="paint32_linear_1_83" x1="349.046" y1="380.332" x2="364.569" y2="365.109" gradientUnits="userSpaceOnUse">
<stop stop-color="#D02964"/>
<stop offset="1" stop-color="#FC8F59"/>
</linearGradient>
</defs>
</svg>
