<svg width="640" height="1103" viewBox="0 0 640 1103" fill="none" xmlns="http://www.w3.org/2000/svg">
<path d="M342.101 476.793L341.66 476.701C320.092 472.185 310.492 448.37 304.547 428.117C295.452 397.305 286.03 365.447 283.15 332.43C279.957 295.41 286.066 262.059 300.821 235.975L302.002 233.884L304.362 234.354C309.241 235.328 313.998 237.909 318.144 241.685C317.845 226.667 324.146 210.176 336.071 195.157C341.774 187.982 348.252 181.348 354.517 174.933C364.252 164.956 373.447 155.534 380.231 144.071C382.926 139.513 385.251 134.564 387.499 129.771C390.549 123.285 393.692 116.58 397.902 110.471C409.365 93.7173 427.143 83.328 444.331 73.2729C449.166 70.4498 453.987 67.6267 458.659 64.6756C477.113 53.0062 499.029 32.9813 498.667 3.86845L505.301 3.46311C508.203 30.1653 520.192 55.2676 531.783 79.5449C537.031 90.5458 542.464 101.916 547.036 113.38C577.18 188.9 572.053 276.644 533.305 348.089C492.722 422.891 419.627 472.199 342.528 476.772L342.101 476.793ZM305.379 241.493C292.188 266.069 286.798 297.244 289.785 331.861C292.608 364.203 301.923 395.74 310.933 426.233C316.323 444.565 324.779 466.062 342.606 470.101C417.259 465.5 488.064 417.564 527.474 344.917C565.283 275.179 570.297 189.547 540.871 115.84C536.384 104.583 531.001 93.312 525.795 82.4107C516.786 63.5449 507.555 44.1884 502.315 23.744C496.647 41.2658 483.072 57.1022 462.229 70.2862C457.493 73.28 452.601 76.1387 447.701 79.0116C431.147 88.6898 414.03 98.7022 403.392 114.233C399.488 119.9 396.594 126.066 393.529 132.594C391.211 137.522 388.821 142.62 385.963 147.456C378.766 159.602 368.867 169.756 359.282 179.57C353.138 185.87 346.773 192.384 341.291 199.289C330.275 213.148 320.597 234.439 326.471 252.615C327.509 254.372 328.54 256.775 329.294 259.179L323.207 261.774C321.97 259.513 320.939 257.116 320.142 254.656C316.636 248.391 311.182 243.463 305.379 241.493Z" fill="url(#paint0_linear_1_480)"/>
<path d="M266.226 658.354C265.479 658.354 264.718 658.105 264.1 657.586C262.692 656.412 262.499 654.315 263.673 652.907C300.373 608.896 365.461 581.732 437.774 580.26L443.875 580.139C503.211 578.958 570.453 577.621 626.389 556.288C628.117 555.627 630.03 556.487 630.677 558.208C631.332 559.922 630.478 561.849 628.757 562.503C571.733 584.263 503.879 585.607 444.003 586.795L437.909 586.916C367.488 588.352 304.263 614.62 268.772 657.173C268.124 657.948 267.179 658.354 266.226 658.354Z" fill="url(#paint1_linear_1_480)"/>
<path d="M483.456 652.494C456.235 652.494 429.725 643.89 404.096 635.563C378.596 627.285 354.503 619.463 329.913 619.463C324.885 619.463 319.936 619.804 315.193 620.48L309.803 621.241L311.588 616.093C332.046 557.049 393.287 514.652 455.879 516.068C487.019 516.85 516.238 527.218 544.512 537.237C573.291 547.442 600.356 557.042 627.463 556.053L635.307 555.769L630.066 561.6C590.386 605.753 550.343 645.881 496.861 651.769C492.501 652.252 487.993 652.494 483.456 652.494ZM329.92 612.814C355.57 612.814 381.284 621.17 406.158 629.241C431.296 637.404 457.294 645.845 483.463 645.845C487.751 645.845 492.018 645.618 496.135 645.163C545.081 639.78 582.94 603.648 620.096 562.731C594.382 561.963 569.045 552.989 542.301 543.502C514.525 533.653 485.803 523.47 455.723 522.709C397.874 521.074 340.907 559.474 319.73 613.255C323.072 612.964 326.478 612.814 329.92 612.814Z" fill="url(#paint2_linear_1_480)"/>
<path d="M558.052 833.195C556.814 833.195 555.627 832.498 555.058 831.303C533.483 786.524 494.742 749.959 448.782 730.987C402.83 712.028 349.575 710.649 302.706 727.196C277.575 736.064 248.121 755.499 247.815 781.084C247.794 782.919 246.109 784.462 244.445 784.363C242.61 784.341 241.138 782.834 241.166 780.999C241.515 752.021 272.036 730.972 300.487 720.924C348.893 703.844 403.847 705.259 451.321 724.843C498.781 744.434 538.774 782.187 561.046 828.423C561.842 830.073 561.152 832.064 559.495 832.86C559.026 833.081 558.535 833.195 558.052 833.195Z" fill="url(#paint3_linear_1_480)"/>
<path d="M567.118 845.781L561.13 841.017C536 821.006 503.964 809.984 470.926 809.984C459.022 809.984 447.296 811.449 436.053 814.336C431.552 815.495 427.107 816.86 422.663 818.233C414.606 820.722 406.272 823.289 397.667 824.526C381.717 826.795 367.196 823.452 357.824 815.147C348.522 806.933 344.803 795.15 341.205 783.765C339.299 777.749 337.337 771.527 334.578 766.052C325.639 748.302 305.977 736.37 285.646 736.37C283.207 736.37 280.768 736.548 278.4 736.896L271.097 737.977L275.129 731.79C298.866 695.452 343.978 668.516 387.385 664.775C431.58 660.942 479.523 679.716 512.611 713.735C543.552 745.55 562.688 789.739 566.492 838.158L567.118 845.781ZM470.933 803.328C502.848 803.328 533.888 813.184 559.175 831.218C554.204 787.278 536.135 747.435 507.868 718.364C476.138 685.753 430.272 667.705 387.982 671.403C348.793 674.78 308.167 697.92 284.679 729.728C307.74 729.166 330.346 742.834 340.53 763.051C343.53 769.01 345.578 775.488 347.555 781.76C351.033 792.768 354.318 803.164 362.233 810.162C370.083 817.124 380.551 818.581 387.946 818.581C390.805 818.581 393.756 818.368 396.722 817.941C404.814 816.782 412.537 814.4 420.7 811.876C425.244 810.482 429.788 809.074 434.396 807.893C446.179 804.871 458.474 803.328 470.933 803.328Z" fill="url(#paint4_linear_1_480)"/>
<path d="M282.951 611.086C281.451 611.086 280.093 610.055 279.723 608.54C258.084 518.45 213.774 414.5 154.93 315.826C153.991 314.247 154.503 312.206 156.082 311.268C157.653 310.322 159.701 310.841 160.64 312.42C194.909 369.884 256.797 484.58 286.187 606.983C286.613 608.768 285.511 610.56 283.726 610.987C283.463 611.051 283.207 611.086 282.951 611.086Z" fill="url(#paint5_linear_1_480)"/>
<path d="M268.836 559.751L268.8 556.494L265.522 557.426C259.42 538.069 241.003 525.305 225.628 516.352C222.841 514.731 220.018 513.138 217.195 511.538C202.062 503.004 186.425 494.18 175.346 480.284C154.937 454.727 155.214 419.228 157.077 387.968C158.955 356.423 160.875 323.961 144.476 298.624L131.797 279.019L149.447 294.3C158.265 301.938 165.938 308.942 173.134 315.499C187.826 328.91 200.526 340.487 216.868 351.822C240.924 368.512 266.695 389.675 275.477 420.117C281.884 442.318 277.874 465.536 273.991 487.986C270.158 510.151 266.19 533.077 271.915 555.62L268.836 556.494V559.751ZM157.831 310.592C166.884 334.841 165.22 362.908 163.712 388.217C161.913 418.396 161.593 452.423 180.53 476.139C190.798 489.024 205.874 497.522 220.444 505.749C223.303 507.364 226.155 508.964 228.964 510.606C240.391 517.262 253.412 525.938 262.556 537.87C261.589 520.576 264.548 503.502 267.435 486.848C271.36 464.142 275.065 442.688 269.077 421.959C260.871 393.515 236.16 373.305 213.063 357.284C196.352 345.685 183.509 333.973 168.633 320.398C165.17 317.241 161.6 313.977 157.831 310.592Z" fill="url(#paint6_linear_1_480)"/>
<path d="M244.857 758.571C243.427 758.571 242.098 757.632 241.671 756.188C214.009 662.876 156.345 578.724 79.2817 519.239C77.8239 518.116 77.5608 516.032 78.6772 514.574C79.8008 513.131 81.8915 512.86 83.3421 513.977C161.5 574.308 219.996 659.655 248.043 754.304C248.562 756.06 247.566 757.917 245.803 758.436C245.483 758.521 245.17 758.571 244.857 758.571Z" fill="url(#paint7_linear_1_480)"/>
<path d="M208.498 663.246L203.35 662.215C172.608 656.064 138.454 647.239 122.212 620.252C115.79 609.564 113.074 597.376 110.45 585.6C109.326 580.53 108.16 575.289 106.717 570.304C99.3139 544.661 83.3424 521.856 61.746 506.119L45.3335 494.144L64.7042 500.252C132.736 521.721 188.693 583.694 207.239 658.155L208.498 663.246ZM80.2348 513.159C95.6304 528.427 107.065 547.541 113.102 568.448C114.603 573.632 115.79 578.972 116.942 584.149C119.566 595.925 122.041 607.061 127.908 616.818C141.917 640.092 170.475 648.583 199.438 654.628C181.981 591.132 136.555 537.664 80.2348 513.159Z" fill="url(#paint8_linear_1_480)"/>
<path d="M251.811 880.889C247.644 875.591 243.563 870.208 239.573 864.725C227.349 853.234 208.811 844.722 182.905 838.685C178.987 837.774 175.04 836.907 171.072 836.039C146.595 830.663 121.28 825.109 101.781 808.846C79.175 790.016 69.4968 761.273 60.1386 733.476L57.5147 725.732C53.0631 712.69 42.4747 700.693 32.2276 689.095C19.5698 674.745 7.6018 661.198 6.35737 645.646L6.30029 644.978L6.51362 644.338C6.66295 643.876 6.71276 643.399 6.76254 642.994C7.15365 639.566 9.55735 639.296 10.2827 639.296C12.2951 639.296 13.07 640.484 14.9118 643.349L16.6612 646.045C26.5741 661.248 46.2791 669.341 76.935 670.805C80.0355 670.955 83.1573 671.061 86.2933 671.182C107.427 671.95 129.287 672.733 147.285 684.366C169.927 699.001 178.887 725.461 187.563 751.054C188.835 754.795 190.101 758.521 191.388 762.169C202.923 794.567 220.821 827.591 244.579 860.317C249.884 865.401 254.187 871.111 257.365 877.305L251.811 880.889ZM15.9218 655.886C20.2169 665.444 28.5368 674.873 37.2124 684.693C47.8862 696.782 58.9225 709.284 63.8007 723.584L66.432 731.357C75.4986 758.279 84.8782 786.112 106.034 803.748C124.281 818.973 148.793 824.341 172.501 829.554C176.491 830.429 180.473 831.303 184.412 832.221C202.041 836.324 216.491 841.593 228.032 848.178C209.394 820.21 195.001 792.1 185.138 764.409C183.829 760.725 182.563 756.978 181.283 753.202C172.971 728.69 164.38 703.339 143.687 689.963C127.232 679.325 106.297 678.564 86.0586 677.831C82.9013 677.717 79.7439 677.604 76.6222 677.454C47.9216 676.082 27.9609 669.006 15.9218 655.886Z" fill="url(#paint9_linear_1_480)"/>
<path d="M254.798 883.854C253.582 883.854 252.409 883.179 251.826 882.02C238.371 855.31 213.076 839.061 186.289 821.867C174.449 814.265 162.196 806.393 151.188 797.596C133.219 783.204 118.194 763.705 103.666 744.86C85.5393 721.337 68.4226 699.122 46.3142 686.364C27.2991 675.399 18.14 662.706 10.7729 652.501C9.4929 650.731 8.2555 649.024 7.01814 647.381C5.91591 645.916 6.2075 643.826 7.66528 642.724C9.13728 641.614 11.2137 641.913 12.3231 643.371C13.5959 645.049 14.8547 646.798 16.1631 648.612C23.5231 658.802 31.8645 670.35 49.6351 680.604C72.8887 694.016 91.214 717.803 108.935 740.8C123.228 759.332 137.998 778.51 155.342 792.398C166.08 800.988 178.183 808.754 189.881 816.27C216.234 833.195 243.491 850.695 257.756 879.033C258.581 880.668 257.92 882.667 256.277 883.492C255.808 883.733 255.296 883.854 254.798 883.854Z" fill="url(#paint10_linear_1_480)"/>
<path d="M343.446 1101.12C342.237 1101.12 341.07 1100.45 340.48 1099.3C287.246 994.624 239.581 891.52 241.166 780.992C242.788 667.463 296.704 563.527 348.843 463.012C363.186 435.356 378.02 406.77 391.438 378.553C453.974 247.125 489.06 124.459 498.695 3.56264C498.845 1.72798 500.487 0.405318 502.272 0.511985C504.107 0.661318 505.465 2.25421 505.323 4.08887C495.623 125.81 460.338 249.237 397.44 381.404C383.965 409.728 369.117 438.372 354.745 466.069C302.962 565.895 249.422 669.127 247.815 781.084C246.251 890.091 293.568 992.377 346.411 1096.28C347.243 1097.91 346.589 1099.92 344.953 1100.74C344.47 1101 343.95 1101.12 343.446 1101.12Z" fill="url(#paint11_linear_1_480)"/>
<defs>
<linearGradient id="paint0_linear_1_480" x1="436.328" y1="476.793" x2="571.243" y2="436.001" gradientUnits="userSpaceOnUse">
<stop stop-color="#0B9B8A"/>
<stop offset="1" stop-color="#08DEC5"/>
</linearGradient>
<linearGradient id="paint1_linear_1_480" x1="462.339" y1="658.354" x2="506.863" y2="577.683" gradientUnits="userSpaceOnUse">
<stop stop-color="#0B9B8A"/>
<stop offset="1" stop-color="#08DEC5"/>
</linearGradient>
<linearGradient id="paint2_linear_1_480" x1="486.21" y1="652.494" x2="555.248" y2="569.558" gradientUnits="userSpaceOnUse">
<stop stop-color="#0B9B8A"/>
<stop offset="1" stop-color="#08DEC5"/>
</linearGradient>
<linearGradient id="paint3_linear_1_480" x1="414.705" y1="833.195" x2="476.439" y2="752.993" gradientUnits="userSpaceOnUse">
<stop stop-color="#0B9B8A"/>
<stop offset="1" stop-color="#08DEC5"/>
</linearGradient>
<linearGradient id="paint4_linear_1_480" x1="431.526" y1="845.781" x2="523.12" y2="770.546" gradientUnits="userSpaceOnUse">
<stop stop-color="#0B9B8A"/>
<stop offset="1" stop-color="#08DEC5"/>
</linearGradient>
<linearGradient id="paint5_linear_1_480" x1="225.9" y1="611.086" x2="291.022" y2="596.689" gradientUnits="userSpaceOnUse">
<stop stop-color="#0B9B8A"/>
<stop offset="1" stop-color="#08DEC5"/>
</linearGradient>
<linearGradient id="paint6_linear_1_480" x1="211.491" y1="559.751" x2="282.732" y2="540.958" gradientUnits="userSpaceOnUse">
<stop stop-color="#0B9B8A"/>
<stop offset="1" stop-color="#08DEC5"/>
</linearGradient>
<linearGradient id="paint7_linear_1_480" x1="170.223" y1="758.571" x2="248.817" y2="731.106" gradientUnits="userSpaceOnUse">
<stop stop-color="#0B9B8A"/>
<stop offset="1" stop-color="#08DEC5"/>
</linearGradient>
<linearGradient id="paint8_linear_1_480" x1="133.761" y1="663.246" x2="202.158" y2="630.009" gradientUnits="userSpaceOnUse">
<stop stop-color="#0B9B8A"/>
<stop offset="1" stop-color="#08DEC5"/>
</linearGradient>
<linearGradient id="paint9_linear_1_480" x1="142.365" y1="880.889" x2="244.489" y2="827.44" gradientUnits="userSpaceOnUse">
<stop stop-color="#0B9B8A"/>
<stop offset="1" stop-color="#08DEC5"/>
</linearGradient>
<linearGradient id="paint10_linear_1_480" x1="142.792" y1="883.854" x2="245.115" y2="830.199" gradientUnits="userSpaceOnUse">
<stop stop-color="#0B9B8A"/>
<stop offset="1" stop-color="#08DEC5"/>
</linearGradient>
<linearGradient id="paint11_linear_1_480" x1="384.314" y1="1101.12" x2="519.248" y2="1084.81" gradientUnits="userSpaceOnUse">
<stop stop-color="#0B9B8A"/>
<stop offset="1" stop-color="#08DEC5"/>
</linearGradient>
</defs>
</svg>
