<svg width="568" height="912" viewBox="0 0 568 912" fill="none" xmlns="http://www.w3.org/2000/svg">
<g clip-path="url(#clip0_1_83)">
<path d="M568.099 910.899C441.428 895.731 321.564 845.861 221.467 766.691L225.328 761.807C324.522 840.274 443.31 889.689 568.844 904.715L568.099 910.899Z" fill="url(#paint0_linear_1_83)"/>
<path d="M230.008 773.42L222.692 769.982C132.336 727.504 55.2929 655.75 5.76649 567.925L0.29541 558.224L10.0015 563.689C99.8028 614.184 188.231 673.633 226.886 765.962L230.008 773.42ZM16.9256 574.765C64.4881 654.538 135.239 720.065 217.792 760.717C179.764 677.763 99.7477 622.06 16.9256 574.765Z" fill="url(#paint1_linear_1_83)"/>
<path d="M265.225 790.864L258.184 792.234C189.632 805.603 123.604 798.664 72.2643 772.676L63.2371 768.107L73.2728 766.815C143.233 757.786 214.2 753.952 259.402 786.655L265.225 790.864ZM84.6605 771.671C131.347 792.394 189.18 797.982 249.484 787.512C208.15 762.082 146.619 764.211 84.6605 771.671Z" fill="url(#paint2_linear_1_83)"/>
<path d="M461.152 887.855C351.576 783.344 226.586 615.438 253.372 409.014C269.401 285.475 333.404 205.663 334.05 204.875L338.876 208.802C338.244 209.586 275.229 288.249 259.496 410.128C233.216 613.838 356.982 779.907 465.441 883.35L461.152 887.855Z" fill="url(#paint3_linear_1_83)"/>
<path d="M318.402 826.354L315.092 825.399C294.556 819.467 276.898 804.606 259.522 778.619C236.327 744.081 221.06 703.949 215.345 662.548L214.128 653.72L220.575 659.873C255.286 692.97 284.274 731.255 306.737 773.659C314.946 789.133 322.109 805.822 319.016 822.962L318.402 826.354ZM222.94 670.856C229.391 708.063 243.739 743.943 264.692 775.146C280.204 798.34 295.756 812.158 313.363 818.309C314.6 804.183 308.329 789.942 301.239 776.568C280.535 737.501 254.216 701.975 222.94 670.856Z" fill="url(#paint4_linear_1_83)"/>
<path d="M388.906 202.217C370.776 207.572 351.825 211.476 332.583 213.822L327.843 214.4L329.231 209.824C339.727 175.199 368.493 145.587 408.138 128.575C440.799 114.581 479.422 109.285 523.179 112.856L529.396 113.359L525.247 118.026C490.566 157.006 443.423 186.116 388.906 202.217ZM336.717 207.009C353.945 204.668 370.88 201.05 387.143 196.247C438.32 181.133 482.834 154.351 516.291 118.599C476.168 116.105 440.728 121.381 410.587 134.3C374.989 149.576 347.723 176.511 336.717 207.009Z" fill="url(#paint5_linear_1_83)"/>
<path d="M330.949 218.042L328.033 205.17C319.956 169.546 311.599 132.712 316.495 95.511C321.236 59.3324 338.784 26.7473 352.674 5.77915L354.718 2.6888L357.411 5.24396C371.669 18.7701 378.89 40.317 377.221 64.3704C375.738 85.5866 367.861 106.296 360.922 124.565C351.121 150.318 341.054 176.788 334.091 205.228L330.949 218.042ZM355.753 12.4493C342.621 32.8916 327.018 63.1179 322.67 96.3215C318.482 128.164 324.387 160.145 331.3 191.329C338.036 167.212 346.659 144.533 355.049 122.492C362.214 103.609 369.584 84.229 371.003 63.9378C372.441 43.3105 366.908 24.7915 355.753 12.4493Z" fill="url(#paint6_linear_1_83)"/>
<path d="M357.485 769.482C288.076 689.088 286.371 581.4 297.164 505.228L303.329 506.097C292.716 581.001 294.318 686.795 362.194 765.422L357.485 769.482Z" fill="url(#paint7_linear_1_83)"/>
<path d="M301.063 508.986L299.151 507.247C290.38 499.287 288.701 485.207 294.287 466.516C297.587 455.524 301.865 446.246 307.38 438.14C313.396 429.184 321.311 421.044 328.963 413.179L330.143 411.988C336.967 405.055 344.015 397.881 352.612 392.335L355.397 390.536L357.013 393.417C360.712 399.995 361.417 408.518 359.24 420.246C353.456 451.682 331.421 485.908 303.121 507.416L301.063 508.986ZM352.979 399.617C346.294 404.429 340.578 410.24 334.575 416.34L333.685 417.25C325.962 425.185 318.253 433.117 312.538 441.618C307.375 449.205 303.368 457.926 300.256 468.293C297.122 478.758 294.99 492.516 301.559 500.748C327.633 480.052 347.752 448.302 353.123 419.109C354.661 410.808 354.626 404.504 352.979 399.617Z" fill="url(#paint8_linear_1_83)"/>
<path d="M303.762 653.245L301.863 647.625C292.665 620.452 295.736 581.641 309.879 546.331C316.719 529.152 333.211 498.417 363.328 491.932L366.905 491.177L367.084 494.827C369.368 541.806 350.379 590.629 307.301 648.484L303.762 653.245ZM361.007 498.939C335.786 506.444 321.776 533.285 315.66 548.635C303.051 580.127 299.519 614.332 306.016 639.732C344.425 586.88 361.998 541.897 361.007 498.939Z" fill="url(#paint9_linear_1_83)"/>
<path d="M469.783 891.558L465.373 886.187C444.7 861.047 430.241 834.565 422.383 807.46C413.107 775.435 414.19 744.186 425.429 719.47L427.579 714.74L430.732 718.873C453.93 749.21 480.351 789.77 478.689 834.495C478.266 845.859 476.05 857.099 473.909 867.973C472.811 873.531 471.715 879.095 470.845 884.69L469.783 891.558ZM429.043 726.951C420.382 749.501 420.107 777.231 428.362 805.729C435.43 830.089 448.029 853.981 465.867 876.846C466.48 873.476 467.139 870.12 467.799 866.764C469.898 856.127 472.067 845.133 472.464 834.254C473.981 793.555 450.751 755.93 429.043 726.951Z" fill="url(#paint10_linear_1_83)"/>
<path d="M300.477 675.472C243.76 578.734 225.362 488.255 219.92 429.395C214.012 365.531 221.666 323.899 221.74 323.483L227.856 324.641C227.555 326.262 198.514 489.251 305.841 672.321L300.477 675.472Z" fill="url(#paint11_linear_1_83)"/>
<path d="M224.115 332.834L221.98 330.17C202.872 306.381 198.192 276.195 209.129 247.388C219.212 220.927 241.276 199.828 268.144 190.952L271.733 189.765L272.209 193.517C278.789 245.219 261.728 296.409 226.566 330.452L224.115 332.834ZM266.478 198.159C243.013 207.091 223.916 226.078 214.946 249.604C205.225 275.199 208.812 301.95 224.718 323.531C256.42 291.325 271.501 246.016 266.478 198.159Z" fill="url(#paint12_linear_1_83)"/>
<path d="M273.555 624.368C273.24 623.8 241.158 567.688 180.248 528.132L183.635 522.903C245.885 563.334 278.65 620.735 278.975 621.313L273.555 624.368Z" fill="url(#paint13_linear_1_83)"/>
<path d="M166.065 540.069C160.579 541.689 154.596 542.311 148.753 541.866C137.493 540.963 125.597 536.433 113.388 528.392C84.4711 509.326 64.8991 478.614 59.6884 444.131L59.0395 439.841L63.3106 440.603C112.111 449.287 158.676 481.609 184.826 524.939L185.998 526.883L184.508 528.595C179.882 533.909 173.508 537.871 166.065 540.069ZM66.591 447.572C72.4673 478.528 90.5985 505.908 116.819 523.192C128.138 530.646 139.05 534.841 149.245 535.659C160.196 536.491 171.391 532.869 178.264 526.147C153.598 486.606 111.31 456.899 66.591 447.572Z" fill="url(#paint14_linear_1_83)"/>
<path d="M268.269 609.941C216.811 540.121 176.831 463.047 149.437 380.852L155.348 378.888C182.537 460.463 222.222 536.964 273.284 606.254L268.269 609.941Z" fill="url(#paint15_linear_1_83)"/>
<path d="M274.125 598.349L268.005 599.51C249.212 500.199 275.591 393.7 338.571 314.611L343.442 318.497C281.572 396.183 255.66 500.795 274.125 598.349Z" fill="url(#paint16_linear_1_83)"/>
<path d="M191.351 482.41C183.172 476.003 172.669 469.433 161.762 463.922L164.576 458.371C175.824 464.061 186.703 470.858 195.192 477.504L191.351 482.41Z" fill="url(#paint17_linear_1_83)"/>
<path d="M188.373 462.645L182.245 463.753C180.277 452.834 185.224 441.708 189.582 431.893C190.326 430.226 191.056 428.585 191.743 426.963L197.478 429.399C196.778 431.046 196.029 432.721 195.282 434.424C191.08 443.863 186.746 453.615 188.373 462.645Z" fill="url(#paint18_linear_1_83)"/>
<path d="M170.006 420.507L163.793 420.136C164.363 410.674 167.434 401.499 172.685 393.591L177.876 397.039C173.231 404.023 170.507 412.14 170.006 420.507Z" fill="url(#paint19_linear_1_83)"/>
<path d="M171.329 439.756C162.152 434.824 153.473 429.148 145.529 422.896L149.38 418C157.045 424.047 165.425 429.516 174.277 434.278L171.329 439.756Z" fill="url(#paint20_linear_1_83)"/>
<path d="M158.247 399.457C151.219 399.018 144.303 396.888 138.256 393.3L141.43 387.944C146.633 391.029 152.583 392.862 158.637 393.237L158.247 399.457Z" fill="url(#paint21_linear_1_83)"/>
<path d="M145.626 389.402C143.031 377.475 124.887 381.331 127.348 393.276C129.956 405.199 148.108 401.349 145.626 389.402Z" fill="url(#paint22_linear_1_83)"/>
<path d="M158.977 371.34C156.375 359.415 138.231 363.27 140.706 375.219C143.244 387.163 161.375 383.241 158.977 371.34Z" fill="url(#paint23_linear_1_83)"/>
<path d="M155.373 418.766C152.778 406.839 134.63 410.703 137.096 422.647C139.698 434.572 157.836 430.648 155.373 418.766Z" fill="url(#paint24_linear_1_83)"/>
<path d="M169.576 457.175C166.984 445.261 148.839 449.11 151.312 461.052C153.911 472.992 172.053 469.13 169.576 457.175Z" fill="url(#paint25_linear_1_83)"/>
<path d="M203.92 427.09C201.326 415.169 183.175 419.027 185.651 430.975C188.246 442.902 206.405 439.049 203.92 427.09Z" fill="url(#paint26_linear_1_83)"/>
<path d="M186.567 390.362C183.966 378.437 165.822 382.293 168.299 394.247C170.894 406.174 189.038 402.249 186.567 390.362Z" fill="url(#paint27_linear_1_83)"/>
<path d="M350.751 317.413C348.147 305.482 330.001 309.352 332.474 321.294C335.068 333.214 353.209 329.304 350.751 317.413Z" fill="url(#paint28_linear_1_83)"/>
<path d="M349.901 369.786C347.304 357.853 329.16 361.708 331.631 373.665C334.17 385.594 352.322 381.743 349.901 369.786Z" fill="url(#paint29_linear_1_83)"/>
<path d="M311.759 319.011C309.149 307.081 291.007 310.943 293.486 322.904C296.019 334.835 314.161 330.973 311.759 319.011Z" fill="url(#paint30_linear_1_83)"/>
<path d="M312.388 364.287L306.16 364.272C306.19 350.72 304.093 340.908 299.657 325.296L305.646 323.598C310.148 339.436 312.428 350.079 312.388 364.287Z" fill="url(#paint31_linear_1_83)"/>
<path d="M288.913 416.732L284.237 412.627C301.69 392.756 307.283 386.96 332.116 372.503L335.251 377.885C311.184 391.891 306.19 397.075 288.913 416.732Z" fill="url(#paint32_linear_1_83)"/>
</g>
<defs>
<linearGradient id="paint0_linear_1_83" x1="441.288" y1="948.351" x2="527.857" y2="851.79" gradientUnits="userSpaceOnUse">
<stop stop-color="#0B9B8A"/>
<stop offset="1" stop-color="#08DEC5"/>
</linearGradient>
<linearGradient id="paint1_linear_1_83" x1="160.006" y1="794.094" x2="226.473" y2="751.054" gradientUnits="userSpaceOnUse">
<stop stop-color="#0B9B8A"/>
<stop offset="1" stop-color="#08DEC5"/>
</linearGradient>
<linearGradient id="paint2_linear_1_83" x1="182.959" y1="815.16" x2="207.822" y2="758.005" gradientUnits="userSpaceOnUse">
<stop stop-color="#0B9B8A"/>
<stop offset="1" stop-color="#08DEC5"/>
</linearGradient>
<linearGradient id="paint3_linear_1_83" x1="455.63" y1="889.486" x2="538.619" y2="852.914" gradientUnits="userSpaceOnUse">
<stop stop-color="#0B9B8A"/>
<stop offset="1" stop-color="#08DEC5"/>
</linearGradient>
<linearGradient id="paint4_linear_1_83" x1="297.589" y1="832.5" x2="326.382" y2="818.702" gradientUnits="userSpaceOnUse">
<stop stop-color="#0B9B8A"/>
<stop offset="1" stop-color="#08DEC5"/>
</linearGradient>
<linearGradient id="paint5_linear_1_83" x1="444.777" y1="185.717" x2="459.288" y2="128.749" gradientUnits="userSpaceOnUse">
<stop stop-color="#0B9B8A"/>
<stop offset="1" stop-color="#08DEC5"/>
</linearGradient>
<linearGradient id="paint6_linear_1_83" x1="379.636" y1="203.662" x2="420.654" y2="180.229" gradientUnits="userSpaceOnUse">
<stop stop-color="#0B9B8A"/>
<stop offset="1" stop-color="#08DEC5"/>
</linearGradient>
<linearGradient id="paint7_linear_1_83" x1="359.468" y1="768.896" x2="381.109" y2="760.485" gradientUnits="userSpaceOnUse">
<stop stop-color="#0B9B8A"/>
<stop offset="1" stop-color="#08DEC5"/>
</linearGradient>
<linearGradient id="paint8_linear_1_83" x1="344.23" y1="496.238" x2="376.365" y2="467.669" gradientUnits="userSpaceOnUse">
<stop stop-color="#0B9B8A"/>
<stop offset="1" stop-color="#08DEC5"/>
</linearGradient>
<linearGradient id="paint9_linear_1_83" x1="358.968" y1="636.941" x2="399.728" y2="605.391" gradientUnits="userSpaceOnUse">
<stop stop-color="#0B9B8A"/>
<stop offset="1" stop-color="#08DEC5"/>
</linearGradient>
<linearGradient id="paint10_linear_1_83" x1="476.24" y1="889.651" x2="500.628" y2="878.424" gradientUnits="userSpaceOnUse">
<stop stop-color="#0B9B8A"/>
<stop offset="1" stop-color="#08DEC5"/>
</linearGradient>
<linearGradient id="paint11_linear_1_83" x1="307.932" y1="673.27" x2="331.171" y2="664.678" gradientUnits="userSpaceOnUse">
<stop stop-color="#0B9B8A"/>
<stop offset="1" stop-color="#08DEC5"/>
</linearGradient>
<linearGradient id="paint12_linear_1_83" x1="265.495" y1="320.613" x2="301.632" y2="292.997" gradientUnits="userSpaceOnUse">
<stop stop-color="#0B9B8A"/>
<stop offset="1" stop-color="#08DEC5"/>
</linearGradient>
<linearGradient id="paint13_linear_1_83" x1="249.37" y1="631.51" x2="278.236" y2="613.401" gradientUnits="userSpaceOnUse">
<stop stop-color="#0B9B8A"/>
<stop offset="1" stop-color="#08DEC5"/>
</linearGradient>
<linearGradient id="paint14_linear_1_83" x1="144.553" y1="546.422" x2="182.14" y2="517.112" gradientUnits="userSpaceOnUse">
<stop stop-color="#0B9B8A"/>
<stop offset="1" stop-color="#08DEC5"/>
</linearGradient>
<linearGradient id="paint15_linear_1_83" x1="249.752" y1="615.41" x2="275.861" y2="604.499" gradientUnits="userSpaceOnUse">
<stop stop-color="#0B9B8A"/>
<stop offset="1" stop-color="#08DEC5"/>
</linearGradient>
<linearGradient id="paint16_linear_1_83" x1="347.154" y1="576.781" x2="410.212" y2="535.473" gradientUnits="userSpaceOnUse">
<stop stop-color="#0B9B8A"/>
<stop offset="1" stop-color="#08DEC5"/>
</linearGradient>
<linearGradient id="paint17_linear_1_83" x1="183.822" y1="484.634" x2="193.781" y2="475.875" gradientUnits="userSpaceOnUse">
<stop stop-color="#0B9B8A"/>
<stop offset="1" stop-color="#08DEC5"/>
</linearGradient>
<linearGradient id="paint18_linear_1_83" x1="195.086" y1="460.662" x2="204.577" y2="453.593" gradientUnits="userSpaceOnUse">
<stop stop-color="#0B9B8A"/>
<stop offset="1" stop-color="#08DEC5"/>
</linearGradient>
<linearGradient id="paint19_linear_1_83" x1="174.812" y1="419.087" x2="182.364" y2="413.101" gradientUnits="userSpaceOnUse">
<stop stop-color="#0B9B8A"/>
<stop offset="1" stop-color="#08DEC5"/>
</linearGradient>
<linearGradient id="paint20_linear_1_83" x1="164.833" y1="441.675" x2="173.532" y2="434.163" gradientUnits="userSpaceOnUse">
<stop stop-color="#0B9B8A"/>
<stop offset="1" stop-color="#08DEC5"/>
</linearGradient>
<linearGradient id="paint21_linear_1_83" x1="151.701" y1="401.39" x2="157.413" y2="394.958" gradientUnits="userSpaceOnUse">
<stop stop-color="#0B9B8A"/>
<stop offset="1" stop-color="#08DEC5"/>
</linearGradient>
<linearGradient id="paint22_linear_1_83" x1="139.833" y1="399.9" x2="146.065" y2="393.954" gradientUnits="userSpaceOnUse">
<stop stop-color="#0B9B8A"/>
<stop offset="1" stop-color="#08DEC5"/>
</linearGradient>
<linearGradient id="paint23_linear_1_83" x1="153.177" y1="381.815" x2="159.404" y2="375.868" gradientUnits="userSpaceOnUse">
<stop stop-color="#0B9B8A"/>
<stop offset="1" stop-color="#08DEC5"/>
</linearGradient>
<linearGradient id="paint24_linear_1_83" x1="149.573" y1="429.241" x2="155.799" y2="423.293" gradientUnits="userSpaceOnUse">
<stop stop-color="#0B9B8A"/>
<stop offset="1" stop-color="#08DEC5"/>
</linearGradient>
<linearGradient id="paint25_linear_1_83" x1="163.791" y1="467.681" x2="170.021" y2="461.74" gradientUnits="userSpaceOnUse">
<stop stop-color="#0B9B8A"/>
<stop offset="1" stop-color="#08DEC5"/>
</linearGradient>
<linearGradient id="paint26_linear_1_83" x1="198.132" y1="437.597" x2="204.364" y2="431.654" gradientUnits="userSpaceOnUse">
<stop stop-color="#0B9B8A"/>
<stop offset="1" stop-color="#08DEC5"/>
</linearGradient>
<linearGradient id="paint27_linear_1_83" x1="180.771" y1="400.842" x2="186.998" y2="394.897" gradientUnits="userSpaceOnUse">
<stop stop-color="#0B9B8A"/>
<stop offset="1" stop-color="#08DEC5"/>
</linearGradient>
<linearGradient id="paint28_linear_1_83" x1="344.951" y1="327.889" x2="351.177" y2="321.941" gradientUnits="userSpaceOnUse">
<stop stop-color="#0B9B8A"/>
<stop offset="1" stop-color="#08DEC5"/>
</linearGradient>
<linearGradient id="paint29_linear_1_83" x1="344.107" y1="380.279" x2="350.339" y2="374.334" gradientUnits="userSpaceOnUse">
<stop stop-color="#0B9B8A"/>
<stop offset="1" stop-color="#08DEC5"/>
</linearGradient>
<linearGradient id="paint30_linear_1_83" x1="305.963" y1="329.511" x2="312.196" y2="323.563" gradientUnits="userSpaceOnUse">
<stop stop-color="#0B9B8A"/>
<stop offset="1" stop-color="#08DEC5"/>
</linearGradient>
<linearGradient id="paint31_linear_1_83" x1="312.396" y1="364.285" x2="317.562" y2="361.967" gradientUnits="userSpaceOnUse">
<stop stop-color="#0B9B8A"/>
<stop offset="1" stop-color="#08DEC5"/>
</linearGradient>
<linearGradient id="paint32_linear_1_83" x1="316.271" y1="408.652" x2="326.847" y2="389.656" gradientUnits="userSpaceOnUse">
<stop stop-color="#0B9B8A"/>
<stop offset="1" stop-color="#08DEC5"/>
</linearGradient>
<clipPath id="clip0_1_83">
<rect width="568" height="912" fill="white"/>
</clipPath>
</defs>
</svg>
