<svg width="640" height="529" viewBox="0 0 640 529" fill="none" xmlns="http://www.w3.org/2000/svg">
<path d="M120.873 444.504L119.651 444.102C89.5127 434.211 64.1406 412.373 50.0315 384.184L48.6254 381.314C46.2738 376.451 43.8398 371.423 40.0144 367.83C35.515 363.593 28.3442 362.279 24.3102 365.29C21.9393 367.064 21.4836 370.609 22.2642 373.193C22.5793 374.25 23.6022 376.727 26.2253 376.882L26.109 380.761C18.2932 380.722 11.9417 378.196 7.75259 373.445C3.74288 368.897 1.9101 362.395 2.7295 355.588C4.25192 342.992 18.1284 329.915 27.0835 324.199C45.8859 312.199 69.3915 311.195 91.8497 311.195L95.2485 311.2C105.745 311.219 116.616 311.825 124.048 318.778C127.709 322.192 130.046 326.754 132.31 331.156C135.229 336.844 137.983 342.216 143.219 344.475C146.575 345.92 151.263 345.716 156.407 345.164C158.473 344.941 160.533 344.718 162.565 344.664L163.375 344.655C165.522 344.655 167.699 344.853 169.823 345.241L170.754 345.411L171.195 346.25C173.101 349.886 174.347 353.387 175.025 356.945C175.646 360.213 175.772 363.52 175.898 366.725C176.048 370.667 176.194 374.39 177.188 377.964C180.65 390.439 192.441 396.781 204.936 403.496C214.88 408.839 225.159 414.366 231.578 423.379C232.499 424.921 233.353 426.352 234.245 427.801L237.527 433.144L230.899 430.182C230.196 429.867 229.503 429.552 228.795 429.261C215.263 423.646 200.199 420.674 185.217 420.674C171.617 420.674 158.41 423.006 145.944 427.617C136.078 431.278 127.476 436.931 121.736 443.535L120.873 444.504ZM29.8131 359.685C34.3222 359.685 39.1223 361.668 42.6617 364.999C47.0108 369.091 49.6048 374.444 52.1115 379.622L53.4933 382.453C66.9527 409.348 91.0206 430.264 119.656 440.019C125.794 433.353 134.589 427.685 144.577 423.981C157.479 419.215 171.142 416.795 185.202 416.795C199.738 416.795 214.361 419.501 227.675 424.635C221.804 416.984 212.291 411.874 203.084 406.924C190.434 400.121 177.343 393.086 173.44 379.016C172.325 375.001 172.165 370.87 172.015 366.88C171.893 363.68 171.777 360.659 171.21 357.687C170.657 354.778 169.668 351.903 168.184 348.912C166.589 348.669 164.975 348.548 163.37 348.548L162.657 348.558C160.732 348.606 158.778 348.819 156.829 349.033C154.536 349.285 152.17 349.537 149.838 349.537C146.647 349.537 144.058 349.062 141.687 348.039C135.166 345.232 131.961 338.977 128.858 332.931C126.749 328.819 124.567 324.572 121.401 321.619C114.991 315.622 105.367 315.103 95.2436 315.084L91.8545 315.079C69.9636 315.079 47.0981 316.034 29.1732 327.472C19.1223 333.886 7.79143 346.085 6.58901 356.053C5.90052 361.755 7.38891 367.161 10.6713 370.875C12.8144 373.309 15.709 375.03 19.2047 375.99C18.9526 375.472 18.7295 374.909 18.555 374.313C17.1732 369.721 18.589 364.732 21.9926 362.187C24.1599 360.543 26.8749 359.685 29.8131 359.685Z" fill="url(#paint0_linear_1_493)"/>
<path d="M441.12 362.633L443.724 352.131C443.845 351.656 443.966 351.19 444.068 350.705C445.765 342.87 446.662 334.638 447.535 326.681C449.091 312.465 450.701 297.77 456.868 284.524C459.981 277.857 464.218 271.627 468.31 265.6C475.302 255.307 481.915 245.581 483.345 233.954C484.17 227.239 483.122 220.272 482.114 213.527L481.634 210.288C480.461 202.08 479.758 193.372 482.579 185.319C485.765 176.145 493.745 169.644 501.983 169.503H501.988C507.03 169.503 512.048 172.276 514.987 176.567C515.268 176.975 515.52 177.387 515.753 177.804C518.109 163.787 512.373 150.027 500.223 142.322C494.269 138.541 487.166 136.538 479.67 136.538C470.463 136.538 461.702 139.559 455.001 145.042C452.024 147.486 449.314 150.448 446.691 153.319C445.77 154.327 444.848 155.336 443.913 156.325L443.908 156.335L443.913 156.339C443.68 156.587 443.447 156.829 443.21 157.067L441.261 159.137L440.916 157.173L439.278 155.535C439.661 155.152 440.044 154.759 440.422 154.366C440.194 153.096 439.961 151.835 439.704 150.57C436.781 136.659 431.699 123.171 424.591 110.473L423.981 109.382L424.718 108.378C433.227 96.7612 445.678 85.3576 461.731 74.4824C475.413 65.2218 491.816 55.7576 509.678 55.7576H510.221C528.039 55.9321 547.442 68.7854 547.927 87.6267L547.995 90.3079L545.435 89.5418C541.503 88.3733 537.387 90.0121 534.245 93.8909C531.084 97.8036 529.648 103.195 530.594 107.641C532.698 117.498 541.561 124.815 549.707 130.895C558.308 137.309 568.063 144.587 571.433 155.486C576.669 172.417 564.528 187.956 553.823 201.673C551.627 204.48 549.459 207.258 547.462 210.007C538.705 222.046 532.688 236.504 530.046 251.811L529.91 252.616L529.232 253.081C523.84 256.795 518.356 261.479 512.941 267.016C493.828 286.512 478.032 309.522 462.759 331.767C457.561 339.336 452.359 346.909 447.025 354.371L441.12 362.633ZM502.206 173.382C494.303 173.508 488.427 180.32 486.25 186.594C483.704 193.867 484.373 202.017 485.484 209.736L485.959 212.945C487.006 219.947 488.092 227.185 487.205 234.424C485.658 246.987 478.473 257.556 471.53 267.782C467.52 273.682 463.37 279.787 460.393 286.162C454.497 298.832 452.926 313.202 451.404 327.103C450.773 332.868 450.124 338.773 449.173 344.611C452.669 339.612 456.121 334.584 459.578 329.556C474.943 307.171 490.831 284.024 510.182 264.286C515.549 258.802 520.994 254.114 526.381 250.337C529.193 234.744 535.389 220.024 544.335 207.714C546.361 204.931 548.553 202.119 550.778 199.273C561.392 185.673 572.373 171.617 567.733 156.621C564.737 146.928 555.918 140.354 547.399 133.993C538.686 127.486 529.193 119.617 526.812 108.436C525.615 102.812 527.316 96.2957 531.244 91.4376C534.705 87.1709 539.263 85.0036 543.874 85.3091C541.872 70.2351 525.096 59.777 510.201 59.6315L509.697 59.6267C492.882 59.6267 477.125 68.7564 463.927 77.6873C448.708 88.0048 436.834 98.7588 428.611 109.673C435.593 122.39 440.611 135.869 443.525 149.77C443.598 150.119 443.665 150.473 443.738 150.822C443.777 150.783 443.816 150.739 443.85 150.701C446.565 147.733 449.367 144.659 452.567 142.041C459.952 135.99 469.59 132.659 479.695 132.659C487.927 132.659 495.758 134.865 502.327 139.045C518.72 149.44 524.635 169.692 516.708 188.301L513.115 186.836C514.085 184.325 513.615 181.387 511.811 178.759C509.556 175.486 505.789 173.382 502.206 173.382Z" fill="url(#paint1_linear_1_493)"/>
<path d="M358.633 255.442L358.24 252.073C358.041 250.385 357.828 248.708 357.59 247.03C352.47 211.738 337.804 180.868 316.281 160.107C294.798 139.375 266.405 128.175 244.068 120.737L242.371 120.17L242.802 118.434C254.041 72.8388 284.364 33.5224 323.918 13.2703C339.777 5.16848 353.086 2.40963 364.921 4.71266C378.613 7.35995 392.596 19.7916 391.302 35.2631L387.433 35.2533C386.987 29.4594 377.59 28.6788 374.23 32.2279C369.886 36.8388 371.026 44.7418 374.308 49.8376C377.45 54.7249 382.361 58.4291 387.118 62.0073L389.615 63.903C416.815 84.8873 436.456 116.184 443.501 149.77C443.84 151.394 444.131 153.033 444.412 154.667L444.582 155.627L443.913 156.33C441.285 159.113 438.085 162.284 434.23 164.669C429.241 167.758 423.564 169.343 418.07 170.88C411.884 172.611 406.041 174.245 401.227 177.838C391.675 184.95 389.207 196.936 386.584 209.634C384.752 218.512 382.861 227.69 378.381 235.476C373.862 243.292 367.224 248.921 361.329 253.396L358.633 255.442ZM247.006 117.629C269.459 125.202 297.479 136.572 318.977 157.319C341.11 178.667 356.189 210.337 361.43 246.482C361.518 247.064 361.595 247.641 361.673 248.218C366.507 244.339 371.51 239.617 375.03 233.537C379.195 226.289 381.028 217.421 382.798 208.849C385.45 196 388.189 182.715 398.919 174.72C404.306 170.705 410.773 168.892 417.033 167.142C422.507 165.615 427.67 164.165 432.199 161.367C435.355 159.413 438.109 156.795 440.427 154.376C440.204 153.105 439.971 151.835 439.709 150.57C432.849 117.876 413.731 87.4133 387.249 66.9867L384.786 65.1152C379.762 61.3285 374.57 57.4158 371.055 51.9467C366.875 45.4545 365.658 35.68 371.418 29.5758C374.929 25.8473 381.91 24.9939 386.778 27.8933C384.039 17.949 374.022 10.4291 364.189 8.52848C353.222 6.4 340.747 9.04722 325.692 16.7321C287.622 36.2181 258.313 73.8473 247.006 117.629Z" fill="url(#paint2_linear_1_493)"/>
<path d="M397.314 519.321C381.993 519.321 369.556 507.137 359.108 495.724C348.718 484.364 336.189 472.761 322.609 474.584L316.47 475.408L321.038 471.234C354.298 440.815 402.288 430.216 440.839 421.707C451.52 419.355 456.305 420.771 462.696 423.185C465.639 424.296 468.95 425.547 473.794 426.71L473.799 426.201L476.465 427.185C476.989 427.408 477.629 427.525 478.366 427.525C484.412 427.525 494.696 420.233 501.503 415.413C503.53 413.973 505.319 412.708 506.725 411.816C510.948 409.125 514.817 405.668 518.555 402.322C521.018 400.121 523.481 397.92 526.075 395.888C537.396 387.045 550.531 382.182 563.064 382.182L564.383 382.196C579.181 382.589 592.771 389.968 599.855 401.45C607.83 414.366 606.735 432.79 597.319 444.296C592 451.025 585.183 454.895 578.638 454.895C574.288 454.895 567.985 453.178 562.672 444.979L560.955 442.337L564.087 441.998C566.153 441.77 567.966 440.679 569.052 439.006C570.167 437.295 570.405 435.147 569.721 432.96C568.107 427.825 560.029 425.93 555.583 427.554C549.362 429.842 545.939 436.286 544.446 439.922C543.166 443.03 542.235 446.376 541.328 449.61C540.567 452.339 539.801 455.059 538.836 457.721C532.048 476.286 515.045 490.25 495.52 493.299C489.183 494.284 480.907 494.109 472.844 493.702C469.164 493.518 465.489 493.328 461.852 493.328C453.993 493.328 448.136 494.24 442.87 496.262C436.805 498.599 431.219 502.686 425.813 506.642C417.77 512.524 409.45 518.604 399.21 519.268C398.584 519.302 397.944 519.321 397.314 519.321ZM327.646 470.599C340.698 471.695 352.286 482.507 361.973 493.101C372.257 504.339 384.461 516.349 398.967 515.389C408.078 514.798 415.588 509.309 423.53 503.501C429.139 499.399 434.943 495.156 441.484 492.64C447.219 490.429 453.503 489.445 461.862 489.445C465.561 489.445 469.299 489.629 473.052 489.818C480.844 490.221 488.887 490.405 494.933 489.459C512.805 486.671 528.979 473.382 535.2 456.388C536.126 453.828 536.863 451.195 537.6 448.562C538.531 445.222 539.501 441.765 540.863 438.448C543.85 431.147 548.606 425.988 554.255 423.908C560.553 421.595 571.064 424.271 573.43 431.796C574.473 435.118 574.08 438.429 572.315 441.135C571.152 442.914 569.488 444.276 567.544 445.086C570.71 448.984 574.507 451.025 578.647 451.025C583.995 451.025 589.702 447.685 594.298 441.867C602.739 431.554 603.704 415.069 596.558 403.491C590.158 393.11 577.789 386.439 564.286 386.085L563.074 386.065C551.404 386.065 539.118 390.642 528.475 398.948C525.949 400.926 523.549 403.079 521.149 405.227C517.295 408.674 513.309 412.238 508.815 415.098C507.457 415.966 505.716 417.198 503.753 418.589C495.496 424.436 483.874 432.495 476.684 431.273L476.412 431.559L475.384 431.641C474.468 431.641 473.682 431.079 473.164 430.56C467.927 429.319 464.281 427.937 461.329 426.822C455.215 424.509 451.229 423.404 441.682 425.503C403.205 433.988 359.806 443.568 327.646 470.599Z" fill="url(#paint3_linear_1_493)"/>
<path d="M109.702 527.505L105.367 524.95C98.0218 520.621 93.4158 512.97 94.1673 506.352C94.9236 499.67 99.457 494.221 103.103 489.838C106.41 485.862 110.526 480.907 111.112 475.345C111.345 473.086 111.021 470.788 110.686 468.349C110.473 466.827 110.264 465.299 110.177 463.767C109.12 444.199 128.048 430.109 144.577 423.985C157.479 419.219 171.142 416.8 185.202 416.8C200.688 416.8 216.272 419.874 230.269 425.678C231.011 425.988 231.753 426.322 232.485 426.652L233.92 427.302L234.23 427.811C243.273 442.575 257.367 462.463 275.282 464.752L277.619 465.052L276.882 467.287C273.673 477.033 274.628 488.175 279.505 497.857L280.339 499.51L278.725 500.422C274.356 502.885 269.629 504.344 265.052 504.64C255.762 505.256 246.739 502.381 238.061 499.627C236.325 499.074 234.589 498.526 232.858 497.998C219.215 493.93 210.153 493.857 202.662 497.493C197.561 499.961 193.076 504.388 188.737 508.679C181.726 515.602 174.434 522.822 164.354 521.809C156.509 521.047 150.933 515.51 145.547 510.162C141.581 506.221 137.479 502.148 132.601 500.199C126.322 497.687 118.244 499.195 113.304 503.762C108.276 508.402 106.182 516.194 108.213 522.71L109.702 527.505ZM185.202 420.674C171.602 420.674 158.395 423.006 145.929 427.617C130.637 433.285 113.115 446.095 114.061 463.554C114.138 464.975 114.341 466.395 114.535 467.811C114.889 470.371 115.258 473.018 114.982 475.748C114.269 482.487 109.731 487.942 106.09 492.32C102.604 496.509 98.657 501.265 98.0315 506.788C97.5903 510.691 99.8109 515.287 103.583 518.802C103.176 512.194 105.75 505.435 110.667 500.902C116.674 495.345 126.385 493.542 134.032 496.577C139.651 498.822 144.034 503.176 148.276 507.389C153.411 512.49 158.255 517.299 164.722 517.93C173.023 518.735 179.302 512.524 186.007 505.901C190.57 501.392 195.292 496.732 200.965 493.988C205.047 492.01 209.77 491.006 215.011 491.006C220.485 491.006 226.506 492.044 233.973 494.269C235.728 494.798 237.483 495.36 239.238 495.918C247.583 498.57 256.193 501.29 264.8 500.756C268.252 500.528 271.816 499.539 275.215 497.872C270.928 488.412 269.978 477.818 272.548 468.233C254.521 464.645 241.071 446.322 231.233 430.347L230.885 430.187C230.182 429.872 229.488 429.556 228.781 429.265C215.248 423.641 200.184 420.674 185.202 420.674Z" fill="url(#paint4_linear_1_493)"/>
<path d="M379.966 441.804L387.695 435.423C389.498 433.93 391.287 432.407 393.052 430.856C394.55 429.542 396.024 428.204 397.484 426.841L400.209 424.233C400.737 423.728 401.275 423.219 401.799 422.701C402.545 421.959 403.282 421.198 404.019 420.441L405.983 418.434C407.04 417.319 408.082 416.179 409.115 415.035L410.007 414.065C411.147 412.79 412.262 411.486 413.362 410.182L413.726 409.76C415.055 408.165 416.218 406.73 417.348 405.285C418.788 403.452 419.947 401.901 421.081 400.339C432.17 385.042 439.714 369.076 443.559 352.795L443.864 352.112C449.193 344.664 454.376 337.105 459.564 329.556C474.929 307.171 490.817 284.024 510.167 264.286C525.581 248.553 540.912 239.884 557.042 237.789C560.427 237.348 564.019 237.125 567.709 237.125C582.051 237.125 597.304 240.407 609.571 246.128C618.822 250.439 627.156 257.45 631.869 264.887C635.525 270.647 637.615 279.248 636.945 285.799C635.947 295.636 630.361 302.938 622.366 304.853L619.093 305.634L620.053 302.41C620.95 299.418 620.242 296.16 618.065 293.241C615.355 289.6 610.875 287.253 606.652 287.253C597.227 287.52 590.24 295.234 587.03 301.755C583.68 308.543 582.352 316.349 581.072 323.893L580.407 327.762C578.851 336.538 576.402 346.516 570.065 353.973C563.389 361.857 553.702 365.639 544.33 369.299C537.139 372.107 529.697 375.016 523.825 379.743C517.057 385.188 512.621 392.674 507.922 400.596C506.061 403.733 504.204 406.861 502.196 409.857C497.265 417.212 491.181 424.019 484.087 430.095L483.428 430.468C480.785 431.336 478.589 431.593 476.674 431.253L476.398 431.544L475.37 431.627C474.453 431.627 473.668 431.064 473.149 430.545C467.913 429.304 464.267 427.922 461.314 426.807C455.2 424.495 451.215 423.389 441.668 425.489C423.729 429.445 406.24 433.445 389.503 438.764L379.966 441.804ZM447.253 354.051C443.263 370.71 435.535 387.016 424.286 402.531C423.069 404.213 421.881 405.794 420.659 407.36C419.253 409.144 418.07 410.618 416.863 412.063L416.335 412.679C415.205 414.012 414.07 415.35 412.902 416.65L412 417.624C410.943 418.793 409.886 419.956 408.8 421.105L406.807 423.142C406.056 423.913 405.304 424.684 404.538 425.45C403.99 425.988 403.438 426.521 402.88 427.045L400.136 429.673C399.156 430.594 398.167 431.501 397.164 432.398C411.331 428.31 425.939 424.999 440.849 421.707C451.53 419.355 456.315 420.771 462.705 423.185C465.648 424.296 468.96 425.547 473.804 426.71L473.808 426.206L476.475 427.181C477.707 427.714 479.549 427.617 481.876 426.899C488.572 421.12 494.322 414.667 498.982 407.704C500.95 404.761 502.773 401.697 504.592 398.623C509.265 390.754 514.095 382.613 521.406 376.727C527.738 371.622 535.457 368.601 542.928 365.687C552.257 362.041 561.067 358.599 567.113 351.467C572.834 344.727 575.05 335.767 576.587 327.084L577.251 323.248C578.575 315.428 579.947 307.336 583.549 300.039C588.407 290.177 597.309 283.632 606.23 283.375C606.24 283.375 606.25 283.375 606.25 283.375C612.16 283.375 617.716 286.269 621.188 290.924C623.316 293.784 624.383 296.926 624.325 300.044C629.915 297.261 632.528 290.928 633.091 285.411C633.668 279.733 631.782 271.976 628.601 266.967C624.267 260.131 616.548 253.658 607.942 249.648C596.17 244.155 581.513 241.008 567.719 241.008C564.189 241.008 560.771 241.217 557.552 241.634C542.318 243.617 527.728 251.913 512.95 267.001C493.838 286.497 478.041 309.508 462.768 331.753C457.639 339.224 452.514 346.691 447.253 354.051Z" fill="url(#paint5_linear_1_493)"/>
<path d="M166.827 340.247L161.518 338.541C144.33 332.524 128.538 322.958 115.845 310.87C88.2715 284.601 73.3576 244.722 76.9212 206.802L77.1443 204.524C77.6825 199.219 78.24 193.736 76.4946 188.97C74.5891 183.714 68.6643 180.015 64.3976 181.852L57.2461 184.945L62.114 178.861C64.6497 175.69 68.354 174.012 72.834 174.012C78.657 174.012 85.4837 176.989 90.2303 181.6C92.5043 183.801 94.5746 186.264 96.5818 188.64C100.795 193.639 104.776 198.361 110.332 200.747C112.931 201.857 115.622 202.4 118.55 202.4C125.784 202.4 133.193 199.093 141.042 195.602C148.068 192.47 155.331 189.236 162.832 188.32C173.75 187.011 184.815 190.424 196.262 198.269L196.887 198.696L197.057 199.433C197.702 202.201 198.255 205.013 198.807 207.821C199.379 210.744 199.952 213.653 200.63 216.509C202.056 222.565 207.913 242.482 223.467 244.504L224.984 244.698L225.144 246.221C226.289 256.815 228.509 266.07 231.733 273.731L232.771 276.184L230.114 276.417C227.985 276.606 225.857 276.882 223.709 277.202C205.862 279.942 191.084 279.889 178.807 277.101C172.727 275.719 167.249 273.629 162.521 270.904C153.712 265.828 148.582 259.903 147.282 253.299C145.745 245.527 148.727 237.813 152.15 230.948C113.561 266.158 136.247 300.315 144.073 312.102C144.776 313.154 145.513 314.192 146.279 315.205L146.788 315.884L146.759 316.044L146.846 316.15C147.564 317.076 147.99 317.639 148.436 318.182C148.824 318.667 149.217 319.137 149.615 319.602L150.681 320.873C151.2 321.479 151.729 322.08 152.257 322.672L152.873 323.375C154.051 324.698 155.224 325.983 156.398 327.268C158.865 329.973 161.329 332.664 163.617 335.428L166.827 340.247ZM70.5794 178.095C74.7346 179.505 78.5115 183.147 80.1455 187.641C82.1915 193.241 81.5903 199.176 81.0134 204.916L80.7903 207.166C77.3382 243.937 91.8012 282.599 118.526 308.063C129.013 318.051 141.692 326.264 155.539 332.082C154.875 331.355 154.211 330.618 153.542 329.891C152.359 328.592 151.176 327.297 150.007 325.988L149.377 325.275C148.819 324.64 148.272 324.019 147.738 323.394L146.652 322.104C146.245 321.629 145.828 321.13 145.425 320.625C144.96 320.063 144.509 319.476 144.063 318.89L142.681 317.072L142.705 316.902C142.061 316.029 141.44 315.152 140.844 314.255C116.524 277.624 122.759 246.691 159.903 219.675C159.913 219.67 159.927 219.67 159.922 219.661L162.206 222.798C159.889 224.485 157.77 228.548 156.97 230.075C153.348 236.989 149.61 244.989 151.098 252.553C152.436 259.341 159.108 264.451 164.47 267.544C168.868 270.075 173.983 272.024 179.685 273.314C191.457 275.99 205.794 276.024 223.142 273.367C224.499 273.159 225.857 272.975 227.205 272.819C224.495 265.687 222.57 257.396 221.464 248.107C204.592 244.776 198.39 223.879 196.868 217.401C196.179 214.502 195.598 211.539 195.011 208.572C194.516 206.056 194.022 203.539 193.459 201.047C183.021 194.051 173.038 190.992 163.312 192.175C156.388 193.018 149.396 196.131 142.633 199.152C134.759 202.662 126.618 206.289 118.56 206.289C115.093 206.289 111.903 205.644 108.81 204.325C102.41 201.576 97.9394 196.276 93.6194 191.152C91.68 188.844 89.6679 186.458 87.5346 184.388C82.8073 179.801 75.6461 177.154 70.5794 178.095Z" fill="url(#paint6_linear_1_493)"/>
<path d="M316.761 324.494L313.828 320.465C294.419 293.765 265.644 277.222 236.839 276.223C234.618 276.141 232.369 276.233 230.114 276.422L228.747 276.538L227.952 274.768C224.718 267.088 222.463 257.968 221.241 247.622C204.369 244.296 198.162 223.404 196.64 216.926C195.956 214.036 195.379 211.088 194.798 208.131C192.776 197.862 190.686 187.239 184.116 179.486C177.687 171.879 167.932 168.044 158.347 165.033L154.07 163.719C145.518 161.115 136.679 158.419 129.173 153.164C120.693 147.253 113.236 136.179 115.704 124.771C117.44 116.751 125.6 110.225 133.896 110.225C137.144 110.225 140.131 111.263 142.546 113.227L144.63 114.928L136.257 120.247C136.388 121.265 136.834 122.182 137.586 122.982C140.228 125.774 146.744 126.531 150.579 124.422C154.061 122.502 156.805 119.525 159.709 116.378C161.959 113.934 164.281 111.413 167.03 109.358C172.742 105.086 179.675 103.011 188.233 103.011C197.435 103.011 206.924 105.406 215.811 107.995C250.817 118.23 290.492 129.838 318.977 157.319C341.11 178.667 356.189 210.337 361.43 246.482C361.678 248.199 361.891 249.91 362.095 251.627L362.221 252.727L361.338 253.396C359.016 255.161 356.63 256.878 354.24 258.594C348.742 262.536 343.055 266.618 338.303 271.35C326.739 282.851 319.68 299.069 317.329 319.549L316.761 324.494ZM235.2 272.31C235.796 272.31 236.388 272.32 236.979 272.339C265.566 273.333 294.085 288.965 314.104 314.395C317.062 295.219 324.276 279.825 335.569 268.591C340.538 263.641 346.356 259.471 351.981 255.438C354.041 253.954 356.097 252.485 358.109 250.972C357.949 249.658 357.779 248.344 357.59 247.03C352.47 211.738 337.804 180.868 316.281 160.107C288.485 133.29 249.295 121.828 214.72 111.719C206.114 109.207 196.946 106.885 188.233 106.885C180.543 106.885 174.371 108.708 169.358 112.456C166.899 114.298 164.8 116.587 162.57 119.001C159.583 122.245 156.495 125.59 152.461 127.816C147.074 130.783 138.623 129.716 134.778 125.644C133.057 123.821 132.223 121.551 132.359 119.079L132.417 118.085L137.624 114.778C136.485 114.327 135.239 114.099 133.901 114.099C127.442 114.099 120.853 119.36 119.501 125.585C117.411 135.248 123.971 144.795 131.399 149.973C138.4 154.88 146.943 157.479 155.2 159.995L159.515 161.319C169.173 164.354 180.005 168.587 187.084 176.97C194.303 185.498 196.495 196.621 198.609 207.374C199.181 210.284 199.753 213.183 200.422 216.024C201.847 222.08 207.709 241.998 223.258 244.01L224.776 244.208L224.936 245.731C226.036 255.937 228.136 264.921 231.19 272.441C232.533 272.359 233.867 272.31 235.2 272.31Z" fill="url(#paint7_linear_1_493)"/>
<path d="M326.579 467.835C323.345 467.835 320.208 467.515 317.236 466.88L315.079 466.415L315.811 464.335C316.848 461.401 317.755 458.206 318.589 454.575L318.832 453.537L319.83 453.183C324.461 451.525 328.053 450.541 331.244 450.056C340.461 403.656 338.356 367.278 324.805 338.865C321.75 332.47 318.061 326.274 313.828 320.456L313.382 319.845L313.474 319.093C315.932 297.721 323.365 280.722 335.568 268.582C340.543 263.636 346.361 259.467 351.985 255.433C361.11 248.887 369.731 242.706 375.03 233.522C379.195 226.274 381.028 217.406 382.798 208.834C385.45 195.985 388.189 182.701 398.919 174.706C404.305 170.691 410.773 168.878 417.033 167.127C422.507 165.6 427.67 164.15 432.199 161.353C436.635 158.613 440.145 154.759 443.864 150.672C446.565 147.709 449.358 144.635 452.548 142.027C459.932 135.976 469.571 132.645 479.675 132.645C487.908 132.645 495.738 134.851 502.308 139.03C518.701 149.426 524.616 169.678 516.688 188.286L513.096 186.822C514.065 184.31 513.595 181.367 511.792 178.744C509.556 175.476 505.794 173.372 502.206 173.372C494.303 173.498 488.427 180.31 486.25 186.584C483.704 193.857 484.373 202.007 485.484 209.726L485.959 212.936C487.006 219.937 488.092 227.176 487.205 234.415C485.658 246.977 478.473 257.547 471.53 267.772C467.52 273.673 463.37 279.777 460.393 286.153C454.497 298.822 452.926 313.193 451.404 327.093C450.521 335.152 449.61 343.486 447.874 351.52C439.879 388.524 415.045 416.669 395.632 433.76C393.833 435.341 392.015 436.887 390.177 438.405L389.527 438.759C365.392 446.429 347.055 455.486 331.821 467.253L331.365 467.607L330.793 467.656C329.372 467.777 327.971 467.835 326.579 467.835ZM320.199 463.476C323.292 463.956 326.575 464.078 329.901 463.835C345.338 452.015 363.821 442.899 387.981 435.186C389.692 433.765 391.379 432.325 393.052 430.856C412.034 414.153 436.296 386.686 444.068 350.71C445.765 342.875 446.662 334.642 447.535 326.686C449.091 312.47 450.701 297.775 456.868 284.529C459.981 277.862 464.218 271.632 468.31 265.605C475.302 255.312 481.915 245.586 483.345 233.959C484.17 227.244 483.122 220.276 482.114 213.532L481.634 210.293C480.456 202.085 479.758 193.377 482.579 185.324C485.765 176.15 493.745 169.649 501.983 169.508H501.988C507.03 169.508 512.048 172.281 514.992 176.572C515.268 176.979 515.52 177.392 515.753 177.809C518.109 163.792 512.373 150.032 500.223 142.327C494.269 138.546 487.166 136.543 479.67 136.543C470.463 136.543 461.702 139.564 455.001 145.047C452.034 147.481 449.333 150.439 446.73 153.304C442.992 157.406 439.137 161.649 434.235 164.679C429.246 167.767 423.568 169.353 418.075 170.89C411.888 172.621 406.046 174.255 401.232 177.847C391.68 184.96 389.212 196.945 386.589 209.644C384.756 218.521 382.865 227.699 378.385 235.486C372.664 245.396 363.302 252.116 354.24 258.613C348.737 262.555 343.05 266.638 338.298 271.365C326.88 282.73 319.85 298.691 317.411 318.817C321.59 324.65 325.256 330.836 328.301 337.227C342.356 366.696 344.475 404.31 334.764 452.213L334.482 453.605L333.072 453.76C330.104 454.075 326.604 454.958 322.124 456.509C321.532 458.996 320.897 461.309 320.199 463.476Z" fill="url(#paint8_linear_1_493)"/>
<path d="M279.539 468.892C277.949 468.892 276.359 468.795 274.788 468.596C254.807 466.041 240.082 445.372 228.31 425.493C222.511 417.358 212.635 412.049 203.079 406.914C190.429 400.112 177.338 393.076 173.435 379.006C172.32 374.992 172.16 370.861 172.01 366.87C171.888 363.67 171.772 360.65 171.205 357.678C169.115 346.672 161.459 338.303 153.353 329.435C148.97 324.645 144.436 319.685 140.834 314.255C116.514 277.624 122.749 246.691 159.893 219.675C159.903 219.67 159.918 219.67 159.913 219.661L162.196 222.798C159.879 224.485 157.76 228.548 156.96 230.075C153.338 236.989 149.6 244.989 151.088 252.553C152.427 259.341 159.098 264.451 164.461 267.544C168.858 270.075 173.973 272.024 179.675 273.314C191.447 275.99 205.784 276.024 223.132 273.367C228.674 272.519 232.911 272.199 236.984 272.335C273.711 273.619 310.41 299.685 328.315 337.198C342.371 366.672 344.49 404.286 334.778 452.189L334.497 453.581L333.086 453.736C326.972 454.39 319.758 457.256 312.116 460.296C301.993 464.33 290.526 468.892 279.539 468.892ZM152.15 230.953C113.561 266.162 136.247 300.32 144.073 312.107C147.51 317.29 151.942 322.133 156.223 326.817C164.339 335.695 172.727 344.873 175.021 356.955C175.641 360.218 175.767 363.525 175.893 366.73C176.044 370.672 176.189 374.395 177.183 377.969C180.645 390.444 192.436 396.786 204.931 403.501C214.875 408.844 225.154 414.371 231.573 423.384C242.953 442.594 256.965 462.41 275.292 464.747C276.698 464.926 278.119 465.013 279.544 465.013H279.549C289.789 465.013 300.417 460.79 310.686 456.703C318.022 453.779 324.979 451.016 331.253 450.066C340.47 403.665 338.366 367.287 324.814 338.875C307.525 302.633 272.175 277.455 236.848 276.223C233.008 276.087 229.013 276.402 223.724 277.207C205.872 279.947 191.093 279.893 178.817 277.105C172.737 275.724 167.258 273.634 162.531 270.909C153.721 265.833 148.591 259.908 147.292 253.304C145.745 245.537 148.727 237.818 152.15 230.953Z" fill="url(#paint9_linear_1_493)"/>
<path d="M327.966 483.263C330.623 473.91 333.377 464.369 338.802 456.301C344.223 448.233 352.863 441.697 362.599 441.353C372.325 440.994 382.443 448.441 381.018 458.332C382.08 452.689 374.962 448.107 369.508 449.857C364.058 451.607 360.824 457.411 359.844 463.074C358.87 468.727 359.612 474.521 359.249 480.247C358.221 496.446 347.627 511.729 332.727 518.162C317.823 524.592 299.316 521.775 287.161 511.016C274.996 500.262 269.958 482.08 275.04 466.672C277.745 458.444 283.045 451.108 284.616 442.589C286.177 434.065 281.852 423.302 273.207 422.57C284.955 418.584 297.949 427.442 302.957 438.788C307.966 450.138 307.098 463.103 306.113 475.476C308.509 457.319 315.791 439.821 327.369 425.939C334.72 445.236 334.865 467.176 327.966 483.263Z" fill="url(#paint10_linear_1_493)"/>
<path d="M315.854 523.515C304.732 523.515 293.799 519.491 285.867 512.475C273.11 501.202 267.898 482.114 273.188 466.07C274.347 462.55 275.956 459.195 277.522 455.952C279.733 451.341 281.828 446.987 282.701 442.245C283.588 437.411 282.39 431.966 279.646 428.378C278.41 426.769 276.267 424.786 273.037 424.509L263.782 423.724L272.577 420.742C274.676 420.029 276.882 419.666 279.127 419.666C289.265 419.666 300.034 427.379 304.727 438.007C307.234 443.69 308.315 449.818 308.669 455.893C312.548 444.354 318.41 433.658 325.876 424.703L328 422.158L329.183 425.256C333.261 435.961 335.224 447.729 334.919 458.943C335.641 457.634 336.402 456.407 337.197 455.219C343.617 445.658 353.091 439.753 362.536 439.413L363.282 439.399C369.144 439.399 374.938 441.862 378.783 445.983C381.867 449.29 383.341 453.251 383.064 457.45C383.054 457.857 383.006 458.269 382.933 458.691L379.103 458.056C379.142 457.789 379.171 457.527 379.19 457.266C379.214 455.733 378.371 454.536 377.658 453.804C375.757 451.855 372.519 450.933 370.109 451.699C365.173 453.285 362.56 458.783 361.765 463.399C361.202 466.662 361.241 469.969 361.28 473.464C361.309 475.767 361.338 478.07 361.188 480.364C360.107 497.348 348.984 513.251 333.498 519.937C328.082 522.279 321.983 523.515 315.854 523.515ZM280.436 423.588C281.261 424.286 282.027 425.096 282.734 426.017C286.109 430.434 287.598 437.076 286.521 442.938C285.556 448.194 283.248 452.989 281.018 457.624C279.51 460.756 277.959 463.99 276.877 467.273C272.058 481.896 276.814 499.283 288.441 509.561C295.675 515.956 305.668 519.627 315.854 519.627C321.454 519.627 327.025 518.507 331.951 516.378C346.128 510.255 356.315 495.685 357.304 480.116C357.44 477.92 357.416 475.714 357.391 473.513C357.348 469.988 357.299 466.347 357.925 462.735C358.914 456.999 362.322 450.119 368.907 448.005C370.914 447.36 373.227 447.389 375.355 448.044C372.267 445.086 367.719 443.278 363.273 443.278L362.667 443.292C354.463 443.583 346.143 448.853 340.407 457.382C337.731 461.358 335.515 466.002 333.425 472.005C332.621 476.126 331.355 480.257 329.736 484.024L326.085 482.725C327.142 479.016 328.334 474.817 329.76 470.72C332.276 458.051 331.171 443.268 326.701 429.862C316.848 442.706 310.25 458.856 308.024 475.724L304.165 475.312C305.081 463.816 306.114 450.778 301.168 439.564C297.28 430.749 288.718 424.223 280.436 423.588Z" fill="url(#paint11_linear_1_493)"/>
<defs>
<linearGradient id="paint0_linear_1_493" x1="129.891" y1="444.504" x2="197.989" y2="384.05" gradientUnits="userSpaceOnUse">
<stop stop-color="#0B9B8A"/>
<stop offset="1" stop-color="#08DEC5"/>
</linearGradient>
<linearGradient id="paint1_linear_1_493" x1="504.574" y1="362.633" x2="577.301" y2="344.884" gradientUnits="userSpaceOnUse">
<stop stop-color="#0B9B8A"/>
<stop offset="1" stop-color="#08DEC5"/>
</linearGradient>
<linearGradient id="paint2_linear_1_493" x1="351.96" y1="255.442" x2="441.982" y2="218.992" gradientUnits="userSpaceOnUse">
<stop stop-color="#0B9B8A"/>
<stop offset="1" stop-color="#08DEC5"/>
</linearGradient>
<linearGradient id="paint3_linear_1_493" x1="472.937" y1="519.321" x2="543.368" y2="444.647" gradientUnits="userSpaceOnUse">
<stop stop-color="#0B9B8A"/>
<stop offset="1" stop-color="#08DEC5"/>
</linearGradient>
<linearGradient id="paint4_linear_1_493" x1="195.027" y1="527.505" x2="251.206" y2="479.904" gradientUnits="userSpaceOnUse">
<stop stop-color="#0B9B8A"/>
<stop offset="1" stop-color="#08DEC5"/>
</linearGradient>
<linearGradient id="paint5_linear_1_493" x1="519.304" y1="441.804" x2="614.451" y2="381.612" gradientUnits="userSpaceOnUse">
<stop stop-color="#0B9B8A"/>
<stop offset="1" stop-color="#08DEC5"/>
</linearGradient>
<linearGradient id="paint6_linear_1_493" x1="152.372" y1="340.247" x2="223.276" y2="302.543" gradientUnits="userSpaceOnUse">
<stop stop-color="#0B9B8A"/>
<stop offset="1" stop-color="#08DEC5"/>
</linearGradient>
<linearGradient id="paint7_linear_1_493" x1="249.085" y1="324.494" x2="346.382" y2="269.849" gradientUnits="userSpaceOnUse">
<stop stop-color="#0B9B8A"/>
<stop offset="1" stop-color="#08DEC5"/>
</linearGradient>
<linearGradient id="paint8_linear_1_493" x1="425.455" y1="467.835" x2="523.178" y2="437.472" gradientUnits="userSpaceOnUse">
<stop stop-color="#0B9B8A"/>
<stop offset="1" stop-color="#08DEC5"/>
</linearGradient>
<linearGradient id="paint9_linear_1_493" x1="242.539" y1="468.892" x2="336.083" y2="428.363" gradientUnits="userSpaceOnUse">
<stop stop-color="#0B9B8A"/>
<stop offset="1" stop-color="#08DEC5"/>
</linearGradient>
<linearGradient id="paint10_linear_1_493" x1="331.648" y1="521.572" x2="374.847" y2="498.053" gradientUnits="userSpaceOnUse">
<stop stop-color="#0B9B8A"/>
<stop offset="1" stop-color="#08DEC5"/>
</linearGradient>
<linearGradient id="paint11_linear_1_493" x1="328.445" y1="523.515" x2="374.764" y2="496.714" gradientUnits="userSpaceOnUse">
<stop stop-color="#0B9B8A"/>
<stop offset="1" stop-color="#08DEC5"/>
</linearGradient>
</defs>
</svg>
