<svg width="362" height="675" viewBox="0 0 362 675" fill="none" xmlns="http://www.w3.org/2000/svg">
<g clip-path="url(#clip0_1_163)">
<path d="M302.661 383.02L302.659 383.028C298.737 406.66 290.195 429.717 277.961 449.704C261.946 475.866 239.621 497.653 218.028 518.726C206.14 530.328 193.849 542.326 182.761 554.9C158.014 583.003 138.382 614.817 124.403 649.477C124.2 649.98 123.634 650.232 123.125 650.044L121.446 649.421C120.938 649.233 120.673 648.672 120.847 648.158C126.05 632.805 129.399 620.069 131.377 608.15C135.384 584.004 133.432 563.127 125.404 544.318C124.271 541.665 123.036 539.039 121.802 536.41C118.776 529.967 115.648 523.309 114.024 516.188C111.809 506.567 112.434 496.623 113.036 487.008C113.554 478.705 114.092 470.113 112.749 461.935C110.157 446.137 100.78 432.275 91.7131 418.865C88.7253 414.44 85.6328 409.864 82.8099 405.276C61.1945 370.046 52.7309 326.103 59.5997 284.717C60.8467 277.204 62.6026 269.751 64.8243 262.57C75.2657 228.706 95.8065 198.952 115.673 170.184C121.389 161.905 127.304 153.337 132.863 144.833C154.165 112.253 166.629 83.7205 170.959 57.6051C173.167 44.303 173.294 31.345 171.335 19.0868L170.815 15.8425C170.653 14.8292 171.939 14.258 172.582 15.0581L174.64 17.6201C200.158 49.4192 231.862 84.2523 259.833 114.979C268.803 124.893 277.998 135.06 283.514 147.389C292.599 167.65 290.436 190.212 288.343 212.032C287.123 224.784 285.859 237.967 286.838 250.586C287.895 264.231 291.666 277.763 295.305 290.844C297.484 298.654 299.732 306.731 301.403 314.813C306.052 337.103 306.473 360.05 302.661 383.02ZM133.954 614.829C133.721 615.997 135.537 616.657 136.098 615.607C148.189 592.982 162.864 571.832 179.952 552.427C191.132 539.738 203.475 527.693 215.411 516.046C236.84 495.136 258.995 473.512 274.767 447.746C286.754 428.169 295.126 405.578 298.971 382.411L298.972 382.403C302.708 359.895 302.291 337.412 297.745 315.577C296.094 307.615 293.861 299.597 291.7 291.847C288.013 278.592 284.193 264.886 283.104 250.879C282.102 237.936 283.381 224.585 284.619 211.678C286.758 189.359 288.78 168.281 280.097 148.918C274.825 137.128 265.831 127.185 257.136 117.572C231.307 89.1987 202.373 57.4066 177.985 27.6762C177.357 26.9099 176.094 27.4268 176.164 28.4154C178.633 63.2396 165.83 101.248 135.991 146.876C130.405 155.421 124.48 164.003 118.747 172.304C99.0445 200.844 78.666 230.353 68.3926 263.669C66.2254 270.693 64.5047 277.981 63.2852 285.329C56.5612 325.843 64.84 368.846 85.9973 403.32C88.7741 407.843 91.8442 412.383 94.8136 416.773C104.105 430.515 113.72 444.725 116.438 461.331C117.853 469.93 117.301 478.731 116.767 487.246C116.181 496.592 115.574 506.259 117.668 515.361C119.203 522.091 122.244 528.564 125.183 534.822C126.439 537.492 127.691 540.161 128.841 542.857C137.156 562.334 139.186 583.893 135.058 608.765C134.73 610.761 134.362 612.78 133.954 614.829Z" fill="url(#paint0_linear_1_163)"/>
<path d="M203.699 414.648C193.162 478.135 174.512 540.187 147.663 602.569C147.445 603.076 146.856 603.311 146.349 603.092L144.749 602.402C144.242 602.183 144.01 601.591 144.229 601.083C222.08 420.234 230.666 241.989 172.09 23.4593C171.947 22.9256 172.262 22.3696 172.796 22.2265L174.479 21.7752C175.012 21.6323 175.562 21.953 175.705 22.4862C214.324 166.565 223.852 293.221 203.699 414.648Z" fill="url(#paint1_linear_1_163)"/>
<path d="M270.215 134.35C270.677 134.654 270.805 135.274 270.5 135.734C253.413 161.564 233.379 185.649 210.933 207.332C210.536 207.716 209.902 207.703 209.52 207.305L208.312 206.05C207.93 205.652 207.942 205.019 208.339 204.635C230.587 183.142 250.439 159.274 267.371 133.675C267.676 133.214 268.296 133.086 268.757 133.39L270.215 134.35Z" fill="url(#paint2_linear_1_163)"/>
<path d="M285.499 182.426C285.959 182.731 286.085 183.352 285.778 183.812C265.709 213.857 241.552 240.894 213.95 264.2C213.529 264.556 212.898 264.501 212.543 264.079L211.423 262.749C211.067 262.326 211.122 261.694 211.544 261.338C238.879 238.263 262.793 211.498 282.663 181.745C282.97 181.286 283.59 181.16 284.05 181.465L285.499 182.426Z" fill="url(#paint3_linear_1_163)"/>
<path d="M286.722 162.063C287.209 162.324 287.393 162.931 287.13 163.417C270.908 193.395 250.114 220.511 225.287 244.044C224.887 244.423 224.254 244.405 223.875 244.003L222.682 242.738C222.303 242.336 222.322 241.702 222.723 241.322C247.256 218.068 267.807 191.268 283.835 161.651C284.098 161.166 284.703 160.983 285.19 161.243L286.722 162.063Z" fill="url(#paint4_linear_1_163)"/>
<path d="M283.813 237.516C284.285 237.804 284.434 238.42 284.144 238.89C268.436 264.32 247.03 286.454 222.146 303.005C221.687 303.311 221.067 303.183 220.763 302.723L219.807 301.273C219.503 300.812 219.631 300.191 220.091 299.885C244.52 283.632 265.53 261.902 280.952 236.943C281.242 236.474 281.857 236.325 282.328 236.612L283.813 237.516Z" fill="url(#paint5_linear_1_163)"/>
<path d="M281.608 267.317C281.982 267.723 281.957 268.355 281.551 268.729C261.63 287.07 240.108 306.281 215.223 322.749C214.762 323.054 214.141 322.926 213.838 322.464L212.88 321.006C212.577 320.544 212.707 319.924 213.167 319.619C237.822 303.305 259.21 284.21 279.015 265.977C279.421 265.602 280.053 265.629 280.427 266.035L281.608 267.317Z" fill="url(#paint6_linear_1_163)"/>
<path d="M290.42 297.128C290.861 297.461 290.948 298.089 290.612 298.528C274.028 320.189 252.468 338.126 228.148 350.487C227.656 350.737 227.055 350.537 226.808 350.044L226.026 348.487C225.778 347.993 225.978 347.392 226.47 347.142C250.278 335.037 271.39 317.479 287.626 296.271C287.962 295.833 288.588 295.745 289.029 296.078L290.42 297.128Z" fill="url(#paint7_linear_1_163)"/>
<path d="M297.835 336.632C298.18 337.063 298.11 337.692 297.68 338.037C260.376 367.978 225.373 401.325 202.282 424.338C201.891 424.728 201.265 424.72 200.875 424.329L199.645 423.097C199.255 422.706 199.249 422.08 199.64 421.69C222.794 398.614 257.908 365.164 295.342 335.116C295.772 334.77 296.402 334.84 296.747 335.272L297.835 336.632Z" fill="url(#paint8_linear_1_163)"/>
<path d="M300.796 379.247C301.064 379.73 300.888 380.339 300.405 380.607C268.247 398.433 238.027 419.788 210.572 444.082C201.459 452.129 194.167 463.532 191.346 474.064C191.203 474.597 190.664 474.926 190.127 474.797L188.438 474.388C187.901 474.258 187.57 473.717 187.712 473.183C190.702 461.948 198.437 449.809 208.093 441.283C235.753 416.807 266.195 395.29 298.594 377.329C299.077 377.062 299.685 377.237 299.952 377.72L300.796 379.247Z" fill="url(#paint9_linear_1_163)"/>
<path d="M298.103 399.777C298.597 400.026 298.794 400.629 298.544 401.122L295.493 407.135C295.464 407.192 295.429 407.247 295.389 407.298C277.733 429.867 257.832 450.072 236.036 467.657C233.732 469.517 231.405 471.349 229.079 473.177C222.68 478.209 216.062 483.416 210.151 489.133C194.789 503.981 182.169 524.413 170.563 544.17C170.283 544.646 169.671 544.805 169.195 544.526L167.695 543.647C167.218 543.368 167.057 542.755 167.337 542.279C179.074 522.296 191.855 501.618 207.547 486.447C213.595 480.594 220.291 475.331 226.764 470.238C229.077 468.42 231.395 466.599 233.681 464.749C255.256 447.339 274.96 427.337 292.245 405.295C292.286 405.242 292.322 405.186 292.352 405.126L295.204 399.438C295.452 398.943 296.054 398.744 296.548 398.993L298.103 399.777Z" fill="url(#paint10_linear_1_163)"/>
<path d="M233.085 97.6855C233.618 97.8278 233.935 98.3756 233.791 98.9083C227.844 120.848 218.444 141.543 205.831 160.459C205.525 160.919 204.902 161.04 204.444 160.731L203.003 159.758C202.545 159.449 202.425 158.828 202.731 158.369C215.108 139.803 224.336 119.484 230.176 97.9452C230.32 97.4118 230.868 97.0939 231.402 97.2364L233.085 97.6855Z" fill="url(#paint11_linear_1_163)"/>
<path d="M248.185 122.667C245.403 139.427 237.156 154.929 224.84 166.552C224.438 166.931 223.804 166.904 223.43 166.497L222.255 165.216C221.882 164.809 221.91 164.177 222.311 163.798C234.06 152.708 242.034 137.915 244.53 121.902C244.615 121.353 245.125 120.972 245.674 121.053L247.382 121.307C247.931 121.388 248.31 121.901 248.221 122.449C248.209 122.522 248.197 122.595 248.185 122.667Z" fill="url(#paint12_linear_1_163)"/>
<path d="M198.734 329.819C198.727 330.371 198.269 330.811 197.717 330.799L195.976 330.761C195.423 330.749 194.986 330.29 194.992 329.737C195.352 297.97 179.364 268.277 165.235 242.049C157.673 228.05 150.127 214.029 142.576 200.012L127.168 171.405C126.906 170.919 127.087 170.313 127.573 170.051L129.1 169.227C129.586 168.964 130.193 169.146 130.455 169.632L145.871 198.239C153.418 212.256 160.964 226.277 168.526 240.276C182.882 266.914 199.121 297.071 198.734 329.819Z" fill="url(#paint13_linear_1_163)"/>
<path d="M191.499 393.361C191.564 393.909 191.161 394.398 190.612 394.451L188.885 394.621C188.335 394.674 187.846 394.272 187.78 393.724C186.264 381.14 179.134 368.255 166.016 354.365C162.654 350.806 159.091 347.303 155.64 343.912C147.781 336.194 139.659 328.212 133.3 318.909C124.062 305.358 118.819 289.384 113.744 273.933C107.481 254.857 101.553 236.812 88.7769 222.694C88.4064 222.285 88.4274 221.651 88.8315 221.275L90.102 220.091C90.5062 219.715 91.1403 219.738 91.511 220.147C104.856 234.885 111.179 254.137 117.294 272.77C122.289 287.973 127.453 303.691 136.391 316.803C142.54 325.803 150.534 333.654 158.263 341.25C161.739 344.661 165.33 348.193 168.74 351.804C182.452 366.323 189.908 379.931 191.499 393.361Z" fill="url(#paint14_linear_1_163)"/>
<path d="M181.782 405.607C182.021 406.105 181.811 406.702 181.313 406.941L179.741 407.696C179.243 407.935 178.645 407.725 178.406 407.226L170.028 389.712C169.79 389.215 170 388.618 170.497 388.379L172.065 387.627C172.563 387.388 173.161 387.598 173.399 388.096L181.782 405.607Z" fill="url(#paint15_linear_1_163)"/>
<path d="M234.619 357.649C234.944 358.097 234.843 358.723 234.397 359.05C226.177 365.077 218.471 372.229 216.935 373.762C216.917 373.78 216.919 373.806 216.936 373.825V373.825C216.953 373.845 216.951 373.876 216.931 373.894C216.404 374.352 215.757 374.899 214.842 374.685C214.666 374.644 214.518 374.53 214.406 374.389L213.565 373.333C213.444 373.181 213.362 372.993 213.415 372.806C213.51 372.468 213.786 372.02 214.218 371.481C214.241 371.453 214.243 371.412 214.223 371.382V371.382C214.2 371.346 214.206 371.299 214.239 371.271L214.476 371.067C214.489 371.056 214.508 371.057 214.52 371.07V371.07C214.533 371.084 214.553 371.084 214.566 371.07C218.21 366.859 229.168 358.37 232.219 356.037C232.66 355.699 233.279 355.799 233.605 356.248L234.619 357.649Z" fill="url(#paint16_linear_1_163)"/>
<path d="M224.434 449.792C224.682 450.286 224.483 450.887 223.994 451.145C210.829 458.093 200.344 471.343 195.812 477.071C195.29 477.731 194.843 478.293 194.48 478.737C194.13 479.165 193.5 479.197 193.092 478.825L191.806 477.654C191.398 477.282 191.363 476.645 191.711 476.216C192.032 475.818 192.421 475.325 192.876 474.751C197.568 468.827 208.417 455.107 222.313 447.798C222.801 447.541 223.402 447.741 223.65 448.234L224.434 449.792Z" fill="url(#paint17_linear_1_163)"/>
<path d="M199.82 521.322C200.255 521.662 200.332 522.29 199.991 522.724C189.227 536.444 177.422 549.465 164.881 561.469C164.482 561.851 163.848 561.835 163.468 561.435L162.27 560.174C161.89 559.774 161.906 559.142 162.305 558.76C174.71 546.884 186.389 533.996 197.043 520.42C197.385 519.985 198.014 519.908 198.449 520.249L199.82 521.322Z" fill="url(#paint18_linear_1_163)"/>
<path d="M269.384 449.308C269.839 449.622 269.953 450.245 269.637 450.699C261.119 462.9 251.495 474.428 241.005 484.998C240.615 485.39 239.982 485.39 239.591 484.998L238.362 483.766C237.972 483.375 237.973 482.743 238.361 482.351C248.688 471.946 258.174 460.59 266.561 448.572C266.877 448.12 267.499 448.006 267.953 448.319L269.384 449.308Z" fill="url(#paint19_linear_1_163)"/>
<path d="M280.94 215.083C281.418 215.358 281.583 215.969 281.308 216.448L263.243 247.848C262.967 248.327 262.355 248.492 261.876 248.216L260.371 247.347C259.893 247.072 259.729 246.461 260.004 245.983L278.069 214.582C278.344 214.103 278.956 213.938 279.435 214.214L280.94 215.083Z" fill="url(#paint20_linear_1_163)"/>
<path d="M216.359 79.3248C216.903 79.421 217.266 79.9395 217.17 80.4835C215.187 91.6265 212.607 105.143 204.436 115.102C204.086 115.529 203.453 115.574 203.035 115.212L201.721 114.074C201.304 113.712 201.26 113.081 201.609 112.654C209.126 103.45 211.499 91.0095 213.483 79.8308C213.58 79.287 214.098 78.9246 214.642 79.0209L216.359 79.3248Z" fill="url(#paint21_linear_1_163)"/>
<path d="M190.801 131.576C191.064 132.061 190.886 132.668 190.401 132.933L188.875 133.766C188.39 134.03 187.782 133.851 187.519 133.366C181.324 121.925 175.684 110.151 170.742 98.3355C170.529 97.8257 170.772 97.2403 171.282 97.0289L172.887 96.3642C173.397 96.1529 173.982 96.3948 174.195 96.904C179.085 108.595 184.668 120.25 190.801 131.576Z" fill="url(#paint22_linear_1_163)"/>
<path d="M194.017 165.038C194.402 165.433 194.4 166.065 194.008 166.454L192.773 167.679C192.381 168.068 191.747 168.065 191.361 167.67C178.655 154.654 168.291 138.91 161.325 122.032C161.114 121.521 161.362 120.939 161.873 120.731L163.484 120.079C163.996 119.871 164.579 120.118 164.79 120.629C171.576 137.051 181.655 152.368 194.017 165.038Z" fill="url(#paint23_linear_1_163)"/>
<path d="M205.497 224.004C205.794 224.469 205.659 225.086 205.195 225.384L203.732 226.324C203.267 226.623 202.648 226.488 202.349 226.022L199.585 221.71C190.292 207.246 179.762 190.848 171.286 176.008C163.792 162.88 156.855 149.898 154.189 135.554C154.088 135.011 154.454 134.493 154.999 134.4L156.713 134.105C157.257 134.012 157.774 134.378 157.875 134.921C160.447 148.679 167.219 161.333 174.534 174.151C182.967 188.907 193.467 205.263 202.735 219.687L205.497 224.004Z" fill="url(#paint24_linear_1_163)"/>
<path d="M203.851 242.062C204.056 242.575 203.802 243.156 203.288 243.357L201.668 243.992C201.153 244.193 200.573 243.939 200.368 243.426C193.896 227.288 184.23 213.156 174.872 199.472C164.924 184.933 154.646 169.902 148.092 152.361C147.899 151.844 148.166 151.269 148.685 151.08L150.318 150.486C150.837 150.297 151.411 150.566 151.604 151.083C157.997 168.185 168.144 183.013 177.959 197.365C187.437 211.217 197.233 225.536 203.851 242.062Z" fill="url(#paint25_linear_1_163)"/>
<path d="M203.137 276.057C203.241 276.599 202.88 277.12 202.336 277.219L200.622 277.529C200.078 277.627 199.558 277.264 199.454 276.722C195.122 254.184 182.438 235.263 169.026 215.248C159.212 200.592 149.063 185.455 142.645 168.87C142.446 168.355 142.707 167.778 143.223 167.583L144.852 166.968C145.369 166.773 145.945 167.034 146.145 167.548C152.42 183.735 162.437 198.693 172.137 213.165C185.174 232.623 198.654 252.738 203.137 276.057Z" fill="url(#paint26_linear_1_163)"/>
<path d="M131.19 340.566C131.631 340.898 131.721 341.525 131.389 341.967L130.342 343.361C130.01 343.802 129.384 343.892 128.943 343.56C124.316 340.081 119.246 336.115 116.015 330.731C113.285 326.17 112.066 320.985 110.886 315.972L110.644 314.938C106.138 296.157 99.5566 277.956 91.0751 260.818C90.8302 260.323 91.0303 259.723 91.5242 259.476L93.0782 258.699C93.5722 258.452 94.173 258.652 94.418 259.147C103.025 276.533 109.706 295.01 114.279 314.074L114.524 315.116C115.636 319.85 116.785 324.748 119.221 328.81C122.096 333.587 126.664 337.162 131.19 340.566Z" fill="url(#paint27_linear_1_163)"/>
<path d="M180.013 426.809C180.279 427.293 180.096 427.9 179.61 428.162L178.077 428.987C177.59 429.248 176.984 429.066 176.718 428.582C169.787 415.985 160.211 404.622 148.975 395.676C145.918 393.255 142.628 390.916 139.449 388.649C130.373 382.18 120.993 375.498 115.051 365.786C110.101 357.694 108.093 348.388 106.157 339.39C105.523 336.442 104.884 333.498 104.154 330.591C99.9836 314.099 92.2246 298.361 81.6796 285.018C81.3371 284.584 81.4053 283.955 81.8358 283.609L83.1912 282.52C83.6218 282.174 84.2516 282.242 84.594 282.676C95.4667 296.442 103.477 312.668 107.777 329.676C108.525 332.622 109.167 335.616 109.81 338.605C111.768 347.697 113.623 356.288 118.241 363.838C123.781 372.895 132.849 379.355 141.617 385.603C144.836 387.897 148.165 390.266 151.302 392.745C162.93 402.012 172.841 413.775 180.013 426.809Z" fill="url(#paint28_linear_1_163)"/>
<path d="M132.265 443.523C132.791 443.69 133.132 444.22 133.013 444.759L132.634 446.459C132.514 446.998 131.978 447.341 131.448 447.186C126.241 445.662 122.575 441.574 119.029 437.611C117.913 436.367 116.801 435.128 115.65 433.976C113.329 431.669 110.745 429.691 108.012 427.596C105.029 425.312 101.939 422.947 99.2521 420.129C92.9052 413.495 89.2633 404.821 86.1052 397.015C85.8978 396.502 86.1465 395.919 86.6597 395.713L88.2751 395.064C88.7869 394.858 89.3681 395.105 89.575 395.617C92.6041 403.103 96.0923 411.42 101.96 417.545C104.45 420.156 107.284 422.329 110.288 424.628C112.998 426.7 115.796 428.847 118.284 431.324C119.492 432.522 120.652 433.813 121.811 435.112C125.085 438.764 128.193 442.231 132.265 443.523Z" fill="url(#paint29_linear_1_163)"/>
<path d="M163.102 484.326C163.442 484.761 163.374 485.389 162.944 485.735L161.588 486.825C161.157 487.171 160.527 487.102 160.187 486.667C153.78 478.48 148.843 468.959 145.843 459.014C145.683 458.485 145.99 457.93 146.521 457.778L148.192 457.297C148.723 457.144 149.276 457.451 149.436 457.98C152.295 467.456 157.003 476.526 163.102 484.326Z" fill="url(#paint30_linear_1_163)"/>
<path d="M157.505 500.426C157.864 500.847 157.815 501.478 157.395 501.837L156.07 502.972C155.65 503.331 155.019 503.282 154.661 502.862C142.323 488.41 130.53 473.13 119.59 457.414C119.275 456.961 119.388 456.338 119.841 456.023L121.269 455.031C121.723 454.715 122.347 454.828 122.662 455.281C133.533 470.896 145.248 486.076 157.505 500.426Z" fill="url(#paint31_linear_1_163)"/>
<path d="M277.481 331.876C277.866 332.273 277.856 332.906 277.459 333.291C254.595 355.44 232.842 378.96 212.781 403.228C212.429 403.653 211.799 403.714 211.373 403.362L210.03 402.254C209.604 401.903 209.544 401.273 209.895 400.848C230.048 376.473 251.895 352.85 274.857 330.603C275.254 330.219 275.886 330.229 276.27 330.626L277.481 331.876Z" fill="url(#paint32_linear_1_163)"/>
<path d="M258.235 306.585C258.75 306.788 259.003 307.369 258.799 307.883C255.844 315.315 251.757 325.036 243.706 330.438C241.21 332.116 238.464 333.294 235.809 334.435C234.661 334.925 233.521 335.417 232.404 335.945C223.614 340.168 216.285 347.216 211.686 355.851C211.426 356.338 210.826 356.537 210.333 356.288L208.777 355.503C208.284 355.254 208.085 354.652 208.344 354.165C213.312 344.8 221.252 337.153 230.791 332.572C231.961 332.016 233.144 331.511 234.331 331.002C236.946 329.879 239.413 328.821 241.622 327.338C248.252 322.888 251.808 315.296 255.317 306.511C255.521 305.999 256.101 305.747 256.614 305.948L258.235 306.585Z" fill="url(#paint33_linear_1_163)"/>
<path d="M143.829 595.421C142.932 600.823 141.936 605.221 141.355 607.607C141.224 608.143 140.682 608.465 140.147 608.331L138.458 607.907C137.922 607.773 137.596 607.233 137.727 606.696C141.47 591.409 144.116 569.894 139.569 558.055C138.857 556.189 137.996 554.416 137.079 552.537C136.166 550.662 135.226 548.73 134.457 546.717C132.681 542.051 131.838 536.989 131.025 532.09C129.697 524.132 128.447 516.6 123.492 511.269C123.116 510.865 123.103 510.233 123.487 509.836L124.696 508.584C125.08 508.187 125.716 508.175 126.096 508.577C131.927 514.749 133.346 523.246 134.713 531.469C135.503 536.186 136.311 541.064 137.951 545.379C138.664 547.241 139.525 549.014 140.442 550.893C141.355 552.768 142.296 554.7 143.064 556.713C147.219 567.544 145.758 583.796 143.829 595.421Z" fill="url(#paint34_linear_1_163)"/>
<path d="M185.346 437.495C172.589 514.365 155.364 571.434 133.739 628.284C133.542 628.8 132.964 629.059 132.449 628.863L130.824 628.245C130.308 628.048 130.049 627.469 130.246 626.953C169.721 523.185 194.48 418.591 204.131 193.244C204.154 192.692 204.622 192.247 205.174 192.271L206.912 192.347C207.463 192.37 207.891 192.843 207.867 193.395C203.478 295.942 195.956 373.569 185.346 437.495Z" fill="url(#paint35_linear_1_163)"/>
</g>
<defs>
<linearGradient id="paint0_linear_1_163" x1="311.23" y1="331.386" x2="173.463" y2="178.435" gradientUnits="userSpaceOnUse">
<stop stop-color="#D02964"/>
<stop offset="1" stop-color="#FC8F59"/>
</linearGradient>
<linearGradient id="paint1_linear_1_163" x1="223.037" y1="298.129" x2="140.165" y2="254.82" gradientUnits="userSpaceOnUse">
<stop stop-color="#D02964"/>
<stop offset="1" stop-color="#FC8F59"/>
</linearGradient>
<linearGradient id="paint2_linear_1_163" x1="265.028" y1="171.186" x2="248.266" y2="142.27" gradientUnits="userSpaceOnUse">
<stop stop-color="#D02964"/>
<stop offset="1" stop-color="#FC8F59"/>
</linearGradient>
<linearGradient id="paint3_linear_1_163" x1="279.514" y1="224.066" x2="261.233" y2="189.968" gradientUnits="userSpaceOnUse">
<stop stop-color="#D02964"/>
<stop offset="1" stop-color="#FC8F59"/>
</linearGradient>
<linearGradient id="paint4_linear_1_163" x1="280.856" y1="203.198" x2="261.644" y2="173.185" gradientUnits="userSpaceOnUse">
<stop stop-color="#D02964"/>
<stop offset="1" stop-color="#FC8F59"/>
</linearGradient>
<linearGradient id="paint5_linear_1_163" x1="279.166" y1="271.185" x2="265.059" y2="242.123" gradientUnits="userSpaceOnUse">
<stop stop-color="#D02964"/>
<stop offset="1" stop-color="#FC8F59"/>
</linearGradient>
<linearGradient id="paint6_linear_1_163" x1="277.568" y1="296.474" x2="267.055" y2="267.7" gradientUnits="userSpaceOnUse">
<stop stop-color="#D02964"/>
<stop offset="1" stop-color="#FC8F59"/>
</linearGradient>
<linearGradient id="paint7_linear_1_163" x1="286.651" y1="325.253" x2="276.473" y2="298.041" gradientUnits="userSpaceOnUse">
<stop stop-color="#D02964"/>
<stop offset="1" stop-color="#FC8F59"/>
</linearGradient>
<linearGradient id="paint8_linear_1_163" x1="291.009" y1="382.303" x2="273.293" y2="339.826" gradientUnits="userSpaceOnUse">
<stop stop-color="#D02964"/>
<stop offset="1" stop-color="#FC8F59"/>
</linearGradient>
<linearGradient id="paint9_linear_1_163" x1="293.166" y1="429.012" x2="274.584" y2="381.498" gradientUnits="userSpaceOnUse">
<stop stop-color="#D02964"/>
<stop offset="1" stop-color="#FC8F59"/>
</linearGradient>
<linearGradient id="paint10_linear_1_163" x1="286.801" y1="473.72" x2="254.647" y2="414.321" gradientUnits="userSpaceOnUse">
<stop stop-color="#D02964"/>
<stop offset="1" stop-color="#FC8F59"/>
</linearGradient>
<linearGradient id="paint11_linear_1_163" x1="229.042" y1="128.118" x2="215.099" y2="115.734" gradientUnits="userSpaceOnUse">
<stop stop-color="#D02964"/>
<stop offset="1" stop-color="#FC8F59"/>
</linearGradient>
<linearGradient id="paint12_linear_1_163" x1="244.701" y1="143.659" x2="234.092" y2="132.073" gradientUnits="userSpaceOnUse">
<stop stop-color="#D02964"/>
<stop offset="1" stop-color="#FC8F59"/>
</linearGradient>
<linearGradient id="paint13_linear_1_163" x1="211.865" y1="251.599" x2="182.91" y2="197.706" gradientUnits="userSpaceOnUse">
<stop stop-color="#D02964"/>
<stop offset="1" stop-color="#FC8F59"/>
</linearGradient>
<linearGradient id="paint14_linear_1_163" x1="205.384" y1="311.343" x2="179.515" y2="246.759" gradientUnits="userSpaceOnUse">
<stop stop-color="#D02964"/>
<stop offset="1" stop-color="#FC8F59"/>
</linearGradient>
<linearGradient id="paint15_linear_1_163" x1="183.609" y1="398.103" x2="180.198" y2="390.241" gradientUnits="userSpaceOnUse">
<stop stop-color="#D02964"/>
<stop offset="1" stop-color="#FC8F59"/>
</linearGradient>
<linearGradient id="paint16_linear_1_163" x1="233.99" y1="365.796" x2="230.523" y2="356.567" gradientUnits="userSpaceOnUse">
<stop stop-color="#D02964"/>
<stop offset="1" stop-color="#FC8F59"/>
</linearGradient>
<linearGradient id="paint17_linear_1_163" x1="222.639" y1="464.211" x2="216.411" y2="449.48" gradientUnits="userSpaceOnUse">
<stop stop-color="#D02964"/>
<stop offset="1" stop-color="#FC8F59"/>
</linearGradient>
<linearGradient id="paint18_linear_1_163" x1="197.342" y1="541.606" x2="188.358" y2="523.989" gradientUnits="userSpaceOnUse">
<stop stop-color="#D02964"/>
<stop offset="1" stop-color="#FC8F59"/>
</linearGradient>
<linearGradient id="paint19_linear_1_163" x1="267.332" y1="467.21" x2="259.116" y2="452.312" gradientUnits="userSpaceOnUse">
<stop stop-color="#D02964"/>
<stop offset="1" stop-color="#FC8F59"/>
</linearGradient>
<linearGradient id="paint20_linear_1_163" x1="279.237" y1="231.061" x2="271.213" y2="220.972" gradientUnits="userSpaceOnUse">
<stop stop-color="#D02964"/>
<stop offset="1" stop-color="#FC8F59"/>
</linearGradient>
<linearGradient id="paint21_linear_1_163" x1="214.491" y1="96.692" x2="206.998" y2="90.7688" gradientUnits="userSpaceOnUse">
<stop stop-color="#D02964"/>
<stop offset="1" stop-color="#FC8F59"/>
</linearGradient>
<linearGradient id="paint22_linear_1_163" x1="194.044" y1="115.788" x2="187.703" y2="101.969" gradientUnits="userSpaceOnUse">
<stop stop-color="#D02964"/>
<stop offset="1" stop-color="#FC8F59"/>
</linearGradient>
<linearGradient id="paint23_linear_1_163" x1="198.08" y1="145.487" x2="191.651" y2="126.719" gradientUnits="userSpaceOnUse">
<stop stop-color="#D02964"/>
<stop offset="1" stop-color="#FC8F59"/>
</linearGradient>
<linearGradient id="paint24_linear_1_163" x1="213.102" y1="182.262" x2="198.578" y2="148.507" gradientUnits="userSpaceOnUse">
<stop stop-color="#D02964"/>
<stop offset="1" stop-color="#FC8F59"/>
</linearGradient>
<linearGradient id="paint25_linear_1_163" x1="211.433" y1="199.524" x2="197.508" y2="164.57" gradientUnits="userSpaceOnUse">
<stop stop-color="#D02964"/>
<stop offset="1" stop-color="#FC8F59"/>
</linearGradient>
<linearGradient id="paint26_linear_1_163" x1="212.056" y1="224.405" x2="194.525" y2="184.286" gradientUnits="userSpaceOnUse">
<stop stop-color="#D02964"/>
<stop offset="1" stop-color="#FC8F59"/>
</linearGradient>
<linearGradient id="paint27_linear_1_163" x1="138.447" y1="302.264" x2="123.555" y2="272.871" gradientUnits="userSpaceOnUse">
<stop stop-color="#D02964"/>
<stop offset="1" stop-color="#FC8F59"/>
</linearGradient>
<linearGradient id="paint28_linear_1_163" x1="191.679" y1="360.275" x2="172.396" y2="304.07" gradientUnits="userSpaceOnUse">
<stop stop-color="#D02964"/>
<stop offset="1" stop-color="#FC8F59"/>
</linearGradient>
<linearGradient id="paint29_linear_1_163" x1="136.607" y1="423.433" x2="131.739" y2="402.469" gradientUnits="userSpaceOnUse">
<stop stop-color="#D02964"/>
<stop offset="1" stop-color="#FC8F59"/>
</linearGradient>
<linearGradient id="paint30_linear_1_163" x1="165.761" y1="472.83" x2="160.966" y2="461.497" gradientUnits="userSpaceOnUse">
<stop stop-color="#D02964"/>
<stop offset="1" stop-color="#FC8F59"/>
</linearGradient>
<linearGradient id="paint31_linear_1_163" x1="161.507" y1="480.994" x2="155.992" y2="461.588" gradientUnits="userSpaceOnUse">
<stop stop-color="#D02964"/>
<stop offset="1" stop-color="#FC8F59"/>
</linearGradient>
<linearGradient id="paint32_linear_1_163" x1="272.282" y1="368.121" x2="256.434" y2="337.202" gradientUnits="userSpaceOnUse">
<stop stop-color="#D02964"/>
<stop offset="1" stop-color="#FC8F59"/>
</linearGradient>
<linearGradient id="paint33_linear_1_163" x1="254.965" y1="332.275" x2="244.581" y2="309.827" gradientUnits="userSpaceOnUse">
<stop stop-color="#D02964"/>
<stop offset="1" stop-color="#FC8F59"/>
</linearGradient>
<linearGradient id="paint34_linear_1_163" x1="150.219" y1="556.919" x2="129.614" y2="536.434" gradientUnits="userSpaceOnUse">
<stop stop-color="#D02964"/>
<stop offset="1" stop-color="#FC8F59"/>
</linearGradient>
<linearGradient id="paint35_linear_1_163" x1="192.307" y1="395.554" x2="169.094" y2="389.142" gradientUnits="userSpaceOnUse">
<stop stop-color="#D02964"/>
<stop offset="1" stop-color="#FC8F59"/>
</linearGradient>
<clipPath id="clip0_1_163">
<rect width="640" height="260" fill="white" transform="translate(0 631.604) rotate(-80.5766)"/>
</clipPath>
</defs>
</svg>
