<svg width="641" height="1761" viewBox="0 0 641 1761" fill="none" xmlns="http://www.w3.org/2000/svg">
<path d="M631.377 1756.5C600.215 1641.32 530.286 1540.57 462.653 1443.14C405.994 1361.53 347.425 1277.15 310.888 1183.8C204.93 912.885 291.415 615.501 397.533 309.205L405.853 312.085C300.281 616.772 214.22 912.461 319.086 1180.59C355.236 1272.97 413.514 1356.92 469.872 1438.12C537.937 1536.16 608.309 1637.54 639.867 1754.19L631.377 1756.5Z" fill="url(#paint0_linear_1_698)"/>
<path d="M366.352 406.419C350.813 312.141 365.778 213.045 408.281 127.53C430.23 83.4259 459.171 43.1906 487.905 3.12476C460.413 52.8188 469.844 73.4118 473.684 100.659C477.514 127.915 483.274 134.504 485.147 161.967C488.592 211.755 467.227 260.085 440.968 302.588C414.691 345.017 382.898 384.282 366.352 406.419Z" fill="url(#paint1_linear_1_698)"/>
<path d="M344.912 484.471C276.507 457.892 220.507 401.205 194.747 332.508C168.959 263.821 173.768 184.311 207.726 119.257C196.517 144.066 212.065 173.101 232.027 191.605C252.008 210.005 277.109 223.492 292.855 245.638C308.498 267.567 313.119 295.426 317.26 322.09C326.117 378.174 334.869 434.278 344.912 484.471Z" fill="url(#paint2_linear_1_698)"/>
<path d="M368.14 424.141C387.227 348.169 442.634 282.137 514.192 250.231C554.822 232.141 602.568 222.88 630.813 188.442C639.378 250.795 559.566 318.259 512.027 375.718C473.542 422.372 410.455 447.454 368.14 424.141Z" fill="url(#paint3_linear_1_698)"/>
<path d="M309.768 624.292C348.893 500.988 478.643 425.308 596.253 371.962C556.394 401.685 551.076 457.882 532.177 503.737C501.806 577.741 425.928 629.355 352.347 629.986C337.956 630.127 323.641 628.301 309.768 624.292Z" fill="url(#paint4_linear_1_698)"/>
<path d="M270.606 856.555C307.425 834.363 344.771 814.946 356.027 769.967C359.368 756.65 359.255 747.238 368.422 728.433C373.815 717.374 380.733 707.473 388.742 698.475C412.752 671.445 446.606 652.386 478.644 634.24C521.458 610.127 566.521 581.591 580.893 535.238C586.709 621.054 555.011 708.734 495.669 770.927C436.432 833.243 350.324 869.054 270.606 856.555Z" fill="url(#paint5_linear_1_698)"/>
<path d="M269.231 1024.84C328.667 929.864 434.276 865.412 545.57 855.671C525.486 912.537 485.25 962.146 433.674 993.553C382.116 1025.04 319.613 1038.02 269.231 1024.84Z" fill="url(#paint6_linear_1_698)"/>
<path d="M301.109 646.165C313.712 614.381 299.255 577.28 275.924 552.273C252.695 527.181 221.796 510.748 193.552 491.463C165.298 472.169 138.041 447.671 134.596 421.798C115.886 476.414 126.625 540.169 162.154 585.741C197.684 631.313 256.931 657.195 301.109 646.165Z" fill="url(#paint7_linear_1_698)"/>
<path d="M269.984 825.657C277.768 792.8 256.799 759.228 230.126 738.457C203.453 717.694 171.283 705.497 143.039 686.88C114.784 668.282 89.495 639.633 86.5397 605.6C82.1256 656.235 88.4126 682.052 93.3443 721.224C98.0597 758.918 128.657 789.327 163.509 804.584C198.342 819.944 237.119 822.795 269.984 825.657Z" fill="url(#paint8_linear_1_698)"/>
<path d="M263.792 952.885C254.832 943.52 241.363 948.659 230.653 951.464C210.935 956.659 192.018 956.358 171.923 954.824C153.599 953.431 132.422 951.953 116.808 963.577C80.3938 990.645 32.4973 983.238 7.55615 1044.77C26.3609 1025.96 55.001 1020.46 81.5704 1021.74C108.13 1023.02 134.126 1030.1 160.592 1032.56C187.058 1035.02 215.603 1032.07 236.658 1015.73C257.721 999.492 283.566 973.544 263.792 952.885Z" fill="url(#paint9_linear_1_698)"/>
<path d="M292.347 1112.72C251.989 1092.25 203.387 1113.81 165.891 1139.2C128.394 1164.58 140.884 1161.11 44.5259 1194.4C93.0529 1180.72 144.121 1207.2 194.418 1204.14C247.669 1200.78 296.479 1160.73 292.347 1112.72Z" fill="url(#paint10_linear_1_698)"/>
<path d="M313.533 1142.05C322.295 1100.52 365.203 1076.22 405.156 1062.15C445.109 1048.06 489.599 1037.04 516.554 1004.28C481.552 1159.39 348.422 1130.86 318.342 1192.55C309.9 1169.22 310.879 1159.38 313.533 1142.05Z" fill="url(#paint11_linear_1_698)"/>
<path d="M326.295 1208.58C278.257 1220.99 263.293 1242.77 241.937 1287.55C220.573 1332.32 241.937 1325.59 139.208 1429.33C167.349 1405.01 209.476 1410.24 245.599 1401.28C285.354 1391.34 319.697 1361.62 335.152 1323.75C350.606 1285.85 346.963 1240.58 326.295 1208.58Z" fill="url(#paint12_linear_1_698)"/>
<path d="M347.067 1251.77C375.895 1214.37 406.323 1175.61 449.137 1155.82C473.147 1144.7 499.81 1140.18 524.319 1130.15C548.817 1120.11 572.639 1102.29 578.935 1076.5C570.069 1124.83 556.027 1186.25 516.554 1215.58C495.895 1230.94 466.389 1240.5 441.401 1246.7C406.258 1255.57 377.288 1252.96 347.067 1251.77Z" fill="url(#paint13_linear_1_698)"/>
<path d="M435.067 1392.6C469.994 1319.78 537.514 1263.28 615.349 1241.75C586.417 1272.05 571.566 1313.18 546.163 1346.54C520.77 1379.92 475.5 1405.98 435.067 1392.6Z" fill="url(#paint14_linear_1_698)"/>
<path d="M408.855 1349.8C369.589 1358.27 328.083 1384.88 306.342 1418.73C284.592 1452.49 277.373 1497.53 241.938 1516.41C271.876 1516.41 264.686 1497.52 279.349 1499.08C294.003 1500.67 308.272 1506.56 323.039 1506.65C358.163 1506.85 385.043 1473.9 395.961 1440.54C406.888 1407.18 407.773 1370.86 408.855 1349.8Z" fill="url(#paint15_linear_1_698)"/>
<path d="M492.714 1476.16C431.792 1493.98 379.434 1539.24 352.968 1596.91C370.672 1583.62 392.818 1577.91 414.182 1571.72C435.528 1565.51 457.486 1558.12 473.222 1542.48C488.968 1526.84 496.262 1500.56 492.714 1476.16Z" fill="url(#paint16_linear_1_698)"/>
<path d="M516.554 1506.69C533.486 1457.09 572.15 1415.37 615.171 1396.19C603.161 1450.91 559.265 1497.36 516.554 1506.69Z" fill="url(#paint17_linear_1_698)"/>
<defs>
<linearGradient id="paint0_linear_1_698" x1="467.071" y1="1756.5" x2="659.24" y2="1731.27" gradientUnits="userSpaceOnUse">
<stop stop-color="#D02964"/>
<stop offset="1" stop-color="#FC8F59"/>
</linearGradient>
<linearGradient id="paint1_linear_1_698" x1="429.486" y1="406.419" x2="493.939" y2="396.153" gradientUnits="userSpaceOnUse">
<stop stop-color="#D02964"/>
<stop offset="1" stop-color="#FC8F59"/>
</linearGradient>
<linearGradient id="paint2_linear_1_698" x1="268.612" y1="484.471" x2="350.602" y2="465.637" gradientUnits="userSpaceOnUse">
<stop stop-color="#D02964"/>
<stop offset="1" stop-color="#FC8F59"/>
</linearGradient>
<linearGradient id="paint3_linear_1_698" x1="510.841" y1="432.982" x2="616.278" y2="375.806" gradientUnits="userSpaceOnUse">
<stop stop-color="#D02964"/>
<stop offset="1" stop-color="#FC8F59"/>
</linearGradient>
<linearGradient id="paint4_linear_1_698" x1="465.029" y1="629.993" x2="578.12" y2="566.757" gradientUnits="userSpaceOnUse">
<stop stop-color="#D02964"/>
<stop offset="1" stop-color="#FC8F59"/>
</linearGradient>
<linearGradient id="paint5_linear_1_698" x1="439.136" y1="859.03" x2="569.723" y2="795.868" gradientUnits="userSpaceOnUse">
<stop stop-color="#D02964"/>
<stop offset="1" stop-color="#FC8F59"/>
</linearGradient>
<linearGradient id="paint6_linear_1_698" x1="418.994" y1="1029.95" x2="506.43" y2="960.127" gradientUnits="userSpaceOnUse">
<stop stop-color="#D02964"/>
<stop offset="1" stop-color="#FC8F59"/>
</linearGradient>
<linearGradient id="paint7_linear_1_698" x1="223.211" y1="648.698" x2="303.725" y2="616.486" gradientUnits="userSpaceOnUse">
<stop stop-color="#D02964"/>
<stop offset="1" stop-color="#FC8F59"/>
</linearGradient>
<linearGradient id="paint8_linear_1_698" x1="186.163" y1="825.657" x2="267.936" y2="790.738" gradientUnits="userSpaceOnUse">
<stop stop-color="#D02964"/>
<stop offset="1" stop-color="#FC8F59"/>
</linearGradient>
<linearGradient id="paint9_linear_1_698" x1="150.252" y1="1044.77" x2="197.977" y2="979.704" gradientUnits="userSpaceOnUse">
<stop stop-color="#D02964"/>
<stop offset="1" stop-color="#FC8F59"/>
</linearGradient>
<linearGradient id="paint10_linear_1_698" x1="178.966" y1="1204.39" x2="229.051" y2="1141.7" gradientUnits="userSpaceOnUse">
<stop stop-color="#D02964"/>
<stop offset="1" stop-color="#FC8F59"/>
</linearGradient>
<linearGradient id="paint11_linear_1_698" x1="422.697" y1="1192.55" x2="504.344" y2="1147.79" gradientUnits="userSpaceOnUse">
<stop stop-color="#D02964"/>
<stop offset="1" stop-color="#FC8F59"/>
</linearGradient>
<linearGradient id="paint12_linear_1_698" x1="250.56" y1="1429.33" x2="337.848" y2="1388.41" gradientUnits="userSpaceOnUse">
<stop stop-color="#D02964"/>
<stop offset="1" stop-color="#FC8F59"/>
</linearGradient>
<linearGradient id="paint13_linear_1_698" x1="472.728" y1="1253.07" x2="556.317" y2="1197.79" gradientUnits="userSpaceOnUse">
<stop stop-color="#D02964"/>
<stop offset="1" stop-color="#FC8F59"/>
</linearGradient>
<linearGradient id="paint14_linear_1_698" x1="532.771" y1="1396.18" x2="602.193" y2="1355.36" gradientUnits="userSpaceOnUse">
<stop stop-color="#D02964"/>
<stop offset="1" stop-color="#FC8F59"/>
</linearGradient>
<linearGradient id="paint15_linear_1_698" x1="332.399" y1="1516.41" x2="401.341" y2="1481.62" gradientUnits="userSpaceOnUse">
<stop stop-color="#D02964"/>
<stop offset="1" stop-color="#FC8F59"/>
</linearGradient>
<linearGradient id="paint16_linear_1_698" x1="429.182" y1="1596.91" x2="483.401" y2="1565.11" gradientUnits="userSpaceOnUse">
<stop stop-color="#D02964"/>
<stop offset="1" stop-color="#FC8F59"/>
</linearGradient>
<linearGradient id="paint17_linear_1_698" x1="570" y1="1506.69" x2="612.513" y2="1487.58" gradientUnits="userSpaceOnUse">
<stop stop-color="#D02964"/>
<stop offset="1" stop-color="#FC8F59"/>
</linearGradient>
</defs>
</svg>
