<svg width="640" height="728" viewBox="0 0 640 728" fill="none" xmlns="http://www.w3.org/2000/svg">
<path d="M375.507 726.82C338.142 666.178 299.505 603.465 277.673 534.093C253.259 456.521 255.108 381.039 282.88 321.549C304.727 274.746 341.545 237.871 377.148 202.215L443.494 135.783L445.986 138.272L379.64 204.7C344.248 240.145 307.656 276.798 286.072 323.04C258.673 381.732 256.881 456.307 281.035 533.035C302.735 601.993 341.256 664.514 378.511 724.975L375.507 726.82Z" fill="url(#paint0_linear_1_585)"/>
<path d="M272.719 348.38C264.486 318.982 255.206 285.818 258.436 254.94C260.22 237.916 265.555 221.389 270.713 205.404C273.363 197.19 276.104 188.693 278.321 180.256C286.344 149.709 284.762 124.979 273.63 106.758L276.631 104.924C288.286 123.992 290.003 149.641 281.728 181.156C279.488 189.687 276.732 198.225 274.067 206.485C268.962 222.296 263.688 238.647 261.941 255.309C258.778 285.513 267.968 318.342 276.077 347.304L272.719 348.38Z" fill="url(#paint1_linear_1_585)"/>
<path d="M263.635 229.536C257.114 195.469 245.786 174.029 227.987 162.065L229.948 159.147C254.423 175.595 262.867 206.82 267.087 228.873L263.635 229.536Z" fill="url(#paint2_linear_1_585)"/>
<path d="M327.221 259.834L323.802 259.002C327.285 244.61 334.667 231.505 341.805 218.837C348.683 206.631 355.795 194.012 359.251 180.425C360.956 173.754 361.803 166.726 362.616 159.934C363.245 154.712 363.896 149.321 364.928 144.054C367.977 128.536 374.539 113.594 383.906 100.851L386.744 102.936C377.683 115.266 371.332 129.718 368.384 144.732C367.375 149.871 366.731 155.198 366.114 160.352C365.282 167.26 364.423 174.398 362.662 181.295C359.089 195.334 351.861 208.164 344.87 220.568C337.848 233.026 330.59 245.912 327.221 259.834Z" fill="url(#paint3_linear_1_585)"/>
<path d="M292.736 308.674L290.714 305.79C309.572 292.553 331.735 277.63 356.198 268.041C382.52 257.718 408.407 255.091 431.051 260.418C445.828 263.885 459.832 270.827 473.378 277.536C492.642 287.083 510.871 296.115 531.193 296.115C531.701 296.115 532.209 296.111 532.713 296.096L532.792 299.62C511.01 300.113 491.072 290.238 471.812 280.694C458.443 274.072 444.619 267.224 430.242 263.847C402.5 257.316 375.368 264.303 357.481 271.324C333.384 280.766 311.424 295.554 292.736 308.674Z" fill="url(#paint4_linear_1_585)"/>
<path d="M432.553 263.603L431.164 260.369C432.968 259.597 434.767 258.795 436.567 257.993C444.352 254.522 452.405 250.938 461.03 249.5C471.014 247.829 481.152 249.135 490.959 250.396C493.361 250.705 495.759 251.014 498.154 251.277C508.717 252.448 522.221 252.986 532.932 246.703L534.713 249.741C523.102 256.551 508.864 256.002 497.766 254.778C495.353 254.511 492.936 254.199 490.511 253.89C480.96 252.663 471.085 251.386 461.609 252.971C453.425 254.334 445.583 257.828 438.001 261.208C436.183 262.014 434.372 262.823 432.553 263.603Z" fill="url(#paint5_linear_1_585)"/>
<path d="M442.315 330.095C427.814 298.611 392.602 274.487 356.687 271.437L356.988 267.928C394.101 271.08 430.505 296.04 445.515 328.623L442.315 330.095Z" fill="url(#paint6_linear_1_585)"/>
<path d="M296.885 584.13C253.094 556.162 217.875 523.04 192.196 485.675C163.189 443.495 147.497 395.051 148.013 349.261L151.537 349.299C151.025 394.374 166.502 442.095 195.098 483.684C220.506 520.657 255.39 553.455 298.782 581.171L296.885 584.13Z" fill="url(#paint7_linear_1_585)"/>
<path d="M165.289 435.288C161.495 402.483 170.809 368.631 190.844 342.398L193.638 344.536C174.152 370.042 165.094 402.976 168.783 434.882L165.289 435.288Z" fill="url(#paint8_linear_1_585)"/>
<path d="M153.276 395.797C143.872 384.051 128.704 377.459 113.705 378.554L113.449 375.046C129.593 373.845 145.901 380.964 156.028 393.598L153.276 395.797Z" fill="url(#paint9_linear_1_585)"/>
<path d="M130.53 486.507L128.617 483.552C146.921 471.682 171.595 469.856 191.473 478.903L190.016 482.11C171.208 473.553 147.859 475.273 130.53 486.507Z" fill="url(#paint10_linear_1_585)"/>
<path d="M510.069 411.032L505.137 402.287C504.023 400.311 501.568 399.354 498.967 398.342L497.476 397.754C493.621 396.158 489.743 392.894 490.424 388.516C490.47 388.211 490.545 387.887 490.624 387.563C490.703 387.243 490.805 386.844 490.767 386.694C490.744 386.596 490.583 386.197 488.994 385.673L459.219 375.655C455.315 374.338 450.458 372.693 447.405 368.853C446.246 367.399 445.463 365.784 444.702 364.222C444.322 363.439 443.949 362.66 443.524 361.907C442.549 360.201 441.288 358.62 439.955 356.945C437.515 353.88 434.993 350.707 434.259 346.618C433.367 341.709 435.302 337.632 437.09 335.079C439.48 331.654 442.658 329.338 444.774 328.646C449.239 323.736 456.29 321.169 462.987 322.189C469.158 323.149 474.364 326.808 478.953 330.035C485.658 334.767 493.255 340.128 497.498 348.049C500.454 353.572 501.515 359.926 502.453 365.536L510.069 411.032ZM460.028 325.476C455.07 325.476 450.229 327.671 447.085 331.345L446.675 331.827L446.05 331.936C445.222 332.079 442.3 333.762 439.985 337.086C438.584 339.093 437.056 342.266 437.73 345.986C438.302 349.201 440.448 351.896 442.718 354.746C444.073 356.452 445.474 358.214 446.588 360.164C447.055 360.984 447.465 361.831 447.88 362.682C448.584 364.135 449.25 365.51 450.165 366.658C452.574 369.692 456.704 371.089 460.348 372.32L490.108 382.33C491.072 382.65 493.67 383.501 494.2 385.907C494.426 386.859 494.216 387.714 494.046 388.403C493.993 388.614 493.941 388.821 493.911 389.035C493.56 391.268 496.128 393.383 498.824 394.498L500.247 395.059C501.515 395.552 502.856 396.075 504.109 396.757L498.989 366.104C498.052 360.503 497.084 354.712 494.4 349.702C490.549 342.515 483.317 337.406 476.932 332.903C472.655 329.899 467.806 326.488 462.453 325.656C461.658 325.536 460.845 325.476 460.028 325.476Z" fill="url(#paint11_linear_1_585)"/>
<path d="M537.077 250.208C535.831 250.208 534.78 250.087 533.862 249.839L533 249.609L532.676 248.774C529.894 241.534 528.275 233.975 527.865 226.306C527.688 222.993 527.699 219.138 529.16 215.629C531.787 209.18 538.161 205.604 544.651 202.694C556.126 197.559 568.143 193.376 580.378 190.274L581.346 190.033C585.111 189.088 589.003 188.109 592.249 186.174C593.909 185.188 595.437 183.942 597.049 182.628C599.801 180.388 602.643 178.072 606.253 177.056L607.518 180.324C603.667 182.251 602.944 187.541 602.248 192.653L602.003 194.434C600.008 207.949 592.162 219.767 585.239 230.195C583.134 233.35 580.759 236.922 577.28 239.343C574.163 241.493 570.59 242.468 567.13 243.413L554.127 246.936C548.307 248.469 541.738 250.208 537.077 250.208ZM535.62 246.605C539.467 247.095 547.215 245.118 553.209 243.537L566.197 240.017C569.37 239.155 572.653 238.259 575.27 236.452C578.191 234.419 580.281 231.283 582.302 228.248C589.018 218.129 596.634 206.662 598.513 193.926L598.758 192.183C599.1 189.671 599.458 187.017 600.222 184.589C599.906 184.841 599.59 185.101 599.27 185.361C597.625 186.697 595.923 188.087 594.041 189.201C590.359 191.396 586.21 192.438 582.197 193.447L581.237 193.685C569.201 196.742 557.372 200.849 546.086 205.905C540.258 208.51 534.57 211.654 532.405 216.969C531.215 219.834 531.215 223.196 531.373 226.114C531.754 233.097 533.18 239.987 535.62 246.605Z" fill="url(#paint12_linear_1_585)"/>
<path d="M581.602 331.669C576.881 331.669 572.104 330.404 567.616 329.105L549.681 323.917C548.495 323.571 547.192 323.198 546.025 322.381C544.459 321.334 543.477 319.738 542.615 318.33L542.408 317.995C538.36 311.448 533.128 305.764 528.546 301.069L526.969 299.45L528.926 298.317C537.397 293.412 546.157 288.348 555.904 285.698C566.871 282.712 577.656 283.518 585.815 288.036C588.977 289.782 591.763 292.068 594.455 294.281C595.215 294.902 595.972 295.527 596.74 296.137C606.212 303.727 616.843 309.543 628.345 313.425L636.77 316.271L627.897 316.851C625.235 317.024 623.059 319.222 620.755 321.549C618.172 324.154 615.247 327.11 611.17 327.268C611.159 327.268 611.147 327.268 611.136 327.268C608.685 327.268 606.803 326.503 604.981 325.762C603.396 325.118 601.901 324.508 600.444 324.508C598.189 324.557 596.25 325.916 594.191 327.362C593.084 328.137 591.974 328.909 590.807 329.53C588.13 330.972 585.114 331.669 581.602 331.669ZM532.642 300.241C536.956 304.743 541.64 310.055 545.404 316.147L545.619 316.493C546.357 317.698 547.061 318.838 548.021 319.482C548.736 319.983 549.658 320.25 550.63 320.529L568.591 325.728C572.841 326.955 577.34 328.156 581.602 328.156C584.52 328.156 586.989 327.591 589.15 326.436C590.193 325.882 591.183 325.182 592.173 324.489C594.568 322.81 597.045 321.071 600.241 320.999H600.252C602.594 320.999 604.484 321.767 606.31 322.509C607.895 323.153 609.389 323.763 610.839 323.763C613.726 323.654 615.925 321.432 618.255 319.079C619.607 317.713 621.06 316.248 622.728 315.138C612.552 311.192 603.091 305.741 594.552 298.897C593.777 298.279 593.005 297.643 592.233 297.011C589.542 294.801 587.004 292.715 584.124 291.126C576.764 287.049 566.905 286.357 556.838 289.105C548.254 291.428 540.314 295.817 532.642 300.241Z" fill="url(#paint13_linear_1_585)"/>
<path d="M454.878 142.846C451.381 142.846 447.759 141.799 444.68 139.891L444.254 139.631L444.028 139.179C441.713 134.526 441.525 128.657 443.49 122.663C445.192 117.476 448.117 112.954 450.952 108.58C455.819 101.073 461.263 93.5547 469.542 91.262C471.857 90.6296 474.206 90.4639 476.48 90.3096C477.312 90.2493 478.136 90.1966 478.957 90.1138C485.956 89.4663 492.318 87.1773 497.363 83.4766C498.918 82.3397 500.457 81.0032 501.956 79.7044C506.04 76.158 510.268 72.4874 515.84 71.7495L520.41 71.1434L517.406 74.6408C512.9 79.8926 511.654 87.7458 514.304 94.1834C514.481 94.6164 514.677 95.0455 514.865 95.4672C515.407 96.6606 515.968 97.8954 516.247 99.3034C517.387 104.954 513.461 109.822 511.014 112.22C509.952 113.263 508.815 114.238 507.674 115.206C505.574 116.998 503.593 118.688 502.137 120.811C501.414 121.858 500.819 123.006 500.194 124.222C499.546 125.483 498.872 126.786 498.029 128.013C492.303 136.333 481.397 137.575 475.403 137.575L471.936 137.526C470.189 137.526 468.348 137.621 466.696 138.34C465.856 138.709 465.047 139.251 464.184 139.823C463.544 140.248 462.908 140.67 462.242 141.043C460.092 142.225 457.547 142.846 454.878 142.846ZM446.968 137.158C451.283 139.638 456.806 140.011 460.544 137.963C461.116 137.639 461.681 137.263 462.242 136.89C463.187 136.262 464.169 135.606 465.291 135.113C468.216 133.845 471.134 133.98 473.754 134.029L475.411 134.055C480.712 134.052 490.323 133.009 495.138 126.014C495.853 124.971 496.448 123.823 497.073 122.611C497.724 121.35 498.394 120.043 499.241 118.812C500.958 116.309 503.213 114.385 505.397 112.525C506.47 111.61 507.546 110.692 508.552 109.705C510.11 108.177 513.641 104.167 512.798 99.9924C512.595 98.9759 512.143 97.982 511.661 96.9204C511.45 96.4573 511.243 95.9905 511.048 95.5199C508.574 89.5114 508.966 82.4601 511.857 76.6926C509.218 78.0592 506.782 80.1712 504.26 82.3623C502.712 83.7063 501.112 85.0992 499.441 86.319C493.884 90.3886 486.916 92.9147 479.292 93.6187C478.445 93.6978 477.587 93.7618 476.721 93.822C474.522 93.9726 472.448 94.1157 470.475 94.6578C463.386 96.6154 458.594 103.268 453.911 110.496C451.2 114.678 448.399 119.008 446.84 123.759C445.248 128.597 445.301 133.446 446.968 137.158Z" fill="url(#paint14_linear_1_585)"/>
<path d="M381.045 106.953L381.274 104.096C381.64 99.4993 383.296 95.2263 384.9 91.0927C385.408 89.775 385.92 88.4649 386.383 87.1435C388.954 79.8738 390.238 72.303 390.208 64.6305V63.855C390.193 61.536 390.178 59.1341 391.127 56.815C392.282 54.048 394.684 51.7553 398.28 49.9896C404.875 46.7633 412.171 46.496 418.496 46.496L425.736 46.5449C432.753 46.5449 438.498 46.0743 443.697 43.7816C445.402 43.0324 447.036 42.0913 448.764 41.0898C452.198 39.1096 455.744 37.0616 459.912 36.6362L465.363 36.0865L461.248 39.7082C457.431 43.0776 457.013 48.5402 456.568 54.3265C456.331 57.376 456.09 60.5233 455.334 63.4823C453.225 71.7308 446.581 78.5863 438.404 80.9468C437.798 81.12 437.184 81.2743 436.567 81.4249C434.485 81.9444 432.52 82.4338 431.236 83.6762C430.468 84.4178 429.914 85.472 429.331 86.5863C428.849 87.4974 428.356 88.4423 427.686 89.3233C425.047 92.8658 420.845 94.24 416.41 95.4409L414.897 95.8626C404.431 98.7802 393.611 101.796 383.695 105.873L381.045 106.953ZM418.496 50.0122C412.57 50.0122 405.745 50.2531 399.827 53.1444C397.022 54.5223 395.189 56.2127 394.379 58.1553C393.702 59.8117 393.713 61.7694 393.724 63.8362L393.728 64.623C393.762 72.6983 392.403 80.672 389.7 88.3181C389.222 89.6696 388.698 91.0174 388.179 92.3651C386.978 95.4635 385.826 98.4376 385.201 101.479C394.5 97.888 404.375 95.1322 413.956 92.463L415.48 92.0376C419.313 91.0023 422.901 89.8503 424.873 87.2037C425.404 86.5035 425.807 85.7167 426.217 84.9374C426.906 83.631 427.614 82.2795 428.789 81.1388C430.758 79.2338 433.4 78.5788 435.727 78.0028C436.303 77.8597 436.879 77.7204 437.436 77.5585C444.431 75.5407 450.123 69.6677 451.93 62.6051C452.616 59.9435 452.845 56.9505 453.067 54.0555C453.402 49.6884 453.749 45.216 455.608 41.4437C453.914 42.1816 452.247 43.1454 450.534 44.1355C448.798 45.1407 447.006 46.1722 445.124 47.0004C438.712 49.8277 431.759 50.0649 425.743 50.0649L418.496 50.0122Z" fill="url(#paint15_linear_1_585)"/>
<path d="M369.374 129.222C364.484 114.893 357.474 102.281 350.148 94.6163L352.693 92.1843C360.361 100.211 367.657 113.293 372.706 128.088L369.374 129.222Z" fill="url(#paint16_linear_1_585)"/>
<path d="M273.935 109.054C272.67 109.054 271.352 108.312 270.411 107.078C269.786 106.257 269.41 105.338 269.308 104.416C257.818 100.764 247.296 93.7241 239.552 84.4817C237.527 82.0648 235.4 79.117 235.049 75.5519C234.88 73.7749 235.159 72.1034 235.433 70.4846C235.629 69.3175 235.814 68.2182 235.821 67.1415C235.832 64.5137 234.793 61.8333 233.69 58.9984C232.056 54.8008 230.366 50.4526 232.245 46.0215C232.964 44.3236 234.101 42.9683 235.196 41.662C236.28 40.3669 237.308 39.1434 237.752 37.7617C237.978 37.0728 238.069 36.2935 238.163 35.469C238.231 34.8968 238.298 34.3171 238.408 33.7524C239.24 29.231 242.157 25.7297 244.981 22.3452C245.557 21.6488 246.14 20.9599 246.69 20.2597C248.813 17.5867 252.104 12.4554 250.236 8.12977L247.537 1.86902L252.932 6.04032C256.463 8.7735 258.097 12.877 259.674 16.845C261.158 20.5758 262.566 24.1034 265.4 26.223C265.811 26.5317 266.255 26.8177 266.703 27.1039C268.247 28.1053 269.997 29.2347 270.776 31.2827C271.578 33.3646 270.999 35.3824 270.483 37.1631C270.152 38.3189 269.835 39.4069 269.929 40.3556C270.05 41.5415 270.825 42.6973 271.646 43.917C272.045 44.5119 272.444 45.1067 272.794 45.7203C274.575 48.8676 274.989 52.3688 275.392 55.7495C275.727 58.5279 276.04 61.1556 277.06 63.4973C277.621 64.7999 278.404 66.0083 279.236 67.2921C280.041 68.5382 280.881 69.8333 281.532 71.2639C284.943 78.6954 282.481 86.5297 280.102 94.1043C278.92 97.8766 277.688 101.777 277.24 105.519C276.932 108.12 275.328 109.054 273.935 109.054ZM254.114 12.9711C253.602 15.9679 252.028 19.1904 249.442 22.4469C248.87 23.166 248.271 23.8812 247.676 24.5928C245.026 27.7702 242.526 30.7707 241.86 34.3924C241.769 34.8855 241.709 35.3787 241.653 35.8719C241.54 36.8356 241.423 37.8295 241.096 38.846C240.44 40.8789 239.142 42.4262 237.888 43.9246C236.913 45.0879 235.994 46.1834 235.479 47.3994C234.153 50.5166 235.52 54.0215 236.962 57.726C238.136 60.7453 239.349 63.8625 239.337 67.1679C239.326 68.5269 239.112 69.8182 238.901 71.0681C238.656 72.5288 238.426 73.9029 238.551 75.213C238.807 77.8144 240.565 80.2163 242.248 82.2192C249.856 91.2959 260.288 98.125 271.635 101.446L273.299 101.931L272.836 103.603C272.704 104.088 272.986 104.604 273.114 104.8C273.303 105.086 273.525 105.289 273.698 105.41C273.72 105.331 273.739 105.225 273.754 105.101C274.24 101.035 275.516 96.9768 276.751 93.0502C279.032 85.7881 281.186 78.9288 278.34 72.7321C277.79 71.5349 277.056 70.4017 276.284 69.2046C275.415 67.8606 274.511 66.4639 273.837 64.9015C272.61 62.0893 272.248 59.0775 271.902 56.1712C271.518 52.99 271.164 49.9857 269.73 47.4559C269.429 46.9175 269.079 46.4017 268.728 45.8822C267.746 44.4253 266.639 42.7763 266.432 40.7095C266.266 39.0869 266.711 37.5471 267.102 36.1881C267.512 34.7613 267.87 33.5302 267.494 32.5438C267.121 31.565 265.992 30.8347 264.794 30.0629C264.279 29.7316 263.767 29.3966 263.296 29.0427C259.663 26.3283 258.01 22.1721 256.41 18.1476C255.676 16.3255 254.972 14.5561 254.114 12.9711Z" fill="url(#paint17_linear_1_585)"/>
<path d="M351.815 95.1246L350.453 94.6804C349.463 94.3604 348.288 93.4945 346.658 92.2973C345.016 91.0926 342.972 89.5867 340.815 88.4573L339.866 87.9717C338.104 87.087 336.106 86.078 334.829 84.158C334.321 83.3976 333.997 82.5656 333.715 81.8352C333.591 81.5152 333.466 81.1952 333.323 80.8865C332.028 78.0667 329.322 76.1467 326.457 74.1138C324.921 73.022 323.324 71.8889 321.901 70.5787C316.028 65.1312 313.22 56.2201 314.567 47.3241C315.693 39.8776 319.386 32.5703 325.549 25.5981C326.302 24.7435 327.081 23.9039 327.861 23.0606C329.875 20.8921 331.78 18.8366 333.263 16.4837C335.518 12.911 336.716 8.61171 336.633 4.37264L336.591 2.23425L338.703 2.61075C343.014 3.37498 346.428 7.24132 346.647 11.6121C346.684 12.3463 346.643 13.1105 346.594 13.8785C346.504 15.3618 346.424 16.638 347.049 17.3646C347.256 17.6018 347.595 17.8314 347.987 18.095C348.412 18.3849 348.838 18.6785 349.214 19.0324C350.972 20.6889 351.405 23.0832 351.722 24.8338C352.938 31.6103 354.135 38.3905 355.328 45.1632C358.438 62.7745 360.561 79.7533 352.523 93.871L351.815 95.1246ZM340.073 6.83853C339.735 10.9119 338.413 14.9288 336.241 18.3622C334.589 20.9938 332.48 23.2639 330.443 25.4625C329.683 26.2794 328.926 27.0963 328.192 27.9283C322.477 34.3886 319.066 41.0898 318.046 47.8512C316.871 55.614 319.27 63.3279 324.295 67.9961C325.549 69.1557 326.98 70.1721 328.493 71.2451C331.61 73.455 334.837 75.7402 336.527 79.4296C336.696 79.8023 336.847 80.1825 336.994 80.5627C337.231 81.1801 337.461 81.7637 337.758 82.2117C338.519 83.3599 339.942 84.0752 341.447 84.8357L342.453 85.3477C344.843 86.5976 347.004 88.1863 348.74 89.4625C349.24 89.8352 349.798 90.2418 350.295 90.5881C356.759 77.7618 354.737 62.0743 351.864 45.7844C350.671 39.0117 349.474 32.2352 348.258 25.47C347.949 23.7721 347.648 22.4055 346.808 21.6149C346.571 21.3966 346.285 21.2121 346.003 21.0201C345.487 20.6663 344.907 20.271 344.391 19.6874C342.822 17.8653 342.961 15.5388 343.074 13.6715C343.116 13.039 343.157 12.4065 343.127 11.8004C343.029 9.77873 341.794 7.88512 340.073 6.83853Z" fill="url(#paint18_linear_1_585)"/>
<path d="M374.456 209.195L373.361 205.848C390.287 200.288 407.894 197.468 425.686 197.468C425.852 197.468 426.014 197.468 426.176 197.468L426.168 200.992C426.006 200.992 425.845 200.988 425.686 200.988C408.263 200.992 391.032 203.751 374.456 209.195Z" fill="url(#paint19_linear_1_585)"/>
<path d="M211.238 164.802C208.26 164.802 205.369 164.489 202.639 163.868C193.89 161.865 184.384 155.258 182.867 145.022C182.69 143.832 182.63 142.609 182.573 141.397C182.472 139.202 182.37 137.131 181.538 135.388C181.263 134.823 180.909 134.285 180.563 133.743C180.047 132.949 179.543 132.147 179.166 131.27C177.672 127.734 178.613 123.947 179.437 120.604L179.603 119.934C182.25 109.118 182.189 97.6883 179.415 86.8799L178.406 82.9382L181.967 84.8996C191.793 90.3133 198.46 98.4451 203.166 104.92C204.491 106.761 205.809 108.749 206.155 111.102C206.246 111.674 206.272 112.269 206.291 112.864C206.31 113.387 206.317 113.907 206.423 114.419C206.98 117.163 210.105 118.534 213.41 119.987C214.374 120.408 215.326 120.834 216.215 121.282C222.216 124.346 226.989 130.614 229.316 138.475C231.353 145.334 231.481 152.533 231.605 159.49L231.631 160.781L230.411 161.252C223.307 163.642 217.035 164.802 211.238 164.802ZM183.752 90.11C185.713 100.237 185.476 110.756 183.025 120.774L182.856 121.451C182.129 124.399 181.369 127.445 182.408 129.895C182.701 130.584 183.115 131.209 183.522 131.838C183.944 132.493 184.365 133.152 184.708 133.856C185.856 136.258 185.977 138.784 186.09 141.227C186.142 142.33 186.191 143.433 186.349 144.51C187.618 153.056 196.089 158.752 203.422 160.431C210.522 162.05 218.511 161.376 228.066 158.315C227.946 151.949 227.72 145.474 225.939 139.473C223.887 132.531 219.757 127.046 214.615 124.422C213.786 124 212.894 123.608 211.994 123.213C208.196 121.545 203.897 119.655 202.978 115.126C202.835 114.422 202.801 113.707 202.775 112.988C202.76 112.536 202.748 112.085 202.681 111.64C202.443 110.055 201.431 108.538 200.316 106.995C196.42 101.622 191.119 95.0681 183.752 90.11Z" fill="url(#paint20_linear_1_585)"/>
<path d="M450.752 217.948C442.549 217.948 433.224 212.486 423.032 201.711L422.332 200.973L422.622 199.998C427.095 184.984 440.58 178.14 451.211 178.14C451.746 178.14 452.269 178.159 452.8 178.189L453.971 178.276C455.767 178.423 457.57 178.475 458.835 178.046C459.674 177.764 460.529 177.244 461.436 176.698L462.261 176.205C466.537 173.717 471.149 172.44 475.219 171.311C479.243 170.189 483.275 169.06 487.3 167.923L501.877 163.827L492.371 186.878C491.456 189.107 490.507 191.23 488.922 192.732C486.807 194.727 484.265 194.961 482.541 194.961C481.717 194.961 480.877 194.904 480.038 194.844C479.277 194.791 478.517 194.739 477.764 194.739C476.04 194.739 474.903 195.055 473.969 195.793C472.926 196.617 472.072 198.078 471.356 199.377C470.837 200.326 470.336 201.293 469.828 202.261C468.382 205.024 466.891 207.885 465.009 210.377C461.286 215.332 456.358 217.948 450.752 217.948ZM426.304 200.04C441.333 215.614 454.408 218.618 462.197 208.262C463.906 205.999 465.265 203.39 466.711 200.631C467.226 199.644 467.742 198.658 468.273 197.687C469.158 196.079 470.231 194.268 471.789 193.037C473.845 191.411 476.186 191.223 477.768 191.223C478.6 191.223 479.443 191.279 480.286 191.339C481.043 191.392 481.8 191.445 482.545 191.445C484.408 191.445 485.557 191.076 486.509 190.176C487.586 189.159 488.328 187.477 489.118 185.545L495.868 169.176L488.264 171.311C484.235 172.455 480.196 173.585 476.164 174.703C472.301 175.776 467.919 176.988 464.034 179.251L463.258 179.71C462.231 180.335 461.161 180.979 459.961 181.382C458.195 181.976 455.97 181.965 453.692 181.781L452.582 181.702C443.189 181.092 430.754 186.78 426.304 200.04Z" fill="url(#paint21_linear_1_585)"/>
<path d="M203.678 345.383C201.118 345.383 198.566 345.135 196.405 344.886C194.104 344.619 191.575 344.126 190.231 342.492C181.414 331.838 182.777 314.471 193.152 305.331C198.054 301.013 204.183 298.769 210.112 296.6C213.474 295.369 216.945 294.097 220.092 292.47C226.993 288.905 232.934 283.228 236.815 276.489C238.389 273.749 239.688 270.729 240.945 267.808L241.928 265.523L243.78 267.153C245.775 268.998 245.47 271.652 245.225 273.79L245.131 274.682C244.841 277.796 245.787 280.894 246.781 284.177C247.108 285.25 247.435 286.319 247.718 287.396C248.877 291.778 249.449 297.869 245.617 302.006C244.796 302.906 243.859 303.595 242.955 304.258C242.108 304.879 241.31 305.462 240.704 306.159C239.149 307.94 238.735 310.5 238.295 313.214C237.862 315.898 237.414 318.677 235.832 321.086C234.202 323.59 231.752 325.099 229.38 326.552C227.757 327.554 226.225 328.495 225.009 329.707C223.605 331.111 222.592 332.922 221.523 334.835C220.337 336.954 219.106 339.153 217.239 340.941C214.11 343.93 209.672 345.383 203.678 345.383ZM241.585 274.998C241.047 276.098 240.486 277.186 239.876 278.244C235.659 285.562 229.21 291.725 221.719 295.595C218.372 297.323 214.792 298.637 211.328 299.906C205.444 302.055 199.891 304.092 195.482 307.974C186.632 315.774 185.423 331.16 192.949 340.256C193.235 340.602 194.135 341.08 196.808 341.393C198.867 341.622 201.295 341.867 203.678 341.867C208.791 341.867 212.333 340.764 214.818 338.396C216.305 336.973 217.352 335.098 218.458 333.118C219.599 331.078 220.777 328.966 222.532 327.219C224.038 325.713 225.822 324.617 227.546 323.556C229.677 322.242 231.695 321.003 232.896 319.162C234.063 317.374 234.436 315.081 234.831 312.649C235.332 309.566 235.844 306.377 238.061 303.844C238.916 302.854 239.913 302.127 240.877 301.415C241.683 300.828 242.44 300.271 243.031 299.62C245.933 296.491 245.082 291.179 244.318 288.288C244.047 287.26 243.735 286.229 243.422 285.201C242.424 281.937 241.4 278.56 241.585 274.998Z" fill="url(#paint22_linear_1_585)"/>
<path d="M150.087 352.48L148.378 350.391C140.999 341.389 132.318 333.634 122.583 327.332L121.943 326.921C119.296 325.223 116.559 323.469 114.601 320.789C107.975 311.689 114.767 299.661 117.993 294.91C118.697 293.882 119.424 292.847 120.154 291.812C124.311 285.924 128.606 279.829 128.361 273.071C128.335 272.48 128.275 271.878 128.218 271.275C128.109 270.112 127.992 268.911 128.079 267.657C128.135 266.938 128.154 265.922 128.173 264.766C128.263 260.391 128.399 256.887 129.231 254.914C130.391 252.154 132.055 250.302 133.527 248.672C134.464 247.633 135.292 246.714 135.887 245.69C135.838 243.977 136.233 242.332 137.065 240.789L140.179 235.014L140.371 241.572C140.427 243.337 140.13 244.919 139.479 246.391C139.881 249.052 141.895 251.932 144.952 254.176L145.344 254.462C149.824 257.749 154.059 260.851 155.546 266.874C156.224 269.638 155.844 272.352 155.471 274.976C155.211 276.851 154.959 278.624 155.095 280.337C155.426 284.595 158.027 288.209 160.783 292.034C162.854 294.906 164.992 297.877 166.257 301.28C169.965 311.249 165.515 321.685 160.64 331.518L156.499 339.748C154.839 343.057 153.126 346.456 151.3 350.063L150.087 352.48ZM136.305 250.855C136.248 250.916 136.199 250.972 136.143 251.032C134.799 252.527 133.406 254.07 132.476 256.284C131.84 257.798 131.753 262.037 131.693 264.845C131.671 266.069 131.644 267.149 131.591 267.906C131.524 268.87 131.622 269.875 131.723 270.944C131.791 271.606 131.851 272.269 131.878 272.932C132.171 280.886 127.526 287.471 123.031 293.841C122.311 294.865 121.592 295.878 120.907 296.89C118.716 300.113 111.992 311.226 117.444 318.714C119.017 320.86 121.359 322.37 123.844 323.962L124.495 324.38C133.786 330.396 142.148 337.696 149.368 346.11C150.75 343.373 152.068 340.749 153.359 338.182L157.5 329.956C162.029 320.823 166.185 311.174 162.963 302.522C161.863 299.563 159.955 296.913 157.933 294.104C155.019 290.054 152.004 285.86 151.593 280.627C151.424 278.53 151.71 276.482 151.989 274.498C152.327 272.1 152.647 269.833 152.128 267.729C150.95 262.944 147.554 260.459 143.266 257.312L142.874 257.026C140.386 255.2 138.473 253.031 137.284 250.754L136.433 252.422L136.305 250.855Z" fill="url(#paint23_linear_1_585)"/>
<path d="M60.1299 393.237C56.0452 393.237 50.944 392.766 47.7063 389.103C46.8969 388.188 46.2946 387.168 45.711 386.189C44.8715 384.774 44.1487 383.554 43.0381 382.974C41.9275 382.398 40.1468 382.564 38.3925 382.808C36.6042 383.053 34.7559 383.23 33.2312 382.902C28.7248 381.954 26.5448 377.798 24.6211 374.127C24.0639 373.062 23.5068 372 22.9007 371.029C19.8513 366.131 14.3059 362.603 6.41888 360.54C5.02218 360.322 3.63282 360.013 2.28882 359.625L3.09465 356.203C4.43489 356.452 5.79014 356.745 7.12661 357.088C8.67391 357.318 10.289 357.438 11.9267 357.438C20.6269 357.434 29.6735 354.144 38.4188 350.959C42.8047 349.363 47.3412 347.714 51.8287 346.475C65.6677 342.65 79.6235 343.019 91.1849 347.552C104.392 352.743 114.583 363.721 117.783 376.205L118.381 378.55L115.964 378.4C104.892 377.685 92.5252 381.769 82.5939 389.28L82.1873 389.581C80.9675 390.5 79.7063 391.452 78.159 392.062C76.2842 392.792 74.2927 392.853 72.5346 392.905L62.1892 393.203C61.5115 393.222 60.8226 393.237 60.1299 393.237ZM41.0014 379.032C42.4094 379.032 43.6066 379.3 44.6682 379.853C46.6635 380.896 47.7666 382.756 48.7379 384.393C49.2649 385.274 49.7543 386.11 50.3454 386.776C52.6532 389.385 56.7868 389.72 60.1336 389.72C60.7925 389.72 61.4475 389.705 62.0913 389.686L72.4405 389.389C73.984 389.34 75.5802 389.295 76.8866 388.783C77.9821 388.354 78.9986 387.586 80.0828 386.769L80.4894 386.468C90.2889 379.055 102.344 374.805 113.536 374.805C113.596 374.805 113.649 374.805 113.709 374.805C110.185 364.346 101.263 355.288 89.9087 350.831C79.0588 346.573 65.8823 346.257 52.7774 349.863C48.4292 351.068 43.9567 352.694 39.6348 354.268C32.1017 357.009 24.3463 359.832 16.5721 360.691C20.638 362.904 23.7592 365.735 25.8975 369.165C26.5526 370.208 27.1509 371.349 27.7495 372.497C29.4625 375.765 31.0852 378.852 33.969 379.465C35.057 379.691 36.5477 379.518 37.9143 379.326C38.9496 379.175 39.9925 379.032 41.0014 379.032Z" fill="url(#paint24_linear_1_585)"/>
<path d="M72.1017 543.81C70.3888 543.81 68.6758 543.663 67.0118 543.381C59.7911 542.138 53.3836 538.219 47.1831 534.428C39.6085 529.794 32.4369 525.404 24.339 525.943L24.0791 522.43C35.0683 521.474 45.7186 515.733 52.5666 507.063L53.1012 506.385C54.6146 504.442 56.3276 502.244 58.9779 501.276C60.9883 500.553 62.6636 500.696 64.192 500.745C64.9375 500.768 65.6942 500.798 66.4396 500.745C72.5422 500.335 76.5553 494.985 80.8019 489.327C82.4923 487.072 84.2391 484.745 86.144 482.727C91.9003 476.647 100.405 473.161 109.478 473.161C117.342 473.161 124.702 475.782 130.199 480.548L130.583 480.883L130.729 481.368C132.476 487.136 130.315 493.818 124.473 500.689C123.735 501.555 122.974 502.417 122.206 503.283C118.803 507.127 115.279 511.095 114.123 515.842C113.931 516.614 113.8 517.397 113.668 518.176C113.344 520.058 113.013 522.008 111.97 523.819C110.728 525.931 108.755 527.351 107.019 528.597C96.2033 536.311 84.6306 543.81 72.1017 543.81ZM34.304 523.864C39.4692 525.581 44.2956 528.533 49.0203 531.424C54.9346 535.042 61.0523 538.784 67.6104 539.91C69.0786 540.162 70.5883 540.29 72.0979 540.29C83.5916 540.294 94.6184 533.118 104.934 525.766C106.564 524.595 108.07 523.511 108.928 522.05C109.651 520.8 109.918 519.238 110.201 517.585C110.347 516.719 110.498 515.846 110.713 514.995C112.072 509.415 115.889 505.109 119.575 500.949C120.324 500.102 121.073 499.262 121.792 498.411C125.199 494.402 128.9 488.499 127.499 482.874C122.688 478.88 116.307 476.681 109.481 476.681C101.372 476.681 93.7977 479.768 88.704 485.148C86.9346 487.019 85.248 489.267 83.6179 491.439C79.0777 497.485 74.3869 503.738 66.673 504.262C65.8222 504.322 64.945 504.296 64.0753 504.265C62.4942 504.216 61.12 504.243 60.1789 504.585C58.4885 505.203 57.2198 506.833 55.8758 508.553L55.3262 509.25C49.9878 516.007 42.5149 521.131 34.304 523.864Z" fill="url(#paint25_linear_1_585)"/>
<path d="M280.666 532.361L277.165 531.981C280.738 499.469 291.437 465.941 307.294 437.57L310.366 439.29C294.735 467.255 284.186 500.309 280.666 532.361Z" fill="url(#paint26_linear_1_585)"/>
<path d="M304.998 442.968L304.824 441.131C303.33 425.173 307.102 410.456 315.448 399.693C323.136 389.766 335.236 383.603 347.023 383.603C349.643 383.603 352.233 383.908 354.718 384.506C355.573 384.71 356.42 384.95 357.271 385.195C359.036 385.696 360.704 386.174 362.383 386.294L362.842 386.31C364.898 386.31 366.859 385.237 368.941 384.1C371.4 382.759 374.189 381.235 377.623 381.235H386.12L378.323 384.608C374.6 386.223 373.256 390.903 372.856 392.841C372.484 394.637 372.318 396.463 372.149 398.394C371.96 400.461 371.768 402.596 371.298 404.711C369.645 412.173 364.585 418.686 357.752 422.123C356.619 422.695 355.441 423.185 354.259 423.67C352.309 424.472 350.472 425.233 348.89 426.366C347.102 427.657 345.66 429.438 344.124 431.328C342.005 433.937 339.817 436.636 336.557 438.131C334.347 439.14 331.953 439.441 329.845 439.704L327.371 440.017C320.008 440.943 312.772 441.854 306.827 442.712L304.998 442.968ZM347.023 387.119C336.301 387.119 325.271 392.762 318.231 401.847C310.758 411.492 307.215 424.612 308.183 438.959C313.762 438.176 320.297 437.351 326.935 436.519L329.408 436.207C331.362 435.962 333.38 435.71 335.096 434.927C337.608 433.775 339.445 431.509 341.391 429.107C343.002 427.123 344.666 425.071 346.835 423.505C348.751 422.131 350.867 421.254 352.915 420.414C354.014 419.962 355.113 419.51 356.168 418.976C362.059 416.009 366.434 410.389 367.861 403.947C368.279 402.054 368.452 400.122 368.636 398.078C368.813 396.128 368.994 394.118 369.404 392.122C369.815 390.15 370.458 388.365 371.305 386.822C371.08 386.942 370.857 387.062 370.628 387.187C368.064 388.591 365.414 390.052 362.123 389.799C360.087 389.653 358.163 389.103 356.299 388.576C355.501 388.346 354.699 388.12 353.89 387.925C351.676 387.39 349.365 387.119 347.023 387.119Z" fill="url(#paint27_linear_1_585)"/>
<path d="M307.987 438.571C315.464 430.703 324.07 423.701 332.009 416.446C322.782 422.379 313.619 428.926 307.987 438.571Z" fill="url(#paint28_linear_1_585)"/>
<path d="M364.265 393.395C367.081 391.742 369.491 389.525 371.603 387.059C369.031 388.941 366.502 391.143 364.265 393.395Z" fill="url(#paint29_linear_1_585)"/>
<path d="M344.238 415.253C344.132 415.253 344.042 415.271 343.936 415.309L344.238 415.253Z" fill="url(#paint30_linear_1_585)"/>
<path d="M320.938 430.3C321.732 430.108 322.662 429.807 323.313 429.453C322.489 429.611 321.675 429.894 320.938 430.3Z" fill="url(#paint31_linear_1_585)"/>
<path d="M333.274 413.265C343.198 408.145 353.318 403.002 361.713 395.507C352.456 400.789 340.171 407.121 333.274 413.265Z" fill="url(#paint32_linear_1_585)"/>
<path d="M314.989 435.932C320.851 435.42 326.483 433.677 331.78 431.181C326.148 432.344 320.267 434.099 314.989 435.932Z" fill="url(#paint33_linear_1_585)"/>
<path d="M313.739 424.807C318.336 418.471 322.402 411.575 326.957 405.329C321.039 410.52 316.593 417.734 313.739 424.807Z" fill="url(#paint34_linear_1_585)"/>
<path d="M309.5 433.203C311.1 428.011 312.911 422.91 314.27 417.647C314.989 415.147 315.659 412.843 317.048 410.709C311.857 416.766 310.362 425.79 309.5 433.203Z" fill="url(#paint35_linear_1_585)"/>
<path d="M361.694 411.748C365.937 405.611 367.273 398.198 369.702 391.302C365.798 397.532 364.265 405.031 361.694 411.748Z" fill="url(#paint36_linear_1_585)"/>
<path d="M362.699 389.084C356.258 390.703 350.17 391.245 343.729 392.021C342.423 392.141 340.879 392.284 339.719 392.442C340.39 392.476 341.037 392.525 341.703 392.567C348.548 393.056 355.659 392.668 362.086 390.082C363.719 389.412 365.304 388.535 366.52 387.213C365.267 388.222 364.156 388.644 362.699 389.084Z" fill="url(#paint37_linear_1_585)"/>
<path d="M97.2611 504.936C104.109 501.995 110.569 498.193 116.551 493.758C120.847 490.765 124.819 487.196 129.54 484.855C117.447 488.992 107.911 498.14 97.2611 504.936Z" fill="url(#paint38_linear_1_585)"/>
<path d="M60.4311 518.59C51.3318 520.299 41.9012 522.618 32.9224 523.782C31.3036 524.015 29.5755 524.184 28.032 524.331C28.5252 524.346 29.0334 524.384 29.5228 524.403C39.6085 524.753 49.6226 523.172 59.4937 521.267C70.5808 519.155 81.5586 516.06 91.7497 511.136C81.5097 514.419 70.9384 516.425 60.4311 518.59Z" fill="url(#paint39_linear_1_585)"/>
<path d="M47.3901 525.754C53.8504 527.795 60.7473 528.006 67.2941 526.172C60.657 526.477 53.9708 526.172 47.3901 525.754Z" fill="url(#paint40_linear_1_585)"/>
<path d="M37.7299 521.843C46.0687 519.644 54.0386 515.861 60.7962 510.492C53.1426 514.174 45.0334 517.939 37.7299 521.843Z" fill="url(#paint41_linear_1_585)"/>
<path d="M96.6475 495.87C89.4531 501.679 83.4484 507.857 75.5313 512.416C74.8272 512.838 74.0329 513.225 73.3138 513.545C74.319 513.263 75.3016 512.89 76.2541 512.469C86.0574 508.316 93.9369 500.73 101.116 495.595C109.56 489.824 118.784 484.877 128.252 481.199C116.935 483.902 105.852 488.638 96.6475 495.87Z" fill="url(#paint42_linear_1_585)"/>
<path d="M70.8329 369.131C85.1576 369.447 98.0216 372.26 112.542 375.923C99.6404 369.775 84.8752 366.613 70.8329 369.131Z" fill="url(#paint43_linear_1_585)"/>
<path d="M11.3807 357.6C10.7144 357.442 9.56975 357.144 9.20081 357.107C10.4657 357.581 11.7156 358.074 12.9655 358.601C19.0154 361.135 25.92 364.429 32.6438 366.274C40.4743 368.386 48.6588 369.267 56.7529 369.015C41.1934 367.155 26.4132 361.771 11.3807 357.6Z" fill="url(#paint44_linear_1_585)"/>
<path d="M43.2037 373.472C46.7764 375.339 50.6466 376.623 54.6597 377.116C50.895 375.87 46.9684 374.409 43.2037 373.472Z" fill="url(#paint45_linear_1_585)"/>
<path d="M51.5087 357.159C55.0475 356.828 58.4621 355.932 61.8578 354.923C58.3868 355.334 54.7087 355.996 51.5087 357.159Z" fill="url(#paint46_linear_1_585)"/>
<path d="M39.7553 356.335C35.2113 358.112 33.0881 359.185 28.8792 360.8C38.1892 358.951 47.232 355.593 55.5558 351.031C50.3492 352.935 44.8904 354.17 39.7553 356.335Z" fill="url(#paint47_linear_1_585)"/>
<path d="M93.3572 364.094C99.5689 367.158 106.187 369.447 112.542 372.015C106.835 368.036 100.009 365.551 93.3572 364.094Z" fill="url(#paint48_linear_1_585)"/>
<path d="M84.1487 383.083C75.7572 386.02 69.2292 387.029 60.6231 386.814C59.0758 386.795 57.0692 386.671 55.7666 386.618C56.8019 386.863 57.8598 387.093 58.8988 387.326C66.0443 388.994 73.664 388.678 80.4367 385.673C83.1134 384.491 85.9445 383.211 87.936 381.028C86.7577 382.097 85.3346 382.571 84.1487 383.083Z" fill="url(#paint49_linear_1_585)"/>
<path d="M143.759 317.543C144.109 328.333 146.628 338.855 148.457 349.434C148.879 338.611 146.379 327.964 143.759 317.543Z" fill="url(#paint50_linear_1_585)"/>
<path d="M137.001 250.042C135.296 261.25 136.651 272.811 138.285 283.654C138.989 272.405 137.687 261.231 137.001 250.042Z" fill="url(#paint51_linear_1_585)"/>
<path d="M140.431 290.498C139.52 294.462 139.659 298.682 140.518 302.59C140.657 298.562 140.54 294.526 140.431 290.498Z" fill="url(#paint52_linear_1_585)"/>
<path d="M136.968 323.582C134.908 317.897 132.408 312.356 130.312 306.69C132.122 316.542 135.206 326.786 141.752 334.564C139.55 330.995 138.443 327.509 136.968 323.582Z" fill="url(#paint53_linear_1_585)"/>
<path d="M156.785 305.862C156.661 305.368 156.521 304.823 156.393 304.363C156.465 305.297 156.518 306.246 156.57 307.179C157.064 317.773 156.589 327.136 154.157 336.902C158.841 327.298 159.545 316.136 156.785 305.862Z" fill="url(#paint54_linear_1_585)"/>
<path d="M118.434 304.506C119.65 313.361 122.432 322.264 127.936 329.425C124.277 321.579 121.566 312.725 118.434 304.506Z" fill="url(#paint55_linear_1_585)"/>
<path d="M218.989 308.591C224.482 304.683 229.971 300.482 233.841 295.023C229.056 299.349 222.953 303.889 218.989 308.591Z" fill="url(#paint56_linear_1_585)"/>
<path d="M190.727 340.034C191.518 338.189 192.433 336.465 193.754 335.162C199.032 329.707 204.209 323.97 209.984 319.061C202.481 322.95 190.607 334.266 190.727 340.034Z" fill="url(#paint57_linear_1_585)"/>
<path d="M211.441 314.046C214.238 311.704 216.772 309.047 219.43 306.551C216.211 308.324 213.519 311.121 211.441 314.046Z" fill="url(#paint58_linear_1_585)"/>
<path d="M218.165 320.89C222.826 316.26 226.842 310.982 229.99 305.21C225.785 310.067 221.244 315.631 218.165 320.89Z" fill="url(#paint59_linear_1_585)"/>
<path d="M203.204 134.12C202.221 132.659 201.005 130.709 200.181 129.493C200.689 130.758 201.197 132.007 201.762 133.239C205.76 142.281 212.284 151.874 222.599 153.914C213.606 150.116 208.625 141.897 203.204 134.12Z" fill="url(#paint60_linear_1_585)"/>
<path d="M181.594 84.2822C184.885 89.7561 186.345 95.6855 187.979 102.127C190.076 110.187 192.222 118.3 195.584 125.935C192.098 112.103 190.709 94.8196 181.594 84.2822Z" fill="url(#paint61_linear_1_585)"/>
<path d="M188.017 126.131C188.194 130.671 189.497 135.072 191.345 139.209C190.57 134.838 189.248 130.106 188.017 126.131Z" fill="url(#paint62_linear_1_585)"/>
<path d="M192.154 101.577C194.827 107.631 198.682 113.033 202.063 118.703C200.071 112.438 196.216 106.844 192.154 101.577Z" fill="url(#paint63_linear_1_585)"/>
<path d="M184.06 108.019C183.074 114.957 182.777 121.941 182.81 128.947C184.407 122.099 184.708 114.991 184.06 108.019Z" fill="url(#paint64_linear_1_585)"/>
<path d="M184.99 103.109C184.851 110.36 186.345 117.434 187.509 124.542C188.002 117.333 186.541 110.153 184.99 103.109Z" fill="url(#paint65_linear_1_585)"/>
<path d="M263.112 76.3425C265.397 85.8785 267.968 95.3844 272.456 104.167C270.076 94.9289 267.177 84.2108 263.112 76.3425Z" fill="url(#paint66_linear_1_585)"/>
<path d="M253.24 10.9646C249.51 31.4484 257.389 51.4239 261.862 71.1321C260.416 50.6145 252.634 31.0794 253.24 10.9646Z" fill="url(#paint67_linear_1_585)"/>
<path d="M272.791 91.0737C272.791 95.9641 273.351 100.595 274.003 105.188C274.443 100.489 273.954 95.5424 272.791 91.0737Z" fill="url(#paint68_linear_1_585)"/>
<path d="M261.877 92.9373C262.773 96.5966 264.339 100.015 266.135 103.32C265.186 99.7137 263.586 96.1071 261.877 92.9373Z" fill="url(#paint69_linear_1_585)"/>
<path d="M242.68 73.8954C242.24 68.5646 241.378 63.2149 240.9 57.918C240.004 65.7335 240.775 73.8615 243.539 81.2366C242.997 78.8573 242.94 76.414 242.68 73.8954Z" fill="url(#paint70_linear_1_585)"/>
<path d="M344.045 71.8362C345.367 78.6842 347.388 85.6564 351.209 91.5294C348.902 85.0202 346.88 77.9802 344.045 71.8362Z" fill="url(#paint71_linear_1_585)"/>
<path d="M342.302 57.6733C342.498 60.6286 343.093 63.5651 344.102 66.366C343.85 63.4597 343.217 60.2409 342.302 57.6733Z" fill="url(#paint72_linear_1_585)"/>
<path d="M339.223 5.38904C339.309 13.6601 338.481 21.8973 338.447 30.1683C338.82 36.6963 339.079 43.2243 339.098 49.7561C340.209 43.2432 340.755 36.6963 340.612 30.0968C340.894 21.8596 340.702 13.4267 339.223 5.38904Z" fill="url(#paint73_linear_1_585)"/>
<path d="M415.548 73.598C414.893 73.8616 414.261 74.1288 413.628 74.3924C406.359 77.295 399.443 81.3081 393.969 86.9778C389.53 91.6197 386.311 97.2366 382.686 102.5C387.034 98.0761 390.765 93.0804 395.2 88.7736C396.469 87.5764 397.681 86.4846 398.863 85.4456C394.266 90.6371 390.641 96.6719 387.158 102.658C392.967 96.2503 397.862 88.5063 403.019 82.0159C406.027 79.6743 409.144 77.5623 412.962 75.2357C413.786 74.6898 414.825 74.0724 415.548 73.598Z" fill="url(#paint74_linear_1_585)"/>
<path d="M458.025 39.5275C450.266 44.4216 444.424 51.5293 437.843 57.7938C435.524 59.9774 432.9 61.8258 430.543 63.9755C430.505 64.0131 430.475 64.047 430.505 64.0959C430.543 64.1336 430.592 64.0959 430.63 64.0771C430.577 64.1185 430.524 64.0621 430.562 64.0094C431.017 63.6366 431.567 63.3919 432.057 63.0945C435.418 61.2461 438.69 59.1868 441.593 56.6719C446.43 52.3576 450.549 47.1999 455.036 42.5204C452.657 47.2903 451.204 52.1468 449.193 57.1613C447.379 61.2461 444.529 67.4729 442.613 72.3331C445.583 67.4729 448.911 62.7406 450.97 57.4098C452.819 52.8319 453.843 46.5863 455.07 42.4828C456.041 41.4625 457.013 40.4762 458.025 39.5275Z" fill="url(#paint75_linear_1_585)"/>
<path d="M446.238 138.694C447.149 137.131 448.312 135.881 449.6 134.526C453.489 130.724 457.555 127.068 461.617 123.439C455.352 127.064 448.949 131.778 446.238 138.694Z" fill="url(#paint76_linear_1_585)"/>
<path d="M490.022 106.193C489.758 106.366 489.472 106.524 489.194 106.701C489.687 106.279 490.199 105.854 490.658 105.398C484.055 109.604 476.702 112.438 470.099 116.644C472.546 115.729 475.027 114.761 477.459 113.688C474.538 115.394 471.65 117.137 468.849 119.076C461.267 124.512 454.37 131.04 449.303 138.923C460.548 125.638 474.342 118.88 488.527 107.789C489.724 106.84 491.204 105.624 492.19 104.762C491.483 105.24 490.745 105.718 490.022 106.193Z" fill="url(#paint77_linear_1_585)"/>
<path d="M496.181 98.5392C500.563 93.4192 504.7 88.0131 507.814 82.046C503.364 87.0983 499.452 92.655 496.181 98.5392Z" fill="url(#paint78_linear_1_585)"/>
<path d="M495.39 111.84C503.379 102.266 506.334 89.5755 510.841 78.0668C503.91 88.7322 501.161 101.178 495.39 111.84Z" fill="url(#paint79_linear_1_585)"/>
<path d="M429.466 199.569C437.598 198.933 445.798 196.26 452.819 192.457C444.935 194.517 437.248 197.19 429.466 199.569Z" fill="url(#paint80_linear_1_585)"/>
<path d="M459.912 188.041C471.722 183.832 482.827 177.041 492.661 169.154C481.416 174.876 470.735 181.581 459.912 188.041Z" fill="url(#paint81_linear_1_585)"/>
<path d="M601.438 185.327C591.07 195.063 581.289 205.724 569.638 213.31C583.612 207.399 594.379 195.977 603.11 183.889C603.309 183.61 603.535 183.29 603.659 183.061C602.933 183.832 602.195 184.589 601.438 185.327Z" fill="url(#paint82_linear_1_585)"/>
<path d="M535.533 246.959C542.306 243.864 548.1 238.775 553.589 233.937C546.952 237.423 541.267 242.577 535.533 246.959Z" fill="url(#paint83_linear_1_585)"/>
<path d="M533.613 243.458C535.533 241.557 537.22 239.339 538.628 237.088C536.644 238.936 535.055 241.154 533.613 243.458Z" fill="url(#paint84_linear_1_585)"/>
<path d="M532.326 235.292C532.996 234.554 533.737 233.624 534.155 232.83C533.421 233.549 532.819 234.377 532.326 235.292Z" fill="url(#paint85_linear_1_585)"/>
<path d="M556.86 237.931C554.078 239.99 552.181 241.858 548.89 243.654C556.194 241.101 563.057 235.292 567.774 229.89C564.409 232.367 559.078 236.188 556.86 237.931Z" fill="url(#paint86_linear_1_585)"/>
<path d="M561.525 308.184C552.369 305.579 543.097 303.309 534.069 300.297C551.055 308.482 570.127 314.415 588.695 315.748C579.475 313.869 570.553 310.823 561.525 308.184Z" fill="url(#paint87_linear_1_585)"/>
<path d="M603.196 312.231C610.379 314.731 618.071 316.455 625.675 315.081C618.048 314.98 610.745 312.973 603.196 312.231Z" fill="url(#paint88_linear_1_585)"/>
<path d="M444.13 329.918C456.395 344.088 471.97 354.912 484.939 368.356C474.184 352.71 458.519 341.848 444.13 329.918Z" fill="url(#paint89_linear_1_585)"/>
<path d="M441.837 336.853C443.332 339.435 445.515 342.04 447.627 343.889C445.899 341.374 443.863 339.123 441.837 336.853Z" fill="url(#paint90_linear_1_585)"/>
<path d="M450.741 331.273C451.268 331.748 451.923 332.241 452.484 332.557C451.961 332.064 451.377 331.627 450.741 331.273Z" fill="url(#paint91_linear_1_585)"/>
<path d="M479.428 345.564C481.702 348.892 484.288 352.303 487.157 355.017C485.003 351.55 482.436 348.327 479.428 345.564Z" fill="url(#paint92_linear_1_585)"/>
<defs>
<linearGradient id="paint0_linear_1_585" x1="361.078" y1="726.82" x2="454.794" y2="712.017" gradientUnits="userSpaceOnUse">
<stop stop-color="#D02964"/>
<stop offset="1" stop-color="#FC8F59"/>
</linearGradient>
<linearGradient id="paint1_linear_1_585" x1="273.545" y1="348.38" x2="288.567" y2="347.476" gradientUnits="userSpaceOnUse">
<stop stop-color="#D02964"/>
<stop offset="1" stop-color="#FC8F59"/>
</linearGradient>
<linearGradient id="paint2_linear_1_585" x1="249.177" y1="229.536" x2="267.968" y2="224.279" gradientUnits="userSpaceOnUse">
<stop stop-color="#D02964"/>
<stop offset="1" stop-color="#FC8F59"/>
</linearGradient>
<linearGradient id="paint3_linear_1_585" x1="357.914" y1="259.834" x2="389.282" y2="253.58" gradientUnits="userSpaceOnUse">
<stop stop-color="#D02964"/>
<stop offset="1" stop-color="#FC8F59"/>
</linearGradient>
<linearGradient id="paint4_linear_1_585" x1="421.909" y1="308.674" x2="440.554" y2="264.051" gradientUnits="userSpaceOnUse">
<stop stop-color="#D02964"/>
<stop offset="1" stop-color="#FC8F59"/>
</linearGradient>
<linearGradient id="paint5_linear_1_585" x1="487.282" y1="263.603" x2="492.382" y2="247.867" gradientUnits="userSpaceOnUse">
<stop stop-color="#D02964"/>
<stop offset="1" stop-color="#FC8F59"/>
</linearGradient>
<linearGradient id="paint6_linear_1_585" x1="404.828" y1="330.095" x2="435.153" y2="308.273" gradientUnits="userSpaceOnUse">
<stop stop-color="#D02964"/>
<stop offset="1" stop-color="#FC8F59"/>
</linearGradient>
<linearGradient id="paint7_linear_1_585" x1="229.717" y1="584.13" x2="300.454" y2="561.259" gradientUnits="userSpaceOnUse">
<stop stop-color="#D02964"/>
<stop offset="1" stop-color="#FC8F59"/>
</linearGradient>
<linearGradient id="paint8_linear_1_585" x1="180.272" y1="435.288" x2="195.023" y2="432.955" gradientUnits="userSpaceOnUse">
<stop stop-color="#D02964"/>
<stop offset="1" stop-color="#FC8F59"/>
</linearGradient>
<linearGradient id="paint9_linear_1_585" x1="136.525" y1="395.797" x2="147.264" y2="384.769" gradientUnits="userSpaceOnUse">
<stop stop-color="#D02964"/>
<stop offset="1" stop-color="#FC8F59"/>
</linearGradient>
<linearGradient id="paint10_linear_1_585" x1="162.682" y1="486.507" x2="167.576" y2="474.869" gradientUnits="userSpaceOnUse">
<stop stop-color="#D02964"/>
<stop offset="1" stop-color="#FC8F59"/>
</linearGradient>
<linearGradient id="paint11_linear_1_585" x1="475.241" y1="411.032" x2="508.494" y2="396.736" gradientUnits="userSpaceOnUse">
<stop stop-color="#D02964"/>
<stop offset="1" stop-color="#FC8F59"/>
</linearGradient>
<linearGradient id="paint12_linear_1_585" x1="570.997" y1="250.208" x2="602.746" y2="232.78" gradientUnits="userSpaceOnUse">
<stop stop-color="#D02964"/>
<stop offset="1" stop-color="#FC8F59"/>
</linearGradient>
<linearGradient id="paint13_linear_1_585" x1="586.476" y1="331.669" x2="610.772" y2="303.525" gradientUnits="userSpaceOnUse">
<stop stop-color="#D02964"/>
<stop offset="1" stop-color="#FC8F59"/>
</linearGradient>
<linearGradient id="paint14_linear_1_585" x1="484.56" y1="142.846" x2="515.704" y2="125.725" gradientUnits="userSpaceOnUse">
<stop stop-color="#D02964"/>
<stop offset="1" stop-color="#FC8F59"/>
</linearGradient>
<linearGradient id="paint15_linear_1_585" x1="426.741" y1="106.953" x2="458.89" y2="87.6893" gradientUnits="userSpaceOnUse">
<stop stop-color="#D02964"/>
<stop offset="1" stop-color="#FC8F59"/>
</linearGradient>
<linearGradient id="paint16_linear_1_585" x1="362.373" y1="129.222" x2="373.057" y2="125.944" gradientUnits="userSpaceOnUse">
<stop stop-color="#D02964"/>
<stop offset="1" stop-color="#FC8F59"/>
</linearGradient>
<linearGradient id="paint17_linear_1_585" x1="259.487" y1="109.054" x2="284.825" y2="102.888" gradientUnits="userSpaceOnUse">
<stop stop-color="#D02964"/>
<stop offset="1" stop-color="#FC8F59"/>
</linearGradient>
<linearGradient id="paint18_linear_1_585" x1="338.013" y1="95.1246" x2="359.53" y2="90.0061" gradientUnits="userSpaceOnUse">
<stop stop-color="#D02964"/>
<stop offset="1" stop-color="#FC8F59"/>
</linearGradient>
<linearGradient id="paint19_linear_1_585" x1="401.984" y1="209.195" x2="406.438" y2="199.093" gradientUnits="userSpaceOnUse">
<stop stop-color="#D02964"/>
<stop offset="1" stop-color="#FC8F59"/>
</linearGradient>
<linearGradient id="paint20_linear_1_585" x1="207.238" y1="164.802" x2="232.159" y2="156.637" gradientUnits="userSpaceOnUse">
<stop stop-color="#D02964"/>
<stop offset="1" stop-color="#FC8F59"/>
</linearGradient>
<linearGradient id="paint21_linear_1_585" x1="465.442" y1="217.948" x2="492.07" y2="198.238" gradientUnits="userSpaceOnUse">
<stop stop-color="#D02964"/>
<stop offset="1" stop-color="#FC8F59"/>
</linearGradient>
<linearGradient id="paint22_linear_1_585" x1="219.188" y1="345.383" x2="247.763" y2="333.818" gradientUnits="userSpaceOnUse">
<stop stop-color="#D02964"/>
<stop offset="1" stop-color="#FC8F59"/>
</linearGradient>
<linearGradient id="paint23_linear_1_585" x1="142.058" y1="352.48" x2="169.42" y2="345.93" gradientUnits="userSpaceOnUse">
<stop stop-color="#D02964"/>
<stop offset="1" stop-color="#FC8F59"/>
</linearGradient>
<linearGradient id="paint24_linear_1_585" x1="65.2053" y1="393.237" x2="90.251" y2="363.582" gradientUnits="userSpaceOnUse">
<stop stop-color="#D02964"/>
<stop offset="1" stop-color="#FC8F59"/>
</linearGradient>
<linearGradient id="paint25_linear_1_585" x1="82.1972" y1="543.81" x2="117.27" y2="516.998" gradientUnits="userSpaceOnUse">
<stop stop-color="#D02964"/>
<stop offset="1" stop-color="#FC8F59"/>
</linearGradient>
<linearGradient id="paint26_linear_1_585" x1="295.159" y1="532.361" x2="311.844" y2="529.418" gradientUnits="userSpaceOnUse">
<stop stop-color="#D02964"/>
<stop offset="1" stop-color="#FC8F59"/>
</linearGradient>
<linearGradient id="paint27_linear_1_585" x1="348.736" y1="442.968" x2="378.037" y2="423.459" gradientUnits="userSpaceOnUse">
<stop stop-color="#D02964"/>
<stop offset="1" stop-color="#FC8F59"/>
</linearGradient>
<linearGradient id="paint28_linear_1_585" x1="321.006" y1="438.571" x2="330.589" y2="433.331" gradientUnits="userSpaceOnUse">
<stop stop-color="#D02964"/>
<stop offset="1" stop-color="#FC8F59"/>
</linearGradient>
<linearGradient id="paint29_linear_1_585" x1="368.242" y1="393.395" x2="371.079" y2="391.74" gradientUnits="userSpaceOnUse">
<stop stop-color="#D02964"/>
<stop offset="1" stop-color="#FC8F59"/>
</linearGradient>
<linearGradient id="paint30_linear_1_585" x1="344.1" y1="415.309" x2="344.119" y2="415.258" gradientUnits="userSpaceOnUse">
<stop stop-color="#D02964"/>
<stop offset="1" stop-color="#FC8F59"/>
</linearGradient>
<linearGradient id="paint31_linear_1_585" x1="322.225" y1="430.3" x2="322.636" y2="429.72" gradientUnits="userSpaceOnUse">
<stop stop-color="#D02964"/>
<stop offset="1" stop-color="#FC8F59"/>
</linearGradient>
<linearGradient id="paint32_linear_1_585" x1="348.687" y1="413.265" x2="357.615" y2="406.064" gradientUnits="userSpaceOnUse">
<stop stop-color="#D02964"/>
<stop offset="1" stop-color="#FC8F59"/>
</linearGradient>
<linearGradient id="paint33_linear_1_585" x1="324.089" y1="435.932" x2="326.176" y2="432.217" gradientUnits="userSpaceOnUse">
<stop stop-color="#D02964"/>
<stop offset="1" stop-color="#FC8F59"/>
</linearGradient>
<linearGradient id="paint34_linear_1_585" x1="320.903" y1="424.807" x2="327.036" y2="422.712" gradientUnits="userSpaceOnUse">
<stop stop-color="#D02964"/>
<stop offset="1" stop-color="#FC8F59"/>
</linearGradient>
<linearGradient id="paint35_linear_1_585" x1="313.591" y1="433.203" x2="317.394" y2="432.56" gradientUnits="userSpaceOnUse">
<stop stop-color="#D02964"/>
<stop offset="1" stop-color="#FC8F59"/>
</linearGradient>
<linearGradient id="paint36_linear_1_585" x1="366.034" y1="411.748" x2="370.028" y2="410.96" gradientUnits="userSpaceOnUse">
<stop stop-color="#D02964"/>
<stop offset="1" stop-color="#FC8F59"/>
</linearGradient>
<linearGradient id="paint37_linear_1_585" x1="354.244" y1="392.749" x2="356.244" y2="387.873" gradientUnits="userSpaceOnUse">
<stop stop-color="#D02964"/>
<stop offset="1" stop-color="#FC8F59"/>
</linearGradient>
<linearGradient id="paint38_linear_1_585" x1="114.755" y1="504.936" x2="124.859" y2="496.756" gradientUnits="userSpaceOnUse">
<stop stop-color="#D02964"/>
<stop offset="1" stop-color="#FC8F59"/>
</linearGradient>
<linearGradient id="paint39_linear_1_585" x1="62.5639" y1="524.452" x2="67.4139" y2="512.764" gradientUnits="userSpaceOnUse">
<stop stop-color="#D02964"/>
<stop offset="1" stop-color="#FC8F59"/>
</linearGradient>
<linearGradient id="paint40_linear_1_585" x1="58.1771" y1="527.426" x2="58.4561" y2="525.753" gradientUnits="userSpaceOnUse">
<stop stop-color="#D02964"/>
<stop offset="1" stop-color="#FC8F59"/>
</linearGradient>
<linearGradient id="paint41_linear_1_585" x1="50.2307" y1="521.843" x2="56.0685" y2="515.868" gradientUnits="userSpaceOnUse">
<stop stop-color="#D02964"/>
<stop offset="1" stop-color="#FC8F59"/>
</linearGradient>
<linearGradient id="paint42_linear_1_585" x1="103.088" y1="513.545" x2="119.527" y2="499.483" gradientUnits="userSpaceOnUse">
<stop stop-color="#D02964"/>
<stop offset="1" stop-color="#FC8F59"/>
</linearGradient>
<linearGradient id="paint43_linear_1_585" x1="93.4373" y1="375.923" x2="95.9745" y2="368.966" gradientUnits="userSpaceOnUse">
<stop stop-color="#D02964"/>
<stop offset="1" stop-color="#FC8F59"/>
</linearGradient>
<linearGradient id="paint44_linear_1_585" x1="34.9718" y1="369.057" x2="39.8838" y2="359.212" gradientUnits="userSpaceOnUse">
<stop stop-color="#D02964"/>
<stop offset="1" stop-color="#FC8F59"/>
</linearGradient>
<linearGradient id="paint45_linear_1_585" x1="49.4123" y1="377.116" x2="51.1053" y2="374.436" gradientUnits="userSpaceOnUse">
<stop stop-color="#D02964"/>
<stop offset="1" stop-color="#FC8F59"/>
</linearGradient>
<linearGradient id="paint46_linear_1_585" x1="57.1174" y1="357.159" x2="57.9511" y2="355.216" gradientUnits="userSpaceOnUse">
<stop stop-color="#D02964"/>
<stop offset="1" stop-color="#FC8F59"/>
</linearGradient>
<linearGradient id="paint47_linear_1_585" x1="43.3366" y1="360.8" x2="48.1177" y2="354.225" gradientUnits="userSpaceOnUse">
<stop stop-color="#D02964"/>
<stop offset="1" stop-color="#FC8F59"/>
</linearGradient>
<linearGradient id="paint48_linear_1_585" x1="103.754" y1="372.015" x2="107.75" y2="367.141" gradientUnits="userSpaceOnUse">
<stop stop-color="#D02964"/>
<stop offset="1" stop-color="#FC8F59"/>
</linearGradient>
<linearGradient id="paint49_linear_1_585" x1="73.2009" y1="388.33" x2="76.0157" y2="382.085" gradientUnits="userSpaceOnUse">
<stop stop-color="#D02964"/>
<stop offset="1" stop-color="#FC8F59"/>
</linearGradient>
<linearGradient id="paint50_linear_1_585" x1="146.331" y1="349.434" x2="148.776" y2="349.251" gradientUnits="userSpaceOnUse">
<stop stop-color="#D02964"/>
<stop offset="1" stop-color="#FC8F59"/>
</linearGradient>
<linearGradient id="paint51_linear_1_585" x1="137.446" y1="283.654" x2="138.623" y2="283.613" gradientUnits="userSpaceOnUse">
<stop stop-color="#D02964"/>
<stop offset="1" stop-color="#FC8F59"/>
</linearGradient>
<linearGradient id="paint52_linear_1_585" x1="140.227" y1="302.59" x2="140.627" y2="302.577" gradientUnits="userSpaceOnUse">
<stop stop-color="#D02964"/>
<stop offset="1" stop-color="#FC8F59"/>
</linearGradient>
<linearGradient id="paint53_linear_1_585" x1="136.512" y1="334.564" x2="142.197" y2="333.388" gradientUnits="userSpaceOnUse">
<stop stop-color="#D02964"/>
<stop offset="1" stop-color="#FC8F59"/>
</linearGradient>
<linearGradient id="paint54_linear_1_585" x1="156.458" y1="336.902" x2="158.649" y2="336.758" gradientUnits="userSpaceOnUse">
<stop stop-color="#D02964"/>
<stop offset="1" stop-color="#FC8F59"/>
</linearGradient>
<linearGradient id="paint55_linear_1_585" x1="123.584" y1="329.425" x2="128.332" y2="328.513" gradientUnits="userSpaceOnUse">
<stop stop-color="#D02964"/>
<stop offset="1" stop-color="#FC8F59"/>
</linearGradient>
<linearGradient id="paint56_linear_1_585" x1="227.038" y1="308.591" x2="232.94" y2="305.337" gradientUnits="userSpaceOnUse">
<stop stop-color="#D02964"/>
<stop offset="1" stop-color="#FC8F59"/>
</linearGradient>
<linearGradient id="paint57_linear_1_585" x1="201.163" y1="340.034" x2="209.384" y2="336.232" gradientUnits="userSpaceOnUse">
<stop stop-color="#D02964"/>
<stop offset="1" stop-color="#FC8F59"/>
</linearGradient>
<linearGradient id="paint58_linear_1_585" x1="215.77" y1="314.046" x2="218.984" y2="312.321" gradientUnits="userSpaceOnUse">
<stop stop-color="#D02964"/>
<stop offset="1" stop-color="#FC8F59"/>
</linearGradient>
<linearGradient id="paint59_linear_1_585" x1="224.573" y1="320.89" x2="229.928" y2="318.856" gradientUnits="userSpaceOnUse">
<stop stop-color="#D02964"/>
<stop offset="1" stop-color="#FC8F59"/>
</linearGradient>
<linearGradient id="paint60_linear_1_585" x1="212.331" y1="153.914" x2="221.902" y2="149.489" gradientUnits="userSpaceOnUse">
<stop stop-color="#D02964"/>
<stop offset="1" stop-color="#FC8F59"/>
</linearGradient>
<linearGradient id="paint61_linear_1_585" x1="189.176" y1="125.935" x2="196.223" y2="124.743" gradientUnits="userSpaceOnUse">
<stop stop-color="#D02964"/>
<stop offset="1" stop-color="#FC8F59"/>
</linearGradient>
<linearGradient id="paint62_linear_1_585" x1="189.821" y1="139.209" x2="191.517" y2="138.992" gradientUnits="userSpaceOnUse">
<stop stop-color="#D02964"/>
<stop offset="1" stop-color="#FC8F59"/>
</linearGradient>
<linearGradient id="paint63_linear_1_585" x1="197.524" y1="118.703" x2="202.257" y2="117.324" gradientUnits="userSpaceOnUse">
<stop stop-color="#D02964"/>
<stop offset="1" stop-color="#FC8F59"/>
</linearGradient>
<linearGradient id="paint64_linear_1_585" x1="183.659" y1="128.947" x2="184.472" y2="128.916" gradientUnits="userSpaceOnUse">
<stop stop-color="#D02964"/>
<stop offset="1" stop-color="#FC8F59"/>
</linearGradient>
<linearGradient id="paint65_linear_1_585" x1="186.404" y1="124.542" x2="187.759" y2="124.458" gradientUnits="userSpaceOnUse">
<stop stop-color="#D02964"/>
<stop offset="1" stop-color="#FC8F59"/>
</linearGradient>
<linearGradient id="paint66_linear_1_585" x1="268.176" y1="104.167" x2="272.883" y2="103.371" gradientUnits="userSpaceOnUse">
<stop stop-color="#D02964"/>
<stop offset="1" stop-color="#FC8F59"/>
</linearGradient>
<linearGradient id="paint67_linear_1_585" x1="257.467" y1="71.1321" x2="262.407" y2="70.7354" gradientUnits="userSpaceOnUse">
<stop stop-color="#D02964"/>
<stop offset="1" stop-color="#FC8F59"/>
</linearGradient>
<linearGradient id="paint68_linear_1_585" x1="273.534" y1="105.188" x2="274.244" y2="105.153" gradientUnits="userSpaceOnUse">
<stop stop-color="#D02964"/>
<stop offset="1" stop-color="#FC8F59"/>
</linearGradient>
<linearGradient id="paint69_linear_1_585" x1="264.184" y1="103.32" x2="266.3" y2="102.883" gradientUnits="userSpaceOnUse">
<stop stop-color="#D02964"/>
<stop offset="1" stop-color="#FC8F59"/>
</linearGradient>
<linearGradient id="paint70_linear_1_585" x1="242.167" y1="81.2366" x2="243.712" y2="81.1367" gradientUnits="userSpaceOnUse">
<stop stop-color="#D02964"/>
<stop offset="1" stop-color="#FC8F59"/>
</linearGradient>
<linearGradient id="paint71_linear_1_585" x1="347.928" y1="91.5294" x2="351.52" y2="90.8713" gradientUnits="userSpaceOnUse">
<stop stop-color="#D02964"/>
<stop offset="1" stop-color="#FC8F59"/>
</linearGradient>
<linearGradient id="paint72_linear_1_585" x1="343.277" y1="66.366" x2="344.2" y2="66.2699" gradientUnits="userSpaceOnUse">
<stop stop-color="#D02964"/>
<stop offset="1" stop-color="#FC8F59"/>
</linearGradient>
<linearGradient id="paint73_linear_1_585" x1="339.68" y1="49.7561" x2="340.858" y2="49.7257" gradientUnits="userSpaceOnUse">
<stop stop-color="#D02964"/>
<stop offset="1" stop-color="#FC8F59"/>
</linearGradient>
<linearGradient id="paint74_linear_1_585" x1="400.496" y1="102.658" x2="413.354" y2="95.3349" gradientUnits="userSpaceOnUse">
<stop stop-color="#D02964"/>
<stop offset="1" stop-color="#FC8F59"/>
</linearGradient>
<linearGradient id="paint75_linear_1_585" x1="445.414" y1="72.3331" x2="457.519" y2="67.217" gradientUnits="userSpaceOnUse">
<stop stop-color="#D02964"/>
<stop offset="1" stop-color="#FC8F59"/>
</linearGradient>
<linearGradient id="paint76_linear_1_585" x1="454.573" y1="138.694" x2="460.908" y2="135.477" gradientUnits="userSpaceOnUse">
<stop stop-color="#D02964"/>
<stop offset="1" stop-color="#FC8F59"/>
</linearGradient>
<linearGradient id="paint77_linear_1_585" x1="472.546" y1="138.923" x2="488.422" y2="128.885" gradientUnits="userSpaceOnUse">
<stop stop-color="#D02964"/>
<stop offset="1" stop-color="#FC8F59"/>
</linearGradient>
<linearGradient id="paint78_linear_1_585" x1="502.485" y1="98.5392" x2="507.838" y2="96.6379" gradientUnits="userSpaceOnUse">
<stop stop-color="#D02964"/>
<stop offset="1" stop-color="#FC8F59"/>
</linearGradient>
<linearGradient id="paint79_linear_1_585" x1="503.763" y1="111.84" x2="511.366" y2="110.088" gradientUnits="userSpaceOnUse">
<stop stop-color="#D02964"/>
<stop offset="1" stop-color="#FC8F59"/>
</linearGradient>
<linearGradient id="paint80_linear_1_585" x1="442.122" y1="199.569" x2="445.362" y2="194.211" gradientUnits="userSpaceOnUse">
<stop stop-color="#D02964"/>
<stop offset="1" stop-color="#FC8F59"/>
</linearGradient>
<linearGradient id="paint81_linear_1_585" x1="477.66" y1="188.041" x2="487.288" y2="179.634" gradientUnits="userSpaceOnUse">
<stop stop-color="#D02964"/>
<stop offset="1" stop-color="#FC8F59"/>
</linearGradient>
<linearGradient id="paint82_linear_1_585" x1="588.076" y1="213.31" x2="601.423" y2="205.75" gradientUnits="userSpaceOnUse">
<stop stop-color="#D02964"/>
<stop offset="1" stop-color="#FC8F59"/>
</linearGradient>
<linearGradient id="paint83_linear_1_585" x1="545.318" y1="246.959" x2="551.608" y2="242.567" gradientUnits="userSpaceOnUse">
<stop stop-color="#D02964"/>
<stop offset="1" stop-color="#FC8F59"/>
</linearGradient>
<linearGradient id="paint84_linear_1_585" x1="536.331" y1="243.458" x2="538.576" y2="242.568" gradientUnits="userSpaceOnUse">
<stop stop-color="#D02964"/>
<stop offset="1" stop-color="#FC8F59"/>
</linearGradient>
<linearGradient id="paint85_linear_1_585" x1="533.317" y1="235.292" x2="534.149" y2="234.981" gradientUnits="userSpaceOnUse">
<stop stop-color="#D02964"/>
<stop offset="1" stop-color="#FC8F59"/>
</linearGradient>
<linearGradient id="paint86_linear_1_585" x1="559.124" y1="243.654" x2="565.748" y2="239.077" gradientUnits="userSpaceOnUse">
<stop stop-color="#D02964"/>
<stop offset="1" stop-color="#FC8F59"/>
</linearGradient>
<linearGradient id="paint87_linear_1_585" x1="563.673" y1="315.748" x2="570.461" y2="303.663" gradientUnits="userSpaceOnUse">
<stop stop-color="#D02964"/>
<stop offset="1" stop-color="#FC8F59"/>
</linearGradient>
<linearGradient id="paint88_linear_1_585" x1="615.379" y1="315.568" x2="616.31" y2="312.409" gradientUnits="userSpaceOnUse">
<stop stop-color="#D02964"/>
<stop offset="1" stop-color="#FC8F59"/>
</linearGradient>
<linearGradient id="paint89_linear_1_585" x1="466.247" y1="368.356" x2="482.692" y2="359.563" gradientUnits="userSpaceOnUse">
<stop stop-color="#D02964"/>
<stop offset="1" stop-color="#FC8F59"/>
</linearGradient>
<linearGradient id="paint90_linear_1_585" x1="444.975" y1="343.889" x2="447.536" y2="342.828" gradientUnits="userSpaceOnUse">
<stop stop-color="#D02964"/>
<stop offset="1" stop-color="#FC8F59"/>
</linearGradient>
<linearGradient id="paint91_linear_1_585" x1="451.685" y1="332.557" x2="452.301" y2="332.136" gradientUnits="userSpaceOnUse">
<stop stop-color="#D02964"/>
<stop offset="1" stop-color="#FC8F59"/>
</linearGradient>
<linearGradient id="paint92_linear_1_585" x1="483.616" y1="355.017" x2="487.041" y2="353.607" gradientUnits="userSpaceOnUse">
<stop stop-color="#D02964"/>
<stop offset="1" stop-color="#FC8F59"/>
</linearGradient>
</defs>
</svg>
