<svg width="641" height="1103" viewBox="0 0 641 1103" fill="none" xmlns="http://www.w3.org/2000/svg">
<g clip-path="url(#clip0_1_480)">
<path d="M342.379 476.889L341.938 476.796C320.37 472.281 310.77 448.466 304.825 428.213C295.73 397.401 286.307 365.543 283.427 332.526C280.235 295.506 286.343 262.155 301.099 236.071L302.279 233.98L304.64 234.45C309.518 235.424 314.275 238.005 318.421 241.781C318.123 226.763 324.423 210.272 336.348 195.253C342.051 188.078 348.53 181.443 354.795 175.029C364.53 165.052 373.724 155.63 380.508 144.167C383.203 139.609 385.529 134.659 387.776 129.867C390.827 123.381 393.97 116.675 398.179 110.567C409.643 93.8132 427.42 83.4239 444.608 73.3687C449.443 70.5456 454.265 67.7225 458.937 64.7714C477.39 53.1021 499.307 33.0772 498.944 3.9643L505.579 3.55896C508.48 30.2612 520.469 55.3634 532.06 79.6407C537.308 90.6416 542.741 102.012 547.314 113.475C577.458 188.995 572.331 276.739 533.582 348.185C492.999 422.987 419.904 472.295 342.805 476.867L342.379 476.889ZM305.657 241.589C292.466 266.165 287.075 297.34 290.062 331.957C292.885 364.299 302.201 395.836 311.211 426.329C316.601 444.661 325.056 466.158 342.883 470.197C417.536 465.596 488.341 417.66 527.751 345.013C565.561 275.275 570.574 189.643 541.148 115.936C536.661 104.679 531.278 93.4079 526.073 82.5065C517.063 63.6407 507.833 44.2843 502.592 23.8399C496.924 41.3616 483.349 57.1981 462.507 70.3821C457.771 73.3758 452.878 76.2345 447.979 79.1074C431.424 88.7856 414.307 98.7981 403.669 114.329C399.765 119.996 396.871 126.162 393.806 132.69C391.488 137.618 389.099 142.716 386.24 147.552C379.043 159.698 369.145 169.852 359.559 179.666C353.415 185.966 347.051 192.48 341.568 199.385C330.553 213.244 320.875 234.535 326.748 252.711C327.787 254.467 328.818 256.871 329.571 259.275L323.484 261.87C322.247 259.609 321.216 257.212 320.419 254.752C316.914 248.487 311.459 243.559 305.657 241.589Z" fill="url(#paint0_linear_1_480)"/>
<path d="M266.503 658.45C265.756 658.45 264.996 658.201 264.377 657.682C262.969 656.508 262.777 654.41 263.95 653.002C300.651 608.992 365.739 581.827 438.052 580.355L444.153 580.234C503.488 579.054 570.731 577.717 626.667 556.384C628.395 555.722 630.308 556.583 630.955 558.304C631.609 560.018 630.755 561.945 629.035 562.599C572.011 584.359 504.156 585.703 444.281 586.89L438.187 587.011C367.765 588.448 304.54 614.716 269.049 657.269C268.402 658.044 267.456 658.45 266.503 658.45Z" fill="url(#paint1_linear_1_480)"/>
<path d="M483.733 652.59C456.512 652.59 430.002 643.986 404.373 635.659C378.873 627.381 354.781 619.559 330.19 619.559C325.163 619.559 320.213 619.9 315.47 620.576L310.08 621.337L311.865 616.188C332.324 557.145 393.565 514.748 456.157 516.163C487.296 516.946 516.516 527.314 544.789 537.333C573.568 547.538 600.633 557.138 627.741 556.149L635.584 555.865L630.343 561.696C590.663 605.849 550.621 645.977 497.138 651.865C492.779 652.348 488.27 652.59 483.733 652.59ZM330.197 612.91C355.847 612.91 381.561 621.266 406.436 629.337C431.573 637.5 457.572 645.941 483.741 645.941C488.029 645.941 492.295 645.714 496.412 645.259C545.358 639.875 583.218 603.744 620.373 562.827C594.66 562.059 569.323 553.084 542.578 543.598C514.802 533.749 486.08 523.566 456 522.805C398.151 521.17 341.184 559.57 320.007 613.351C323.349 613.059 326.756 612.91 330.197 612.91Z" fill="url(#paint2_linear_1_480)"/>
<path d="M558.329 833.291C557.092 833.291 555.904 832.594 555.335 831.399C533.76 786.62 495.019 750.055 449.06 731.083C403.108 712.124 349.853 710.745 302.983 727.292C277.853 736.16 248.398 755.594 248.093 781.18C248.071 783.015 246.386 784.558 244.722 784.459C242.887 784.437 241.415 782.93 241.444 781.095C241.792 752.117 272.313 731.068 300.765 721.02C349.17 703.939 404.125 705.355 451.598 724.939C499.058 744.53 539.051 782.283 561.323 828.519C562.119 830.169 561.43 832.16 559.773 832.956C559.303 833.177 558.813 833.291 558.329 833.291Z" fill="url(#paint3_linear_1_480)"/>
<path d="M567.395 845.877L561.408 841.113C536.277 821.102 504.242 810.08 471.203 810.08C459.299 810.08 447.573 811.545 436.33 814.432C431.829 815.591 427.385 816.956 422.94 818.329C414.883 820.818 406.549 823.385 397.945 824.622C381.994 826.89 367.474 823.548 358.101 815.242C348.8 807.029 345.081 795.246 341.482 783.861C339.577 777.845 337.614 771.623 334.855 766.147C325.916 748.398 306.254 736.466 285.923 736.466C283.484 736.466 281.045 736.643 278.677 736.992L271.374 738.073L275.406 731.886C299.143 695.548 344.256 668.611 387.662 664.871C431.858 661.038 479.801 679.811 512.889 713.831C543.829 745.646 562.965 789.834 566.77 838.254L567.395 845.877ZM471.21 803.424C503.125 803.424 534.165 813.28 559.452 831.314C554.482 787.374 536.412 747.53 508.146 718.46C476.416 685.849 430.549 667.801 388.259 671.498C349.07 674.876 308.444 698.016 284.956 729.824C308.018 729.262 330.624 742.93 340.807 763.146C343.808 769.106 345.856 775.584 347.833 781.856C351.31 792.864 354.595 803.26 362.51 810.258C370.361 817.219 380.828 818.677 388.224 818.677C391.082 818.677 394.034 818.464 396.999 818.037C405.091 816.878 412.814 814.496 420.978 811.971C425.522 810.578 430.066 809.17 434.674 807.989C446.457 804.967 458.752 803.424 471.21 803.424Z" fill="url(#paint4_linear_1_480)"/>
<path d="M283.229 611.182C281.728 611.182 280.37 610.151 280 608.636C258.361 518.546 214.052 414.595 155.207 315.922C154.269 314.343 154.781 312.302 156.359 311.363C157.931 310.418 159.979 310.937 160.917 312.515C195.186 369.98 257.074 484.676 286.464 607.079C286.891 608.864 285.789 610.656 284.004 611.083C283.741 611.147 283.485 611.182 283.229 611.182Z" fill="url(#paint5_linear_1_480)"/>
<path d="M269.113 559.847L269.077 556.59L265.799 557.522C259.698 538.165 241.28 525.401 225.906 516.448C223.118 514.827 220.295 513.234 217.472 511.634C202.34 503.1 186.702 494.275 175.623 480.38C155.214 454.823 155.492 419.324 157.355 388.064C159.232 356.519 161.152 324.057 144.754 298.72L132.075 279.115L149.724 294.396C158.542 302.034 166.215 309.038 173.412 315.595C188.103 329.006 200.804 340.583 217.145 351.918C241.202 368.608 266.972 389.771 275.755 420.213C282.162 442.414 278.151 465.632 274.268 488.082C270.436 510.247 266.468 533.173 272.192 555.715L269.113 556.59V559.847ZM158.108 310.688C167.161 334.937 165.497 363.004 163.989 388.313C162.19 418.492 161.87 452.519 180.807 476.235C191.076 489.12 206.151 497.618 220.722 505.845C223.58 507.459 226.432 509.059 229.241 510.702C240.668 517.358 253.689 526.034 262.834 537.966C261.867 520.672 264.825 503.598 267.712 486.944C271.637 464.238 275.342 442.784 269.355 422.055C261.148 393.611 236.437 373.401 213.34 357.379C196.629 345.781 183.787 334.069 168.91 320.494C165.447 317.337 161.877 314.073 158.108 310.688Z" fill="url(#paint6_linear_1_480)"/>
<path d="M245.134 758.667C243.705 758.667 242.375 757.728 241.948 756.284C214.286 662.972 156.622 578.819 79.559 519.335C78.1012 518.211 77.8381 516.128 78.9546 514.67C80.0781 513.227 82.1688 512.956 83.6195 514.073C161.778 574.403 220.274 659.751 248.32 754.4C248.839 756.156 247.843 758.012 246.08 758.532C245.76 758.617 245.447 758.667 245.134 758.667Z" fill="url(#paint7_linear_1_480)"/>
<path d="M208.775 663.342L203.627 662.311C172.886 656.16 138.731 647.335 122.489 620.348C116.068 609.66 113.351 597.472 110.727 585.696C109.604 580.626 108.438 575.385 106.994 570.4C99.5913 544.757 83.6197 521.952 62.0234 506.215L45.6108 494.24L64.9815 500.348C133.014 521.817 188.971 583.79 207.517 658.25L208.775 663.342ZM80.5122 513.255C95.9077 528.522 107.342 547.637 113.38 568.544C114.88 573.728 116.068 579.068 117.22 584.245C119.844 596.021 122.318 607.157 128.185 616.914C142.194 640.188 170.752 648.679 199.716 654.723C182.258 591.228 136.832 537.76 80.5122 513.255Z" fill="url(#paint8_linear_1_480)"/>
<path d="M252.089 880.985C247.922 875.687 243.84 870.304 239.851 864.821C227.627 853.33 209.088 844.818 183.182 838.78C179.264 837.87 175.317 837.003 171.349 836.135C146.873 830.759 121.557 825.205 102.059 808.942C79.4524 790.112 69.7742 761.369 60.416 733.571L57.792 725.827C53.3405 712.786 42.752 700.789 32.5049 689.191C19.8471 674.841 7.87914 661.294 6.63471 645.742L6.57764 645.074L6.79096 644.434C6.9403 643.971 6.9901 643.495 7.03988 643.09C7.431 639.662 9.8347 639.392 10.56 639.392C12.5725 639.392 13.3474 640.579 15.1891 643.445L16.9386 646.14C26.8514 661.344 46.5564 669.436 77.2124 670.901C80.3128 671.051 83.4346 671.157 86.5706 671.278C107.705 672.046 129.564 672.828 147.563 684.462C170.204 699.097 179.164 725.557 187.84 751.15C189.113 754.89 190.379 758.617 191.666 762.265C203.2 794.663 221.099 827.687 244.857 860.412C250.162 865.497 254.464 871.207 257.643 877.401L252.089 880.985ZM16.1991 655.982C20.4943 665.539 28.8142 674.969 37.4897 684.789C48.1635 696.878 59.1998 709.379 64.078 723.68L66.7093 731.452C75.7759 758.375 85.1555 786.208 106.311 803.843C124.558 819.068 149.07 824.437 172.779 829.65C176.768 830.524 180.75 831.399 184.69 832.316C202.318 836.419 216.768 841.689 228.309 848.274C209.671 820.306 195.278 792.195 185.415 764.505C184.107 760.821 182.841 757.074 181.561 753.298C173.248 728.786 164.658 703.435 143.964 690.059C127.509 679.42 106.574 678.659 86.3359 677.927C83.1786 677.813 80.0213 677.699 76.8995 677.55C48.199 676.178 28.2382 669.102 16.1991 655.982Z" fill="url(#paint9_linear_1_480)"/>
<path d="M255.075 883.95C253.859 883.95 252.686 883.275 252.103 882.115C238.649 855.406 213.354 839.157 186.566 821.962C174.726 814.361 162.474 806.489 151.466 797.692C133.496 783.299 118.471 763.801 103.943 744.956C85.8167 721.433 68.7 699.218 46.5915 686.46C27.5764 675.495 18.4174 662.802 11.0502 652.597C9.77025 650.827 8.53284 649.12 7.29548 647.477C6.19326 646.012 6.48484 643.922 7.94262 642.819C9.41462 641.71 11.4911 642.009 12.6004 643.467C13.8733 645.145 15.132 646.894 16.4405 648.707C23.8005 658.898 32.1418 670.446 49.9125 680.7C73.166 694.112 91.4914 717.899 109.212 740.896C123.506 759.427 138.275 778.606 155.619 792.494C166.357 801.084 178.46 808.85 190.158 816.366C216.512 833.291 243.769 850.791 258.034 879.129C258.858 880.764 258.197 882.763 256.554 883.587C256.085 883.829 255.573 883.95 255.075 883.95Z" fill="url(#paint10_linear_1_480)"/>
<path d="M343.723 1101.22C342.514 1101.22 341.348 1100.55 340.758 1099.4C287.524 994.72 239.858 891.616 241.444 781.088C243.065 667.559 296.982 563.623 349.12 463.107C363.463 435.452 378.297 406.866 391.716 378.649C454.251 247.221 489.337 124.555 498.973 3.65848C499.122 1.82382 500.765 0.501159 502.55 0.607825C504.384 0.757159 505.742 2.35005 505.6 4.18471C495.901 125.906 460.615 249.333 397.718 381.5C384.242 409.824 369.394 438.467 355.022 466.165C303.239 565.991 249.7 669.223 248.093 781.18C246.528 890.187 293.846 992.473 346.688 1096.37C347.52 1098.01 346.866 1100.01 345.23 1100.84C344.747 1101.1 344.228 1101.22 343.723 1101.22Z" fill="url(#paint11_linear_1_480)"/>
</g>
<defs>
<linearGradient id="paint0_linear_1_480" x1="436.605" y1="476.889" x2="571.52" y2="436.097" gradientUnits="userSpaceOnUse">
<stop stop-color="#D02964"/>
<stop offset="1" stop-color="#FC8F59"/>
</linearGradient>
<linearGradient id="paint1_linear_1_480" x1="462.616" y1="658.45" x2="507.14" y2="577.779" gradientUnits="userSpaceOnUse">
<stop stop-color="#D02964"/>
<stop offset="1" stop-color="#FC8F59"/>
</linearGradient>
<linearGradient id="paint2_linear_1_480" x1="486.488" y1="652.59" x2="555.526" y2="569.654" gradientUnits="userSpaceOnUse">
<stop stop-color="#D02964"/>
<stop offset="1" stop-color="#FC8F59"/>
</linearGradient>
<linearGradient id="paint3_linear_1_480" x1="414.982" y1="833.291" x2="476.716" y2="753.089" gradientUnits="userSpaceOnUse">
<stop stop-color="#D02964"/>
<stop offset="1" stop-color="#FC8F59"/>
</linearGradient>
<linearGradient id="paint4_linear_1_480" x1="431.803" y1="845.877" x2="523.397" y2="770.642" gradientUnits="userSpaceOnUse">
<stop stop-color="#D02964"/>
<stop offset="1" stop-color="#FC8F59"/>
</linearGradient>
<linearGradient id="paint5_linear_1_480" x1="226.177" y1="611.182" x2="291.3" y2="596.785" gradientUnits="userSpaceOnUse">
<stop stop-color="#D02964"/>
<stop offset="1" stop-color="#FC8F59"/>
</linearGradient>
<linearGradient id="paint6_linear_1_480" x1="211.769" y1="559.847" x2="283.009" y2="541.053" gradientUnits="userSpaceOnUse">
<stop stop-color="#D02964"/>
<stop offset="1" stop-color="#FC8F59"/>
</linearGradient>
<linearGradient id="paint7_linear_1_480" x1="170.501" y1="758.667" x2="249.094" y2="731.202" gradientUnits="userSpaceOnUse">
<stop stop-color="#D02964"/>
<stop offset="1" stop-color="#FC8F59"/>
</linearGradient>
<linearGradient id="paint8_linear_1_480" x1="134.038" y1="663.342" x2="202.435" y2="630.105" gradientUnits="userSpaceOnUse">
<stop stop-color="#D02964"/>
<stop offset="1" stop-color="#FC8F59"/>
</linearGradient>
<linearGradient id="paint9_linear_1_480" x1="142.643" y1="880.985" x2="244.766" y2="827.536" gradientUnits="userSpaceOnUse">
<stop stop-color="#D02964"/>
<stop offset="1" stop-color="#FC8F59"/>
</linearGradient>
<linearGradient id="paint10_linear_1_480" x1="143.07" y1="883.95" x2="245.393" y2="830.295" gradientUnits="userSpaceOnUse">
<stop stop-color="#D02964"/>
<stop offset="1" stop-color="#FC8F59"/>
</linearGradient>
<linearGradient id="paint11_linear_1_480" x1="384.592" y1="1101.22" x2="519.526" y2="1084.9" gradientUnits="userSpaceOnUse">
<stop stop-color="#D02964"/>
<stop offset="1" stop-color="#FC8F59"/>
</linearGradient>
<clipPath id="clip0_1_480">
<rect width="640" height="1102.22" fill="white" transform="translate(0.277344 0.0958252)"/>
</clipPath>
</defs>
</svg>
