<svg width="640" height="1413" viewBox="0 0 640 1413" fill="none" xmlns="http://www.w3.org/2000/svg">
<path d="M323.229 405.275L316.645 403.34C316.947 401.898 317.425 400.456 318.08 399.073C324.745 377.004 316.344 352.978 308.208 329.74C305.839 322.95 303.382 315.932 301.337 309.076C294.172 284.977 293.554 263.798 299.52 246.128C304.537 231.239 314.174 218.674 323.509 206.514C325.973 203.299 328.438 200.092 330.814 196.855C341.591 182.084 345.806 170.078 348.881 145.501L351.124 127.559L355.627 145.067C357.892 153.887 359.047 160.949 360.062 167.18C361.703 177.214 362.887 184.467 367.654 193.214C370.207 197.9 373.216 202.498 376.129 206.941C379.674 212.348 383.353 217.946 386.347 223.919C397.778 246.628 398.44 274.553 388.075 296.791C385.942 301.359 383.338 305.795 380.837 310.084C375.055 319.956 369.604 329.276 369.552 339.715C369.545 341.635 369.714 343.548 369.89 345.453C370.17 348.572 370.457 351.794 370.045 355.112C368.191 369.751 354.847 378.262 343.062 385.78C335.051 390.886 327.481 395.719 324.487 401.596C324.127 402.832 323.7 404.053 323.229 405.275ZM352.706 164.767C349.528 179.384 344.842 189.315 336.375 200.909C333.97 204.204 331.468 207.456 328.975 210.707C319.985 222.411 310.694 234.512 306.045 248.327C300.55 264.622 301.19 284.395 307.943 307.112C309.936 313.806 312.364 320.75 314.711 327.467C321.736 347.557 328.953 368.199 327.099 388.436C330.747 385.493 335.007 382.772 339.376 379.991C350.396 372.966 361.791 365.705 363.233 354.258C363.557 351.676 363.314 348.955 363.056 346.071C362.865 343.945 362.674 341.819 362.689 339.686C362.74 327.408 368.934 316.837 374.907 306.619C377.342 302.463 379.858 298.166 381.852 293.9C391.349 273.515 390.716 247.893 380.211 227.016C377.387 221.396 373.833 215.967 370.383 210.722C367.397 206.154 364.307 201.438 361.629 196.509C356.289 186.74 354.964 178.597 353.28 168.291C353.103 167.15 352.912 165.981 352.706 164.767Z" fill="url(#paint0_linear_1_32)"/>
<path d="M370.008 512.559L373.26 504.894C386.795 473.041 384.589 458.321 382.043 441.284C380.947 433.957 379.807 426.372 379.777 416.942C379.748 408.092 386.744 399.286 392.923 391.526C394.468 389.584 395.932 387.737 397.153 386.052C401.074 380.624 406.547 376.982 411.836 373.451L413.933 372.046C446.374 350.146 471.32 316.072 482.369 278.532L486.481 264.585L489.056 278.893C492.631 298.748 496.331 319.279 494.639 339.892C492.704 363.454 483.59 383.345 468.973 395.895C466.567 397.97 463.926 399.934 461.293 401.891C453.635 407.592 446.404 412.977 444.793 421.054C444.491 422.562 444.395 424.099 444.292 425.637C444.138 427.932 443.983 430.293 443.277 432.692C440.548 442.034 432.125 446.323 423.989 450.464C420.112 452.443 416.103 454.488 412.969 457.004C405.686 462.875 401.832 472.497 398.102 481.81C393.556 493.168 388.848 504.909 377.718 509.433L370.008 512.559ZM484.62 293.341C471.614 327.231 447.787 357.488 417.795 377.732L415.662 379.16C410.659 382.492 405.937 385.648 402.737 390.062C401.464 391.827 399.934 393.755 398.308 395.792C393.107 402.332 386.634 410.468 386.656 416.905C386.685 425.835 387.781 433.17 388.848 440.261C391.069 455.128 393.188 469.297 384.692 494.315C387.406 490.005 389.532 484.701 391.717 479.25C395.777 469.113 399.971 458.637 408.658 451.634C412.344 448.677 416.677 446.463 420.863 444.329C428.02 440.688 434.781 437.238 436.671 430.757C437.157 429.072 437.289 427.182 437.429 425.166C437.554 423.327 437.686 421.488 438.054 419.686C440.173 409.026 448.824 402.589 457.188 396.366C459.697 394.498 462.205 392.636 464.493 390.665C477.734 379.292 486.01 361.063 487.79 339.318C489.041 324.053 487.158 308.561 484.62 293.341Z" fill="url(#paint1_linear_1_32)"/>
<path d="M403.59 633.335L400.096 625.383C378.13 575.264 421.915 528.088 441.755 510.139C451.781 501.091 463.64 494.47 475.108 488.085C479.853 485.436 484.591 482.788 489.21 479.978C508.521 468.201 519.989 455.629 524.263 441.534L528.964 426.063L530.965 442.108C532.414 453.694 534.069 462.646 535.401 469.848C538.74 487.96 540.425 497.045 532.466 513.045C529.56 518.9 524.859 523.351 520.313 527.654C515.266 532.421 510.507 536.938 508.712 542.838C507.616 546.472 507.697 550.488 507.792 554.74C507.903 559.985 508.02 565.407 505.887 570.615C501.311 581.907 488.96 586.497 476.3 589.771L440.982 598.922C432.648 601.07 423.202 603.513 416.559 609.317C410.122 614.952 410.122 614.952 406.503 625.14L403.59 633.335ZM525.837 454.974C519.342 466.133 508.432 476.315 492.793 485.848C488.1 488.71 483.281 491.402 478.463 494.087C467.333 500.296 455.82 506.711 446.374 515.244C428.785 531.149 391.246 571.226 403.355 614.143C405.201 610.214 407.055 608.486 412.028 604.145C419.899 597.26 430.183 594.612 439.254 592.272L474.571 583.121C484.752 580.495 495.905 576.942 499.517 568.033C501.113 564.134 501.017 559.647 500.914 554.902C500.811 550.297 500.708 545.538 502.128 540.859C504.445 533.201 510.11 527.838 515.583 522.667C519.886 518.591 523.947 514.751 526.301 509.992C533.245 496.044 531.899 488.739 528.64 471.099C527.794 466.509 526.816 461.212 525.837 454.974Z" fill="url(#paint2_linear_1_32)"/>
<path d="M418.972 799.625L413.447 795.535C423.04 781.374 429.683 764.991 432.64 748.145C433.648 742.407 434.288 736.375 434.906 730.549C436.465 715.763 438.084 700.484 445.786 687.242C457.372 667.277 479.029 657.567 499.95 648.173C503.128 646.753 506.277 645.333 509.374 643.892C534.915 632.004 548.958 616.82 556.336 593.14L560.368 580.215L562.994 593.493C565.664 607.014 568.702 622.33 567.724 637.477C566.628 654.676 560.213 669.308 549.664 678.687C544.471 683.292 538.313 686.654 532.355 689.898C523.733 694.599 515.59 699.035 511.029 706.722C508.807 710.474 507.593 714.784 506.306 719.353C505.541 722.089 504.754 724.833 503.761 727.489C495.353 750.073 474.49 762.078 454.297 773.687C440.46 781.653 427.395 789.172 418.972 799.625ZM558.521 606.779C549.767 626.045 535.378 639.382 512.279 650.137C509.153 651.594 505.975 653.028 502.768 654.463C482.832 663.408 462.212 672.655 451.73 690.707C444.77 702.676 443.292 716.572 441.747 731.277C441.114 737.229 440.467 743.371 439.422 749.344C437.517 760.18 434.17 770.84 429.55 780.896C436.259 776.144 443.63 771.899 450.876 767.735C470.003 756.738 489.776 745.357 497.317 725.091C498.244 722.612 498.965 720.044 499.685 717.492C501.032 712.703 502.429 707.752 505.107 703.22C510.632 693.907 519.996 688.809 529.052 683.866C534.672 680.806 540.484 677.635 545.089 673.552C554.269 665.394 559.875 652.432 560.861 637.05C561.515 626.972 560.235 616.614 558.521 606.779Z" fill="url(#paint3_linear_1_32)"/>
<path d="M413.992 914.303L415.183 907.689C416.92 898.045 419.994 888.982 421.157 885.576C432.714 851.347 455.231 807.791 496.794 794.674C502.179 792.99 507.711 791.871 513.067 790.797C516.774 790.047 520.482 789.304 524.145 788.37C555.91 780.329 585.659 757.157 607.919 723.105L610.472 719.206L613.444 722.796C630.091 742.878 621.241 774.157 603.895 794.674C600.482 798.705 596.796 802.538 593.236 806.253C587.196 812.535 581.48 818.479 576.853 825.387C571.086 834.016 566.996 844.3 563.045 854.246C556.351 871.084 549.422 888.504 534.017 898.98C524.322 905.578 512.574 908.646 497.067 908.646C489.247 908.646 481.118 907.903 473.254 907.182C465.427 906.461 457.32 905.725 449.567 905.725C437.539 905.725 428.167 907.528 420.061 911.412L413.992 914.303ZM610.876 731.035C587.998 764.256 557.955 786.906 525.837 795.02C522.071 795.991 518.245 796.756 514.42 797.528C509.249 798.573 503.893 799.647 498.854 801.229C460.05 813.477 438.724 855.055 427.667 887.776C426.814 890.299 424.872 896.015 423.268 902.672C430.823 900.068 439.349 898.84 449.552 898.84C457.622 898.84 465.883 899.605 473.872 900.333C481.582 901.039 489.548 901.768 497.052 901.768C511.308 901.768 521.512 899.156 530.141 893.286C543.794 883.995 550.04 868.311 556.645 851.7C560.736 841.431 564.958 830.794 571.137 821.554C576.103 814.146 582.29 807.71 588.263 801.486C591.801 797.801 595.347 794.115 598.635 790.231C613.024 773.216 621.153 748.271 610.876 731.035Z" fill="url(#paint4_linear_1_32)"/>
<path d="M540.3 1055.96C529.059 1055.96 518.01 1053.43 507.329 1050.99C503.268 1050.06 499.215 1049.14 495.154 1048.35C467.855 1043.07 436.414 1043.71 405.583 1050.06L399.713 1051.27L401.633 1045.6C411.924 1015.11 423.26 986.475 448.471 971.299C466.847 960.257 488.511 959.206 509.462 958.198C518.473 957.756 527.786 957.315 536.621 956.057C575.191 950.584 610.964 927.882 632.305 895.331L637.896 886.812L638.617 896.971C640.853 928.537 639.934 960.324 618.24 978.987C614.665 982.062 610.626 984.658 606.727 987.16C599.172 992.015 592.029 996.598 588.984 1003.99C587.424 1007.79 587.093 1012.03 586.74 1016.53C586.446 1020.33 586.137 1024.26 585.055 1028.13C579.994 1046.07 560.206 1055.08 543.948 1055.87C542.735 1055.93 541.513 1055.96 540.3 1055.96ZM456.305 1037.9C470.275 1037.9 483.781 1039.15 496.456 1041.6C500.598 1042.4 504.732 1043.35 508.866 1044.29C520.261 1046.9 532.009 1049.57 543.617 1049C557.499 1048.33 574.308 1040.93 578.435 1026.27C579.332 1023.06 579.597 1019.62 579.884 1016C580.259 1011.17 580.649 1006.17 582.613 1001.38C586.483 991.985 594.884 986.593 602.998 981.37C606.705 978.994 610.538 976.53 613.752 973.771C631.018 958.911 633.482 933.598 632.32 907.196C609.545 937.019 574.815 957.58 537.592 962.862C528.434 964.164 518.959 964.62 509.793 965.061C488.769 966.084 468.906 967.047 452.016 977.192C430.293 990.264 419.45 1015.09 410.063 1042.18C425.585 1039.35 441.107 1037.9 456.305 1037.9Z" fill="url(#paint5_linear_1_32)"/>
<path d="M375.945 1210.49L371.355 1205.61C359.989 1193.54 337.155 1180.73 317.205 1180.73C312.585 1180.73 308.399 1181.45 304.78 1182.86C302.691 1183.68 300.616 1184.6 298.542 1185.52C292.944 1187.98 287.162 1190.54 280.82 1191.5C279.423 1191.7 277.988 1191.81 276.554 1191.81C267.108 1191.81 259.207 1187.47 255.949 1180.5C255.014 1178.49 254.529 1176.47 254.051 1174.52C253.683 1172.99 253.33 1171.46 252.705 1170.04C249.505 1162.83 240.898 1161.54 230.915 1160.05C221.381 1158.63 211.524 1157.14 205.013 1150.01C199.423 1143.87 198.474 1135.88 197.554 1128.14C197.054 1123.88 196.568 1119.87 195.369 1116.2C193.42 1110.22 189.352 1104.89 185.343 1099.94C173.197 1084.95 159.735 1070.97 145.332 1058.39L139.049 1052.9L147.377 1052.37C163.06 1051.37 179.171 1055.63 192.221 1064.17C194.538 1065.68 196.789 1067.34 199.04 1069C202.74 1071.74 206.242 1074.32 210.104 1076.24C216.18 1079.29 223.103 1080.77 231.261 1080.77C239.934 1080.77 248.85 1079.18 258.281 1077.51C270.492 1075.33 283.241 1073.08 295.562 1074.5C310.783 1076.24 323.899 1083.6 331.542 1094.7C333.779 1097.93 336.574 1101 339.524 1104.24C344.048 1109.21 348.734 1114.34 351.566 1120.43L352.052 1121.48C356.156 1130.24 357.687 1133.53 360.357 1143.44C362.659 1151.99 365.859 1160.4 368.942 1168.53C374.334 1182.72 378.983 1194.98 377.24 1203.93L375.945 1210.49ZM317.205 1173.84C335.941 1173.84 356.907 1184.07 370.31 1195.23C369.17 1188.48 365.904 1179.89 362.505 1170.95C359.356 1162.66 356.105 1154.09 353.714 1145.21C351.198 1135.86 349.845 1132.97 345.821 1124.37L345.328 1123.32C342.937 1118.18 338.81 1113.65 334.448 1108.86C331.469 1105.59 328.386 1102.21 325.885 1098.59C319.463 1089.26 307.84 1082.81 294.783 1081.31C283.299 1079.99 271.22 1082.17 259.48 1084.26C250.167 1085.92 240.544 1087.62 231.261 1087.62C222.007 1087.62 214.076 1085.91 207.022 1082.37C202.63 1080.18 198.724 1077.3 194.95 1074.51C192.817 1072.93 190.683 1071.35 188.462 1069.91C179.075 1063.76 167.908 1060.05 156.601 1059.25C168.761 1070.47 180.208 1082.67 190.691 1095.6C195.104 1101.04 199.607 1106.96 201.909 1114.05C203.322 1118.36 203.866 1122.91 204.388 1127.32C205.212 1134.28 205.992 1140.86 210.089 1145.36C214.959 1150.7 223.206 1151.93 231.938 1153.23C242.913 1154.88 254.264 1156.57 258.994 1167.24C259.833 1169.14 260.296 1171.05 260.738 1172.9C261.15 1174.6 261.532 1176.2 262.172 1177.59C265.225 1184.12 273.626 1185.63 279.79 1184.69C285.227 1183.88 290.347 1181.62 295.768 1179.23C297.924 1178.27 300.079 1177.32 302.257 1176.46C306.693 1174.72 311.724 1173.84 317.205 1173.84Z" fill="url(#paint6_linear_1_32)"/>
<path d="M493.58 1201.1C482.619 1201.1 471.592 1197.68 460.925 1194.37C458.505 1193.61 456.092 1192.86 453.694 1192.17C442.196 1188.77 430.249 1186.49 418.207 1185.37C416.184 1185.18 414.073 1185.07 411.947 1185.07C405.723 1185.07 385.14 1186.18 381.374 1200.4L374.613 1199.08L374.716 1198.67L381.661 1171.44C392.268 1131.44 432.964 1101.72 474.718 1104.24C484.973 1104.88 495.007 1107.25 504.702 1109.56C513.133 1111.55 521.85 1113.63 530.479 1114.47C554.556 1116.79 579.627 1109.24 598.017 1094.3L598.076 1093.61L598.819 1093.65C598.922 1093.56 599.018 1093.48 599.121 1093.4L607.125 1086.66L604.807 1097.61C603.755 1120.86 599.908 1146 580.686 1158.5C574.654 1162.39 567.879 1164.46 561.324 1166.45C556.079 1168.05 551.113 1169.56 546.56 1171.93C540.844 1174.91 535.893 1179.2 530.663 1183.75C524.042 1189.5 517.186 1195.45 508.565 1198.59C503.901 1200.28 499.001 1201.1 493.58 1201.1ZM411.947 1178.2C414.293 1178.2 416.611 1178.32 418.847 1178.53C431.331 1179.68 443.719 1182.05 455.643 1185.57C458.056 1186.28 460.506 1187.04 462.963 1187.8C473.136 1190.97 483.656 1194.23 493.58 1194.23C498.192 1194.23 502.319 1193.54 506.211 1192.13C513.64 1189.44 519.709 1184.15 526.146 1178.57C531.45 1173.96 536.938 1169.2 543.382 1165.84C548.502 1163.17 553.997 1161.5 559.323 1159.87C565.701 1157.93 571.726 1156.1 576.942 1152.72C591.926 1142.99 596.171 1123.24 597.569 1103.71L597.333 1103.9L597.363 1103.44C578.126 1117.11 553.902 1123.66 529.824 1121.31C520.739 1120.43 511.787 1118.3 503.128 1116.25C493.712 1114.01 483.972 1111.71 474.306 1111.11C435.781 1108.8 398.124 1136.25 388.325 1173.16L385.398 1184.66C391.952 1180.49 401.052 1178.2 411.947 1178.2Z" fill="url(#paint7_linear_1_32)"/>
<path d="M401.104 1059.08L396.329 1053.87C387.45 1044.19 373.495 1032.63 357.429 1032.63C354.979 1032.63 352.5 1032.89 350.073 1033.42C345.924 1034.33 341.915 1035.65 337.663 1037.06C331.976 1038.94 326.091 1040.88 319.897 1041.69C318.242 1041.91 316.55 1042.02 314.843 1042.02C303.125 1042.02 293.635 1037.1 289.457 1028.87C287.691 1025.38 287.036 1021.68 286.411 1018.12C285.815 1014.75 285.264 1011.56 283.807 1008.93C280.232 1002.45 272.294 1000.4 263.886 998.224C257.052 996.458 249.975 994.634 244.274 990.308C234.895 983.187 231.989 971.763 229.172 960.728C228.583 958.426 228.002 956.145 227.362 953.924C223.345 939.984 221.448 937.637 209.111 922.314C205.977 918.43 202.211 913.751 197.606 907.881L187.932 895.551L201.88 902.694C251.241 927.956 260.002 930.332 270.889 930.332L274.472 930.288C276.929 930.236 279.673 930.185 283.005 930.281C286.661 930.229 290.494 930.133 294.334 930.053C300.079 929.92 305.861 929.78 311.629 929.78C331.307 929.78 354.023 931.288 373.348 942.47C392.909 953.762 393.299 968.57 393.74 985.703C393.916 992.471 394.1 999.459 395.344 1007.23C399.507 1015.79 405.547 1032.29 402.259 1052.12L401.104 1059.08ZM357.429 1025.76C370.347 1025.76 383.647 1032.02 396.234 1043.97C397.021 1028.96 392.335 1016.7 389.172 1010.28L388.23 1008.37L388.473 1007.86C387.215 999.813 387.031 992.427 386.854 985.887C386.413 968.975 386.119 957.801 369.891 948.429C352.015 938.093 331.322 936.666 311.614 936.666C305.905 936.666 300.168 936.798 294.474 936.931C290.612 937.026 286.75 937.107 282.939 937.159C279.386 937.07 276.966 937.122 274.582 937.166L270.867 937.218C259.767 937.218 251.483 935.334 212.804 915.958C213.37 916.664 213.915 917.348 214.452 917.996C226.957 933.517 229.569 936.754 233.961 952.018C234.623 954.314 235.226 956.66 235.829 959.029C238.463 969.379 240.956 979.163 248.416 984.828C253.028 988.322 259.413 989.97 265.6 991.566C275.038 994.008 284.808 996.532 289.825 1005.61C291.825 1009.25 292.51 1013.15 293.179 1016.92C293.738 1020.15 294.275 1023.18 295.585 1025.75C299.101 1032.67 307.833 1035.14 314.836 1035.14C316.234 1035.14 317.631 1035.05 318.992 1034.87C324.539 1034.14 329.858 1032.39 335.485 1030.53C339.715 1029.13 344.092 1027.68 348.594 1026.69C351.515 1026.07 354.487 1025.76 357.429 1025.76Z" fill="url(#paint8_linear_1_32)"/>
<path d="M334.543 891.152C330.475 891.152 326.591 890.321 323.009 888.666C316.454 885.672 311.739 880.213 307.178 874.939C302.117 869.083 297.328 863.559 290.729 862.308C286.249 861.44 281.828 862.639 276.98 863.875C272.949 864.912 268.785 865.972 264.408 865.972C249.416 865.95 239.536 854.621 229.988 843.667C225.64 838.687 221.153 833.538 216.32 829.668C212.465 826.586 208.162 824.158 203.601 821.584C199.518 819.281 195.303 816.905 191.389 813.992C180.73 806.054 175.426 795.447 177.192 785.626C177.655 782.978 178.597 780.565 179.516 778.233C180.156 776.607 180.811 774.989 181.223 773.297C182.694 767.316 180.848 760.629 176.515 756.274L174.793 754.538L175.867 752.346C178.339 747.27 183.224 743.982 188.307 743.982C191.102 743.982 193.567 745.012 195.229 746.88C198.157 750.132 198.871 754.295 199.503 757.959C199.687 759.033 199.871 760.107 200.114 761.151C204.211 778.38 226.619 784.493 244.553 784.493C258.501 784.397 272.257 782.661 285.55 780.969C297.644 779.439 310.142 777.85 322.582 777.475C323.803 777.438 325.032 777.409 326.267 777.409C332.373 777.409 340.281 777.909 347.299 781.83C359.062 788.407 363.593 801.199 367.978 813.58C368.964 816.368 369.949 819.134 371.001 821.804C379.593 843.366 396.55 861.418 417.523 871.342L415.014 877.727C402.575 873.784 396.153 872.173 392.842 872.173C391.187 872.173 390.363 872.556 388.723 873.313C386.979 874.13 384.581 875.248 380.439 876.123C374.135 877.418 367.632 880.339 361.35 883.171C352.625 887.084 343.584 891.152 334.543 891.152ZM287.625 855.143C289.081 855.143 290.538 855.268 292.009 855.548C300.962 857.24 306.759 863.956 312.379 870.437C316.645 875.373 320.684 880.037 325.878 882.413C335.227 886.709 346.622 882.251 358.54 876.881C365.16 873.909 372.009 870.827 379.042 869.37C382.404 868.664 384.221 867.818 385.832 867.068C388.252 865.95 390.51 864.92 395.218 865.42C381.734 854.636 371.009 840.386 364.616 824.32C363.527 821.576 362.512 818.722 361.497 815.86C357.355 804.164 353.442 793.129 343.945 787.818C339.553 785.368 334.102 784.28 326.267 784.28C325.105 784.28 323.95 784.302 322.795 784.339C310.679 784.706 298.343 786.266 286.418 787.781C272.912 789.488 258.95 791.261 245.032 791.349C224.103 791.349 198.444 783.846 193.412 762.711C193.133 761.527 192.927 760.32 192.713 759.106C192.199 756.09 191.706 753.243 190.109 751.456C189.072 750.294 185.512 750.75 183.224 753.494C187.873 759.445 189.705 767.581 187.895 774.945C187.395 776.931 186.652 778.836 185.902 780.741C185.07 782.838 184.283 784.824 183.945 786.803C182.415 795.307 188.896 803.561 195.472 808.46C199.033 811.116 202.88 813.278 206.955 815.581C211.553 818.178 216.305 820.855 220.594 824.283C225.92 828.55 230.606 833.928 235.152 839.136C244.09 849.391 252.528 859.064 264.401 859.086C267.91 859.086 271.478 858.167 275.266 857.203C279.239 856.195 283.358 855.143 287.625 855.143Z" fill="url(#paint9_linear_1_32)"/>
<path d="M410.534 756.98C402.126 753.861 392.975 749.116 383.287 744.085C362.086 733.094 338.075 720.633 311.408 719.228C297.931 718.514 284.234 720.802 270.948 723.001C260.973 724.657 250.659 726.356 240.331 726.856C238.772 726.937 237.19 726.974 235.601 726.974C213.392 726.974 186.012 718.889 175.721 696.202C173.992 692.407 172.859 688.449 171.77 684.624C170.968 681.791 170.167 678.959 169.115 676.208C166.43 669.271 160.375 665.769 153.372 661.723C143.949 656.28 133.267 650.1 129.133 634.086L126.507 623.904L134.643 630.562C146.729 640.464 164.936 644.186 187.344 641.464C195.23 640.5 203.241 638.897 210.987 637.337C221.999 635.13 233.379 632.85 244.914 632.283C271.066 630.981 297.328 638.897 318.374 654.08C335.882 666.704 349.492 683.947 362.659 700.609C378.181 720.28 392.85 738.847 413.44 750.757L410.534 756.98ZM306.288 712.224C308.112 712.224 309.937 712.269 311.768 712.364C339.311 713.813 363.579 726.128 385.052 737.258C374.937 727.276 366.014 715.976 357.275 704.905C344.401 688.603 331.086 671.743 314.365 659.686C294.569 645.407 269.837 637.999 245.245 639.176C234.233 639.706 223.103 641.942 212.34 644.105C204.476 645.687 196.333 647.32 188.175 648.305C169.151 650.623 152.732 648.541 140.094 642.229C144.353 648.57 150.459 652.109 156.822 655.779C164.274 660.083 171.976 664.533 175.537 673.744C176.67 676.679 177.53 679.717 178.398 682.748C179.472 686.499 180.473 690.038 181.988 693.355C190.934 713.078 215.555 720.103 235.608 720.103C237.08 720.103 238.544 720.066 240.008 719.993C249.939 719.515 260.053 717.837 269.837 716.219C281.703 714.262 293.981 712.224 306.288 712.224Z" fill="url(#paint10_linear_1_32)"/>
<path d="M407.849 630.547L400.647 624.353C381.308 607.706 378.343 609.339 369.162 610.707L367.978 610.884C366.051 611.171 364.351 611.458 362.792 611.715C354.7 613.083 349.411 613.554 340.487 610.759C331.034 607.816 324.804 600.313 318.786 593.074C313.857 587.13 309.201 581.532 303.007 578.435C299.204 576.537 295.018 575.61 290.214 575.61C282.703 575.61 274.817 577.817 266.468 580.149C260.208 581.9 253.742 583.709 247.312 584.548C228.274 587.027 207.522 579.715 194.185 565.848C190.051 561.545 186.549 556.66 183.158 551.93C177.817 544.478 172.763 537.438 165.605 532.818L169.056 526.875C191.89 538.726 218.821 543.522 244.362 540.226C252.918 539.145 261.547 537.144 269.896 535.217C277.657 533.429 285.683 531.575 293.76 530.413C314.637 527.441 332.035 530.185 344.886 538.527C356.252 545.898 363.932 557.389 370.707 567.526C374.481 573.161 379.329 578.803 384.015 584.261C393.85 595.715 404.017 607.551 406.275 621.175L407.849 630.547ZM375.879 603.123C381.925 603.123 387.428 605.308 395.733 611.502C391.754 603.836 385.412 596.436 378.806 588.749C373.988 583.136 369.008 577.332 364.999 571.366C358.591 561.766 351.331 550.908 341.157 544.302C329.732 536.894 313.909 534.496 294.746 537.225C286.955 538.35 279.069 540.167 271.448 541.933C262.944 543.904 254.131 545.927 245.245 547.06C224.574 549.701 202.954 547.377 183.253 540.476C185.166 542.919 186.968 545.435 188.748 547.921C191.993 552.453 195.347 557.131 199.143 561.081C210.987 573.403 229.201 579.95 246.422 577.729C252.359 576.956 258.582 575.213 264.614 573.528C273.045 571.174 281.747 568.739 290.207 568.739C296.107 568.739 301.3 569.902 306.074 572.285C313.563 576.029 318.896 582.459 324.061 588.682C329.696 595.458 335.007 601.858 342.525 604.197C350.286 606.624 353.994 606.227 361.644 604.94C363.24 604.675 364.991 604.381 366.97 604.086L368.147 603.91C370.957 603.483 373.37 603.123 375.879 603.123Z" fill="url(#paint11_linear_1_32)"/>
<path d="M364.999 494.396L357.495 487.967C344.232 476.601 335.676 476.197 322.722 475.594C320.11 475.469 317.359 475.343 314.409 475.108C302.735 474.218 290.656 473.291 278.687 473.291C265.828 473.291 254.713 474.394 244.716 476.675C239.537 477.852 234.233 479.353 228.885 480.868C216.666 484.333 204.028 487.908 192.052 487.908C182.113 487.908 173.83 485.458 166.702 480.412C160.184 475.8 155.498 469.348 150.967 463.11C145.788 455.974 140.896 449.243 133.723 445.646C129.273 443.41 123.601 442.1 118.128 440.835C106.77 438.201 93.8963 435.222 91.2774 422.68C90.3873 418.45 91.1671 414.455 91.9248 410.593C92.4471 407.937 92.9473 405.422 92.8443 403.031C92.4103 392.151 80.8315 385.721 69.6277 379.52C67.2148 378.174 64.8314 376.857 62.5877 375.511C33.8833 358.275 20.4433 325.731 8.12886 291.075L1.41992 272.184L14.0433 287.757C30.4847 308.039 59.6599 309.245 87.8788 310.415C92.2558 310.591 96.5887 310.775 100.819 311.018C127.287 312.614 153.144 318.338 177.692 328.048C184.055 330.556 191.265 333.742 196.09 339.877C200.122 345.004 201.718 351.161 203.255 357.12C204.624 362.395 205.911 367.382 208.765 371.325C214.172 378.792 223.941 381.256 234.277 383.853C245.407 386.663 256.92 389.561 263.746 399.183C267.844 404.929 269.124 411.704 270.36 418.258C271.397 423.724 272.368 428.888 274.869 433.229C281.975 445.572 298.417 447.86 314.314 450.089L319.596 450.847C345.188 454.643 359.415 465.714 363.108 484.693L364.999 494.396ZM19.4944 302.139C30.2125 330.38 42.9758 355.715 66.1335 369.618C68.3109 370.928 70.6208 372.208 72.9748 373.51C85.2379 380.307 99.1413 388.017 99.7298 402.759C99.8623 405.966 99.2664 408.997 98.6852 411.925C98.0305 415.257 97.4126 418.413 98.0158 421.275C99.6269 428.962 107.277 431.257 119.688 434.133C125.558 435.494 131.627 436.899 136.813 439.496C145.486 443.851 151.099 451.59 156.543 459.064C160.942 465.118 165.091 470.841 170.682 474.792C176.611 478.985 183.599 481.03 192.059 481.03C203.079 481.03 215.246 477.58 227.024 474.247C232.482 472.703 237.904 471.165 243.193 469.966C253.705 467.568 265.321 466.413 278.694 466.413C290.921 466.413 303.132 467.347 314.946 468.252C317.823 468.473 320.5 468.605 323.053 468.715C333.484 469.201 342.209 469.613 352.714 475.947C347.071 466.126 335.963 460.219 318.58 457.652L313.357 456.901C296.644 454.569 277.687 451.914 268.911 436.664C265.828 431.309 264.695 425.328 263.599 419.538C262.444 413.455 261.356 407.702 258.134 403.171C252.771 395.616 242.965 393.144 232.585 390.525C221.514 387.73 210.06 384.853 203.189 375.349C199.577 370.347 198.062 364.498 196.598 358.841C195.171 353.332 193.817 348.123 190.676 344.129C186.917 339.347 180.701 336.618 175.169 334.448C151.29 325.002 126.146 319.426 100.414 317.881C96.2209 317.639 91.9321 317.455 87.5993 317.278C64.1914 316.322 38.2015 315.248 19.4944 302.139Z" fill="url(#paint12_linear_1_32)"/>
<path d="M200.004 255.169C184.004 255.169 166.231 246.312 147.185 228.84C137.798 220.219 127.205 209.677 119.871 196.863C101.981 165.613 101.804 132.031 101.62 96.4782C101.473 69.9071 101.333 42.4166 93.5208 14.6905L89.769 1.3903L99.3102 11.3802C104.872 17.1991 112.706 20.0827 121.004 23.1282C123.476 24.0404 125.947 24.9526 128.36 25.9383C152.732 36.0165 173.462 56.2023 186.733 82.7733C197.929 105.181 203.91 131.987 204.498 162.442C204.616 168.121 204.587 173.933 204.55 179.766C204.425 204.601 204.285 230.29 215.878 247.481L218.328 251.108L214.223 252.623C209.707 254.308 204.918 255.169 200.004 255.169ZM102.598 22.5692C108.241 47.8014 108.366 72.4818 108.498 96.4414C108.682 131.06 108.859 163.759 125.844 193.434C132.715 205.433 142.845 215.496 151.842 223.765C172.866 243.053 191.676 251.123 207.764 247.4C197.414 228.782 197.539 203.873 197.672 179.737C197.701 173.955 197.738 168.21 197.62 162.582C197.054 133.149 191.323 107.336 180.583 85.8483C168.055 60.7559 148.575 41.7398 125.741 32.3016C123.424 31.3453 121.026 30.4698 118.628 29.5871C113.192 27.5861 107.63 25.5485 102.598 22.5692Z" fill="url(#paint13_linear_1_32)"/>
<path d="M309.436 1409.37L303.206 1406.46C388.23 1224.75 423.224 1005.9 410.211 737.39C407.562 682.424 403.009 623.706 387.833 566.724C355.73 446.323 276.752 340.539 207.081 247.202L212.59 243.082C282.637 336.912 362.034 443.263 394.483 564.951C409.828 622.551 414.411 681.71 417.081 737.059C430.161 1006.71 394.946 1226.62 309.436 1409.37Z" fill="url(#paint14_linear_1_32)"/>
<defs>
<linearGradient id="paint0_linear_1_32" x1="349.629" y1="405.275" x2="399.772" y2="396.186" gradientUnits="userSpaceOnUse">
<stop stop-color="#0B9B8A"/>
<stop offset="1" stop-color="#08DEC5"/>
</linearGradient>
<linearGradient id="paint1_linear_1_32" x1="437.781" y1="512.559" x2="498.655" y2="497.099" gradientUnits="userSpaceOnUse">
<stop stop-color="#0B9B8A"/>
<stop offset="1" stop-color="#08DEC5"/>
</linearGradient>
<linearGradient id="paint2_linear_1_32" x1="472.177" y1="633.335" x2="538.694" y2="610.045" gradientUnits="userSpaceOnUse">
<stop stop-color="#0B9B8A"/>
<stop offset="1" stop-color="#08DEC5"/>
</linearGradient>
<linearGradient id="paint3_linear_1_32" x1="497.16" y1="799.625" x2="568.262" y2="774.415" gradientUnits="userSpaceOnUse">
<stop stop-color="#0B9B8A"/>
<stop offset="1" stop-color="#08DEC5"/>
</linearGradient>
<linearGradient id="paint4_linear_1_32" x1="526.891" y1="914.303" x2="610.625" y2="869.274" gradientUnits="userSpaceOnUse">
<stop stop-color="#0B9B8A"/>
<stop offset="1" stop-color="#08DEC5"/>
</linearGradient>
<linearGradient id="paint5_linear_1_32" x1="529.637" y1="1055.96" x2="611.934" y2="997.222" gradientUnits="userSpaceOnUse">
<stop stop-color="#0B9B8A"/>
<stop offset="1" stop-color="#08DEC5"/>
</linearGradient>
<linearGradient id="paint6_linear_1_32" x1="268.339" y1="1210.49" x2="346.761" y2="1150.96" gradientUnits="userSpaceOnUse">
<stop stop-color="#0B9B8A"/>
<stop offset="1" stop-color="#08DEC5"/>
</linearGradient>
<linearGradient id="paint7_linear_1_32" x1="500.623" y1="1201.1" x2="559.483" y2="1140.88" gradientUnits="userSpaceOnUse">
<stop stop-color="#0B9B8A"/>
<stop offset="1" stop-color="#08DEC5"/>
</linearGradient>
<linearGradient id="paint8_linear_1_32" x1="304.598" y1="1059.08" x2="382.088" y2="1007.71" gradientUnits="userSpaceOnUse">
<stop stop-color="#0B9B8A"/>
<stop offset="1" stop-color="#08DEC5"/>
</linearGradient>
<linearGradient id="paint9_linear_1_32" x1="306.341" y1="891.152" x2="380.768" y2="829.331" gradientUnits="userSpaceOnUse">
<stop stop-color="#0B9B8A"/>
<stop offset="1" stop-color="#08DEC5"/>
</linearGradient>
<linearGradient id="paint10_linear_1_32" x1="282.011" y1="756.98" x2="350.24" y2="682.89" gradientUnits="userSpaceOnUse">
<stop stop-color="#0B9B8A"/>
<stop offset="1" stop-color="#08DEC5"/>
</linearGradient>
<linearGradient id="paint11_linear_1_32" x1="296.89" y1="630.547" x2="349.525" y2="568.607" gradientUnits="userSpaceOnUse">
<stop stop-color="#0B9B8A"/>
<stop offset="1" stop-color="#08DEC5"/>
</linearGradient>
<linearGradient id="paint12_linear_1_32" x1="198.462" y1="494.396" x2="310.671" y2="401.934" gradientUnits="userSpaceOnUse">
<stop stop-color="#0B9B8A"/>
<stop offset="1" stop-color="#08DEC5"/>
</linearGradient>
<linearGradient id="paint13_linear_1_32" x1="159.442" y1="255.169" x2="221.988" y2="239.212" gradientUnits="userSpaceOnUse">
<stop stop-color="#0B9B8A"/>
<stop offset="1" stop-color="#08DEC5"/>
</linearGradient>
<linearGradient id="paint14_linear_1_32" x1="322.328" y1="1409.37" x2="431.599" y2="1399.33" gradientUnits="userSpaceOnUse">
<stop stop-color="#0B9B8A"/>
<stop offset="1" stop-color="#08DEC5"/>
</linearGradient>
</defs>
</svg>
