<svg width="640" height="1172" viewBox="0 0 640 1172" fill="none" xmlns="http://www.w3.org/2000/svg">
<path d="M348.979 691.731L346.816 689.402C271.75 608.576 242.95 487.846 273.446 381.83C291.731 318.246 329.158 262.214 365.35 208.026C402.931 151.757 441.785 93.5744 458.963 27.1167L465.337 2.46397L464.851 27.9231C463.917 77.5296 466.355 128.038 468.717 176.87C471.853 241.747 475.097 308.832 470.464 374.771C465.081 451.258 442.425 593.837 351.161 689.427L348.979 691.731ZM458.669 49.3119C439.232 108.186 404.262 160.544 370.329 211.347C334.393 265.152 297.229 320.794 279.2 383.482C249.568 486.502 276.985 603.667 349.043 682.976C437.177 588.762 459.225 449.414 464.505 374.349C469.113 308.762 465.875 241.862 462.745 177.158C460.717 135.258 458.63 92.128 458.669 49.3119Z" fill="url(#paint0_linear_1_525)"/>
<path d="M378.976 897.504L381.088 887.373C383.878 874.003 387.942 863.462 391.533 854.163C396.96 840.109 401.638 827.968 400.416 810.56C399.686 800.326 398.291 789.888 396.934 779.795C394.349 760.435 391.667 740.416 393.478 720.512C398.554 664.832 437.242 619.296 470.381 585.837C475.866 580.301 481.446 574.81 487.027 569.331C519.155 537.766 549.498 507.955 560.608 470.176L565.229 454.458L566.458 470.797C574.797 581.235 577.594 679.277 527.206 760.659C506.438 794.182 477.376 822.266 443.149 841.869C428.966 850.003 424.934 853.171 411.757 863.981C404.64 871.418 402.202 873.837 399.514 876.499C396.909 879.078 394.067 881.901 386.176 890.054L378.976 897.504ZM561.51 485.242C547.302 518.496 518.842 546.464 491.213 573.606C485.658 579.072 480.096 584.538 474.624 590.054C442.195 622.797 404.333 667.277 399.43 721.062C397.683 740.294 400.32 759.974 402.861 779.008C404.224 789.19 405.638 799.718 406.381 810.138C407.693 828.883 402.79 841.594 397.114 856.314C394.515 863.066 391.853 869.978 389.555 878.01C392.173 875.347 393.773 873.766 395.29 872.256C397.952 869.619 400.378 867.219 407.699 859.61C421.158 848.525 425.613 845.037 440.166 836.691C473.53 817.574 501.869 790.195 522.112 757.517C569.434 681.082 568.883 588.922 561.51 485.242Z" fill="url(#paint1_linear_1_525)"/>
<path d="M439.783 1045.43L439.021 1041.03C431.13 995.712 424.698 943.827 448.455 901.536C465.235 871.674 494.259 851.808 522.33 832.602C526.362 829.843 530.387 827.091 534.355 824.32C562.771 804.506 596.282 776.864 603.245 738.586L609.165 739.43C604.41 784.877 605.959 808.896 606.989 824.794C608.301 845.082 608.845 853.478 594.375 876.019C591.987 879.731 589.139 883.149 586.381 886.458C581.466 892.352 576.826 897.914 574.938 904.704C572.634 912.954 574.746 921.523 576.967 930.592C578.675 937.51 580.429 944.659 580.224 951.955C579.808 966.336 571.578 980.717 557.651 991.405C545.453 1000.75 531.098 1006.11 517.216 1011.28C489.114 1021.79 460.115 1032.64 443.565 1043.05L439.783 1045.43ZM601.031 763.917C587.258 791.923 560.883 813.12 537.773 829.222C533.786 832.006 529.747 834.765 525.703 837.536C498.195 856.358 469.76 875.814 453.664 904.467C431.603 943.731 436.813 992.448 444.167 1035.71C461.575 1025.7 488.73 1015.54 515.047 1005.7C528.583 1000.65 542.509 995.45 553.997 986.65C566.49 977.062 573.869 964.352 574.234 951.776C574.413 945.299 572.762 938.547 571.155 932.019C568.839 922.592 566.445 912.851 569.165 903.091C571.399 895.066 576.672 888.742 581.779 882.624C584.416 879.456 587.149 876.179 589.331 872.787C602.739 851.898 602.298 845.171 601.011 825.184C600.173 812.307 599.008 794.17 601.031 763.917Z" fill="url(#paint2_linear_1_525)"/>
<path d="M346.182 688.333C333.574 651.213 339.942 610.272 346.105 570.675C347.027 564.749 347.942 558.867 348.781 553.062C355.462 506.906 362.361 459.277 370.637 412.634C382.387 346.291 403.392 262.221 421.926 188.051C437.881 124.179 452.96 63.8655 458.912 27.3855L464.819 28.3455C458.816 65.0624 443.718 125.51 427.731 189.498C409.216 263.571 388.243 347.533 376.531 413.67C368.269 460.218 361.382 507.808 354.713 553.824C353.862 559.744 352.947 565.645 352.019 571.584C345.971 610.464 339.718 650.669 351.846 686.394L346.182 688.333Z" fill="url(#paint3_linear_1_525)"/>
<path d="M520.851 1096.31C500.295 1096.31 478.227 1087.32 453.389 1068.81L451.853 1067.66L452.256 1065.78C455.975 1048.38 475.699 1039.14 493.255 1039H493.267C502.439 1039 510.938 1040.49 519.155 1041.93C526.618 1043.24 534.336 1044.59 541.901 1044.76L543.623 1044.77C572.083 1044.77 597.626 1029.41 625.677 1010.84L634.919 1004.72L630.003 1014.66C614.176 1046.67 587.616 1072.61 555.219 1087.71C546.407 1091.8 538.925 1094.26 531.68 1095.44C528.141 1096.02 524.499 1096.31 520.851 1096.31ZM458.579 1065.2C485.767 1085.1 509.344 1093.01 530.714 1089.54C537.408 1088.45 544.391 1086.15 552.691 1082.29C580.307 1069.43 603.507 1048.38 619.027 1022.33C593.939 1038.41 570.253 1050.77 543.616 1050.77L541.767 1050.75C533.747 1050.57 525.805 1049.18 518.125 1047.83C510.151 1046.43 501.901 1044.99 493.824 1044.99C478.81 1045.1 462.637 1052.07 458.579 1065.2Z" fill="url(#paint4_linear_1_525)"/>
<path d="M302.746 1156.39C284.89 1156.39 264.653 1156.39 243.187 1153.75L223.11 1151.27L243.04 1147.83C259.718 1144.95 275.706 1133.56 291.904 1113.01C295.514 1108.43 298.976 1103.71 302.445 1098.98C311.488 1086.62 320.845 1073.85 332.928 1063.83C349.773 1049.83 371.795 1042.12 394.95 1042.12C412.32 1042.12 429.011 1046.53 443.226 1054.86L449.197 1058.36L442.56 1060.31C420.966 1066.66 402.234 1088.13 384.122 1108.89L381.619 1111.75C362.234 1133.82 338.394 1156.39 308.544 1156.4L302.746 1156.39ZM258.528 1149.24C274.266 1150.41 289.197 1150.41 302.746 1150.41H308.55C336.013 1150.41 358.624 1128.87 377.126 1107.81L379.616 1104.96C396.531 1085.58 413.958 1065.61 434.381 1056.92C422.438 1051.14 408.941 1048.11 394.963 1048.11C373.203 1048.11 352.531 1055.33 336.762 1068.44C325.242 1077.99 316.109 1090.45 307.277 1102.52C303.77 1107.3 300.262 1112.08 296.608 1116.72C284.058 1132.63 271.494 1143.38 258.528 1149.24Z" fill="url(#paint5_linear_1_525)"/>
<path d="M355.629 870.407C348.371 870.407 339.936 867.661 333.069 863.053C329.177 860.467 325.517 857.459 321.984 854.554C315.533 849.242 309.433 844.224 302.067 841.645C296.166 839.603 289.785 839.341 284.889 839.341C282.144 839.341 279.385 839.437 276.633 839.52C273.83 839.616 271.027 839.706 268.256 839.706C260.646 839.706 251.789 839.078 243.801 834.445C233.312 828.333 227.955 817.498 222.784 807.021C219.219 799.808 215.533 792.352 210.246 786.72C202.496 778.464 191.814 774.33 180.499 769.958C173.184 767.13 165.625 764.205 158.816 760.038C141.024 749.178 127.865 729.152 122.72 705.088C117.664 681.491 120.454 657.485 123.456 639.213C127.469 614.65 133.721 590.182 139.782 566.522C145.184 545.427 150.758 523.616 154.701 501.894C164.761 446.406 161.433 401.798 144.525 365.523L138.438 352.454L149.229 362.022C180.832 390.042 205.203 430.534 217.862 476.038C222.573 492.992 225.83 510.912 228.979 528.243C236.339 568.819 243.961 610.778 270.912 641.274C274.784 645.651 279.161 649.901 283.385 654.003C293.888 664.211 304.749 674.758 309.869 688.909C314.169 700.832 313.728 713.568 313.293 725.875C313.177 729.28 313.056 732.678 313.037 736.051C312.845 783.302 334.413 829.542 370.726 859.763L373.03 861.683L371.104 864C367.59 868.192 362.246 870.407 355.629 870.407ZM284.889 833.363C290.259 833.363 297.28 833.664 304.038 836C312.422 838.931 319.219 844.525 325.785 849.939C329.203 852.749 332.742 855.661 336.39 858.08C342.323 862.054 349.51 864.422 355.629 864.422C358.208 864.422 361.536 863.981 364.281 862.15C328.192 830.79 306.861 783.904 307.059 736.038C307.078 732.602 307.193 729.146 307.321 725.677C307.725 713.933 308.153 701.792 304.249 690.95C299.597 678.099 289.702 668.486 279.225 658.304C274.918 654.125 270.464 649.792 266.438 645.242C238.381 613.491 230.611 570.701 223.104 529.318C219.981 512.115 216.749 494.336 212.109 477.645C201.145 438.259 181.235 402.746 155.417 376.198C168.032 411.066 169.715 452.717 160.608 502.97C156.627 524.896 151.021 546.816 145.6 568.006C139.577 591.546 133.35 615.885 129.382 640.186C126.464 657.939 123.744 681.222 128.589 703.84C133.389 726.304 145.549 744.922 161.952 754.931C168.301 758.81 175.609 761.638 182.669 764.378C194.105 768.8 205.939 773.376 214.617 782.63C220.518 788.902 224.397 796.768 228.153 804.365C233.158 814.496 237.888 824.07 246.822 829.274C253.574 833.197 261.446 833.728 268.262 833.728C270.963 833.728 273.702 833.632 276.435 833.549C279.251 833.453 282.073 833.363 284.889 833.363Z" fill="url(#paint6_linear_1_525)"/>
<path d="M285.817 1032.24C255.673 1032.24 226.457 1015.92 199.117 999.194C155.264 972.39 100.691 939.04 73.6702 886.758C70.707 881.024 68.339 875.968 66.1374 871.277C57.1775 852.16 51.2703 839.526 19.0079 810.112L5.03027 797.376L22.2527 805.184C45.3951 815.674 60.6783 816.666 74.163 817.549C85.6702 818.304 96.531 819.014 109.766 825.472C124.269 832.57 133.376 846.246 142.189 859.475C151.014 872.717 159.353 885.229 172.563 891.539C179.347 894.771 187.315 896.275 197.645 896.275C203.481 896.275 209.529 895.814 215.379 895.36C217.875 895.168 220.358 894.97 222.829 894.816C227.808 894.496 232.877 894.336 237.901 894.336C291.283 894.336 343.929 912.051 386.144 944.211C386.777 944.774 387.366 945.267 388.096 945.882C395.142 951.827 413.83 967.603 417.785 994.272L418.528 999.296L413.773 997.51C398.547 991.795 379.917 994.605 356.973 1006.11C352.601 1008.29 348.288 1010.63 343.961 1012.97C330.137 1020.45 315.846 1028.17 299.981 1031.01C295.373 1031.83 290.611 1032.24 285.817 1032.24ZM34.4575 816.467C57.8687 839.501 63.7695 852.096 71.5646 868.736C73.7342 873.37 76.0702 878.349 78.9886 884.013C105.241 934.81 159.027 967.674 202.24 994.086C229.958 1011.04 257.216 1026.26 285.824 1026.26C290.265 1026.26 294.681 1025.87 298.944 1025.11C313.856 1022.44 327.718 1014.95 341.126 1007.7C345.51 1005.33 349.881 1002.96 354.31 1000.74C376.512 989.619 395.027 986.221 410.969 990.349C405.971 968.774 390.381 955.616 384.256 950.451C383.456 949.779 382.797 949.229 382.329 948.794C341.357 917.594 289.997 900.32 237.92 900.32C233.024 900.32 228.089 900.474 223.232 900.781C220.787 900.941 218.329 901.133 215.859 901.318C209.894 901.779 203.731 902.253 197.664 902.253C186.413 902.253 177.619 900.557 170.009 896.928C155.302 889.914 146.118 876.122 137.229 862.778C128.473 849.632 120.205 837.222 107.161 830.835C94.995 824.89 85.171 824.256 73.7918 823.507C62.8351 822.803 50.7519 822.01 34.4575 816.467Z" fill="url(#paint7_linear_1_525)"/>
<path d="M444.89 1041.15L439.04 1039.89C449.088 993.248 479.571 954.727 509.056 917.479C512.704 912.858 516.352 908.256 519.936 903.655C569.958 839.539 597.325 786.893 601.248 747.162L607.206 747.751C603.162 788.627 575.386 842.317 524.659 907.335C521.056 911.949 517.408 916.563 513.747 921.191C484.685 957.901 454.643 995.872 444.89 1041.15Z" fill="url(#paint8_linear_1_525)"/>
<path d="M459.904 1069.54L454.771 1066.46C460.473 1056.97 474.451 1051.81 485.312 1051.63C492.621 1051.49 499.699 1052.87 506.585 1054.18C509.459 1054.73 512.333 1055.28 515.219 1055.72C555.597 1061.91 597.971 1045.16 623.2 1013.04L627.904 1016.74C601.363 1050.52 556.781 1068.17 514.31 1061.63C511.353 1061.18 508.409 1060.62 505.459 1060.06C498.566 1058.74 491.949 1057.52 485.408 1057.61C476.429 1057.76 464.435 1062 459.904 1069.54Z" fill="url(#paint9_linear_1_525)"/>
<path d="M249.632 1154.32L248.352 1148.47C278.253 1141.92 317.28 1123.39 339.123 1105.36C344.787 1100.68 350.298 1095.55 355.629 1090.59C364.288 1082.53 373.248 1074.2 383.27 1067.35C394.618 1059.6 417.158 1047.6 440.525 1054.45L438.842 1060.19C423.488 1055.69 404.467 1060.11 386.643 1072.29C376.992 1078.88 368.198 1087.07 359.699 1094.97C354.304 1099.99 348.723 1105.18 342.931 1109.97C320.442 1128.52 280.339 1147.59 249.632 1154.32Z" fill="url(#paint10_linear_1_525)"/>
<path d="M411.917 996.749C364.179 964.397 309.171 946.534 248.416 943.648C243.232 943.398 238.016 943.27 232.787 943.142C211.2 942.598 188.884 942.042 168.807 933.152C150.772 925.197 136.051 911.059 123.059 898.586C118.362 894.074 113.421 889.203 108.25 884.109C84.0962 860.275 54.0293 830.63 19.5205 810.483L22.5348 805.312C57.7028 825.83 88.0578 855.782 112.455 879.84C117.607 884.915 122.516 889.766 127.207 894.259C139.841 906.387 154.151 920.141 171.226 927.68C190.221 936.083 211.936 936.627 232.941 937.152C238.215 937.286 243.482 937.414 248.711 937.664C310.579 940.602 366.624 958.816 415.277 991.782L411.917 996.749Z" fill="url(#paint11_linear_1_525)"/>
<path d="M386.643 889.427L381.395 886.554C386.489 877.242 391.853 868.269 397.037 859.59C409.709 838.394 421.67 818.387 424.269 801.747C425.241 795.494 426.009 789.178 426.777 782.861C428.934 765.062 431.161 746.65 438.246 729.734C447.462 707.725 464.045 690.106 480.089 673.062C486.08 666.694 492.275 660.109 497.965 653.421C539.961 604.019 562.995 536.986 559.584 474.093L565.561 473.766C569.056 538.144 545.485 606.752 502.521 657.293C496.742 664.096 490.489 670.739 484.448 677.158C468.774 693.818 452.569 711.034 443.769 732.045C437.005 748.186 434.835 766.182 432.717 783.584C431.942 789.965 431.174 796.352 430.182 802.669C427.398 820.448 415.712 840.013 402.176 862.656C397.017 871.29 391.686 880.211 386.643 889.427Z" fill="url(#paint12_linear_1_525)"/>
<path d="M368.461 865.242C346.746 854.061 324.301 842.49 305.21 826.163C290.054 813.197 270.963 791.687 266.106 762.893C264.998 756.378 264.634 749.568 264.269 742.976C263.469 728.256 262.707 714.349 254.406 703.693C247.392 694.714 236.653 690.253 225.293 685.536C218.035 682.522 210.528 679.405 203.91 674.976C183.117 661.056 170.976 633.158 171.45 600.339C171.686 583.251 174.848 566.266 177.914 549.837C179.795 539.731 181.741 529.28 182.963 518.97C188.909 469.114 175.322 414.739 144.71 365.856L149.779 362.682C181.114 412.71 195.002 468.467 188.902 519.674C187.654 530.182 185.69 540.73 183.789 550.931C180.774 567.11 177.664 583.846 177.427 600.422C176.992 631.206 188.134 657.216 207.238 669.997C213.37 674.112 220.595 677.107 227.59 680.006C239.168 684.813 251.136 689.779 259.123 700.013C268.576 712.147 269.421 727.648 270.24 742.643C270.592 749.069 270.95 755.706 272 761.888C275.565 782.982 288.736 804.186 309.094 821.613C327.648 837.485 349.786 848.896 371.194 859.917L368.461 865.242Z" fill="url(#paint13_linear_1_525)"/>
<path d="M553.35 1169.75C499.923 1140.84 455.91 1087.64 418.797 1007.1C372.473 906.63 347.289 794.995 345.984 684.282L351.961 684.211C353.261 794.093 378.253 904.877 424.224 1004.6C460.781 1083.92 503.949 1136.22 556.198 1164.49L553.35 1169.75Z" fill="url(#paint14_linear_1_525)"/>
<defs>
<linearGradient id="paint0_linear_1_525" x1="375.98" y1="691.731" x2="482.935" y2="675.216" gradientUnits="userSpaceOnUse">
<stop stop-color="#0B9B8A"/>
<stop offset="1" stop-color="#08DEC5"/>
</linearGradient>
<linearGradient id="paint1_linear_1_525" x1="483.152" y1="897.504" x2="578.22" y2="876.731" gradientUnits="userSpaceOnUse">
<stop stop-color="#0B9B8A"/>
<stop offset="1" stop-color="#08DEC5"/>
</linearGradient>
<linearGradient id="paint2_linear_1_525" x1="527.943" y1="1045.43" x2="612.652" y2="1020.77" gradientUnits="userSpaceOnUse">
<stop stop-color="#0B9B8A"/>
<stop offset="1" stop-color="#08DEC5"/>
</linearGradient>
<linearGradient id="paint3_linear_1_525" x1="407.15" y1="688.333" x2="471.795" y2="682.131" gradientUnits="userSpaceOnUse">
<stop stop-color="#0B9B8A"/>
<stop offset="1" stop-color="#08DEC5"/>
</linearGradient>
<linearGradient id="paint4_linear_1_525" x1="551.066" y1="1096.31" x2="598.187" y2="1048.88" gradientUnits="userSpaceOnUse">
<stop stop-color="#0B9B8A"/>
<stop offset="1" stop-color="#08DEC5"/>
</linearGradient>
<linearGradient id="paint5_linear_1_525" x1="345.638" y1="1156.4" x2="404.425" y2="1097.82" gradientUnits="userSpaceOnUse">
<stop stop-color="#0B9B8A"/>
<stop offset="1" stop-color="#08DEC5"/>
</linearGradient>
<linearGradient id="paint6_linear_1_525" x1="257.098" y1="870.406" x2="380.76" y2="839.973" gradientUnits="userSpaceOnUse">
<stop stop-color="#0B9B8A"/>
<stop offset="1" stop-color="#08DEC5"/>
</linearGradient>
<linearGradient id="paint7_linear_1_525" x1="229.126" y1="1032.24" x2="349.085" y2="925.88" gradientUnits="userSpaceOnUse">
<stop stop-color="#0B9B8A"/>
<stop offset="1" stop-color="#08DEC5"/>
</linearGradient>
<linearGradient id="paint8_linear_1_525" x1="530.178" y1="1041.15" x2="610.641" y2="1017.97" gradientUnits="userSpaceOnUse">
<stop stop-color="#0B9B8A"/>
<stop offset="1" stop-color="#08DEC5"/>
</linearGradient>
<linearGradient id="paint9_linear_1_525" x1="548.601" y1="1069.54" x2="575.13" y2="1028.6" gradientUnits="userSpaceOnUse">
<stop stop-color="#0B9B8A"/>
<stop offset="1" stop-color="#08DEC5"/>
</linearGradient>
<linearGradient id="paint10_linear_1_525" x1="352.5" y1="1154.32" x2="404.854" y2="1104.59" gradientUnits="userSpaceOnUse">
<stop stop-color="#0B9B8A"/>
<stop offset="1" stop-color="#08DEC5"/>
</linearGradient>
<linearGradient id="paint11_linear_1_525" x1="234.002" y1="996.749" x2="332.406" y2="894.295" gradientUnits="userSpaceOnUse">
<stop stop-color="#0B9B8A"/>
<stop offset="1" stop-color="#08DEC5"/>
</linearGradient>
<linearGradient id="paint12_linear_1_525" x1="481.389" y1="889.427" x2="572.446" y2="869.071" gradientUnits="userSpaceOnUse">
<stop stop-color="#0B9B8A"/>
<stop offset="1" stop-color="#08DEC5"/>
</linearGradient>
<linearGradient id="paint13_linear_1_525" x1="267.453" y1="865.242" x2="379.063" y2="839.91" gradientUnits="userSpaceOnUse">
<stop stop-color="#0B9B8A"/>
<stop offset="1" stop-color="#08DEC5"/>
</linearGradient>
<linearGradient id="paint14_linear_1_525" x1="459.91" y1="1169.75" x2="563.895" y2="1147.07" gradientUnits="userSpaceOnUse">
<stop stop-color="#0B9B8A"/>
<stop offset="1" stop-color="#08DEC5"/>
</linearGradient>
</defs>
</svg>
