<svg width="640" height="914" viewBox="0 0 640 914" fill="none" xmlns="http://www.w3.org/2000/svg">
<path d="M469.821 392.166C457.049 392.166 444.805 389.745 433.436 384.976L431.827 384.297L431.839 382.555C432.083 352.848 446.358 322.267 471.012 298.654C491.275 279.237 517.905 264.255 552.431 252.852C557.173 251.288 561.976 249.808 566.778 248.328C585.466 242.579 604.8 236.63 620.483 225.076L635.019 214.369L624.095 228.744C601.121 258.985 595.105 275.67 588.138 294.981C585.416 302.533 582.6 310.346 578.588 319.379C559.549 362.231 514.821 392.166 469.821 392.166ZM437.07 380.835C447.343 384.892 458.351 386.957 469.821 386.957C512.824 386.957 555.603 358.302 573.841 317.264C577.77 308.404 580.558 300.685 583.246 293.222C589.201 276.699 594.872 260.977 611.873 236.663C598.194 244.104 583.057 248.762 568.309 253.297C563.539 254.767 558.764 256.23 554.056 257.788C520.287 268.947 494.297 283.539 474.607 302.41C451.456 324.582 437.849 353.076 437.07 380.835Z" fill="url(#paint0_linear_1_726)"/>
<path d="M438.828 911.646L434.304 909.08C462.219 859.828 475.564 806.513 472.915 754.902C469.715 692.788 443.397 634.365 417.947 577.861C406.961 553.48 395.609 528.275 386.204 503.014C376.882 477.999 371.623 458.376 369.157 439.382C366.197 416.62 367.393 393.725 369.118 372.371C373.843 314.454 384.684 253.342 400.473 195.636L405.493 197.011C389.788 254.405 378.997 315.188 374.3 372.788C372.591 393.858 371.417 416.431 374.316 438.708C376.732 457.296 381.896 476.568 391.084 501.2C400.428 526.299 411.748 551.421 422.695 575.724C448.339 632.662 474.863 691.542 478.113 754.634C480.818 807.242 467.238 861.531 438.828 911.646Z" fill="url(#paint1_linear_1_726)"/>
<path d="M139.036 719.724C131.612 719.724 124.11 718.499 116.714 715.739C110.77 713.513 105.233 710.374 99.8845 707.336C94.6588 704.375 89.2494 701.308 83.6341 699.222C62.2414 691.269 37.5818 697.146 17.7585 701.865L3.76221 705.199L15.7051 697.179C33.9646 684.913 48.8458 666.654 63.2375 649.001C83.2946 624.397 104.031 598.964 134.573 588.479C150.305 583.048 168.526 581.762 190.275 584.528C219.776 588.268 242.282 598.124 257.213 613.845C257.241 613.807 257.274 613.768 257.308 613.729L257.97 614.252C307.389 601.491 342.901 595.58 377.216 602.832C415.516 610.913 447.516 636.084 460.728 668.524L455.914 670.488C443.342 639.629 412.778 615.654 376.142 607.93C342.895 600.906 308.129 606.694 259.651 619.194C253.685 626.946 247.992 635.105 242.477 643.03C230.99 659.519 219.114 676.571 204.193 690.651C187.871 706.039 163.885 719.718 139.036 719.724ZM59.8817 690.1C68.5078 690.1 77.1506 691.263 85.4483 694.352C91.4588 696.578 97.0462 699.75 102.456 702.811C107.637 705.749 112.991 708.788 118.545 710.864C148.48 722.044 181.476 704.92 200.632 686.856C215.157 673.148 226.883 656.319 238.219 640.047C243.3 632.751 248.526 625.249 254.008 618.014C239.933 602.843 218.279 593.315 189.635 589.687C168.698 587.021 151.246 588.234 136.275 593.393C107.136 603.394 86.873 628.248 67.2779 652.284C55.3015 666.977 42.9913 682.081 28.5495 694.04C38.4946 691.892 49.1743 690.1 59.8817 690.1Z" fill="url(#paint2_linear_1_726)"/>
<path d="M399.187 203.672L397.963 199.482C385.847 158.049 400.696 107.823 435.79 71.5262C463.377 42.9934 501.465 21.9791 555.653 5.39478L562.705 3.23547L558.57 9.34049C552.503 18.2949 553.689 29.6201 554.946 41.6021C555.43 46.1878 555.926 50.9405 555.976 55.5374C556.438 98.6177 517.414 128.854 494.118 143.039C484.34 148.988 474.017 154.487 464.033 159.802C442.217 171.405 419.661 183.404 402.292 200.6L399.187 203.672ZM551.218 12.2344C501.064 28.2511 465.469 48.3193 439.535 75.1436C406.9 108.902 392.386 155.004 401.842 193.839C419.238 177.738 440.749 166.296 461.59 155.21C471.508 149.929 481.77 144.47 491.414 138.598C513.77 124.991 551.206 96.1022 550.772 55.5986C550.722 51.2466 550.238 46.6219 549.771 42.153C548.708 31.9631 547.606 21.4894 551.218 12.2344Z" fill="url(#paint3_linear_1_726)"/>
<path d="M447.265 541.331C445.846 541.331 444.338 540.357 444.149 538.175C443.993 536.333 443.776 532.95 443.531 529.187C443.153 523.249 442.68 515.859 442.312 512.915C440.943 502.051 443.442 490.659 449.352 480.842C450.554 478.856 451.896 476.908 453.237 474.966C456.654 470.035 459.876 465.371 460.633 459.973L461.484 453.851L465.269 458.737C469.571 464.297 472.637 470.497 474.474 474.198C475.047 475.35 475.498 476.262 475.826 476.841C480.668 485.005 481.213 495.401 477.24 503.96C475.058 508.668 471.647 512.625 468.636 516.12C465.987 519.203 462.776 523.656 459.676 527.963C451.873 538.799 449.792 541.331 447.265 541.331ZM464.267 466.384C462.619 470.558 460.038 474.287 457.516 477.926C456.231 479.779 454.951 481.627 453.81 483.525C448.506 492.34 446.258 502.547 447.477 512.264C447.855 515.369 448.317 522.531 448.729 528.848C448.84 530.534 448.94 532.143 449.035 533.573C450.943 531.185 453.437 527.724 455.457 524.919C458.624 520.522 461.902 515.976 464.696 512.72C467.623 509.325 470.645 505.819 472.526 501.768C475.787 494.739 475.336 486.196 471.346 479.473C470.968 478.817 470.456 477.798 469.816 476.507C468.558 473.98 466.687 470.213 464.267 466.384Z" fill="url(#paint4_linear_1_726)"/>
<path d="M432.395 610.133C427.826 585.001 433.046 556.924 446.035 536.862L450.404 539.689C438.105 558.689 433.163 585.324 437.515 609.204L432.395 610.133Z" fill="url(#paint5_linear_1_726)"/>
<path d="M370.51 226.128L365.045 218.242C361.132 212.582 349.501 206.783 330.474 201.007C315.359 196.41 298.746 191.356 289.53 178.128C278.962 162.968 281.962 143.062 284.605 125.503L284.8 124.201C287.054 109.164 288.556 87.8323 275.545 76.1899L270.547 71.7155L277.253 71.6487C296.387 71.6487 314.195 83.5415 330.607 106.993C353.241 139.344 366.787 177.232 369.781 216.561L370.51 226.128ZM283.548 77.2918C293.537 90.8765 292.101 110.616 289.942 124.963L289.747 126.266C287.249 142.867 284.416 161.683 293.804 175.139C301.991 186.893 317.011 191.468 331.537 195.887C346.858 200.539 357.509 205.164 363.943 209.95C360.025 174.06 347.103 139.628 326.344 109.965C312.743 90.5426 298.373 79.5791 283.548 77.2918Z" fill="url(#paint6_linear_1_726)"/>
<path d="M382.637 478.399L377.439 478.121C378.407 459.895 387.457 443.377 395.443 428.802C405.21 410.977 416.279 390.775 434.399 378.081L437.388 382.344C420.258 394.342 409.494 413.982 400.006 431.306C392.287 445.386 383.539 461.353 382.637 478.399Z" fill="url(#paint7_linear_1_726)"/>
<path d="M462.57 676.137L457.45 675.235C462.063 649.007 470.828 623.841 483.5 600.433L488.075 602.91C475.676 625.822 467.094 650.465 462.57 676.137Z" fill="url(#paint8_linear_1_726)"/>
<path d="M468.391 695.354L463.955 692.638C472.014 679.482 485.12 669.492 500.852 664.511L502.417 669.475C487.886 674.072 475.798 683.266 468.391 695.354Z" fill="url(#paint9_linear_1_726)"/>
<path d="M319.616 653.108L316.126 649.251C339.261 628.337 370.938 614.719 403.016 611.875L403.473 617.062C372.497 619.806 341.927 632.94 319.616 653.108Z" fill="url(#paint10_linear_1_726)"/>
<path d="M303.638 538.849L298.869 535.949C276.524 522.353 253.423 508.285 235.208 488.695C214.723 466.668 204.06 440.049 205.957 415.651C206.67 406.591 209.046 397.765 211.339 389.233C212.48 384.993 213.621 380.758 214.567 376.478C218.563 358.48 219.253 338.15 216.509 319.245L215.123 309.684L221.122 317.253C232.536 331.65 247.886 342.781 262.728 353.544C268.349 357.612 274.154 361.825 279.697 366.177C306.237 386.946 320.328 407.86 322.771 430.11C324.786 448.52 318.458 466.223 312.331 483.341C306.148 500.627 300.31 516.955 302.798 533.334L303.638 538.849ZM222.664 327.025C224.211 344.022 223.176 361.686 219.642 377.597C218.685 381.943 217.522 386.262 216.364 390.575C214.133 398.884 211.823 407.476 211.144 416.052C209.369 438.998 219.525 464.18 239.026 485.144C255.549 502.92 276.485 516.187 297.11 528.776C296.242 512.876 301.918 496.993 307.428 481.588C313.355 465.015 319.482 447.885 317.596 430.672C315.314 409.891 301.868 390.129 276.485 370.267C271.02 365.976 265.249 361.802 259.672 357.757C246.828 348.44 233.611 338.857 222.664 327.025Z" fill="url(#paint11_linear_1_726)"/>
<path d="M396.833 615.893C373.665 601.218 351.455 584.584 330.824 566.452C318.692 555.8 308.218 545.616 298.808 535.32L302.642 531.809C311.925 541.96 322.265 552.016 334.258 562.54C354.688 580.493 376.676 596.961 399.616 611.491L396.833 615.893Z" fill="url(#paint12_linear_1_726)"/>
<path d="M381.429 311.665L376.253 311.087C380.148 276.599 374.594 241.688 360.191 210.139L364.922 207.974C379.72 240.386 385.43 276.243 381.429 311.665Z" fill="url(#paint13_linear_1_726)"/>
<path d="M483.088 605.386L483.188 601.958C483.472 592.33 487 582.09 493.974 570.659C516.274 534.124 556.811 511.045 596.575 512.781L602.685 513.048L598.255 517.267C593.809 521.502 590.72 527.15 589.546 533.183C588.794 537.057 588.8 541.036 588.8 545.249C588.806 549.706 588.811 554.314 587.848 558.867C585.283 571.01 575.555 582.124 561.825 588.602C549.915 594.217 536.76 596.07 524.038 597.862C510.13 599.854 497.897 601.702 486.422 604.563L483.088 605.386ZM590.765 517.901C554.808 518.485 518.7 540.123 498.415 573.37C492.767 582.619 489.549 590.939 488.637 598.675C499.316 596.226 510.597 594.529 523.035 592.748C535.646 590.972 548.407 589.169 559.599 583.893C571.859 578.106 580.519 568.35 582.751 557.793C583.596 553.774 583.591 549.634 583.585 545.254C583.58 540.98 583.574 536.561 584.42 532.187C585.433 527.034 587.631 522.114 590.765 517.901Z" fill="url(#paint14_linear_1_726)"/>
<path d="M543.272 696.6C537.946 696.6 532.319 695.048 526.069 691.842C515.356 686.388 505.912 678.068 499.473 668.44L498.071 666.342L500.124 664.879C516.614 653.119 537.127 638.483 560.456 636.412C567.953 635.778 575.315 636.63 581.192 639.139C586.296 641.321 590.603 644.716 594.771 647.994C596.374 649.257 597.971 650.515 599.613 651.7C605.123 655.674 611.929 659.085 619.837 661.834L629.404 665.168L619.42 666.86C617.645 667.166 615.713 667.45 613.676 667.761C601.956 669.542 585.895 671.98 575.31 680.122C574.13 681.023 572.95 681.958 571.765 682.893C563.562 689.382 555.08 696.088 544.423 696.578L543.272 696.6ZM505.244 667.617C511.132 675.636 519.274 682.543 528.435 687.212C533.939 690.033 538.792 691.402 543.272 691.402L544.184 691.38C553.161 690.968 560.979 684.791 568.531 678.814C569.739 677.857 570.936 676.911 572.127 675.992C582.656 667.9 597.404 665.034 609.213 663.181C604.505 661.016 600.281 658.595 596.569 655.919C594.866 654.683 593.208 653.386 591.555 652.084C587.475 648.867 583.619 645.834 579.15 643.92C574.074 641.744 567.541 641.02 560.913 641.594C539.949 643.452 520.849 656.514 505.244 667.617Z" fill="url(#paint15_linear_1_726)"/>
<path d="M238.264 754.89L240.829 744.517C242.493 737.805 244.274 731.583 246.049 725.4L246.611 723.452C251.859 705.299 257.286 686.533 268.817 670.861C280.431 655.084 297.795 645.278 314.134 645.278C315.865 645.278 317.596 645.389 319.338 645.601L322.938 646.046L321.358 649.318C318.375 655.484 319.555 662.975 320.807 670.906C321.675 676.421 322.571 682.131 322.126 687.774C321.057 701.108 312.659 712.328 304.584 721.538C298.001 729.023 290.588 736.319 280.966 739.057C276.152 740.426 270.976 740.638 265.967 740.838C257.77 741.178 250.023 741.489 245.32 746.854L238.264 754.89ZM314.123 650.492C299.409 650.492 283.654 659.48 273.002 673.95C262.01 688.881 256.718 707.191 251.598 724.899L251.036 726.842C249.923 730.743 248.799 734.655 247.702 738.707C253.095 736.169 259.489 735.907 265.734 735.651C270.442 735.457 275.306 735.262 279.519 734.06C287.855 731.694 294.6 725 300.65 718.115C308.168 709.545 315.971 699.194 316.922 687.373C317.318 682.342 316.466 676.944 315.648 671.729C314.524 664.6 313.366 657.254 315.325 650.52C314.936 650.492 314.529 650.492 314.123 650.492Z" fill="url(#paint16_linear_1_726)"/>
<path d="M447.688 767.379L444.572 767.306C428.16 766.933 409.761 765.453 399.126 752.581C392.693 744.806 390.873 734.872 389.109 725.272C387.462 716.318 385.909 707.853 380.928 701.086L377.099 695.888L383.46 696.973C398.92 699.622 407.446 705.293 414.965 710.302C420.202 713.791 425.155 717.086 431.922 718.961C435.15 719.857 438.272 720.72 440.804 722.779C446.124 727.07 446.748 734.26 446.659 740.727L446.575 745.808C446.458 752.525 446.342 758.864 447.199 764.29L447.688 767.379ZM388.335 703.306C391.574 709.862 392.915 717.186 394.229 724.326C395.948 733.687 397.574 742.53 403.144 749.258C411.776 759.71 427.236 761.535 441.678 762.014C441.177 756.961 441.283 751.468 441.383 745.713L441.461 740.666C441.539 735.44 441.127 729.719 437.537 726.825C435.84 725.445 433.497 724.794 431.02 724.109C422.973 721.883 417.686 718.36 412.099 714.637C405.71 710.385 399.148 706.017 388.335 703.306Z" fill="url(#paint17_linear_1_726)"/>
<path d="M466.493 846.922L461.318 846.36C461.446 845.13 461.896 842.22 462.353 839.309C462.787 836.499 463.221 833.688 463.355 832.497C465.163 808.205 457.4 783.579 442.034 765.03L446.047 761.708C462.258 781.286 470.456 807.265 468.536 832.97C468.402 834.284 467.951 837.194 467.495 840.105C467.061 842.927 466.627 845.737 466.493 846.922Z" fill="url(#paint18_linear_1_726)"/>
<path d="M360.392 316.134C359.652 315.383 358.962 314.593 358.322 313.758C357.003 312.422 355.873 311.76 354.766 311.676C353.575 311.476 352.456 312.022 351.327 312.411C350.375 312.739 349.418 313.051 348.444 313.246C344.698 314.003 340.819 313.146 336.773 310.875C331.776 308.104 327.591 303.729 325.003 298.565C324.446 297.446 323.973 296.3 323.5 295.159C322.911 293.74 322.326 292.321 321.564 290.991C320.818 289.699 319.232 287.44 316.956 286.934L305.97 284.468L316.922 281.869C321.937 280.678 326.656 278.686 328.453 277.879C334.208 275.313 341.999 277.295 347.147 282.476C351.705 287.028 354.092 293.033 356.202 298.337C357.893 302.533 359.652 306.885 362.268 310.358C362.974 311.103 363.642 311.899 364.266 312.684L360.392 316.134ZM323.79 285.286C324.63 286.182 325.404 287.234 326.077 288.414C326.945 289.928 327.63 291.547 328.303 293.167C328.732 294.207 329.16 295.248 329.661 296.255C331.776 300.485 335.204 304.069 339.306 306.339C342.255 307.998 344.888 308.643 347.431 308.154C348.182 308.003 348.911 307.747 349.635 307.497C350.931 307.052 352.389 306.556 354.003 306.473C353.041 304.431 352.2 302.338 351.365 300.279C349.44 295.437 347.264 289.961 343.463 286.16C339.829 282.509 334.358 280.94 330.574 282.637C329.349 283.183 326.845 284.246 323.79 285.286Z" fill="url(#paint19_linear_1_726)"/>
<path d="M372.809 338.2C370.143 330.147 365.735 322.479 360.059 316.034L363.96 312.595C370.098 319.568 374.862 327.86 377.745 336.575L372.809 338.2Z" fill="url(#paint20_linear_1_726)"/>
<path d="M567.474 545.432C555.693 556.357 540.239 563.352 525.619 571.032C511.756 578.835 497.759 587.784 488.215 600.79C500.18 588.568 515.941 580.71 531.028 572.251C545.598 565.278 559.828 557.036 570.179 544.364C571.67 542.672 573.796 540.173 574.759 538.876C572.366 541.08 569.951 543.267 567.474 545.432Z" fill="url(#paint21_linear_1_726)"/>
<path d="M535.975 664.572C525.334 664.728 514.326 664.339 504.292 668.379C514.048 666.142 524.271 667.494 534.305 667.85C549.554 668.741 566.1 666.008 580.224 662.574C565.493 663.693 550.745 664.628 535.975 664.572Z" fill="url(#paint22_linear_1_726)"/>
<path d="M412.533 730.108C423.875 745.012 440.448 755.491 451.394 770.428C444.61 754.35 426.268 741.968 412.533 730.108Z" fill="url(#paint23_linear_1_726)"/>
<path d="M307.562 659.341C295.986 671.073 290.966 687.05 284.65 701.125C283.765 703.028 282.485 705.416 281.734 707.007C283.765 704.33 285.685 701.564 287.432 698.682C295.936 684.145 302.442 667.516 313.595 655.657C315.782 653.464 317.869 651.26 320.779 650.142C315.448 651.439 311.307 655.601 307.562 659.341Z" fill="url(#paint24_linear_1_726)"/>
<path d="M334.436 169.335C321.898 151.543 310.266 133.066 300.071 113.816C306.131 133.428 321.246 158.038 335.215 176.559C344.737 190.038 355.356 200.784 363.52 215.037C356.78 198.207 344.81 184.083 334.436 169.335Z" fill="url(#paint25_linear_1_726)"/>
<path d="M192.317 626.801C212.792 623.757 236.494 622.433 258.215 617.329C208.056 620.763 152.782 621.548 112.379 655.629C104.409 661.667 97.8867 667.288 90.3681 672.536C89.0937 673.655 86.5671 674.328 86.99 676.387C87.2739 677.478 88.5427 678.024 89.5389 677.556C93.3567 675.814 97.4471 674.356 102.339 672.586C109.646 669.776 117.109 667.049 123.62 662.569C132.358 656.197 139.515 647.949 147.634 640.848C148.619 639.885 150.751 638.171 151.196 637.704C141.83 643.503 132.363 651.884 124.661 657.655C116.959 663.226 109.078 666.192 100.775 669.258C109.44 662.575 117.354 655.891 126.765 649.647C146.349 636.579 168.537 630.419 192.317 626.801Z" fill="url(#paint26_linear_1_726)"/>
<path d="M565.209 283.038C550.272 288.842 533.832 294.903 518.851 303.05C503.218 311.788 489.299 323.286 476.132 335.384C468.224 342.591 460.761 350.294 454.127 358.691C448.378 365.665 443.281 373.233 436.669 379.45C444.371 374.007 450.482 366.728 456.938 359.938C465.363 350.806 474.056 341.912 483.395 333.687C496.612 321.933 509.535 311.76 525.668 303.123C535.374 297.814 548.931 292.638 558.214 288.787C555.77 290.295 553.171 291.831 550.856 293.367C537.249 302.188 523.826 312.489 511.705 322.762C512.562 322.211 513.425 321.699 514.282 321.149C528.612 312.3 541.362 303.64 554.813 294.664C558.553 292.165 562.566 290.033 566.022 287.095C566.65 286.522 567.274 285.898 567.53 285.091C567.975 283.689 566.517 282.593 565.209 283.038Z" fill="url(#paint27_linear_1_726)"/>
<path d="M533.059 25.6244C519.636 37.072 508.344 50.7013 497.002 64.1524C477.106 88.9955 457.122 113.816 439.018 140.012C437.766 141.776 434.354 145.733 438.205 146.434C440.626 146.278 442.524 144.431 444.372 143.056C455.535 133.823 469.654 120.606 477.624 111.401C471.146 116.833 464.668 122.326 458.079 127.629C452.981 131.686 446.631 137.541 441.873 141.108C458.708 118.758 483.005 86.5023 504.96 60.3013C514.56 49.0595 524.5 38.1127 534.907 27.6279C540.756 21.9068 546.454 15.9743 553.661 12.1788C545.937 15.0338 539.331 20.343 533.059 25.6244Z" fill="url(#paint28_linear_1_726)"/>
<path d="M290.054 492.485C284.015 472.428 274.399 453.155 267.136 434.968C259.54 415.952 253.713 396.151 250.463 375.916C249.962 373.211 250.017 372.454 249.628 370.429C249.5 369.955 249.216 369.488 248.771 369.254C246.511 368.269 245.96 370.846 245.933 372.588C245.493 377.346 245.627 382.11 245.627 386.896C245.537 402.451 246.918 417.933 249.494 433.176C249.494 433.516 249.812 434.918 249.756 434.523C249.55 426.854 249.188 419.202 249.105 411.528C249.233 404.137 249.005 395.761 248.977 387.803C250.279 394.014 251.893 400.547 253.585 406.319C259.823 430.36 271.555 453.384 280.097 475.077C287.355 492.924 291.879 511.624 296.771 530.2C294.996 517.539 293.721 504.762 290.054 492.485Z" fill="url(#paint29_linear_1_726)"/>
<defs>
<linearGradient id="paint0_linear_1_726" x1="541.948" y1="392.166" x2="621.038" y2="346.645" gradientUnits="userSpaceOnUse">
<stop stop-color="#0B9B8A"/>
<stop offset="1" stop-color="#08DEC5"/>
</linearGradient>
<linearGradient id="paint1_linear_1_726" x1="427.563" y1="911.646" x2="484.782" y2="907.175" gradientUnits="userSpaceOnUse">
<stop stop-color="#0B9B8A"/>
<stop offset="1" stop-color="#08DEC5"/>
</linearGradient>
<linearGradient id="paint2_linear_1_726" x1="251.416" y1="719.724" x2="313.11" y2="615.789" gradientUnits="userSpaceOnUse">
<stop stop-color="#0B9B8A"/>
<stop offset="1" stop-color="#08DEC5"/>
</linearGradient>
<linearGradient id="paint3_linear_1_726" x1="485.338" y1="203.672" x2="559.503" y2="172.197" gradientUnits="userSpaceOnUse">
<stop stop-color="#0B9B8A"/>
<stop offset="1" stop-color="#08DEC5"/>
</linearGradient>
<linearGradient id="paint4_linear_1_726" x1="462.504" y1="541.331" x2="481.266" y2="537.234" gradientUnits="userSpaceOnUse">
<stop stop-color="#0B9B8A"/>
<stop offset="1" stop-color="#08DEC5"/>
</linearGradient>
<linearGradient id="paint5_linear_1_726" x1="441.41" y1="610.133" x2="451.403" y2="608.785" gradientUnits="userSpaceOnUse">
<stop stop-color="#0B9B8A"/>
<stop offset="1" stop-color="#08DEC5"/>
</linearGradient>
<linearGradient id="paint6_linear_1_726" x1="324.722" y1="226.128" x2="371.548" y2="210.868" gradientUnits="userSpaceOnUse">
<stop stop-color="#0B9B8A"/>
<stop offset="1" stop-color="#08DEC5"/>
</linearGradient>
<linearGradient id="paint7_linear_1_726" x1="409.928" y1="478.399" x2="438.413" y2="469.826" gradientUnits="userSpaceOnUse">
<stop stop-color="#0B9B8A"/>
<stop offset="1" stop-color="#08DEC5"/>
</linearGradient>
<linearGradient id="paint8_linear_1_726" x1="474.047" y1="676.137" x2="489.284" y2="673.033" gradientUnits="userSpaceOnUse">
<stop stop-color="#0B9B8A"/>
<stop offset="1" stop-color="#08DEC5"/>
</linearGradient>
<linearGradient id="paint9_linear_1_726" x1="484.8" y1="695.354" x2="499.092" y2="686.377" gradientUnits="userSpaceOnUse">
<stop stop-color="#0B9B8A"/>
<stop offset="1" stop-color="#08DEC5"/>
</linearGradient>
<linearGradient id="paint10_linear_1_726" x1="363.464" y1="653.108" x2="384.632" y2="630.525" gradientUnits="userSpaceOnUse">
<stop stop-color="#0B9B8A"/>
<stop offset="1" stop-color="#08DEC5"/>
</linearGradient>
<linearGradient id="paint11_linear_1_726" x1="269.373" y1="538.849" x2="326.415" y2="524.13" gradientUnits="userSpaceOnUse">
<stop stop-color="#0B9B8A"/>
<stop offset="1" stop-color="#08DEC5"/>
</linearGradient>
<linearGradient id="paint12_linear_1_726" x1="353.441" y1="615.893" x2="391.722" y2="592.78" gradientUnits="userSpaceOnUse">
<stop stop-color="#0B9B8A"/>
<stop offset="1" stop-color="#08DEC5"/>
</linearGradient>
<linearGradient id="paint13_linear_1_726" x1="372.374" y1="311.665" x2="383.885" y2="310.409" gradientUnits="userSpaceOnUse">
<stop stop-color="#0B9B8A"/>
<stop offset="1" stop-color="#08DEC5"/>
</linearGradient>
<linearGradient id="paint14_linear_1_726" x1="547.904" y1="605.386" x2="591.479" y2="577.072" gradientUnits="userSpaceOnUse">
<stop stop-color="#0B9B8A"/>
<stop offset="1" stop-color="#08DEC5"/>
</linearGradient>
<linearGradient id="paint15_linear_1_726" x1="569.247" y1="696.6" x2="600.186" y2="662.714" gradientUnits="userSpaceOnUse">
<stop stop-color="#0B9B8A"/>
<stop offset="1" stop-color="#08DEC5"/>
</linearGradient>
<linearGradient id="paint16_linear_1_726" x1="284.153" y1="754.89" x2="322.262" y2="740.064" gradientUnits="userSpaceOnUse">
<stop stop-color="#0B9B8A"/>
<stop offset="1" stop-color="#08DEC5"/>
</linearGradient>
<linearGradient id="paint17_linear_1_726" x1="415.355" y1="767.379" x2="444.681" y2="752.796" gradientUnits="userSpaceOnUse">
<stop stop-color="#0B9B8A"/>
<stop offset="1" stop-color="#08DEC5"/>
</linearGradient>
<linearGradient id="paint18_linear_1_726" x1="456.546" y1="846.922" x2="470.082" y2="844.78" gradientUnits="userSpaceOnUse">
<stop stop-color="#0B9B8A"/>
<stop offset="1" stop-color="#08DEC5"/>
</linearGradient>
<linearGradient id="paint19_linear_1_726" x1="337.563" y1="316.134" x2="356.977" y2="301.658" gradientUnits="userSpaceOnUse">
<stop stop-color="#0B9B8A"/>
<stop offset="1" stop-color="#08DEC5"/>
</linearGradient>
<linearGradient id="paint20_linear_1_726" x1="369.644" y1="338.2" x2="377.819" y2="335.356" gradientUnits="userSpaceOnUse">
<stop stop-color="#0B9B8A"/>
<stop offset="1" stop-color="#08DEC5"/>
</linearGradient>
<linearGradient id="paint21_linear_1_726" x1="535.118" y1="600.79" x2="565.103" y2="579.68" gradientUnits="userSpaceOnUse">
<stop stop-color="#0B9B8A"/>
<stop offset="1" stop-color="#08DEC5"/>
</linearGradient>
<linearGradient id="paint22_linear_1_726" x1="545.444" y1="668.379" x2="546.33" y2="662.541" gradientUnits="userSpaceOnUse">
<stop stop-color="#0B9B8A"/>
<stop offset="1" stop-color="#08DEC5"/>
</linearGradient>
<linearGradient id="paint23_linear_1_726" x1="433.594" y1="770.428" x2="449.891" y2="762.518" gradientUnits="userSpaceOnUse">
<stop stop-color="#0B9B8A"/>
<stop offset="1" stop-color="#08DEC5"/>
</linearGradient>
<linearGradient id="paint24_linear_1_726" x1="302.894" y1="707.007" x2="320.966" y2="700.758" gradientUnits="userSpaceOnUse">
<stop stop-color="#0B9B8A"/>
<stop offset="1" stop-color="#08DEC5"/>
</linearGradient>
<linearGradient id="paint25_linear_1_726" x1="334.457" y1="215.037" x2="364.355" y2="205.598" gradientUnits="userSpaceOnUse">
<stop stop-color="#0B9B8A"/>
<stop offset="1" stop-color="#08DEC5"/>
</linearGradient>
<linearGradient id="paint26_linear_1_726" x1="179.764" y1="677.724" x2="208.96" y2="636.026" gradientUnits="userSpaceOnUse">
<stop stop-color="#0B9B8A"/>
<stop offset="1" stop-color="#08DEC5"/>
</linearGradient>
<linearGradient id="paint27_linear_1_726" x1="507.634" y1="379.45" x2="553.889" y2="347.844" gradientUnits="userSpaceOnUse">
<stop stop-color="#0B9B8A"/>
<stop offset="1" stop-color="#08DEC5"/>
</linearGradient>
<linearGradient id="paint28_linear_1_726" x1="499.962" y1="146.434" x2="550.866" y2="124.047" gradientUnits="userSpaceOnUse">
<stop stop-color="#0B9B8A"/>
<stop offset="1" stop-color="#08DEC5"/>
</linearGradient>
<linearGradient id="paint29_linear_1_726" x1="273.336" y1="530.2" x2="299.187" y2="526.067" gradientUnits="userSpaceOnUse">
<stop stop-color="#0B9B8A"/>
<stop offset="1" stop-color="#08DEC5"/>
</linearGradient>
</defs>
</svg>
