<svg width="641" height="1288" viewBox="0 0 641 1288" fill="none" xmlns="http://www.w3.org/2000/svg">
<g clip-path="url(#clip0_1_679)">
<path d="M118.13 1286.05L111.045 1278.55C254.876 1142.53 352.105 944.196 384.818 720.071C396.927 637.173 397.714 566.501 387.216 504.001C377.271 444.628 355.93 382.799 320.053 309.441C278.667 224.836 236.574 163.102 187.588 115.161L194.804 107.79C244.658 156.584 287.406 219.216 329.322 304.91C365.648 379.194 387.283 441.914 397.39 502.295C408.064 565.868 407.292 637.592 395.021 721.572C361.977 947.97 263.638 1148.44 118.13 1286.05Z" fill="url(#paint0_linear_1_679)"/>
<path d="M363.728 393.634L358.983 388.661C396.816 352.564 413.42 294.324 400.311 243.727L406.961 242.006C420.901 295.766 403.93 355.279 363.728 393.634Z" fill="url(#paint1_linear_1_679)"/>
<path d="M402.761 602.054L396.772 598.677C416.686 563.337 444.015 531.47 475.809 506.532L480.046 511.946C448.958 536.34 422.233 567.494 402.761 602.054Z" fill="url(#paint2_linear_1_679)"/>
<path d="M373.512 661.331C375.02 663.155 373.195 665.87 371.37 667.657C367.692 671.299 363.257 674.881 358.034 675.47C354.385 675.882 350.876 674.778 347.537 673.609C345.609 672.924 343.652 672.226 342.004 671.093C338.421 668.694 336.539 664.737 334.81 660.956C334.192 659.646 333.604 658.307 332.986 656.998C330.654 651.915 328.315 646.787 326.417 641.528C325.078 637.717 324.077 633.134 326.726 629.699C328.962 626.808 333.052 625.778 336.76 625.13C337.179 619.731 343.049 615.67 348.802 614.405C351.936 613.706 355.165 613.61 358.255 614.089C366.854 615.435 373.563 621.033 379.824 626.44C381.846 628.191 383.884 629.949 385.157 632.214C386.525 634.686 386.944 637.548 387.114 640.395C387.327 643.455 387.298 646.552 387.011 649.612C386.871 651.091 386.709 652.636 385.944 654.019C385.179 655.387 383.774 656.564 382.192 656.696C380.574 656.843 379.132 655.909 377.55 655.836C374.564 655.762 371.989 659.514 373.512 661.331Z" fill="url(#paint3_linear_1_679)"/>
<path d="M319.046 469.883C324.467 466.101 329.977 462.247 334.067 457.024C338.157 451.801 340.673 444.915 339.158 438.515C338.326 435.043 336.399 431.99 334.516 428.959C328.94 420.088 323.128 411.01 314.566 404.985C305.937 398.901 295.233 396.533 284.743 394.877C276.011 393.494 266.698 392.641 258.613 396.356C254.28 398.35 250.433 401.623 245.747 402.55C241.488 403.374 237.045 402.131 232.741 402.925C224.495 404.433 219.235 413.033 217.55 421.323C215.866 429.614 216.623 438.206 214.77 446.46C213.144 453.75 209.466 460.562 204.309 465.925C202.904 467.396 201.249 469.051 201.396 471.082C201.499 472.428 202.352 473.517 203.176 474.554C213.46 487.243 223.98 500.139 237.699 508.974C244.754 513.513 252.486 516.853 260.188 520.185C267.441 523.311 274.915 526.511 282.816 526.784C290.76 527.056 298.536 524.415 306.098 521.759C312.704 519.457 319.722 516.845 324.018 511.269C328.969 504.774 329.043 495.939 328.623 487.817C328.425 484.249 328.145 480.571 326.453 477.474C324.739 474.377 321.194 472.008 317.663 472.626C317.552 472.494 317.493 472.428 319.046 469.883Z" fill="url(#paint4_linear_1_679)"/>
<path d="M312.984 292.735C296.69 276.132 272.156 269.57 250.308 265.325C247.086 264.708 243.849 264.112 240.605 263.516C220.228 259.779 199.138 255.917 180.813 245.324L184.248 239.365C201.55 249.355 222.038 253.114 241.848 256.748C245.115 257.344 248.373 257.94 251.61 258.565C274.503 263.008 300.272 269.96 317.898 287.902L312.984 292.735Z" fill="url(#paint5_linear_1_679)"/>
<path d="M368.473 844.312L363.088 840.031C384.892 812.636 411.25 789.736 441.44 771.955L444.934 777.877C415.884 794.988 389.446 817.962 368.473 844.312Z" fill="url(#paint6_linear_1_679)"/>
<path d="M275.496 1080.38L270.325 1075.85C298.293 1043.86 340.35 1023.67 382.84 1021.86L383.127 1028.73C342.49 1030.46 302.251 1049.77 275.496 1080.38Z" fill="url(#paint7_linear_1_679)"/>
<path d="M410.764 103.516C430.95 97.226 453.335 104.899 470.107 117.787C494.111 136.148 509.383 164.831 513.65 194.749C515.356 206.946 515.327 219.679 511.45 231.368C504.189 253.246 484.07 269.062 462.17 276.249C444.5 282.061 420.489 280.273 413.133 263.185C410.418 256.858 408.726 247.744 401.856 247.405C399.73 247.302 397.699 248.222 395.772 249.156C381.287 256.167 365.545 265.421 350.207 260.61C341.129 257.748 334.148 250.296 329.33 242.072C312.866 214.044 318.81 176.527 338.407 150.596C358.012 124.665 389.173 110.254 410.764 103.516Z" fill="url(#paint8_linear_1_679)"/>
<path d="M472.579 509.967C456.793 489.436 453.254 461.033 460.029 436.029C466.804 411.032 483.033 389.287 502.806 372.551C510.641 365.879 521.065 359.619 530.687 363.231C541.456 367.291 544.473 380.93 546.165 393.178C559.37 380.658 581.689 379.282 596.335 390.111C600.219 393.002 603.551 396.584 606.31 400.535C619.75 419.896 617.381 448.645 600.969 465.565C596.71 469.964 591.619 473.649 588.184 478.732C584.675 483.926 583.123 490.252 579.511 495.38C572.397 505.524 559.053 508.724 546.915 511.166C521.653 516.257 486.946 528.674 472.579 509.967Z" fill="url(#paint9_linear_1_679)"/>
<path d="M390.137 505.811C363.676 484.271 336.09 473.156 308.129 472.751L308.232 465.873C337.775 466.307 366.788 477.952 394.477 500.485L390.137 505.811Z" fill="url(#paint10_linear_1_679)"/>
<path d="M436.239 773.78C422.247 760.303 413.684 738.116 423.38 721.307C425.925 716.893 429.508 713.215 432.289 708.956C441.852 694.383 440.918 675.323 447.421 659.131C456.189 637.195 477.508 622.953 498.871 612.875C517.776 603.937 539.066 597.088 559.457 601.877C582.387 607.277 599.373 626.16 613.857 644.72C624.112 657.859 634.22 672.27 635.757 688.836C636.956 701.813 632.734 714.628 628.327 726.905C621.751 745.237 614.468 763.812 601.786 778.554C576.34 808.097 534.144 816.895 495.148 816.866C485.004 816.866 474.477 816.277 465.473 811.672C449.171 803.286 444.941 782.136 436.239 773.78Z" fill="url(#paint11_linear_1_679)"/>
<path d="M375.88 1020.24C377.219 1000.87 378.897 980.581 389.6 964.389C406.211 939.282 439.285 931.507 469.306 929.55C487.218 928.351 507.963 929.756 518.821 944.071C528.495 956.827 527.627 976.983 540.934 985.892C547.599 990.328 556.655 990.909 562.216 996.647C567.557 1002.19 567.961 1010.76 567.307 1018.41C564.246 1052.94 544.782 1085.44 516.445 1105.42C488.116 1125.4 451.526 1132.86 417.385 1126.77C405.034 1124.57 392.69 1120.54 382.817 1112.78C372.953 1105.04 365.795 1093.1 366.001 1080.55C366.383 1058.65 387.952 1037.12 375.88 1020.24Z" fill="url(#paint12_linear_1_679)"/>
<path d="M204.905 124.717C193.414 107.76 198.851 82.7636 185.712 67.0504C180.798 61.2021 173.861 57.4136 166.88 54.3534C156.015 49.5792 144.568 46.0702 132.872 43.9736C123.419 42.2523 112.826 40.9135 106.764 33.4836C104.219 30.3498 102.814 26.4657 100.916 22.8611C95.1411 11.9296 84.4156 3.70512 72.3069 1.02006C69.9014 0.505119 67.2826 0.196208 65.1198 1.32908C62.8835 2.49874 61.6403 4.97042 60.6178 7.31709C53.9824 22.3828 50.3337 38.7139 49.885 55.1479C49.6496 63.9534 50.3631 73.0017 53.9089 81.0716C57.3149 88.8105 63.0967 95.2473 68.9376 101.331C84.857 117.868 104.734 134.03 127.671 133.103C141.493 132.551 154.183 125.813 167.218 121.245C180.246 116.632 195.651 114.396 204.905 124.717Z" fill="url(#paint13_linear_1_679)"/>
<path d="M184.042 240.432C176.715 224.748 162.003 213.78 146.775 205.563C131.548 197.375 115.136 191.262 100.695 181.699C93.8464 177.189 87.3876 171.863 79.6781 169.075C72.5571 166.464 64.8258 166.184 57.2561 165.905C41.7784 165.36 24.4541 165.53 13.3387 176.329C5.18788 184.2 2.37055 196.102 1.7232 207.416C0.443197 229.566 6.32816 252.297 19.4666 270.173C32.5976 288.056 53.129 300.672 75.1981 302.843C97.76 305.086 119.939 296.722 140.817 287.887C152.469 282.936 164.438 277.507 172.861 268.047C181.298 258.587 185.624 243.793 184.042 240.432Z" fill="url(#paint14_linear_1_679)"/>
<path d="M312.101 983.626C288.899 964.941 271.376 939.098 262.755 910.872L269.339 908.864C277.556 935.788 294.284 960.439 316.412 978.271L312.101 983.626Z" fill="url(#paint15_linear_1_679)"/>
<path d="M257.62 937.495C256.142 925.423 264.432 912.91 276.129 909.614C284.272 907.304 293.313 909.026 301.089 905.62C313.256 900.286 317.052 885.125 318.906 871.957C324.21 834.168 326.063 795.378 317.736 758.133C309.416 720.888 290.054 685.165 259.246 662.633C245.387 652.525 229.225 645.162 212.165 643.411C187.029 640.836 161.098 651.084 143.803 669.548C139.676 673.954 135.961 678.905 133.762 684.54C131.665 690.006 131.084 695.957 129.841 701.702C127.023 714.804 118.291 728.766 104.91 729.553C101.159 729.759 97.4068 728.899 93.6624 728.899C80.7006 728.899 70.144 739.006 62.0962 749.158C56.4539 756.242 51.2607 763.768 47.6193 772.021C37.7545 794.341 39.8803 820.603 48.9653 843.275C58.0431 865.932 73.484 885.426 90.0946 903.317C107.213 921.811 126.479 939.422 150.166 947.985C185.094 960.615 224.502 951.597 257.62 937.495Z" fill="url(#paint16_linear_1_679)"/>
<path d="M395.845 702.622L388.96 702.489C389.085 695.986 385.929 689.616 382.884 683.444L369.517 656.571L375.667 653.496L389.041 680.391C392.307 686.982 396 694.449 395.845 702.622Z" fill="url(#paint17_linear_1_679)"/>
</g>
<defs>
<linearGradient id="paint0_linear_1_679" x1="270.274" y1="1286.05" x2="420.154" y2="1267.23" gradientUnits="userSpaceOnUse">
<stop stop-color="#D02964"/>
<stop offset="1" stop-color="#FC8F59"/>
</linearGradient>
<linearGradient id="paint1_linear_1_679" x1="387.59" y1="393.634" x2="414.126" y2="388.982" gradientUnits="userSpaceOnUse">
<stop stop-color="#D02964"/>
<stop offset="1" stop-color="#FC8F59"/>
</linearGradient>
<linearGradient id="paint2_linear_1_679" x1="441.903" y1="602.054" x2="478.08" y2="586.17" gradientUnits="userSpaceOnUse">
<stop stop-color="#D02964"/>
<stop offset="1" stop-color="#FC8F59"/>
</linearGradient>
<linearGradient id="paint3_linear_1_679" x1="358.768" y1="675.558" x2="384.402" y2="662.56" gradientUnits="userSpaceOnUse">
<stop stop-color="#D02964"/>
<stop offset="1" stop-color="#FC8F59"/>
</linearGradient>
<linearGradient id="paint4_linear_1_679" x1="276.293" y1="526.803" x2="332.533" y2="497.392" gradientUnits="userSpaceOnUse">
<stop stop-color="#D02964"/>
<stop offset="1" stop-color="#FC8F59"/>
</linearGradient>
<linearGradient id="paint5_linear_1_679" x1="255.107" y1="292.735" x2="281.677" y2="258.363" gradientUnits="userSpaceOnUse">
<stop stop-color="#D02964"/>
<stop offset="1" stop-color="#FC8F59"/>
</linearGradient>
<linearGradient id="paint6_linear_1_679" x1="407.445" y1="844.312" x2="439.465" y2="826.071" gradientUnits="userSpaceOnUse">
<stop stop-color="#D02964"/>
<stop offset="1" stop-color="#FC8F59"/>
</linearGradient>
<linearGradient id="paint7_linear_1_679" x1="331.458" y1="1080.38" x2="361.55" y2="1051.16" gradientUnits="userSpaceOnUse">
<stop stop-color="#D02964"/>
<stop offset="1" stop-color="#FC8F59"/>
</linearGradient>
<linearGradient id="paint8_linear_1_679" x1="425.428" y1="279.244" x2="502.877" y2="236.513" gradientUnits="userSpaceOnUse">
<stop stop-color="#D02964"/>
<stop offset="1" stop-color="#FC8F59"/>
</linearGradient>
<linearGradient id="paint9_linear_1_679" x1="542.528" y1="519.937" x2="607.861" y2="486.93" gradientUnits="userSpaceOnUse">
<stop stop-color="#D02964"/>
<stop offset="1" stop-color="#FC8F59"/>
</linearGradient>
<linearGradient id="paint10_linear_1_679" x1="354.926" y1="505.811" x2="375.397" y2="483.52" gradientUnits="userSpaceOnUse">
<stop stop-color="#D02964"/>
<stop offset="1" stop-color="#FC8F59"/>
</linearGradient>
<linearGradient id="paint11_linear_1_679" x1="536.692" y1="816.866" x2="626.247" y2="771.73" gradientUnits="userSpaceOnUse">
<stop stop-color="#D02964"/>
<stop offset="1" stop-color="#FC8F59"/>
</linearGradient>
<linearGradient id="paint12_linear_1_679" x1="475.225" y1="1128.83" x2="558.208" y2="1086.64" gradientUnits="userSpaceOnUse">
<stop stop-color="#D02964"/>
<stop offset="1" stop-color="#FC8F59"/>
</linearGradient>
<linearGradient id="paint13_linear_1_679" x1="133.88" y1="133.141" x2="193.534" y2="98.0046" gradientUnits="userSpaceOnUse">
<stop stop-color="#D02964"/>
<stop offset="1" stop-color="#FC8F59"/>
</linearGradient>
<linearGradient id="paint14_linear_1_679" x1="100.627" y1="303.212" x2="166.025" y2="259.413" gradientUnits="userSpaceOnUse">
<stop stop-color="#D02964"/>
<stop offset="1" stop-color="#FC8F59"/>
</linearGradient>
<linearGradient id="paint15_linear_1_679" x1="291.834" y1="983.626" x2="316.426" y2="974.737" gradientUnits="userSpaceOnUse">
<stop stop-color="#D02964"/>
<stop offset="1" stop-color="#FC8F59"/>
</linearGradient>
<linearGradient id="paint16_linear_1_679" x1="194.125" y1="954.012" x2="315.122" y2="898.696" gradientUnits="userSpaceOnUse">
<stop stop-color="#D02964"/>
<stop offset="1" stop-color="#FC8F59"/>
</linearGradient>
<linearGradient id="paint17_linear_1_679" x1="383.788" y1="702.622" x2="396.507" y2="699.188" gradientUnits="userSpaceOnUse">
<stop stop-color="#D02964"/>
<stop offset="1" stop-color="#FC8F59"/>
</linearGradient>
<clipPath id="clip0_1_679">
<rect width="640" height="1287.36" fill="white" transform="translate(0.15625 0.453613)"/>
</clipPath>
</defs>
</svg>
