<svg width="640" height="384" viewBox="0 0 640 384" fill="none" xmlns="http://www.w3.org/2000/svg">
<path d="M342.99 43.0162C348.001 30.3195 350.998 13.134 339.787 5.35074C331.308 -0.536089 319.726 2.92636 310.229 6.97283C233.594 39.6334 169.514 99.9998 130.781 173.597C124.213 186.075 104.847 215.283 111.088 229.605C119.798 249.589 148.421 233.382 161.816 227.67C199.921 211.419 234.906 187.969 264.685 159.195C298.515 126.505 325.704 86.8223 342.99 43.0162Z" fill="#FC8F59"/>
<path d="M329.142 228.097C383.427 231.477 438.73 228.979 490.72 213.006C542.714 197.032 591.41 166.696 622.802 122.279C633.529 107.102 642.418 88.1201 636.832 70.3918C632.499 56.6451 619.983 46.6292 606.316 42.046C577.451 32.3634 546.182 43.9129 518.137 55.7632C469.512 76.3081 421.359 98.4515 376.048 125.659C353.168 139.4 331.021 154.415 310.199 171.128C298.414 180.587 254.742 209.953 253.657 225.517C252.619 240.414 271.338 229.348 280.339 228.029C296.441 225.67 312.992 227.092 329.142 228.097Z" fill="url(#paint0_linear_1_757)"/>
<path d="M378.045 362.408C387.58 363.936 397.378 365.254 406.833 363.296C416.289 361.337 425.476 355.486 428.906 346.461C432.463 337.103 429.101 326.217 422.795 318.44C416.489 310.662 407.65 305.422 398.864 300.62C335.106 265.769 261.98 245.66 189.049 248.439C174.957 248.975 146.679 247.368 134.413 255.036C118.685 264.866 135.434 273.593 147.479 280.595C180.953 300.054 216.36 316.378 252.704 329.691C293.313 344.559 335.342 355.566 378.045 362.408Z" fill="#FC8F59"/>
<path d="M515.162 380.597C515.285 380.396 515.383 380.178 515.442 379.945C516.232 379.617 516.406 378.208 515.48 377.736C513.607 376.783 511.717 375.866 509.815 374.969C508.272 373.795 506.727 372.628 505.181 371.457C505.343 370.887 505.249 370.239 504.709 369.717C481.513 347.163 455.981 326.757 428.673 309.4C402.846 292.985 375.084 279.398 345.98 269.859C319.03 261.029 290.94 255.661 262.57 254.75C247.868 254.278 233.219 255.169 218.625 256.965C202.976 258.888 187.428 261.598 171.728 263.132C168.511 263.448 165.243 263.675 161.96 263.858C140.248 263.2 118.275 260.156 98.1167 252.043C97.6183 251.78 97.108 251.535 96.6126 251.27C96.4444 251.181 96.297 251.187 96.1643 251.229C94.0791 250.35 92.0146 249.406 89.9707 248.412C89.5961 248.164 89.2098 247.934 88.8382 247.678C86.9477 246.365 85.1073 244.973 83.2964 243.549C90.4397 243.316 97.5799 242.991 104.72 242.628C105.168 242.9 105.732 242.994 106.301 242.693C106.395 242.643 106.484 242.584 106.578 242.534C107.811 242.469 109.044 242.41 110.277 242.348C116.411 242.791 122.643 242.337 128.784 241.422C170.802 239.49 212.945 238.207 254.884 234.78C255.218 235.288 255.763 235.642 256.444 235.556C260.862 235.007 265.254 234.326 269.616 233.471C278.889 232.58 288.164 231.572 297.417 230.33C309.144 232.642 321.041 234.376 332.856 236.001C346.585 237.889 360.388 239.252 374.244 239.673C399.941 240.455 426.095 237.786 450.392 229.017C474.479 220.323 494.912 205.155 512.661 186.922C530.837 168.25 546.191 147.083 562.846 127.098C579.212 107.462 596.922 89.17 618.706 75.5265C621.113 74.0194 623.572 72.6038 626.064 71.2471C626.123 71.2235 626.182 71.2028 626.241 71.1793C626.477 71.0908 626.666 70.9698 626.814 70.8283C626.852 70.8076 626.89 70.784 626.929 70.7634C627.064 70.6897 627.15 70.5894 627.212 70.4773C629.285 70.2945 631.361 70.1116 633.435 69.9435C635.738 69.7577 635.455 66.2274 633.155 66.3719C608.696 67.9085 584.317 72.0257 560.563 77.9951C536.815 83.9616 513.587 91.9925 491.225 101.97C468.899 111.93 447.425 123.81 427.181 137.521C418.253 143.567 409.579 149.955 400.982 156.45C407.146 149.687 412.918 142.573 418.492 135.318C432.493 117.091 445.493 97.9531 461.502 81.3721C465.873 76.8449 470.468 72.533 475.346 68.5573C479.858 64.8825 484.651 61.5527 489.485 58.3144C489.924 58.2819 490.361 58.2406 490.8 58.217C492.195 58.1433 492.113 56.3914 491.033 55.9697C491.134 55.9461 491.234 55.9225 491.331 55.8959C492.446 55.601 492.06 53.7223 490.909 53.9052C486.816 54.554 482.737 55.3621 478.673 56.2351C468.642 57.2615 458.724 60.0338 449.345 63.7352C443.576 65.4487 437.854 67.3068 432.209 69.3949C413.502 76.3228 395.706 85.6899 380.287 98.4338C365.145 110.948 352.33 125.963 340.338 141.447C328.158 157.181 316.711 173.485 303.997 188.804C291.565 203.786 277.765 217.884 261.387 228.566C259.951 229.504 258.485 230.395 257.017 231.282C221.094 234.359 185.003 235.671 149.016 237.553C148.11 237.6 147.205 237.653 146.3 237.7C152.797 235.913 159.173 233.698 165.376 231.055C184.263 223.001 201.487 211.419 216.924 197.946C233.791 183.226 248.384 166.179 261.78 148.292C275.049 130.575 287.161 112.036 299.216 93.4819C311.22 75.0075 323.176 56.4828 336.183 38.6926C337.834 36.4364 339.483 34.1861 341.073 31.8856C342.247 30.1898 339.923 28.1431 338.566 29.7975C338.047 30.4286 337.563 31.0893 337.053 31.7293C336.731 31.5936 336.348 31.6261 336.027 32.0006C332.682 35.9144 329.228 39.7219 325.385 43.1608C321.598 46.5496 317.552 49.6405 313.405 52.5721C305.068 58.4677 296.347 63.7942 287.958 69.6132C279.538 75.4558 271.542 81.8941 264.823 89.6714C257.972 97.5992 252.318 106.45 246.069 114.835C239.813 123.226 232.77 130.726 224.521 137.191C216.552 143.434 207.943 148.796 199.302 154.046C181.951 164.59 164.414 175.001 150.983 190.532C137.806 205.768 127.846 224.552 111.023 236.287C109.362 237.447 107.631 238.491 105.865 239.476C105.847 239.479 105.829 239.485 105.809 239.487C105.584 239.526 105.434 239.644 105.319 239.785C105.248 239.824 105.18 239.865 105.11 239.903C96.5477 240.337 87.9829 240.747 79.4181 241.068C78.843 241.089 78.2649 241.101 77.6898 241.121C77.4745 240.968 77.2503 240.823 77.035 240.67C76.454 240.257 75.8052 240.661 75.6784 241.183C56.3162 241.785 36.7209 241.369 17.7893 236.936C12.6103 235.724 7.49621 234.232 2.48237 232.45C1.60053 232.138 0.963487 233.427 1.86008 233.792C20.6826 241.525 41.0948 243.658 61.2887 243.864C66.8953 243.92 72.5049 243.858 78.1174 243.723C78.1971 243.776 78.2796 243.826 78.3563 243.879C79.9667 245.168 81.6301 246.392 83.2728 247.642C101.744 267.765 122.941 285.382 145.783 300.328C170.684 316.62 197.588 329.827 225.724 339.519C253.74 349.169 282.965 355.395 312.512 357.728C345.945 360.367 379.443 357.415 412.915 358.011C435.377 358.412 458.302 360.585 479.926 367.033C486.205 369.484 492.496 371.914 498.79 374.329C500.433 375.152 502.081 375.96 503.698 376.842C506.738 378.5 509.726 380.254 512.661 382.095C513.947 382.894 515.047 381.815 515.162 380.597ZM264.853 230.61C265.048 230.48 265.236 230.339 265.431 230.209C265.422 230.324 265.41 230.439 265.428 230.551C265.236 230.569 265.045 230.592 264.853 230.61ZM335.416 189.243C328.001 195.69 320.49 202.025 312.948 208.322C309.244 211.416 305.557 214.533 301.826 217.595C299.9 219.173 297.977 220.756 296.069 222.361C295.898 222.34 295.721 222.349 295.538 222.411C294.113 222.88 292.697 223.369 291.285 223.859C295.969 220.506 300.263 216.506 304.121 212.711C318.236 198.808 331.667 184.229 345.087 169.663C358.5 155.102 371.949 140.553 386.141 126.741C399.463 113.776 413.446 101.454 428.49 90.5149C439.904 82.2156 451.964 74.7332 464.622 68.4688C458.626 72.8102 452.843 77.4465 447.248 82.2922C434.572 93.2755 422.831 105.285 411.134 117.286C386.802 142.237 361.724 166.374 335.416 189.243ZM492.355 170.255C473.812 185.368 453.683 198.2 431.711 207.729C410.85 216.775 388.893 223.039 366.375 226.213C348.773 228.69 331.03 229.218 313.355 227.947C339.02 223.785 364.372 217.837 388.822 208.903C429.705 193.968 465.519 169.63 500.636 144.396C530.3 123.078 560.062 101.009 593.003 84.9968C578.185 94.234 564.486 105.3 551.417 116.852C531.53 134.436 512.95 153.468 492.355 170.255ZM608.442 79.4403C593.451 89.7157 580.362 102.731 568.344 116.351C551.297 135.672 536.04 156.515 518.665 175.549C501.556 194.292 482.268 211.351 458.827 221.674C435.495 231.946 409.839 235.848 384.478 235.948C361.19 236.04 338.041 232.993 315.078 229.236C329.225 230.244 343.471 230.017 357.565 228.596C380.004 226.334 402.138 221.06 423.226 213.073C444.971 204.836 465.41 193.331 483.967 179.342C505.22 163.322 524.425 144.714 544.118 126.865C563.657 109.157 584.134 91.9984 607.673 79.8237C607.929 79.691 608.186 79.57 608.442 79.4403ZM610.722 73.0432H610.728C595.737 78.6852 581.338 86.3534 567.674 94.3844C549.164 105.261 531.554 117.575 514.138 130.109C479.159 155.285 444.428 181.637 404.642 198.878C371.25 213.348 335.649 221.576 299.697 226.608C299.284 226.555 298.871 226.522 298.461 226.466C298.326 226.449 298.19 226.425 298.054 226.407C297.228 226.28 296.403 226.154 295.58 226.027C295.692 225.991 295.801 225.95 295.913 225.912C305.404 224.449 314.815 221.762 323.881 218.816C334.962 215.215 345.753 210.817 356.247 205.759C377.862 195.339 398.304 182.566 418.011 168.919C439.509 154.034 460.405 138.288 482.177 123.798C502.117 110.526 522.853 98.3512 545.012 89.1523C565.919 80.4696 588.057 74.3881 610.722 73.0432ZM419.878 146.888C440.055 132.607 461.349 119.979 483.695 109.396C504.594 99.5015 526.316 91.3466 548.548 84.9938C528.501 92.9717 509.52 103.415 491.346 115.003C469.294 129.062 448.348 144.747 427.054 159.909C407.078 174.134 386.79 188.105 365.074 199.574C345.877 209.717 325.61 218.052 304.389 222.774C311.633 219.83 318.676 216.332 325.509 212.655C336.764 206.6 347.529 199.692 358.014 192.396C379.033 177.77 398.98 161.679 419.878 146.888ZM477.177 64.1835C472.352 67.7787 467.808 71.7721 463.484 75.8952C455.229 83.7699 447.77 92.429 440.662 101.339C426.284 119.353 413.236 138.488 397.499 155.385C393.211 159.989 388.728 164.419 383.968 168.533C379.092 172.75 373.922 176.623 368.92 180.687C368.876 180.722 368.852 180.773 368.817 180.814C367.622 181.699 366.437 182.589 365.236 183.465C345.069 198.218 323.987 211.92 300.794 221.426C304.723 218.418 308.568 215.282 312.391 212.2C319.198 206.706 325.91 201.09 332.567 195.416C345.712 184.209 358.598 172.692 371.232 160.909C383.953 149.047 396.375 136.878 408.594 124.503C420.282 112.664 431.876 100.702 444.269 89.5859C451.235 83.3393 458.411 77.3256 465.973 71.8075C469.618 69.1413 473.355 66.5931 477.177 64.1835ZM450.345 66.4102C458.432 63.9829 466.613 61.8535 474.824 59.8775C476.039 59.6828 477.251 59.4705 478.472 59.3171C477.997 59.5855 477.517 59.8421 477.048 60.1311C475.29 61.2076 473.55 62.3166 471.827 63.455C467.014 65.5431 462.286 67.8613 457.683 70.2856C449.646 74.5179 441.871 79.2338 434.345 84.3155C419.138 94.5879 404.961 106.308 391.506 118.769C377.276 131.953 363.883 146.012 350.646 160.183C337.183 174.597 323.896 189.181 310.049 203.229C304.221 209.142 298.42 215.226 291.798 220.27C286.109 224.602 279.52 228.348 272.265 228.985C272.091 229 271.917 228.994 271.743 229.006C279.546 224.068 287.055 218.851 294.078 212.811C301.481 206.443 308.468 199.61 315.157 192.499C328.839 177.962 341.247 162.319 353.952 146.941C366.714 131.499 379.815 116.254 394.488 102.578C407.302 90.6358 421.489 80.0183 437.185 72.1496C441.476 69.9966 445.874 68.0972 450.345 66.4102ZM337.386 150.822C349.157 135.182 361.385 119.704 375.807 106.394C390.518 92.8154 407.556 82.481 426.048 74.9013C426.75 74.6152 427.458 74.3527 428.163 74.0725C418.082 79.9682 408.615 86.9079 399.802 94.5732C384.575 107.816 371.274 122.972 358.421 138.482C345.615 153.937 333.231 169.754 319.802 184.683C313.137 192.095 306.215 199.277 298.909 206.06C291.553 212.891 283.714 219.125 275.733 225.204C273.901 226.599 271.97 227.841 270.023 229.068C269.103 229.071 268.186 229.02 267.271 228.929C279.88 220.172 291.031 209.174 301.033 197.684C314.028 182.76 325.5 166.616 337.386 150.822ZM114.09 237.733C114.58 237.37 115.052 236.989 115.532 236.615C115.317 236.868 115.09 237.113 114.875 237.37C114.827 237.426 114.81 237.485 114.78 237.544C114.547 237.603 114.32 237.677 114.09 237.733ZM301.405 83.6961C289.524 102.014 277.741 120.412 264.974 138.132C252.077 156.031 238.129 173.199 222.365 188.662C207.409 203.332 190.539 216.191 171.646 225.366C159.02 231.498 145.562 236.087 131.721 238.485C126.421 238.777 121.121 239.063 115.818 239.346C130.524 236.113 144.462 230.026 157.398 222.261C173.663 212.495 188.318 200.285 202.189 187.403C217.953 172.762 233.021 157.355 247.703 141.638C262.992 125.27 277.712 108.361 292.208 91.2906C298.718 83.6224 305.162 75.8981 311.574 68.1503C308.161 73.3175 304.776 78.5024 301.405 83.6961ZM316.452 57.288C309.371 65.841 302.251 74.3645 295.081 82.8438C280.879 99.6371 266.481 116.265 251.643 132.501C236.923 148.61 221.929 164.472 206.247 179.655C192.751 192.723 178.5 205.146 162.866 215.61C148.827 225.006 133.679 232.347 117.423 236.818C129.037 223.812 144.981 216.271 159.846 207.629C175.701 198.412 189.539 186.409 202.555 173.573C215.894 160.419 228.739 146.749 241.825 133.345C255.023 119.822 268.159 106.238 281.363 92.721C288.757 85.1501 296.114 77.5439 303.466 69.9346C307.144 66.13 310.831 62.3372 314.517 58.5385C316.446 56.5507 318.413 54.5864 320.336 52.5809C319.041 54.1499 317.75 55.7219 316.452 57.288ZM147.851 199.058C154.221 190.93 161.226 183.545 169.381 177.183C177.45 170.889 186.162 165.492 194.898 160.186C212.326 149.604 230.078 139.063 243.249 123.161C249.932 115.092 255.539 106.211 261.877 97.8823C268.259 89.4974 275.568 82.248 284 75.9306C293.535 68.7874 303.909 62.644 313.65 55.7249C310.542 58.9839 307.439 62.2487 304.333 65.5077C297.815 72.3442 291.246 79.1276 284.734 85.9671C271.713 99.646 258.606 113.245 245.52 126.862C232.437 140.476 219.369 154.111 206.07 167.515C193.008 180.681 179.394 193.313 163.736 203.364C151.591 211.159 138.033 217.356 126.56 226.227C134.263 217.722 140.843 208.004 147.851 199.058ZM248.812 257.452C277.42 256.88 306.026 261.109 333.496 269.004C362.6 277.371 390.179 290.006 416.133 305.537C440.305 320.006 462.885 337.018 484.064 355.578C467.176 343.034 450.056 330.806 432.324 319.472C406.503 302.968 379.252 288.446 350.422 277.935C322.539 267.768 293.452 261.687 263.75 260.944C240.149 260.354 216.623 262.474 193.064 263.492C211.585 260.894 230.06 257.826 248.812 257.452ZM167.505 266.456C194.518 266.957 221.492 264.176 248.502 263.81C263.95 263.604 279.378 264.297 294.662 266.642C309.25 268.88 323.628 272.422 337.646 277.023C366.425 286.47 393.644 300.142 419.427 315.948C426.349 320.192 433.168 324.589 439.919 329.093C432.363 324.976 424.692 321.059 416.905 317.381C394.408 306.758 371.014 298.051 347.081 291.254C322.805 284.361 297.989 279.772 272.981 276.507C247.939 273.239 222.766 271.246 197.606 269.155C187.36 268.302 177.117 267.438 166.877 266.515C167.086 266.497 167.296 266.471 167.505 266.456ZM154.186 267.137C165.252 268.267 176.338 269.205 187.404 270.163C212.455 272.337 237.531 274.413 262.482 277.581C287.336 280.736 312.078 285.004 336.321 291.389C360.403 297.733 383.891 306.156 406.58 316.417C421.161 323.011 435.389 330.396 449.194 338.495C442.544 335.266 435.769 332.302 428.927 329.597C403.575 319.587 377.045 312.948 350.275 308.023C321.97 302.814 293.379 299.461 264.856 295.715C237.274 292.094 209.713 288.245 182.573 282.034C163.641 277.702 145.037 272.29 127.023 265.214C135.977 266.763 145.099 267.308 154.186 267.137ZM427.417 355.233C393.945 353.578 360.459 356.796 326.978 355.696C296.928 354.71 267.077 349.676 238.312 340.931C209.954 332.308 182.682 320.08 157.339 304.717C133.968 290.552 112.648 273.626 93.0232 254.703C98.5178 258.49 104.175 262.05 109.938 265.438C127.728 278.84 146.692 290.634 166.555 300.75C191.512 313.461 217.788 323.578 244.821 330.889C273.194 338.56 302.189 342.639 331.479 344.659C361.948 346.759 392.544 347.653 422.807 352.065C432.156 353.428 441.509 355.138 450.752 357.309C442.995 356.285 435.191 355.616 427.417 355.233ZM122.283 272.334C132.025 277.46 142.032 282.064 152.189 286.148C180.01 297.335 209.079 304.027 238.696 308.315C268.737 312.665 299.036 315.119 328.948 320.375C359.223 325.692 388.849 334.059 417.944 343.892C425.594 346.476 433.186 349.207 440.751 352.006C438.913 351.664 437.076 351.336 435.232 351.027C405.506 346.06 375.358 345.317 345.335 343.503C315.709 341.713 286.271 338.852 257.335 332.013C229.833 325.512 203.035 316.086 177.497 303.988C158.288 294.884 139.87 284.24 122.283 272.334ZM475.614 360.916C474.747 360.58 473.877 360.24 473.013 359.904C458.812 354.354 444.535 348.992 430.142 343.96C401.407 333.912 372.126 325.25 342.241 319.354C312.515 313.488 282.298 310.878 252.28 307.02C222.442 303.186 192.878 297.786 164.494 287.582C150.676 282.615 137.195 276.699 124.159 269.945C117.494 266.488 111.02 262.746 104.646 258.838C107.988 260.218 111.38 261.463 114.819 262.457C116.046 262.811 117.281 263.12 118.517 263.43C135.558 270.824 153.284 276.625 171.242 281.406C197.665 288.443 224.825 292.84 251.879 296.624C280.369 300.608 308.958 303.968 337.304 308.925C364.399 313.665 391.27 319.894 417.156 329.296C440.638 337.826 463.319 348.998 483.545 363.732C480.926 362.733 478.278 361.809 475.614 360.916Z" fill="white"/>
<defs>
<linearGradient id="paint0_linear_1_757" x1="462.233" y1="233.218" x2="562.44" y2="133.485" gradientUnits="userSpaceOnUse">
<stop stop-color="#D02964"/>
<stop offset="1" stop-color="#FC8F59"/>
</linearGradient>
</defs>
</svg>
