<svg width="640" height="1080" viewBox="0 0 640 1080" fill="none" xmlns="http://www.w3.org/2000/svg">
<path d="M549.513 962.514C548.974 960.84 547.694 955.335 546.337 949.513C545.072 944.062 543.638 937.878 543.137 936.382L543.013 935.68C542.674 923.921 533.413 915.593 523.605 906.787C520.174 903.711 516.619 900.511 513.488 897.172C489.778 871.819 489.377 835.709 488.991 800.802C488.837 787.37 488.69 773.482 487.194 760.49C480.941 706.228 446.504 652.114 392.721 612.025C388.434 608.84 384.062 605.741 379.682 602.633C366.196 593.095 352.247 583.225 341.051 570.633C329.06 557.139 320.594 540.939 312.405 525.278C290.73 483.848 268.322 440.999 254.134 394.903C238.682 344.675 236.006 289.064 246.978 246.138L251.744 247.356C240.987 289.442 243.64 344.058 258.838 393.453C272.887 439.125 295.194 481.758 316.762 522.996C324.812 538.394 333.139 554.325 344.729 567.364C355.539 579.532 369.257 589.24 382.512 598.624C386.93 601.747 391.349 604.869 395.659 608.085C450.514 648.983 485.66 704.324 492.075 759.934C493.602 773.182 493.764 787.2 493.903 800.756C494.304 836.287 494.674 869.86 517.082 893.818C520.058 897.002 523.528 900.118 526.89 903.133C536.952 912.17 547.354 921.515 547.917 935.202C548.534 937.253 549.791 942.681 551.125 948.403C552.397 953.87 553.716 959.522 554.194 961.01L549.513 962.514Z" fill="url(#paint0_linear_1_132)"/>
<path d="M156.461 444.893C155.374 426.872 151.827 413.826 152.181 396.106C152.228 384.285 153.161 372.511 153.353 360.767C153.199 352.447 152.467 344.112 153.747 335.846C154.194 332.499 155.42 326.014 156.6 322.56C155.034 325.614 153.947 328.86 152.868 332.152C148.334 346.04 149.513 360.906 147.1 375.233C143.368 397.98 146.915 420.287 149.174 440.605C150.007 453.606 150.847 466.699 154.88 479.214C160.501 496.54 169.901 512.447 177.966 528.733C167.842 500.28 156.16 473.546 156.461 444.893Z" fill="url(#paint1_linear_1_132)"/>
<path d="M426.279 982.893L494.836 958.273C451.439 958.334 410.402 960.941 370.637 963.624L367.221 963.855C340.789 965.66 310.817 967.726 288.339 951.919L280.073 946.113L290.09 947.47C294.678 948.094 298.865 948.333 302.527 948.202C265.469 942.442 233.384 919.156 202.248 896.563C192.548 889.531 182.523 882.244 172.592 875.705C159.9 867.346 146.437 859.651 133.421 852.202C113.966 841.076 93.8411 829.571 75.7516 815.576C54.9323 799.46 19.6783 765.571 17.3959 719.53L16.91 709.852L21.9453 718.126C26.2094 725.128 29.8103 731.89 33.3033 738.437C39.7264 750.473 45.6099 761.523 53.9145 770.413C32.7019 741.552 25.6232 702.095 20.3644 663.464L7.5722 569.531C2.72979 534.153 -0.115521 502.616 14.1187 474.972L20.8271 461.941L18.7375 476.461C16.0695 494.998 16.5631 513.951 20.1178 532.279C20.0716 505.631 24.7211 478.612 33.4266 452.734L33.3342 452.719C40.6517 412.777 63.3448 369.118 95.5991 332.931C109.995 316.785 125.656 301.394 140.808 286.512C156.337 271.26 172.391 255.491 187.003 238.951C244.719 173.648 284.276 90.3402 298.371 4.37206L298.95 0.817375L302.049 2.65249C324.002 15.6915 326.894 55.6106 325.452 86.8087C324.233 113.403 313.099 137.878 301.247 160.362C293.999 174.149 285.887 188.43 275.47 201.284C277.953 200.004 280.443 198.724 282.911 197.436L289.11 194.205L286.311 200.613C273.781 229.174 250.07 253.933 211.686 278.531C200.598 285.648 189.016 292.357 177.828 298.841C158.389 310.107 138.302 321.75 120.405 335.761C55.1943 386.799 17.3881 475.111 26.325 555.52L28.754 577.372L21.5444 556.599C14.5352 536.374 11.3892 514.799 12.2374 493.355C6.08409 515.878 8.63632 541.147 12.4301 568.867L25.2223 662.801C31.5761 709.529 40.6132 757.451 74.4484 785.041L88.7211 796.669L71.8962 789.197C49.4499 779.219 39.9423 761.392 28.9389 740.742C27.2117 737.511 25.4613 734.211 23.6184 730.872C30.4965 769.087 60.407 797.486 78.7432 811.674C96.5553 825.461 116.526 836.889 135.842 847.931C148.927 855.41 162.46 863.152 175.275 871.587C185.299 878.196 195.362 885.505 205.109 892.576C239.545 917.567 275.154 943.414 316.8 944.578L324.48 944.794L318.111 949.081C313.484 952.189 306.899 952.898 300.307 953.153C319.915 962.159 343.726 960.532 366.859 958.944L370.275 958.712C414.296 955.728 459.821 952.636 508.615 953.477L522.047 953.708L465.75 973.933C497.905 971.705 531.401 972.599 556.715 976.563L555.952 981.428C525.934 976.732 484.226 976.401 447.113 980.557L426.279 982.893ZM302.581 9.01405C287.8 94.5195 248.15 177.203 190.689 242.213C175.954 258.884 159.838 274.714 144.255 290.02C129.164 304.848 113.558 320.177 99.2695 336.2C78.3037 359.726 61.4556 386.437 50.3828 413.139C66.9457 381.702 89.7543 353.519 117.382 331.898C135.549 317.664 155.79 305.935 175.376 294.593C186.518 288.131 198.045 281.453 209.041 274.398C243.578 252.26 265.924 230.099 278.709 205.162C275.74 206.681 272.771 208.2 269.818 209.712L252.638 218.487L263.21 207.699C277.598 193.026 287.908 175.167 296.914 158.072C308.496 136.089 319.376 112.224 320.548 86.5928C321.612 63.3985 320.555 23.6184 302.581 9.01405Z" fill="url(#paint2_linear_1_132)"/>
<path d="M639.352 1072.08C637.155 1060.67 635.705 1048.94 630.647 1038.3C622.72 1020.78 607.152 1008.82 594.113 995.231C574.08 976.085 552.567 958.612 531.94 940.129C522.14 931.817 511.892 922.564 501.806 913.55C501.12 912.324 500.488 911.098 499.84 909.818C490.834 890.371 480.146 871.757 468.488 853.853C476.021 872.937 485.128 891.512 496.401 908.677C496.455 908.785 496.501 908.831 496.594 908.931C484.626 898.39 472.952 888.497 462.519 881.411C451.848 873.639 441.6 865.164 429.841 859.057C418.321 851.963 412.36 846.412 403.316 839.826C381.795 820.503 354.922 792.713 333.108 769.018C313.168 749.525 293.621 729.592 276.495 707.532C269.849 699.111 262.662 690.899 258.922 685.463C253.008 676.573 248.089 667.057 241.982 658.344C233.762 647.703 227.516 635.798 219.944 624.763C214.022 615.811 208.609 606.504 203.497 597.105C198.276 584.544 192.964 570.764 189.062 557.178C190.45 564.318 192.031 571.404 193.796 578.444C191.977 574.805 192 566.331 190.172 562.691C192.586 569.577 193.442 581.105 196.303 587.836C207.422 628.758 224.748 668.083 248.289 703.298C272.162 745.137 304.162 781.625 339.215 814.458C384.409 855.911 428.962 887.557 477.748 924.337C491.235 933.93 510.234 946.892 521.068 954.456C534.739 965.729 548.588 976.802 562.228 988.175C589.656 1013.34 614.207 1038.84 632.968 1069.31C633.608 1070.29 634.201 1071.38 634.795 1072.51L639.352 1072.08ZM611.74 1029.1C596.873 1011.32 580.333 994.892 562.807 979.778C550.192 969.585 537.739 959.198 525.147 949.051C510.419 938.572 495.352 928.617 480.725 918.084C443.358 889.824 408.759 865.018 374.994 836.75C333.34 801.457 294.045 762.865 265.692 718.55C252.26 696.305 237.239 674.992 226.506 651.173C222.913 644.025 220.152 637.617 217.5 631.032C224.139 642.452 230.893 653.826 238.612 664.605C244.133 673.026 248.567 682.078 254.273 690.398C263.68 702.813 273.673 714.718 283.512 726.739C297.985 744.706 314.972 760.312 331.119 776.752C343.425 791.325 357.359 804.372 370.753 817.905C380.985 827.898 393.446 841.685 402.845 848.031C411.859 855.032 421.266 862.566 433.072 868.85C441.099 873.723 451.878 882.29 457.091 885.899C479.005 901.243 500.372 921.924 523.666 942.203C545.465 961.365 567.826 979.917 588.985 999.857C602.232 1013.58 616.019 1024.22 624.038 1039.98C626.105 1043.52 627.647 1047.52 629.02 1051.74C623.892 1043.62 618.078 1036.09 611.74 1029.1Z" fill="url(#paint3_linear_1_132)"/>
<path d="M304.686 633.777C304.586 615.225 302.728 596.711 303.807 578.159C302.674 554.826 301.494 531.485 302.874 508.098C298.934 531.832 298.741 555.713 298.587 579.678C296.968 598.146 298.888 616.544 299.767 634.957C301.193 652.098 301.293 669.332 303.067 686.412C303.26 687.391 303.406 689.126 303.26 689.419C303.661 688.54 303.452 687.491 303.452 686.566C303.9 668.985 305.334 651.404 304.686 633.777Z" fill="url(#paint4_linear_1_132)"/>
<path d="M281.453 561.126C281.453 561.172 281.407 561.172 281.353 561.172H281.407C281.407 561.172 281.407 561.164 281.453 561.126Z" fill="url(#paint5_linear_1_132)"/>
<path d="M279.981 475.759C280.675 495.545 281.955 515.393 280.274 535.133C279.78 543.8 281.361 552.513 280.914 561.164C281.014 561.272 281.207 561.272 281.361 561.164C282.541 548.472 282.587 538.872 284.16 526.705C285.386 509.687 282.834 492.553 279.981 475.759Z" fill="url(#paint6_linear_1_132)"/>
<path d="M271.962 485.066C271.268 470.392 268.314 458.533 267.327 444.145C266.294 460.098 269.047 475.898 268.6 491.852C268.507 503.032 266.148 511.699 265.014 523.813C264.968 524.854 264.898 526.265 264.968 526.967C265.06 526.227 265.153 525.486 265.299 524.692C268.415 511.645 272.548 498.653 271.962 485.066Z" fill="url(#paint7_linear_1_132)"/>
<path d="M420.626 638.512C419.94 653.093 421.76 667.574 422.392 682.04C424.366 667.659 422.3 652.893 420.626 638.512Z" fill="url(#paint8_linear_1_132)"/>
<path d="M440.32 783.537C438.739 764.638 434.745 738.699 431.699 717.571C431.892 739.925 433.172 762.379 435.346 784.617C437.274 799.684 440.412 820.411 439.04 837.344C443.366 819.832 442.24 801.319 440.32 783.537Z" fill="url(#paint9_linear_1_132)"/>
<path d="M451.447 783.152C450.699 808.32 450.213 837.552 452.372 860.538C453.714 851.377 453.506 841.993 454.547 832.733C455.333 816.139 453.12 799.653 451.447 783.152Z" fill="url(#paint10_linear_1_132)"/>
<path d="M424.12 818.891C423.873 796.106 422.886 773.251 419.054 750.758C419.694 774.878 417.673 799.298 421.328 823.217C422.647 830.843 424.914 838.284 425.407 845.525C426.387 836.619 424.76 827.751 424.12 818.891Z" fill="url(#paint11_linear_1_132)"/>
<path d="M199.287 480.185C188.468 491.212 185.955 508.245 186.695 523.111C189.594 508.684 192.054 492.977 199.14 480.571C199.279 480.324 199.888 479.784 199.888 479.745C199.68 479.938 199.487 480.054 199.287 480.185Z" fill="url(#paint12_linear_1_132)"/>
<path d="M170.888 499.447C177.288 484.619 181.027 468.858 184.374 453.159C177.388 467.732 173.687 483.586 170.888 499.447Z" fill="url(#paint13_linear_1_132)"/>
<path d="M211.986 415.707C216.073 401.28 219.034 386.406 223.059 372.079C215.58 385.288 212.68 400.686 211.986 415.707Z" fill="url(#paint14_linear_1_132)"/>
<path d="M86.3076 601.253C81.2416 592.339 73.9936 585.053 67.6938 577.026C61.2938 568.174 52.2414 552.906 47.6611 540.553C50.1672 554.834 55.881 568.96 64.6868 580.472C71.7345 588.6 80.1467 595.393 86.9477 603.713C87.7419 604.6 88.7134 605.733 89.3072 606.373C88.2739 604.646 87.2869 602.911 86.3076 601.253Z" fill="url(#paint15_linear_1_132)"/>
<path d="M51.5938 579.285C57.3537 596.226 68.0949 611.185 80.7944 623.653C71.3951 608.64 61.1089 594.198 51.5938 579.285Z" fill="url(#paint16_linear_1_132)"/>
<path d="M223.661 691.231C216.467 686.512 207.267 686.905 199.348 683.967C184.135 677.752 166.793 664.814 151.148 655.16C166.061 668.492 181.475 684.553 201.662 688.941C208.555 690.406 217.122 689.465 223.028 692.241C224.894 693.028 226.868 694.153 228.542 695.04C227.007 693.706 225.38 692.372 223.661 691.231Z" fill="url(#paint17_linear_1_132)"/>
<path d="M174.874 645.644C181.721 650.379 189.44 653.972 197.274 656.486C189.941 651.798 182.747 648.459 174.874 645.644Z" fill="url(#paint18_linear_1_132)"/>
<path d="M251.528 716.638C246.747 713.739 241.92 710.786 236.646 708.92C231.588 707.092 224.941 706.799 221.34 706.259C210.568 704.378 200.019 701.324 189.294 699.019C170.348 695.479 152.775 687.491 134.308 682.279C117.22 678.284 99.7938 675.778 82.4136 673.272C101.028 678.639 119.981 682.865 138.186 689.365C155.574 696.158 172.9 703.206 191.46 705.959C201.909 707.67 212.287 710.092 222.82 710.531C232.667 710.038 241.08 712.351 249.739 716.453C251.266 717.124 253.587 718.026 254.82 718.219C253.679 717.772 252.6 717.24 251.528 716.638Z" fill="url(#paint19_linear_1_132)"/>
<path d="M258.259 738.352C223.406 715.744 180.141 716.785 140.114 716.746C164.889 720.478 186.926 721.804 210.753 726.485C226.167 727.865 241.087 731.721 256.594 738.306C257.82 738.745 260.326 739.632 260.881 739.485C259.94 739.239 259.1 738.776 258.259 738.352Z" fill="url(#paint20_linear_1_132)"/>
<path d="M203.967 815.846C188.322 813.386 172.407 815.391 156.661 814.311C136.12 812.507 112.802 805.652 90.3018 801.319C115.894 810.664 142.335 822.724 170.248 819.524C182.562 818.437 191.175 816.671 204.314 816.37C205.193 816.332 206.126 816.332 207.021 816.278C205.988 816.139 204.947 815.977 203.967 815.846Z" fill="url(#paint21_linear_1_132)"/>
<path d="M275.154 844.839C268.754 844.939 257.133 845.332 253.347 844.638C228.781 838.786 202.934 836.364 178.028 841.631C196.973 841.045 213.475 843.304 229.66 845.818C238.72 847.044 247.626 849.804 256.84 849.658C262.546 849.596 269.239 848.27 273.465 847.738C278.4 846.913 287.159 846.412 291.092 844.584C285.887 845.432 280.466 844.746 275.154 844.839Z" fill="url(#paint22_linear_1_132)"/>
<path d="M342.392 843.212C359.479 852.758 377.407 861.91 396.198 867.223C379.127 857.639 361.407 848.578 342.392 843.212Z" fill="url(#paint23_linear_1_132)"/>
<path d="M402.66 882.892C398.627 882.437 394.579 883.578 390.554 883.578C373.166 883.778 355.848 883.185 338.475 883.539C356.534 886.585 375.001 889.978 393.353 888.058C404.279 885.405 414.28 887.318 426.14 889.631C420.187 886.824 410.386 883.624 402.66 882.892Z" fill="url(#paint24_linear_1_132)"/>
<path d="M257.033 911.144C282.386 910.905 311.788 911.537 333.494 898.838C309.074 906.171 282.733 904.945 257.033 911.144Z" fill="url(#paint25_linear_1_132)"/>
<path d="M474.001 938.656C459.62 939.111 430.574 932.75 409.114 932.364C430.574 938.032 452.881 943.352 475.127 939.35C476.16 939.003 473.847 938.572 474.001 938.656Z" fill="url(#paint26_linear_1_132)"/>
<path d="M456.112 941.864C434.861 942.057 413.733 947.431 392.413 945.056C412.985 951.757 438.161 948.264 455.271 945.943C464.393 945.118 473.932 945.604 482.552 942.057C473.847 943.784 464.933 942.064 456.112 941.864Z" fill="url(#paint27_linear_1_132)"/>
<path d="M464.139 927.044C449.673 920.258 434.807 914.151 421.267 905.585C440.174 923.065 467.185 936.551 492.098 937.292C480.987 934.678 474.04 931.616 464.139 927.044Z" fill="url(#paint28_linear_1_132)"/>
<path d="M522.872 923.952C519.68 916.465 516.92 912.131 514.745 905.191C506.965 882.043 494.913 860.677 481.866 840.143C489.993 859.99 497.465 877.71 507.127 897.504C511.26 907.003 516.233 915.963 522.379 924.283C522.965 925.186 523.713 926.658 524.006 927.036C523.674 926.018 523.258 924.977 522.872 923.952Z" fill="url(#paint29_linear_1_132)"/>
<defs>
<linearGradient id="paint0_linear_1_132" x1="410.418" y1="962.514" x2="565.516" y2="928.288" gradientUnits="userSpaceOnUse">
<stop stop-color="#0B9B8A"/>
<stop offset="1" stop-color="#08DEC5"/>
</linearGradient>
<linearGradient id="paint1_linear_1_132" x1="163.083" y1="528.733" x2="179.815" y2="527.404" gradientUnits="userSpaceOnUse">
<stop stop-color="#0B9B8A"/>
<stop offset="1" stop-color="#08DEC5"/>
</linearGradient>
<linearGradient id="paint2_linear_1_132" x1="303.372" y1="982.893" x2="568.634" y2="907.656" gradientUnits="userSpaceOnUse">
<stop stop-color="#0B9B8A"/>
<stop offset="1" stop-color="#08DEC5"/>
</linearGradient>
<linearGradient id="paint3_linear_1_132" x1="433.098" y1="1072.51" x2="628.574" y2="986.487" gradientUnits="userSpaceOnUse">
<stop stop-color="#0B9B8A"/>
<stop offset="1" stop-color="#08DEC5"/>
</linearGradient>
<linearGradient id="paint4_linear_1_132" x1="301.694" y1="689.419" x2="305.265" y2="689.35" gradientUnits="userSpaceOnUse">
<stop stop-color="#0B9B8A"/>
<stop offset="1" stop-color="#08DEC5"/>
</linearGradient>
<linearGradient id="paint5_linear_1_132" x1="281.407" y1="561.172" x2="281.431" y2="561.146" gradientUnits="userSpaceOnUse">
<stop stop-color="#0B9B8A"/>
<stop offset="1" stop-color="#08DEC5"/>
</linearGradient>
<linearGradient id="paint6_linear_1_132" x1="282.417" y1="561.245" x2="284.744" y2="561.184" gradientUnits="userSpaceOnUse">
<stop stop-color="#0B9B8A"/>
<stop offset="1" stop-color="#08DEC5"/>
</linearGradient>
<linearGradient id="paint7_linear_1_132" x1="268.775" y1="526.967" x2="272.437" y2="526.809" gradientUnits="userSpaceOnUse">
<stop stop-color="#0B9B8A"/>
<stop offset="1" stop-color="#08DEC5"/>
</linearGradient>
<linearGradient id="paint8_linear_1_132" x1="421.95" y1="682.04" x2="423.361" y2="681.995" gradientUnits="userSpaceOnUse">
<stop stop-color="#0B9B8A"/>
<stop offset="1" stop-color="#08DEC5"/>
</linearGradient>
<linearGradient id="paint9_linear_1_132" x1="437.294" y1="837.344" x2="442.633" y2="837.112" gradientUnits="userSpaceOnUse">
<stop stop-color="#0B9B8A"/>
<stop offset="1" stop-color="#08DEC5"/>
</linearGradient>
<linearGradient id="paint10_linear_1_132" x1="452.925" y1="860.538" x2="454.943" y2="860.487" gradientUnits="userSpaceOnUse">
<stop stop-color="#0B9B8A"/>
<stop offset="1" stop-color="#08DEC5"/>
</linearGradient>
<linearGradient id="paint11_linear_1_132" x1="422.663" y1="845.525" x2="426.11" y2="845.403" gradientUnits="userSpaceOnUse">
<stop stop-color="#0B9B8A"/>
<stop offset="1" stop-color="#08DEC5"/>
</linearGradient>
<linearGradient id="paint12_linear_1_132" x1="193.79" y1="523.111" x2="200.528" y2="522.07" gradientUnits="userSpaceOnUse">
<stop stop-color="#0B9B8A"/>
<stop offset="1" stop-color="#08DEC5"/>
</linearGradient>
<linearGradient id="paint13_linear_1_132" x1="178.197" y1="499.447" x2="185.038" y2="498.443" gradientUnits="userSpaceOnUse">
<stop stop-color="#0B9B8A"/>
<stop offset="1" stop-color="#08DEC5"/>
</linearGradient>
<linearGradient id="paint14_linear_1_132" x1="217.987" y1="415.707" x2="223.633" y2="414.985" gradientUnits="userSpaceOnUse">
<stop stop-color="#0B9B8A"/>
<stop offset="1" stop-color="#08DEC5"/>
</linearGradient>
<linearGradient id="paint15_linear_1_132" x1="70.2313" y1="606.373" x2="89.8221" y2="600.13" gradientUnits="userSpaceOnUse">
<stop stop-color="#0B9B8A"/>
<stop offset="1" stop-color="#08DEC5"/>
</linearGradient>
<linearGradient id="paint16_linear_1_132" x1="67.4191" y1="623.653" x2="81.0525" y2="619.134" gradientUnits="userSpaceOnUse">
<stop stop-color="#0B9B8A"/>
<stop offset="1" stop-color="#08DEC5"/>
</linearGradient>
<linearGradient id="paint17_linear_1_132" x1="193.092" y1="695.04" x2="213.603" y2="674.993" gradientUnits="userSpaceOnUse">
<stop stop-color="#0B9B8A"/>
<stop offset="1" stop-color="#08DEC5"/>
</linearGradient>
<linearGradient id="paint18_linear_1_132" x1="187.014" y1="656.486" x2="192.587" y2="650.687" gradientUnits="userSpaceOnUse">
<stop stop-color="#0B9B8A"/>
<stop offset="1" stop-color="#08DEC5"/>
</linearGradient>
<linearGradient id="paint19_linear_1_132" x1="175.85" y1="718.219" x2="194.73" y2="681.746" gradientUnits="userSpaceOnUse">
<stop stop-color="#0B9B8A"/>
<stop offset="1" stop-color="#08DEC5"/>
</linearGradient>
<linearGradient id="paint20_linear_1_132" x1="205.564" y1="739.502" x2="213.248" y2="718.963" gradientUnits="userSpaceOnUse">
<stop stop-color="#0B9B8A"/>
<stop offset="1" stop-color="#08DEC5"/>
</linearGradient>
<linearGradient id="paint21_linear_1_132" x1="153.558" y1="820.05" x2="159.133" y2="802.554" gradientUnits="userSpaceOnUse">
<stop stop-color="#0B9B8A"/>
<stop offset="1" stop-color="#08DEC5"/>
</linearGradient>
<linearGradient id="paint22_linear_1_132" x1="239.303" y1="849.663" x2="241.389" y2="838.808" gradientUnits="userSpaceOnUse">
<stop stop-color="#0B9B8A"/>
<stop offset="1" stop-color="#08DEC5"/>
</linearGradient>
<linearGradient id="paint23_linear_1_132" x1="371.553" y1="867.223" x2="383.816" y2="853.384" gradientUnits="userSpaceOnUse">
<stop stop-color="#0B9B8A"/>
<stop offset="1" stop-color="#08DEC5"/>
</linearGradient>
<linearGradient id="paint24_linear_1_132" x1="385.985" y1="889.631" x2="387.052" y2="882.752" gradientUnits="userSpaceOnUse">
<stop stop-color="#0B9B8A"/>
<stop offset="1" stop-color="#08DEC5"/>
</linearGradient>
<linearGradient id="paint25_linear_1_132" x1="298.471" y1="911.144" x2="302.143" y2="899.655" gradientUnits="userSpaceOnUse">
<stop stop-color="#0B9B8A"/>
<stop offset="1" stop-color="#08DEC5"/>
</linearGradient>
<linearGradient id="paint26_linear_1_132" x1="445.034" y1="940.745" x2="447.071" y2="932.634" gradientUnits="userSpaceOnUse">
<stop stop-color="#0B9B8A"/>
<stop offset="1" stop-color="#08DEC5"/>
</linearGradient>
<linearGradient id="paint27_linear_1_132" x1="441.264" y1="948.95" x2="442.375" y2="941.833" gradientUnits="userSpaceOnUse">
<stop stop-color="#0B9B8A"/>
<stop offset="1" stop-color="#08DEC5"/>
</linearGradient>
<linearGradient id="paint28_linear_1_132" x1="459.654" y1="937.292" x2="475.853" y2="919.066" gradientUnits="userSpaceOnUse">
<stop stop-color="#0B9B8A"/>
<stop offset="1" stop-color="#08DEC5"/>
</linearGradient>
<linearGradient id="paint29_linear_1_132" x1="504.704" y1="927.036" x2="525.311" y2="922.003" gradientUnits="userSpaceOnUse">
<stop stop-color="#0B9B8A"/>
<stop offset="1" stop-color="#08DEC5"/>
</linearGradient>
</defs>
</svg>
