<svg width="641" height="1388" viewBox="0 0 641 1388" fill="none" xmlns="http://www.w3.org/2000/svg">
<g clip-path="url(#clip0_1_48)">
<path d="M624.602 409.851C617.368 388.566 605.47 359.96 597.131 343.785C591.177 329.56 585.475 315.189 577.116 302.127C571.308 291.354 562.813 282.685 554.095 274.268C543.526 262.331 532.685 250.626 519.351 241.579C502.032 227.771 480.302 221.594 461.606 210.006C451.376 203.257 442.735 199.795 433.746 195.16C414.178 183.63 395.298 171.014 376.418 158.369C368.68 153.851 359.332 147.906 350.731 142.156C355.754 142.883 360.079 143.262 362.125 143.213C371.608 143.882 381.625 147.228 393.698 145.919C401.184 144.929 408.612 142.884 415.429 139.684C416.418 139.441 418.144 138.306 416.418 139.17C416.98 139.053 417.475 138.801 417.892 138.442C419.696 137.259 420.006 134.661 419.017 132.934C418.27 131.693 416.913 130.888 415.477 130.82C414.818 130.151 407.497 127.911 404.588 126.127C391.468 119.494 376.864 117.206 362.871 113.182C349.121 107.858 340.016 105.259 327.943 97.3368C321.572 93.1865 312.893 81.2398 308.433 74.9271C302.382 66.6847 297.233 61.7392 291.666 49.8508C286.643 38.3308 277.295 29.4775 266.726 22.9805C256.263 15.5429 249.95 9.05564 235.521 2.66534C222.197 -1.23284 208.02 1.87013 195.153 5.87498C190.624 7.31013 185.426 8.67738 181.344 10.2192C183.38 9.71496 185.427 9.28831 187.473 9.11376C211.492 4.76952 230.382 1.98653 246.1 16.852C244.19 15.0483 247.788 18.452 248.573 18.7623C249.184 19.3151 250.125 20.178 250.367 20.3137C251.162 20.9925 252.103 21.4192 252.985 22.1174C250.26 20.2556 261.092 29.3611 258.736 27.1793C266.542 33.0072 274.396 38.389 277.868 43.5284C283.686 50.772 286.275 59.9259 291.851 67.3635C301.334 78.6314 306.154 88.5417 319.332 101.225C330.435 110.942 344.971 115.16 358.401 120.6C366.391 123.645 374.867 124.692 383.041 127.106C391.972 129.647 397.034 132.004 403.909 135.087C393.998 138.016 382.682 138.307 373.131 136.193C358.595 133.788 341.868 134.66 328.748 127.048C324.724 125.865 321.436 131.266 324.53 134.214C332.413 139.722 340.016 145.676 348.006 151.058C373.703 166.36 398.1 183.62 423.594 199.223C432.815 205.419 439.148 206.66 447.303 211.548C458.144 217.86 468.733 224.435 480.243 229.507C498.202 237.196 515.977 248.328 528.049 259.354C538.571 269.07 547.298 280.532 557.839 290.181C573.373 306.908 582.459 332.207 592.428 353.948C602.755 375.62 611.87 396.488 618.677 421.545C628.646 464.774 633.591 503.213 634.464 547.907C635.026 562.947 633.669 577.996 632.185 592.978C629.877 584.435 630.013 576.028 627.909 567.3C621.528 547.907 610.076 530.268 597.877 514.112C576.903 484.721 543.351 439.998 517.829 406.02C539.007 443.548 563.22 479.494 588.413 514.365C600.408 529.346 615.157 548.236 624.496 567.921C627.337 575.213 629.635 588.731 632.185 593.055C631.691 598.379 631.128 603.703 630.624 609.017C629.693 618.491 624.496 633.114 621.693 645.807C618.183 658.927 613.16 665.851 608.583 679.038C602.648 697.87 599.671 717.361 594.716 736.445C588.452 758.864 591.739 782.263 591.817 805.177C586.677 841.017 564.18 880.26 540.045 913.569C526.983 937.792 516.646 963.47 507.802 989.467C503.157 1013.3 498.871 1032.54 486.129 1052.32C480.302 1061.6 474.978 1069.03 469.169 1073.3C462.226 1077.83 453.431 1079.31 445.024 1086.31C438.944 1090.89 435.298 1097.82 432.893 1105.02C433.126 1090.58 432.816 1076.1 432.195 1061.67C428.811 1082.85 427.511 1104.2 427.385 1125.56C423.167 1145.17 421.247 1163.82 411.589 1179.11C414.886 1157.81 415.923 1136.21 415.177 1114.85C410.91 1136.7 409.359 1159.06 410.154 1181.27C409.242 1182.58 408.243 1183.88 407.254 1185.11C399.758 1196.32 383.167 1208.14 372.704 1221.27C357.713 1239.9 343.041 1263.37 330.968 1287.76C331.094 1282.43 330.658 1276.99 330.726 1271.83C330.6 1257.16 331.54 1242.55 331.472 1227.95C331.472 1222.19 329.31 1218.98 327.565 1213.9C323.356 1195.89 313.766 1179.61 304.796 1163.56C299.027 1155.47 295.322 1146.19 290.357 1137.57C285.16 1129.21 280.137 1120.79 275.143 1112.32C262.323 1091.76 239.477 1073.12 227.957 1056.15C211.492 1027.43 199.361 996.294 182.391 967.814C172.859 953.947 163.201 940.139 152.67 927.019C145.068 917.487 138.066 911.349 132.684 902.99C123.831 889.317 116.161 874.888 107.385 861.196C103.477 853.467 99.5599 845.72 95.3514 838.175C96.9126 836.798 98.3865 835.383 99.938 834.083C111.759 824.978 123.705 813.274 132.772 800.028C140.19 788.828 142.1 778.549 147.87 768.639C160.748 747.034 181.48 725.739 202.716 704.435C178.648 722.025 153.872 741.594 138.832 767.775C133.877 777.996 131.948 786.656 127.506 794.966C118.643 810.18 110.159 820.343 97.6688 833.715C96.7864 834.762 95.8072 835.926 94.8084 837.177C92.3356 832.794 89.7948 828.401 87.0021 824.115C70.9148 792.978 56.1657 760.968 44.6651 733.099C34.1342 703.64 23.4869 676.226 15.8651 643.838C11.5403 631.882 12.9754 622.175 9.93058 609.104C11.9863 605.691 13.7608 602.229 15.6905 598.777C24.3111 581.875 34.3187 557.031 35.3757 542.185C38.1684 533.332 41.6881 524.663 43.9863 515.684C46.3232 507.635 47.2641 499.228 49.3781 491.092C55.6811 471.165 58.0374 456.134 63.4968 435.693C65.9017 425.424 65.4556 419.78 68.9271 408.823C72.8931 397.565 82.2506 385.346 89.0481 376.057C96.7281 364.857 96.9901 359.485 102.866 349.632C111.584 334.398 122.978 321.773 131.88 311.3C136.534 305.918 146.997 289.569 151.157 284.255C163.278 269.584 175.778 256.018 185.368 242.782C194.231 231.009 201.659 218.384 209.834 206.195C215.458 196.721 222.033 187.858 228.219 178.84V178.898C224.379 188.372 215.894 203.344 209.135 214.612C209.019 215.116 207.099 217.647 206.372 218.646C206.236 218.772 206.12 218.888 206.052 219.014L205.189 219.693C205.315 219.625 205.383 219.625 205.499 219.567C203.763 221.119 203.521 223.96 205.189 225.647C206.43 226.937 208.544 227.247 210.134 226.365C210.212 226.316 210.26 226.316 210.377 226.258C210.823 225.996 211.366 225.744 211.695 225.647C215.031 224.212 218.125 222.35 219.434 218.762C219.676 218.52 219.802 218.268 219.88 218.151C219.986 218.025 220.103 217.831 220.229 217.715C222.033 215.601 223.099 213.012 224.631 210.714C233.979 198.583 247.167 183.417 249.33 165.458C250.513 161.249 250.561 144.105 251.259 139.887C253.101 134.127 255.758 128.183 258.367 122.248C257.795 125.536 257.31 128.93 257.009 132.033C256.437 139.334 255.526 146.268 255.574 150.36C256.389 153.453 259.482 156.178 262.634 154.316C264.631 153.269 264.816 150.719 265.368 148.808C266.105 146.025 267.23 143.359 268.2 140.644C275.152 122.859 278.808 103.989 279.681 84.9829C280.341 87.892 280.912 90.7428 281.834 93.584C289.029 125.72 299.851 156.74 315.453 185.773C326.11 205.148 331.375 223.107 340.84 244.469C352.786 272.328 354.154 306.5 358.236 335.96C358.663 343.407 360.399 350.282 360.282 357.633C360.282 360.93 361.077 351.882 361.019 351.068C360.883 319.63 362.396 287.426 354.27 256.784C351.371 245.759 346.037 236.294 343.002 228.304C340.035 219.315 336.399 210.588 332.491 202.054C349.325 211.771 364.878 223.679 382.129 232.697C405.596 245.642 429.984 257.347 451.715 273.056C459.531 279.184 468.19 285.439 476.432 294.156C484.607 303.223 492.035 313.24 502.74 319.485C504.476 320.677 506.639 321.715 508.5 322.277C506.154 321.172 504.049 319.553 502.139 317.807C486.769 304.018 479.477 285.439 461.712 271.824C439.545 251.945 412.035 239.62 385.242 227.499C367.283 219.693 350.498 209.482 332.442 201.919C327.662 191.524 322.474 181.245 317.266 171.034C302.032 142.117 292.064 113.696 281.3 81.5695C281.058 80.6386 280.437 78.9707 279.497 78.7283C275.54 47.281 252.132 3.99388 215.468 21.9624C228.122 17.1333 243.957 19.5478 252.937 30.1951C263.089 44.4884 268.287 57.0168 270.828 73.8992C272.447 85.1186 271.254 97.3756 268.481 109.933C268.413 109.274 268.287 108.576 268.035 107.897C266.609 104.862 265.814 101.022 262.895 99.2374C261.111 98.3162 258.629 99.3634 257.95 101.216C257.766 103.32 252.258 120.338 251.085 122.2C247.235 129.938 243.036 137.792 243.395 146.646C243.104 157.788 241.291 168.803 238.391 175.931C237.402 178.403 236.151 180.692 234.862 182.932C235.298 181.691 235.793 180.45 236.035 179.15C236.035 178.471 235.899 177.783 235.598 177.172C235.23 176.493 234.367 174.137 235.104 175.999C234.968 175.63 234.92 175.252 234.862 174.893C234.193 171.228 233.436 164.925 228.423 166.583C202.842 201.191 185.892 231.776 160.447 260.197C147.308 274.306 133.005 295.727 126.149 305.075C115.133 317.206 94.7015 342.418 89.5524 357.778C82.9778 374.04 67.3852 386.132 60.2191 408.289C57.8046 416.765 57.2423 424.066 56.0592 429.894C53.4605 441.899 49.698 453.72 47.8168 465.919C46.2749 471.116 41.0773 488.212 39.2834 497.802C36.9852 511.552 32.4859 524.614 28.0156 537.734C24.9805 558.117 14.3235 584.852 3.43377 603.606C2.19256 604.1 1.32944 605.148 1.03853 606.699C1.03853 606.815 0.960998 606.883 0.960998 607.01C0.960998 607.194 0.834933 607.368 0.834933 607.562C0.776751 607.698 0.776635 607.872 0.776635 608.125C0.708756 608.192 0.650569 608.299 0.650569 608.367C-0.290037 610.297 0.650541 612.459 2.31842 613.565C2.76448 616.173 3.25923 619.257 3.55984 623.669C4.41317 637.535 8.99971 650.704 12.4034 664.086C18.9003 686.806 25.7851 707.121 33.7075 726.864C37.2857 739.994 44.5974 753.317 48.4956 762.772C60.9368 794.355 77.722 823.882 93.9354 853.526C104.011 873.026 115.608 891.926 127.497 910.437C135.41 921.317 148.18 933.894 153.601 942.069C166.973 959.901 179.986 978.035 189.092 998.457C201.717 1021.5 210.512 1047.14 226.28 1068.23C236.578 1081.09 252.549 1096.22 260.277 1106.05C268.268 1116.21 273.824 1127.9 281.029 1138.57C294.217 1164.57 312.04 1188.64 318.857 1214.34C324.054 1228.7 323.366 1228.33 322.445 1246.84C322.008 1255.76 322.309 1266.71 322.445 1276.44C294.886 1284.43 267.589 1297.11 248.767 1319.2C236.937 1336.62 228.209 1358.47 235.084 1379.39C235.763 1382.01 237.179 1385.52 238.061 1387.31C236.646 1382 236.132 1377.03 236.074 1371.39C235.346 1358.51 239.662 1349.8 245.742 1338.15C251.812 1327.44 255.952 1321.12 265.785 1313.27C281.708 1298.47 301.325 1287.15 322.503 1276.92C322.571 1285.27 322.503 1292.65 321.572 1296.92C319.458 1304.05 307.647 1313.39 299.288 1320.19C291.918 1326.27 279.836 1336.29 266.842 1337.6C260.888 1338.6 244.976 1342.92 240.331 1344.03C247.031 1343.53 261.829 1340.07 268.626 1340.01C281.649 1339.4 292.665 1332.96 302.924 1325.47C308.374 1321.2 314.076 1317.98 319.768 1312.84C319.768 1312.84 319.768 1312.84 319.768 1312.89C319.768 1312.89 319.768 1312.84 319.846 1312.84C321.32 1311.46 322.794 1310.05 324.297 1308.31C327.807 1304.53 329.62 1300.14 330.435 1295.43C346.396 1270.23 365.286 1244.11 379.618 1226.47C392.951 1211.05 410.357 1199.11 420.578 1181.09C432.69 1161.9 434.173 1124.32 442.231 1104.56C448.224 1088.47 462.227 1088.83 477.082 1078.08C487.807 1067.65 495.477 1054.53 501.907 1041.16C509.897 1025.95 512.515 1008.92 516.025 992.318C522.105 973.448 528.108 959.009 535.535 942.728C541.412 927.31 549.78 913.317 560.108 900.508C569.281 886.166 576.903 870.864 584.757 855.824C591.681 840.522 597.819 824.551 600.234 807.843C601.116 783.203 596.82 759.611 603.259 738.141C608.03 719.562 611.007 700.488 616.699 682.171C620.045 672.008 626.542 661.041 630.081 648.047C632.68 635.926 637.141 624.154 638.925 611.829C640.971 592.144 643.152 572.333 643.24 552.532C642.386 504.338 636.743 456.416 624.602 409.851Z" fill="url(#paint0_linear_1_48)"/>
<path d="M210.184 226.491C209.631 226.792 209.359 226.918 210.416 226.345C210.358 226.423 210.3 226.423 210.184 226.491Z" fill="url(#paint1_linear_1_48)"/>
<path d="M209.436 226.791C209.436 226.791 209.93 226.588 210.182 226.491C209.93 226.588 209.688 226.733 209.436 226.791Z" fill="url(#paint2_linear_1_48)"/>
<path d="M210.231 226.423C210.231 226.423 210.183 226.423 210.183 226.491C210.231 226.423 210.299 226.423 210.416 226.345C210.358 226.423 210.299 226.423 210.231 226.423Z" fill="url(#paint3_linear_1_48)"/>
<path d="M412.394 624.193C411.279 600.047 409.281 575.902 403.027 552.493C388.045 491.742 374.809 430.651 358.333 370.355C365.761 440.551 384.719 508.712 399.507 577.57C402.484 592.299 402.6 607.766 405.005 625.114C407.478 644.605 413.325 663.747 413.112 683.548C413.112 688.125 413.112 693.138 413.112 697.541C413.732 692.828 414.43 688.183 415.041 683.48C417.689 663.688 413.79 643.926 412.394 624.193Z" fill="url(#paint4_linear_1_48)"/>
<path d="M423.642 901.555C419.685 849.599 414.924 807.62 415.108 753.889C412.073 781.303 411.075 808.988 410.89 836.595C412.888 855.902 414.052 875.295 415.225 894.66C417.087 921.463 411.996 948.159 411.947 974.951C410.26 1010.01 414.217 1045.72 405.063 1076.92C397.567 1100.9 392.495 1125.47 386.192 1149.75C380.122 1169.05 370.522 1185.14 362.726 1205.52C359.574 1214.56 356.519 1225.02 353.882 1233.38C358.013 1224.89 361.727 1216.22 365.819 1207.7C374.537 1190.54 385.378 1174.44 392.495 1156.56C388.471 1172.47 385.029 1188.51 382.895 1204.78C393.378 1177.17 401.116 1148.57 402.716 1118.97C402.357 1120.41 401.921 1121.74 401.552 1123.18C402.716 1117.98 403.899 1112.84 405.382 1107.76C409.649 1091.1 415.719 1074.82 418.134 1057.73C420.481 1034.28 419.637 1010.67 420.355 987.16C419.686 958.573 424.321 930.151 423.642 901.555Z" fill="url(#paint5_linear_1_48)"/>
<path d="M459.25 946.51C453.054 983.882 447.846 1023.46 455.517 1060.71C455.672 1022.63 460.287 984.629 459.25 946.51Z" fill="url(#paint6_linear_1_48)"/>
<path d="M438.062 773.09C444.568 802.617 454.023 834.869 465.679 861.119C460.171 830.787 451.366 801.085 438.062 773.09Z" fill="url(#paint7_linear_1_48)"/>
<path d="M503.138 865.259C504.816 886.631 510.013 907.809 514.154 928.532C515.085 906.995 509.829 885.574 503.138 865.259Z" fill="url(#paint8_linear_1_48)"/>
<path d="M351.701 941.603C344.273 955.538 334.111 967.727 325.636 981.041C313.67 998.806 303.226 1014.59 289.961 1030.3C287.071 1034.46 282.533 1040.65 281 1043.94C282.794 1041.45 284.899 1039.23 286.945 1036.93C302.906 1020.97 318.256 1004.49 331.522 986.103C341.917 971.868 353.243 958.117 361.117 942.214C379.822 905.211 390.082 864.59 404.996 825.967C383.517 864.154 370.232 905.065 351.701 941.603Z" fill="url(#paint9_linear_1_48)"/>
<path d="M302.227 1112.72C325.568 1084.36 346.823 1053.86 367.856 1020.64C341.18 1047.65 319.517 1079.16 302.227 1112.72Z" fill="url(#paint10_linear_1_48)"/>
<path d="M361.301 1121.45C373.073 1106.7 383.643 1090.74 395.347 1076.02C381.558 1087.96 368.293 1107.77 361.301 1121.45Z" fill="url(#paint11_linear_1_48)"/>
<path d="M177.98 806.011C188.579 798.108 199.527 790.108 206.722 778.772C222.373 755.305 228.2 726.942 239.604 701.39C214.945 737.046 210.184 776.483 177.98 806.011Z" fill="url(#paint12_linear_1_48)"/>
<path d="M247.265 662.321C263.478 643.131 277.025 620.964 292.695 600.299C273.146 617.25 259.279 639.717 247.265 662.321Z" fill="url(#paint13_linear_1_48)"/>
<path d="M319.09 491.257C334.062 470.457 345.397 446.806 354.377 423.97C339.88 444.837 328.67 467.936 319.09 491.257Z" fill="url(#paint14_linear_1_48)"/>
<path d="M234.339 611.868C262.858 592.251 284.036 563.218 304.351 535.087C278.518 557.943 257.049 587.16 234.339 611.868Z" fill="url(#paint15_linear_1_48)"/>
<path d="M584.486 651.053C568.758 616.338 548.588 584.008 527.468 552.377C542.751 586.598 559.72 620.217 577.931 652.983C588.007 668.071 597.859 682.821 600.758 699.538C600.768 682.19 592.719 666.035 584.486 651.053Z" fill="url(#paint16_linear_1_48)"/>
<path d="M599.72 470.467C604.035 496.164 614.129 520.367 626.396 543.223C619.637 518.137 609.009 493.865 599.72 470.467Z" fill="url(#paint17_linear_1_48)"/>
<path d="M335.671 170.821C362.726 186.685 390.227 204.324 419.686 214.544C391.875 197.255 369.339 181.914 335.671 170.821Z" fill="url(#paint18_linear_1_48)"/>
<path d="M350.159 234.53C351.333 235.528 352.69 236.508 353.999 237.254C352.816 236.197 351.517 235.325 350.159 234.53Z" fill="url(#paint19_linear_1_48)"/>
<path d="M251.346 200.493C245.46 207.97 240.583 214.845 232.961 221.158C258.474 203.945 275.744 177.085 294.323 153.104C278.905 167.863 264.534 183.698 251.346 200.493Z" fill="url(#paint20_linear_1_48)"/>
<path d="M235.075 225.376C260.752 210.006 282.803 189.943 304.214 169.259C279.08 185.075 256.796 205.187 235.075 225.376Z" fill="url(#paint21_linear_1_48)"/>
<path d="M114.581 416.057C94.4011 437.031 75.5209 460.071 61.2954 485.574C76.2093 466.636 94.178 450.287 109.761 431.843C125.79 413.332 144.185 396.004 160.719 378.656C145.233 390.544 128.263 401.628 114.581 416.057Z" fill="url(#paint22_linear_1_48)"/>
<path d="M154.755 466.016C127.836 479.892 103.759 498.268 81.9601 519.126C59.1043 541.109 38.1784 568.105 29.645 598.942C44.0644 567.048 69.9357 541.972 95.2739 518.273C111.119 502.903 128.69 486.622 143.992 475.548C149.548 471.33 156.307 466.132 161.388 462.602C159.177 463.717 156.947 464.823 154.755 466.016Z" fill="url(#paint23_linear_1_48)"/>
<path d="M493.984 978.869C486.42 952.755 477.005 926.99 470.828 900.44C472.369 927.737 478.44 954.597 486.789 980.614C488.088 986.917 488.021 999.31 489.33 1008.77C489.621 1018.56 488.66 1024.12 486.973 1032.92C486.236 1036.63 485.422 1040.9 485.169 1044.38C485.616 1042.75 486.11 1041.15 486.673 1039.55C489.94 1030.5 493.402 1021.48 494.343 1011.88C494.644 1000.96 495.342 989.826 493.984 978.869Z" fill="url(#paint24_linear_1_48)"/>
<path d="M473.669 944.755C467.899 923.102 454.653 904.523 444.006 885.08C451.133 903.039 458.93 917.71 464.622 934.913C468.025 948.11 471.933 966.001 473.475 976.222C475.89 998.738 479.041 1022.29 474.454 1043.02C474.338 1045.63 473.717 1047.91 473.087 1050.39C473.087 1050.51 473.165 1050.89 473.165 1050.59C473.465 1049.03 474.522 1047.74 474.9 1046.19C486.469 1013.85 482.891 977.318 473.669 944.755Z" fill="url(#paint25_linear_1_48)"/>
<path d="M444.947 1033.17C444.326 996.828 433.795 965.807 432.428 931.092C429.528 966.68 437.499 1008.77 439.749 1038.05C441.97 1053.65 445.063 1067.45 442.144 1083.45C442.076 1084.04 441.902 1084.49 441.97 1084.81C443.764 1079.6 445.189 1074.22 445.936 1068.79C447.342 1056.94 445.742 1044.99 444.947 1033.17Z" fill="url(#paint26_linear_1_48)"/>
<path d="M357.528 1146.46C348.491 1166.89 342.236 1188.3 337.591 1210.11C347.385 1188.25 356.277 1165.95 362.367 1142.81C363.792 1137.92 365.266 1130.36 367.923 1127.46C362.367 1132.24 360.68 1140.09 357.528 1146.46Z" fill="url(#paint27_linear_1_48)"/>
<path d="M341.926 1094.89C327.546 1115.01 316.859 1137.61 301.625 1157.11C322.474 1138.61 337.718 1114.34 351.264 1090.19C356.161 1080.04 363.589 1070.44 365.257 1059.18C359.933 1072.36 349.112 1082.64 341.926 1094.89Z" fill="url(#paint28_linear_1_48)"/>
<path d="M350.217 992.929C339.453 1010.07 334.197 1031.49 323.104 1046.05C337.96 1031.86 344.718 1011.88 356.898 995.654C382.1 965.865 395.346 928.978 414.915 895.737C390.333 926.117 373.053 961.424 350.217 992.929Z" fill="url(#paint29_linear_1_48)"/>
<path d="M233.02 246.729C217.66 256.949 202.814 268.149 191.798 283.131C184.176 292.052 177.679 301.71 171.851 311.795C168.331 316.925 162.746 322.51 157.364 327.64C155.512 329.444 152.535 331.916 151.304 333.109C155.202 330.617 159.168 328.086 162.824 325.225C170.62 319.669 177.059 312.668 182.324 304.61C185.786 299.916 195.26 289.628 201.02 283.325C229.248 254.661 262.557 234.229 295.857 209.153C274.194 220.421 253.209 233.036 233.02 246.729Z" fill="url(#paint30_linear_1_48)"/>
<path d="M154.018 300.954C143.574 313.764 133.101 325.032 119.06 332.896C118.43 333.274 117.993 333.39 117.557 333.691C121.29 332.585 124.752 330.918 128.263 329.308C141.528 322.995 151.923 312.348 162.202 302.127C183.002 282.2 202.008 260.518 222.449 240.222C197.295 257.57 174.333 278.166 154.018 300.954Z" fill="url(#paint31_linear_1_48)"/>
<path d="M602.619 641.143C600.098 618.064 593.707 595.577 585.281 573.972C589.063 596.634 592.97 619.363 598.478 641.637C600.447 650.18 602.377 658.597 601.009 666.84C604.238 658.743 603.55 649.628 602.619 641.143Z" fill="url(#paint32_linear_1_48)"/>
</g>
<defs>
<linearGradient id="paint0_linear_1_48" x1="348.732" y1="1387.31" x2="664.669" y2="1313.53" gradientUnits="userSpaceOnUse">
<stop stop-color="#D02964"/>
<stop offset="1" stop-color="#FC8F59"/>
</linearGradient>
<linearGradient id="paint1_linear_1_48" x1="210.087" y1="226.745" x2="210.291" y2="226.56" gradientUnits="userSpaceOnUse">
<stop stop-color="#D02964"/>
<stop offset="1" stop-color="#FC8F59"/>
</linearGradient>
<linearGradient id="paint2_linear_1_48" x1="209.84" y1="226.791" x2="209.991" y2="226.603" gradientUnits="userSpaceOnUse">
<stop stop-color="#D02964"/>
<stop offset="1" stop-color="#FC8F59"/>
</linearGradient>
<linearGradient id="paint3_linear_1_48" x1="210.309" y1="226.491" x2="210.382" y2="226.432" gradientUnits="userSpaceOnUse">
<stop stop-color="#D02964"/>
<stop offset="1" stop-color="#FC8F59"/>
</linearGradient>
<linearGradient id="paint4_linear_1_48" x1="389.554" y1="697.541" x2="419.173" y2="694.914" gradientUnits="userSpaceOnUse">
<stop stop-color="#D02964"/>
<stop offset="1" stop-color="#FC8F59"/>
</linearGradient>
<linearGradient id="paint5_linear_1_48" x1="391.725" y1="1233.38" x2="427.715" y2="1230.74" gradientUnits="userSpaceOnUse">
<stop stop-color="#D02964"/>
<stop offset="1" stop-color="#FC8F59"/>
</linearGradient>
<linearGradient id="paint6_linear_1_48" x1="455.867" y1="1060.71" x2="459.861" y2="1060.58" gradientUnits="userSpaceOnUse">
<stop stop-color="#D02964"/>
<stop offset="1" stop-color="#FC8F59"/>
</linearGradient>
<linearGradient id="paint7_linear_1_48" x1="453.029" y1="861.119" x2="466.991" y2="858.913" gradientUnits="userSpaceOnUse">
<stop stop-color="#D02964"/>
<stop offset="1" stop-color="#FC8F59"/>
</linearGradient>
<linearGradient id="paint8_linear_1_48" x1="509.166" y1="928.532" x2="514.885" y2="928.025" gradientUnits="userSpaceOnUse">
<stop stop-color="#D02964"/>
<stop offset="1" stop-color="#FC8F59"/>
</linearGradient>
<linearGradient id="paint9_linear_1_48" x1="348.2" y1="1043.94" x2="407.578" y2="1026.92" gradientUnits="userSpaceOnUse">
<stop stop-color="#D02964"/>
<stop offset="1" stop-color="#FC8F59"/>
</linearGradient>
<linearGradient id="paint10_linear_1_48" x1="337.795" y1="1112.72" x2="367.92" y2="1101.9" gradientUnits="userSpaceOnUse">
<stop stop-color="#D02964"/>
<stop offset="1" stop-color="#FC8F59"/>
</linearGradient>
<linearGradient id="paint11_linear_1_48" x1="379.753" y1="1121.45" x2="395.195" y2="1115.62" gradientUnits="userSpaceOnUse">
<stop stop-color="#D02964"/>
<stop offset="1" stop-color="#FC8F59"/>
</linearGradient>
<linearGradient id="paint12_linear_1_48" x1="211.377" y1="806.011" x2="240.727" y2="797.304" gradientUnits="userSpaceOnUse">
<stop stop-color="#D02964"/>
<stop offset="1" stop-color="#FC8F59"/>
</linearGradient>
<linearGradient id="paint13_linear_1_48" x1="271.886" y1="662.321" x2="292.607" y2="654.677" gradientUnits="userSpaceOnUse">
<stop stop-color="#D02964"/>
<stop offset="1" stop-color="#FC8F59"/>
</linearGradient>
<linearGradient id="paint14_linear_1_48" x1="338.214" y1="491.257" x2="355.306" y2="486.742" gradientUnits="userSpaceOnUse">
<stop stop-color="#D02964"/>
<stop offset="1" stop-color="#FC8F59"/>
</linearGradient>
<linearGradient id="paint15_linear_1_48" x1="272.282" y1="611.868" x2="302.243" y2="598.109" gradientUnits="userSpaceOnUse">
<stop stop-color="#D02964"/>
<stop offset="1" stop-color="#FC8F59"/>
</linearGradient>
<linearGradient id="paint16_linear_1_48" x1="567.188" y1="699.538" x2="602.917" y2="690.576" gradientUnits="userSpaceOnUse">
<stop stop-color="#D02964"/>
<stop offset="1" stop-color="#FC8F59"/>
</linearGradient>
<linearGradient id="paint17_linear_1_48" x1="614.177" y1="543.223" x2="627.544" y2="540.755" gradientUnits="userSpaceOnUse">
<stop stop-color="#D02964"/>
<stop offset="1" stop-color="#FC8F59"/>
</linearGradient>
<linearGradient id="paint18_linear_1_48" x1="381.203" y1="214.544" x2="403.685" y2="192.789" gradientUnits="userSpaceOnUse">
<stop stop-color="#D02964"/>
<stop offset="1" stop-color="#FC8F59"/>
</linearGradient>
<linearGradient id="paint19_linear_1_48" x1="352.24" y1="237.254" x2="353.564" y2="236.315" gradientUnits="userSpaceOnUse">
<stop stop-color="#D02964"/>
<stop offset="1" stop-color="#FC8F59"/>
</linearGradient>
<linearGradient id="paint20_linear_1_48" x1="266.216" y1="221.157" x2="292.577" y2="209.187" gradientUnits="userSpaceOnUse">
<stop stop-color="#D02964"/>
<stop offset="1" stop-color="#FC8F59"/>
</linearGradient>
<linearGradient id="paint21_linear_1_48" x1="272.545" y1="225.376" x2="298.412" y2="209.325" gradientUnits="userSpaceOnUse">
<stop stop-color="#D02964"/>
<stop offset="1" stop-color="#FC8F59"/>
</linearGradient>
<linearGradient id="paint22_linear_1_48" x1="115.178" y1="485.574" x2="157.43" y2="465.787" gradientUnits="userSpaceOnUse">
<stop stop-color="#D02964"/>
<stop offset="1" stop-color="#FC8F59"/>
</linearGradient>
<linearGradient id="paint23_linear_1_48" x1="101.043" y1="598.942" x2="156.239" y2="572.081" gradientUnits="userSpaceOnUse">
<stop stop-color="#D02964"/>
<stop offset="1" stop-color="#FC8F59"/>
</linearGradient>
<linearGradient id="paint24_linear_1_48" x1="483.815" y1="1044.38" x2="496.146" y2="1043.35" gradientUnits="userSpaceOnUse">
<stop stop-color="#D02964"/>
<stop offset="1" stop-color="#FC8F59"/>
</linearGradient>
<linearGradient id="paint25_linear_1_48" x1="464.696" y1="1050.7" x2="484.216" y2="1048.44" gradientUnits="userSpaceOnUse">
<stop stop-color="#D02964"/>
<stop offset="1" stop-color="#FC8F59"/>
</linearGradient>
<linearGradient id="paint26_linear_1_48" x1="439.764" y1="1084.81" x2="447.36" y2="1084.44" gradientUnits="userSpaceOnUse">
<stop stop-color="#D02964"/>
<stop offset="1" stop-color="#FC8F59"/>
</linearGradient>
<linearGradient id="paint27_linear_1_48" x1="354.03" y1="1210.11" x2="369.228" y2="1207.3" gradientUnits="userSpaceOnUse">
<stop stop-color="#D02964"/>
<stop offset="1" stop-color="#FC8F59"/>
</linearGradient>
<linearGradient id="paint28_linear_1_48" x1="336.111" y1="1157.11" x2="365.894" y2="1147.36" gradientUnits="userSpaceOnUse">
<stop stop-color="#D02964"/>
<stop offset="1" stop-color="#FC8F59"/>
</linearGradient>
<linearGradient id="paint29_linear_1_48" x1="372.861" y1="1046.05" x2="416.323" y2="1032.68" gradientUnits="userSpaceOnUse">
<stop stop-color="#D02964"/>
<stop offset="1" stop-color="#FC8F59"/>
</linearGradient>
<linearGradient id="paint30_linear_1_48" x1="229.644" y1="333.109" x2="285.338" y2="300.4" gradientUnits="userSpaceOnUse">
<stop stop-color="#D02964"/>
<stop offset="1" stop-color="#FC8F59"/>
</linearGradient>
<linearGradient id="paint31_linear_1_48" x1="174.404" y1="333.691" x2="215.598" y2="310.409" gradientUnits="userSpaceOnUse">
<stop stop-color="#D02964"/>
<stop offset="1" stop-color="#FC8F59"/>
</linearGradient>
<linearGradient id="paint32_linear_1_48" x1="595.097" y1="666.84" x2="604.393" y2="665.927" gradientUnits="userSpaceOnUse">
<stop stop-color="#D02964"/>
<stop offset="1" stop-color="#FC8F59"/>
</linearGradient>
<clipPath id="clip0_1_48">
<rect width="640" height="1386.67" fill="white" transform="translate(0.277344 0.873718)"/>
</clipPath>
</defs>
</svg>
