<svg width="641" height="1172" viewBox="0 0 641 1172" fill="none" xmlns="http://www.w3.org/2000/svg">
<path d="M349.256 692.338L347.093 690.009C272.028 609.183 243.228 488.453 273.724 382.437C292.008 318.853 329.436 262.821 365.628 208.633C403.208 152.364 442.063 94.1814 459.24 27.7237L465.615 3.07092L465.128 28.5301C464.194 78.1366 466.632 128.645 468.994 177.477C472.13 242.354 475.375 309.439 470.741 375.378C465.359 451.865 442.703 594.444 351.439 690.034L349.256 692.338ZM458.946 49.9189C439.509 108.793 404.54 161.151 370.607 211.954C334.671 265.759 297.506 321.401 279.477 384.089C249.845 487.109 277.263 604.274 349.32 683.583C437.455 589.369 459.503 450.021 464.783 374.956C469.391 309.369 466.152 242.469 463.023 177.765C460.994 135.865 458.908 92.735 458.946 49.9189Z" fill="url(#paint0_linear_1_525)"/>
<path d="M379.253 898.111L381.365 887.98C384.156 874.61 388.22 864.069 391.81 854.77C397.237 840.716 401.916 828.575 400.693 811.167C399.964 800.933 398.569 790.495 397.212 780.402C394.626 761.042 391.945 741.023 393.756 721.119C398.831 665.439 437.519 619.903 470.658 586.444C476.143 580.908 481.724 575.417 487.305 569.938C519.433 538.373 549.775 508.562 560.885 470.783L565.506 455.065L566.735 471.404C575.074 581.842 577.871 679.884 527.484 761.266C506.716 794.789 477.653 822.873 443.426 842.476C429.244 850.61 425.212 853.778 412.034 864.588C404.917 872.025 402.479 874.444 399.791 877.106C397.186 879.685 394.345 882.508 386.453 890.661L379.253 898.111ZM561.788 485.849C547.58 519.103 519.119 547.071 491.49 574.213C485.935 579.679 480.373 585.145 474.901 590.661C442.473 623.404 404.61 667.884 399.708 721.669C397.961 740.901 400.597 760.581 403.138 779.615C404.501 789.797 405.916 800.325 406.658 810.745C407.97 829.49 403.068 842.201 397.391 856.921C394.793 863.673 392.13 870.585 389.833 878.617C392.45 875.954 394.05 874.373 395.567 872.863C398.229 870.226 400.655 867.826 407.977 860.217C421.436 849.132 425.89 845.644 440.444 837.298C473.807 818.181 502.146 790.802 522.389 758.124C569.711 681.689 569.161 589.529 561.788 485.849Z" fill="url(#paint1_linear_1_525)"/>
<path d="M440.06 1046.03L439.298 1041.64C431.407 996.319 424.975 944.434 448.732 902.143C465.513 872.281 494.537 852.415 522.607 833.208C526.639 830.45 530.665 827.698 534.633 824.927C563.049 805.113 596.559 777.471 603.522 739.193L609.442 740.037C604.687 785.484 606.236 809.503 607.266 825.4C608.578 845.688 609.122 854.085 594.652 876.626C592.265 880.338 589.417 883.756 586.658 887.065C581.743 892.959 577.103 898.521 575.215 905.311C572.911 913.561 575.023 922.13 577.244 931.199C578.953 938.117 580.706 945.266 580.502 952.562C580.086 966.943 571.855 981.324 557.929 992.012C545.73 1001.36 531.375 1006.71 517.494 1011.88C489.391 1022.4 460.393 1033.25 443.842 1043.66L440.06 1046.03ZM601.308 764.524C587.535 792.53 561.161 813.727 538.05 829.829C534.063 832.613 530.025 835.372 525.98 838.143C498.473 856.965 470.038 876.421 453.942 905.074C431.881 944.338 437.09 993.055 444.444 1036.31C461.852 1026.3 489.007 1016.15 515.324 1006.3C528.86 1001.25 542.786 996.057 554.274 987.257C566.767 977.669 574.146 964.959 574.511 952.383C574.69 945.906 573.039 939.154 571.433 932.626C569.116 923.199 566.722 913.458 569.442 903.698C571.676 895.673 576.95 889.349 582.057 883.231C584.694 880.063 587.426 876.786 589.609 873.394C603.017 852.505 602.575 845.778 601.289 825.791C600.45 812.914 599.286 794.777 601.308 764.524Z" fill="url(#paint2_linear_1_525)"/>
<path d="M346.46 688.94C333.852 651.82 340.22 610.879 346.383 571.282C347.304 565.356 348.22 559.474 349.058 553.669C355.74 507.513 362.639 459.884 370.914 413.241C382.664 346.898 403.669 262.828 422.204 188.658C438.159 124.786 453.237 64.4725 459.189 27.9925L465.096 28.9525C459.093 65.6694 443.996 126.117 428.008 190.105C409.493 264.178 388.52 348.14 376.808 414.277C368.546 460.825 361.66 508.415 354.991 554.431C354.14 560.351 353.224 566.252 352.296 572.191C346.248 611.071 339.996 651.276 352.124 687.001L346.46 688.94Z" fill="url(#paint3_linear_1_525)"/>
<path d="M521.129 1096.92C500.572 1096.92 478.505 1087.92 453.666 1069.41L452.13 1068.27L452.534 1066.39C456.252 1048.98 475.977 1039.74 493.532 1039.6H493.545C502.716 1039.6 511.215 1041.09 519.433 1042.53C526.895 1043.85 534.614 1045.2 542.178 1045.36L543.9 1045.38C572.361 1045.38 597.903 1030.01 625.954 1011.45L635.196 1005.32L630.281 1015.27C614.454 1047.28 587.894 1073.22 555.497 1088.31C546.684 1092.41 539.202 1094.87 531.958 1096.04C528.418 1096.63 524.777 1096.92 521.129 1096.92ZM458.857 1065.81C486.044 1085.71 509.622 1093.62 530.991 1090.15C537.686 1089.06 544.668 1086.76 552.969 1082.9C580.585 1070.03 603.785 1048.98 619.305 1022.94C594.217 1039.01 570.53 1051.38 543.894 1051.38L542.044 1051.35C534.025 1051.18 526.082 1049.78 518.402 1048.43C510.428 1047.03 502.178 1045.59 494.102 1045.59C479.087 1045.71 462.914 1052.68 458.857 1065.81Z" fill="url(#paint4_linear_1_525)"/>
<path d="M303.023 1157C285.167 1157 264.93 1157 243.465 1154.35L223.388 1151.88L243.317 1148.43C259.996 1145.55 275.983 1134.16 292.181 1113.62C295.791 1109.04 299.253 1104.31 302.722 1099.58C311.765 1087.23 321.122 1074.46 333.205 1064.43C350.05 1050.44 372.072 1042.73 395.228 1042.73C412.597 1042.73 429.288 1047.14 443.503 1055.47L449.474 1058.97L442.837 1060.92C421.244 1067.27 402.511 1088.74 384.399 1109.5L381.896 1112.36C362.511 1134.43 338.671 1157 308.821 1157L303.023 1157ZM258.805 1149.85C274.543 1151.02 289.474 1151.02 303.023 1151.02H308.828C336.29 1151.01 358.901 1129.48 377.404 1108.42L379.893 1105.57C396.808 1086.19 414.236 1066.21 434.658 1057.52C422.716 1051.75 409.218 1048.72 395.24 1048.72C373.48 1048.72 352.808 1055.93 337.039 1069.04C325.519 1078.6 316.386 1091.06 307.554 1103.12C304.047 1107.91 300.54 1112.69 296.885 1117.33C284.335 1133.24 271.772 1143.99 258.805 1149.85Z" fill="url(#paint5_linear_1_525)"/>
<path d="M355.906 871.013C348.648 871.013 340.213 868.268 333.346 863.66C329.455 861.074 325.794 858.066 322.261 855.161C315.81 849.849 309.711 844.831 302.344 842.252C296.444 840.21 290.063 839.948 285.167 839.948C282.421 839.948 279.663 840.044 276.911 840.127C274.107 840.223 271.304 840.312 268.533 840.312C260.924 840.312 252.066 839.685 244.079 835.052C233.589 828.94 228.232 818.105 223.061 807.628C219.496 800.415 215.81 792.959 210.524 787.327C202.773 779.071 192.091 774.937 180.776 770.565C173.461 767.737 165.903 764.812 159.093 760.645C141.301 749.784 128.143 729.759 122.997 705.695C117.941 682.098 120.732 658.092 123.733 639.82C127.746 615.257 133.999 590.789 140.059 567.128C145.461 546.034 151.036 524.223 154.978 502.501C165.039 447.013 161.711 402.405 144.802 366.13L138.716 353.061L149.506 362.629C181.109 390.648 205.48 431.141 218.14 476.645C222.85 493.599 226.108 511.519 229.256 528.85C236.616 569.426 244.239 611.384 271.189 641.88C275.061 646.258 279.439 650.508 283.663 654.61C294.165 664.818 305.026 675.365 310.146 689.516C314.447 701.439 314.005 714.175 313.57 726.482C313.455 729.887 313.333 733.285 313.314 736.658C313.122 783.909 334.69 830.149 371.003 860.37L373.307 862.29L371.381 864.607C367.868 868.799 362.524 871.013 355.906 871.013ZM285.167 833.97C290.536 833.97 297.557 834.271 304.316 836.607C312.7 839.538 319.496 845.132 326.063 850.546C329.48 853.356 333.02 856.268 336.668 858.687C342.6 862.661 349.788 865.029 355.906 865.029C358.485 865.029 361.813 864.588 364.559 862.757C328.469 831.397 307.138 784.511 307.336 736.645C307.356 733.208 307.471 729.753 307.599 726.284C308.002 714.54 308.431 702.399 304.527 691.557C299.874 678.706 289.98 669.093 279.503 658.911C275.196 654.732 270.741 650.399 266.716 645.849C238.658 614.098 230.888 571.308 223.381 529.925C220.258 512.722 217.026 494.943 212.386 478.252C201.423 438.866 181.512 403.352 155.695 376.805C168.309 411.672 169.992 453.324 160.885 503.576C156.904 525.503 151.298 547.423 145.877 568.613C139.855 592.153 133.627 616.492 129.659 640.793C126.741 658.546 124.021 681.829 128.866 704.447C133.666 726.911 145.826 745.529 162.229 755.538C168.578 759.417 175.887 762.245 182.946 764.985C194.383 769.407 206.216 773.983 214.895 783.237C220.796 789.509 224.674 797.375 228.431 804.972C233.435 815.103 238.165 824.677 247.1 829.881C253.852 833.804 261.724 834.335 268.54 834.335C271.24 834.335 273.98 834.239 276.712 834.156C279.528 834.06 282.351 833.97 285.167 833.97Z" fill="url(#paint6_linear_1_525)"/>
<path d="M286.095 1032.85C255.951 1032.85 226.735 1016.52 199.394 999.8C155.541 972.997 100.968 939.647 73.9475 887.365C70.9843 881.631 68.6163 876.575 66.4147 871.884C57.4548 852.767 51.5477 840.133 19.2853 810.719L5.30762 797.983L22.5301 805.791C45.6725 816.281 60.9556 817.273 74.4403 818.156C85.9475 818.911 96.8083 819.621 110.044 826.079C124.546 833.177 133.653 846.853 142.466 860.082C151.292 873.324 159.631 885.836 172.84 892.146C179.624 895.378 187.592 896.882 197.922 896.882C203.759 896.882 209.807 896.421 215.656 895.967C218.152 895.775 220.636 895.577 223.106 895.423C228.085 895.103 233.154 894.943 238.178 894.943C291.56 894.943 344.207 912.658 386.421 944.818C387.055 945.381 387.643 945.874 388.373 946.489C395.419 952.434 414.107 968.21 418.063 994.879L418.805 999.903L414.05 998.117C398.824 992.402 380.194 995.212 357.25 1006.71C352.879 1008.9 348.565 1011.24 344.239 1013.58C330.415 1021.05 316.124 1028.78 300.258 1031.61C295.65 1032.43 290.888 1032.85 286.095 1032.85ZM34.7349 817.074C58.1461 840.108 64.0469 852.703 71.8419 869.343C74.0115 873.977 76.3475 878.956 79.2659 884.62C105.519 935.417 159.304 968.281 202.517 994.693C230.236 1011.65 257.493 1026.87 286.101 1026.87C290.543 1026.87 294.959 1026.48 299.221 1025.72C314.133 1023.05 327.995 1015.56 341.403 1008.31C345.787 1005.94 350.159 1003.57 354.588 1001.35C376.789 990.226 395.304 986.828 411.247 990.956C406.248 969.381 390.658 956.223 384.533 951.058C383.733 950.386 383.074 949.836 382.607 949.4C341.634 918.2 290.274 900.927 238.197 900.927C233.301 900.927 228.367 901.08 223.509 901.388C221.064 901.548 218.607 901.74 216.136 901.925C210.172 902.386 204.008 902.86 197.941 902.86C186.69 902.86 177.896 901.164 170.287 897.535C155.58 890.521 146.396 876.729 137.506 863.385C128.751 850.239 120.482 837.829 107.439 831.442C95.2723 825.496 85.4483 824.863 74.0691 824.114C63.1124 823.41 51.0293 822.617 34.7349 817.074Z" fill="url(#paint7_linear_1_525)"/>
<path d="M445.167 1041.76L439.317 1040.5C449.365 993.855 479.849 955.333 509.333 918.085C512.981 913.465 516.629 908.863 520.213 904.261C570.236 840.146 597.602 787.5 601.525 747.769L607.484 748.357C603.439 789.234 575.663 842.924 524.937 907.941C521.333 912.556 517.685 917.17 514.025 921.798C484.962 958.508 454.921 996.479 445.167 1041.76Z" fill="url(#paint8_linear_1_525)"/>
<path d="M460.181 1070.15L455.048 1067.07C460.751 1057.58 474.728 1052.42 485.589 1052.24C492.898 1052.1 499.976 1053.48 506.863 1054.79C509.736 1055.34 512.61 1055.89 515.496 1056.33C555.874 1062.52 598.248 1045.77 623.477 1013.65L628.181 1017.35C601.64 1051.12 557.058 1068.77 514.588 1062.24C511.631 1061.79 508.687 1061.23 505.736 1060.66C498.844 1059.35 492.226 1058.13 485.685 1058.21C476.706 1058.37 464.712 1062.61 460.181 1070.15Z" fill="url(#paint9_linear_1_525)"/>
<path d="M249.909 1154.92L248.629 1149.08C278.53 1142.53 317.557 1123.99 339.401 1105.97C345.065 1101.29 350.575 1096.16 355.906 1091.2C364.565 1083.14 373.525 1074.8 383.548 1067.96C394.895 1060.2 417.436 1048.21 440.802 1055.06L439.119 1060.8C423.765 1056.3 404.745 1060.72 386.921 1072.89C377.269 1079.49 368.476 1087.67 359.977 1095.58C354.581 1100.59 349.001 1105.78 343.209 1110.58C320.719 1129.13 280.617 1148.2 249.909 1154.92Z" fill="url(#paint10_linear_1_525)"/>
<path d="M412.194 997.356C364.457 965.004 309.449 947.141 248.694 944.255C243.51 944.005 238.294 943.877 233.065 943.749C211.478 943.205 189.161 942.649 169.085 933.759C151.049 925.804 136.329 911.666 123.337 899.193C118.639 894.681 113.698 889.81 108.527 884.716C84.3735 860.882 54.3067 831.237 19.7979 811.09L22.8122 805.919C57.9802 826.437 88.3351 856.389 112.732 880.447C117.884 885.522 122.793 890.373 127.485 894.866C140.118 906.994 154.428 920.748 171.503 928.287C190.498 936.69 212.214 937.234 233.218 937.759C238.492 937.893 243.759 938.021 248.988 938.271C310.857 941.209 366.902 959.423 415.554 992.389L412.194 997.356Z" fill="url(#paint11_linear_1_525)"/>
<path d="M386.92 890.034L381.672 887.161C386.767 877.849 392.13 868.876 397.314 860.197C409.986 839.001 421.948 818.994 424.546 802.354C425.519 796.101 426.287 789.784 427.055 783.468C429.212 765.669 431.439 747.257 438.524 730.341C447.74 708.332 464.322 690.712 480.367 673.669C486.357 667.301 492.552 660.716 498.242 654.028C540.239 604.626 563.272 537.593 559.861 474.7L565.839 474.373C569.333 538.751 545.762 607.359 502.799 657.9C497.02 664.703 490.767 671.346 484.725 677.765C469.052 694.424 452.847 711.641 444.047 732.652C437.282 748.793 435.112 766.789 432.994 784.191C432.22 790.572 431.452 796.959 430.46 803.276C427.676 821.055 415.989 840.62 402.453 863.263C397.295 871.896 391.964 880.818 386.92 890.034Z" fill="url(#paint12_linear_1_525)"/>
<path d="M368.738 865.849C347.023 854.668 324.578 843.097 305.487 826.77C290.332 813.804 271.241 792.293 266.383 763.5C265.276 756.985 264.911 750.175 264.546 743.583C263.746 728.863 262.985 714.956 254.684 704.3C247.669 695.321 236.93 690.86 225.57 686.143C218.313 683.129 210.805 680.012 204.188 675.583C183.394 661.663 171.253 633.765 171.727 600.946C171.964 583.858 175.125 566.873 178.191 550.444C180.073 540.338 182.018 529.887 183.241 519.577C189.186 469.721 175.599 415.346 144.988 366.463L150.057 363.289C181.391 413.317 195.279 469.074 189.18 520.281C187.932 530.789 185.967 541.337 184.066 551.538C181.052 567.717 177.941 584.453 177.705 601.029C177.269 631.813 188.412 657.823 207.516 670.604C213.647 674.719 220.873 677.714 227.868 680.613C239.445 685.42 251.413 690.386 259.401 700.62C268.853 712.754 269.698 728.255 270.517 743.25C270.869 749.676 271.228 756.313 272.277 762.495C275.842 783.589 289.013 804.793 309.372 822.22C327.925 838.092 350.063 849.503 371.471 860.524L368.738 865.849Z" fill="url(#paint13_linear_1_525)"/>
<path d="M553.628 1170.35C500.2 1141.45 456.188 1088.24 419.074 1007.7C372.751 907.237 347.567 795.602 346.261 684.889L352.239 684.818C353.538 794.7 378.53 905.484 424.501 1005.2C461.058 1084.53 504.226 1136.82 556.476 1165.09L553.628 1170.35Z" fill="url(#paint14_linear_1_525)"/>
<defs>
<linearGradient id="paint0_linear_1_525" x1="376.258" y1="692.338" x2="483.213" y2="675.823" gradientUnits="userSpaceOnUse">
<stop stop-color="#D02964"/>
<stop offset="1" stop-color="#FC8F59"/>
</linearGradient>
<linearGradient id="paint1_linear_1_525" x1="483.429" y1="898.111" x2="578.497" y2="877.338" gradientUnits="userSpaceOnUse">
<stop stop-color="#D02964"/>
<stop offset="1" stop-color="#FC8F59"/>
</linearGradient>
<linearGradient id="paint2_linear_1_525" x1="528.22" y1="1046.03" x2="612.93" y2="1021.38" gradientUnits="userSpaceOnUse">
<stop stop-color="#D02964"/>
<stop offset="1" stop-color="#FC8F59"/>
</linearGradient>
<linearGradient id="paint3_linear_1_525" x1="407.427" y1="688.94" x2="472.072" y2="682.738" gradientUnits="userSpaceOnUse">
<stop stop-color="#D02964"/>
<stop offset="1" stop-color="#FC8F59"/>
</linearGradient>
<linearGradient id="paint4_linear_1_525" x1="551.343" y1="1096.92" x2="598.464" y2="1049.49" gradientUnits="userSpaceOnUse">
<stop stop-color="#D02964"/>
<stop offset="1" stop-color="#FC8F59"/>
</linearGradient>
<linearGradient id="paint5_linear_1_525" x1="345.916" y1="1157" x2="404.703" y2="1098.43" gradientUnits="userSpaceOnUse">
<stop stop-color="#D02964"/>
<stop offset="1" stop-color="#FC8F59"/>
</linearGradient>
<linearGradient id="paint6_linear_1_525" x1="257.376" y1="871.013" x2="381.037" y2="840.58" gradientUnits="userSpaceOnUse">
<stop stop-color="#D02964"/>
<stop offset="1" stop-color="#FC8F59"/>
</linearGradient>
<linearGradient id="paint7_linear_1_525" x1="229.403" y1="1032.85" x2="349.362" y2="926.487" gradientUnits="userSpaceOnUse">
<stop stop-color="#D02964"/>
<stop offset="1" stop-color="#FC8F59"/>
</linearGradient>
<linearGradient id="paint8_linear_1_525" x1="530.456" y1="1041.76" x2="610.918" y2="1018.58" gradientUnits="userSpaceOnUse">
<stop stop-color="#D02964"/>
<stop offset="1" stop-color="#FC8F59"/>
</linearGradient>
<linearGradient id="paint9_linear_1_525" x1="548.878" y1="1070.15" x2="575.407" y2="1029.21" gradientUnits="userSpaceOnUse">
<stop stop-color="#D02964"/>
<stop offset="1" stop-color="#FC8F59"/>
</linearGradient>
<linearGradient id="paint10_linear_1_525" x1="352.778" y1="1154.92" x2="405.131" y2="1105.2" gradientUnits="userSpaceOnUse">
<stop stop-color="#D02964"/>
<stop offset="1" stop-color="#FC8F59"/>
</linearGradient>
<linearGradient id="paint11_linear_1_525" x1="234.279" y1="997.356" x2="332.684" y2="894.902" gradientUnits="userSpaceOnUse">
<stop stop-color="#D02964"/>
<stop offset="1" stop-color="#FC8F59"/>
</linearGradient>
<linearGradient id="paint12_linear_1_525" x1="481.666" y1="890.034" x2="572.723" y2="869.678" gradientUnits="userSpaceOnUse">
<stop stop-color="#D02964"/>
<stop offset="1" stop-color="#FC8F59"/>
</linearGradient>
<linearGradient id="paint13_linear_1_525" x1="267.731" y1="865.849" x2="379.341" y2="840.517" gradientUnits="userSpaceOnUse">
<stop stop-color="#D02964"/>
<stop offset="1" stop-color="#FC8F59"/>
</linearGradient>
<linearGradient id="paint14_linear_1_525" x1="460.187" y1="1170.35" x2="564.172" y2="1147.68" gradientUnits="userSpaceOnUse">
<stop stop-color="#D02964"/>
<stop offset="1" stop-color="#FC8F59"/>
</linearGradient>
</defs>
</svg>
