<svg width="641" height="2319" viewBox="0 0 641 2319" fill="none" xmlns="http://www.w3.org/2000/svg">
<path d="M458.859 2311.53C456.555 2311.53 454.308 2310.32 453.113 2308.16C257.529 1956.77 160.178 1542.79 178.994 1142.45C197.853 741.383 333.945 338.609 562.169 8.28373C564.246 5.29706 568.327 4.55766 571.314 6.61989C574.301 8.69633 575.055 12.778 572.992 15.7646C346.148 344.085 210.88 744.426 192.135 1143.07C173.433 1541.01 270.187 1952.5 464.605 2301.79C466.368 2304.96 465.231 2308.96 462.045 2310.72C461.035 2311.27 459.94 2311.53 458.859 2311.53Z" fill="url(#paint0_linear_1_561)"/>
<path d="M276.957 622.186C273.999 622.186 271.311 620.167 270.585 617.166C227.065 437.34 227.762 263.388 272.605 114.083C273.643 110.613 277.284 108.593 280.783 109.688C284.267 110.726 286.244 114.396 285.191 117.866C241.046 264.938 240.406 436.515 283.371 614.094C284.224 617.621 282.048 621.162 278.521 622.03C277.995 622.129 277.469 622.186 276.957 622.186Z" fill="url(#paint1_linear_1_561)"/>
<path d="M305.159 537.606C302.315 537.606 299.684 535.743 298.859 532.885C253.646 378.161 274.653 202.389 355.037 62.698C356.843 59.5549 360.854 58.4457 364.011 60.2804C367.168 62.1008 368.249 66.1113 366.429 69.2544C287.794 205.887 267.243 377.834 311.474 529.187C312.484 532.671 310.493 536.326 306.994 537.336C306.382 537.521 305.757 537.606 305.159 537.606Z" fill="url(#paint2_linear_1_561)"/>
<path d="M340.914 440.625C337.842 440.625 335.112 438.478 334.486 435.363C305.06 290.112 351.851 137.038 459.641 25.8912C462.145 23.2743 466.312 23.2032 468.929 25.749C471.531 28.2663 471.602 32.4335 469.071 35.0361C364.296 143.082 318.799 291.761 347.357 432.746C348.082 436.302 345.778 439.772 342.223 440.483C341.768 440.583 341.341 440.625 340.914 440.625Z" fill="url(#paint3_linear_1_561)"/>
<path d="M229.369 807.743C226.695 807.743 224.178 806.108 223.197 803.434C160.519 632.881 146.88 449.358 184.754 286.598L184.399 273.159C184.313 269.532 187.2 266.531 190.827 266.446C194.909 266.431 197.455 269.247 197.54 272.874L197.938 287.964L197.739 288.774C160.207 449.272 173.632 630.435 235.527 798.911C236.779 802.31 235.03 806.094 231.631 807.345C230.891 807.615 230.123 807.743 229.369 807.743Z" fill="url(#paint4_linear_1_561)"/>
<path d="M202.56 958.67C200.086 958.67 197.711 957.276 196.601 954.886C111.368 773.07 81.5723 563.804 112.705 365.617C113.259 362.033 116.587 359.573 120.214 360.142C123.798 360.696 126.258 364.067 125.689 367.651C94.9553 563.263 124.367 769.827 208.505 949.283C210.041 952.568 208.633 956.479 205.334 958.015C204.438 958.485 203.499 958.67 202.56 958.67Z" fill="url(#paint5_linear_1_561)"/>
<path d="M187.883 1108.5C185.693 1108.5 183.517 1107.39 182.294 1105.37C92.8078 960.305 54.7065 790.151 72.1429 613.326C72.4985 609.699 75.6558 607.182 79.3394 607.424C82.9518 607.779 85.5831 610.993 85.2275 614.606C68.0755 788.544 105.523 955.868 193.472 1098.47C195.392 1101.56 194.425 1105.61 191.339 1107.52C190.258 1108.19 189.064 1108.5 187.883 1108.5Z" fill="url(#paint6_linear_1_561)"/>
<path d="M179.364 1238.12C177.159 1238.12 174.997 1237.01 173.76 1234.99C89.6642 1098.22 35.4777 941.532 17.0741 781.887C16.6617 778.289 19.2358 775.032 22.8482 774.606C26.3896 774.179 29.7176 776.782 30.13 780.38C48.3202 938.133 101.853 1092.96 184.953 1228.1C186.859 1231.2 185.877 1235.23 182.805 1237.14C181.725 1237.81 180.544 1238.12 179.364 1238.12Z" fill="url(#paint7_linear_1_561)"/>
<path d="M179.663 1368.38C177.7 1368.38 175.766 1367.52 174.472 1365.84C88.5412 1255.33 36.6727 1117.36 28.3812 977.344C28.1678 973.717 30.9412 970.602 34.5678 970.403C38.1945 970.048 41.3092 972.949 41.5083 976.575C49.6292 1113.98 100.545 1249.37 184.854 1357.8C187.072 1360.66 186.56 1364.79 183.702 1367.02C182.479 1367.94 181.071 1368.38 179.663 1368.38Z" fill="url(#paint8_linear_1_561)"/>
<path d="M196.317 1486.5C194.525 1486.5 192.747 1485.77 191.439 1484.35C99.1936 1382.72 40.7118 1263.47 12.6798 1119.74C11.9829 1116.17 14.3154 1112.72 17.8709 1112.03C21.4834 1111.37 24.8967 1113.66 25.5794 1117.2C53.142 1258.52 110.6 1375.72 201.181 1475.51C203.627 1478.19 203.414 1482.36 200.74 1484.78C199.474 1485.93 197.881 1486.5 196.317 1486.5Z" fill="url(#paint9_linear_1_561)"/>
<path d="M208.349 1580.17C207.296 1580.17 206.23 1579.91 205.234 1579.37C96.0076 1520.32 19.6485 1402 10.66 1278C10.3898 1274.39 13.1205 1271.23 16.7471 1270.98C20.3738 1270.65 23.5169 1273.45 23.7729 1277.06C32.4342 1396.71 106.12 1510.85 211.478 1567.82C214.678 1569.54 215.858 1573.52 214.137 1576.72C212.943 1578.93 210.681 1580.17 208.349 1580.17Z" fill="url(#paint10_linear_1_561)"/>
<path d="M229.91 1696.79C229.042 1696.79 228.175 1696.62 227.321 1696.26C132.132 1655.71 63.254 1572.44 38.3793 1467.78C37.5402 1464.26 39.7304 1460.71 43.2575 1459.87C46.7846 1458.98 50.326 1461.21 51.1793 1464.75C75.0869 1565.3 141.163 1645.29 232.484 1684.19C235.826 1685.61 237.376 1689.46 235.954 1692.79C234.887 1695.28 232.455 1696.79 229.91 1696.79Z" fill="url(#paint11_linear_1_561)"/>
<path d="M264.896 1839.75C263.232 1839.75 261.568 1839.12 260.288 1837.86C240.334 1818.25 218.276 1807.68 194.909 1796.49C142.386 1771.31 88.0573 1745.27 65.387 1612.69C64.7755 1609.11 67.179 1605.72 70.763 1605.11C74.3186 1604.42 77.7319 1606.9 78.3435 1610.47C99.8759 1736.37 148.8 1759.82 200.597 1784.64C223.908 1795.8 247.986 1807.35 269.504 1828.5C272.107 1831.05 272.135 1835.2 269.589 1837.79C268.295 1839.1 266.589 1839.75 264.896 1839.75Z" fill="url(#paint12_linear_1_561)"/>
<path d="M350.571 417.002C349.675 417.002 348.793 416.817 347.926 416.447C344.598 414.982 343.09 411.114 344.541 407.8C394.916 292.87 497.216 192.163 625.216 131.505C628.516 129.941 632.413 131.334 633.963 134.634C635.513 137.905 634.12 141.83 630.834 143.381C505.65 202.702 405.696 300.991 356.573 413.077C355.492 415.537 353.088 417.002 350.571 417.002Z" fill="url(#paint13_linear_1_561)"/>
<path d="M287.012 589.973C285.277 589.973 283.556 589.29 282.261 587.939C279.744 585.322 279.844 581.155 282.461 578.652C343.858 519.786 389.383 454.876 433.387 392.085C466.994 344.156 498.738 298.872 536.797 256.405C539.229 253.703 543.382 253.475 546.084 255.907C548.772 258.325 548.999 262.478 546.581 265.18C509.035 307.064 477.518 352.035 444.139 399.637C399.765 462.926 353.87 528.391 291.534 588.152C290.269 589.375 288.647 589.973 287.012 589.973Z" fill="url(#paint14_linear_1_561)"/>
<path d="M258.766 688.248C256.846 688.248 254.94 687.409 253.646 685.802C251.371 682.986 251.812 678.847 254.628 676.558C374.407 579.775 475.826 456.497 547.904 320.035C549.596 316.821 553.564 315.598 556.779 317.29C559.993 318.982 561.23 322.965 559.524 326.179C486.606 464.206 384.036 588.906 262.891 686.783C261.668 687.765 260.203 688.248 258.766 688.248Z" fill="url(#paint15_linear_1_561)"/>
<path d="M202.56 936.782C201.991 936.782 201.408 936.711 200.825 936.554C197.326 935.601 195.25 931.989 196.217 928.49C230.052 803.662 315.755 687.623 431.367 610.154C434.411 608.149 438.478 608.931 440.498 611.96C442.517 614.976 441.707 619.057 438.692 621.077C325.682 696.81 241.913 810.119 208.903 931.932C208.107 934.862 205.461 936.782 202.56 936.782Z" fill="url(#paint16_linear_1_561)"/>
<path d="M197.867 1043.08C196.459 1043.08 195.051 1042.64 193.856 1041.7C190.983 1039.48 190.471 1035.34 192.69 1032.48C332.452 852.401 449.671 654.997 541.092 445.759C542.542 442.431 546.439 440.91 549.739 442.375C553.053 443.825 554.574 447.694 553.124 451.022C461.277 661.255 343.502 859.612 203.072 1040.53C201.778 1042.2 199.844 1043.08 197.867 1043.08Z" fill="url(#paint17_linear_1_561)"/>
<path d="M186.859 1125.04C184.811 1125.04 182.82 1124.12 181.54 1122.34C179.407 1119.41 180.061 1115.3 182.976 1113.15C353.415 989.262 452.857 779.839 520.441 611.249C521.792 607.879 525.661 606.257 528.989 607.594C532.345 608.945 533.995 612.757 532.644 616.142C464.406 786.382 363.883 997.937 190.713 1123.79C189.533 1124.63 188.196 1125.04 186.859 1125.04Z" fill="url(#paint18_linear_1_561)"/>
<path d="M183.403 1277.15C181.725 1277.15 180.032 1276.51 178.752 1275.21C176.178 1272.63 176.192 1268.47 178.781 1265.91C340.687 1105 458.105 916.885 537.75 690.808C538.959 687.381 542.699 685.546 546.127 686.797C549.554 688.006 551.346 691.761 550.152 695.174C469.824 923.157 351.382 1112.9 188.039 1275.24C186.745 1276.51 185.081 1277.15 183.403 1277.15Z" fill="url(#paint19_linear_1_561)"/>
<path d="M197.895 1500.54C197.554 1500.54 197.184 1500.51 196.829 1500.45C193.245 1499.87 190.827 1496.48 191.41 1492.91C221.774 1307.56 337.828 1118.11 487.076 1010.28C490.006 1008.18 494.116 1008.82 496.235 1011.76C498.354 1014.71 497.714 1018.8 494.756 1020.95C348.182 1126.83 234.205 1312.93 204.366 1495.02C203.854 1498.25 201.067 1500.54 197.895 1500.54Z" fill="url(#paint20_linear_1_561)"/>
<path d="M221.945 1657.04C221.675 1657.04 221.419 1657.02 221.149 1656.99C217.551 1656.55 214.976 1653.28 215.417 1649.67C234.489 1491.68 319.424 1312.28 437.085 1181.52C439.503 1178.83 443.67 1178.62 446.358 1181.02C449.046 1183.45 449.273 1187.6 446.841 1190.29C330.902 1319.16 247.218 1495.79 228.445 1651.25C228.061 1654.59 225.216 1657.04 221.945 1657.04Z" fill="url(#paint21_linear_1_561)"/>
<path d="M273.472 1869.46C273.43 1869.46 273.387 1869.46 273.344 1869.46C269.718 1869.39 266.831 1866.39 266.902 1862.76C270.301 1682.59 326.095 1501.55 428.267 1339.17C430.201 1336.1 434.226 1335.13 437.327 1337.11C440.399 1339.04 441.323 1343.1 439.403 1346.17C339.947 1504.22 283.357 1687.79 280.057 1863.02C279.972 1866.6 277.042 1869.46 273.472 1869.46Z" fill="url(#paint22_linear_1_561)"/>
<defs>
<linearGradient id="paint0_linear_1_561" x1="392.101" y1="2311.53" x2="596.515" y2="2293.79" gradientUnits="userSpaceOnUse">
<stop stop-color="#D02964"/>
<stop offset="1" stop-color="#FC8F59"/>
</linearGradient>
<linearGradient id="paint1_linear_1_561" x1="263.935" y1="622.186" x2="288.25" y2="621.063" gradientUnits="userSpaceOnUse">
<stop stop-color="#D02964"/>
<stop offset="1" stop-color="#FC8F59"/>
</linearGradient>
<linearGradient id="paint2_linear_1_561" x1="325.225" y1="537.606" x2="372.396" y2="533.042" gradientUnits="userSpaceOnUse">
<stop stop-color="#D02964"/>
<stop offset="1" stop-color="#FC8F59"/>
</linearGradient>
<linearGradient id="paint3_linear_1_561" x1="404.475" y1="440.625" x2="477.408" y2="427.839" gradientUnits="userSpaceOnUse">
<stop stop-color="#D02964"/>
<stop offset="1" stop-color="#FC8F59"/>
</linearGradient>
<linearGradient id="paint4_linear_1_561" x1="202.867" y1="807.743" x2="240.105" y2="805.242" gradientUnits="userSpaceOnUse">
<stop stop-color="#D02964"/>
<stop offset="1" stop-color="#FC8F59"/>
</linearGradient>
<linearGradient id="paint5_linear_1_561" x1="159.453" y1="958.67" x2="215.184" y2="953.585" gradientUnits="userSpaceOnUse">
<stop stop-color="#D02964"/>
<stop offset="1" stop-color="#FC8F59"/>
</linearGradient>
<linearGradient id="paint6_linear_1_561" x1="136.545" y1="1108.5" x2="201.022" y2="1100.31" gradientUnits="userSpaceOnUse">
<stop stop-color="#D02964"/>
<stop offset="1" stop-color="#FC8F59"/>
</linearGradient>
<linearGradient id="paint7_linear_1_561" x1="108.565" y1="1238.12" x2="193.233" y2="1222.59" gradientUnits="userSpaceOnUse">
<stop stop-color="#D02964"/>
<stop offset="1" stop-color="#FC8F59"/>
</linearGradient>
<linearGradient id="paint8_linear_1_561" x1="113.924" y1="1368.38" x2="192.587" y2="1352.67" gradientUnits="userSpaceOnUse">
<stop stop-color="#D02964"/>
<stop offset="1" stop-color="#FC8F59"/>
</linearGradient>
<linearGradient id="paint9_linear_1_561" x1="115.707" y1="1486.5" x2="208.272" y2="1462.81" gradientUnits="userSpaceOnUse">
<stop stop-color="#D02964"/>
<stop offset="1" stop-color="#FC8F59"/>
</linearGradient>
<linearGradient id="paint10_linear_1_561" x1="121.355" y1="1580.17" x2="216.661" y2="1548.46" gradientUnits="userSpaceOnUse">
<stop stop-color="#D02964"/>
<stop offset="1" stop-color="#FC8F59"/>
</linearGradient>
<linearGradient id="paint11_linear_1_561" x1="145.659" y1="1696.79" x2="232.927" y2="1660.04" gradientUnits="userSpaceOnUse">
<stop stop-color="#D02964"/>
<stop offset="1" stop-color="#FC8F59"/>
</linearGradient>
<linearGradient id="paint12_linear_1_561" x1="177.035" y1="1839.75" x2="266.392" y2="1800.22" gradientUnits="userSpaceOnUse">
<stop stop-color="#D02964"/>
<stop offset="1" stop-color="#FC8F59"/>
</linearGradient>
<linearGradient id="paint13_linear_1_561" x1="501.484" y1="417.002" x2="620.844" y2="355.951" gradientUnits="userSpaceOnUse">
<stop stop-color="#D02964"/>
<stop offset="1" stop-color="#FC8F59"/>
</linearGradient>
<linearGradient id="paint14_linear_1_561" x1="425.581" y1="589.973" x2="545.077" y2="541.968" gradientUnits="userSpaceOnUse">
<stop stop-color="#D02964"/>
<stop offset="1" stop-color="#FC8F59"/>
</linearGradient>
<linearGradient id="paint15_linear_1_561" x1="419.166" y1="688.248" x2="555.127" y2="631.494" gradientUnits="userSpaceOnUse">
<stop stop-color="#D02964"/>
<stop offset="1" stop-color="#FC8F59"/>
</linearGradient>
<linearGradient id="paint16_linear_1_561" x1="329.099" y1="936.782" x2="440.507" y2="894.73" gradientUnits="userSpaceOnUse">
<stop stop-color="#D02964"/>
<stop offset="1" stop-color="#FC8F59"/>
</linearGradient>
<linearGradient id="paint17_linear_1_561" x1="387.694" y1="1043.08" x2="559.624" y2="990.894" gradientUnits="userSpaceOnUse">
<stop stop-color="#D02964"/>
<stop offset="1" stop-color="#FC8F59"/>
</linearGradient>
<linearGradient id="paint18_linear_1_561" x1="371.502" y1="1125.04" x2="535.077" y2="1068.92" gradientUnits="userSpaceOnUse">
<stop stop-color="#D02964"/>
<stop offset="1" stop-color="#FC8F59"/>
</linearGradient>
<linearGradient id="paint19_linear_1_561" x1="379.353" y1="1277.15" x2="555.15" y2="1221.14" gradientUnits="userSpaceOnUse">
<stop stop-color="#D02964"/>
<stop offset="1" stop-color="#FC8F59"/>
</linearGradient>
<linearGradient id="paint20_linear_1_561" x1="357.246" y1="1500.54" x2="501.677" y2="1455.23" gradientUnits="userSpaceOnUse">
<stop stop-color="#D02964"/>
<stop offset="1" stop-color="#FC8F59"/>
</linearGradient>
<linearGradient id="paint21_linear_1_561" x1="341.73" y1="1657.04" x2="455.665" y2="1629.03" gradientUnits="userSpaceOnUse">
<stop stop-color="#D02964"/>
<stop offset="1" stop-color="#FC8F59"/>
</linearGradient>
<linearGradient id="paint22_linear_1_561" x1="360.931" y1="1869.46" x2="448.487" y2="1855.12" gradientUnits="userSpaceOnUse">
<stop stop-color="#D02964"/>
<stop offset="1" stop-color="#FC8F59"/>
</linearGradient>
</defs>
</svg>
