<svg width="640" height="2319" viewBox="0 0 640 2319" fill="none" xmlns="http://www.w3.org/2000/svg">
<path d="M458.738 2311.92C456.434 2311.92 454.187 2310.71 452.992 2308.55C257.408 1957.16 160.057 1543.18 178.873 1142.84C197.732 741.776 333.824 339.002 562.048 8.67692C564.125 5.69025 568.206 4.95085 571.193 7.01308C574.18 9.08952 574.933 13.1712 572.871 16.1578C346.027 344.478 210.759 744.819 192.014 1143.47C173.312 1541.41 270.066 1952.9 464.484 2302.18C466.247 2305.35 465.109 2309.35 461.924 2311.11C460.914 2311.67 459.819 2311.92 458.738 2311.92Z" fill="url(#paint0_linear_1_561)"/>
<path d="M276.836 622.579C273.877 622.579 271.189 620.56 270.464 617.559C226.944 437.733 227.641 263.781 272.484 114.476C273.522 111.006 277.163 108.986 280.661 110.081C284.146 111.12 286.123 114.789 285.07 118.259C240.925 265.331 240.285 436.908 283.25 614.487C284.103 618.014 281.927 621.555 278.4 622.423C277.874 622.522 277.348 622.579 276.836 622.579Z" fill="url(#paint1_linear_1_561)"/>
<path d="M305.038 538C302.194 538 299.563 536.137 298.738 533.278C253.525 378.554 274.532 202.782 354.916 63.0913C356.722 59.9482 360.732 58.839 363.89 60.6737C367.047 62.4941 368.128 66.5046 366.308 69.6477C287.673 206.281 267.122 378.227 311.353 529.58C312.363 533.065 310.372 536.72 306.873 537.729C306.261 537.914 305.636 538 305.038 538Z" fill="url(#paint2_linear_1_561)"/>
<path d="M340.793 441.018C337.721 441.018 334.991 438.871 334.365 435.756C304.939 290.505 351.73 137.431 459.52 26.2843C462.023 23.6674 466.191 23.5963 468.807 26.1421C471.41 28.6594 471.481 32.8265 468.95 35.4292C364.174 143.475 318.678 292.154 347.236 433.139C347.961 436.695 345.657 440.165 342.102 440.876C341.647 440.976 341.22 441.018 340.793 441.018Z" fill="url(#paint3_linear_1_561)"/>
<path d="M229.248 808.137C226.574 808.137 224.057 806.501 223.076 803.827C160.398 633.274 146.759 449.751 184.633 286.992L184.277 273.552C184.192 269.925 187.079 266.924 190.706 266.839C194.788 266.825 197.333 269.641 197.419 273.267L197.817 288.357L197.618 289.168C160.085 449.665 173.511 630.828 235.406 799.305C236.658 802.704 234.909 806.487 231.509 807.738C230.77 808.009 230.002 808.137 229.248 808.137Z" fill="url(#paint4_linear_1_561)"/>
<path d="M202.439 959.063C199.965 959.063 197.589 957.669 196.48 955.28C111.247 773.463 81.4512 564.197 112.584 366.01C113.138 362.426 116.466 359.966 120.093 360.535C123.677 361.089 126.137 364.46 125.568 368.044C94.8342 563.657 124.246 770.22 208.384 949.676C209.92 952.961 208.512 956.873 205.213 958.409C204.317 958.878 203.378 959.063 202.439 959.063Z" fill="url(#paint5_linear_1_561)"/>
<path d="M187.762 1108.89C185.572 1108.89 183.396 1107.78 182.173 1105.76C92.6867 960.698 54.5854 790.544 72.0218 613.719C72.3774 610.092 75.5347 607.575 79.2183 607.817C82.8307 608.172 85.462 611.386 85.1064 614.999C67.9544 788.937 105.402 956.261 193.351 1098.87C195.271 1101.95 194.304 1106.01 191.218 1107.91C190.137 1108.58 188.942 1108.89 187.762 1108.89Z" fill="url(#paint6_linear_1_561)"/>
<path d="M179.243 1238.52C177.038 1238.52 174.876 1237.41 173.639 1235.39C89.5431 1098.61 35.3566 941.925 16.9531 782.281C16.5406 778.682 19.1147 775.426 22.7271 774.999C26.2685 774.572 29.5965 777.175 30.0089 780.773C48.1991 938.526 101.732 1093.35 184.832 1228.49C186.738 1231.59 185.756 1235.63 182.684 1237.53C181.603 1238.2 180.423 1238.52 179.243 1238.52Z" fill="url(#paint7_linear_1_561)"/>
<path d="M179.542 1368.78C177.579 1368.78 175.645 1367.91 174.35 1366.23C88.4201 1255.72 36.5516 1117.75 28.2601 977.737C28.0467 974.11 30.8201 970.995 34.4467 970.796C38.0734 970.441 41.1881 973.342 41.3872 976.969C49.5081 1114.37 100.424 1249.77 184.733 1358.2C186.951 1361.05 186.439 1365.18 183.581 1367.41C182.358 1368.34 180.95 1368.78 179.542 1368.78Z" fill="url(#paint8_linear_1_561)"/>
<path d="M196.196 1486.89C194.404 1486.89 192.626 1486.17 191.318 1484.74C99.0725 1383.11 40.5907 1263.86 12.5587 1120.13C11.8618 1116.56 14.1943 1113.12 17.7498 1112.42C21.3623 1111.77 24.7756 1114.06 25.4583 1117.6C53.0209 1258.91 110.479 1376.12 201.06 1475.9C203.506 1478.59 203.293 1482.75 200.619 1485.17C199.353 1486.32 197.76 1486.89 196.196 1486.89Z" fill="url(#paint9_linear_1_561)"/>
<path d="M208.228 1580.56C207.175 1580.56 206.109 1580.3 205.113 1579.76C95.8865 1520.71 19.5274 1402.4 10.539 1278.39C10.2687 1274.78 12.9994 1271.62 16.626 1271.37C20.2527 1271.04 23.3958 1273.84 23.6518 1277.46C32.3131 1397.11 105.998 1511.24 211.357 1568.21C214.557 1569.94 215.737 1573.92 214.016 1577.12C212.821 1579.32 210.56 1580.56 208.228 1580.56Z" fill="url(#paint10_linear_1_561)"/>
<path d="M229.789 1697.18C228.921 1697.18 228.053 1697.01 227.2 1696.66C132.011 1656.11 63.1329 1572.84 38.2582 1468.18C37.4191 1464.65 39.6093 1461.11 43.1364 1460.27C46.6635 1459.37 50.2049 1461.61 51.0582 1465.15C74.9658 1565.7 141.042 1645.68 232.363 1684.58C235.705 1686 237.255 1689.86 235.833 1693.19C234.766 1695.67 232.334 1697.18 229.789 1697.18Z" fill="url(#paint11_linear_1_561)"/>
<path d="M264.775 1840.14C263.111 1840.14 261.447 1839.52 260.167 1838.25C240.213 1818.64 218.155 1808.07 194.787 1796.88C142.265 1771.71 87.9362 1745.67 65.2659 1613.09C64.6544 1609.5 67.0579 1606.12 70.6419 1605.51C74.1975 1604.81 77.6108 1607.3 78.2224 1610.87C99.7548 1736.76 148.679 1760.21 200.476 1785.03C223.787 1796.2 247.865 1807.75 269.383 1828.89C271.986 1831.44 272.014 1835.59 269.468 1838.18C268.174 1839.49 266.467 1840.14 264.775 1840.14Z" fill="url(#paint12_linear_1_561)"/>
<path d="M350.45 417.395C349.554 417.395 348.672 417.21 347.805 416.841C344.477 415.376 342.969 411.507 344.42 408.194C394.795 293.264 497.095 192.556 625.095 131.898C628.395 130.334 632.292 131.728 633.842 135.027C635.392 138.298 633.998 142.224 630.713 143.774C505.529 203.095 405.575 301.385 356.452 413.47C355.371 415.93 352.967 417.395 350.45 417.395Z" fill="url(#paint13_linear_1_561)"/>
<path d="M286.891 590.366C285.156 590.366 283.435 589.683 282.14 588.332C279.623 585.715 279.723 581.548 282.34 579.045C343.737 520.179 389.262 455.269 433.266 392.478C466.873 344.549 498.617 299.266 536.676 256.798C539.108 254.096 543.26 253.868 545.963 256.3C548.651 258.718 548.878 262.871 546.46 265.573C508.914 307.457 477.397 352.428 444.018 400.03C399.644 463.319 353.749 528.784 291.413 588.546C290.148 589.769 288.526 590.366 286.891 590.366Z" fill="url(#paint14_linear_1_561)"/>
<path d="M258.645 688.642C256.725 688.642 254.819 687.802 253.525 686.195C251.25 683.379 251.69 679.241 254.506 676.951C374.286 580.169 475.705 456.89 547.783 320.428C549.475 317.214 553.443 315.991 556.658 317.683C559.872 319.376 561.109 323.358 559.402 326.572C486.485 464.599 383.914 589.299 262.77 687.177C261.546 688.158 260.082 688.642 258.645 688.642Z" fill="url(#paint15_linear_1_561)"/>
<path d="M202.439 937.175C201.87 937.175 201.287 937.104 200.704 936.947C197.205 935.995 195.129 932.382 196.096 928.883C229.931 804.055 315.634 688.016 431.246 610.547C434.29 608.542 438.357 609.324 440.377 612.354C442.396 615.369 441.586 619.451 438.571 621.47C325.561 697.203 241.792 810.512 208.782 932.325C207.986 935.255 205.34 937.175 202.439 937.175Z" fill="url(#paint16_linear_1_561)"/>
<path d="M197.746 1043.47C196.338 1043.47 194.93 1043.03 193.735 1042.09C190.862 1039.87 190.35 1035.73 192.569 1032.88C332.331 852.794 449.55 655.39 540.971 446.153C542.421 442.825 546.318 441.303 549.618 442.768C552.932 444.218 554.453 448.087 553.003 451.415C461.156 661.648 343.381 860.005 202.951 1040.93C201.657 1042.59 199.723 1043.47 197.746 1043.47Z" fill="url(#paint17_linear_1_561)"/>
<path d="M186.738 1125.43C184.69 1125.43 182.699 1124.51 181.419 1122.73C179.285 1119.8 179.94 1115.69 182.855 1113.54C353.294 989.655 452.736 780.233 520.32 611.642C521.671 608.272 525.54 606.65 528.868 607.987C532.224 609.338 533.874 613.15 532.523 616.535C464.285 786.775 363.762 998.33 190.592 1124.18C189.412 1125.02 188.075 1125.43 186.738 1125.43Z" fill="url(#paint18_linear_1_561)"/>
<path d="M183.282 1277.54C181.604 1277.54 179.911 1276.9 178.631 1275.61C176.057 1273.02 176.071 1268.87 178.66 1266.31C340.566 1105.4 457.984 917.278 537.629 691.201C538.837 687.774 542.578 685.939 546.006 687.191C549.433 688.4 551.225 692.154 550.03 695.568C469.703 923.55 351.261 1113.29 187.918 1275.64C186.624 1276.9 184.96 1277.54 183.282 1277.54Z" fill="url(#paint19_linear_1_561)"/>
<path d="M197.774 1500.93C197.433 1500.93 197.063 1500.9 196.708 1500.84C193.124 1500.26 190.706 1496.88 191.289 1493.31C221.653 1307.95 337.707 1118.51 486.955 1010.68C489.884 1008.57 493.995 1009.21 496.114 1012.15C498.233 1015.1 497.593 1019.19 494.635 1021.34C348.06 1127.23 234.084 1313.32 204.245 1495.41C203.733 1498.64 200.946 1500.93 197.774 1500.93Z" fill="url(#paint20_linear_1_561)"/>
<path d="M221.824 1657.43C221.554 1657.43 221.298 1657.42 221.028 1657.39C217.43 1656.95 214.855 1653.68 215.296 1650.06C234.368 1492.07 319.303 1312.67 436.964 1181.91C439.382 1179.22 443.549 1179.01 446.237 1181.41C448.925 1183.84 449.152 1188 446.72 1190.69C330.781 1319.55 247.097 1496.18 228.324 1651.64C227.94 1654.98 225.095 1657.43 221.824 1657.43Z" fill="url(#paint21_linear_1_561)"/>
<path d="M273.351 1869.85C273.309 1869.85 273.266 1869.85 273.223 1869.85C269.597 1869.78 266.709 1866.78 266.781 1863.16C270.18 1682.99 325.973 1501.94 428.146 1339.56C430.08 1336.49 434.105 1335.53 437.205 1337.5C440.277 1339.44 441.202 1343.49 439.282 1346.56C339.826 1504.61 283.236 1688.18 279.936 1863.41C279.851 1867 276.921 1869.85 273.351 1869.85Z" fill="url(#paint22_linear_1_561)"/>
<defs>
<linearGradient id="paint0_linear_1_561" x1="391.98" y1="2311.92" x2="596.394" y2="2294.18" gradientUnits="userSpaceOnUse">
<stop stop-color="#0B9B8A"/>
<stop offset="1" stop-color="#08DEC5"/>
</linearGradient>
<linearGradient id="paint1_linear_1_561" x1="263.814" y1="622.579" x2="288.129" y2="621.456" gradientUnits="userSpaceOnUse">
<stop stop-color="#0B9B8A"/>
<stop offset="1" stop-color="#08DEC5"/>
</linearGradient>
<linearGradient id="paint2_linear_1_561" x1="325.103" y1="538" x2="372.275" y2="533.435" gradientUnits="userSpaceOnUse">
<stop stop-color="#0B9B8A"/>
<stop offset="1" stop-color="#08DEC5"/>
</linearGradient>
<linearGradient id="paint3_linear_1_561" x1="404.354" y1="441.018" x2="477.287" y2="428.232" gradientUnits="userSpaceOnUse">
<stop stop-color="#0B9B8A"/>
<stop offset="1" stop-color="#08DEC5"/>
</linearGradient>
<linearGradient id="paint4_linear_1_561" x1="202.746" y1="808.137" x2="239.984" y2="805.635" gradientUnits="userSpaceOnUse">
<stop stop-color="#0B9B8A"/>
<stop offset="1" stop-color="#08DEC5"/>
</linearGradient>
<linearGradient id="paint5_linear_1_561" x1="159.332" y1="959.063" x2="215.062" y2="953.978" gradientUnits="userSpaceOnUse">
<stop stop-color="#0B9B8A"/>
<stop offset="1" stop-color="#08DEC5"/>
</linearGradient>
<linearGradient id="paint6_linear_1_561" x1="136.424" y1="1108.89" x2="200.901" y2="1100.7" gradientUnits="userSpaceOnUse">
<stop stop-color="#0B9B8A"/>
<stop offset="1" stop-color="#08DEC5"/>
</linearGradient>
<linearGradient id="paint7_linear_1_561" x1="108.443" y1="1238.52" x2="193.112" y2="1222.98" gradientUnits="userSpaceOnUse">
<stop stop-color="#0B9B8A"/>
<stop offset="1" stop-color="#08DEC5"/>
</linearGradient>
<linearGradient id="paint8_linear_1_561" x1="113.803" y1="1368.78" x2="192.466" y2="1353.06" gradientUnits="userSpaceOnUse">
<stop stop-color="#0B9B8A"/>
<stop offset="1" stop-color="#08DEC5"/>
</linearGradient>
<linearGradient id="paint9_linear_1_561" x1="115.586" y1="1486.89" x2="208.151" y2="1463.2" gradientUnits="userSpaceOnUse">
<stop stop-color="#0B9B8A"/>
<stop offset="1" stop-color="#08DEC5"/>
</linearGradient>
<linearGradient id="paint10_linear_1_561" x1="121.234" y1="1580.56" x2="216.54" y2="1548.85" gradientUnits="userSpaceOnUse">
<stop stop-color="#0B9B8A"/>
<stop offset="1" stop-color="#08DEC5"/>
</linearGradient>
<linearGradient id="paint11_linear_1_561" x1="145.538" y1="1697.18" x2="232.806" y2="1660.43" gradientUnits="userSpaceOnUse">
<stop stop-color="#0B9B8A"/>
<stop offset="1" stop-color="#08DEC5"/>
</linearGradient>
<linearGradient id="paint12_linear_1_561" x1="176.914" y1="1840.14" x2="266.271" y2="1800.62" gradientUnits="userSpaceOnUse">
<stop stop-color="#0B9B8A"/>
<stop offset="1" stop-color="#08DEC5"/>
</linearGradient>
<linearGradient id="paint13_linear_1_561" x1="501.363" y1="417.395" x2="620.723" y2="356.344" gradientUnits="userSpaceOnUse">
<stop stop-color="#0B9B8A"/>
<stop offset="1" stop-color="#08DEC5"/>
</linearGradient>
<linearGradient id="paint14_linear_1_561" x1="425.46" y1="590.366" x2="544.955" y2="542.361" gradientUnits="userSpaceOnUse">
<stop stop-color="#0B9B8A"/>
<stop offset="1" stop-color="#08DEC5"/>
</linearGradient>
<linearGradient id="paint15_linear_1_561" x1="419.045" y1="688.641" x2="555.006" y2="631.887" gradientUnits="userSpaceOnUse">
<stop stop-color="#0B9B8A"/>
<stop offset="1" stop-color="#08DEC5"/>
</linearGradient>
<linearGradient id="paint16_linear_1_561" x1="328.978" y1="937.175" x2="440.386" y2="895.124" gradientUnits="userSpaceOnUse">
<stop stop-color="#0B9B8A"/>
<stop offset="1" stop-color="#08DEC5"/>
</linearGradient>
<linearGradient id="paint17_linear_1_561" x1="387.573" y1="1043.47" x2="559.503" y2="991.288" gradientUnits="userSpaceOnUse">
<stop stop-color="#0B9B8A"/>
<stop offset="1" stop-color="#08DEC5"/>
</linearGradient>
<linearGradient id="paint18_linear_1_561" x1="371.381" y1="1125.43" x2="534.956" y2="1069.31" gradientUnits="userSpaceOnUse">
<stop stop-color="#0B9B8A"/>
<stop offset="1" stop-color="#08DEC5"/>
</linearGradient>
<linearGradient id="paint19_linear_1_561" x1="379.232" y1="1277.54" x2="555.029" y2="1221.54" gradientUnits="userSpaceOnUse">
<stop stop-color="#0B9B8A"/>
<stop offset="1" stop-color="#08DEC5"/>
</linearGradient>
<linearGradient id="paint20_linear_1_561" x1="357.125" y1="1500.93" x2="501.556" y2="1455.62" gradientUnits="userSpaceOnUse">
<stop stop-color="#0B9B8A"/>
<stop offset="1" stop-color="#08DEC5"/>
</linearGradient>
<linearGradient id="paint21_linear_1_561" x1="341.609" y1="1657.43" x2="455.543" y2="1629.42" gradientUnits="userSpaceOnUse">
<stop stop-color="#0B9B8A"/>
<stop offset="1" stop-color="#08DEC5"/>
</linearGradient>
<linearGradient id="paint22_linear_1_561" x1="360.81" y1="1869.85" x2="448.366" y2="1855.51" gradientUnits="userSpaceOnUse">
<stop stop-color="#0B9B8A"/>
<stop offset="1" stop-color="#08DEC5"/>
</linearGradient>
</defs>
</svg>
