<svg width="640" height="2897" viewBox="0 0 640 2897" fill="none" xmlns="http://www.w3.org/2000/svg">
<path d="M96.768 2889.87C95.872 2889.87 94.992 2889.71 94.112 2889.39C90.304 2887.92 88.3998 2883.65 89.8558 2879.82C212.112 2561.61 227.392 2212.14 226.224 1912.22C225.888 1830.54 224.288 1747.37 222.736 1666.96C218.048 1423.66 213.2 1172.06 242.88 926.43C288.848 546.062 412.944 242.638 611.744 24.5581C614.496 21.5341 619.184 21.3101 622.176 24.0781C625.2 26.8301 625.408 31.5019 622.656 34.5099C425.984 250.27 303.136 550.958 257.552 928.206C228.016 1172.81 232.848 1423.87 237.52 1666.67C239.072 1747.15 240.672 1830.37 241.008 1912.16C242.192 2213.44 226.784 2564.62 103.664 2885.12C102.528 2888.06 99.728 2889.87 96.768 2889.87Z" fill="url(#paint0_linear_1_506)"/>
<path d="M398.432 375.566C395.136 375.566 392.112 373.326 391.28 369.982C360.8 250.062 369.36 120.75 415.36 5.83809C416.88 2.04609 421.152 0.206031 424.96 1.72603C428.736 3.24604 430.592 7.55001 429.072 11.342C384.224 123.358 375.888 249.438 405.6 366.35C406.608 370.302 404.208 374.334 400.256 375.342C399.664 375.486 399.024 375.566 398.432 375.566Z" fill="url(#paint1_linear_1_506)"/>
<path d="M341.824 521.454C338.688 521.454 335.76 519.438 334.768 516.286C299.552 404.126 277.76 287.95 270.048 170.926C269.76 166.846 272.864 163.326 276.944 163.07C280.832 162.67 284.528 165.87 284.8 169.966C292.464 285.79 314 400.83 348.88 511.854C350.096 515.742 347.92 519.902 344.032 521.118C343.312 521.358 342.56 521.454 341.824 521.454Z" fill="url(#paint2_linear_1_506)"/>
<path d="M296.928 656.078C294.608 656.078 292.352 655.022 290.896 652.99C234.352 573.838 202.976 476.702 202.56 379.486C202.528 375.406 205.824 372.078 209.92 372.062H209.952C214.016 372.062 217.328 375.358 217.344 379.422C217.744 473.598 248.16 567.71 302.944 644.398C305.312 647.726 304.56 652.334 301.232 654.718C299.904 655.63 298.4 656.078 296.928 656.078Z" fill="url(#paint3_linear_1_506)"/>
<path d="M263.824 813.358C261.552 813.358 259.344 812.334 257.888 810.382C200.224 732.67 158.224 646.11 133.088 553.118C132.016 549.182 134.352 545.118 138.288 544.062C142.224 542.974 146.272 545.31 147.344 549.262C171.648 639.182 213.984 726.43 269.744 801.566C272.16 804.846 271.488 809.47 268.208 811.918C266.912 812.878 265.36 813.358 263.824 813.358Z" fill="url(#paint4_linear_1_506)"/>
<path d="M243.008 1001.33C240.56 1001.33 238.144 1000.11 236.736 997.87C178.128 904.526 142.848 819.07 131.888 743.886C131.296 739.854 134.096 736.094 138.144 735.518C142.224 734.846 145.936 737.726 146.512 741.774C157.168 814.91 191.744 898.43 249.248 990.014C251.424 993.486 250.384 998.046 246.928 1000.22C245.696 1000.96 244.336 1001.33 243.008 1001.33Z" fill="url(#paint5_linear_1_506)"/>
<path d="M229.04 1170C226.128 1170 223.376 1168.29 222.208 1165.42C186.416 1078.33 123.456 1006.57 44.96 963.39C41.376 961.422 40.0641 956.926 42.0321 953.342C43.9841 949.742 48.464 948.462 52.08 950.414C133.52 995.246 198.8 1069.6 235.872 1159.79C237.424 1163.57 235.616 1167.89 231.84 1169.45C230.944 1169.82 229.984 1170 229.04 1170Z" fill="url(#paint6_linear_1_506)"/>
<path d="M222.528 1319.87C219.536 1319.87 216.736 1318.06 215.616 1315.1C186.464 1238.56 121.472 1170.11 41.7602 1132.03C38.0802 1130.27 36.5122 1125.85 38.2722 1122.17C40.0322 1118.49 44.4323 1116.96 48.1283 1118.69C131.168 1158.37 198.96 1229.84 229.424 1309.85C230.88 1313.66 228.96 1317.93 225.136 1319.39C224.304 1319.71 223.408 1319.87 222.528 1319.87Z" fill="url(#paint7_linear_1_506)"/>
<path d="M222.528 1489.18C219.616 1489.18 216.864 1487.45 215.68 1484.61C175.344 1386.72 113.616 1307.2 37.1682 1254.7C33.8082 1252.38 32.9442 1247.79 35.2642 1244.41C37.5842 1241.05 42.1922 1240.21 45.5522 1242.51C124.368 1296.65 187.92 1378.41 229.36 1478.97C230.928 1482.73 229.12 1487.07 225.344 1488.62C224.416 1489.01 223.472 1489.18 222.528 1489.18Z" fill="url(#paint8_linear_1_506)"/>
<path d="M231.088 1725.34C227.936 1725.34 224.992 1723.29 224.032 1720.13C188.08 1602.83 110.384 1486.27 10.896 1400.29C7.82402 1397.61 7.47207 1392.94 10.1441 1389.87C12.8161 1386.75 17.4882 1386.45 20.5602 1389.1C122.112 1476.85 201.424 1595.93 238.176 1715.79C239.36 1719.69 237.168 1723.84 233.264 1725.02C232.544 1725.25 231.808 1725.34 231.088 1725.34Z" fill="url(#paint9_linear_1_506)"/>
<path d="M333.856 544.094C333.12 544.094 332.368 543.982 331.632 543.758C327.744 542.542 325.568 538.382 326.784 534.494C363.36 417.902 461.152 317.182 582 271.63C585.808 270.174 590.08 272.11 591.52 275.95C592.976 279.758 591.04 284.03 587.216 285.47C470.512 329.454 376.144 426.574 340.88 538.926C339.92 542.094 337.008 544.094 333.856 544.094Z" fill="url(#paint10_linear_1_506)"/>
<path d="M287.248 716.318C286.048 716.318 284.816 716.03 283.664 715.39C280.096 713.406 278.8 708.91 280.784 705.342C339.536 599.294 445.104 519.438 563.152 491.71C567.088 490.75 571.104 493.23 572.048 497.214C572.992 501.182 570.512 505.166 566.528 506.11C452.48 532.91 350.496 610.078 293.728 712.51C292.368 714.942 289.856 716.318 287.248 716.318Z" fill="url(#paint11_linear_1_506)"/>
<path d="M252.592 936.462C251.52 936.462 250.416 936.222 249.376 935.726C245.712 933.95 244.176 929.518 245.952 925.854C308.576 796.654 422.48 696.046 558.432 649.822C562.304 648.526 566.496 650.59 567.808 654.446C569.12 658.302 567.056 662.51 563.2 663.822C430.944 708.782 320.176 806.638 259.264 932.286C257.984 934.926 255.344 936.462 252.592 936.462Z" fill="url(#paint12_linear_1_506)"/>
<path d="M235.312 1096.33C234.464 1096.33 233.616 1096.19 232.768 1095.89C228.944 1094.48 226.976 1090.24 228.368 1086.4C265.04 986.446 367.696 892.254 489.92 846.446C493.712 844.99 498 846.958 499.44 850.766C500.88 854.59 498.928 858.846 495.104 860.286C376.752 904.638 277.504 995.39 242.24 1091.49C241.152 1094.49 238.32 1096.33 235.312 1096.33Z" fill="url(#paint13_linear_1_506)"/>
<path d="M231.744 1272.51C230.688 1272.51 229.616 1272.29 228.608 1271.81C224.896 1270.08 223.328 1265.66 225.056 1261.98C272.032 1162.09 344.864 1075.93 435.728 1012.81C439.104 1010.48 443.696 1011.34 446.032 1014.67C448.352 1018.03 447.536 1022.62 444.176 1024.97C355.456 1086.61 284.32 1170.73 238.448 1268.27C237.184 1270.94 234.528 1272.51 231.744 1272.51Z" fill="url(#paint14_linear_1_506)"/>
<path d="M226.576 1402.06C225.664 1402.06 224.736 1401.89 223.824 1401.53C220.048 1400.01 218.192 1395.73 219.712 1391.92C257.008 1298.72 349.376 1211.66 455.04 1170.17C458.832 1168.64 463.12 1170.54 464.624 1174.35C466.128 1178.14 464.256 1182.45 460.448 1183.93C358.4 1224.03 269.296 1307.82 233.44 1397.44C232.304 1400.32 229.52 1402.06 226.576 1402.06Z" fill="url(#paint15_linear_1_506)"/>
<path d="M229.04 1545.21C227.728 1545.21 226.4 1544.86 225.216 1544.14C221.712 1542.03 220.608 1537.49 222.736 1533.98C273.04 1451.13 364.912 1394.14 415.184 1367.53C418.832 1365.58 423.28 1367.01 425.184 1370.61C427.088 1374.22 425.712 1378.69 422.112 1380.59C338.832 1424.65 270.768 1483.36 235.376 1541.66C233.984 1543.95 231.552 1545.21 229.04 1545.21Z" fill="url(#paint16_linear_1_506)"/>
<path d="M231.744 1717.57C231.008 1717.57 230.256 1717.45 229.52 1717.23C225.632 1716.01 223.456 1711.85 224.688 1707.97C252.912 1618.54 332.608 1541.61 427.744 1511.98C431.616 1510.83 435.776 1512.97 436.992 1516.85C438.208 1520.75 436.016 1524.89 432.128 1526.11C341.472 1554.35 265.584 1627.47 238.768 1712.4C237.808 1715.55 234.896 1717.57 231.744 1717.57Z" fill="url(#paint17_linear_1_506)"/>
<defs>
<linearGradient id="paint0_linear_1_506" x1="379.432" y1="2889.87" x2="654.345" y2="2864.03" gradientUnits="userSpaceOnUse">
<stop stop-color="#0B9B8A"/>
<stop offset="1" stop-color="#08DEC5"/>
</linearGradient>
<linearGradient id="paint1_linear_1_506" x1="403.83" y1="375.566" x2="432.821" y2="373.372" gradientUnits="userSpaceOnUse">
<stop stop-color="#0B9B8A"/>
<stop offset="1" stop-color="#08DEC5"/>
</linearGradient>
<linearGradient id="paint2_linear_1_506" x1="312.946" y1="521.454" x2="353.477" y2="516.944" gradientUnits="userSpaceOnUse">
<stop stop-color="#0B9B8A"/>
<stop offset="1" stop-color="#08DEC5"/>
</linearGradient>
<linearGradient id="paint3_linear_1_506" x1="257.711" y1="656.078" x2="308.78" y2="646.863" gradientUnits="userSpaceOnUse">
<stop stop-color="#0B9B8A"/>
<stop offset="1" stop-color="#08DEC5"/>
</linearGradient>
<linearGradient id="paint4_linear_1_506" x1="207.814" y1="813.358" x2="275.021" y2="795.984" gradientUnits="userSpaceOnUse">
<stop stop-color="#0B9B8A"/>
<stop offset="1" stop-color="#08DEC5"/>
</linearGradient>
<linearGradient id="paint5_linear_1_506" x1="196.072" y1="1001.33" x2="254.565" y2="988.189" gradientUnits="userSpaceOnUse">
<stop stop-color="#0B9B8A"/>
<stop offset="1" stop-color="#08DEC5"/>
</linearGradient>
<linearGradient id="paint6_linear_1_506" x1="146.966" y1="1170" x2="231.375" y2="1132.34" gradientUnits="userSpaceOnUse">
<stop stop-color="#0B9B8A"/>
<stop offset="1" stop-color="#08DEC5"/>
</linearGradient>
<linearGradient id="paint7_linear_1_506" x1="141.8" y1="1319.87" x2="222.822" y2="1280.99" gradientUnits="userSpaceOnUse">
<stop stop-color="#0B9B8A"/>
<stop offset="1" stop-color="#08DEC5"/>
</linearGradient>
<linearGradient id="paint8_linear_1_506" x1="140.164" y1="1489.18" x2="227.823" y2="1454.29" gradientUnits="userSpaceOnUse">
<stop stop-color="#0B9B8A"/>
<stop offset="1" stop-color="#08DEC5"/>
</linearGradient>
<linearGradient id="paint9_linear_1_506" x1="133.077" y1="1725.34" x2="239.79" y2="1688.75" gradientUnits="userSpaceOnUse">
<stop stop-color="#0B9B8A"/>
<stop offset="1" stop-color="#08DEC5"/>
</linearGradient>
<linearGradient id="paint10_linear_1_506" x1="470.367" y1="544.094" x2="581.332" y2="489.722" gradientUnits="userSpaceOnUse">
<stop stop-color="#0B9B8A"/>
<stop offset="1" stop-color="#08DEC5"/>
</linearGradient>
<linearGradient id="paint11_linear_1_506" x1="438.318" y1="716.318" x2="544.342" y2="646.87" gradientUnits="userSpaceOnUse">
<stop stop-color="#0B9B8A"/>
<stop offset="1" stop-color="#08DEC5"/>
</linearGradient>
<linearGradient id="paint12_linear_1_506" x1="420.258" y1="936.462" x2="546.938" y2="864.669" gradientUnits="userSpaceOnUse">
<stop stop-color="#0B9B8A"/>
<stop offset="1" stop-color="#08DEC5"/>
</linearGradient>
<linearGradient id="paint13_linear_1_506" x1="375.328" y1="1096.33" x2="483.8" y2="1036.99" gradientUnits="userSpaceOnUse">
<stop stop-color="#0B9B8A"/>
<stop offset="1" stop-color="#08DEC5"/>
</linearGradient>
<linearGradient id="paint14_linear_1_506" x1="345.208" y1="1272.51" x2="442.709" y2="1230.56" gradientUnits="userSpaceOnUse">
<stop stop-color="#0B9B8A"/>
<stop offset="1" stop-color="#08DEC5"/>
</linearGradient>
<linearGradient id="paint15_linear_1_506" x1="352.481" y1="1402.06" x2="451.739" y2="1349.16" gradientUnits="userSpaceOnUse">
<stop stop-color="#0B9B8A"/>
<stop offset="1" stop-color="#08DEC5"/>
</linearGradient>
<linearGradient id="paint16_linear_1_506" x1="332.421" y1="1545.21" x2="411.914" y2="1499.39" gradientUnits="userSpaceOnUse">
<stop stop-color="#0B9B8A"/>
<stop offset="1" stop-color="#08DEC5"/>
</linearGradient>
<linearGradient id="paint17_linear_1_506" x1="339.771" y1="1717.57" x2="426.576" y2="1672.34" gradientUnits="userSpaceOnUse">
<stop stop-color="#0B9B8A"/>
<stop offset="1" stop-color="#08DEC5"/>
</linearGradient>
</defs>
</svg>
