<svg width="640" height="1761" viewBox="0 0 640 1761" fill="none" xmlns="http://www.w3.org/2000/svg">
<path d="M631.256 1756.78C600.094 1641.6 530.165 1540.86 462.532 1443.43C405.873 1361.82 347.303 1277.43 310.767 1184.08C204.809 913.167 291.294 615.783 397.412 309.487L405.732 312.367C300.16 617.054 214.099 912.743 318.965 1180.88C355.115 1273.25 413.393 1357.2 469.75 1438.4C537.816 1536.44 608.188 1637.83 639.746 1754.47L631.256 1756.78Z" fill="url(#paint0_linear_1_698)"/>
<path d="M366.231 406.701C350.692 312.423 365.657 213.327 408.16 127.812C430.108 83.708 459.05 43.4727 487.784 3.40686C460.292 53.101 469.723 73.6939 473.563 100.941C477.393 128.198 483.153 134.786 485.026 162.249C488.471 212.038 467.106 260.367 440.847 302.87C414.57 345.299 382.777 384.565 366.231 406.701Z" fill="url(#paint1_linear_1_698)"/>
<path d="M344.791 484.753C276.386 458.174 220.386 401.487 194.626 332.79C168.838 264.103 173.647 184.593 207.605 119.539C196.395 144.348 211.944 173.383 231.906 191.887C251.887 210.287 276.988 223.774 292.734 245.92C308.377 267.849 312.998 295.708 317.139 322.372C325.995 378.456 334.748 434.56 344.791 484.753Z" fill="url(#paint2_linear_1_698)"/>
<path d="M368.019 424.423C387.106 348.452 442.513 282.419 514.071 250.513C554.701 232.423 602.447 223.162 630.692 188.724C639.257 251.077 559.445 318.541 511.906 376C473.421 422.654 410.334 447.736 368.019 424.423Z" fill="url(#paint3_linear_1_698)"/>
<path d="M309.647 624.574C348.772 501.27 478.522 425.59 596.132 372.245C556.273 401.967 550.955 458.165 532.056 504.019C501.685 578.023 425.807 629.637 352.226 630.268C337.835 630.409 323.52 628.583 309.647 624.574Z" fill="url(#paint4_linear_1_698)"/>
<path d="M270.485 856.837C307.304 834.645 344.65 815.228 355.906 770.249C359.247 756.932 359.134 747.52 368.301 728.715C373.694 717.656 380.612 707.755 388.621 698.757C412.631 671.727 446.485 652.668 478.522 634.522C521.337 610.409 566.4 581.873 580.772 535.52C586.588 621.336 554.89 709.016 495.548 771.209C436.311 833.525 350.203 869.336 270.485 856.837Z" fill="url(#paint5_linear_1_698)"/>
<path d="M269.11 1025.12C328.546 930.146 434.155 865.694 545.449 855.953C525.364 912.819 485.129 962.428 433.553 993.835C381.995 1025.32 319.492 1038.31 269.11 1025.12Z" fill="url(#paint6_linear_1_698)"/>
<path d="M300.988 646.447C313.591 614.663 299.134 577.562 275.802 552.555C252.574 527.463 221.675 511.03 193.431 491.746C165.177 472.452 137.92 447.953 134.475 422.08C115.765 476.696 126.504 540.452 162.033 586.023C197.562 631.595 256.809 657.477 300.988 646.447Z" fill="url(#paint7_linear_1_698)"/>
<path d="M269.863 825.939C277.647 793.082 256.677 759.511 230.004 738.739C203.332 717.976 171.162 705.779 142.917 687.162C114.663 668.565 89.3739 639.915 86.4186 605.882C82.0045 656.518 88.2915 682.334 93.2232 721.506C97.9386 759.2 128.536 789.609 163.388 804.866C198.221 820.226 236.997 823.078 269.863 825.939Z" fill="url(#paint8_linear_1_698)"/>
<path d="M263.671 953.167C254.711 943.802 241.242 948.941 230.532 951.746C210.814 956.941 191.896 956.64 171.802 955.106C153.478 953.713 132.301 952.235 116.687 963.859C80.2727 990.927 32.3763 983.52 7.43506 1045.05C26.2398 1026.24 54.8799 1020.74 81.4493 1022.02C108.009 1023.3 134.005 1030.38 160.471 1032.85C186.936 1035.3 215.482 1032.35 236.536 1016.01C257.6 999.774 283.445 973.826 263.671 953.167Z" fill="url(#paint9_linear_1_698)"/>
<path d="M292.226 1113C251.868 1092.54 203.266 1114.09 165.77 1139.48C128.273 1164.87 140.763 1161.39 44.4048 1194.68C92.9318 1181 144 1207.48 194.297 1204.42C247.548 1201.06 296.358 1161.02 292.226 1113Z" fill="url(#paint10_linear_1_698)"/>
<path d="M313.412 1142.33C322.174 1100.8 365.082 1076.5 405.035 1062.43C444.988 1048.34 489.478 1037.33 516.433 1004.56C481.431 1159.67 348.301 1131.14 318.221 1192.83C309.779 1169.51 310.758 1159.66 313.412 1142.33Z" fill="url(#paint11_linear_1_698)"/>
<path d="M326.174 1208.87C278.136 1221.27 263.172 1243.05 241.816 1287.83C220.452 1332.6 241.816 1325.87 139.087 1429.61C167.228 1405.29 209.355 1410.52 245.478 1401.56C285.233 1391.62 319.576 1361.9 335.03 1324.03C350.485 1286.14 346.842 1240.87 326.174 1208.87Z" fill="url(#paint12_linear_1_698)"/>
<path d="M346.946 1252.06C375.774 1214.65 406.202 1175.9 449.016 1156.1C473.026 1144.98 499.689 1140.46 524.198 1130.43C548.696 1120.4 572.518 1102.57 578.814 1076.78C569.948 1125.11 555.906 1186.53 516.433 1215.86C495.774 1231.22 466.268 1240.78 441.28 1246.98C406.136 1255.85 377.167 1253.24 346.946 1252.06Z" fill="url(#paint13_linear_1_698)"/>
<path d="M434.946 1392.88C469.873 1320.07 537.393 1263.57 615.228 1242.03C586.296 1272.33 571.445 1313.46 546.042 1346.82C520.649 1380.2 475.379 1406.26 434.946 1392.88Z" fill="url(#paint14_linear_1_698)"/>
<path d="M408.734 1350.08C369.468 1358.55 327.962 1385.16 306.221 1419.01C284.471 1452.77 277.252 1497.81 241.816 1516.69C271.755 1516.69 264.565 1497.81 279.228 1499.36C293.882 1500.95 308.151 1506.84 322.918 1506.94C358.042 1507.13 384.922 1474.18 395.84 1440.82C406.767 1407.46 407.652 1371.14 408.734 1350.08Z" fill="url(#paint15_linear_1_698)"/>
<path d="M492.593 1476.44C431.671 1494.26 379.313 1539.52 352.847 1597.19C370.551 1583.91 392.697 1578.19 414.061 1572C435.407 1565.79 457.365 1558.4 473.101 1542.76C488.847 1527.12 496.141 1500.84 492.593 1476.44Z" fill="url(#paint16_linear_1_698)"/>
<path d="M516.433 1506.97C533.365 1457.37 572.028 1415.65 615.05 1396.47C603.04 1451.19 559.144 1497.64 516.433 1506.97Z" fill="url(#paint17_linear_1_698)"/>
<defs>
<linearGradient id="paint0_linear_1_698" x1="466.95" y1="1756.78" x2="659.119" y2="1731.55" gradientUnits="userSpaceOnUse">
<stop stop-color="#0B9B8A"/>
<stop offset="1" stop-color="#08DEC5"/>
</linearGradient>
<linearGradient id="paint1_linear_1_698" x1="429.364" y1="406.701" x2="493.818" y2="396.436" gradientUnits="userSpaceOnUse">
<stop stop-color="#0B9B8A"/>
<stop offset="1" stop-color="#08DEC5"/>
</linearGradient>
<linearGradient id="paint2_linear_1_698" x1="268.491" y1="484.753" x2="350.481" y2="465.919" gradientUnits="userSpaceOnUse">
<stop stop-color="#0B9B8A"/>
<stop offset="1" stop-color="#08DEC5"/>
</linearGradient>
<linearGradient id="paint3_linear_1_698" x1="510.72" y1="433.264" x2="616.157" y2="376.088" gradientUnits="userSpaceOnUse">
<stop stop-color="#0B9B8A"/>
<stop offset="1" stop-color="#08DEC5"/>
</linearGradient>
<linearGradient id="paint4_linear_1_698" x1="464.908" y1="630.276" x2="577.999" y2="567.039" gradientUnits="userSpaceOnUse">
<stop stop-color="#0B9B8A"/>
<stop offset="1" stop-color="#08DEC5"/>
</linearGradient>
<linearGradient id="paint5_linear_1_698" x1="439.015" y1="859.312" x2="569.602" y2="796.15" gradientUnits="userSpaceOnUse">
<stop stop-color="#0B9B8A"/>
<stop offset="1" stop-color="#08DEC5"/>
</linearGradient>
<linearGradient id="paint6_linear_1_698" x1="418.873" y1="1030.23" x2="506.309" y2="960.409" gradientUnits="userSpaceOnUse">
<stop stop-color="#0B9B8A"/>
<stop offset="1" stop-color="#08DEC5"/>
</linearGradient>
<linearGradient id="paint7_linear_1_698" x1="223.09" y1="648.98" x2="303.604" y2="616.768" gradientUnits="userSpaceOnUse">
<stop stop-color="#0B9B8A"/>
<stop offset="1" stop-color="#08DEC5"/>
</linearGradient>
<linearGradient id="paint8_linear_1_698" x1="186.042" y1="825.939" x2="267.815" y2="791.02" gradientUnits="userSpaceOnUse">
<stop stop-color="#0B9B8A"/>
<stop offset="1" stop-color="#08DEC5"/>
</linearGradient>
<linearGradient id="paint9_linear_1_698" x1="150.131" y1="1045.05" x2="197.856" y2="979.987" gradientUnits="userSpaceOnUse">
<stop stop-color="#0B9B8A"/>
<stop offset="1" stop-color="#08DEC5"/>
</linearGradient>
<linearGradient id="paint10_linear_1_698" x1="178.845" y1="1204.67" x2="228.929" y2="1141.99" gradientUnits="userSpaceOnUse">
<stop stop-color="#0B9B8A"/>
<stop offset="1" stop-color="#08DEC5"/>
</linearGradient>
<linearGradient id="paint11_linear_1_698" x1="422.576" y1="1192.83" x2="504.222" y2="1148.07" gradientUnits="userSpaceOnUse">
<stop stop-color="#0B9B8A"/>
<stop offset="1" stop-color="#08DEC5"/>
</linearGradient>
<linearGradient id="paint12_linear_1_698" x1="250.439" y1="1429.61" x2="337.727" y2="1388.69" gradientUnits="userSpaceOnUse">
<stop stop-color="#0B9B8A"/>
<stop offset="1" stop-color="#08DEC5"/>
</linearGradient>
<linearGradient id="paint13_linear_1_698" x1="472.607" y1="1253.35" x2="556.196" y2="1198.07" gradientUnits="userSpaceOnUse">
<stop stop-color="#0B9B8A"/>
<stop offset="1" stop-color="#08DEC5"/>
</linearGradient>
<linearGradient id="paint14_linear_1_698" x1="532.65" y1="1396.46" x2="602.072" y2="1355.65" gradientUnits="userSpaceOnUse">
<stop stop-color="#0B9B8A"/>
<stop offset="1" stop-color="#08DEC5"/>
</linearGradient>
<linearGradient id="paint15_linear_1_698" x1="332.278" y1="1516.69" x2="401.22" y2="1481.9" gradientUnits="userSpaceOnUse">
<stop stop-color="#0B9B8A"/>
<stop offset="1" stop-color="#08DEC5"/>
</linearGradient>
<linearGradient id="paint16_linear_1_698" x1="429.061" y1="1597.19" x2="483.28" y2="1565.39" gradientUnits="userSpaceOnUse">
<stop stop-color="#0B9B8A"/>
<stop offset="1" stop-color="#08DEC5"/>
</linearGradient>
<linearGradient id="paint17_linear_1_698" x1="569.879" y1="1506.97" x2="612.392" y2="1487.87" gradientUnits="userSpaceOnUse">
<stop stop-color="#0B9B8A"/>
<stop offset="1" stop-color="#08DEC5"/>
</linearGradient>
</defs>
</svg>
