<svg width="754" height="827" viewBox="0 0 754 827" fill="none" xmlns="http://www.w3.org/2000/svg">
<g clip-path="url(#clip0_1_313)">
<path d="M131 794C156.093 771.628 148.004 729.589 131.843 700.088C115.69 670.628 92.619 642.145 92.7984 608.506C92.8484 597.865 95.3617 587.117 93.3758 576.632C91.7062 567.671 86.8871 559.615 82.8517 551.385C51.1757 486.794 72.2501 400.886 130.207 358.307C156.035 339.344 187.425 328.557 211.504 307.425C238.167 283.99 253.468 249.878 279.645 225.859C308.299 199.538 347.142 187.831 380.216 167.456C429.843 136.941 466.394 85.8512 479 29C508.759 71.7051 467.75 129.493 474.607 181.05C480.963 228.494 527.616 265.972 524.819 313.811C523.236 340.827 505.825 364.064 496.608 389.483C474.713 449.605 497.534 523.793 460.061 575.656C426.029 622.858 355.378 631.191 320.64 677.864C310.719 691.151 304.087 707.216 291.265 717.743C279.378 727.494 263.821 731.113 249.128 735.605C204.998 749.04 164.203 773.225 131 794Z" fill="url(#paint0_linear_1_313)"/>
<path d="M168 801C195.37 767.411 253.01 784.921 289.019 760.826C304.161 750.703 313.825 734.444 325.078 720.092C373.061 658.655 450.604 630.137 522.107 599.046C593.607 567.947 667.881 525.137 696 454C716.858 475.258 700.039 510.808 682.266 534.673C661.088 563.16 639.122 592.38 608.643 610.564C590.543 621.37 569.983 627.901 552.804 640.162C517.995 664.981 501.086 710.237 464.154 731.751C433.475 749.681 395.158 747.552 361.916 760.017C340.116 768.197 320.85 782.489 298.644 789.39C252.943 803.495 199.375 783.831 168 801Z" fill="url(#paint1_linear_1_313)"/>
<path d="M136.975 792.46C173.741 711.128 221.496 633.694 270.469 559.187C286.958 534.1 305.181 509.399 318.826 482.564C320.925 478.436 320.869 475.071 320.869 470.645" stroke="white" stroke-width="3" stroke-linecap="round"/>
</g>
<defs>
<linearGradient id="paint0_linear_1_313" x1="380.055" y1="751.707" x2="588.87" y2="635.278" gradientUnits="userSpaceOnUse">
<stop stop-color="#0B9B8A"/>
<stop offset="1" stop-color="#08DEC5"/>
</linearGradient>
<linearGradient id="paint1_linear_1_313" x1="482.261" y1="759.135" x2="590.73" y2="587.924" gradientUnits="userSpaceOnUse">
<stop stop-color="#0B9B8A"/>
<stop offset="1" stop-color="#08DEC5"/>
</linearGradient>
<clipPath id="clip0_1_313">
<rect width="640" height="729.114" fill="white" transform="translate(0 107.562) rotate(-9.63778)"/>
</clipPath>
</defs>
</svg>
