<svg width="641" height="1080" viewBox="0 0 641 1080" fill="none" xmlns="http://www.w3.org/2000/svg">
<path d="M549.791 962.962C549.251 961.288 547.971 955.783 546.614 949.961C545.349 944.51 543.915 938.326 543.414 936.83L543.29 936.128C542.951 924.369 533.691 916.041 523.882 907.235C520.451 904.159 516.896 900.959 513.766 897.62C490.055 872.267 489.654 836.157 489.268 801.25C489.114 787.818 488.968 773.93 487.472 760.938C481.218 706.676 446.782 652.562 392.998 612.473C388.711 609.288 384.339 606.189 379.959 603.081C366.473 593.543 352.524 583.673 341.328 571.081C329.338 557.587 320.871 541.387 312.682 525.726C291.007 484.296 268.599 441.447 254.411 395.351C238.959 345.123 236.283 289.512 247.256 246.586L252.021 247.804C241.264 289.89 243.917 344.506 259.115 393.901C273.164 439.573 295.472 482.206 317.039 523.444C325.089 538.842 333.417 554.773 345.006 567.812C355.817 579.98 369.534 589.688 382.789 599.072C387.208 602.195 391.626 605.317 395.936 608.533C450.791 649.431 485.937 704.772 492.353 760.382C493.879 773.63 494.041 787.648 494.18 801.204C494.581 836.735 494.951 870.308 517.359 894.266C520.335 897.45 523.805 900.566 527.167 903.581C537.23 912.618 547.632 921.963 548.195 935.65C548.811 937.701 550.068 943.129 551.402 948.851C552.675 954.318 553.993 959.97 554.471 961.458L549.791 962.962Z" fill="url(#paint0_linear_1_132)"/>
<path d="M156.738 445.34C155.651 427.32 152.104 414.273 152.459 396.554C152.505 384.733 153.438 372.959 153.631 361.215C153.477 352.895 152.744 344.56 154.024 336.294C154.471 332.947 155.697 326.462 156.877 323.008C155.312 326.061 154.225 329.308 153.145 332.6C148.611 346.487 149.791 361.354 147.377 375.681C143.645 398.428 147.192 420.735 149.451 441.053C150.284 454.054 151.125 467.147 155.158 479.661C160.779 496.988 170.178 512.895 178.244 529.18C168.119 500.727 156.438 473.994 156.738 445.34Z" fill="url(#paint1_linear_1_132)"/>
<path d="M426.556 983.341L495.113 958.721C451.717 958.782 410.679 961.389 370.915 964.072L367.499 964.303C341.066 966.108 311.094 968.174 288.617 952.367L280.351 946.561L290.367 947.918C294.955 948.542 299.142 948.781 302.805 948.65C265.746 942.89 233.662 919.604 202.525 897.011C192.825 889.978 182.801 882.692 172.869 876.153C160.177 867.794 146.714 860.099 133.698 852.65C114.244 841.524 94.1184 830.019 76.0289 816.024C55.2097 799.908 19.9557 766.019 17.6733 719.978L17.1873 710.3L22.2227 718.574C26.4868 725.576 30.0876 732.338 33.5807 738.884C40.0038 750.921 45.8872 761.971 54.1918 770.861C32.9793 742 25.9006 702.543 20.6418 663.912L7.84954 569.978C3.00713 534.601 0.161822 503.064 14.396 475.42L21.1044 462.389L19.0148 476.909C16.3468 495.445 16.8405 514.399 20.3952 532.727C20.3489 506.079 24.9984 479.06 33.704 453.182L33.6115 453.167C40.9291 413.225 63.6222 369.566 95.8765 333.379C110.273 317.232 125.933 301.842 141.085 286.96C156.615 271.708 172.669 255.939 187.281 239.399C244.996 174.096 284.553 90.7882 298.649 4.82L299.227 1.26532L302.327 3.10043C324.279 16.1394 327.171 56.0585 325.729 87.2566C324.511 113.851 313.376 138.326 301.525 160.81C294.276 174.597 286.165 188.878 275.747 201.732C278.23 200.452 280.721 199.172 283.188 197.884L289.388 194.653L286.589 201.061C274.059 229.622 250.348 254.381 211.963 278.979C200.875 286.096 189.293 292.805 178.105 299.289C158.666 310.555 138.579 322.198 120.682 336.209C55.4717 387.247 17.6655 475.559 26.6023 555.968L29.0313 577.82L21.8217 557.047C14.8125 536.822 11.6665 515.247 12.5147 493.803C6.36143 516.326 8.91367 541.595 12.7074 569.315L25.4997 663.249C31.8534 709.977 40.8905 757.899 74.7257 785.489L88.9984 797.117L72.1735 789.645C49.7272 779.667 40.2196 761.84 29.2162 741.19C27.489 737.959 25.7387 734.659 23.8958 731.32C30.7738 769.535 60.6843 797.934 79.0206 812.122C96.8326 825.909 116.804 837.337 136.119 848.378C149.205 855.858 162.737 863.6 175.553 872.035C185.577 878.643 195.639 885.953 205.386 893.024C239.823 918.015 275.431 943.862 317.077 945.026L324.757 945.242L318.388 949.529C313.762 952.637 307.177 953.346 300.584 953.601C320.193 962.607 344.004 960.98 367.136 959.391L370.552 959.16C414.573 956.176 460.098 953.084 508.892 953.924L522.325 954.156L466.028 974.381C498.182 972.153 531.678 973.047 556.993 977.011L556.229 981.876C526.211 977.18 484.503 976.849 447.391 981.005L426.556 983.341ZM302.859 9.462C288.077 94.9675 248.428 177.651 190.967 242.661C176.231 259.332 160.116 275.162 144.532 290.468C129.442 305.296 113.835 320.625 99.5468 336.648C78.5811 360.174 61.7329 386.885 50.6602 413.587C67.2231 382.15 90.0317 353.967 117.66 332.346C135.826 318.112 156.067 306.383 175.653 295.041C186.795 288.579 198.323 281.901 209.318 274.846C243.855 252.708 266.201 230.547 278.986 205.61C276.017 207.129 273.049 208.648 270.095 210.16L252.916 218.935L263.487 208.147C277.876 193.473 288.185 175.615 297.191 158.52C308.773 136.537 319.653 112.672 320.825 87.0407C321.889 63.8465 320.833 24.0663 302.859 9.462Z" fill="url(#paint2_linear_1_132)"/>
<path d="M639.63 1072.52C637.432 1061.11 635.982 1049.38 630.924 1038.75C622.997 1021.23 607.429 1009.27 594.39 995.679C574.357 976.533 552.844 959.06 532.217 940.577C522.417 932.265 512.169 923.012 502.084 913.998C501.397 912.772 500.765 911.546 500.117 910.266C491.111 890.819 480.424 872.205 468.765 854.3C476.298 873.385 485.405 891.96 496.678 909.124C496.732 909.232 496.778 909.279 496.871 909.379C484.904 898.838 473.23 888.945 462.797 881.859C452.125 874.086 441.877 865.612 430.118 859.505C418.598 852.411 412.638 846.859 403.593 840.274C382.072 820.951 355.2 793.161 333.386 769.466C313.445 749.973 293.898 730.04 276.773 707.979C270.126 699.559 262.939 691.347 259.2 685.911C253.285 677.02 248.366 667.505 242.259 658.792C234.039 648.151 227.793 636.245 220.221 625.211C214.299 616.259 208.886 606.952 203.774 597.552C198.554 584.991 193.241 571.212 189.339 557.626C190.727 564.766 192.308 571.852 194.074 578.892C192.254 575.253 192.277 566.778 190.45 563.139C192.863 570.025 193.719 581.552 196.58 588.284C207.699 629.205 225.025 668.531 248.566 703.746C272.439 745.585 304.439 782.073 339.493 814.906C384.686 856.359 429.239 888.004 478.026 924.785C491.512 934.377 510.511 947.339 521.345 954.904C535.016 966.177 548.865 977.25 562.506 988.623C589.933 1013.79 614.484 1039.28 633.245 1069.76C633.885 1070.74 634.479 1071.82 635.072 1072.96L639.63 1072.52ZM612.017 1029.55C597.15 1011.77 580.611 995.339 563.084 980.226C550.469 970.032 538.016 959.646 525.424 949.498C510.697 939.019 495.63 929.065 481.002 918.532C443.635 890.271 409.037 865.466 375.271 837.198C333.617 801.905 294.323 763.312 265.97 718.998C252.537 696.752 237.517 675.44 226.783 651.621C223.19 644.473 220.429 638.065 217.777 631.48C224.416 642.9 231.171 654.273 238.889 665.053C244.41 673.473 248.844 682.526 254.55 690.846C263.957 703.26 273.95 715.166 283.789 727.187C298.263 745.153 315.25 760.76 331.396 777.2C343.703 791.773 357.636 804.82 371.03 818.352C381.262 828.346 393.723 842.133 403.122 848.479C412.136 855.48 421.544 863.014 433.349 869.298C441.376 874.171 452.156 882.738 457.368 886.347C479.283 901.691 500.649 922.372 523.944 942.651C545.742 961.813 568.104 980.365 589.262 1000.31C602.51 1014.03 616.296 1024.66 624.316 1040.42C626.382 1043.97 627.924 1047.97 629.297 1052.18C624.169 1044.07 618.355 1036.54 612.017 1029.55Z" fill="url(#paint3_linear_1_132)"/>
<path d="M304.963 634.225C304.863 615.673 303.005 597.159 304.084 578.607C302.951 555.274 301.771 531.933 303.151 508.546C299.211 532.28 299.018 556.161 298.864 580.126C297.245 598.594 299.165 616.992 300.044 635.405C301.47 652.546 301.571 669.78 303.344 686.86C303.537 687.839 303.683 689.574 303.537 689.867C303.938 688.988 303.73 687.939 303.73 687.014C304.177 669.433 305.611 651.852 304.963 634.225Z" fill="url(#paint4_linear_1_132)"/>
<path d="M281.731 561.574C281.731 561.62 281.684 561.62 281.63 561.62H281.684C281.684 561.62 281.684 561.612 281.731 561.574Z" fill="url(#paint5_linear_1_132)"/>
<path d="M280.258 476.207C280.952 495.993 282.232 515.841 280.551 535.581C280.058 544.248 281.639 552.961 281.191 561.612C281.292 561.72 281.484 561.72 281.639 561.612C282.818 548.92 282.865 539.32 284.438 527.153C285.664 510.135 283.111 493.001 280.258 476.207Z" fill="url(#paint6_linear_1_132)"/>
<path d="M272.239 485.514C271.545 470.84 268.592 458.981 267.605 444.593C266.571 460.546 269.324 476.346 268.877 492.3C268.784 503.48 266.425 512.147 265.291 524.261C265.245 525.302 265.176 526.713 265.245 527.415C265.338 526.674 265.43 525.934 265.577 525.14C268.692 512.093 272.825 499.101 272.239 485.514Z" fill="url(#paint7_linear_1_132)"/>
<path d="M420.904 638.96C420.217 653.541 422.037 668.022 422.669 682.487C424.643 668.107 422.577 653.34 420.904 638.96Z" fill="url(#paint8_linear_1_132)"/>
<path d="M440.597 783.985C439.017 765.086 435.022 739.147 431.977 718.019C432.169 740.373 433.449 762.827 435.624 785.065C437.551 800.132 440.69 820.859 439.317 837.792C443.643 820.28 442.517 801.767 440.597 783.985Z" fill="url(#paint9_linear_1_132)"/>
<path d="M451.724 783.6C450.976 808.768 450.49 838 452.649 860.986C453.991 851.825 453.783 842.441 454.824 833.181C455.61 816.587 453.397 800.101 451.724 783.6Z" fill="url(#paint10_linear_1_132)"/>
<path d="M424.397 819.339C424.15 796.554 423.163 773.699 419.331 751.206C419.971 775.326 417.951 799.746 421.606 823.665C422.924 831.291 425.191 838.732 425.685 845.973C426.664 837.067 425.037 828.199 424.397 819.339Z" fill="url(#paint11_linear_1_132)"/>
<path d="M199.564 480.633C188.746 491.66 186.232 508.693 186.972 523.559C189.872 509.132 192.331 493.425 199.418 481.019C199.556 480.772 200.166 480.232 200.166 480.193C199.957 480.386 199.765 480.502 199.564 480.633Z" fill="url(#paint12_linear_1_132)"/>
<path d="M171.165 499.895C177.565 485.067 181.305 469.306 184.651 453.606C177.665 468.18 173.964 484.033 171.165 499.895Z" fill="url(#paint13_linear_1_132)"/>
<path d="M212.264 416.155C216.35 401.728 219.311 386.854 223.336 372.527C215.857 385.736 212.958 401.134 212.264 416.155Z" fill="url(#paint14_linear_1_132)"/>
<path d="M86.585 601.701C81.519 592.787 74.2709 585.501 67.9712 577.474C61.5712 568.621 52.5187 553.354 47.9385 541.001C50.4445 555.282 56.1583 569.408 64.9641 580.92C72.0118 589.047 80.424 595.841 87.225 604.161C88.0192 605.047 88.9908 606.181 89.5845 606.821C88.5513 605.094 87.5643 603.359 86.585 601.701Z" fill="url(#paint15_linear_1_132)"/>
<path d="M51.8711 579.733C57.6311 596.673 68.3722 611.632 81.0717 624.101C71.6725 609.088 61.3863 594.645 51.8711 579.733Z" fill="url(#paint16_linear_1_132)"/>
<path d="M223.938 691.679C216.744 686.96 207.545 687.353 199.626 684.415C184.412 678.2 167.071 665.262 151.425 655.608C166.338 668.94 181.752 685.001 201.939 689.389C208.833 690.854 217.399 689.913 223.306 692.689C225.172 693.475 227.146 694.601 228.819 695.488C227.285 694.154 225.658 692.82 223.938 691.679Z" fill="url(#paint17_linear_1_132)"/>
<path d="M175.151 646.092C181.999 650.827 189.717 654.42 197.551 656.934C190.218 652.246 183.024 648.907 175.151 646.092Z" fill="url(#paint18_linear_1_132)"/>
<path d="M251.805 717.086C247.024 714.187 242.197 711.233 236.923 709.367C231.865 707.54 225.218 707.247 221.617 706.707C210.845 704.826 200.297 701.772 189.571 699.467C170.625 695.927 153.052 687.939 134.585 682.726C117.498 678.732 100.071 676.226 82.6909 673.72C101.305 679.087 120.258 683.312 138.463 689.813C155.851 696.606 173.178 703.654 191.738 706.406C202.186 708.118 212.565 710.54 223.098 710.979C232.944 710.486 241.357 712.799 250.016 716.901C251.543 717.572 253.864 718.474 255.098 718.667C253.956 718.219 252.877 717.687 251.805 717.086Z" fill="url(#paint19_linear_1_132)"/>
<path d="M258.537 738.8C223.684 716.192 180.418 717.233 140.391 717.194C165.166 720.926 187.204 722.252 211.03 726.933C226.444 728.313 241.365 732.169 256.871 738.754C258.097 739.193 260.603 740.08 261.158 739.933C260.218 739.687 259.377 739.224 258.537 738.8Z" fill="url(#paint20_linear_1_132)"/>
<path d="M204.245 816.294C188.599 813.834 172.684 815.839 156.939 814.759C136.397 812.955 113.079 806.1 90.5791 801.766C116.171 811.112 142.612 823.172 170.525 819.972C182.839 818.885 191.452 817.119 204.592 816.818C205.471 816.78 206.404 816.78 207.298 816.726C206.265 816.587 205.224 816.425 204.245 816.294Z" fill="url(#paint21_linear_1_132)"/>
<path d="M275.431 845.287C269.031 845.387 257.411 845.78 253.625 845.086C229.058 839.234 203.211 836.812 178.305 842.079C197.251 841.493 213.752 843.752 229.937 846.266C238.997 847.492 247.903 850.252 257.118 850.106C262.824 850.044 269.517 848.718 273.742 848.186C278.677 847.361 287.437 846.86 291.369 845.032C286.164 845.88 280.744 845.194 275.431 845.287Z" fill="url(#paint22_linear_1_132)"/>
<path d="M342.669 843.659C359.757 853.205 377.684 862.358 396.476 867.671C379.404 858.086 361.684 849.026 342.669 843.659Z" fill="url(#paint23_linear_1_132)"/>
<path d="M402.938 883.34C398.905 882.885 394.857 884.026 390.831 884.026C373.444 884.226 356.125 883.633 338.752 883.987C356.811 887.033 375.279 890.426 393.631 888.506C404.557 885.853 414.558 887.766 426.417 890.079C420.464 887.272 410.664 884.072 402.938 883.34Z" fill="url(#paint24_linear_1_132)"/>
<path d="M257.311 911.592C282.664 911.353 312.065 911.985 333.771 899.286C309.351 906.619 283.011 905.393 257.311 911.592Z" fill="url(#paint25_linear_1_132)"/>
<path d="M474.278 939.104C459.898 939.559 430.851 933.198 409.392 932.812C430.851 938.48 453.158 943.8 475.404 939.798C476.437 939.451 474.124 939.019 474.278 939.104Z" fill="url(#paint26_linear_1_132)"/>
<path d="M456.389 942.312C435.138 942.505 414.01 947.879 392.69 945.504C413.262 952.205 438.438 948.712 455.549 946.391C464.671 945.566 474.209 946.052 482.83 942.505C474.124 944.232 465.21 942.512 456.389 942.312Z" fill="url(#paint27_linear_1_132)"/>
<path d="M464.416 927.492C449.951 920.706 435.084 914.599 421.544 906.032C440.451 923.513 467.462 936.999 492.376 937.739C481.264 935.125 474.317 932.064 464.416 927.492Z" fill="url(#paint28_linear_1_132)"/>
<path d="M523.15 924.4C519.958 916.912 517.197 912.579 515.023 905.639C507.242 882.491 495.19 861.125 482.144 840.591C490.271 860.438 497.743 878.158 507.404 897.952C511.537 907.451 516.511 916.411 522.656 924.731C523.242 925.633 523.99 927.106 524.283 927.484C523.952 926.466 523.535 925.425 523.15 924.4Z" fill="url(#paint29_linear_1_132)"/>
<defs>
<linearGradient id="paint0_linear_1_132" x1="410.695" y1="962.962" x2="565.794" y2="928.736" gradientUnits="userSpaceOnUse">
<stop stop-color="#D02964"/>
<stop offset="1" stop-color="#FC8F59"/>
</linearGradient>
<linearGradient id="paint1_linear_1_132" x1="163.36" y1="529.18" x2="180.092" y2="527.852" gradientUnits="userSpaceOnUse">
<stop stop-color="#D02964"/>
<stop offset="1" stop-color="#FC8F59"/>
</linearGradient>
<linearGradient id="paint2_linear_1_132" x1="303.65" y1="983.341" x2="568.911" y2="908.104" gradientUnits="userSpaceOnUse">
<stop stop-color="#D02964"/>
<stop offset="1" stop-color="#FC8F59"/>
</linearGradient>
<linearGradient id="paint3_linear_1_132" x1="433.375" y1="1072.96" x2="628.852" y2="986.935" gradientUnits="userSpaceOnUse">
<stop stop-color="#D02964"/>
<stop offset="1" stop-color="#FC8F59"/>
</linearGradient>
<linearGradient id="paint4_linear_1_132" x1="301.971" y1="689.867" x2="305.542" y2="689.798" gradientUnits="userSpaceOnUse">
<stop stop-color="#D02964"/>
<stop offset="1" stop-color="#FC8F59"/>
</linearGradient>
<linearGradient id="paint5_linear_1_132" x1="281.685" y1="561.62" x2="281.709" y2="561.594" gradientUnits="userSpaceOnUse">
<stop stop-color="#D02964"/>
<stop offset="1" stop-color="#FC8F59"/>
</linearGradient>
<linearGradient id="paint6_linear_1_132" x1="282.694" y1="561.693" x2="285.021" y2="561.632" gradientUnits="userSpaceOnUse">
<stop stop-color="#D02964"/>
<stop offset="1" stop-color="#FC8F59"/>
</linearGradient>
<linearGradient id="paint7_linear_1_132" x1="269.052" y1="527.415" x2="272.714" y2="527.257" gradientUnits="userSpaceOnUse">
<stop stop-color="#D02964"/>
<stop offset="1" stop-color="#FC8F59"/>
</linearGradient>
<linearGradient id="paint8_linear_1_132" x1="422.228" y1="682.487" x2="423.638" y2="682.443" gradientUnits="userSpaceOnUse">
<stop stop-color="#D02964"/>
<stop offset="1" stop-color="#FC8F59"/>
</linearGradient>
<linearGradient id="paint9_linear_1_132" x1="437.571" y1="837.792" x2="442.911" y2="837.56" gradientUnits="userSpaceOnUse">
<stop stop-color="#D02964"/>
<stop offset="1" stop-color="#FC8F59"/>
</linearGradient>
<linearGradient id="paint10_linear_1_132" x1="453.203" y1="860.986" x2="455.221" y2="860.935" gradientUnits="userSpaceOnUse">
<stop stop-color="#D02964"/>
<stop offset="1" stop-color="#FC8F59"/>
</linearGradient>
<linearGradient id="paint11_linear_1_132" x1="422.94" y1="845.973" x2="426.387" y2="845.851" gradientUnits="userSpaceOnUse">
<stop stop-color="#D02964"/>
<stop offset="1" stop-color="#FC8F59"/>
</linearGradient>
<linearGradient id="paint12_linear_1_132" x1="194.068" y1="523.559" x2="200.805" y2="522.518" gradientUnits="userSpaceOnUse">
<stop stop-color="#D02964"/>
<stop offset="1" stop-color="#FC8F59"/>
</linearGradient>
<linearGradient id="paint13_linear_1_132" x1="178.474" y1="499.895" x2="185.315" y2="498.891" gradientUnits="userSpaceOnUse">
<stop stop-color="#D02964"/>
<stop offset="1" stop-color="#FC8F59"/>
</linearGradient>
<linearGradient id="paint14_linear_1_132" x1="218.265" y1="416.155" x2="223.91" y2="415.433" gradientUnits="userSpaceOnUse">
<stop stop-color="#D02964"/>
<stop offset="1" stop-color="#FC8F59"/>
</linearGradient>
<linearGradient id="paint15_linear_1_132" x1="70.5086" y1="606.821" x2="90.0995" y2="600.578" gradientUnits="userSpaceOnUse">
<stop stop-color="#D02964"/>
<stop offset="1" stop-color="#FC8F59"/>
</linearGradient>
<linearGradient id="paint16_linear_1_132" x1="67.6964" y1="624.101" x2="81.3298" y2="619.582" gradientUnits="userSpaceOnUse">
<stop stop-color="#D02964"/>
<stop offset="1" stop-color="#FC8F59"/>
</linearGradient>
<linearGradient id="paint17_linear_1_132" x1="193.369" y1="695.488" x2="213.88" y2="675.441" gradientUnits="userSpaceOnUse">
<stop stop-color="#D02964"/>
<stop offset="1" stop-color="#FC8F59"/>
</linearGradient>
<linearGradient id="paint18_linear_1_132" x1="187.291" y1="656.934" x2="192.864" y2="651.135" gradientUnits="userSpaceOnUse">
<stop stop-color="#D02964"/>
<stop offset="1" stop-color="#FC8F59"/>
</linearGradient>
<linearGradient id="paint19_linear_1_132" x1="176.127" y1="718.667" x2="195.007" y2="682.194" gradientUnits="userSpaceOnUse">
<stop stop-color="#D02964"/>
<stop offset="1" stop-color="#FC8F59"/>
</linearGradient>
<linearGradient id="paint20_linear_1_132" x1="205.841" y1="739.949" x2="213.525" y2="719.411" gradientUnits="userSpaceOnUse">
<stop stop-color="#D02964"/>
<stop offset="1" stop-color="#FC8F59"/>
</linearGradient>
<linearGradient id="paint21_linear_1_132" x1="153.835" y1="820.498" x2="159.411" y2="803.002" gradientUnits="userSpaceOnUse">
<stop stop-color="#D02964"/>
<stop offset="1" stop-color="#FC8F59"/>
</linearGradient>
<linearGradient id="paint22_linear_1_132" x1="239.58" y1="850.111" x2="241.666" y2="839.256" gradientUnits="userSpaceOnUse">
<stop stop-color="#D02964"/>
<stop offset="1" stop-color="#FC8F59"/>
</linearGradient>
<linearGradient id="paint23_linear_1_132" x1="371.83" y1="867.671" x2="384.093" y2="853.832" gradientUnits="userSpaceOnUse">
<stop stop-color="#D02964"/>
<stop offset="1" stop-color="#FC8F59"/>
</linearGradient>
<linearGradient id="paint24_linear_1_132" x1="386.262" y1="890.079" x2="387.329" y2="883.2" gradientUnits="userSpaceOnUse">
<stop stop-color="#D02964"/>
<stop offset="1" stop-color="#FC8F59"/>
</linearGradient>
<linearGradient id="paint25_linear_1_132" x1="298.749" y1="911.592" x2="302.42" y2="900.103" gradientUnits="userSpaceOnUse">
<stop stop-color="#D02964"/>
<stop offset="1" stop-color="#FC8F59"/>
</linearGradient>
<linearGradient id="paint26_linear_1_132" x1="445.312" y1="941.193" x2="447.348" y2="933.081" gradientUnits="userSpaceOnUse">
<stop stop-color="#D02964"/>
<stop offset="1" stop-color="#FC8F59"/>
</linearGradient>
<linearGradient id="paint27_linear_1_132" x1="441.541" y1="949.398" x2="442.652" y2="942.281" gradientUnits="userSpaceOnUse">
<stop stop-color="#D02964"/>
<stop offset="1" stop-color="#FC8F59"/>
</linearGradient>
<linearGradient id="paint28_linear_1_132" x1="459.931" y1="937.739" x2="476.13" y2="919.514" gradientUnits="userSpaceOnUse">
<stop stop-color="#D02964"/>
<stop offset="1" stop-color="#FC8F59"/>
</linearGradient>
<linearGradient id="paint29_linear_1_132" x1="504.981" y1="927.484" x2="525.588" y2="922.451" gradientUnits="userSpaceOnUse">
<stop stop-color="#D02964"/>
<stop offset="1" stop-color="#FC8F59"/>
</linearGradient>
</defs>
</svg>
