<svg width="640" height="1387" viewBox="0 0 640 1387" fill="none" xmlns="http://www.w3.org/2000/svg">
<g clip-path="url(#clip0_1_48)">
<path d="M18.6376 977.464C25.8716 998.749 37.7695 1027.36 46.1089 1043.53C52.0629 1057.76 57.7649 1072.13 66.1237 1085.19C71.9322 1095.96 80.4267 1104.63 89.1442 1113.05C99.7139 1124.98 110.555 1136.69 123.889 1145.74C141.207 1159.54 162.938 1165.72 181.634 1177.31C191.864 1184.06 200.504 1187.52 209.493 1192.16C229.062 1203.68 247.942 1216.3 266.822 1228.95C274.56 1233.46 283.908 1239.41 292.509 1245.16C287.486 1244.43 283.161 1244.05 281.115 1244.1C271.631 1243.43 261.614 1240.09 249.542 1241.4C242.056 1242.39 234.628 1244.43 227.811 1247.63C226.822 1247.87 225.096 1249.01 226.822 1248.15C226.259 1248.26 225.765 1248.51 225.348 1248.87C223.544 1250.06 223.234 1252.65 224.223 1254.38C224.97 1255.62 226.327 1256.43 227.762 1256.49C228.422 1257.16 235.743 1259.4 238.652 1261.19C251.772 1267.82 266.376 1270.11 280.369 1274.13C294.119 1279.46 303.224 1282.06 315.297 1289.98C321.668 1294.13 330.347 1306.08 334.807 1312.39C340.858 1320.63 346.007 1325.58 351.573 1337.46C356.596 1348.98 365.944 1357.84 376.514 1364.33C386.977 1371.77 393.29 1378.26 407.719 1384.65C421.042 1388.55 435.219 1385.44 448.087 1381.44C452.616 1380 457.813 1378.64 461.896 1377.1C459.859 1377.6 457.813 1378.03 455.767 1378.2C431.748 1382.55 412.858 1385.33 397.139 1370.46C399.05 1372.27 395.452 1368.86 394.667 1368.55C394.056 1368 393.115 1367.14 392.873 1367C392.078 1366.32 391.137 1365.9 390.255 1365.2C392.979 1367.06 382.148 1357.95 384.504 1360.14C376.698 1354.31 368.844 1348.93 365.372 1343.79C359.554 1336.54 356.965 1327.39 351.389 1319.95C341.906 1308.68 337.086 1298.77 323.908 1286.09C312.805 1276.37 298.269 1272.15 284.839 1266.72C276.848 1263.67 268.373 1262.62 260.199 1260.21C251.268 1257.67 246.206 1255.31 239.331 1252.23C249.241 1249.3 260.557 1249.01 270.109 1251.12C284.645 1253.53 301.372 1252.65 314.492 1260.27C318.516 1261.45 321.803 1256.05 318.71 1253.1C310.826 1247.59 303.224 1241.64 295.234 1236.26C269.537 1220.96 245.139 1203.69 219.646 1188.09C210.424 1181.9 204.092 1180.65 195.937 1175.77C185.096 1169.45 174.507 1162.88 162.996 1157.81C145.038 1150.12 127.263 1138.99 115.19 1127.96C104.669 1118.24 95.9417 1106.78 85.4011 1097.13C69.8665 1080.41 60.7806 1055.11 50.8121 1033.37C40.4848 1011.69 31.3697 990.827 24.5624 965.77C14.5939 922.541 9.64854 884.102 8.77582 839.408C8.21339 824.368 9.57083 809.319 11.0545 794.337C13.3623 802.88 13.2267 811.287 15.3309 820.014C21.7115 839.408 33.1635 857.047 45.3623 873.202C66.3368 902.594 99.8884 947.316 125.411 981.295C104.233 943.767 80.0194 907.821 54.8267 872.95C42.8315 857.968 28.0823 839.079 18.7442 819.394C15.9029 812.102 13.6048 798.584 11.0545 794.26C11.549 788.936 12.1115 783.612 12.6158 778.298C13.5467 768.824 18.7442 754.201 21.5466 741.508C25.0569 728.388 30.0798 721.464 34.6568 708.276C40.5913 689.445 43.5685 669.954 48.5237 650.87C54.7879 628.451 51.5005 605.052 51.4229 582.138C56.5623 546.298 79.0594 507.055 103.195 473.746C116.257 449.523 126.594 423.845 135.437 397.847C140.082 374.012 144.369 354.774 157.11 334.992C162.938 325.712 168.262 318.284 174.07 314.017C181.013 309.488 189.808 308.005 198.216 301.004C204.296 296.427 207.942 289.493 210.347 282.298C210.114 296.737 210.424 311.215 211.045 325.644C214.429 304.466 215.728 283.113 215.854 261.75C220.073 242.143 221.993 223.496 231.651 208.204C228.354 229.508 227.316 251.103 228.063 272.466C232.33 250.618 233.881 228.257 233.086 206.041C233.998 204.732 234.996 203.433 235.986 202.201C243.481 190.992 260.073 179.171 270.536 166.041C285.527 147.414 300.199 123.947 312.272 99.5588C312.146 104.882 312.582 110.322 312.514 115.481C312.64 130.153 311.699 144.766 311.767 159.36C311.767 165.12 313.93 168.339 315.675 173.411C319.884 191.428 329.474 207.709 338.444 223.758C344.213 231.845 347.918 241.125 352.882 249.746C358.08 258.104 363.103 266.521 368.097 274.997C380.916 295.554 403.762 314.192 415.282 331.161C431.748 359.884 443.879 391.021 460.849 419.501C470.381 433.367 480.039 447.176 490.57 460.296C498.172 469.828 505.173 475.966 510.555 484.325C519.409 497.998 527.079 512.427 535.854 526.119C539.762 533.847 543.68 541.595 547.888 549.139C546.327 550.516 544.853 551.932 543.302 553.232C531.481 562.337 519.535 574.041 510.468 587.287C503.05 598.487 501.139 608.766 495.37 618.676C482.492 640.281 461.76 661.576 440.524 682.88C464.591 665.29 489.367 645.721 504.407 619.54C509.363 609.319 511.292 600.659 515.733 592.349C524.596 577.135 533.081 566.972 545.571 553.6C546.453 552.553 547.433 551.389 548.431 550.138C550.904 554.521 553.445 558.914 556.238 563.2C572.325 594.337 587.074 626.347 598.575 654.216C609.106 683.675 619.753 711.089 627.375 743.477C631.699 755.433 630.264 765.14 633.309 778.211C631.253 781.624 629.479 785.086 627.549 788.538C618.929 805.44 608.921 830.284 607.864 845.13C605.071 853.983 601.552 862.652 599.253 871.631C596.917 879.68 595.976 888.087 593.862 896.223C587.559 916.15 585.202 931.181 579.743 951.622C577.338 961.891 577.784 967.535 574.313 978.492C570.347 989.75 560.989 1001.97 554.192 1011.26C546.512 1022.46 546.25 1027.83 540.373 1037.68C531.656 1052.92 520.262 1065.54 511.36 1076.01C506.705 1081.4 496.243 1097.75 492.083 1103.06C479.961 1117.73 467.462 1131.3 457.871 1144.53C449.008 1156.31 441.58 1168.93 433.406 1181.12C427.782 1190.59 421.207 1199.46 415.021 1208.48V1208.42C418.861 1198.94 427.346 1183.97 434.104 1172.7C434.221 1172.2 436.141 1169.67 436.868 1168.67C437.004 1168.54 437.12 1168.43 437.188 1168.3L438.051 1167.62C437.925 1167.69 437.857 1167.69 437.741 1167.75C439.476 1166.2 439.719 1163.36 438.051 1161.67C436.81 1160.38 434.696 1160.07 433.106 1160.95C433.028 1161 432.979 1161 432.863 1161.06C432.417 1161.32 431.874 1161.57 431.544 1161.67C428.208 1163.1 425.115 1164.96 423.806 1168.55C423.564 1168.8 423.438 1169.05 423.36 1169.16C423.253 1169.29 423.137 1169.48 423.011 1169.6C421.207 1171.71 420.14 1174.3 418.608 1176.6C409.26 1188.73 396.073 1203.9 393.91 1221.86C392.727 1226.07 392.679 1243.21 391.981 1247.43C390.138 1253.19 387.481 1259.13 384.873 1265.07C385.445 1261.78 385.93 1258.39 386.23 1255.28C386.802 1247.98 387.714 1241.05 387.666 1236.96C386.851 1233.86 383.758 1231.14 380.606 1233C378.609 1234.05 378.424 1236.6 377.871 1238.51C377.135 1241.29 376.01 1243.96 375.04 1246.67C368.087 1264.46 364.431 1283.33 363.559 1302.33C362.899 1299.42 362.327 1296.57 361.406 1293.73C354.211 1261.6 343.389 1230.57 327.787 1201.54C317.13 1182.17 311.864 1164.21 302.4 1142.85C290.453 1114.99 289.086 1080.81 285.004 1051.36C284.577 1043.91 282.841 1037.03 282.958 1029.68C282.958 1026.39 282.163 1035.43 282.221 1036.25C282.356 1067.68 280.844 1099.89 288.97 1130.53C291.869 1141.56 297.202 1151.02 300.237 1159.01C303.205 1168 306.841 1176.73 310.749 1185.26C293.915 1175.54 278.361 1163.64 261.11 1154.62C237.644 1141.67 213.256 1129.97 191.525 1114.26C183.709 1108.13 175.05 1101.88 166.807 1093.16C158.633 1084.09 151.205 1074.07 140.499 1067.83C138.764 1066.64 136.601 1065.6 134.739 1065.04C137.086 1066.14 139.19 1067.76 141.101 1069.51C156.47 1083.3 163.763 1101.88 181.527 1115.49C203.695 1135.37 231.205 1147.69 257.998 1159.82C275.956 1167.62 292.742 1177.83 310.798 1185.4C315.578 1195.79 320.766 1206.07 325.973 1216.28C341.207 1245.2 351.176 1273.62 361.939 1305.75C362.182 1306.68 362.802 1308.34 363.743 1308.59C367.699 1340.03 391.108 1383.32 427.772 1365.35C415.118 1370.18 399.283 1367.77 390.303 1357.12C380.15 1342.83 374.953 1330.3 372.412 1313.42C370.793 1302.2 371.986 1289.94 374.759 1277.38C374.827 1278.04 374.953 1278.74 375.205 1279.42C376.63 1282.45 377.425 1286.29 380.344 1288.08C382.129 1289 384.611 1287.95 385.29 1286.1C385.474 1284 390.982 1266.98 392.155 1265.12C396.005 1257.38 400.204 1249.52 399.845 1240.67C400.136 1229.53 401.949 1218.51 404.849 1211.38C405.838 1208.91 407.088 1206.62 408.378 1204.38C407.942 1205.62 407.447 1206.87 407.205 1208.16C407.205 1208.84 407.341 1209.53 407.641 1210.14C408.01 1210.82 408.873 1213.18 408.136 1211.32C408.272 1211.68 408.32 1212.06 408.378 1212.42C409.047 1216.09 409.804 1222.39 414.817 1220.73C440.398 1186.12 457.348 1155.54 482.793 1127.12C495.932 1113.01 510.235 1091.59 517.091 1082.24C528.107 1070.11 548.538 1044.9 553.687 1029.54C560.262 1013.28 575.855 1001.18 583.021 979.025C585.435 970.55 585.997 963.248 587.18 957.421C589.779 945.416 593.542 933.595 595.423 921.396C596.965 916.199 602.162 899.103 603.956 889.513C606.255 875.763 610.754 862.701 615.224 849.581C618.259 829.198 628.916 802.463 639.806 783.709C641.047 783.215 641.91 782.167 642.201 780.616C642.201 780.499 642.279 780.431 642.279 780.305C642.279 780.121 642.405 779.947 642.405 779.753C642.463 779.617 642.463 779.442 642.463 779.19C642.531 779.122 642.589 779.016 642.589 778.948C643.53 777.018 642.589 774.856 640.921 773.75C640.475 771.142 639.981 768.058 639.68 763.646C638.827 749.779 634.24 736.611 630.836 723.229C624.339 700.509 617.455 680.194 609.532 660.451C605.954 647.321 598.642 633.998 594.744 624.543C582.303 592.96 565.518 563.433 549.304 533.789C539.229 514.288 527.631 495.389 515.743 476.878C507.83 465.998 495.059 453.421 489.639 445.246C476.267 427.414 463.253 409.28 454.148 388.858C441.522 365.818 432.727 340.179 416.96 319.089C406.662 306.221 390.691 291.093 382.962 281.261C374.972 271.108 369.416 259.413 362.211 248.747C349.023 222.749 331.2 198.672 324.383 172.975C319.185 158.614 319.874 158.982 320.795 140.471C321.232 131.559 320.931 120.601 320.795 110.875C348.354 102.885 375.651 90.2014 394.473 68.1117C406.303 50.696 415.03 28.8487 408.155 7.92265C407.476 5.30447 406.061 1.794 405.178 6.44144e-05C406.594 5.314 407.108 10.2885 407.166 15.9225C407.893 28.8 403.578 37.5177 397.498 49.1638C391.428 59.8789 387.287 66.1917 377.455 74.0463C361.532 88.8438 341.915 100.17 320.737 110.39C320.669 102.041 320.737 94.6621 321.668 90.3954C323.782 83.2681 335.593 73.92 343.952 67.1224C351.321 61.0424 363.404 51.0256 376.397 49.7166C382.351 48.7178 398.264 44.393 402.909 43.2875C396.208 43.7821 381.411 47.2439 374.613 47.3021C361.59 47.913 350.575 54.3518 340.315 61.8475C334.866 66.1142 329.164 69.3336 323.472 74.473C323.472 74.473 323.472 74.4729 323.472 74.4245C323.472 74.4245 323.471 74.473 323.394 74.473C321.92 75.85 320.446 77.2655 318.943 79.0013C315.433 82.7831 313.619 87.1759 312.805 91.8887C296.844 117.081 277.954 143.205 263.622 160.844C250.288 176.262 232.882 188.209 222.662 206.226C210.55 225.416 209.067 262.992 201.009 282.754C195.016 298.841 181.013 298.483 166.157 309.237C155.433 319.661 147.762 332.781 141.333 346.153C133.343 361.368 130.725 378.395 127.215 394.996C121.135 413.867 115.132 428.306 107.704 444.587C101.828 460.005 93.4594 473.998 83.1322 486.807C73.9588 501.149 66.3368 516.451 58.4823 531.491C51.5586 546.793 45.4207 562.764 43.0061 579.471C42.1237 604.111 46.4193 627.704 39.9805 649.173C35.2096 667.753 32.2328 686.827 26.5407 705.144C23.1952 715.307 16.6982 726.274 13.1588 739.268C10.56 751.389 6.09924 763.161 4.315 775.486C2.26894 795.171 0.0873423 814.982 6.96166e-05 834.783C0.853403 882.977 6.49701 930.899 18.6376 977.464Z" fill="url(#paint0_linear_1_48)"/>
<path d="M433.056 1160.82C433.609 1160.52 433.88 1160.4 432.823 1160.97C432.881 1160.89 432.94 1160.89 433.056 1160.82Z" fill="url(#paint1_linear_1_48)"/>
<path d="M433.804 1160.52C433.804 1160.52 433.31 1160.73 433.058 1160.82C433.31 1160.73 433.552 1160.58 433.804 1160.52Z" fill="url(#paint2_linear_1_48)"/>
<path d="M433.008 1160.89C433.008 1160.89 433.057 1160.89 433.057 1160.82C433.009 1160.89 432.94 1160.89 432.824 1160.97C432.882 1160.89 432.94 1160.89 433.008 1160.89Z" fill="url(#paint3_linear_1_48)"/>
<path d="M230.846 763.122C231.961 787.268 233.959 811.413 240.213 834.822C255.195 895.573 268.431 956.664 284.906 1016.96C277.478 946.764 258.521 878.603 243.733 809.745C240.756 795.016 240.64 779.549 238.235 762.201C235.762 742.71 229.915 723.568 230.128 703.767C230.128 699.19 230.128 694.177 230.128 689.774C229.508 694.487 228.809 699.132 228.198 703.835C225.551 723.626 229.449 743.389 230.846 763.122Z" fill="url(#paint4_linear_1_48)"/>
<path d="M219.598 485.76C223.554 537.716 228.316 579.695 228.131 633.425C231.166 606.012 232.165 578.327 232.349 550.72C230.352 531.413 229.188 512.019 228.015 492.655C226.153 465.852 231.244 439.156 231.292 412.363C232.98 377.309 229.023 341.595 238.177 310.39C245.673 286.419 250.745 261.847 257.048 237.566C263.118 218.269 272.718 202.172 280.514 181.799C283.666 172.752 286.72 162.298 289.358 153.939C285.227 162.424 281.513 171.093 277.421 179.617C268.703 196.771 257.862 212.877 250.745 230.759C254.769 214.846 258.211 198.807 260.345 182.536C249.862 210.143 242.124 238.749 240.524 268.344C240.883 266.909 241.319 265.571 241.687 264.136C240.524 269.333 239.341 274.473 237.857 279.554C233.591 296.213 227.52 312.494 225.106 329.581C222.759 353.037 223.603 376.64 222.885 400.155C223.554 428.742 218.919 457.163 219.598 485.76Z" fill="url(#paint5_linear_1_48)"/>
<path d="M183.99 440.805C190.186 403.433 195.393 363.859 187.723 326.604C187.568 364.684 182.952 402.686 183.99 440.805Z" fill="url(#paint6_linear_1_48)"/>
<path d="M205.178 614.225C198.672 584.698 189.217 552.446 177.561 526.196C183.069 556.528 191.874 586.23 205.178 614.225Z" fill="url(#paint7_linear_1_48)"/>
<path d="M140.102 522.056C138.424 500.684 133.226 479.505 129.086 458.783C128.155 480.32 133.411 501.741 140.102 522.056Z" fill="url(#paint8_linear_1_48)"/>
<path d="M291.539 445.712C298.967 431.777 309.129 419.588 317.604 406.274C329.57 388.509 340.014 372.722 353.279 357.013C356.169 352.853 360.707 346.667 362.239 343.379C360.445 345.862 358.341 348.082 356.295 350.38C340.334 366.342 324.984 382.827 311.718 401.212C301.323 415.447 289.997 429.197 282.123 445.101C263.418 482.104 253.158 522.725 238.244 561.348C259.723 523.161 273.008 482.25 291.539 445.712Z" fill="url(#paint9_linear_1_48)"/>
<path d="M341.013 274.599C317.672 302.953 296.416 333.46 275.384 366.672C302.06 339.666 323.723 308.15 341.013 274.599Z" fill="url(#paint10_linear_1_48)"/>
<path d="M281.938 265.862C270.166 280.611 259.597 296.572 247.893 311.292C261.682 299.355 274.947 279.544 281.938 265.862Z" fill="url(#paint11_linear_1_48)"/>
<path d="M465.26 581.304C454.661 589.207 443.713 597.207 436.518 608.543C420.867 632.01 415.039 660.373 403.636 685.925C428.295 650.269 433.056 610.832 465.26 581.304Z" fill="url(#paint12_linear_1_48)"/>
<path d="M395.975 724.994C379.762 744.184 366.215 766.351 350.545 787.016C370.094 770.065 383.961 747.597 395.975 724.994Z" fill="url(#paint13_linear_1_48)"/>
<path d="M324.15 896.058C309.178 916.858 297.842 940.509 288.863 963.345C303.36 942.477 314.569 919.379 324.15 896.058Z" fill="url(#paint14_linear_1_48)"/>
<path d="M408.901 775.447C380.382 795.064 359.204 824.097 338.889 852.228C364.721 829.372 386.191 800.155 408.901 775.447Z" fill="url(#paint15_linear_1_48)"/>
<path d="M58.7533 736.262C74.4817 770.977 94.6515 803.306 115.771 834.938C100.489 800.717 83.5193 767.098 65.3084 734.332C55.2332 719.243 45.381 704.494 42.4817 687.777C42.472 705.125 50.5205 721.28 58.7533 736.262Z" fill="url(#paint16_linear_1_48)"/>
<path d="M43.52 916.848C39.2049 891.151 29.1106 866.948 16.8439 844.092C23.6027 869.178 34.2303 893.45 43.52 916.848Z" fill="url(#paint17_linear_1_48)"/>
<path d="M307.568 1216.49C280.514 1200.63 253.013 1182.99 223.554 1172.77C251.365 1190.06 273.9 1205.4 307.568 1216.49Z" fill="url(#paint18_linear_1_48)"/>
<path d="M293.081 1152.79C291.907 1151.79 290.55 1150.81 289.241 1150.06C290.424 1151.12 291.723 1151.99 293.081 1152.79Z" fill="url(#paint19_linear_1_48)"/>
<path d="M391.893 1186.82C397.779 1179.35 402.657 1172.47 410.279 1166.16C384.766 1183.37 367.496 1210.23 348.916 1234.21C364.335 1219.45 378.706 1203.62 391.893 1186.82Z" fill="url(#paint20_linear_1_48)"/>
<path d="M408.165 1161.94C382.487 1177.31 360.437 1197.37 339.026 1218.06C364.16 1202.24 386.444 1182.13 408.165 1161.94Z" fill="url(#paint21_linear_1_48)"/>
<path d="M528.659 971.258C548.839 950.283 567.719 927.243 581.944 901.74C567.03 920.679 549.062 937.028 533.479 955.471C517.45 973.983 499.054 991.311 482.521 1008.66C498.007 996.771 514.977 985.687 528.659 971.258Z" fill="url(#paint22_linear_1_48)"/>
<path d="M488.484 921.299C515.403 907.423 539.48 889.047 561.279 868.189C584.135 846.206 605.061 819.209 613.594 788.373C599.175 820.266 573.304 845.343 547.965 869.042C532.121 884.412 514.549 900.693 499.248 911.767C493.691 915.985 486.932 921.183 481.851 924.713C484.062 923.597 486.293 922.492 488.484 921.299Z" fill="url(#paint23_linear_1_48)"/>
<path d="M149.256 408.446C156.819 434.56 166.235 460.325 172.412 486.875C170.87 459.578 164.8 432.718 156.451 406.701C155.152 400.398 155.219 388.005 153.91 378.541C153.619 368.756 154.579 363.19 156.267 354.395C157.004 350.681 157.818 346.415 158.07 342.933C157.624 344.562 157.13 346.162 156.567 347.762C153.299 356.819 149.837 365.838 148.897 375.438C148.596 386.356 147.898 397.488 149.256 408.446Z" fill="url(#paint24_linear_1_48)"/>
<path d="M169.571 442.56C175.341 464.213 188.587 482.792 199.234 502.235C192.107 484.276 184.31 469.605 178.618 452.402C175.214 439.205 171.307 421.314 169.765 411.093C167.35 388.577 164.199 365.023 168.785 344.291C168.902 341.682 169.522 339.403 170.153 336.921C170.153 336.805 170.075 336.426 170.075 336.727C169.775 338.288 168.717 339.578 168.339 341.13C156.771 373.469 160.349 409.997 169.571 442.56Z" fill="url(#paint25_linear_1_48)"/>
<path d="M198.293 354.143C198.914 390.487 209.445 421.508 210.812 456.223C213.711 420.635 205.74 378.54 203.491 349.265C201.27 333.663 198.177 319.864 201.095 303.864C201.163 303.273 201.338 302.827 201.27 302.507C199.476 307.714 198.051 313.096 197.304 318.526C195.898 330.376 197.498 342.322 198.293 354.143Z" fill="url(#paint26_linear_1_48)"/>
<path d="M285.711 240.854C294.749 220.422 301.004 199.011 305.648 177.203C295.854 199.069 286.962 221.363 280.873 244.509C279.447 249.397 277.973 256.951 275.316 259.86C280.873 255.079 282.56 247.225 285.711 240.854Z" fill="url(#paint27_linear_1_48)"/>
<path d="M301.314 292.422C315.694 272.301 326.38 249.707 341.614 230.206C320.766 248.708 305.522 272.98 291.975 297.125C287.078 307.278 279.651 316.878 277.983 328.136C283.306 314.958 294.128 304.679 301.314 292.422Z" fill="url(#paint28_linear_1_48)"/>
<path d="M293.023 394.385C303.787 377.241 309.042 355.82 320.136 341.265C305.28 355.452 298.521 375.438 286.342 391.661C261.14 421.45 247.893 458.337 228.325 491.578C252.907 461.197 270.187 425.891 293.023 394.385Z" fill="url(#paint29_linear_1_48)"/>
<path d="M410.22 1140.59C425.58 1130.37 440.426 1119.17 451.442 1104.18C459.063 1095.26 465.56 1085.6 471.388 1075.52C474.908 1070.39 480.494 1064.8 485.875 1059.67C487.728 1057.87 490.705 1055.4 491.936 1054.21C488.038 1056.7 484.072 1059.23 480.416 1062.09C472.62 1067.65 466.181 1074.65 460.915 1082.71C457.454 1087.4 447.98 1097.69 442.22 1103.99C413.992 1132.65 380.683 1153.09 347.383 1178.16C369.046 1166.89 390.031 1154.28 410.22 1140.59Z" fill="url(#paint30_linear_1_48)"/>
<path d="M489.222 1086.36C499.666 1073.55 510.138 1062.28 524.18 1054.42C524.81 1054.04 525.246 1053.92 525.683 1053.62C521.949 1054.73 518.487 1056.4 514.977 1058.01C501.712 1064.32 491.317 1074.97 481.038 1085.19C460.238 1105.11 441.232 1126.8 420.79 1147.09C445.944 1129.75 468.907 1109.15 489.222 1086.36Z" fill="url(#paint31_linear_1_48)"/>
<path d="M40.6209 746.172C43.1421 769.251 49.5323 791.738 57.959 813.343C54.1772 790.681 50.2694 767.951 44.7615 745.677C42.793 737.134 40.8631 728.717 42.2304 720.475C39.0013 728.572 39.6899 737.687 40.6209 746.172Z" fill="url(#paint32_linear_1_48)"/>
</g>
<defs>
<linearGradient id="paint0_linear_1_48" x1="294.508" y1="6.53409e-05" x2="-21.429" y2="73.7891" gradientUnits="userSpaceOnUse">
<stop stop-color="#0B9B8A"/>
<stop offset="1" stop-color="#08DEC5"/>
</linearGradient>
<linearGradient id="paint1_linear_1_48" x1="433.153" y1="1160.57" x2="432.948" y2="1160.76" gradientUnits="userSpaceOnUse">
<stop stop-color="#0B9B8A"/>
<stop offset="1" stop-color="#08DEC5"/>
</linearGradient>
<linearGradient id="paint2_linear_1_48" x1="433.4" y1="1160.52" x2="433.249" y2="1160.71" gradientUnits="userSpaceOnUse">
<stop stop-color="#0B9B8A"/>
<stop offset="1" stop-color="#08DEC5"/>
</linearGradient>
<linearGradient id="paint3_linear_1_48" x1="432.931" y1="1160.82" x2="432.857" y2="1160.88" gradientUnits="userSpaceOnUse">
<stop stop-color="#0B9B8A"/>
<stop offset="1" stop-color="#08DEC5"/>
</linearGradient>
<linearGradient id="paint4_linear_1_48" x1="253.685" y1="689.774" x2="224.067" y2="692.401" gradientUnits="userSpaceOnUse">
<stop stop-color="#0B9B8A"/>
<stop offset="1" stop-color="#08DEC5"/>
</linearGradient>
<linearGradient id="paint5_linear_1_48" x1="251.514" y1="153.939" x2="215.524" y2="156.579" gradientUnits="userSpaceOnUse">
<stop stop-color="#0B9B8A"/>
<stop offset="1" stop-color="#08DEC5"/>
</linearGradient>
<linearGradient id="paint6_linear_1_48" x1="187.373" y1="326.604" x2="183.379" y2="326.739" gradientUnits="userSpaceOnUse">
<stop stop-color="#0B9B8A"/>
<stop offset="1" stop-color="#08DEC5"/>
</linearGradient>
<linearGradient id="paint7_linear_1_48" x1="190.211" y1="526.196" x2="176.249" y2="528.402" gradientUnits="userSpaceOnUse">
<stop stop-color="#0B9B8A"/>
<stop offset="1" stop-color="#08DEC5"/>
</linearGradient>
<linearGradient id="paint8_linear_1_48" x1="134.073" y1="458.783" x2="128.354" y2="459.289" gradientUnits="userSpaceOnUse">
<stop stop-color="#0B9B8A"/>
<stop offset="1" stop-color="#08DEC5"/>
</linearGradient>
<linearGradient id="paint9_linear_1_48" x1="295.04" y1="343.379" x2="235.662" y2="360.391" gradientUnits="userSpaceOnUse">
<stop stop-color="#0B9B8A"/>
<stop offset="1" stop-color="#08DEC5"/>
</linearGradient>
<linearGradient id="paint10_linear_1_48" x1="305.445" y1="274.599" x2="275.319" y2="285.413" gradientUnits="userSpaceOnUse">
<stop stop-color="#0B9B8A"/>
<stop offset="1" stop-color="#08DEC5"/>
</linearGradient>
<linearGradient id="paint11_linear_1_48" x1="263.487" y1="265.862" x2="248.045" y2="271.69" gradientUnits="userSpaceOnUse">
<stop stop-color="#0B9B8A"/>
<stop offset="1" stop-color="#08DEC5"/>
</linearGradient>
<linearGradient id="paint12_linear_1_48" x1="431.862" y1="581.304" x2="402.513" y2="590.011" gradientUnits="userSpaceOnUse">
<stop stop-color="#0B9B8A"/>
<stop offset="1" stop-color="#08DEC5"/>
</linearGradient>
<linearGradient id="paint13_linear_1_48" x1="371.354" y1="724.994" x2="350.633" y2="732.638" gradientUnits="userSpaceOnUse">
<stop stop-color="#0B9B8A"/>
<stop offset="1" stop-color="#08DEC5"/>
</linearGradient>
<linearGradient id="paint14_linear_1_48" x1="305.026" y1="896.058" x2="287.933" y2="900.572" gradientUnits="userSpaceOnUse">
<stop stop-color="#0B9B8A"/>
<stop offset="1" stop-color="#08DEC5"/>
</linearGradient>
<linearGradient id="paint15_linear_1_48" x1="370.958" y1="775.447" x2="340.997" y2="789.206" gradientUnits="userSpaceOnUse">
<stop stop-color="#0B9B8A"/>
<stop offset="1" stop-color="#08DEC5"/>
</linearGradient>
<linearGradient id="paint16_linear_1_48" x1="76.0519" y1="687.777" x2="40.3223" y2="696.738" gradientUnits="userSpaceOnUse">
<stop stop-color="#0B9B8A"/>
<stop offset="1" stop-color="#08DEC5"/>
</linearGradient>
<linearGradient id="paint17_linear_1_48" x1="29.0628" y1="844.092" x2="15.6956" y2="846.56" gradientUnits="userSpaceOnUse">
<stop stop-color="#0B9B8A"/>
<stop offset="1" stop-color="#08DEC5"/>
</linearGradient>
<linearGradient id="paint18_linear_1_48" x1="262.036" y1="1172.77" x2="239.555" y2="1194.53" gradientUnits="userSpaceOnUse">
<stop stop-color="#0B9B8A"/>
<stop offset="1" stop-color="#08DEC5"/>
</linearGradient>
<linearGradient id="paint19_linear_1_48" x1="290.999" y1="1150.06" x2="289.676" y2="1151" gradientUnits="userSpaceOnUse">
<stop stop-color="#0B9B8A"/>
<stop offset="1" stop-color="#08DEC5"/>
</linearGradient>
<linearGradient id="paint20_linear_1_48" x1="377.023" y1="1166.16" x2="350.662" y2="1178.13" gradientUnits="userSpaceOnUse">
<stop stop-color="#0B9B8A"/>
<stop offset="1" stop-color="#08DEC5"/>
</linearGradient>
<linearGradient id="paint21_linear_1_48" x1="370.695" y1="1161.94" x2="344.828" y2="1177.99" gradientUnits="userSpaceOnUse">
<stop stop-color="#0B9B8A"/>
<stop offset="1" stop-color="#08DEC5"/>
</linearGradient>
<linearGradient id="paint22_linear_1_48" x1="528.062" y1="901.74" x2="485.809" y2="921.528" gradientUnits="userSpaceOnUse">
<stop stop-color="#0B9B8A"/>
<stop offset="1" stop-color="#08DEC5"/>
</linearGradient>
<linearGradient id="paint23_linear_1_48" x1="542.196" y1="788.373" x2="487.001" y2="815.234" gradientUnits="userSpaceOnUse">
<stop stop-color="#0B9B8A"/>
<stop offset="1" stop-color="#08DEC5"/>
</linearGradient>
<linearGradient id="paint24_linear_1_48" x1="159.425" y1="342.933" x2="147.094" y2="343.967" gradientUnits="userSpaceOnUse">
<stop stop-color="#0B9B8A"/>
<stop offset="1" stop-color="#08DEC5"/>
</linearGradient>
<linearGradient id="paint25_linear_1_48" x1="178.543" y1="336.614" x2="159.024" y2="338.88" gradientUnits="userSpaceOnUse">
<stop stop-color="#0B9B8A"/>
<stop offset="1" stop-color="#08DEC5"/>
</linearGradient>
<linearGradient id="paint26_linear_1_48" x1="203.476" y1="302.507" x2="195.88" y2="302.872" gradientUnits="userSpaceOnUse">
<stop stop-color="#0B9B8A"/>
<stop offset="1" stop-color="#08DEC5"/>
</linearGradient>
<linearGradient id="paint27_linear_1_48" x1="289.21" y1="177.203" x2="274.012" y2="180.012" gradientUnits="userSpaceOnUse">
<stop stop-color="#0B9B8A"/>
<stop offset="1" stop-color="#08DEC5"/>
</linearGradient>
<linearGradient id="paint28_linear_1_48" x1="307.129" y1="230.206" x2="277.346" y2="239.952" gradientUnits="userSpaceOnUse">
<stop stop-color="#0B9B8A"/>
<stop offset="1" stop-color="#08DEC5"/>
</linearGradient>
<linearGradient id="paint29_linear_1_48" x1="270.379" y1="341.265" x2="226.917" y2="354.635" gradientUnits="userSpaceOnUse">
<stop stop-color="#0B9B8A"/>
<stop offset="1" stop-color="#08DEC5"/>
</linearGradient>
<linearGradient id="paint30_linear_1_48" x1="413.595" y1="1054.21" x2="357.901" y2="1086.92" gradientUnits="userSpaceOnUse">
<stop stop-color="#0B9B8A"/>
<stop offset="1" stop-color="#08DEC5"/>
</linearGradient>
<linearGradient id="paint31_linear_1_48" x1="468.836" y1="1053.62" x2="427.641" y2="1076.91" gradientUnits="userSpaceOnUse">
<stop stop-color="#0B9B8A"/>
<stop offset="1" stop-color="#08DEC5"/>
</linearGradient>
<linearGradient id="paint32_linear_1_48" x1="48.1425" y1="720.475" x2="38.8464" y2="721.388" gradientUnits="userSpaceOnUse">
<stop stop-color="#0B9B8A"/>
<stop offset="1" stop-color="#08DEC5"/>
</linearGradient>
<clipPath id="clip0_1_48">
<rect width="640" height="1386.67" fill="white"/>
</clipPath>
</defs>
</svg>
