<svg width="641" height="2897" viewBox="0 0 641 2897" fill="none" xmlns="http://www.w3.org/2000/svg">
<g clip-path="url(#clip0_1_506)">
<path d="M96.8896 2889.59C95.9936 2889.59 95.1136 2889.43 94.2336 2889.11C90.4256 2887.64 88.5214 2883.36 89.9774 2879.54C212.234 2561.33 227.514 2211.86 226.346 1911.94C226.01 1830.26 224.41 1747.09 222.858 1666.68C218.17 1423.38 213.322 1171.78 243.002 926.148C288.97 545.78 413.066 242.356 611.866 24.276C614.618 21.252 619.306 21.028 622.298 23.796C625.322 26.548 625.53 31.2198 622.778 34.2278C426.106 249.988 303.258 550.676 257.674 927.924C228.138 1172.53 232.97 1423.59 237.642 1666.39C239.194 1746.87 240.794 1830.08 241.13 1911.88C242.314 2213.16 226.906 2564.34 103.786 2884.84C102.65 2887.78 99.8496 2889.59 96.8896 2889.59Z" fill="url(#paint0_linear_1_506)"/>
<path d="M398.554 375.284C395.258 375.284 392.234 373.044 391.402 369.7C360.922 249.78 369.482 120.468 415.482 5.55598C417.002 1.76398 421.274 -0.0760731 425.082 1.44393C428.858 2.96393 430.714 7.2679 429.194 11.0599C384.346 123.076 376.01 249.156 405.722 366.068C406.73 370.02 404.33 374.052 400.378 375.06C399.786 375.204 399.146 375.284 398.554 375.284Z" fill="url(#paint1_linear_1_506)"/>
<path d="M341.945 521.172C338.809 521.172 335.881 519.156 334.889 516.004C299.673 403.844 277.881 287.668 270.169 170.644C269.881 166.564 272.985 163.044 277.065 162.788C280.953 162.388 284.649 165.588 284.921 169.684C292.585 285.508 314.121 400.548 349.001 511.572C350.217 515.46 348.041 519.62 344.153 520.836C343.433 521.076 342.681 521.172 341.945 521.172Z" fill="url(#paint2_linear_1_506)"/>
<path d="M297.049 655.796C294.729 655.796 292.473 654.74 291.017 652.708C234.473 573.556 203.097 476.42 202.681 379.204C202.649 375.124 205.945 371.796 210.041 371.78H210.073C214.137 371.78 217.449 375.076 217.465 379.14C217.865 473.316 248.281 567.428 303.065 644.116C305.433 647.444 304.681 652.052 301.353 654.436C300.025 655.348 298.521 655.796 297.049 655.796Z" fill="url(#paint3_linear_1_506)"/>
<path d="M263.946 813.076C261.674 813.076 259.466 812.052 258.01 810.1C200.346 732.388 158.345 645.828 133.209 552.836C132.137 548.9 134.473 544.836 138.409 543.78C142.345 542.692 146.393 545.028 147.465 548.98C171.77 638.9 214.106 726.148 269.866 801.284C272.282 804.564 271.61 809.188 268.33 811.636C267.034 812.596 265.482 813.076 263.946 813.076Z" fill="url(#paint4_linear_1_506)"/>
<path d="M243.13 1001.04C240.682 1001.04 238.266 999.828 236.858 997.588C178.25 904.244 142.97 818.788 132.01 743.604C131.418 739.572 134.218 735.812 138.266 735.236C142.346 734.564 146.058 737.444 146.634 741.492C157.29 814.628 191.866 898.148 249.37 989.732C251.546 993.204 250.506 997.764 247.05 999.94C245.818 1000.68 244.458 1001.04 243.13 1001.04Z" fill="url(#paint5_linear_1_506)"/>
<path d="M229.162 1169.72C226.25 1169.72 223.498 1168 222.33 1165.14C186.538 1078.05 123.578 1006.29 45.0815 963.108C41.4975 961.14 40.1857 956.644 42.1537 953.06C44.1057 949.46 48.5855 948.18 52.2015 950.132C133.642 994.964 198.922 1069.32 235.994 1159.51C237.546 1163.28 235.738 1167.6 231.962 1169.17C231.066 1169.54 230.106 1169.72 229.162 1169.72Z" fill="url(#paint6_linear_1_506)"/>
<path d="M222.65 1319.59C219.658 1319.59 216.858 1317.78 215.738 1314.82C186.586 1238.28 121.594 1169.83 41.8818 1131.75C38.2018 1129.99 36.6338 1125.57 38.3938 1121.89C40.1538 1118.21 44.5539 1116.68 48.2499 1118.4C131.29 1158.08 199.082 1229.56 229.546 1309.57C231.002 1313.38 229.082 1317.65 225.258 1319.11C224.426 1319.43 223.53 1319.59 222.65 1319.59Z" fill="url(#paint7_linear_1_506)"/>
<path d="M222.65 1488.9C219.738 1488.9 216.986 1487.17 215.802 1484.32C175.466 1386.44 113.738 1306.92 37.2898 1254.42C33.9298 1252.1 33.0658 1247.51 35.3858 1244.13C37.7058 1240.77 42.3138 1239.92 45.6738 1242.23C124.49 1296.37 188.042 1378.13 229.482 1478.69C231.05 1482.45 229.242 1486.79 225.466 1488.34C224.538 1488.72 223.594 1488.9 222.65 1488.9Z" fill="url(#paint8_linear_1_506)"/>
<path d="M231.21 1725.06C228.058 1725.06 225.114 1723.01 224.154 1719.84C188.202 1602.55 110.506 1485.99 11.0176 1400C7.94561 1397.33 7.59365 1392.66 10.2657 1389.59C12.9377 1386.47 17.6097 1386.16 20.6817 1388.82C122.234 1476.56 201.546 1595.65 238.298 1715.51C239.482 1719.41 237.29 1723.56 233.386 1724.74C232.666 1724.96 231.93 1725.06 231.21 1725.06Z" fill="url(#paint9_linear_1_506)"/>
<path d="M333.978 543.812C333.242 543.812 332.49 543.7 331.754 543.476C327.866 542.26 325.69 538.1 326.906 534.212C363.482 417.62 461.274 316.9 582.122 271.348C585.93 269.892 590.202 271.828 591.642 275.668C593.098 279.476 591.162 283.748 587.338 285.188C470.634 329.172 376.266 426.292 341.002 538.644C340.042 541.812 337.13 543.812 333.978 543.812Z" fill="url(#paint10_linear_1_506)"/>
<path d="M287.37 716.036C286.17 716.036 284.938 715.748 283.786 715.108C280.218 713.124 278.922 708.628 280.906 705.06C339.658 599.012 445.226 519.156 563.274 491.428C567.21 490.468 571.226 492.948 572.17 496.932C573.114 500.9 570.634 504.884 566.65 505.828C452.602 532.628 350.618 609.796 293.85 712.228C292.49 714.66 289.978 716.036 287.37 716.036Z" fill="url(#paint11_linear_1_506)"/>
<path d="M252.713 936.18C251.641 936.18 250.537 935.94 249.497 935.444C245.833 933.668 244.297 929.236 246.073 925.572C308.697 796.372 422.601 695.764 558.553 649.54C562.425 648.244 566.617 650.308 567.929 654.164C569.241 658.02 567.177 662.228 563.321 663.54C431.065 708.5 320.297 806.356 259.385 932.004C258.105 934.644 255.465 936.18 252.713 936.18Z" fill="url(#paint12_linear_1_506)"/>
<path d="M235.433 1096.05C234.585 1096.05 233.737 1095.91 232.889 1095.6C229.065 1094.2 227.097 1089.96 228.489 1086.12C265.161 986.164 367.817 891.972 490.041 846.164C493.833 844.708 498.121 846.676 499.561 850.484C501.001 854.308 499.049 858.564 495.225 860.004C376.873 904.356 277.625 995.108 242.361 1091.2C241.273 1094.21 238.441 1096.05 235.433 1096.05Z" fill="url(#paint13_linear_1_506)"/>
<path d="M231.865 1272.23C230.809 1272.23 229.737 1272 228.729 1271.52C225.017 1269.8 223.449 1265.38 225.177 1261.7C272.153 1161.81 344.985 1075.65 435.849 1012.53C439.225 1010.2 443.817 1011.06 446.153 1014.39C448.473 1017.75 447.657 1022.34 444.297 1024.69C355.577 1086.32 284.441 1170.45 238.569 1267.99C237.305 1270.66 234.649 1272.23 231.865 1272.23Z" fill="url(#paint14_linear_1_506)"/>
<path d="M226.697 1401.78C225.785 1401.78 224.857 1401.6 223.945 1401.25C220.169 1399.73 218.313 1395.44 219.833 1391.64C257.129 1298.44 349.497 1211.38 455.161 1169.89C458.953 1168.36 463.241 1170.26 464.745 1174.07C466.249 1177.86 464.377 1182.16 460.569 1183.65C358.521 1223.75 269.417 1307.54 233.561 1397.16C232.425 1400.04 229.641 1401.78 226.697 1401.78Z" fill="url(#paint15_linear_1_506)"/>
<path d="M229.161 1544.93C227.849 1544.93 226.521 1544.58 225.337 1543.86C221.833 1541.75 220.729 1537.2 222.857 1533.7C273.161 1450.85 365.033 1393.86 415.305 1367.25C418.953 1365.3 423.401 1366.72 425.305 1370.32C427.209 1373.94 425.833 1378.4 422.233 1380.31C338.953 1424.37 270.889 1483.08 235.497 1541.38C234.105 1543.67 231.673 1544.93 229.161 1544.93Z" fill="url(#paint16_linear_1_506)"/>
<path d="M231.866 1717.28C231.13 1717.28 230.378 1717.17 229.642 1716.95C225.754 1715.73 223.578 1711.57 224.81 1707.68C253.034 1618.26 332.73 1541.33 427.866 1511.7C431.738 1510.55 435.898 1512.69 437.114 1516.56C438.33 1520.47 436.138 1524.61 432.25 1525.83C341.594 1554.07 265.706 1627.19 238.89 1712.12C237.93 1715.27 235.018 1717.28 231.866 1717.28Z" fill="url(#paint17_linear_1_506)"/>
</g>
<defs>
<linearGradient id="paint0_linear_1_506" x1="379.553" y1="2889.59" x2="654.467" y2="2863.75" gradientUnits="userSpaceOnUse">
<stop stop-color="#D02964"/>
<stop offset="1" stop-color="#FC8F59"/>
</linearGradient>
<linearGradient id="paint1_linear_1_506" x1="403.952" y1="375.284" x2="432.942" y2="373.089" gradientUnits="userSpaceOnUse">
<stop stop-color="#D02964"/>
<stop offset="1" stop-color="#FC8F59"/>
</linearGradient>
<linearGradient id="paint2_linear_1_506" x1="313.067" y1="521.172" x2="353.599" y2="516.662" gradientUnits="userSpaceOnUse">
<stop stop-color="#D02964"/>
<stop offset="1" stop-color="#FC8F59"/>
</linearGradient>
<linearGradient id="paint3_linear_1_506" x1="257.832" y1="655.796" x2="308.901" y2="646.58" gradientUnits="userSpaceOnUse">
<stop stop-color="#D02964"/>
<stop offset="1" stop-color="#FC8F59"/>
</linearGradient>
<linearGradient id="paint4_linear_1_506" x1="207.936" y1="813.076" x2="275.142" y2="795.703" gradientUnits="userSpaceOnUse">
<stop stop-color="#D02964"/>
<stop offset="1" stop-color="#FC8F59"/>
</linearGradient>
<linearGradient id="paint5_linear_1_506" x1="196.193" y1="1001.04" x2="254.687" y2="987.907" gradientUnits="userSpaceOnUse">
<stop stop-color="#D02964"/>
<stop offset="1" stop-color="#FC8F59"/>
</linearGradient>
<linearGradient id="paint6_linear_1_506" x1="147.088" y1="1169.72" x2="231.496" y2="1132.06" gradientUnits="userSpaceOnUse">
<stop stop-color="#D02964"/>
<stop offset="1" stop-color="#FC8F59"/>
</linearGradient>
<linearGradient id="paint7_linear_1_506" x1="141.922" y1="1319.59" x2="222.944" y2="1280.71" gradientUnits="userSpaceOnUse">
<stop stop-color="#D02964"/>
<stop offset="1" stop-color="#FC8F59"/>
</linearGradient>
<linearGradient id="paint8_linear_1_506" x1="140.286" y1="1488.9" x2="227.945" y2="1454.01" gradientUnits="userSpaceOnUse">
<stop stop-color="#D02964"/>
<stop offset="1" stop-color="#FC8F59"/>
</linearGradient>
<linearGradient id="paint9_linear_1_506" x1="133.198" y1="1725.06" x2="239.912" y2="1688.47" gradientUnits="userSpaceOnUse">
<stop stop-color="#D02964"/>
<stop offset="1" stop-color="#FC8F59"/>
</linearGradient>
<linearGradient id="paint10_linear_1_506" x1="470.488" y1="543.812" x2="581.454" y2="489.44" gradientUnits="userSpaceOnUse">
<stop stop-color="#D02964"/>
<stop offset="1" stop-color="#FC8F59"/>
</linearGradient>
<linearGradient id="paint11_linear_1_506" x1="438.439" y1="716.036" x2="544.463" y2="646.588" gradientUnits="userSpaceOnUse">
<stop stop-color="#D02964"/>
<stop offset="1" stop-color="#FC8F59"/>
</linearGradient>
<linearGradient id="paint12_linear_1_506" x1="420.379" y1="936.18" x2="547.059" y2="864.387" gradientUnits="userSpaceOnUse">
<stop stop-color="#D02964"/>
<stop offset="1" stop-color="#FC8F59"/>
</linearGradient>
<linearGradient id="paint13_linear_1_506" x1="375.45" y1="1096.05" x2="483.921" y2="1036.7" gradientUnits="userSpaceOnUse">
<stop stop-color="#D02964"/>
<stop offset="1" stop-color="#FC8F59"/>
</linearGradient>
<linearGradient id="paint14_linear_1_506" x1="345.329" y1="1272.23" x2="442.831" y2="1230.28" gradientUnits="userSpaceOnUse">
<stop stop-color="#D02964"/>
<stop offset="1" stop-color="#FC8F59"/>
</linearGradient>
<linearGradient id="paint15_linear_1_506" x1="352.602" y1="1401.78" x2="451.861" y2="1348.88" gradientUnits="userSpaceOnUse">
<stop stop-color="#D02964"/>
<stop offset="1" stop-color="#FC8F59"/>
</linearGradient>
<linearGradient id="paint16_linear_1_506" x1="332.543" y1="1544.93" x2="412.035" y2="1499.11" gradientUnits="userSpaceOnUse">
<stop stop-color="#D02964"/>
<stop offset="1" stop-color="#FC8F59"/>
</linearGradient>
<linearGradient id="paint17_linear_1_506" x1="339.892" y1="1717.28" x2="426.697" y2="1672.06" gradientUnits="userSpaceOnUse">
<stop stop-color="#D02964"/>
<stop offset="1" stop-color="#FC8F59"/>
</linearGradient>
<clipPath id="clip0_1_506">
<rect width="640" height="2896" fill="white" transform="translate(0.121582 0.131836)"/>
</clipPath>
</defs>
</svg>
