<svg width="640" height="974" viewBox="0 0 640 974" fill="none" xmlns="http://www.w3.org/2000/svg">
<g clip-path="url(#clip0_1_541)">
<path d="M504.72 825.434C501.68 825.434 498.673 825.347 495.713 825.201C484.673 824.634 472.967 823.521 462.22 819.274C456.2 816.894 450.64 813.581 445.253 810.381C440.013 807.267 435.06 804.321 429.687 802.134C424.593 800.061 418.707 798.874 413.507 798.874C407.84 798.874 403.507 800.214 401.3 802.647L392.9 811.907L395.967 799.794C404.76 765.021 423.887 732.241 449.84 707.487C464.607 693.407 477.94 686.794 491.333 687.527C493.22 687.621 495.12 687.867 497.013 688.107C501.2 688.654 505.167 688.974 508.073 688.047C514.6 685.961 517.66 678.867 520.9 671.361C522.38 667.934 523.907 664.401 525.82 661.221C535.107 645.821 552.66 640.574 569.64 635.507C576.107 633.574 582.793 631.574 588.807 629.047C608.02 620.987 623.713 605.334 631.867 586.121L638.687 570.034L637.847 587.487C636.233 620.987 634.407 658.961 615.573 690.367C614.853 691.567 614.107 692.754 613.36 693.954C610.347 698.781 607.493 703.334 606.273 708.414C605.313 712.407 605.38 716.634 605.46 721.107C605.56 726.581 605.653 732.241 603.767 737.734C601.073 745.607 595.073 751.147 589.28 756.507C585.553 759.954 582.04 763.201 579.353 767.007C575.867 771.981 573.873 777.834 571.76 784.027C569.787 789.801 567.753 795.774 564.367 801.141C554.207 817.261 534.133 825.434 504.72 825.434ZM413.507 792.634C419.56 792.634 426.147 793.954 432.04 796.361C437.84 798.727 443.227 801.934 448.433 805.027C453.847 808.241 458.953 811.281 464.507 813.487C474.42 817.401 485.513 818.441 496.04 818.981C498.887 819.121 501.78 819.207 504.72 819.207C531.853 819.207 550.153 812.014 559.1 797.821C562.1 793.074 563.933 787.701 565.867 782.021C568.027 775.687 570.253 769.134 574.267 763.427C577.34 759.081 581.267 755.447 585.06 751.934C590.527 746.874 595.693 742.101 597.88 735.714C599.42 731.247 599.333 726.381 599.24 721.214C599.16 716.541 599.08 711.714 600.227 706.941C601.687 700.881 604.94 695.674 608.087 690.641C608.813 689.481 609.54 688.321 610.233 687.161C625.727 661.334 629.233 630.281 630.913 601.261C621.433 616.094 607.5 627.967 591.227 634.794C584.907 637.447 578.053 639.494 571.433 641.474C554.86 646.427 539.207 651.101 531.167 664.441C529.467 667.254 528.087 670.441 526.627 673.827C522.98 682.287 519.207 691.027 509.98 693.981C506.007 695.241 500.887 694.887 496.213 694.287C494.48 694.061 492.747 693.834 491.027 693.747C479.633 693.221 467.613 699.154 454.14 711.994C430.873 734.187 413.267 763.061 404.04 793.961C406.767 793.081 409.947 792.634 413.507 792.634Z" fill="url(#paint0_linear_1_541)"/>
<path d="M382.547 893.341L377.553 883.227C369.173 866.261 360.033 848.567 350.387 830.614C348.26 826.647 346.393 823.474 343.513 821.674C339.233 819.007 332.28 820.114 325.313 821.954C318.687 823.707 312.167 824.627 306.473 824.627C293.94 824.627 285.067 820.221 280.807 811.894C279.287 808.921 278.527 805.687 277.787 802.561C276.713 798.001 275.78 794.054 272.873 791.794C269.42 789.114 263.207 790.087 257.033 791.514C255.1 791.954 253.173 792.401 251.313 792.714C249.5 793.014 247.633 793.167 245.767 793.167C228.02 793.167 211.467 779.827 208.093 762.801C206.953 757.054 207.193 751.254 207.427 745.654C207.647 740.347 207.86 735.341 206.96 730.467C205.273 721.247 200.38 716.887 192.98 710.287C187.88 705.747 181.547 700.094 175.113 691.401L167.04 680.487L179.067 686.787C195.233 695.254 216.74 694.854 232.593 685.821C234.327 684.834 236 683.761 237.68 682.694C241.353 680.341 245.153 677.914 249.5 676.381C257.213 673.661 265.84 675.107 270.38 680.134C271.64 681.534 272.52 683.054 273.373 684.521C274 685.594 274.613 686.687 275.413 687.641C277.587 690.254 280.387 691.421 284.487 691.414C288.707 691.414 293.553 690.167 298.693 688.854C304.22 687.434 309.933 685.961 315.373 685.961C320.253 685.961 324.287 687.141 327.693 689.554C333.067 693.354 335.32 699.274 337.493 704.994C339.133 709.301 340.673 713.374 343.44 716.307C347.107 720.241 352.62 721.861 358.46 723.581C361.267 724.407 364.08 725.241 366.733 726.321C391.24 736.327 400.447 766.267 398.707 791.501C397.841 803.967 395.033 816.281 392.327 828.181C389.653 839.894 386.893 852.007 386.073 864.047C385.207 870.754 384.733 873.134 384.373 874.887C384.027 876.627 383.82 877.674 383.46 882.081L382.547 893.341ZM336.707 813.734C340.64 813.734 343.94 814.601 346.807 816.387C351.333 819.201 353.853 823.894 355.88 827.661C363.867 842.527 371.521 857.234 378.674 871.487C378.967 869.854 379.34 867.474 379.86 863.441C380.693 851.101 383.513 838.754 386.233 826.801C388.893 815.134 391.647 803.061 392.473 791.081C394.06 768.087 385.987 740.927 364.373 732.101C361.913 731.101 359.293 730.327 356.693 729.567C350.307 727.687 343.707 725.741 338.88 720.567C335.287 716.741 333.447 711.894 331.66 707.214C329.733 702.141 327.907 697.354 324.08 694.641C318.727 690.834 309.313 692.567 300.24 694.887C294.953 696.241 289.493 697.647 284.487 697.647C278.527 697.647 274 695.681 270.627 691.634C269.607 690.407 268.787 689.027 267.98 687.634C267.267 686.387 266.58 685.214 265.76 684.301C262.907 681.154 256.927 680.374 251.573 682.254C247.9 683.547 244.567 685.687 241.033 687.941C239.267 689.074 237.5 690.207 235.673 691.234C221.66 699.214 203.72 701.314 187.92 696.934C191.147 700.301 194.247 703.061 197.127 705.634C204.573 712.274 211.013 718.014 213.093 729.341C214.113 734.901 213.88 740.501 213.653 745.914C213.427 751.387 213.213 756.567 214.207 761.587C217.267 777.007 234.2 789.187 250.293 786.567C252.033 786.274 253.827 785.861 255.64 785.441C259.28 784.601 263.047 783.727 266.727 783.727C270.713 783.727 273.973 784.754 276.7 786.867C281.353 790.487 282.633 795.894 283.86 801.134C284.547 804.027 285.187 806.761 286.36 809.061C289.533 815.261 296.293 818.394 306.48 818.394C311.647 818.394 317.613 817.541 323.727 815.934C327.907 814.821 332.373 813.734 336.707 813.734Z" fill="url(#paint1_linear_1_541)"/>
<path d="M430.753 578.181L431.84 570.694C432.453 566.474 432.98 562.227 433.48 558.134C434.84 547.067 436.013 537.507 438.487 531.82C445.667 515.214 442.947 497.06 440.067 477.847C438.487 467.307 436.853 456.401 436.973 445.701C437.033 440.154 437.687 432.107 442.693 426.367C446.667 421.807 452.14 419.881 457.433 418.014C460.44 416.961 463.273 415.954 465.78 414.521C474.027 409.761 478.267 400.567 482.747 390.827C487.42 380.681 492.26 370.174 502.153 364.394C508.86 360.461 516.467 359.634 523.82 358.841C527.66 358.421 531.293 358.027 534.813 357.221C547.947 354.227 559.447 345.361 569.607 337.541L638.353 284.454L617.12 366.621C614.307 377.494 611.427 388.621 605.967 398.654C603.233 403.667 599.893 408.334 596.66 412.847C592.2 419.081 587.987 424.974 585.233 431.681C581.46 440.927 580.56 451.774 579.693 462.261C578.353 478.527 576.96 495.36 564.8 506.927C558.507 512.914 550.427 516.207 542.607 519.387C533.96 522.907 525.8 526.227 520.453 532.847C518.92 534.74 517.647 536.894 516.293 539.167C514.387 542.387 512.413 545.72 509.547 548.507C501.913 555.9 491.333 556.834 481.093 557.74C478.907 557.927 476.733 558.121 474.613 558.381C460.9 560.061 447.82 565.334 436.787 573.634L430.753 578.181ZM627.773 300.501L573.427 342.474C562.76 350.687 550.673 360.001 536.22 363.294C532.34 364.187 528.353 364.614 524.5 365.034C517.493 365.794 510.873 366.521 505.307 369.781C497.1 374.574 492.887 383.734 488.42 393.441C483.727 403.627 478.867 414.167 468.893 419.927C465.893 421.654 462.647 422.794 459.52 423.901C454.773 425.574 450.293 427.147 447.407 430.467C443.753 434.661 443.267 441.214 443.22 445.781C443.1 455.981 444.693 466.634 446.24 476.934C449.12 496.174 452.1 516.061 444.207 534.307C442.093 539.167 440.913 548.754 439.667 558.901C439.44 560.767 439.207 562.674 438.96 564.594C449.513 557.974 461.453 553.72 473.873 552.2C476.06 551.934 478.307 551.734 480.56 551.534C490.14 550.687 499.18 549.894 505.213 544.04C507.48 541.834 509.167 538.994 510.94 535.994C512.34 533.627 513.793 531.174 515.613 528.927C521.967 521.061 531.273 517.281 540.26 513.614C547.88 510.514 555.067 507.594 560.507 502.414C570.953 492.481 572.18 477.547 573.487 461.74C574.393 450.78 575.327 439.454 579.467 429.321C582.493 421.941 587.113 415.474 591.587 409.214C594.713 404.854 597.933 400.347 600.493 395.661C605.587 386.314 608.367 375.561 611.053 365.167L627.773 300.501Z" fill="url(#paint2_linear_1_541)"/>
<path d="M241.613 628.514C222.873 628.514 203.227 621.727 186.473 615.081C178.3 611.854 167.407 607.914 158.813 609.881L142.127 613.674L156.407 604.234C186.207 584.547 203.773 572.241 218.307 548.407C222.44 541.621 226.353 534.661 230.26 527.714C240.473 509.521 251.04 490.721 265.713 475.281C268.013 472.914 270.747 470.334 274.42 469.514C278.027 468.714 281.913 470.001 285.06 471.187L286.94 471.874C290.66 473.161 294.593 473.787 298.987 473.787C307.313 473.787 315.8 471.554 324.793 469.194C331.313 467.481 338.047 465.714 344.773 464.861C347.6 464.501 350.5 464.321 353.393 464.321C380.48 464.321 407.06 480.114 419.553 503.627C430.5 524.241 415.947 563.414 390.173 582.721C387.42 584.787 383.207 587.541 378.46 587.541C377.693 587.541 376.913 587.467 376.14 587.314C373.947 586.894 372.08 585.861 370.433 584.954C369.4 584.387 368.373 583.801 367.253 583.427C362.667 581.927 356.66 585.021 351.727 591.214C350.767 592.414 349.847 593.647 348.913 594.894C345.147 599.947 341.247 605.167 335.08 607.814C328.8 610.494 320.613 609.367 313.14 607.761C307.933 606.641 303.073 605.581 298.333 606.221C291.907 607.081 286.4 611.021 280.567 615.187C277.833 617.141 275.007 619.167 272.033 620.887C263.26 625.941 253.033 628.514 241.613 628.514ZM168.98 603.361C176.1 604.274 183.013 607.007 188.773 609.287C204.987 615.714 223.927 622.274 241.62 622.274C252.073 622.274 261 620.054 268.913 615.467C271.627 613.901 274.333 611.967 276.947 610.094C283.147 605.667 289.553 601.081 297.513 600.021C303.153 599.267 308.973 600.467 314.453 601.647C321.307 603.134 327.813 604.134 332.627 602.067C337.253 600.074 340.5 595.741 343.927 591.141C344.9 589.841 345.867 588.541 346.867 587.301C349.38 584.141 356.173 576.781 364.767 576.781C366.28 576.781 367.773 577.021 369.207 577.487C370.693 577.974 372.073 578.721 373.447 579.474C374.813 580.227 376.1 580.941 377.347 581.181C380 581.707 382.7 580.527 386.44 577.714C409.627 560.347 423.553 524.427 414.053 506.527C402.613 485.001 378.24 470.527 353.4 470.527C350.767 470.527 348.133 470.694 345.56 471.021C339.247 471.821 332.707 473.541 326.38 475.201C317.407 477.561 308.127 480.001 298.993 480.001C293.9 480.001 289.293 479.267 284.913 477.747L282.873 477.007C280.26 476.027 277.773 475.127 275.78 475.581C273.793 476.027 271.947 477.801 270.22 479.587C256.107 494.447 245.727 512.901 235.7 530.761C231.753 537.781 227.807 544.801 223.633 551.647C209.987 574.027 194.1 586.494 168.98 603.361Z" fill="url(#paint3_linear_1_541)"/>
<path d="M380.693 357.087C377.287 357.087 373.987 356.627 370.893 355.721L367.027 354.594L369.093 351.127C382.893 328.001 381.853 323.607 378.76 310.567L377.98 307.234C376.867 302.354 375.393 297.381 373.973 292.581C370.713 281.541 367.34 270.121 367.68 258.247C368.147 241.307 376.407 224.974 389.76 214.554C396.987 208.921 405.433 205.134 413.593 201.461C424.08 196.747 433.993 192.294 441.227 184.347C447.767 177.154 451.32 167.961 455.073 158.234C458.713 148.801 462.473 139.054 469.24 131.127C476.52 122.607 486.6 116.921 496.34 111.427C509.24 104.161 521.413 97.2939 526.133 84.6872L530.467 73.1006L532.133 85.3606C533.307 93.9739 529.953 102.707 526.713 111.147C523.547 119.401 520.266 127.934 521.446 135.967C522.613 144.027 525.82 151.521 529.213 159.441C532.013 165.974 534.907 172.734 536.573 179.867C540.353 195.907 537.606 213.207 529.033 227.321C527.773 229.407 526.367 231.467 524.953 233.534C520.833 239.561 516.94 245.261 516.647 251.734C516.487 255.374 517.467 259.027 518.507 262.894C519.067 264.967 519.62 267.034 520.02 269.127C523.513 287.634 513.26 307.561 496.18 315.474C495.14 315.961 494.067 316.407 492.987 316.854C490.173 318.021 487.52 319.127 485.567 320.901C483.647 322.641 482.286 325.114 480.839 327.727C478.886 331.254 476.873 334.901 473.219 337.381C470.366 339.307 466.947 340.254 462.76 340.254C459.573 340.254 456.367 339.727 453.273 339.221L450.573 338.787C438.673 337.027 426.133 342.421 413.933 347.627C403.027 352.281 391.773 357.087 380.693 357.087ZM376.633 350.587C377.94 350.761 379.287 350.847 380.687 350.847C390.493 350.847 400.68 346.507 411.46 341.907C424.433 336.367 437.987 330.641 451.46 332.627L454.259 333.067C460.226 334.047 466.247 334.574 469.707 332.221C472.12 330.587 473.7 327.734 475.367 324.714C476.993 321.767 478.673 318.721 481.353 316.281C484.107 313.774 487.399 312.414 490.579 311.094C491.573 310.674 492.58 310.267 493.54 309.821C507.873 303.174 516.813 285.807 513.887 270.274C513.513 268.347 513 266.434 512.48 264.514C511.36 260.361 510.199 256.054 510.406 251.454C510.773 243.207 515.36 236.501 519.793 230.014C521.14 228.047 522.479 226.081 523.686 224.087C531.426 211.354 533.9 195.754 530.487 181.287C528.947 174.674 526.167 168.174 523.467 161.887C520.06 153.941 516.547 145.721 515.253 136.861C513.847 127.221 517.42 117.907 520.88 108.907C522.16 105.567 523.413 102.307 524.373 99.1272C517.64 106.547 508.407 111.754 499.387 116.847C490.107 122.074 480.526 127.481 473.966 135.167C467.893 142.274 464.48 151.114 460.873 160.461C457.08 170.301 453.153 180.474 445.82 188.527C437.713 197.434 426.747 202.367 416.133 207.134C408.307 210.654 400.213 214.287 393.573 219.461C381.667 228.747 374.307 243.307 373.887 258.414C373.58 269.301 376.667 279.747 379.933 290.801C381.38 295.701 382.873 300.767 384.04 305.841L384.807 309.127C387.987 322.487 389.387 328.407 376.633 350.587Z" fill="url(#paint4_linear_1_541)"/>
<path d="M137.587 452.967C133.633 452.967 129.76 452.454 126.06 451.447C120.767 450.001 117.473 448.987 114.233 447.994C107.753 446.001 101.633 444.121 80.1733 438.994L67.5466 435.987L80.1666 432.934C99.1 428.361 115.313 411.654 128.36 383.274C130.46 378.701 132.467 374.047 134.473 369.387C142.38 351.001 150.553 331.994 165.273 317.854C168.007 315.221 171.393 312.387 175.787 311.334C178.26 310.747 181.313 310.881 184.313 311.147C185.407 311.254 186.493 311.347 187.58 311.374H187.6C198.373 311.374 207.02 305.121 216.18 298.487C221.413 294.701 226.827 290.781 232.68 287.967C241.053 283.954 250.713 281.994 262.22 281.994C272.233 281.994 282.247 283.421 292.473 285.014C314.22 288.387 338.4 293.581 350.113 312.567L351.007 314.007L350.287 315.534C344.7 327.381 340.28 342.874 336 357.847C334.487 363.167 332.92 368.674 329.587 373.507C325.027 380.167 318.153 384.167 311.5 388.027C308.633 389.694 305.673 391.414 303.027 393.287C296.707 397.787 290.96 403.981 285.407 409.974C274.673 421.554 263.573 433.541 247.407 434.374C241.52 434.687 235.92 433.354 230.507 432.067C226.9 431.214 223.493 430.414 220.033 430.054C205.547 428.567 191.207 435.014 177.247 441.274C164.413 447.021 151.147 452.967 137.587 452.967ZM91.8 435.407C105.5 438.794 110.66 440.374 116.067 442.034C119.26 443.014 122.5 444.014 127.707 445.434C130.873 446.294 134.193 446.734 137.587 446.734C149.813 446.734 161.9 441.314 174.693 435.587C189.38 429.014 204.713 422.201 220.66 423.861C224.527 424.261 228.293 425.141 231.927 426.001C237.153 427.241 242.073 428.394 247.067 428.147C260.707 427.447 270.48 416.894 280.827 405.734C286.593 399.507 292.56 393.081 299.407 388.207C302.293 386.161 305.38 384.367 308.36 382.634C314.693 378.954 320.68 375.487 324.44 369.987C327.193 365.981 328.62 360.981 330 356.147C334.16 341.567 338.453 326.527 343.907 314.467C333.22 298.847 311.307 294.254 291.513 291.181C281.533 289.627 271.787 288.234 262.22 288.234C251.673 288.234 242.893 289.987 235.38 293.594C230.027 296.167 224.847 299.914 219.833 303.541C210.267 310.461 200.38 317.621 188.24 317.621L187.42 317.607C186.2 317.581 184.98 317.467 183.747 317.361C181.413 317.147 178.96 316.987 177.22 317.407C174.3 318.101 171.727 320.301 169.593 322.347C155.78 335.614 147.853 354.041 140.193 371.854C138.167 376.567 136.147 381.274 134.02 385.881C122.447 411.047 108.28 427.654 91.8 435.407Z" fill="url(#paint5_linear_1_541)"/>
<path d="M298.707 247.287C293.347 247.287 287.18 245.681 281.8 242.887L280.207 242.054L280.127 240.254C279.493 225.801 278.853 211.114 281.447 196.801C283.54 185.261 288.78 169.101 301.813 157.681C305.92 154.094 310.527 151.234 314.98 148.467C316.86 147.294 318.747 146.121 320.593 144.901C336.567 134.321 349.533 119.661 358.113 102.507L362.967 92.7939L363.993 103.601C365.04 114.541 364.64 128.361 362.673 133.267C363.193 134.867 363.787 136.454 364.38 138.027C365.52 141.081 366.7 144.241 367.433 147.587C369.267 155.994 367.98 164.774 366.947 171.827C364.58 187.947 360.627 204.014 347.907 212.374C343.953 214.961 339.42 216.627 335.04 218.234C328.047 220.801 321.44 223.221 318.68 228.947C318.073 230.207 317.687 231.567 317.28 232.921C316.707 234.874 316.107 236.887 314.993 238.834C311.887 244.281 306.1 247.287 298.707 247.287ZM286.267 238.127C290.373 239.994 294.82 241.047 298.7 241.047C303.907 241.047 307.56 239.261 309.567 235.741C310.32 234.414 310.8 232.821 311.3 231.147C311.793 229.474 312.3 227.807 313.053 226.247C316.92 218.241 325.033 215.267 332.887 212.381C336.94 210.894 341.127 209.354 344.48 207.161C355.68 199.807 358.767 184.601 360.767 170.921C361.733 164.374 362.927 156.214 361.333 148.914C360.7 146.007 359.647 143.194 358.533 140.214C357.633 137.814 356.74 135.407 356.053 132.941L359.06 132.094L359.4 129.521C358 129.521 357.14 130.461 356.947 130.907C357.433 129.781 358.387 123.621 358.333 114.827C349.567 128.861 337.867 140.927 324.027 150.094C322.133 151.354 320.2 152.554 318.26 153.761C313.827 156.521 309.633 159.127 305.9 162.374C294.233 172.601 289.493 187.347 287.573 197.914C285.193 211.021 285.687 224.774 286.267 238.127Z" fill="url(#paint6_linear_1_541)"/>
<path d="M254.233 223.814L256.607 218.587C259.953 211.241 258.653 201.794 253.44 195.614C251.08 192.801 248.033 190.594 244.8 188.267C243.647 187.434 242.487 186.601 241.367 185.741C223.48 172.101 211.947 150.527 210.513 128.021C210.073 120.974 210.587 113.894 211.087 107.047C211.673 98.974 212.227 91.354 211.367 83.7073C210.147 72.8873 205.993 62.1273 201.98 51.714C196.227 36.7807 190.267 21.3407 192.553 5.04731L193.187 0.540649L197.167 2.76065C208.96 9.354 217.227 20.094 225.22 30.474C231.453 38.574 237.893 46.9473 245.88 53.054C249.653 55.934 253.727 58.3073 258.027 60.814C261.927 63.0873 265.953 65.434 269.72 68.1807C279.667 75.4407 285.387 84.4473 285.833 93.5473C286.133 99.574 284.193 105.154 282.32 110.547C280.627 115.414 279.027 120.021 279.107 124.681C279.173 128.247 280.213 131.787 281.32 135.541C282.087 138.147 282.88 140.841 283.367 143.634C284.96 153.047 282.753 162.494 280.8 170.827L275.12 195.107C272.193 207.534 268.867 221.627 259.907 222.974L254.233 223.814ZM198.307 10.8273C197.887 23.754 202.72 36.2806 207.807 49.4606C211.96 60.2406 216.26 71.3807 217.573 83.0007C218.493 91.2207 217.893 99.494 217.313 107.487C216.827 114.127 216.333 120.994 216.747 127.627C218.06 148.347 228.687 168.227 245.16 180.787C246.247 181.621 247.347 182.414 248.453 183.214C251.86 185.667 255.373 188.207 258.22 191.614C262.34 196.494 264.567 202.781 264.713 209.107C266.56 204.287 268 198.167 269.06 193.681L274.74 169.401C276.553 161.647 278.613 152.854 277.227 144.681C276.807 142.254 276.1 139.847 275.353 137.307C274.18 133.321 272.967 129.207 272.88 124.801C272.78 119.021 274.64 113.674 276.44 108.501C278.2 103.447 279.86 98.6807 279.62 93.8607C279.147 84.174 270.913 76.774 266.06 73.2207C262.553 70.6607 258.667 68.394 254.9 66.2007C250.613 63.7073 246.187 61.1207 242.107 58.0073C233.473 51.4073 226.767 42.7007 220.293 34.2807C213.407 25.3273 206.853 16.8207 198.307 10.8273Z" fill="url(#paint7_linear_1_541)"/>
<path d="M124.407 275.061C120.493 275.061 116.553 274.621 112.533 274.121C80.5733 270.174 44.3532 265.707 15.1932 246.127L3.81995 238.487L17.3799 240.454C35.5332 243.101 52.6933 231.974 63.2466 222.801C68.7933 217.994 74.0666 212.607 79.1733 207.394C86.3733 200.041 93.8133 192.441 102.3 186.134C119.767 173.114 141.627 165.947 163.853 165.947C170.093 165.947 176.327 166.521 182.36 167.654C209.98 172.841 235.347 190.174 250.213 214.001L252.7 217.994L248.06 218.727C245.333 219.167 242.307 218.494 239.467 217.807C235.607 216.887 231.633 216.227 228.607 217.814C222.893 220.834 218.567 226.401 214.387 231.781L212.393 234.327C207.387 240.614 200.453 248.041 191.12 249.701C189.613 249.961 188.113 250.074 186.6 250.074C183.933 250.074 181.307 249.741 178.767 249.421C174.62 248.901 170.62 248.547 167.533 249.267C161.633 250.641 157.233 255.414 152.58 260.461C148.44 264.947 144.153 269.587 138.427 272.294C134.487 274.161 129.9 275.061 124.407 275.061ZM28.3799 246.767C54.5266 260.687 85.5533 264.514 113.293 267.941C122.347 269.047 130.267 269.261 135.76 266.661C140.393 264.467 144.093 260.461 148 256.234C153.093 250.714 158.36 245.007 166.12 243.201C170.113 242.267 175.06 242.681 179.553 243.241C182.007 243.554 184.327 243.841 186.607 243.841C187.753 243.841 188.9 243.767 190.047 243.567C197.273 242.287 202.94 236.221 207.52 230.461L209.473 227.961C214.067 222.061 218.8 215.961 225.707 212.314C230.327 209.887 236.287 210.647 240.927 211.754C241.033 211.781 241.133 211.807 241.24 211.834C226.987 192.287 204.993 178.254 181.227 173.787C175.56 172.727 169.72 172.187 163.867 172.187C142.973 172.187 122.433 178.921 106.033 191.147C97.9399 197.167 90.6666 204.594 83.6399 211.767C78.4533 217.074 73.08 222.547 67.3533 227.521C58.1066 235.534 44.2199 244.934 28.3799 246.767Z" fill="url(#paint8_linear_1_541)"/>
<path d="M403.12 797.267L399.24 792.394C433.407 765.227 465.493 746.84 500.193 734.534C505.353 732.7 510.607 731.094 515.86 729.5C523.807 727.08 532.033 724.58 539.7 721.26C592.3 698.507 615.513 639.474 629.867 590.587L635.84 592.347C621.107 642.534 597.14 703.194 542.167 726.974C534.18 730.44 525.78 732.987 517.66 735.46C512.507 737.027 507.34 738.6 502.267 740.4C468.233 752.474 436.733 770.547 403.12 797.267Z" fill="url(#paint9_linear_1_541)"/>
<path d="M438.047 568.42L433.073 564.667C445.433 548.301 452.113 538.881 456.893 520.047C458.04 515.567 458.78 510.834 459.5 506.267C460.46 500.134 461.447 493.801 463.44 487.694C471.173 463.907 491.593 448.547 511.34 433.687C519.48 427.567 527.887 421.241 535.22 414.447C569.507 382.694 597.08 346.901 630.393 290.887L635.747 294.074C602.107 350.634 574.213 386.841 539.453 419.021C531.893 426.034 523.347 432.461 515.087 438.667C495.24 453.601 476.5 467.701 469.373 489.627C467.54 495.261 466.627 501.074 465.667 507.227C464.927 511.947 464.16 516.827 462.947 521.594C457.867 541.534 450.547 551.874 438.047 568.42Z" fill="url(#paint10_linear_1_541)"/>
<path d="M377.253 882.241C376.747 878.301 376.3 874.687 375.887 871.327C373.707 853.574 372.387 842.861 366.833 827.974C364.067 820.534 359.193 814.187 354.027 807.467C351.2 803.787 348.28 799.981 345.727 795.967C341.627 789.501 338.26 782.261 335.013 775.254C327.7 759.527 320.8 744.674 306.38 738.501C299.147 735.414 291.167 735.141 282.713 734.847C279.46 734.734 276.207 734.627 273 734.354C236.247 731.261 192.82 703.781 175.853 692.107L179.38 686.967C195.933 698.361 238.253 725.167 273.527 728.141C276.64 728.407 279.787 728.514 282.927 728.621C291.58 728.914 300.527 729.221 308.827 732.767C325.447 739.874 333.18 756.521 340.66 772.627C343.827 779.441 347.107 786.501 350.987 792.614C353.387 796.387 356.227 800.087 358.973 803.661C364.187 810.447 369.58 817.467 372.673 825.787C378.487 841.354 379.833 852.341 382.073 870.554C382.493 873.907 382.933 877.501 383.44 881.427L377.253 882.241Z" fill="url(#paint11_linear_1_541)"/>
<path d="M163.52 608.294L162.347 602.174C195.22 595.887 229.093 586.954 254.193 564.327C257.627 561.241 260.993 557.821 264.38 554.387C277.107 541.487 290.26 528.134 308.393 529.414C313.913 529.801 319.04 531.627 324 533.394C325.8 534.034 327.593 534.674 329.407 535.241C356.533 543.754 395.427 531.094 416.113 507.047L420.84 511.107C398.307 537.307 357.333 550.521 327.547 541.181C325.66 540.594 323.787 539.927 321.913 539.261C317.14 537.561 312.627 535.954 307.967 535.627C292.587 534.594 280.567 546.861 268.827 558.761C265.347 562.287 261.887 565.794 258.367 568.961C232.067 592.667 195.66 602.147 163.52 608.294Z" fill="url(#paint12_linear_1_541)"/>
<path d="M373.6 355.247L369.927 350.214C380.893 342.207 386.427 335.114 391.793 328.261C397.267 321.254 402.44 314.641 412.46 308.867C414.547 307.667 416.667 306.514 418.793 305.374C425.927 301.521 432.667 297.881 437.733 292.307C446.54 282.587 448.7 268.447 450.793 254.774L451.353 251.154C460.267 194.394 484.007 140.761 520.007 96.0472L524.867 99.9539C489.547 143.821 466.26 196.441 457.52 252.121L456.967 255.714C454.733 270.301 452.427 285.374 442.36 296.487C436.58 302.854 429.047 306.914 421.767 310.847C419.687 311.967 417.613 313.087 415.58 314.261C406.607 319.427 402.027 325.301 396.713 332.094C391.34 338.954 385.267 346.727 373.6 355.247Z" fill="url(#paint13_linear_1_541)"/>
<path d="M284.253 243.061L282.22 237.167C294.907 232.801 300.133 219.287 305.2 203.394C306.02 200.821 306.793 198.214 307.567 195.594C311.34 182.894 315.233 169.761 324.48 159.781C327.387 156.634 330.7 153.961 333.9 151.367C336.547 149.227 339.047 147.201 341.34 144.934C349.64 136.694 354.653 125.247 355.093 113.541L361.32 113.767C360.833 127.041 355.147 140.021 345.727 149.361C343.207 151.854 340.473 154.067 337.82 156.207C334.647 158.774 331.653 161.194 329.053 164.014C320.8 172.927 317.113 185.347 313.547 197.361C312.76 200.021 311.973 202.674 311.14 205.281C306.587 219.561 300.927 237.321 284.253 243.061Z" fill="url(#paint14_linear_1_541)"/>
<path d="M263.553 217.247L258.2 214.054C268.413 196.947 265.787 187.247 260.253 173.314C259.333 171.007 258.273 168.741 257.213 166.487C255.18 162.154 253.087 157.674 251.92 152.794C249.88 144.194 250.84 135.061 251.773 126.227C253.067 113.881 254.293 102.221 247.067 93.9472C245.007 91.5872 242.387 89.7139 239.613 87.7339C237.907 86.5206 236.2 85.3006 234.6 83.9672C223.273 74.4472 218.227 60.2139 213.353 46.4606C208.287 32.1539 203.5 18.6539 192.287 10.5872L195.92 5.52722C208.727 14.7272 214.067 29.8006 219.233 44.3739C224.04 57.9472 228.58 70.7672 238.607 79.1872C240.08 80.4206 241.653 81.5406 243.227 82.6606C246.173 84.7606 249.22 86.9339 251.76 89.8406C260.773 100.161 259.353 113.741 257.973 126.874C257.1 135.187 256.193 143.781 257.993 151.347C259 155.601 260.88 159.601 262.86 163.841C263.973 166.207 265.087 168.587 266.053 171.014C271.92 185.801 275.18 197.774 263.553 217.247Z" fill="url(#paint15_linear_1_541)"/>
<path d="M91.6867 435.974C91.08 435.974 90.4733 435.961 89.86 435.941L90.0667 429.707C107.927 430.374 120.22 420.921 134.287 410.047C141.733 404.294 149.433 398.334 158.54 393.567C166.26 389.507 174.56 386.641 182.593 383.867C192.347 380.501 201.553 377.327 209.927 372.174C217.173 367.714 223.38 362.034 229.947 356.007C234.147 352.161 238.48 348.187 243.087 344.601C256.66 334.021 272.187 326.914 287.207 320.041C306.687 311.114 331.26 302.701 348.54 316.907L344.58 321.721C329.98 309.714 307.633 317.541 289.793 325.707C275.107 332.434 259.913 339.387 246.907 349.514C242.507 352.947 238.26 356.841 234.153 360.601C227.653 366.554 220.947 372.707 213.187 377.474C204.227 382.987 194.26 386.427 184.62 389.754C176.813 392.447 168.733 395.234 161.427 399.074C152.807 403.594 145.327 409.374 138.093 414.967C124.14 425.767 110.94 435.974 91.6867 435.974Z" fill="url(#paint16_linear_1_541)"/>
<path d="M45.3935 250.227C38.0869 250.227 30.7936 249.421 23.6736 247.767L25.0802 241.694C50.2802 247.561 77.9067 242.114 98.9867 227.134C101.547 225.321 104.033 223.361 106.52 221.401C112.873 216.394 119.447 211.227 127.34 208.254C138.727 203.987 150.907 205.034 162.727 206.047C174.433 207.047 185.5 208.007 195.633 204.114C197.573 203.374 199.44 202.467 201.3 201.567C204.673 199.934 208.153 198.247 212.067 197.427C225.72 194.587 236.693 201.981 247.7 210.474L243.9 215.407C233.713 207.541 224.4 201.241 213.347 203.527C210.187 204.194 207.187 205.641 204.02 207.174C201.993 208.154 199.967 209.134 197.867 209.934C186.393 214.334 174.1 213.281 162.193 212.261C150.573 211.261 139.593 210.321 129.533 214.087C122.54 216.721 116.633 221.367 110.38 226.294C107.813 228.314 105.247 230.334 102.6 232.221C86.0401 243.967 65.7002 250.227 45.3935 250.227Z" fill="url(#paint17_linear_1_541)"/>
<path d="M384.247 970.667C366.433 917.747 378.873 860.36 389.779 821.794C393.999 806.894 398.82 791.887 403.5 777.374C413.827 745.26 424.507 712.047 429.06 678.254C436.907 619.961 426.793 561.201 414.707 506.387C403.467 455.467 388.153 396.101 359.74 341.807C330.307 285.521 290.133 242.354 243.547 216.974L246.527 211.501C294.193 237.474 335.253 281.534 365.26 338.914C394.013 393.854 409.467 453.721 420.787 505.041C433.007 560.414 443.213 619.827 435.233 679.081C430.619 713.421 419.846 746.901 409.433 779.274C404.779 793.734 399.973 808.687 395.787 823.487C378.807 883.514 377.02 929.647 390.16 968.674L384.247 970.667Z" fill="url(#paint18_linear_1_541)"/>
</g>
<defs>
<linearGradient id="paint0_linear_1_541" x1="526.104" y1="825.434" x2="629.24" y2="775.448" gradientUnits="userSpaceOnUse">
<stop stop-color="#0B9B8A"/>
<stop offset="1" stop-color="#08DEC5"/>
</linearGradient>
<linearGradient id="paint1_linear_1_541" x1="292.704" y1="893.341" x2="386.125" y2="843.369" gradientUnits="userSpaceOnUse">
<stop stop-color="#0B9B8A"/>
<stop offset="1" stop-color="#08DEC5"/>
</linearGradient>
<linearGradient id="paint2_linear_1_541" x1="543.263" y1="578.18" x2="638.74" y2="544.195" gradientUnits="userSpaceOnUse">
<stop stop-color="#0B9B8A"/>
<stop offset="1" stop-color="#08DEC5"/>
</linearGradient>
<linearGradient id="paint3_linear_1_541" x1="294.473" y1="628.514" x2="378.023" y2="556.475" gradientUnits="userSpaceOnUse">
<stop stop-color="#0B9B8A"/>
<stop offset="1" stop-color="#08DEC5"/>
</linearGradient>
<linearGradient id="paint4_linear_1_541" x1="459.812" y1="357.087" x2="541.04" y2="332.425" gradientUnits="userSpaceOnUse">
<stop stop-color="#0B9B8A"/>
<stop offset="1" stop-color="#08DEC5"/>
</linearGradient>
<linearGradient id="paint5_linear_1_541" x1="221.168" y1="452.967" x2="307.714" y2="380.704" gradientUnits="userSpaceOnUse">
<stop stop-color="#0B9B8A"/>
<stop offset="1" stop-color="#08DEC5"/>
</linearGradient>
<linearGradient id="paint6_linear_1_541" x1="327.685" y1="247.287" x2="370.14" y2="234.998" gradientUnits="userSpaceOnUse">
<stop stop-color="#0B9B8A"/>
<stop offset="1" stop-color="#08DEC5"/>
</linearGradient>
<linearGradient id="paint7_linear_1_541" x1="242.894" y1="223.814" x2="289.422" y2="213.968" gradientUnits="userSpaceOnUse">
<stop stop-color="#0B9B8A"/>
<stop offset="1" stop-color="#08DEC5"/>
</linearGradient>
<linearGradient id="paint8_linear_1_541" x1="138.701" y1="275.061" x2="194.299" y2="211.193" gradientUnits="userSpaceOnUse">
<stop stop-color="#0B9B8A"/>
<stop offset="1" stop-color="#08DEC5"/>
</linearGradient>
<linearGradient id="paint9_linear_1_541" x1="527.466" y1="797.267" x2="619.482" y2="744.217" gradientUnits="userSpaceOnUse">
<stop stop-color="#0B9B8A"/>
<stop offset="1" stop-color="#08DEC5"/>
</linearGradient>
<linearGradient id="paint10_linear_1_541" x1="542.912" y1="568.42" x2="635.421" y2="534.398" gradientUnits="userSpaceOnUse">
<stop stop-color="#0B9B8A"/>
<stop offset="1" stop-color="#08DEC5"/>
</linearGradient>
<linearGradient id="paint11_linear_1_541" x1="288.355" y1="882.241" x2="371.959" y2="837.481" gradientUnits="userSpaceOnUse">
<stop stop-color="#0B9B8A"/>
<stop offset="1" stop-color="#08DEC5"/>
</linearGradient>
<linearGradient id="paint12_linear_1_541" x1="302.438" y1="608.294" x2="352.92" y2="543.383" gradientUnits="userSpaceOnUse">
<stop stop-color="#0B9B8A"/>
<stop offset="1" stop-color="#08DEC5"/>
</linearGradient>
<linearGradient id="paint13_linear_1_541" x1="453.897" y1="355.247" x2="527.512" y2="333.085" gradientUnits="userSpaceOnUse">
<stop stop-color="#0B9B8A"/>
<stop offset="1" stop-color="#08DEC5"/>
</linearGradient>
<linearGradient id="paint14_linear_1_541" x1="325.088" y1="243.061" x2="362.534" y2="231.543" gradientUnits="userSpaceOnUse">
<stop stop-color="#0B9B8A"/>
<stop offset="1" stop-color="#08DEC5"/>
</linearGradient>
<linearGradient id="paint15_linear_1_541" x1="235.144" y1="217.247" x2="274.721" y2="209.802" gradientUnits="userSpaceOnUse">
<stop stop-color="#0B9B8A"/>
<stop offset="1" stop-color="#08DEC5"/>
</linearGradient>
<linearGradient id="paint16_linear_1_541" x1="230.052" y1="435.974" x2="295.196" y2="368.979" gradientUnits="userSpaceOnUse">
<stop stop-color="#0B9B8A"/>
<stop offset="1" stop-color="#08DEC5"/>
</linearGradient>
<linearGradient id="paint17_linear_1_541" x1="145.085" y1="250.227" x2="166.342" y2="205.33" gradientUnits="userSpaceOnUse">
<stop stop-color="#0B9B8A"/>
<stop offset="1" stop-color="#08DEC5"/>
</linearGradient>
<linearGradient id="paint18_linear_1_541" x1="348.964" y1="970.667" x2="448.107" y2="957.874" gradientUnits="userSpaceOnUse">
<stop stop-color="#0B9B8A"/>
<stop offset="1" stop-color="#08DEC5"/>
</linearGradient>
<clipPath id="clip0_1_541">
<rect width="640" height="973.333" fill="white" transform="translate(0 0.41394)"/>
</clipPath>
</defs>
</svg>
