<svg width="640" height="654" viewBox="0 0 640 654" fill="none" xmlns="http://www.w3.org/2000/svg">
<g clip-path="url(#clip0_1_762)">
<path d="M206.822 174.147C230.481 135.979 257.183 95.3583 254.216 50.5515C252.628 26.5601 236.234 -0.473852 212.246 1.18262C194.884 2.38048 182.334 17.9629 173.542 32.9841C141.703 87.3669 130.131 152.842 139.331 215.028C141.005 226.353 148.431 286.818 169.339 270.037C174.264 266.084 177.683 231.271 180.921 223.225C187.824 206.051 197.088 189.849 206.822 174.147Z" fill="#FC8F59"/>
<path d="M102.163 383.31C90.2866 386.383 78.4278 391.041 69.6012 399.563C60.7747 408.085 55.5349 421.135 58.9369 432.922C63.4545 448.586 80.5155 456.622 96.0569 461.547C122.085 469.795 287.509 501.573 268.747 440.458C260.917 414.943 217.243 395.487 194.429 387.622C164.93 377.444 132.455 375.469 102.163 383.31Z" fill="#FC8F59"/>
<path d="M376.464 294.895C383.073 279.504 387.861 260.006 376.888 247.353C370.902 240.453 361.422 237.476 352.294 237.123C329.732 236.254 308.181 249.988 295.888 268.925C281.476 291.13 264.418 364.815 298.383 378.132C335.869 392.834 366.039 319.18 376.464 294.895Z" fill="#FC8F59"/>
<path d="M417.239 345.8C411.76 336.317 405.729 326.758 396.817 320.392C387.905 314.023 375.399 311.521 365.919 317.011C352.869 324.568 351.185 342.528 352.075 357.583C355.967 423.424 380.673 489.259 421.828 540.938C434.002 556.226 461.135 574.564 476.509 550.606C489.812 529.873 470.588 479.662 464.469 457.947C453.435 418.801 437.582 381.013 417.239 345.8Z" fill="#FC8F59"/>
<path d="M154.909 543.098C146.863 545.846 138.704 549.056 132.523 554.895C126.342 560.733 122.516 569.803 125.09 577.907C129.912 593.1 150.672 594.274 166.508 592.484C208.105 587.781 249.701 583.079 291.295 578.376C307.442 576.549 377.121 580.645 359.16 548.611C346.514 526.057 285.808 526.868 263.247 526.42C226.524 525.688 189.689 531.246 154.909 543.098Z" fill="url(#paint0_linear_1_762)"/>
<path d="M28.4154 174.496C20.6362 172.579 11.4982 171.337 5.40964 176.542C-1.03483 182.053 -0.808952 192.091 1.4088 200.274C6.78547 220.093 20.465 236.85 36.595 249.554C52.7285 262.258 71.3398 271.365 89.7937 280.373C106.694 288.621 123.59 296.869 140.487 305.117C150.765 310.135 171.83 326.005 184.072 323.243C208.974 317.623 174.376 277.402 164.876 265.047C130.997 220.993 82.5415 187.857 28.4154 174.496Z" fill="url(#paint1_linear_1_762)"/>
<path d="M636.016 650.474C590.792 635.367 546.396 618.025 503.454 597.354C501.602 596.029 499.737 594.725 497.838 593.473C495.754 592.097 493.652 590.745 491.513 589.461C490.51 588.859 489.484 588.298 488.457 587.737C487.262 587.086 485.999 586.734 484.771 586.186C484.61 586.114 484.473 586.176 484.37 586.272C482.878 585.734 481.417 585.135 480 584.471C475.979 581.518 472.881 577.26 470.954 572.606C470.112 570.573 469.469 568.478 468.928 566.353C468.843 566.014 468.754 565.679 468.668 565.34C467.012 558.259 466.659 550.815 465.78 543.659C463.524 525.26 459.944 507.025 455.122 489.129C450.307 471.25 444.259 453.716 437.014 436.679C429.765 419.639 421.325 403.115 411.801 387.232C402.981 372.525 393.196 358.401 382.535 344.971C381.751 343.838 380.981 342.695 380.17 341.58C378.798 339.691 377.398 337.863 375.868 336.101C375.526 335.707 374.965 335.728 374.578 335.964C373.757 335.954 372.976 336.686 373.062 337.497C372.863 337.781 372.795 338.148 373.007 338.565C375.314 343.065 377.247 347.757 378.818 352.569C378.835 352.644 378.859 352.716 378.877 352.792C380.102 357.946 380.988 363.182 381.652 368.436C382.515 375.267 383.004 382.132 383.408 389.005C383.37 389.593 383.339 390.182 383.295 390.771C383.278 391.014 383.391 391.185 383.548 391.291C383.712 394.207 383.873 397.123 384.038 400.035C385.235 421.176 387.847 442.166 393.045 462.721C398.2 483.095 405.664 502.935 415.962 521.283C425.066 537.505 436.35 552.458 449.639 565.487C450.556 566.384 451.505 567.246 452.439 568.122C452.963 568.848 453.479 569.577 454.013 570.296C454.626 571.12 455.276 571.904 455.943 572.674C416.178 550.548 378.069 525.41 342.633 496.846C336.957 492.274 331.358 487.609 325.827 482.862L325.759 482.588C319.064 469.692 311.932 457.009 304.758 444.356C304.933 444.205 305.036 443.973 304.933 443.726C302.373 437.569 299.714 431.522 297.937 425.074C296.185 418.708 295.004 412.192 294.392 405.617C293.293 393.803 293.978 381.882 296.014 370.205C296.206 370.198 296.401 370.154 296.572 370.051C297.188 369.664 297.414 369.004 297.338 368.302C297.325 368.172 297.277 368.069 297.219 367.98C299.762 364.774 302.527 361.758 305.559 359C309.105 355.776 312.914 352.87 316.74 349.989C324.366 344.249 331.95 338.575 338.247 331.34C350.309 317.483 357.948 299.864 360.231 281.663C361.508 271.481 361.076 261.077 358.831 251.063L358.92 250.926C359.622 249.858 358.225 248.756 357.366 249.643L356.918 249.718C339.958 256.594 324.906 267.973 313.551 282.314C301.377 297.687 293.806 316.394 291.64 335.872C290.381 347.22 290.935 358.774 293.358 369.935L293.509 370.277C291.787 380.517 291.113 390.945 291.753 401.308C292.441 412.448 294.717 423.599 298.885 433.979C298.108 432.607 297.328 431.234 296.551 429.862C295.353 426.713 293.865 423.674 292.205 420.721C291.531 418.944 290.884 417.158 290.233 415.378C289.819 414.249 289.443 413.106 289.056 411.966C289.101 411.781 289.101 411.576 288.984 411.343C288.834 411.038 288.676 410.741 288.529 410.436C287.875 408.448 287.252 406.449 286.667 404.44C286.417 403.581 286.191 402.712 285.955 401.849C286.116 401.668 286.205 401.435 286.126 401.151C285.353 398.386 284.518 395.634 283.669 392.889C282.817 389.227 282.037 385.551 281.294 381.865C278.245 366.683 275.979 351.34 272.413 336.265C268.634 320.279 263.312 304.727 258.076 289.176C252.85 273.651 247.733 258.048 244.485 241.97C241.265 226.024 239.827 209.576 242.1 193.401C242.384 191.389 242.726 189.387 243.12 187.395C243.294 186.502 242.357 185.632 241.487 185.804C240.474 186.002 239.461 186.201 238.448 186.399C237.757 186.536 237.404 187.032 237.326 187.576C234.687 191.043 232.291 194.681 230.108 198.439C221.685 210.356 215.015 223.533 210.624 237.438C204.785 255.923 203.005 275.595 205.856 294.792C208.642 313.554 215.901 331.152 226.904 346.573C236.935 360.629 249.253 372.827 261.064 385.353C269.254 394.039 277.204 402.996 284.001 412.774C285.223 414.902 286.441 417.035 287.656 419.167C298.567 438.339 309.409 457.556 320.546 476.596C321.231 477.763 321.932 478.919 322.627 480.08C287.465 449.538 255.362 415.498 227.674 377.998C204.313 346.357 184.041 312.394 167.531 276.69C164.554 266.225 162.473 255.519 161.474 244.636C160.601 235.138 160.57 225.566 161.296 216.055L161.477 215.952C166.094 211.777 170.413 207.44 174.489 202.731C178.589 197.991 182.484 193.066 186.115 187.956C193.347 177.788 199.668 166.963 205.014 155.689C210.367 144.402 214.737 132.646 218.061 120.606C221.384 108.566 223.697 96.2515 224.885 83.8177C226.066 71.4455 226.144 58.9604 225.07 46.5779C224.933 45.0002 224.775 43.4258 224.604 41.8515C224.56 41.4579 224.378 41.191 224.139 41.0096L224.112 40.6331C224.033 39.9418 223.16 39.7809 222.732 40.1608L222.784 39.733C222.835 39.0656 221.791 38.7028 221.579 39.4181C220.669 42.471 219.898 45.5717 218.875 48.5937C217.869 51.5644 216.668 54.4701 215.316 57.3039C212.52 63.17 209.083 68.7041 205.326 74.0021C197.666 84.8034 188.679 94.5676 180.352 104.842C172.159 114.955 164.718 125.664 159.81 137.786C155.111 149.395 152.517 161.867 152.117 174.379C151.716 186.899 153.482 199.459 157.459 211.342C157.88 212.601 158.342 213.847 158.811 215.09C158.188 223.136 158.113 231.223 158.633 239.28C159.201 248.072 160.474 256.799 162.442 265.366C157.815 254.739 153.499 243.975 149.56 233.068C149.481 232.845 149.406 232.619 149.327 232.4C149.331 232.123 149.321 231.842 149.273 231.517C149.166 230.826 149.054 230.138 148.934 229.45C148.691 228.074 148.396 226.709 148.075 225.35C147.76 224.012 147.442 222.663 147.027 221.349C146.603 220.004 146.042 218.782 145.415 217.523C145.296 217.283 145.039 217.246 144.84 217.335C144.426 216.109 144.012 214.888 143.649 213.645C142.855 210.935 142.219 208.176 141.699 205.401C140.651 199.836 140.1 194.189 139.864 188.531C139.378 176.785 140.343 165.046 141.22 153.342C142.14 141.072 142.962 128.724 142.044 116.423C141.178 104.773 138.413 93.3937 134.587 82.3768C132.468 76.278 130.035 70.2956 127.437 64.385C126.109 61.3629 124.768 58.3443 123.337 55.3702C122.403 53.4263 121.534 51.4207 120.462 49.5418L120.452 49.4836C120.394 49.1927 120.254 48.9942 120.076 48.8641L119.987 48.7067L119.928 48.6245C119.559 48.0359 119.175 47.4575 118.741 46.9167C118.512 46.6293 117.988 46.8243 118.063 47.2077C118.125 47.5157 118.221 47.81 118.299 48.1112C118.108 48.2036 117.923 48.3371 117.772 48.5732C116.821 50.0551 115.886 51.5508 114.959 53.0498L114.788 53.1696C114.422 53.7925 114.09 54.4256 113.737 55.0554C108.295 64.0325 103.35 73.3176 99.4176 83.0579C94.633 94.9133 91.2927 107.525 90.7691 120.342C90.2352 133.457 92.8876 146.36 97.744 158.513C102.755 171.049 109.904 182.597 117.724 193.555C121.725 199.161 125.88 204.665 130.127 210.082C132.359 212.927 134.59 215.771 136.822 218.611C138.704 221.01 140.569 223.447 142.53 225.788C142.472 226.021 142.52 226.281 142.753 226.483C143.109 226.791 143.437 227.126 143.756 227.469C143.903 228.016 144.046 228.56 144.221 229.101C144.409 229.686 144.943 229.786 145.405 229.618C145.511 229.779 145.624 229.933 145.724 230.1C152.117 248.308 159.499 266.163 167.785 283.59C168.435 285.397 169.109 287.197 169.828 288.98C170.625 290.955 171.532 292.889 172.443 294.816C172.638 295.23 173.107 295.209 173.356 294.966C180.68 309.522 188.621 323.766 197.143 337.655C194.565 334.331 191.964 331.029 189.343 327.74C184.918 320.775 180.742 313.656 176.628 306.507C167.788 291.15 159.112 275.636 148.516 261.395C138.276 247.63 126.198 235.125 111.554 226.035C97.1759 217.112 81.0869 211.482 64.6523 207.728C47.9952 203.925 30.9581 201.988 13.9588 200.5C13.0039 200.417 12.0456 200.352 11.0873 200.287C10.7553 200.859 10.4131 201.427 10.04 201.971L10.1051 201.978C12.8567 203.939 15.6118 205.893 18.2745 207.971C18.5072 208.159 18.7399 208.351 18.9761 208.536C22.3712 211.222 25.6499 214.056 28.8191 217.006C35.469 223.197 41.6773 229.854 47.7556 236.603C59.9532 250.149 71.6786 264.236 85.4677 276.232C92.6343 282.468 100.352 287.916 108.61 292.612C117.42 297.619 126.647 301.828 135.857 306.028C145.07 310.231 154.307 314.423 163.13 319.41C171.885 324.355 180.034 330.242 187.539 336.929C202.458 350.225 214.755 366.177 226.648 382.146C228.099 384.097 229.56 386.013 231.121 387.882C231.398 388.214 231.723 388.354 232.041 388.368C258.904 423.424 289.573 455.472 323.031 484.344C316.747 481.469 310.737 478.112 305.087 474.07C298.112 469.076 291.664 463.375 285.421 457.505C281.616 453.929 277.861 450.284 274.097 446.649C273.963 446.406 273.83 446.167 273.7 445.937C273.056 444.777 272.334 443.665 271.53 442.614C269.877 440.444 267.933 438.51 265.896 436.697C265.824 436.635 265.749 436.573 265.677 436.512C265.571 436.217 265.359 435.971 264.989 435.875C264.959 435.868 264.928 435.858 264.897 435.851C262.864 434.106 260.769 432.425 258.706 430.707C255.814 427.23 252.727 423.914 249.472 420.762C248.972 419.916 248.483 419.064 247.918 418.267C247.675 417.924 247.145 418.164 247.155 418.551C243.609 415.279 239.892 412.202 236.056 409.331C224.177 400.439 210.932 393.351 196.917 388.467C182.553 383.464 167.418 380.78 152.202 380.674C136.541 380.565 120.931 383.036 106.043 387.892C91.1318 392.756 76.9834 400.049 64.4503 409.485C62.9102 410.645 61.3975 411.836 59.9087 413.058C58.7656 413.995 59.83 415.683 60.9971 415.423C60.7096 415.974 61.0381 416.826 61.7808 416.631C62.7768 416.371 63.759 416.069 64.7481 415.792C74.8615 422.856 86.0358 428.637 97.5216 433.052C110.455 438.021 124.025 440.92 137.886 441.3C152.825 441.71 167.682 439.698 182.446 437.675C196.294 435.783 210.203 433.87 224.211 434.013C237.356 434.147 250.66 436.022 262.768 441.348C263.884 441.837 264.986 442.354 266.095 442.867C268.203 444.818 270.287 446.793 272.368 448.771C272.601 449.301 272.861 449.808 273.371 450.147C273.539 450.26 273.765 450.301 273.984 450.297C276.071 452.286 278.156 454.278 280.247 456.256C292.472 467.817 305.614 479.642 321.515 485.857C323.226 486.524 324.982 487.048 326.751 487.527C367.48 522.179 412.057 552.129 458.897 577.876C456.464 577.13 454.03 576.391 451.611 575.635C441.093 572.359 430.556 569.142 419.973 566.079C405.863 562 391.673 558.177 377.405 554.696C369.896 552.051 362.339 549.545 354.752 547.163C338.401 542.036 321.819 537.574 304.981 534.356C288.96 531.293 272.714 529.373 256.396 529.123C240.686 528.884 224.933 530.106 209.525 533.224C194.36 536.294 179.527 541.188 165.714 548.197C165.344 548.303 164.971 548.392 164.602 548.501C162.076 549.261 159.557 550.035 157.048 550.846C155.861 551.229 156.426 553.307 157.654 552.978L158.017 552.886C171.508 561.356 186.28 567.674 201.554 572.158C216.914 576.665 232.811 579.321 248.811 579.95C265.438 580.604 281.917 578.917 298.269 575.984C313.38 573.27 328.349 569.796 343.478 567.174C349.922 566.647 356.37 566.161 362.829 565.805C370.899 565.36 378.969 565.196 387.049 564.994C388.47 564.96 389.887 564.881 391.303 564.799C404.145 566.569 416.917 568.93 429.474 571.942C431.514 572.431 433.543 572.958 435.57 573.489C438.284 574.29 440.998 575.08 443.708 575.891C447.278 576.956 450.837 578.058 454.4 579.153C463.665 582.305 472.755 585.96 481.581 590.208C485.873 592.778 490.278 595.163 494.812 597.306C496.924 598.305 499.06 599.236 501.229 600.105C501.561 600.239 501.856 600.218 502.123 600.14C502.814 600.475 503.512 600.793 504.207 601.129C504.638 601.45 505.069 601.765 505.497 602.09C506.445 602.809 507.376 603.76 508.581 603.959C508.94 604.017 509.259 603.87 509.481 603.63C543.801 619.873 579.056 634.152 614.927 646.579C621.553 648.875 628.199 651.097 634.877 653.232C636.694 653.828 637.851 651.086 636.016 650.474ZM306.956 349.184C313.205 342.743 319.506 336.371 325.372 329.571C337.162 315.912 347.4 300.802 353.441 283.689C353.53 283.436 353.608 283.179 353.694 282.93C353.629 283.176 353.585 283.429 353.52 283.676C351.401 291.691 348.468 299.491 344.724 306.887C340.982 314.272 336.478 321.271 331.293 327.73C325.933 334.407 319.725 340.249 313.4 345.991C309.964 349.109 306.579 352.33 303.458 355.766C302.866 356.419 302.284 357.09 301.702 357.761C301.805 357.497 301.921 357.244 302.017 356.974C302.503 355.584 303.044 354.215 303.584 352.846C304.666 351.587 305.802 350.372 306.956 349.184ZM305.296 348.705C306.476 345.988 307.712 343.294 309.057 340.653C312.709 333.476 316.922 326.607 321.285 319.844C329.972 306.38 339.359 293.313 346.969 279.185C350.833 272.012 354.259 264.537 356.562 256.71C356.234 264.924 354.991 272.974 352.524 280.859C349.82 289.494 345.884 297.732 341.177 305.449C331.697 320.991 319.273 334.232 306.682 347.254C306.223 347.726 305.761 348.212 305.296 348.705ZM337.604 328.014C331.632 335.256 324.403 341.036 316.973 346.696C313.773 349.133 310.474 351.642 307.339 354.335C309.3 352.364 311.288 350.423 313.291 348.49C319.369 342.617 325.581 336.888 331.012 330.396C341.714 317.609 349.724 302.513 354.522 286.551C355.864 282.084 356.956 277.539 357.777 272.95C357.935 272.06 358.092 271.16 358.243 270.256C358.246 282.036 355.905 293.813 351.442 304.751C348.02 313.143 343.375 321.018 337.604 328.014ZM356.442 254.633C354.006 262.1 350.942 269.339 347.26 276.276C343.461 283.433 339.116 290.267 334.609 296.989C325.666 310.323 316.025 323.202 308.307 337.319C306.175 341.224 304.173 345.211 302.445 349.311C301.955 350.471 301.521 351.652 301.079 352.833L301.011 352.922C300.672 353.589 300.337 354.256 299.998 354.92C299.707 355.31 299.423 355.704 299.146 356.101C301.904 346.046 305.645 336.275 310.08 326.829C316.094 314.019 323.339 301.828 331.156 290.048C339.014 278.207 347.575 266.885 355.922 255.389C356.103 255.143 356.271 254.886 356.442 254.633ZM300.295 311.021C306.764 293.892 317.921 278.751 332.193 267.306C338.812 261.998 346.059 257.531 353.763 253.999C350.429 258.206 347.28 262.556 344.111 266.895C339.845 272.734 335.649 278.624 331.594 284.61C323.561 296.459 316.063 308.697 309.738 321.549C303.554 334.112 298.54 347.237 295.367 360.893C295.162 361.772 294.987 362.659 294.796 363.541C292.106 345.93 293.998 327.702 300.295 311.021ZM233.065 245.601C233.434 259.842 235.296 274.041 238.26 287.967C241.196 301.763 245.204 315.313 249.889 328.609C254.602 341.988 260.006 355.119 265.725 368.093C270.811 379.634 276.256 391.024 281.972 402.27C280.938 400.863 279.88 399.477 278.796 398.125C278.621 397.91 278.436 397.701 278.262 397.485C273.166 388.423 268.118 379.336 263.24 370.157C253.736 352.271 245.077 333.88 239.526 314.344C234.15 295.415 231.405 275.694 231.371 256.015C231.353 245.792 232.127 235.631 233.551 225.562C233.037 232.226 232.894 238.92 233.065 245.601ZM279.278 392.068C276.112 385.606 273.042 379.097 270.068 372.546C264.212 359.65 258.637 346.628 253.644 333.373C248.681 320.186 244.307 306.76 240.957 293.07C237.589 279.312 235.269 265.304 234.403 251.162C233.53 236.894 234.307 222.657 236.672 208.566C236.802 207.8 236.956 207.04 237.096 206.277C237.545 204.305 238.003 202.337 238.5 200.376C238.493 200.459 238.493 200.541 238.486 200.623C236.333 212.714 235.803 225.042 236.508 237.301C237.305 251.125 239.543 264.797 242.774 278.254C245.988 291.657 250.146 304.813 254.712 317.811C259.332 330.971 264.336 343.992 269.226 357.053C272.864 366.759 276.441 376.499 279.661 386.356C280.582 390.545 281.575 394.72 282.69 398.861C281.547 396.602 280.39 394.347 279.278 392.068ZM253.161 283.583C258.381 299.327 264.007 314.964 268.227 331.015C271.841 344.762 274.227 358.777 276.893 372.727C275.596 369.103 274.281 365.489 272.95 361.885C268.138 348.869 263.066 335.954 258.298 322.918C253.538 309.895 249.061 296.749 245.498 283.34C241.977 270.092 239.307 256.594 238.017 242.938C236.977 231.942 236.983 220.836 238.157 209.85C238.15 218.498 238.968 227.157 240.392 235.686C243.116 252.021 247.959 267.895 253.161 283.583ZM239.249 189.548C238.421 191.834 237.432 194.093 236.74 196.42C236.049 198.74 235.419 201.078 234.824 203.426C233.581 208.306 232.572 213.248 231.716 218.207C230.015 228.047 228.999 238.003 228.663 247.983C227.999 267.806 229.981 287.718 234.663 306.996C239.482 326.836 247.367 345.628 256.68 363.75C260.763 371.697 265.061 379.535 269.445 387.324C266.978 384.596 264.497 381.879 262.073 379.114C250.848 366.297 241.032 352.23 233.188 337.097C225.402 322.076 219.573 305.987 216.633 289.299C213.731 272.833 213.646 255.875 216.599 239.41C218.615 228.177 222.103 217.259 226.976 206.978C229.598 202.663 232.414 198.463 235.436 194.414C236.669 192.761 237.949 191.149 239.249 189.548ZM237.552 188.709C237.552 188.709 237.555 188.716 237.558 188.723C237.524 188.761 237.497 188.802 237.463 188.843C237.493 188.798 237.521 188.754 237.552 188.709ZM233.831 351.624C228.492 344.899 223.608 337.788 219.662 330.156C215.189 321.501 211.869 312.257 209.751 302.749C205.517 283.761 205.983 263.921 210.767 245.081C213.262 235.262 216.931 225.816 221.507 216.818C219.632 221.897 218.05 227.085 216.811 232.349C212.982 248.65 212.167 265.663 214.186 282.276C216.24 299.155 221.168 315.72 228.205 331.179C235.306 346.775 244.592 361.382 255.41 374.664C261.286 381.879 267.916 388.618 273.96 395.774C272.118 393.645 270.26 391.53 268.361 389.456C256.83 376.872 244.461 365.017 233.831 351.624ZM216.781 115.537C213.765 127.481 209.682 139.166 204.658 150.412C199.607 161.716 193.583 172.576 186.629 182.819C183.172 187.912 179.503 192.864 175.622 197.638C171.734 202.42 167.514 206.882 163.445 211.503C162.808 212.225 162.148 212.923 161.494 213.628C161.518 213.348 161.556 213.07 161.583 212.79C171.854 196.773 181.731 180.502 191.009 163.89C195.828 155.262 200.442 146.514 204.73 137.609C209.015 128.714 213.136 119.764 216.675 110.54C217.653 107.984 218.622 105.413 219.539 102.826C218.742 107.09 217.842 111.334 216.781 115.537ZM222.123 85.1627C222.003 86.3298 221.849 87.49 221.712 88.6536C221.435 90.2998 221.072 91.9289 220.631 93.5409C219.334 98.2673 217.684 102.912 216.011 107.515C212.691 116.643 209.049 125.722 204.925 134.518C196.65 152.161 187.07 169.136 177.008 185.81C171.96 194.178 166.843 202.502 161.792 210.866C161.888 209.973 161.97 209.08 162.076 208.19C162.873 205.055 163.821 201.968 165.023 198.932C166.984 193.99 169.38 189.233 171.919 184.565C177.292 174.691 183.073 165.046 188.381 155.135C193.836 144.946 199.104 134.655 204.176 124.271C209.21 113.966 214.186 103.593 218.803 93.0891C219.994 90.3786 221.141 87.5653 222.15 84.687C222.147 84.8444 222.133 85.0019 222.123 85.1627ZM223.081 59.8571L223.146 60.2267C223.252 65.2954 223.167 70.3674 222.893 75.4327C221.935 80.3679 220.289 85.2209 218.434 89.9302C214.248 100.564 209.261 110.906 204.289 121.194C199.319 131.475 194.162 141.668 188.819 151.757C183.525 161.757 177.966 171.611 172.542 181.539C169.688 186.765 166.902 192.032 164.657 197.553C164.037 199.072 163.452 200.619 162.911 202.183C163.359 199.329 163.866 196.485 164.468 193.662C168.158 176.364 174.886 160.169 183.309 144.669C191.913 128.837 201.794 113.709 209.778 97.5418C215.614 85.7377 220.764 72.989 223.081 59.8571ZM156.98 200.37C155.361 193.111 154.512 185.68 154.488 178.243C154.451 165.81 156.566 153.362 160.851 141.688C165.31 129.535 172.248 118.71 180.201 108.562C188.309 98.216 197.266 88.5544 205.024 77.9345C206.934 75.3197 208.799 72.6228 210.576 69.8541C204.689 82.281 197.82 94.2733 191.006 106.18C179.168 126.869 167.302 147.955 161.169 171.162C158.674 180.598 157.035 190.516 156.98 200.37ZM157.952 204.35C157.815 200.274 157.863 196.184 158.257 192.142C158.821 186.286 159.882 180.488 161.299 174.78C164.195 163.12 168.603 151.866 173.74 141.024C183.867 119.661 196.989 99.917 207.937 78.992C213.502 68.3585 218.444 57.4066 222.085 45.9687C221.504 53.0498 220.597 60.0384 218.793 66.9724C216.531 75.6551 213.255 84.0573 209.47 92.1822C201.828 108.586 191.981 123.816 183.162 139.583C174.537 155.001 167.295 170.977 163.082 188.189C161.388 195.12 160.17 202.16 159.372 209.244C158.849 207.629 158.387 205.993 157.952 204.35ZM124.494 63.0639C126.79 68.3927 128.984 73.7694 130.976 79.2179C134.967 90.1424 138.037 101.43 139.211 113.025C141.507 135.706 137.277 158.345 137.116 181.033C136.9 179.811 136.668 178.592 136.455 177.367C135.952 172.723 135.685 168.055 135.528 163.386C135.206 154.009 135.169 144.621 134.909 135.24C134.392 116.677 133.646 97.8532 128.574 79.8716C127.174 74.9125 125.531 70.0286 124.063 65.09C123.296 62.506 122.55 59.9152 121.941 57.2902L121.91 57.1294C122.772 59.1144 123.642 61.0857 124.494 63.0639ZM121.277 63.2761C122.581 67.8211 124.176 72.2772 125.63 76.7709C128.522 85.6932 130.606 94.8004 131.808 104.103C134.217 122.765 133.598 141.579 134.344 160.337C134.429 162.49 134.539 164.639 134.652 166.792C134.306 164.742 133.947 162.692 133.605 160.638C131.719 149.313 129.943 137.978 128.382 126.605C126.825 115.243 125.209 103.87 123.878 92.4799C123.132 86.0868 122.519 79.6731 121.91 73.2663C121.558 69.57 121.287 65.8532 120.959 62.1433C121.065 62.5197 121.171 62.8996 121.277 63.2761ZM119.795 58.5155C120.072 62.7798 120.538 67.0408 120.931 71.2881C121.458 77.0036 122.016 82.7157 122.612 88.4209C123.809 99.9135 124.881 111.406 126.318 122.875C129.176 145.651 132.564 168.359 136.575 190.961C136.722 191.8 136.88 192.638 137.03 193.477C126.198 153.869 120.106 112.957 119.74 71.8802C119.706 67.4241 119.73 62.9715 119.795 58.5155ZM123.108 196.978C115.195 186.231 107.758 175.047 102.224 162.866C96.8816 151.11 93.3838 138.488 93.1408 125.524C92.9047 112.84 95.6837 100.28 100.109 88.4483C101.42 84.9403 102.885 81.4938 104.449 78.0919C100.694 92.0179 99.6606 106.704 100.787 121.109C102.72 145.802 111.321 169.362 122.615 191.232C125.808 197.409 129.238 203.457 132.835 209.408C133.314 210.202 133.8 210.993 134.282 211.787C130.545 206.859 126.773 201.958 123.108 196.978ZM135.685 210.555C132.444 205.312 129.326 199.99 126.349 194.589C120.404 183.805 115.161 172.651 110.989 161.063C102.922 138.656 99.0856 114.51 102.614 90.8029C103.483 84.9608 104.825 79.1905 106.608 73.5674C109.579 67.5679 112.868 61.7257 116.366 56.0239C114.593 60.2472 113.337 64.7443 112.344 69.1696C111.088 74.7653 110.27 80.4568 109.818 86.1724C108.908 97.6479 109.435 109.212 110.763 120.637C113.474 143.902 119.052 166.966 127.14 188.945C130.237 197.361 133.789 205.613 137.691 213.697C137.02 212.646 136.339 211.612 135.685 210.555ZM119.781 159.375C113.83 137.143 109.777 113.826 110.835 90.7379C111.126 84.3653 111.831 78.0064 113.07 71.7467C114.343 65.3193 116.352 59.1794 118.296 52.9368V52.9163L118.395 52.7589C115.753 107.101 123.898 161.73 140.183 213.556C140.268 213.83 140.364 214.104 140.453 214.381C131.835 196.769 124.846 178.291 119.781 159.375ZM58.0914 208.696C74.4234 212.02 90.5569 217.013 105.174 225.152C120.144 233.489 132.619 245.276 143.133 258.712C153.934 272.518 162.726 287.728 171.433 302.9C173.398 306.325 175.369 309.755 177.357 313.174C167.436 301.435 157.12 290.021 146.203 279.199C133.697 266.806 120.452 255.153 106.283 244.694C92.5727 234.574 78.0307 225.521 62.7083 218.05C50.7981 212.245 38.3986 207.348 25.6328 203.771C36.4991 205.065 47.3449 206.513 58.0914 208.696ZM144.782 306.887C126.606 298.488 108.056 290.764 92.2099 278.258C77.815 266.899 65.7646 252.983 53.543 239.406C49.063 234.43 44.5248 229.447 39.8257 224.631C41.4891 225.908 43.149 227.188 44.8123 228.465C54.7716 236.114 64.7105 243.794 74.6424 251.477C94.5064 266.847 114.555 281.982 134.522 297.215C140.056 301.435 145.587 305.658 151.117 309.878C149.012 308.862 146.901 307.866 144.782 306.887ZM159.037 313.845C157.439 312.623 155.84 311.404 154.242 310.183C149.252 306.373 144.259 302.564 139.269 298.752C129.285 291.133 119.309 283.508 109.319 275.893C89.3419 260.67 69.3034 245.529 49.2854 230.357C44.0285 226.373 38.7785 222.383 33.5181 218.406C27.7958 212.947 21.7722 207.827 15.2798 203.303C27.9361 210.651 40.7772 217.67 53.365 225.138C66.5723 232.975 79.54 241.227 91.9258 250.314C104.13 259.263 115.592 269.041 126.472 279.558C137.167 289.901 147.448 300.678 158.53 310.621C161.936 313.674 165.427 316.634 169.006 319.481C165.738 317.503 162.422 315.614 159.037 313.845ZM182.227 326.819C176.077 322.712 170.194 318.263 164.554 313.482C153.109 303.789 142.63 293.04 131.924 282.553C121.068 271.92 109.853 261.765 97.7235 252.593C85.3753 243.256 72.3562 234.817 59.0942 226.846C45.9075 218.923 32.4537 211.434 18.8529 204.254C18.0486 203.83 17.2375 203.419 16.4263 203.001C30.1059 206.66 43.4741 211.479 56.3015 217.472C71.7231 224.672 86.3883 233.441 100.222 243.345C114.35 253.462 127.591 264.77 140.063 276.858C153.082 289.477 165.252 302.958 176.854 316.884C180.55 321.323 184.178 325.816 187.768 330.337C187.929 330.587 188.097 330.83 188.258 331.08C186.314 329.561 184.25 328.174 182.227 326.819ZM67.4108 415.046C75.8642 412.589 84.215 409.772 92.7335 407.53C103.076 404.806 113.566 402.633 124.162 401.165C144.464 398.355 165.139 398.214 185.359 401.75C204.364 405.073 222.958 411.576 239.396 421.768C244.071 424.667 248.479 427.904 252.744 431.323C252.884 431.488 253.028 431.645 253.165 431.809C250.033 430.83 246.888 429.903 243.729 429.02C237.367 427.244 230.953 425.649 224.498 424.259C211.671 421.504 198.638 419.615 185.575 418.445C172.552 417.278 159.468 416.881 146.401 417.284C133.584 417.678 120.852 419.088 108.056 419.762C94.5064 420.474 81.0082 419.776 68.0884 415.467C67.8625 415.32 67.6367 415.186 67.4108 415.046ZM251.857 426.72C252.008 426.895 252.159 427.066 252.313 427.24C252.094 427.069 251.868 426.905 251.645 426.734C251.005 426.012 250.352 425.303 249.701 424.591C250.423 425.3 251.152 425.998 251.857 426.72ZM72.7019 418.256C82.2677 421.21 92.535 421.758 102.491 421.518C115.226 421.213 127.889 419.618 140.61 419.067C166.878 417.928 193.357 420.224 219.094 425.536C226.336 427.032 233.537 428.722 240.669 430.676C240.868 430.731 241.066 430.796 241.265 430.851C236.206 430.016 231.131 429.301 226.066 428.674C212.995 427.062 199.829 426.422 186.67 426.279C173.377 426.135 160.149 426.973 146.894 427.901C133.776 428.818 120.534 429.482 107.419 428.181C96.5119 427.1 85.6456 424.564 75.6692 419.978C74.6767 419.417 73.6876 418.838 72.7019 418.256ZM146.63 383.409C161.611 382.913 176.669 384.939 190.992 389.354C203.132 393.094 214.761 398.481 225.494 405.275C215.175 399.813 203.799 396.37 192.478 393.724C177.607 390.247 162.336 388.221 147.055 388.139C132.653 388.057 118.21 389.74 104.281 393.44C96.2381 395.576 88.387 398.41 80.8645 401.948C87.4595 398.194 94.3489 394.96 101.475 392.311C115.921 386.941 131.229 383.919 146.63 383.409ZM64.1355 413.126C65.6208 411.966 67.1336 410.843 68.6668 409.748C72.6129 407.359 76.6343 405.104 80.8131 403.126C86.9256 400.23 93.2606 397.8 99.7291 395.832C113.306 391.701 127.485 389.645 141.668 389.477C156.665 389.299 171.614 391.038 186.252 394.261C200.011 397.294 214.012 401.182 226.357 408.133C232.257 411.453 237.476 415.611 242.305 420.211C227.017 410.467 209.891 403.81 192.183 400.008C172.248 395.73 151.661 395.131 131.418 397.253C120.705 398.375 110.079 400.261 99.599 402.739C89.1605 405.207 78.7254 408.109 68.7045 411.956C67.3937 412.459 66.1 412.979 64.8131 413.523C64.5872 413.39 64.3614 413.256 64.1355 413.126ZM189.942 434.003C175.119 436.012 160.3 438.449 145.316 438.832C131.147 439.195 117.173 437.248 103.73 432.733C97.1999 430.54 90.8512 427.846 84.6805 424.78C102.303 430.711 121.913 430.611 140.285 429.571C153.821 428.804 167.333 427.757 180.903 427.778C194.144 427.795 207.304 428.808 220.449 430.358C222.972 430.656 225.484 431.008 227.993 431.371C215.258 430.978 202.55 432.295 189.942 434.003ZM487.433 589.461C487.464 589.465 487.495 589.465 487.526 589.472C487.594 589.52 487.663 589.564 487.728 589.612C487.632 589.561 487.529 589.509 487.433 589.461ZM472.115 579.851C472.132 579.776 472.139 579.69 472.125 579.601C472.097 579.434 472.056 579.266 472.029 579.095C472.344 579.56 472.645 580.036 472.984 580.481C472.686 580.286 472.409 580.057 472.115 579.851ZM432.575 433.271C440.128 450.383 446.511 468.029 451.611 486.024C456.707 503.996 460.519 522.333 462.994 540.849C463.223 542.553 463.415 544.271 463.599 545.993C462.894 543.327 462.2 540.657 461.488 537.991C457.792 524.144 453.982 510.321 449.917 496.576C445.861 482.862 441.538 469.224 436.901 455.691C432.253 442.128 427.243 428.688 421.767 415.436C418.539 407.623 415.124 399.885 411.544 392.229C419.337 405.494 426.363 419.204 432.575 433.271ZM406.287 383.508C406.462 383.792 406.633 384.08 406.807 384.36C411 393.125 414.973 401.996 418.717 410.96C424.217 424.129 429.241 437.494 433.913 450.979C438.598 464.497 442.9 478.143 446.949 491.863C451.022 505.669 454.879 519.537 458.586 533.446C460.752 541.571 462.86 549.71 464.955 557.852C465.52 561.859 466.266 565.829 467.484 569.68C467.908 571.018 468.435 572.339 469.01 573.639C469.13 574.105 469.25 574.574 469.37 575.039C469.678 576.244 470.023 577.421 470.397 578.595C462.145 572.329 455.581 563.848 450.858 554.539C442.148 537.378 439.707 517.953 437.418 499.088C436.247 489.45 435.046 479.826 433.304 470.274C431.62 461.051 429.536 451.903 427.072 442.86C422.167 424.855 415.791 407.257 407.978 390.305C405.144 384.152 402.115 378.09 398.912 372.122C401.431 375.873 403.891 379.668 406.287 383.508ZM379.89 346.196C383.021 351.097 386.225 355.957 389.195 360.954C394.031 369.089 398.508 377.44 402.628 385.962C410.825 402.907 417.591 420.543 422.831 438.62C428.191 457.115 431.658 475.98 434.019 495.077C436.391 514.256 438.42 534.096 446.586 551.859C446.97 552.694 447.394 553.522 447.808 554.35C447.449 553.765 447.083 553.187 446.723 552.602C442.449 545.582 438.482 538.374 434.82 531.016C427.503 516.313 421.455 500.994 416.749 485.258C412.156 469.905 409.056 454.175 406.119 438.439C403.203 422.815 400.311 407.137 396.249 391.763C392.518 377.659 387.71 363.651 380.67 350.82C380.451 350.143 380.256 349.458 380.02 348.787C379.698 347.873 379.359 346.963 379.01 346.063C378.835 345.526 378.678 344.981 378.493 344.444C378.962 345.026 379.424 345.611 379.89 346.196ZM382.155 355.865C386.978 365.999 390.749 376.619 393.733 387.451C397.95 402.766 400.756 418.41 403.556 434.034C406.383 449.818 409.333 465.623 413.642 481.082C418.033 496.846 423.745 512.244 430.665 527.073C431.442 528.74 432.24 530.397 433.047 532.053C427.27 520.78 422.123 509.181 417.554 497.367C412.126 483.331 407.509 468.998 403.498 454.497C399.271 439.216 395.592 423.76 392.306 408.249C389.616 395.559 387.275 382.796 384.777 370.068C384.284 365.273 383.387 360.523 382.155 355.865ZM421.312 524.893C410.61 507.138 402.649 487.722 397.084 467.776C391.461 447.635 388.24 426.898 386.796 406.052C386.225 397.793 385.855 389.453 385.194 381.153C385.218 380.034 385.218 378.915 385.205 377.796C386.724 386.222 388.299 394.638 389.969 403.04C393.09 418.732 396.468 434.366 400.551 449.839C404.401 464.418 408.785 478.872 413.933 493.047C418.916 506.768 424.645 520.208 431.305 533.2C435.108 540.62 439.197 547.923 443.623 555.008C435.238 545.719 427.763 535.595 421.312 524.893ZM460.287 575.118C460.033 574.978 459.783 574.834 459.53 574.694C459.605 574.69 459.681 574.68 459.753 574.656C459.934 574.806 460.105 574.967 460.287 575.118ZM458.579 574.03L458.767 574.262C458.692 574.221 458.62 574.177 458.545 574.136C458.551 574.101 458.575 574.071 458.579 574.03ZM182.741 548.467C190.109 547.509 197.498 546.705 204.901 546.061C219.796 544.768 234.738 544.138 249.688 544.165C264.551 544.193 279.412 544.853 294.221 546.14C309.033 547.427 323.77 549.36 338.425 551.862C352.007 554.183 365.46 557.099 378.818 560.46C375.889 560.494 372.963 560.607 370.04 560.788C350.162 559.265 330.266 558.587 310.323 558.433C286.647 558.252 262.967 558.581 239.294 558.132C215.812 557.691 192.296 556.493 169.013 553.296C167.405 553.074 165.8 552.855 164.191 552.636C163.938 552.516 163.685 552.389 163.431 552.27C164.164 551.876 164.893 551.482 165.632 551.099C171.323 550.137 177.015 549.213 182.741 548.467ZM358.417 561.87C354.283 561.832 350.148 561.787 346.014 561.794C330.55 561.818 315.087 562.178 299.642 562.886C284.124 563.598 268.645 564.864 253.141 565.764C237.993 566.641 222.787 567.024 207.684 565.244C194.076 563.642 180.55 560.34 168.12 554.487C188.655 557.615 209.522 558.817 230.251 559.416C253.695 560.093 277.149 559.857 300.597 559.946C320.396 560.021 340.205 560.364 359.964 561.688C359.447 561.743 358.934 561.805 358.417 561.87ZM163.62 553.793C164.191 553.888 164.769 553.964 165.344 554.056C176.467 560.1 189.007 563.526 201.445 565.484C216.086 567.79 231.025 568.003 245.81 567.469C261.492 566.901 277.143 565.603 292.817 564.898C308.554 564.19 324.304 563.824 340.058 563.803C341.707 563.8 343.358 563.817 345.011 563.824C340.42 564.601 335.841 565.456 331.276 566.363C320.009 567.438 308.749 568.588 297.472 569.553C282.31 570.85 267.104 571.74 251.881 571.613C237.507 571.494 223.112 570.487 208.95 567.972C194.713 565.446 180.906 561.411 167.648 555.63C166.292 555.042 164.954 554.422 163.62 553.793ZM379.903 558.221C382.217 559.022 384.53 559.813 386.847 560.607C385.506 560.538 384.161 560.494 382.819 560.463C370.156 556.845 357.195 554.125 344.272 551.684C329.599 548.912 314.786 546.848 299.926 545.39C284.994 543.926 269.993 543.115 254.989 542.94C240.142 542.765 225.285 543.227 210.473 544.268C201.968 544.867 193.477 545.702 185.006 546.705C196.639 544.466 208.375 542.793 220.193 541.811C241.491 540.038 262.929 540.233 284.224 541.91C305.611 543.597 326.854 546.797 347.883 551.024C358.609 553.18 369.28 555.603 379.903 558.221ZM204.583 536.889C219.72 533.367 235.289 531.718 250.82 531.615C266.834 531.509 282.817 533.042 298.591 535.746C315.341 538.617 331.84 542.793 348.102 547.697C349.43 548.098 350.744 548.539 352.068 548.953C332.087 544.805 311.918 541.537 291.596 539.613C270.359 537.604 248.965 537.026 227.664 538.33C216.921 538.987 206.205 540.127 195.572 541.811C190.263 542.649 184.948 543.594 179.671 544.713C187.762 541.475 196.095 538.86 204.583 536.889ZM256.033 577.452C240.077 577.476 224.105 575.412 208.642 571.48C200.811 569.488 193.101 566.983 185.581 564.029C183.039 563.03 180.544 561.941 178.062 560.822C186.187 563.834 194.569 566.182 203.026 567.944C217.143 570.888 231.566 572.346 245.971 572.828C260.886 573.328 275.811 572.732 290.689 571.685C298.803 571.114 306.904 570.415 315.005 569.69C311.908 570.326 308.811 570.96 305.71 571.569C289.326 574.783 272.775 577.425 256.033 577.452Z" fill="white"/>
</g>
<defs>
<linearGradient id="paint0_linear_1_762" x1="253.163" y1="593.117" x2="282.375" y2="540.71" gradientUnits="userSpaceOnUse">
<stop stop-color="#D02964"/>
<stop offset="1" stop-color="#FC8F59"/>
</linearGradient>
<linearGradient id="paint1_linear_1_762" x1="104.552" y1="323.563" x2="175.174" y2="278.04" gradientUnits="userSpaceOnUse">
<stop stop-color="#D02964"/>
<stop offset="1" stop-color="#FC8F59"/>
</linearGradient>
<clipPath id="clip0_1_762">
<rect width="640" height="653.69" fill="white" transform="translate(0 0.155029)"/>
</clipPath>
</defs>
</svg>
