<svg width="640" height="728" viewBox="0 0 640 728" fill="none" xmlns="http://www.w3.org/2000/svg">
<path d="M386.534 72.1848C387.969 55.6551 386.792 35.1697 371.891 27.8662C359.489 21.7889 344.743 28.8853 333.75 37.243C288.998 71.2732 265.533 126.281 250.667 180.501C238.031 226.592 230.257 274.007 227.409 321.712C225.976 345.687 212.671 426.889 244.539 434.053C280.095 442.048 299.926 377.072 310.801 353.809C330.195 312.316 346.189 269.235 358.581 225.142C372.626 175.174 382.043 123.898 386.534 72.1848Z" fill="#52D2EC"/>
<path d="M434.921 364.024C475.141 352.238 515.902 340.799 552.678 320.698C589.456 300.597 622.484 270.67 637.841 231.674C548.959 231.499 460.23 259.422 387.466 310.466C371.652 321.561 356.545 333.982 343.718 348.479C336.323 356.836 311.995 383.663 317.553 395.952C324.464 411.231 418.135 368.943 434.921 364.024Z" fill="#52D2EC"/>
<path d="M187.062 421.213C176.849 382.428 158.284 346.333 137.398 312.096C140.415 317.041 127.564 351.117 126.224 358.294C123.221 374.393 121.096 390.657 119.835 406.985C117.27 440.179 118.292 473.644 122.852 506.623C125.851 528.305 127.061 572.191 150.05 583.657C175.061 596.132 184.438 546.537 189.006 529.497C198.485 494.138 196.321 456.375 187.062 421.213Z" fill="#52D2EC"/>
<path d="M311.454 520.48C341.623 499.669 369.936 475.148 404.06 461.775C439.209 448.004 478.201 447.025 513.861 434.634C525.679 430.525 539.087 421.869 537.594 409.445C535.986 396.059 518.999 391.469 505.524 391.02C446.08 389.033 387.34 406.1 335.838 435.252C311.54 449.007 211.527 506.045 235.065 543.95C249.443 567.114 296.806 530.583 311.454 520.48Z" fill="url(#paint0_linear_1_770)"/>
<path d="M459.791 226.804C503.919 181.593 541.408 128.483 560.379 68.2211C563.73 57.5804 566.516 46.5014 565.588 35.3848C564.66 24.2682 559.451 12.9983 549.902 7.2329C536.371 -0.939193 518.76 3.95226 504.817 11.3983C470.607 29.6705 445.472 61.0762 423.691 93.1649C390.454 142.133 362.665 194.793 340.916 249.833C335.29 264.069 330.07 278.463 325.262 292.995C322.606 301.03 309.789 327.219 313.664 335.044C321.931 351.735 370.503 305.195 380.332 297.378C408.075 275.322 435.022 252.183 459.791 226.804Z" fill="url(#paint1_linear_1_770)"/>
<path d="M602.082 248.244C601.719 248.623 601.35 248.994 600.985 249.373C600.372 248.991 599.535 248.957 598.954 249.68C597.026 252.076 595.039 254.421 593.036 256.755C592.318 257.212 591.605 257.677 590.884 258.126C583.108 261.184 575.229 263.964 567.202 266.32C556.486 269.466 545.611 271.972 534.704 274.344C513.108 279.041 491.313 282.884 469.943 288.588C450.066 293.893 430.817 301.03 412.666 310.759C395.442 319.993 379.286 331.217 364.639 344.155C349.938 357.135 336.721 371.814 325.448 387.866C324.064 389.839 322.708 391.835 321.38 393.846C321.141 394.209 321.114 394.583 321.211 394.914C310.669 404.61 300.685 414.923 291.144 425.572C274.084 444.616 258.146 464.784 242.966 485.385C245.098 481.701 247.05 477.928 248.847 474.088C250.519 471.684 251.807 469 252.775 466.169C259.619 453.457 266.783 440.924 274.426 428.678C287.992 406.939 303.097 386.274 319.769 366.815C336.245 347.586 353.885 329.402 371.335 311.066C388.763 292.75 406.048 274.247 421.766 254.423C436.908 235.323 450.34 214.937 461.795 193.416C484.408 150.934 499.373 104.274 505.496 56.5263C505.867 56.5021 506.23 56.2816 506.335 55.7895C507.738 49.2577 508.427 42.5673 509.346 35.9468C509.518 34.7152 507.668 34.1021 507.133 35.1508C506.418 34.4006 505.033 34.3038 504.619 35.5354C489.036 82.0698 458.993 121.492 428.542 159.26C398.123 196.987 366.505 234.487 345.743 278.678C334.371 302.885 326.707 328.867 325.303 355.664L325.317 355.75C308.919 374.229 293.664 393.604 280.019 414.219C272.143 426.118 264.75 438.326 257.713 450.742C257.973 449.876 258.194 448.996 258.444 448.128C269.841 427.914 280.864 407.447 289.541 385.9C294.287 374.116 298.313 362.037 301.252 349.673C304.396 336.442 305.988 322.984 306.727 309.417C307.491 295.386 307.518 281.322 308.341 267.293C309.11 254.16 310.755 241.156 313.802 228.347C319.535 204.251 329.095 181.305 337.479 158.063C344.124 139.646 350.175 120.741 352.856 101.305C352.915 101.084 352.958 100.864 353.014 100.641C353.052 100.589 353.092 100.544 353.116 100.477C355.297 94.5202 356.373 88.0315 356.115 81.6342C356.386 80.5209 356.671 79.413 356.889 78.2755C357.016 77.614 356.257 77.2187 355.727 77.3935C355.668 76.9579 355.628 76.5196 355.553 76.0866C355.262 74.3844 353.098 74.6291 352.713 76.1216C352.576 76.6513 352.42 77.1784 352.277 77.7081C351.732 77.8614 351.288 78.2621 351.29 78.9209C351.293 79.7465 351.266 80.5666 351.253 81.3868C349.908 85.9663 348.367 90.5108 346.671 94.9451C345.525 97.9407 344.264 100.893 342.836 103.765C341.354 106.742 339.585 109.555 338.093 112.521C337.931 112.841 337.961 113.123 338.084 113.355C337.565 114.097 337.068 114.85 336.53 115.584C328.054 127.152 318.091 137.502 307.916 147.57C297.514 157.861 286.882 167.964 277.36 179.097C268.082 189.942 260.181 201.806 254.311 214.838C242.627 240.782 238.679 269.611 238.687 297.868C238.698 329.612 243.775 361.037 247.914 392.426C250.062 408.73 251.977 425.096 252.783 441.529C252.999 445.907 253.036 450.634 252.55 455.297C249.401 460.933 246.461 466.68 243.708 472.52C246.131 459.882 246.174 446.832 244.442 434.058C242.135 417.039 236.676 400.609 229.886 384.889C222.902 368.714 214.631 353.088 206.152 337.658C201.831 329.792 197.38 321.997 192.844 314.252C188.458 306.766 183.844 299.414 179.549 291.874C175.43 284.64 171.689 277.146 169.196 269.181C167.303 263.136 166.225 256.817 165.83 250.473C165.975 247.671 166.201 244.864 166.523 242.054C166.687 240.634 166.892 239.219 167.12 237.81C167.352 236.866 167.594 235.923 167.817 234.976C167.876 234.729 167.801 234.522 167.661 234.363C167.481 233.658 166.244 233.427 166.007 234.255C165.824 234.901 165.66 235.549 165.496 236.197L165.222 236.404C164.883 237.808 164.625 239.222 164.404 240.637C162.197 248.222 160.182 255.87 158.373 263.558C156.063 273.365 154.156 283.271 153.048 293.291C151.018 311.649 151.774 330.564 157.456 348.247C163.108 365.834 174.254 380.379 186.213 394.158C198.3 408.087 210.794 421.804 220.267 437.726C229.757 453.675 236.286 472.155 235.06 490.935C235.014 491.648 234.963 492.358 234.912 493.068C234.503 494.097 234.089 495.125 233.699 496.163C233.479 496.746 233.263 497.33 233.043 497.913C232.446 499.145 231.836 500.371 231.244 501.605L231.064 501.858L230.948 502.227C227.84 508.715 224.812 515.244 221.821 521.784C218.312 527.84 215.29 534.17 212.856 540.723C212.232 542.404 211.659 544.101 211.111 545.808C210.248 547.79 209.376 549.769 208.521 551.751C193.325 586.986 179.194 622.743 166.437 658.962C166.338 659.142 166.233 659.322 166.133 659.505C166.8 641.728 165.198 623.977 161.831 606.525C162.073 602.674 162.509 598.815 162.898 594.986C163.366 590.377 163.955 585.779 164.606 581.191C164.813 579.723 165.042 578.26 165.265 576.795C165.606 575.754 165.98 574.727 166.34 573.691C166.445 573.449 166.566 573.215 166.669 572.973C167.556 570.916 168.392 568.838 169.175 566.74C169.589 565.624 169.998 564.506 170.374 563.379C170.648 562.556 170.963 561.749 171.052 560.902C172.012 558.372 172.969 555.841 173.891 553.297C180.084 536.198 183.841 518.262 185.048 500.116C186.253 481.994 184.989 463.706 181.254 445.931C179.382 437.019 176.882 428.242 173.754 419.688C170.646 411.185 166.825 403.013 162.753 394.935C156.759 383.044 150.171 370.914 146.635 357.979C146.635 357.974 146.635 357.968 146.635 357.968C146.439 355.731 146.245 353.494 146.049 351.259C145.659 346.785 145.269 342.313 144.876 337.838C144.79 336.851 143.599 336.647 142.972 337.163C142.929 337.168 142.886 337.166 142.846 337.176C142.185 337.069 141.41 337.419 141.311 338.214C141.262 338.604 141.243 338.994 141.208 339.387C140.945 340.167 140.8 341.011 140.59 341.821C140.168 343.442 139.756 345.053 139.407 346.69C139.057 348.32 138.675 349.942 138.326 351.571C137.96 353.263 137.782 354.967 137.417 356.659V356.758C137.137 357.549 136.898 358.353 136.645 359.154C136.623 359.149 136.618 359.13 136.594 359.13C136.255 359.13 136.182 359.611 136.478 359.673C133.415 369.626 132.426 380.29 132.746 390.582C133.284 407.878 137.731 424.687 142.843 441.123C148.273 458.577 154.304 475.817 157.977 493.761C161.602 511.477 163.404 529.577 163.364 547.661C163.342 557.6 162.751 567.504 161.67 577.357C161.355 577.991 161.046 578.631 160.723 579.263C160.422 577.445 159.986 575.652 159.327 573.912C158.015 570.448 156.006 567.302 154.043 564.183C153.5 563.317 152.93 562.456 152.355 561.593C152.102 560.937 151.879 560.273 151.615 559.62C151.459 559.23 151.115 559.135 150.814 559.23C149.867 557.734 148.993 556.204 148.302 554.599C146.035 531.903 141.797 509.425 135.588 487.474C129.253 465.074 120.981 443.234 110.792 422.299C100.781 401.728 88.809 382.307 75.7482 363.548C63.0611 345.324 49.6615 327.601 37.3401 309.124C28.8319 296.367 20.8857 283.191 14.1146 269.434C14.2115 269.267 14.268 269.074 14.2491 268.85C14.1523 267.683 13.5553 266.836 13.0095 265.822C12.4636 264.809 11.9419 263.781 11.4498 262.741C10.4629 260.659 9.58624 258.527 8.82255 256.354C7.79801 253.445 7.01014 250.46 6.40778 247.437C6.42661 247.123 6.44003 246.808 6.46423 246.493C6.49112 246.125 6.31905 245.859 6.07972 245.708C5.91568 244.756 5.75703 243.804 5.63333 242.847C5.4935 241.774 4.35871 241.65 3.71871 242.183C3.60308 242.129 3.47669 242.081 3.33148 242.046C2.98459 241.96 2.53011 242.183 2.33649 242.465L2.18053 242.774C1.75834 242.885 1.38189 243.315 1.5513 243.861C1.77449 244.573 2.03533 245.272 2.26928 245.98C2.53012 250.422 3.01683 254.862 3.64877 259.285C2.42794 279.671 3.84776 300.312 7.3328 320.359C11.5627 344.684 18.9711 368.502 29.4289 390.872C40.2551 414.036 54.5879 435.183 70.1576 455.391C85.9344 475.868 102.733 495.59 117.456 516.863C131.541 537.211 143.93 559.219 150.787 583.125C151.51 585.647 152.174 588.191 152.833 590.735C152.408 590.643 151.868 590.945 152 591.453C152.669 594.021 153.075 596.643 153.739 599.216C154.388 601.728 154.995 604.247 155.565 606.778C156.719 611.911 157.746 617.074 158.601 622.267C160.312 632.655 161.401 643.145 161.793 653.665C162.014 659.575 161.739 665.48 161.893 671.386C161.895 671.536 161.936 671.662 161.987 671.781C158.295 682.575 154.702 693.398 151.279 704.276C149.23 710.786 147.253 717.315 145.323 723.863C145.04 724.82 146.46 725.436 146.78 724.465C152.586 706.771 158.566 689.144 164.754 671.595C165.103 671.418 165.378 671.098 165.423 670.576C165.458 670.192 165.48 669.807 165.512 669.422C166.908 665.475 168.317 661.533 169.737 657.593L170.003 657.241C170.213 657.381 170.498 657.416 170.767 657.241C187.936 646.124 206.795 638.267 225.909 631.184C245.001 624.109 264.398 617.486 282.461 607.985C291.281 603.347 299.676 597.958 307.512 591.797C315.381 585.609 322.687 578.75 329.684 571.602C343.737 557.242 356.405 541.613 370.246 527.06C375.707 521.316 381.354 515.696 387.313 510.447C387.555 510.517 387.835 510.482 388.053 510.259C390.535 507.734 393.297 505.459 396.222 503.404C396.44 503.614 396.774 503.703 397.096 503.469C400.033 501.331 403.208 499.567 406.532 498.11C407.14 497.983 407.745 497.854 408.355 497.736L408.339 497.494L408.342 497.341C408.587 497.241 408.837 497.147 409.084 497.05C409.24 497.023 409.388 496.972 409.533 496.902C410.23 496.765 410.934 496.598 411.617 496.424C411.98 496.332 412.244 496.12 412.44 495.837C412.704 495.751 412.962 495.652 413.228 495.571C414.228 495.265 415.242 494.996 416.261 494.759C417.194 494.541 418.292 494.525 418.867 493.667C418.961 493.525 419.012 493.355 419.042 493.178C420.104 492.331 419.617 490.327 417.955 490.532C414.019 491.016 410.106 491.696 406.226 492.522C405.876 492.559 405.518 492.575 405.182 492.659C405.056 492.691 404.951 492.766 404.835 492.826C404.402 492.922 403.964 493.011 403.531 493.111C402.246 493.409 400.974 493.764 399.697 494.098C386.969 496.028 374.554 500.212 362.942 505.652C344.974 514.075 328.681 525.517 312.912 537.462C296.67 549.767 280.802 562.534 263.825 573.837C246.677 585.254 228.88 595.737 212.388 608.122C197.752 619.113 184.029 631.719 173.657 646.904C183.083 621.21 193.03 595.707 203.754 570.491C206.362 564.36 209.005 558.237 211.67 552.12C211.982 552.219 212.326 552.165 212.525 551.837C212.719 551.52 212.926 551.216 213.122 550.899C226.799 550.205 240.594 548.36 254.015 545.752C267.829 543.068 281.498 539.115 294.086 532.729C306.278 526.544 316.747 518.022 326.129 508.143C335.465 498.311 343.729 487.542 352.7 477.388C361.856 467.024 371.883 457.421 383.89 450.408C396.026 443.322 409.423 438.711 423.073 435.546C450.238 429.25 478.228 428.5 505.657 423.867C531.098 419.567 557.319 411.989 577.243 394.828C579.674 392.733 581.803 390.509 583.777 387.981C584.632 386.884 583.186 385.343 582.072 386.128C581.854 385.935 581.578 385.803 581.233 385.851C580.168 386.007 579.429 386.795 578.577 387.392C577.692 388.013 576.772 388.576 575.812 389.073C574.296 389.861 572.706 390.504 571.069 390.988C555.854 389.057 540.615 387.309 525.373 385.626C509.115 383.829 492.86 381.769 476.553 380.465C447.538 378.142 416.31 379.446 391.264 396.038C380.187 403.373 371.182 413.189 362.101 422.77C352.662 432.73 342.847 442.239 330.663 448.789C318.226 455.472 304.654 459.594 291.491 464.553C279.296 469.146 267.659 474.776 257.113 482.491C249.086 488.364 241.75 495.211 235.275 502.799C235.708 501.595 236.143 500.39 236.566 499.177C236.727 499.059 236.864 498.889 236.945 498.629C237.198 497.798 237.397 496.959 237.571 496.117C237.684 495.775 237.792 495.431 237.902 495.09C253.467 474.806 268.991 454.482 285.801 435.204C297.073 422.278 308.935 409.811 321.576 398.21C330.87 394.153 340.19 390.157 349.65 386.502C359.621 382.651 369.703 379.099 379.843 375.722C400.242 368.929 420.849 362.782 441.232 355.941C461.446 349.156 481.477 341.67 500.62 332.234C519.059 323.145 536.573 312.179 552.767 299.511C565.871 289.26 578.109 277.896 589.333 265.615C590.045 264.973 590.769 264.341 591.468 263.682C593.584 261.692 595.547 259.5 597.502 257.338C597.83 257.123 598.164 256.913 598.492 256.698L598.5 256.69L598.769 256.567C599.172 256.37 599.245 255.975 599.126 255.652L599.495 255.295C601.189 253.59 602.84 251.858 604.44 250.064C605.75 248.602 603.383 246.889 602.082 248.244ZM466.386 177.451C455.686 199.733 442.907 221.001 428.214 240.879C413.18 261.219 396.265 280.074 378.964 298.489C370.267 307.745 361.479 316.917 352.743 326.138C360.441 316.086 368.019 305.946 375.46 295.695C389.147 276.842 402.472 257.731 415.342 238.31C427.617 219.783 439.6 201.043 450.837 181.861C461.876 163.019 472.264 143.768 481.315 123.888C487.909 109.404 493.742 94.5579 498.614 79.4049C492.15 113.29 481.34 146.309 466.386 177.451ZM499.609 65.5212C499.62 65.5051 499.631 65.489 499.641 65.4728C499.48 66.5135 499.319 67.5569 499.157 68.5975C494.427 84.7804 488.683 100.622 482.028 116.148C473.469 136.12 463.546 155.498 452.763 174.356C441.754 193.61 429.919 212.385 417.791 230.95C405.206 250.22 392.251 269.259 378.918 288.02C367.6 303.945 355.98 319.66 344.167 335.224C340.427 339.215 336.718 343.232 333.029 347.271C333.26 346.655 333.489 346.04 333.723 345.424C345.509 326.861 357.311 308.309 369.025 289.701C381.881 269.283 394.792 248.9 407.632 228.471C419.765 209.166 431.979 189.907 443.781 170.398C455.301 151.351 466.461 132.076 476.774 112.343C484.37 97.8063 491.507 83.0513 498.004 68.0033C498.547 67.1804 499.077 66.3522 499.609 65.5212ZM490.813 74.9922C490.821 75.0244 490.824 75.0594 490.835 75.0917C490.671 75.3498 490.507 75.6106 490.343 75.8688C490.496 75.573 490.657 75.2853 490.813 74.9922ZM489.079 78.211C489.095 78.3696 489.143 78.5175 489.232 78.6439C488.616 79.5528 487.99 80.4564 487.377 81.368C487.96 80.3246 488.506 79.2597 489.079 78.211ZM490.445 79.2705C486.702 87.5851 482.792 95.8244 478.669 103.951C468.507 123.968 457.415 143.499 445.898 162.761C434.396 181.993 422.503 200.989 410.625 219.992C397.83 240.462 385.1 260.974 372.319 281.451C360.022 301.156 347.797 320.91 335.57 340.662C341.903 324.471 348.962 308.559 356.604 292.947C366.043 273.658 376.398 254.835 387.329 236.356C398.25 217.892 409.778 199.806 421.438 181.802C433.098 163.802 445.142 146.046 457.189 128.3C468.279 111.964 479.385 95.6335 490.445 79.2705ZM382.777 222.684C403.112 194.137 426.189 167.682 447.643 139.995C439.809 151.534 431.992 163.084 424.288 174.711C412.44 192.594 400.796 210.597 389.715 228.966C378.673 247.268 368.151 265.89 358.403 284.914C348.626 303.999 339.701 323.516 331.98 343.525C331.034 345.981 330.106 348.441 329.194 350.91C329.116 351.122 329.114 351.313 329.143 351.496C328.966 351.689 328.786 351.88 328.611 352.077C332.214 304.362 355.437 261.071 382.777 222.684ZM337.248 149.638C329.2 172.834 319.576 195.514 313.068 219.226C309.725 231.402 307.327 243.764 306.176 256.343C304.909 270.221 304.804 284.164 304.393 298.085C303.987 311.821 303.223 325.568 300.8 339.115C298.523 351.843 294.96 364.304 290.555 376.45C282.402 398.926 271.524 420.336 260.259 441.405C260.547 440.26 260.808 439.111 261.077 437.96C269.758 417.975 276.276 397.07 280.127 375.609C284.666 350.302 284.494 324.75 285.298 299.145C285.707 286.159 286.427 273.158 288.345 260.296C290.114 248.421 293.072 236.818 297.103 225.51C304.716 204.148 315.574 184.255 325.992 164.186C332.833 151.007 339.555 137.677 345.116 123.893C342.884 132.568 340.193 141.151 337.248 149.638ZM349.115 105.137C349.021 105.718 348.905 106.296 348.803 106.877C348.47 107.963 348.131 109.049 347.771 110.13C346.009 115.39 344.046 120.583 341.933 125.711C337.643 136.115 332.739 146.253 327.667 156.294C317.478 176.467 306.568 196.415 298.332 217.497C294.226 228.003 290.845 238.797 288.6 249.86C286.04 262.483 284.849 275.33 284.22 288.182C282.964 313.865 283.631 339.632 280.197 365.178C278.519 377.655 275.916 389.947 272.646 402.099C269.787 412.721 266.374 423.348 262.077 433.51C263.069 428.869 263.935 424.2 264.65 419.516C268.832 392.114 268.959 364.387 269.319 336.738C269.696 307.879 270.427 278.713 276.628 250.414C279.721 236.294 284.276 222.493 290.641 209.5C297.141 196.235 305.307 183.889 313.531 171.651C327.495 150.859 342.239 129.446 349.115 105.137ZM338.759 116.869C341.118 113.613 343.342 110.265 345.393 106.817C338.891 126.856 327.643 145.107 315.846 162.729C307.83 174.706 299.644 186.594 292.634 199.203C285.661 211.742 280.237 224.986 276.44 238.824C268.84 266.514 267.218 295.353 266.721 323.927C266.24 351.617 266.802 379.368 263.908 406.953C262.862 416.916 261.308 426.857 259.154 436.653C262.045 415.84 261.625 394.631 260.092 373.686C258.194 347.72 254.73 321.865 254.155 295.81C253.612 271.291 255.497 246.281 263.639 222.983C267.512 211.904 272.831 201.451 279.473 191.781C285.734 182.663 292.919 174.214 300.228 165.929C313.937 150.394 328.686 135.133 338.759 116.869ZM252.74 410.717C249.03 378.002 243.108 345.488 241.602 312.553C240.285 283.72 242.487 254.095 252.31 226.761C257.25 213.014 264.177 200.152 273.049 188.541C282.154 176.623 292.83 166.033 303.5 155.535C313.057 146.134 322.883 136.513 331.58 126.077C329.63 129 327.616 131.882 325.454 134.69C318.699 143.453 311.242 151.634 303.831 159.841C288.716 176.577 273.985 193.707 265.191 214.741C255.849 237.087 252.848 261.552 252.636 285.608C252.41 311.273 255.499 336.762 257.581 362.301C259.794 389.471 261.063 417.168 255.819 444.086C255.709 444.651 255.58 445.213 255.464 445.777C255.43 442.408 255.255 439.039 255.034 435.675C254.48 427.336 253.682 419.018 252.74 410.717ZM156.426 388.987C160.505 397.054 164.689 405.073 168.161 413.425C171.678 421.89 174.572 430.616 176.844 439.493C181.37 457.158 183.413 475.484 182.865 493.713C182.314 512.031 179.218 530.29 173.491 547.704C172.192 551.657 170.724 555.597 169.234 559.547C169.21 559.571 169.18 559.587 169.156 559.614C168.454 560.437 168.207 561.545 167.854 562.548C167.707 562.973 167.548 563.395 167.397 563.82C167.967 560.512 168.546 557.207 169.129 553.903C172.329 535.794 175.58 517.589 176.075 499.161C176.312 490.314 175.903 481.472 174.658 472.709C173.458 464.268 171.56 455.942 169.317 447.722C164.845 431.329 159.013 415.361 154.03 399.125C150.69 388.247 147.963 377.281 146.148 366.13C148.993 373.995 152.656 381.535 156.426 388.987ZM143.534 368.109C144.892 376.367 146.909 384.51 149.2 392.553C153.882 408.991 159.822 425.031 164.738 441.394C169.694 457.892 173.405 474.776 173.789 492.056C174.176 509.366 171.673 526.584 168.798 543.617C168.828 543.351 168.857 543.082 168.884 542.813C169.635 535.802 169.995 528.754 170.019 521.706C170.062 507.742 168.857 493.761 166.601 479.983C164.332 466.11 160.922 452.551 156.985 439.068C152.943 425.228 147.971 411.675 144.465 397.675C142.529 389.95 141.257 382.033 140.999 374.065C140.818 368.518 141.297 363.102 142.211 357.71C142.518 361.211 142.972 364.694 143.534 368.109ZM162.062 501.675C159.015 483.895 153.702 466.793 148.143 449.671C142.698 432.9 137.339 415.934 135.575 398.31C134.195 384.531 135.029 370.317 139.547 357.189C139.91 356.508 140.235 355.812 140.517 355.158C141.009 354.021 141.453 352.862 141.87 351.695C141.889 352.316 141.918 352.937 141.945 353.561C140.359 359.098 139.813 364.99 139.767 370.698C139.713 377.685 140.49 384.655 141.813 391.507C144.529 405.576 149.316 419.059 153.549 432.714C157.741 446.235 161.067 460.032 163.6 473.959C166.112 487.773 167.736 501.761 168.045 515.804C168.22 523.753 167.967 531.718 167.266 539.637C166.919 543.568 166.456 547.494 165.865 551.399L165.835 551.582C166.133 534.88 164.883 518.135 162.062 501.675ZM22.0394 306.76C32.2712 327.351 44.926 346.545 56.9112 366.127C68.8884 385.695 79.7442 405.907 89.6857 426.577C99.5196 447.025 108.552 467.858 117.047 488.894C118.523 492.554 119.97 496.225 121.422 499.895C121.11 499.312 120.804 498.725 120.489 498.142C105.922 471.135 89.5727 445.148 73.7583 418.871C58.1563 392.948 42.9764 366.694 30.5744 339.062C19.6192 314.655 10.8421 289.117 6.04476 262.765C9.16947 278.073 15.1446 292.887 22.0394 306.76ZM80.3438 463.52C64.3277 443.341 48.7875 422.694 36.883 399.765C25.4195 377.685 16.9543 354.053 11.759 329.728C9.61854 319.708 8.04003 309.57 7.00742 299.376C9.03498 309.842 11.8558 320.165 15.2091 330.282C22.0071 350.797 30.682 370.647 40.4353 389.92C50.0917 409.002 60.7082 427.605 71.9566 445.788C80.005 458.801 88.3976 471.598 96.9112 484.312C91.4121 477.361 85.8511 470.458 80.3438 463.52ZM132.945 533.498C126.58 524.167 120.196 514.852 113.831 505.521C101.792 487.872 89.8282 470.167 78.37 452.134C66.885 434.056 55.7361 415.738 45.7435 396.785C35.7428 377.811 26.635 358.28 19.2131 338.145C12.9852 321.244 8.33851 303.724 5.96406 285.872C5.68977 280.695 5.54994 275.511 5.5607 270.326C6.65515 275.82 7.93515 281.273 9.3254 286.654C12.9691 300.734 17.7019 314.521 23.1392 328.007C34.3499 355.793 48.5805 382.256 63.728 408.071C79.2494 434.524 95.6312 460.471 110.62 487.235C119.663 503.383 128.191 519.856 135.669 536.787C135.862 537.292 136.053 537.8 136.244 538.306C135.145 536.701 134.039 535.103 132.945 533.498ZM130.514 517.568C127.774 510.469 125.015 503.377 122.197 496.308C113.791 475.228 105.024 454.275 95.3677 433.736C85.7758 413.331 75.3583 393.3 63.7522 373.966C51.8181 354.083 38.5018 335.001 27.482 314.575C17.8821 296.781 10.0111 277.659 6.56644 257.656C6.78963 258.207 7.03162 258.75 7.25751 259.299C7.82759 260.799 8.43266 262.289 9.11031 263.744C9.22325 263.983 9.34963 264.214 9.46257 264.454C15.3651 277.716 22.5799 290.419 30.3243 302.649C42.1993 321.4 55.4269 339.242 68.1838 357.39C81.2554 375.985 93.6628 394.997 104.064 415.232C114.689 435.901 123.477 457.518 130.301 479.732C137.167 502.087 142.031 525.081 144.806 548.301C144.876 548.89 144.93 549.482 144.997 550.073C140.63 539.048 135.755 528.219 130.514 517.568ZM154.027 593.179C154.008 593.131 153.992 593.08 153.973 593.031C153.995 593.039 154.011 593.058 154.033 593.066C154.033 593.104 154.03 593.142 154.027 593.179ZM153.92 575.321C154.172 575.958 154.412 576.601 154.67 577.238C155.076 578.637 155.455 580.04 155.786 581.458C155.192 579.403 154.565 577.359 153.92 575.321ZM375.253 517.699C360.99 532.161 348.064 547.847 334.242 562.715C320.476 577.518 305.579 591.431 288.038 601.674C270.29 612.038 250.898 619.064 231.701 626.201C227.116 627.906 222.518 629.627 217.938 631.407C218.874 630.974 219.807 630.536 220.743 630.106C236.845 622.668 253.106 615.525 268.859 607.361C284.376 599.321 299.507 590.27 313.038 579.158C328.218 566.692 340.757 551.552 354.001 537.144C362.595 527.792 371.754 518.638 382.01 511.036C379.717 513.233 377.461 515.462 375.253 517.699ZM368.565 515.645C352.108 528.641 338.033 544.284 322.515 558.326C314.622 565.468 306.37 572.221 297.361 577.916C288.347 583.617 278.763 588.358 269.042 592.717C250.094 601.211 230.451 608.243 212.205 618.244C205.873 621.716 199.669 625.58 193.791 629.88C206.05 619.193 220.087 610.881 234.396 603.226C250.041 594.854 265.952 586.965 280.692 577.021C296.374 566.439 310.895 554.241 325.685 542.471C340.147 530.962 355.031 519.81 371.437 511.192C374.772 509.441 378.176 507.809 381.631 506.29C377.119 509.183 372.768 512.327 368.565 515.645ZM208.962 614.576C224.696 602.037 241.922 591.582 258.748 580.613C267.272 575.057 275.655 569.308 283.816 563.231C291.862 557.24 299.741 551.031 307.671 544.889C323.289 532.791 339.2 520.862 356.739 511.646C367.393 506.048 378.566 501.53 390.156 498.572C390.239 498.755 390.365 498.916 390.573 498.973C390.976 499.083 391.401 499.11 391.834 499.105C386.899 500.834 382.054 502.821 377.358 505.061C360.573 513.061 345.358 523.809 330.824 535.318C315.878 547.156 301.516 559.724 286.099 570.959C278.589 576.432 270.817 581.514 262.763 586.147C255.042 590.587 247.153 594.723 239.298 598.918C223.962 607.106 208.373 615.558 195.208 627.045C193.554 628.487 191.94 629.974 190.365 631.501C190.053 631.802 190.211 632.251 190.494 632.407C189.184 633.429 187.858 634.435 186.592 635.508C193.39 627.887 200.973 620.944 208.962 614.576ZM173.951 652.094C183.464 640.445 195.366 631.039 208.441 623.429C226.051 613.178 245.192 606.044 263.854 598.003C273.549 593.827 283.155 589.39 292.33 584.152C301.44 578.949 309.992 572.895 318.035 566.162C334.099 552.709 348.117 537.023 364.031 523.403C364.822 522.725 365.639 522.075 366.441 521.408C363.652 524.083 360.936 526.824 358.293 529.604C344.611 543.999 332.174 559.644 317.373 572.944C304.132 584.84 289.154 594.594 273.555 603.091C257.925 611.605 241.718 618.973 225.581 626.448C215.303 631.211 205.036 636.048 194.984 641.287C188.528 644.419 182.225 647.851 176.196 651.774C175.983 651.911 175.782 652.065 175.572 652.204C174.647 652.769 173.717 653.326 172.797 653.901C173.176 653.296 173.566 652.696 173.951 652.094ZM573.462 393.359C573.317 393.47 573.166 393.564 573.021 393.671C572.972 393.628 572.935 393.58 572.876 393.545C573.069 393.48 573.268 393.424 573.462 393.359ZM162.533 257.96C162.616 257.583 162.71 257.209 162.796 256.833C162.57 268.939 164.509 281.12 167.763 292.777C173.198 312.246 182.061 330.411 191.844 348.024C201.675 365.726 212.291 383.023 220.982 401.335C228.856 417.927 234.939 435.365 237.141 453.651C235.503 447.891 233.5 442.236 231.257 436.731C225.134 421.702 217.097 407.568 208.648 393.747C199.943 379.511 190.647 365.595 182.561 350.99C174.631 336.671 167.838 321.674 163.928 305.73C160.105 290.155 159.061 273.704 162.533 257.96ZM195.143 399.778C183.053 386.212 170.506 372.519 163.2 355.645C155.805 338.569 153.847 319.59 154.982 301.151C155.108 299.088 155.288 297.037 155.49 294.988C155.711 298.833 156.133 302.665 156.757 306.443C159.292 321.816 165.001 336.483 172.014 350.334C179.154 364.433 187.721 377.73 196.334 390.958C204.923 404.151 213.531 417.375 220.783 431.364C221.819 433.359 222.816 435.376 223.79 437.404C215.814 423.775 205.628 411.543 195.143 399.778ZM550.102 407.732C538.063 413.137 525.268 416.641 512.342 419.174C485.357 424.467 457.727 425.292 430.742 430.6C417.278 433.249 403.91 436.979 391.473 442.86C379.071 448.722 368.183 456.797 358.556 466.534C339.655 485.654 325.249 509.527 302.39 524.468C278.465 540.102 249.247 544.542 221.413 547.753C219.122 548.016 216.841 548.312 214.564 548.629L214.615 548.557C214.784 548.489 214.948 548.387 215.083 548.202C215.411 547.747 215.715 547.269 216 546.776C240.734 542.165 263.185 528.38 282.961 513.386C304.307 497.201 323.623 478.509 344.977 462.329C355.722 454.186 366.989 446.711 379.058 440.666C391.038 434.666 403.641 430.03 416.519 426.37C442.477 418.994 469.465 415.585 496.283 413.183C509.137 412.032 522.052 411.379 534.855 409.706C541.457 408.846 548.047 407.63 554.402 405.7C552.982 406.404 551.549 407.082 550.102 407.732ZM567.169 395.226C568.267 395.304 569.364 395.382 570.461 395.47C551.269 408.297 526.271 408.886 503.984 410.879C477.357 413.259 450.684 415.913 424.683 422.388C411.994 425.548 399.519 429.619 387.545 434.895C375.479 440.214 364.077 446.826 353.288 454.399C331.321 469.823 312.1 488.647 291.262 505.483C271.202 521.69 249.274 536.493 224.285 543.813C221.711 544.566 219.105 545.225 216.494 545.846L216.589 545.671C229.781 526.818 248.242 512.639 268.098 501.127C292.523 486.969 318.823 476.18 342.279 460.333C364.112 445.584 383.726 427.191 407.68 415.762C432.154 404.086 459.386 401.986 486.107 401.365C512.99 400.741 540.564 401.83 566.86 395.309L567.169 395.226ZM535.468 396.756C521.762 397.759 508.01 397.831 494.274 398.052C467.394 398.485 439.809 399.566 414.505 409.588C389.704 419.411 369.52 437.312 348.152 452.74C336.638 461.051 324.502 468.274 311.944 474.895C299.27 481.577 286.355 487.797 273.797 494.703C255.002 505.037 236.022 517.476 222.214 534.237C233.422 518.509 248.986 506.05 265.202 495.732C287.734 481.394 312.312 470.514 334.398 455.442C345.536 447.84 355.684 438.974 366.161 430.514C376.501 422.165 387.265 414.482 399.215 408.593C422.524 397.108 448.452 391.757 474.267 390.2C501.787 388.538 529.299 391.13 556.639 394.188C549.634 395.33 542.594 396.234 535.468 396.756ZM252.711 489.763C262.408 481.674 273.24 475.274 284.878 470.404C297.711 465.037 311.124 461.159 323.832 455.477C330.041 452.702 336.073 449.478 341.634 445.549C346.932 441.808 351.766 437.449 356.362 432.889C365.736 423.59 374.201 413.334 384.242 404.721C406.984 385.211 437.206 381.03 466.205 382.399C482.16 383.152 498.044 385.211 513.912 386.959C527.971 388.508 542.032 390.057 556.107 391.474C555.819 391.714 555.701 392.098 555.733 392.485C554.044 392.278 552.355 392.066 550.667 391.864C543.266 390.985 535.844 390.237 528.42 389.6C513.869 388.352 499.262 387.64 484.655 387.981C458.31 388.597 431.742 392.77 407.334 403.008C395.155 408.114 383.844 414.818 373.317 422.775C362.499 430.95 352.409 440.042 341.586 448.211C319.619 464.789 294.419 476.081 270.847 490.064C254.435 499.801 238.416 511.227 226.024 525.853C226.315 525.202 226.613 524.554 226.898 523.903C228.593 520.034 230.203 516.132 231.75 512.206C237.789 503.921 244.816 496.351 252.711 489.763ZM238.023 469.662C235.498 458.131 231.193 446.955 226.068 436.385C219.288 422.396 210.928 409.225 202.396 396.255C193.75 383.114 184.93 370.083 177.245 356.344C169.608 342.692 163.044 328.265 159.478 312.978C157.297 303.628 156.42 294.114 156.786 284.627C157.606 279.243 158.626 273.889 159.763 268.56C159.556 270.824 159.421 273.088 159.362 275.328C159.15 283.277 159.881 291.234 161.341 299.048C164.321 315 170.202 330.22 177.479 344.674C184.933 359.48 193.664 373.576 202.369 387.664C211.044 401.706 219.544 415.899 226.293 430.988C231.701 443.08 235.837 455.63 238.039 468.64C238.039 468.984 238.026 469.323 238.023 469.662ZM241.064 468.949C241.091 467.435 241.097 465.919 241.062 464.405C240.61 445.613 235.719 427.236 228.447 409.989C220.544 391.24 210.164 373.691 200.129 356.035C190.072 338.341 180.281 320.389 173.679 301.07C170.425 291.548 167.951 281.73 166.628 271.749C166.402 270.038 166.23 268.331 166.085 266.624C167.793 273.203 170.312 279.598 173.313 285.592C177.083 293.124 181.518 300.29 185.817 307.524C190.424 315.274 194.912 323.096 199.266 330.992C207.758 346.387 216.013 361.981 223.368 377.956C230.542 393.542 236.706 409.744 239.946 426.642C242.616 440.55 243.315 454.947 241.064 468.949ZM361.184 350.737C375.473 337.413 391.317 325.721 408.304 316.065C425.869 306.083 444.566 298.422 463.965 292.815C485.185 286.684 506.945 282.688 528.525 278.084C546.232 274.306 564.158 270.116 581.241 263.878C577.439 266.048 573.596 268.148 569.676 270.119C560.39 274.787 550.876 278.985 541.239 282.868C521.767 290.717 501.822 297.308 481.923 303.972C462.954 310.323 443.94 316.554 425.369 324.022C407.522 331.199 390.062 339.548 373.669 349.651C358.941 358.727 345.114 369.4 333.072 381.847C341.548 370.707 350.949 360.281 361.184 350.737ZM556.136 292.963C540.467 305.838 523.499 317.129 505.528 326.533C486.696 336.389 466.88 344.216 446.828 351.2C426.689 358.213 406.277 364.401 386.025 371.07C365.887 377.704 345.522 384.558 326.441 393.886L326.322 393.948C326.772 393.55 327.231 393.163 327.683 392.765C336.573 388.433 345.326 383.843 354.326 379.718C364.128 375.222 374.056 371.005 384.049 366.947C404.155 358.786 424.546 351.351 444.808 343.593C464.022 336.238 483.187 328.652 501.876 320.031C519.74 311.792 537.205 302.603 553.738 291.922C559.516 288.19 565.177 284.255 570.698 280.136C565.981 284.562 561.135 288.854 556.136 292.963ZM332.889 388.282C337.756 384.171 342.731 380.186 347.857 376.386C359.323 367.883 371.386 360.19 384.078 353.644C398.296 346.314 413.198 340.398 428.308 335.184C457.724 325.033 488.003 317.514 517.139 306.537C525.801 303.273 534.441 299.675 542.89 295.657C531.047 302.856 518.796 309.38 506.318 315.403C488.017 324.237 469.252 331.981 450.321 339.352C430.261 347.161 410.082 354.655 390.091 362.637C370.676 370.381 351.455 378.666 332.889 388.282ZM580.886 268.555C579.846 269.434 578.784 270.286 577.729 271.152C561.283 283.341 542.868 292.866 523.91 300.519C495.172 312.122 465.087 319.789 435.69 329.459C420.609 334.42 405.669 339.906 391.309 346.707C378.224 352.905 365.704 360.243 353.834 368.531C345.469 374.374 337.466 380.705 329.74 387.363C334.981 381.584 340.47 376.047 346.415 370.97C353.641 364.799 361.323 359.17 369.305 354.021C385.512 343.563 402.902 335.213 420.701 327.851C439.054 320.26 457.877 313.924 476.749 307.769C496.57 301.304 516.459 295.033 535.922 287.533C552.966 280.964 569.595 273.4 585.522 264.478C583.995 265.855 582.46 267.223 580.886 268.555Z" fill="white"/>
<defs>
<linearGradient id="paint0_linear_1_770" x1="397.453" y1="551.509" x2="480.028" y2="472.241" gradientUnits="userSpaceOnUse">
<stop stop-color="#0B9B8A"/>
<stop offset="1" stop-color="#08DEC5"/>
</linearGradient>
<linearGradient id="paint1_linear_1_770" x1="449.961" y1="338.631" x2="564.488" y2="295.183" gradientUnits="userSpaceOnUse">
<stop stop-color="#0B9B8A"/>
<stop offset="1" stop-color="#08DEC5"/>
</linearGradient>
</defs>
</svg>
