<svg width="256" height="638" viewBox="0 0 256 638" fill="none" xmlns="http://www.w3.org/2000/svg">
<g clip-path="url(#clip0_1_163)">
<path d="M256.33 344.546V344.554C256.33 368.51 251.678 392.654 242.882 414.374C231.366 442.806 212.91 467.954 195.058 492.278C185.23 505.67 175.07 519.518 166.19 533.738C146.378 565.514 132.22 600.112 124.104 636.594C123.987 637.123 123.469 637.464 122.937 637.361L121.179 637.022C120.646 636.92 120.293 636.41 120.381 635.874C122.999 619.877 124.218 606.764 124.218 594.682C124.218 570.206 118.874 549.93 107.874 532.69C106.322 530.258 104.674 527.87 103.026 525.478C98.9861 519.618 94.8101 513.562 92.0421 506.802C88.2821 497.674 87.2701 487.762 86.2901 478.178C85.4421 469.902 84.5661 461.338 81.9021 453.49C76.7581 438.33 65.2381 426.19 54.0981 414.446C50.4261 410.57 46.6261 406.562 43.0901 402.498C15.9981 371.282 0.454102 329.318 0.454102 287.366C0.454102 279.75 0.966058 272.11 1.98206 264.662C6.73806 229.546 22.1301 196.83 37.0181 165.198C41.3021 156.094 45.7341 146.674 49.8261 137.374C65.5061 101.746 73.1301 71.5579 73.1261 45.0859C73.1261 31.6019 71.1301 18.7979 67.1901 7.02594L66.1461 3.91056C65.82 2.93753 66.996 2.16331 67.7609 2.84743L70.2101 5.03796C100.59 32.23 137.57 61.402 170.194 87.134C180.666 95.446 191.402 103.97 198.862 115.23C211.142 133.73 212.702 156.342 214.21 178.21C215.094 190.99 216.006 204.202 219.038 216.49C222.314 229.778 228.25 242.51 233.982 254.818C237.41 262.166 240.95 269.766 243.922 277.466C252.158 298.694 256.33 321.262 256.33 344.546ZM127.854 600.85C127.815 602.04 129.714 602.393 130.096 601.265C138.32 576.966 149.334 553.699 163.014 531.758C171.966 517.41 182.17 503.506 192.038 490.062C209.754 465.926 228.07 440.966 239.41 412.966C248.03 391.69 252.59 368.034 252.59 344.55V344.542C252.59 321.726 248.498 299.614 240.438 278.818C237.506 271.234 233.99 263.69 230.59 256.398C224.782 243.926 218.77 231.03 215.402 217.39C212.294 204.786 211.37 191.406 210.478 178.47C208.934 156.102 207.478 134.978 195.742 117.298C188.61 106.53 178.11 98.194 167.958 90.134C137.832 66.3725 104.083 39.7469 75.157 14.4106C74.4114 13.7576 73.2509 14.4741 73.4819 15.4379C81.6186 49.3881 75.212 88.9798 53.2461 138.878C49.1341 148.222 44.6941 157.658 40.3981 166.786C25.6341 198.166 10.3621 230.614 5.68214 265.162C4.69414 272.446 4.19006 279.918 4.19006 287.366C4.19006 328.434 19.3981 369.502 45.9141 400.046C49.3941 404.054 53.1661 408.03 56.8141 411.874C68.2301 423.91 80.0421 436.354 85.4421 452.29C88.2461 460.542 89.1421 469.314 90.0101 477.802C90.9621 487.118 91.9461 496.754 95.5021 505.39C98.1181 511.778 102.178 517.666 106.102 523.358C107.778 525.786 109.45 528.214 111.026 530.686C122.418 548.538 127.95 569.474 127.95 594.686C127.953 596.709 127.921 598.761 127.854 600.85Z" fill="url(#paint0_linear_1_163)"/>
<path d="M163.882 391.95C163.882 456.306 155.643 520.575 139.37 586.51C139.238 587.046 138.695 587.374 138.159 587.242L136.469 586.823C135.933 586.69 135.607 586.143 135.739 585.607C182.929 394.451 162.216 217.206 68.6511 11.2159C68.4226 10.7128 68.6419 10.1128 69.145 9.88431L70.7321 9.16341C71.2346 8.93512 71.8292 9.16155 72.0574 9.66414C133.745 145.476 163.882 268.862 163.882 391.95Z" fill="url(#paint1_linear_1_163)"/>
<path d="M183.608 104.545C184.113 104.769 184.341 105.359 184.115 105.864C171.488 134.142 155.668 161.182 137.075 186.248C136.746 186.691 136.119 186.783 135.676 186.453L134.28 185.412C133.837 185.082 133.746 184.455 134.075 184.012C152.503 159.166 168.18 132.371 180.691 104.344C180.917 103.84 181.507 103.612 182.012 103.836L183.608 104.545Z" fill="url(#paint2_linear_1_163)"/>
<path d="M206.557 149.469C207.061 149.695 207.287 150.287 207.059 150.791C192.18 183.716 172.775 214.343 149.363 241.854C149.005 242.275 148.374 242.324 147.954 241.966L146.632 240.836C146.211 240.478 146.162 239.846 146.52 239.425C169.708 212.186 188.917 181.867 203.648 149.262C203.875 148.759 204.466 148.533 204.97 148.759L206.557 149.469Z" fill="url(#paint3_linear_1_163)"/>
<path d="M204.429 129.181C204.953 129.358 205.233 129.927 205.053 130.45C193.959 162.679 177.885 192.834 157.247 220.114C156.913 220.554 156.286 220.639 155.846 220.305L154.462 219.252C154.023 218.918 153.938 218.29 154.271 217.849C174.666 190.892 190.552 161.089 201.514 129.247C201.694 128.725 202.261 128.446 202.784 128.623L204.429 129.181Z" fill="url(#paint4_linear_1_163)"/>
<path d="M213.913 204.092C214.426 204.299 214.675 204.882 214.465 205.394C203.133 233.052 185.64 258.392 163.802 278.794C163.399 279.171 162.766 279.146 162.391 278.742L161.211 277.468C160.835 277.063 160.859 276.43 161.263 276.053C182.701 256.019 199.87 231.142 210.998 203.995C211.207 203.485 211.789 203.237 212.301 203.443L213.913 204.092Z" fill="url(#paint5_linear_1_163)"/>
<path d="M216.617 233.851C217.053 234.191 217.132 234.818 216.792 235.254C200.143 256.609 182.057 279.085 160.205 299.405C159.8 299.781 159.166 299.757 158.792 299.351L157.608 298.069C157.234 297.663 157.26 297.03 157.664 296.654C179.315 276.523 197.288 254.184 213.84 232.954C214.18 232.518 214.807 232.441 215.243 232.781L216.617 233.851Z" fill="url(#paint6_linear_1_163)"/>
<path d="M230.191 261.818C230.681 262.074 230.87 262.679 230.611 263.167C217.797 287.251 199.465 308.477 177.497 324.652C177.052 324.979 176.427 324.881 176.102 324.435L175.076 323.027C174.75 322.58 174.849 321.955 175.294 321.627C196.798 305.788 214.75 285.01 227.296 261.43C227.555 260.942 228.158 260.754 228.647 261.01L230.191 261.818Z" fill="url(#paint7_linear_1_163)"/>
<path d="M243.974 299.574C244.385 299.943 244.419 300.575 244.051 300.986C212.154 336.631 183.082 375.259 164.071 401.742C163.749 402.19 163.13 402.285 162.681 401.963L161.267 400.949C160.818 400.627 160.709 400.011 161.031 399.562C180.094 373.007 209.257 334.259 241.267 298.487C241.635 298.075 242.267 298.041 242.679 298.411L243.974 299.574Z" fill="url(#paint8_linear_1_163)"/>
<path d="M253.873 341.129C254.216 341.563 254.143 342.192 253.71 342.535C224.905 365.386 198.589 391.4 175.482 419.862C167.81 429.293 162.483 441.735 161.424 452.587C161.37 453.136 160.892 453.55 160.342 453.509L158.609 453.383C158.057 453.343 157.642 452.864 157.695 452.313C158.806 440.74 164.449 427.498 172.578 417.506C195.857 388.832 222.365 362.621 251.387 339.598C251.819 339.255 252.448 339.329 252.79 339.762L253.873 341.129Z" fill="url(#paint9_linear_1_163)"/>
<path d="M254.577 361.823C255.105 361.988 255.399 362.551 255.233 363.078L253.208 369.509C253.188 369.571 253.163 369.631 253.132 369.688C239.409 394.843 223.085 418.034 204.462 438.95C202.494 441.162 200.498 443.35 198.502 445.534C193.014 451.546 187.338 457.766 182.442 464.374C169.719 481.537 160.614 503.759 152.4 525.15C152.202 525.665 151.624 525.922 151.109 525.725L149.485 525.104C148.969 524.906 148.71 524.329 148.908 523.813C157.215 502.178 166.437 479.686 179.434 462.15C184.442 455.386 190.186 449.098 195.738 443.014C197.722 440.842 199.71 438.666 201.662 436.466C220.096 415.759 236.26 392.801 249.702 368.226C249.734 368.168 249.76 368.106 249.78 368.042L251.662 361.964C251.825 361.435 252.387 361.14 252.915 361.305L254.577 361.823Z" fill="url(#paint10_linear_1_163)"/>
<path d="M140.976 74.4539C141.525 74.507 141.928 74.9954 141.873 75.5446C139.598 98.1615 133.713 120.117 124.368 140.842C124.141 141.346 123.547 141.567 123.044 141.338L121.463 140.614C120.961 140.384 120.74 139.791 120.967 139.288C130.137 118.946 135.914 97.3911 138.148 75.1863C138.204 74.6365 138.692 74.2331 139.242 74.2863L140.976 74.4539Z" fill="url(#paint11_linear_1_163)"/>
<path d="M159.962 96.6263C159.962 113.616 154.365 130.259 144.117 143.741C143.783 144.181 143.153 144.258 142.718 143.917L141.349 142.846C140.914 142.506 140.838 141.878 141.172 141.439C150.947 128.575 156.39 112.676 156.231 96.4695C156.226 95.9145 156.666 95.4546 157.221 95.4451L158.947 95.4155C159.502 95.406 159.96 95.8505 159.962 96.4056C159.962 96.4795 159.962 96.5531 159.962 96.6263Z" fill="url(#paint12_linear_1_163)"/>
<path d="M145.095 309.08C145.179 309.625 144.799 310.134 144.253 310.212L142.528 310.46C141.982 310.538 141.475 310.157 141.391 309.611C136.545 278.213 115.911 251.539 97.6783 227.978C87.9263 215.406 78.1863 202.81 68.4423 190.218L48.5578 164.52C48.22 164.084 48.2998 163.456 48.736 163.118L50.1074 162.055C50.5441 161.717 51.1726 161.797 51.5108 162.233L71.4023 187.93C81.1423 200.522 90.8823 213.118 100.634 225.69C119.158 249.618 140.115 276.71 145.095 309.08Z" fill="url(#paint13_linear_1_163)"/>
<path d="M148.362 372.948C148.516 373.478 148.198 374.026 147.665 374.169L145.989 374.619C145.455 374.762 144.907 374.445 144.752 373.915C141.196 361.749 132.053 350.205 116.838 338.65C112.938 335.69 108.85 332.818 104.89 330.038C95.874 323.71 86.554 317.166 78.758 309.03C67.426 297.174 59.638 282.274 52.102 267.862C42.8007 250.069 33.9979 233.239 19.0825 221.403C18.65 221.059 18.5671 220.431 18.9041 219.994L19.9637 218.618C20.3007 218.181 20.93 218.099 21.3628 218.443C36.9409 230.796 46.3303 248.753 55.414 266.134C62.83 280.314 70.498 294.974 81.462 306.446C89.002 314.318 98.174 320.754 107.042 326.982C111.03 329.778 115.15 332.674 119.106 335.678C135.01 347.756 144.593 359.96 148.362 372.948Z" fill="url(#paint14_linear_1_163)"/>
<path d="M140.781 386.62C141.098 387.072 140.989 387.695 140.537 388.012L139.11 389.014C138.657 389.332 138.033 389.222 137.716 388.769L126.583 372.864C126.267 372.412 126.376 371.789 126.828 371.472L128.251 370.473C128.703 370.156 129.327 370.265 129.645 370.718L140.781 386.62Z" fill="url(#paint15_linear_1_163)"/>
<path d="M185.053 330.658C185.447 331.047 185.45 331.681 185.063 332.076C177.941 339.368 171.51 347.686 170.246 349.449C170.231 349.47 170.237 349.495 170.257 349.511V349.511C170.278 349.528 170.28 349.559 170.263 349.58C169.818 350.119 169.27 350.764 168.332 350.703C168.152 350.691 167.987 350.602 167.853 350.481L166.851 349.578C166.707 349.447 166.595 349.276 166.616 349.083C166.655 348.733 166.854 348.246 167.192 347.644C167.21 347.612 167.205 347.572 167.18 347.545V347.545C167.152 347.514 167.151 347.466 167.178 347.433L167.379 347.193C167.39 347.18 167.409 347.178 167.422 347.189V347.189C167.437 347.2 167.458 347.198 167.468 347.181C170.373 342.431 179.793 332.262 182.421 329.46C182.801 329.055 183.428 329.052 183.823 329.442L185.053 330.658Z" fill="url(#paint16_linear_1_163)"/>
<path d="M190.091 423.225C190.417 423.672 190.319 424.297 189.879 424.632C178.029 433.642 169.855 448.43 166.322 454.822C165.915 455.559 165.567 456.186 165.281 456.684C165.005 457.163 164.39 457.299 163.926 456.998L162.465 456.053C162.002 455.753 161.864 455.131 162.136 454.65C162.388 454.206 162.691 453.655 163.046 453.014C166.704 446.402 175.161 431.091 187.673 421.606C188.112 421.272 188.737 421.371 189.063 421.817L190.091 423.225Z" fill="url(#paint17_linear_1_163)"/>
<path d="M177.521 497.82C178.006 498.084 178.185 498.691 177.92 499.175C169.547 514.472 160.033 529.251 149.627 543.146C149.296 543.589 148.668 543.676 148.227 543.343L146.839 542.296C146.399 541.964 146.311 541.337 146.642 540.896C156.936 527.149 166.346 512.523 174.634 497.385C174.9 496.9 175.508 496.721 175.993 496.986L177.521 497.82Z" fill="url(#paint18_linear_1_163)"/>
<path d="M234.356 415.388C234.856 415.623 235.071 416.22 234.833 416.719C228.428 430.15 220.821 443.098 212.203 455.243C211.883 455.694 211.258 455.797 210.808 455.475L209.394 454.46C208.945 454.139 208.842 453.515 209.162 453.065C217.646 441.11 225.144 428.353 231.45 415.125C231.687 414.627 232.283 414.413 232.782 414.647L234.356 415.388Z" fill="url(#paint19_linear_1_163)"/>
<path d="M207.407 182.431C207.923 182.625 208.185 183.201 207.992 183.718L195.312 217.652C195.119 218.17 194.542 218.433 194.025 218.239L192.397 217.629C191.881 217.435 191.618 216.859 191.812 216.342L204.492 182.408C204.685 181.89 205.262 181.627 205.779 181.821L207.407 182.431Z" fill="url(#paint20_linear_1_163)"/>
<path d="M121.47 59.0795C122.022 59.0854 122.465 59.5374 122.459 60.0899C122.327 71.4072 121.995 85.1641 115.565 96.3259C115.289 96.8045 114.672 96.9523 114.201 96.6639L112.719 95.7562C112.248 95.4678 112.101 94.8527 112.376 94.3737C118.284 84.0637 118.589 71.4022 118.715 60.0496C118.722 59.4974 119.174 59.0549 119.726 59.0608L121.47 59.0795Z" fill="url(#paint21_linear_1_163)"/>
<path d="M104.812 114.81C105.151 115.246 105.074 115.874 104.639 116.214L103.27 117.286C102.835 117.626 102.206 117.549 101.867 117.113C93.8824 106.841 86.3907 96.1496 79.5812 85.3027C79.2874 84.8347 79.4307 84.2175 79.8997 83.9253L81.3742 83.0068C81.8427 82.7149 82.4589 82.8578 82.7524 83.3253C89.4906 94.0575 96.9067 104.642 104.812 114.81Z" fill="url(#paint22_linear_1_163)"/>
<path d="M113.462 147.294C113.907 147.621 114.008 148.245 113.685 148.692L112.668 150.103C112.344 150.551 111.719 150.652 111.273 150.325C96.6082 139.566 83.8059 125.73 74.1702 110.221C73.8789 109.752 74.0275 109.137 74.4983 108.848L75.9808 107.941C76.4519 107.652 77.0673 107.8 77.3591 108.27C86.7423 123.359 99.1934 136.819 113.462 147.294Z" fill="url(#paint23_linear_1_163)"/>
<path d="M134.442 203.585C134.811 203.994 134.779 204.626 134.37 204.996L133.08 206.163C132.671 206.533 132.038 206.501 131.667 206.091L128.234 202.29C116.698 189.542 103.626 175.09 92.8343 161.838C83.2921 150.114 74.3234 138.443 69.3449 124.728C69.1565 124.209 69.4329 123.639 69.9544 123.458L71.5975 122.887C72.1192 122.705 72.6886 122.982 72.8776 123.501C77.6668 136.652 86.4201 148.027 95.7343 159.474C106.47 172.65 119.506 187.066 131.01 199.778L134.442 203.585Z" fill="url(#paint24_linear_1_163)"/>
<path d="M135.775 221.669C136.061 222.141 135.906 222.755 135.432 223.038L133.937 223.93C133.463 224.213 132.849 224.057 132.562 223.585C123.535 208.724 111.686 196.365 100.214 184.398C88.019 171.684 75.4187 158.538 66.0815 142.308C65.806 141.829 65.9761 141.218 66.4572 140.947L67.9709 140.093C68.452 139.822 69.0618 139.993 69.3372 140.471C78.4441 156.296 90.8815 169.263 102.914 181.814C114.533 193.927 126.54 206.449 135.775 221.669Z" fill="url(#paint25_linear_1_163)"/>
<path d="M140.636 255.322C140.828 255.839 140.557 256.413 140.037 256.599L138.396 257.185C137.876 257.371 137.304 257.099 137.112 256.581C129.149 235.056 113.538 218.467 97.0302 200.918C84.9487 188.067 72.4585 174.796 63.4112 159.485C63.1303 159.01 63.2935 158.398 63.7712 158.121L65.2772 157.248C65.755 156.971 66.3664 157.133 66.6476 157.609C75.4879 172.55 87.8195 185.666 99.7582 198.354C115.805 215.415 132.396 233.051 140.636 255.322Z" fill="url(#paint26_linear_1_163)"/>
<path d="M80.2221 330.74C80.7122 330.996 80.903 331.6 80.6479 332.09L79.8432 333.636C79.5883 334.125 78.9852 334.316 78.4957 334.061C73.3621 331.387 67.7103 328.305 63.6419 323.522C60.2019 319.47 58.1499 314.554 56.1659 309.802L55.7579 308.822C48.237 291.032 38.7647 274.154 27.5917 258.636C27.269 258.188 27.3681 257.563 27.8149 257.239L29.2207 256.218C29.6676 255.893 30.2931 255.992 30.6158 256.44C41.9529 272.183 51.569 289.316 59.2019 307.374L59.6139 308.362C61.4859 312.85 63.4219 317.494 66.4899 321.102C70.1084 325.344 75.2 328.123 80.2221 330.74Z" fill="url(#paint27_linear_1_163)"/>
<path d="M142.506 407.826C142.848 408.26 142.768 408.888 142.331 409.226L140.953 410.291C140.516 410.629 139.889 410.548 139.547 410.114C130.646 398.822 119.339 389.18 106.79 382.194C103.378 380.306 99.75 378.538 96.242 376.822C86.23 371.926 75.882 366.87 68.43 358.262C62.222 351.09 58.718 342.238 55.334 333.678C54.226 330.874 53.114 328.074 51.918 325.326C45.1036 309.74 34.8725 295.485 22.2851 284.048C21.8763 283.676 21.8405 283.045 22.2086 282.633L23.3674 281.336C23.7355 280.924 24.368 280.889 24.7767 281.26C37.7566 293.061 48.3156 307.756 55.342 323.83C56.562 326.614 57.686 329.462 58.81 332.306C62.23 340.954 65.466 349.126 71.258 355.818C78.206 363.846 88.21 368.734 97.882 373.462C101.434 375.198 105.106 376.99 108.606 378.922C121.595 386.16 133.298 396.142 142.506 407.826Z" fill="url(#paint28_linear_1_163)"/>
<path d="M98.1396 432.131C98.6862 432.21 99.1099 432.677 99.0798 433.228L98.9848 434.967C98.9547 435.519 98.4822 435.945 97.9339 435.879C92.5478 435.228 88.2618 431.795 84.1143 428.466C82.8103 427.422 81.5103 426.382 80.1863 425.434C77.5183 423.538 74.6463 422.01 71.6063 420.39C68.2903 418.626 64.8543 416.798 61.7423 414.458C54.3949 408.953 49.3819 400.992 44.9884 393.808C44.6999 393.337 44.8498 392.721 45.3223 392.433L46.8096 391.529C47.2808 391.242 47.8947 391.391 48.1825 391.861C52.3964 398.75 57.1993 406.384 63.9903 411.466C66.8743 413.634 70.0263 415.314 73.3663 417.09C76.3783 418.69 79.4903 420.35 82.3503 422.386C83.7383 423.37 85.0943 424.454 86.4503 425.546C90.2775 428.612 93.9118 431.523 98.1396 432.131Z" fill="url(#paint29_linear_1_163)"/>
<path d="M135.242 467.335C135.648 467.708 135.684 468.34 135.316 468.751L134.157 470.048C133.789 470.46 133.156 470.496 132.749 470.122C125.088 463.094 118.659 454.511 114.071 445.191C113.827 444.695 114.039 444.097 114.538 443.86L116.108 443.112C116.606 442.875 117.202 443.086 117.446 443.582C121.819 452.462 127.948 460.639 135.242 467.335Z" fill="url(#paint30_linear_1_163)"/>
<path d="M132.356 484.135C132.778 484.49 132.834 485.121 132.478 485.545L131.357 486.881C131.002 487.303 130.371 487.359 129.949 487.003C115.411 474.766 101.276 461.623 87.9105 447.91C87.5253 447.515 87.5343 446.882 87.9299 446.497L89.1766 445.284C89.5726 444.899 90.2061 444.908 90.5918 445.303C103.872 458.927 117.915 471.985 132.356 484.135Z" fill="url(#paint31_linear_1_163)"/>
<path d="M223.117 298.215C223.561 298.544 223.655 299.17 223.326 299.615C204.397 325.209 186.789 351.973 170.972 379.197C170.694 379.675 170.082 379.838 169.605 379.56L168.099 378.688C167.621 378.411 167.458 377.799 167.736 377.322C183.625 349.976 201.31 323.095 220.32 297.389C220.648 296.945 221.273 296.852 221.717 297.18L223.117 298.215Z" fill="url(#paint32_linear_1_163)"/>
<path d="M199.989 276.417C200.53 276.532 200.876 277.064 200.758 277.605C199.06 285.421 196.619 295.679 189.562 302.326C187.374 304.39 184.858 306.002 182.426 307.562C181.374 308.234 180.33 308.906 179.314 309.61C171.334 315.215 165.258 323.368 162.135 332.639C161.958 333.162 161.399 333.456 160.871 333.292L159.208 332.772C158.681 332.607 158.386 332.046 158.562 331.522C161.93 321.471 168.51 312.627 177.17 306.546C178.234 305.806 179.318 305.114 180.406 304.418C182.802 302.882 185.062 301.434 186.998 299.61C192.81 294.134 195.076 286.062 197.098 276.821C197.216 276.283 197.746 275.939 198.286 276.054L199.989 276.417Z" fill="url(#paint33_linear_1_163)"/>
<path d="M134.418 580.086C134.418 585.563 134.155 590.064 133.972 592.513C133.931 593.063 133.449 593.47 132.899 593.425L131.164 593.283C130.613 593.238 130.203 592.759 130.245 592.208C131.434 576.515 130.521 554.857 124.098 543.922C123.09 542.198 121.95 540.59 120.738 538.886C119.53 537.186 118.286 535.434 117.198 533.574C114.682 529.262 113.022 524.406 111.418 519.706C108.805 512.073 106.338 504.847 100.578 500.4C100.141 500.063 100.024 499.442 100.337 498.987L101.326 497.554C101.639 497.099 102.265 496.984 102.705 497.318C109.468 502.451 112.259 510.602 114.954 518.49C116.506 523.014 118.102 527.694 120.426 531.682C121.434 533.402 122.574 535.01 123.786 536.714C124.994 538.414 126.238 540.166 127.326 542.026C133.198 552.03 134.418 568.302 134.418 580.086Z" fill="url(#paint34_linear_1_163)"/>
<path d="M149.518 417.494C149.518 495.415 141.87 554.535 129.844 614.158C129.735 614.699 129.207 615.05 128.666 614.94L126.963 614.596C126.421 614.487 126.071 613.958 126.18 613.417C148.133 504.586 155.433 397.35 128.057 173.463C127.99 172.915 128.379 172.4 128.927 172.333L130.654 172.123C131.202 172.056 131.701 172.453 131.768 173.001C144.229 274.882 149.518 352.694 149.518 417.494Z" fill="url(#paint35_linear_1_163)"/>
</g>
<defs>
<linearGradient id="paint0_linear_1_163" x1="256.33" y1="292.205" x2="95.3796" y2="163.876" gradientUnits="userSpaceOnUse">
<stop stop-color="#0B9B8A"/>
<stop offset="1" stop-color="#08DEC5"/>
</linearGradient>
<linearGradient id="paint1_linear_1_163" x1="163.882" y1="273.837" x2="75.0374" y2="244.682" gradientUnits="userSpaceOnUse">
<stop stop-color="#0B9B8A"/>
<stop offset="1" stop-color="#08DEC5"/>
</linearGradient>
<linearGradient id="paint2_linear_1_163" x1="184.522" y1="141.732" x2="163.251" y2="115.951" gradientUnits="userSpaceOnUse">
<stop stop-color="#0B9B8A"/>
<stop offset="1" stop-color="#08DEC5"/>
</linearGradient>
<linearGradient id="paint3_linear_1_163" x1="207.47" y1="191.528" x2="183.853" y2="160.883" gradientUnits="userSpaceOnUse">
<stop stop-color="#0B9B8A"/>
<stop offset="1" stop-color="#08DEC5"/>
</linearGradient>
<linearGradient id="paint4_linear_1_163" x1="205.378" y1="170.721" x2="181.511" y2="144.259" gradientUnits="userSpaceOnUse">
<stop stop-color="#0B9B8A"/>
<stop offset="1" stop-color="#08DEC5"/>
</linearGradient>
<linearGradient id="paint5_linear_1_163" x1="214.842" y1="238.067" x2="196.167" y2="211.707" gradientUnits="userSpaceOnUse">
<stop stop-color="#0B9B8A"/>
<stop offset="1" stop-color="#08DEC5"/>
</linearGradient>
<linearGradient id="paint6_linear_1_163" x1="217.406" y1="263.277" x2="202.324" y2="236.612" gradientUnits="userSpaceOnUse">
<stop stop-color="#0B9B8A"/>
<stop offset="1" stop-color="#08DEC5"/>
</linearGradient>
<linearGradient id="paint7_linear_1_163" x1="231.078" y1="290.18" x2="216.582" y2="265.002" gradientUnits="userSpaceOnUse">
<stop stop-color="#0B9B8A"/>
<stop offset="1" stop-color="#08DEC5"/>
</linearGradient>
<linearGradient id="paint8_linear_1_163" x1="244.718" y1="345.747" x2="220.287" y2="306.743" gradientUnits="userSpaceOnUse">
<stop stop-color="#0B9B8A"/>
<stop offset="1" stop-color="#08DEC5"/>
</linearGradient>
<linearGradient id="paint9_linear_1_163" x1="254.494" y1="391.472" x2="228.383" y2="347.642" gradientUnits="userSpaceOnUse">
<stop stop-color="#0B9B8A"/>
<stop offset="1" stop-color="#08DEC5"/>
</linearGradient>
<linearGradient id="paint10_linear_1_163" x1="255.534" y1="436.619" x2="214.09" y2="383.286" gradientUnits="userSpaceOnUse">
<stop stop-color="#0B9B8A"/>
<stop offset="1" stop-color="#08DEC5"/>
</linearGradient>
<linearGradient id="paint11_linear_1_163" x1="141.97" y1="105.138" x2="126.187" y2="95.204" gradientUnits="userSpaceOnUse">
<stop stop-color="#0B9B8A"/>
<stop offset="1" stop-color="#08DEC5"/>
</linearGradient>
<linearGradient id="paint12_linear_1_163" x1="159.962" y1="117.905" x2="147.599" y2="108.213" gradientUnits="userSpaceOnUse">
<stop stop-color="#0B9B8A"/>
<stop offset="1" stop-color="#08DEC5"/>
</linearGradient>
<linearGradient id="paint13_linear_1_163" x1="145.242" y1="229.765" x2="107.854" y2="181.34" gradientUnits="userSpaceOnUse">
<stop stop-color="#0B9B8A"/>
<stop offset="1" stop-color="#08DEC5"/>
</linearGradient>
<linearGradient id="paint14_linear_1_163" x1="148.63" y1="289.763" x2="112.536" y2="230.286" gradientUnits="userSpaceOnUse">
<stop stop-color="#0B9B8A"/>
<stop offset="1" stop-color="#08DEC5"/>
</linearGradient>
<linearGradient id="paint15_linear_1_163" x1="141.354" y1="378.918" x2="136.702" y2="371.721" gradientUnits="userSpaceOnUse">
<stop stop-color="#0B9B8A"/>
<stop offset="1" stop-color="#08DEC5"/>
</linearGradient>
<linearGradient id="paint16_linear_1_163" x1="185.766" y1="338.799" x2="180.835" y2="330.262" gradientUnits="userSpaceOnUse">
<stop stop-color="#0B9B8A"/>
<stop offset="1" stop-color="#08DEC5"/>
</linearGradient>
<linearGradient id="paint17_linear_1_163" x1="190.682" y1="437.744" x2="182.126" y2="424.231" gradientUnits="userSpaceOnUse">
<stop stop-color="#0B9B8A"/>
<stop offset="1" stop-color="#08DEC5"/>
</linearGradient>
<linearGradient id="paint18_linear_1_163" x1="178.398" y1="518.236" x2="166.651" y2="502.328" gradientUnits="userSpaceOnUse">
<stop stop-color="#0B9B8A"/>
<stop offset="1" stop-color="#08DEC5"/>
</linearGradient>
<linearGradient id="paint19_linear_1_163" x1="235.262" y1="433.385" x2="224.718" y2="420.033" gradientUnits="userSpaceOnUse">
<stop stop-color="#0B9B8A"/>
<stop offset="1" stop-color="#08DEC5"/>
</linearGradient>
<linearGradient id="paint20_linear_1_163" x1="208.342" y1="198.473" x2="198.774" y2="189.834" gradientUnits="userSpaceOnUse">
<stop stop-color="#0B9B8A"/>
<stop offset="1" stop-color="#08DEC5"/>
</linearGradient>
<linearGradient id="paint21_linear_1_163" x1="122.47" y1="76.5183" x2="114.109" y2="71.9017" gradientUnits="userSpaceOnUse">
<stop stop-color="#0B9B8A"/>
<stop offset="1" stop-color="#08DEC5"/>
</linearGradient>
<linearGradient id="paint22_linear_1_163" x1="105.426" y1="98.7044" x2="96.9077" y2="86.1102" gradientUnits="userSpaceOnUse">
<stop stop-color="#0B9B8A"/>
<stop offset="1" stop-color="#08DEC5"/>
</linearGradient>
<linearGradient id="paint23_linear_1_163" x1="114.27" y1="127.341" x2="104.854" y2="109.88" gradientUnits="userSpaceOnUse">
<stop stop-color="#0B9B8A"/>
<stop offset="1" stop-color="#08DEC5"/>
</linearGradient>
<linearGradient id="paint24_linear_1_163" x1="135.11" y1="161.161" x2="115.255" y2="130.239" gradientUnits="userSpaceOnUse">
<stop stop-color="#0B9B8A"/>
<stop offset="1" stop-color="#08DEC5"/>
</linearGradient>
<linearGradient id="paint25_linear_1_163" x1="136.29" y1="178.463" x2="116.83" y2="146.261" gradientUnits="userSpaceOnUse">
<stop stop-color="#0B9B8A"/>
<stop offset="1" stop-color="#08DEC5"/>
</linearGradient>
<linearGradient id="paint26_linear_1_163" x1="140.978" y1="202.906" x2="117.115" y2="166.199" gradientUnits="userSpaceOnUse">
<stop stop-color="#0B9B8A"/>
<stop offset="1" stop-color="#08DEC5"/>
</linearGradient>
<linearGradient id="paint27_linear_1_163" x1="81.1099" y1="291.766" x2="61.6067" y2="265.209" gradientUnits="userSpaceOnUse">
<stop stop-color="#0B9B8A"/>
<stop offset="1" stop-color="#08DEC5"/>
</linearGradient>
<linearGradient id="paint28_linear_1_163" x1="143.122" y1="340.28" x2="114.896" y2="287.99" gradientUnits="userSpaceOnUse">
<stop stop-color="#0B9B8A"/>
<stop offset="1" stop-color="#08DEC5"/>
</linearGradient>
<linearGradient id="paint29_linear_1_163" x1="99.1343" y1="411.602" x2="90.899" y2="391.717" gradientUnits="userSpaceOnUse">
<stop stop-color="#0B9B8A"/>
<stop offset="1" stop-color="#08DEC5"/>
</linearGradient>
<linearGradient id="paint30_linear_1_163" x1="135.982" y1="455.559" x2="129.397" y2="445.164" gradientUnits="userSpaceOnUse">
<stop stop-color="#0B9B8A"/>
<stop offset="1" stop-color="#08DEC5"/>
</linearGradient>
<linearGradient id="paint31_linear_1_163" x1="133.122" y1="464.31" x2="124.505" y2="446.067" gradientUnits="userSpaceOnUse">
<stop stop-color="#0B9B8A"/>
<stop offset="1" stop-color="#08DEC5"/>
</linearGradient>
<linearGradient id="paint32_linear_1_163" x1="223.922" y1="334.822" x2="203.226" y2="306.915" gradientUnits="userSpaceOnUse">
<stop stop-color="#0B9B8A"/>
<stop offset="1" stop-color="#08DEC5"/>
</linearGradient>
<linearGradient id="paint33_linear_1_163" x1="200.97" y1="302.295" x2="187.051" y2="281.85" gradientUnits="userSpaceOnUse">
<stop stop-color="#0B9B8A"/>
<stop offset="1" stop-color="#08DEC5"/>
</linearGradient>
<linearGradient id="paint34_linear_1_163" x1="134.418" y1="541.058" x2="110.737" y2="524.223" gradientUnits="userSpaceOnUse">
<stop stop-color="#0B9B8A"/>
<stop offset="1" stop-color="#08DEC5"/>
</linearGradient>
<linearGradient id="paint35_linear_1_163" x1="149.518" y1="374.98" x2="125.568" y2="372.454" gradientUnits="userSpaceOnUse">
<stop stop-color="#0B9B8A"/>
<stop offset="1" stop-color="#08DEC5"/>
</linearGradient>
<clipPath id="clip0_1_163">
<rect width="256" height="638" fill="white"/>
</clipPath>
</defs>
</svg>
