<svg width="640" height="727" viewBox="0 0 640 727" fill="none" xmlns="http://www.w3.org/2000/svg">
<path d="M375.507 725.907C338.142 665.265 299.505 602.553 277.673 533.18C253.259 455.609 255.108 380.126 282.88 320.636C304.727 273.833 341.545 236.958 377.148 201.303L443.494 134.871L445.986 137.359L379.64 203.787C344.248 239.232 307.656 275.885 286.072 322.127C258.673 380.819 256.881 455.394 281.035 532.122C302.735 601.081 341.256 663.601 378.511 724.062L375.507 725.907Z" fill="url(#paint0_linear_1_585)"/>
<path d="M272.719 347.467C264.486 318.069 255.206 284.905 258.436 254.027C260.22 237.003 265.555 220.476 270.713 204.491C273.363 196.277 276.104 187.78 278.321 179.343C286.344 148.796 284.762 124.066 273.63 105.845L276.631 104.011C288.286 123.08 290.003 148.728 281.728 180.243C279.488 188.774 276.732 197.312 274.067 205.572C268.962 221.384 263.688 237.734 261.941 254.396C258.778 284.601 267.968 317.429 276.077 346.391L272.719 347.467Z" fill="url(#paint1_linear_1_585)"/>
<path d="M263.635 228.623C257.114 194.556 245.786 173.116 227.987 161.152L229.948 158.234C254.423 174.682 262.867 205.907 267.087 227.961L263.635 228.623Z" fill="url(#paint2_linear_1_585)"/>
<path d="M327.221 258.921L323.802 258.089C327.285 243.697 334.667 230.592 341.805 217.924C348.683 205.719 355.795 193.099 359.251 179.512C360.956 172.841 361.803 165.813 362.616 159.021C363.245 153.8 363.896 148.408 364.928 143.142C367.977 127.624 374.539 112.681 383.906 99.9379L386.744 102.024C377.683 114.353 371.332 128.806 368.384 143.819C367.375 148.958 366.731 154.285 366.114 159.439C365.282 166.347 364.423 173.485 362.662 180.382C359.089 194.421 351.861 207.251 344.87 219.656C337.848 232.113 330.59 245 327.221 258.921Z" fill="url(#paint3_linear_1_585)"/>
<path d="M292.736 307.761L290.714 304.877C309.572 291.64 331.735 276.717 356.198 267.128C382.52 256.806 408.407 254.178 431.051 259.505C445.828 262.972 459.832 269.914 473.378 276.623C492.642 286.17 510.871 295.202 531.193 295.202C531.701 295.202 532.209 295.198 532.713 295.183L532.792 298.707C511.01 299.2 491.072 289.325 471.812 279.782C458.443 273.16 444.619 266.312 430.242 262.935C402.5 256.403 375.368 263.39 357.481 270.411C333.384 279.853 311.424 294.641 292.736 307.761Z" fill="url(#paint4_linear_1_585)"/>
<path d="M432.553 262.69L431.164 259.456C432.968 258.684 434.767 257.882 436.567 257.081C444.352 253.609 452.405 250.025 461.03 248.587C471.014 246.916 481.152 248.222 490.959 249.483C493.361 249.792 495.759 250.101 498.154 250.364C508.717 251.535 522.221 252.073 532.932 245.79L534.713 248.828C523.102 255.639 508.864 255.089 497.766 253.865C495.353 253.598 492.936 253.286 490.511 252.977C480.96 251.75 471.085 250.473 461.609 252.058C453.425 253.421 445.583 256.915 438.001 260.296C436.183 261.101 434.372 261.911 432.553 262.69Z" fill="url(#paint5_linear_1_585)"/>
<path d="M442.315 329.182C427.814 297.698 392.602 273.574 356.687 270.524L356.988 267.016C394.101 270.167 430.505 295.127 445.515 327.71L442.315 329.182Z" fill="url(#paint6_linear_1_585)"/>
<path d="M296.885 583.217C253.094 555.249 217.875 522.127 192.196 484.762C163.189 442.583 147.497 394.138 148.013 348.348L151.537 348.386C151.025 393.461 166.502 441.182 195.098 482.771C220.506 519.744 255.39 552.542 298.782 580.258L296.885 583.217Z" fill="url(#paint7_linear_1_585)"/>
<path d="M165.289 434.376C161.495 401.57 170.809 367.718 190.844 341.485L193.638 343.624C174.152 369.129 165.094 402.063 168.783 433.969L165.289 434.376Z" fill="url(#paint8_linear_1_585)"/>
<path d="M153.276 394.884C143.872 383.138 128.704 376.546 113.705 377.641L113.449 374.133C129.593 372.932 145.901 380.051 156.028 392.685L153.276 394.884Z" fill="url(#paint9_linear_1_585)"/>
<path d="M130.53 485.594L128.617 482.639C146.921 470.769 171.595 468.943 191.473 477.99L190.016 481.197C171.208 472.64 147.859 474.36 130.53 485.594Z" fill="url(#paint10_linear_1_585)"/>
<path d="M510.069 410.12L505.137 401.374C504.023 399.398 501.568 398.441 498.967 397.429L497.476 396.841C493.621 395.245 489.743 391.981 490.424 387.603C490.47 387.298 490.545 386.974 490.624 386.65C490.703 386.33 490.805 385.931 490.767 385.781C490.744 385.683 490.583 385.284 488.994 384.761L459.219 374.743C455.315 373.425 450.458 371.78 447.405 367.94C446.246 366.487 445.463 364.872 444.702 363.309C444.322 362.526 443.949 361.747 443.524 360.994C442.549 359.289 441.288 357.707 439.955 356.032C437.515 352.968 434.993 349.794 434.259 345.705C433.367 340.796 435.302 336.719 437.09 334.167C439.48 330.741 442.658 328.425 444.774 327.733C449.239 322.824 456.29 320.256 462.987 321.276C469.158 322.236 474.364 325.896 478.953 329.122C485.658 333.854 493.255 339.215 497.498 347.136C500.454 352.659 501.515 359.014 502.453 364.623L510.069 410.12ZM460.028 324.563C455.07 324.563 450.229 326.758 447.085 330.432L446.675 330.914L446.05 331.023C445.222 331.166 442.3 332.849 439.985 336.173C438.584 338.18 437.056 341.353 437.73 345.073C438.302 348.288 440.448 350.984 442.718 353.833C444.073 355.539 445.474 357.301 446.588 359.251C447.055 360.072 447.465 360.919 447.88 361.769C448.584 363.223 449.25 364.597 450.165 365.745C452.574 368.779 456.704 370.176 460.348 371.407L490.108 381.417C491.072 381.737 493.67 382.588 494.2 384.994C494.426 385.946 494.216 386.801 494.046 387.49C493.993 387.701 493.941 387.908 493.911 388.122C493.56 390.355 496.128 392.471 498.824 393.585L500.247 394.146C501.515 394.639 502.856 395.162 504.109 395.844L498.989 365.192C498.052 359.59 497.084 353.8 494.4 348.789C490.549 341.602 483.317 336.493 476.932 331.991C472.655 328.986 467.806 325.576 462.453 324.744C461.658 324.623 460.845 324.563 460.028 324.563Z" fill="url(#paint11_linear_1_585)"/>
<path d="M537.077 249.295C535.831 249.295 534.78 249.175 533.862 248.926L533 248.696L532.676 247.861C529.894 240.621 528.275 233.062 527.865 225.393C527.688 222.08 527.699 218.225 529.16 214.716C531.787 208.267 538.161 204.691 544.651 201.781C556.126 196.646 568.143 192.463 580.378 189.361L581.346 189.12C585.111 188.175 589.003 187.196 592.249 185.261C593.909 184.275 595.437 183.029 597.049 181.715C599.801 179.475 602.643 177.16 606.253 176.143L607.518 179.411C603.667 181.338 602.944 186.628 602.248 191.74L602.003 193.521C600.008 207.036 592.162 218.854 585.239 229.282C583.134 232.437 580.759 236.009 577.28 238.43C574.163 240.58 570.59 241.555 567.13 242.5L554.127 246.024C548.307 247.556 541.738 249.295 537.077 249.295ZM535.62 245.692C539.467 246.182 547.215 244.205 553.209 242.624L566.197 239.104C569.37 238.242 572.653 237.346 575.27 235.539C578.191 233.506 580.281 230.37 582.302 227.336C589.018 217.216 596.634 205.749 598.513 193.013L598.758 191.27C599.1 188.759 599.458 186.104 600.222 183.676C599.906 183.928 599.59 184.188 599.27 184.448C597.625 185.784 595.923 187.174 594.041 188.288C590.359 190.483 586.21 191.526 582.197 192.535L581.237 192.772C569.201 195.829 557.372 199.936 546.086 204.992C540.258 207.597 534.57 210.741 532.405 216.056C531.215 218.921 531.215 222.283 531.373 225.201C531.754 232.184 533.18 239.074 535.62 245.692Z" fill="url(#paint12_linear_1_585)"/>
<path d="M581.602 330.756C576.881 330.756 572.104 329.491 567.616 328.192L549.681 323.004C548.495 322.658 547.192 322.285 546.025 321.468C544.459 320.422 543.477 318.825 542.615 317.417L542.408 317.082C538.36 310.536 533.128 304.851 528.546 300.156L526.969 298.537L528.926 297.404C537.397 292.499 546.157 287.435 555.904 284.785C566.871 281.8 577.656 282.605 585.815 287.123C588.977 288.87 591.763 291.155 594.455 293.369C595.215 293.99 595.972 294.615 596.74 295.225C606.212 302.814 616.843 308.631 628.345 312.512L636.77 315.358L627.897 315.938C625.235 316.111 623.059 318.31 620.755 320.636C618.172 323.241 615.247 326.197 611.17 326.355C611.159 326.355 611.147 326.355 611.136 326.355C608.685 326.355 606.803 325.591 604.981 324.849C603.396 324.205 601.901 323.595 600.444 323.595C598.189 323.644 596.25 325.003 594.191 326.449C593.084 327.225 591.974 327.996 590.807 328.617C588.13 330.059 585.114 330.756 581.602 330.756ZM532.642 299.328C536.956 303.831 541.64 309.143 545.404 315.234L545.619 315.58C546.357 316.785 547.061 317.926 548.021 318.569C548.736 319.07 549.658 319.337 550.63 319.616L568.591 324.815C572.841 326.042 577.34 327.243 581.602 327.243C584.52 327.243 586.989 326.679 589.15 325.523C590.193 324.969 591.183 324.269 592.173 323.577C594.568 321.897 597.045 320.158 600.241 320.087H600.252C602.594 320.087 604.484 320.855 606.31 321.596C607.895 322.24 609.389 322.85 610.839 322.85C613.726 322.741 615.925 320.52 618.255 318.167C619.607 316.8 621.06 315.336 622.728 314.225C612.552 310.28 603.091 304.828 594.552 297.984C593.777 297.367 593.005 296.73 592.233 296.098C589.542 293.888 587.004 291.802 584.124 290.214C576.764 286.137 566.905 285.444 556.838 288.192C548.254 290.515 540.314 294.905 532.642 299.328Z" fill="url(#paint13_linear_1_585)"/>
<path d="M454.878 141.933C451.381 141.933 447.759 140.887 444.68 138.978L444.254 138.718L444.028 138.266C441.713 133.613 441.525 127.744 443.49 121.751C445.192 116.563 448.117 112.041 450.952 107.667C455.819 100.16 461.263 92.6419 469.542 90.3492C471.857 89.7167 474.206 89.5511 476.48 89.3967C477.312 89.3365 478.136 89.2838 478.957 89.2009C485.956 88.5534 492.318 86.2645 497.363 82.5638C498.918 81.4268 500.457 80.0904 501.956 78.7915C506.04 75.2452 510.268 71.5746 515.84 70.8367L520.41 70.2306L517.406 73.728C512.9 78.9798 511.654 86.8329 514.304 93.2706C514.481 93.7035 514.677 94.1327 514.865 94.5544C515.407 95.7478 515.968 96.9826 516.247 98.3906C517.387 104.041 513.461 108.909 511.014 111.307C509.952 112.35 508.815 113.325 507.674 114.293C505.574 116.085 503.593 117.775 502.137 119.898C501.414 120.945 500.819 122.093 500.194 123.309C499.546 124.57 498.872 125.873 498.029 127.1C492.303 135.42 481.397 136.663 475.403 136.663L471.936 136.614C470.189 136.614 468.348 136.708 466.696 137.427C465.856 137.796 465.047 138.338 464.184 138.91C463.544 139.336 462.908 139.757 462.242 140.13C460.092 141.312 457.547 141.933 454.878 141.933ZM446.968 136.245C451.283 138.726 456.806 139.098 460.544 137.05C461.116 136.727 461.681 136.35 462.242 135.977C463.187 135.349 464.169 134.694 465.291 134.2C468.216 132.932 471.134 133.067 473.754 133.116L475.411 133.143C480.712 133.139 490.323 132.096 495.138 125.101C495.853 124.058 496.448 122.91 497.073 121.698C497.724 120.437 498.394 119.13 499.241 117.899C500.958 115.396 503.213 113.472 505.397 111.612C506.47 110.697 507.546 109.779 508.552 108.792C510.11 107.264 513.641 103.255 512.798 99.0795C512.595 98.0631 512.143 97.0692 511.661 96.0075C511.45 95.5445 511.243 95.0776 511.048 94.6071C508.574 88.5986 508.966 81.5473 511.857 75.7798C509.218 77.1464 506.782 79.2584 504.26 81.4494C502.712 82.7934 501.112 84.1864 499.441 85.4061C493.884 89.4758 486.916 92.0019 479.292 92.7059C478.445 92.7849 477.587 92.8489 476.721 92.9092C474.522 93.0598 472.448 93.2028 470.475 93.7449C463.386 95.7026 458.594 102.355 453.911 109.583C451.2 113.766 448.399 118.095 446.84 122.846C445.248 127.684 445.301 132.533 446.968 136.245Z" fill="url(#paint14_linear_1_585)"/>
<path d="M381.045 106.04L381.274 103.183C381.64 98.5864 383.296 94.3134 384.9 90.1798C385.408 88.8621 385.92 87.552 386.383 86.2306C388.954 78.9609 390.238 71.3901 390.208 63.7176V62.9421C390.193 60.6231 390.178 58.2212 391.127 55.9021C392.282 53.1351 394.684 50.8424 398.28 49.0767C404.875 45.8504 412.171 45.5831 418.496 45.5831L425.736 45.632C432.753 45.632 438.498 45.1614 443.697 42.8687C445.402 42.1195 447.036 41.1783 448.764 40.1769C452.198 38.1967 455.744 36.1487 459.912 35.7233L465.363 35.1736L461.248 38.7953C457.431 42.1647 457.013 47.6273 456.568 53.4136C456.331 56.4631 456.09 59.6104 455.334 62.5694C453.225 70.8179 446.581 77.6734 438.404 80.0339C437.798 80.2071 437.184 80.3614 436.567 80.512C434.485 81.0315 432.52 81.5209 431.236 82.7633C430.468 83.5049 429.914 84.5591 429.331 85.6734C428.849 86.5845 428.356 87.5294 427.686 88.4104C425.047 91.9529 420.845 93.3271 416.41 94.528L414.897 94.9497C404.431 97.8673 393.611 100.883 383.695 104.96L381.045 106.04ZM418.496 49.0993C412.57 49.0993 405.745 49.3402 399.827 52.2315C397.022 53.6094 395.189 55.2998 394.379 57.2424C393.702 58.8988 393.713 60.8565 393.724 62.9233L393.728 63.7101C393.762 71.7854 392.403 79.7591 389.7 87.4052C389.222 88.7567 388.698 90.1045 388.179 91.4522C386.978 94.5506 385.826 97.5247 385.201 100.567C394.5 96.9751 404.375 94.2193 413.956 91.5501L415.48 91.1247C419.313 90.0894 422.901 88.9374 424.873 86.2908C425.404 85.5906 425.807 84.8038 426.217 84.0245C426.906 82.7181 427.614 81.3666 428.789 80.2259C430.758 78.3209 433.4 77.6659 435.727 77.0899C436.303 76.9468 436.879 76.8075 437.436 76.6456C444.431 74.6278 450.123 68.7548 451.93 61.6922C452.616 59.0306 452.845 56.0376 453.067 53.1426C453.402 48.7755 453.749 44.3031 455.608 40.5308C453.914 41.2687 452.247 42.2325 450.534 43.2226C448.798 44.2278 447.006 45.2593 445.124 46.0875C438.712 48.9148 431.759 49.152 425.743 49.152L418.496 49.0993Z" fill="url(#paint15_linear_1_585)"/>
<path d="M369.374 128.309C364.484 113.98 357.474 101.368 350.148 93.7035L352.693 91.2715C360.361 99.2979 367.657 112.38 372.706 127.176L369.374 128.309Z" fill="url(#paint16_linear_1_585)"/>
<path d="M273.935 108.141C272.67 108.141 271.352 107.4 270.411 106.165C269.786 105.344 269.41 104.425 269.308 103.503C257.818 99.8513 247.296 92.8113 239.552 83.569C237.527 81.152 235.4 78.2042 235.049 74.6391C234.88 72.8621 235.159 71.1906 235.433 69.5718C235.629 68.4047 235.814 67.3054 235.821 66.2287C235.832 63.6009 234.793 60.9205 233.69 58.0857C232.056 53.888 230.366 49.5398 232.245 45.1087C232.964 43.4108 234.101 42.0555 235.196 40.7492C236.28 39.4541 237.308 38.2306 237.752 36.8489C237.978 36.16 238.069 35.3807 238.163 34.5562C238.231 33.984 238.298 33.4043 238.408 32.8396C239.24 28.3182 242.157 24.8169 244.981 21.4324C245.557 20.736 246.14 20.0471 246.69 19.3469C248.813 16.6739 252.104 11.5426 250.236 7.21698L247.537 0.95623L252.932 5.12753C256.463 7.86071 258.097 11.9642 259.674 15.9322C261.158 19.663 262.566 23.1906 265.4 25.3102C265.811 25.6189 266.255 25.9049 266.703 26.1911C268.247 27.1925 269.997 28.3219 270.776 30.3699C271.578 32.4518 270.999 34.4697 270.483 36.2504C270.152 37.4061 269.835 38.4941 269.929 39.4428C270.05 40.6287 270.825 41.7845 271.646 43.0042C272.045 43.5991 272.444 44.1939 272.794 44.8075C274.575 47.9548 274.989 51.456 275.392 54.8367C275.727 57.6151 276.04 60.2428 277.06 62.5845C277.621 63.8871 278.404 65.0955 279.236 66.3793C280.041 67.6254 280.881 68.9205 281.532 70.3511C284.943 77.7826 282.481 85.617 280.102 93.1915C278.92 96.9638 277.688 100.864 277.24 104.606C276.932 107.208 275.328 108.141 273.935 108.141ZM254.114 12.0584C253.602 15.0551 252.028 18.2777 249.442 21.5341C248.87 22.2532 248.271 22.9684 247.676 23.68C245.026 26.8574 242.526 29.8579 241.86 33.4796C241.769 33.9728 241.709 34.4659 241.653 34.9591C241.54 35.9228 241.423 36.9167 241.096 37.9332C240.44 39.9661 239.142 41.5134 237.888 43.0118C236.913 44.1751 235.994 45.2706 235.479 46.4866C234.153 49.6038 235.52 53.1087 236.962 56.8132C238.136 59.8325 239.349 62.9497 239.337 66.2551C239.326 67.6141 239.112 68.9054 238.901 70.1553C238.656 71.616 238.426 72.9901 238.551 74.3002C238.807 76.9017 240.565 79.3035 242.248 81.3064C249.856 90.3831 260.288 97.2123 271.635 100.533L273.299 101.018L272.836 102.69C272.704 103.176 272.986 103.691 273.114 103.887C273.303 104.173 273.525 104.376 273.698 104.497C273.72 104.418 273.739 104.312 273.754 104.188C274.24 100.122 275.516 96.064 276.751 92.1374C279.032 84.8753 281.186 78.016 278.34 71.8193C277.79 70.6221 277.056 69.489 276.284 68.2918C275.415 66.9478 274.511 65.5511 273.837 63.9887C272.61 61.1765 272.248 58.1647 271.902 55.2584C271.518 52.0772 271.164 49.073 269.73 46.5431C269.429 46.0047 269.079 45.4889 268.728 44.9694C267.746 43.5125 266.639 41.8635 266.432 39.7967C266.266 38.1741 266.711 36.6344 267.102 35.2753C267.512 33.8485 267.87 32.6174 267.494 31.631C267.121 30.6522 265.992 29.9219 264.794 29.1501C264.279 28.8188 263.767 28.4838 263.296 28.1299C259.663 25.4155 258.01 21.2593 256.41 17.2348C255.676 15.4127 254.972 13.6433 254.114 12.0584Z" fill="url(#paint17_linear_1_585)"/>
<path d="M351.815 94.2118L350.453 93.7675C349.463 93.4475 348.288 92.5817 346.658 91.3845C345.016 90.1798 342.972 88.6739 340.815 87.5445L339.866 87.0588C338.104 86.1741 336.106 85.1652 334.829 83.2452C334.321 82.4847 333.997 81.6527 333.715 80.9224C333.591 80.6024 333.466 80.2824 333.323 79.9737C332.028 77.1539 329.322 75.2339 326.457 73.2009C324.921 72.1092 323.324 70.976 321.901 69.6659C316.028 64.2184 313.22 55.3073 314.567 46.4113C315.693 38.9647 319.386 31.6575 325.549 24.6852C326.302 23.8306 327.081 22.9911 327.861 22.1478C329.875 19.9793 331.78 17.9238 333.263 15.5708C335.518 11.9981 336.716 7.69886 336.633 3.45979L336.591 1.3214L338.703 1.6979C343.014 2.46213 346.428 6.32847 346.647 10.6993C346.684 11.4334 346.643 12.1976 346.594 12.9656C346.504 14.4489 346.424 15.7252 347.049 16.4518C347.256 16.6889 347.595 16.9186 347.987 17.1821C348.412 17.472 348.838 17.7656 349.214 18.1195C350.972 19.776 351.405 22.1704 351.722 23.9209C352.938 30.6974 354.135 37.4776 355.328 44.2504C358.438 61.8616 360.561 78.8405 352.523 92.9581L351.815 94.2118ZM340.073 5.92568C339.735 9.9991 338.413 14.016 336.241 17.4494C334.589 20.0809 332.48 22.3511 330.443 24.5496C329.683 25.3666 328.926 26.1835 328.192 27.0155C322.477 33.4757 319.066 40.1769 318.046 46.9384C316.871 54.7012 319.27 62.4151 324.295 67.0833C325.549 68.2428 326.98 69.2593 328.493 70.3322C331.61 72.5421 334.837 74.8273 336.527 78.5167C336.696 78.8894 336.847 79.2697 336.994 79.6499C337.231 80.2673 337.461 80.8508 337.758 81.2988C338.519 82.4471 339.942 83.1624 341.447 83.9228L342.453 84.4348C344.843 85.6847 347.004 87.2734 348.74 88.5497C349.24 88.9224 349.798 89.3289 350.295 89.6753C356.759 76.8489 354.737 61.1614 351.864 44.8715C350.671 38.0988 349.474 31.3224 348.258 24.5571C347.949 22.8593 347.648 21.4927 346.808 20.7021C346.571 20.4837 346.285 20.2993 346.003 20.1073C345.487 19.7534 344.907 19.3581 344.391 18.7746C342.822 16.9525 342.961 14.6259 343.074 12.7586C343.116 12.1262 343.157 11.4936 343.127 10.8875C343.029 8.86588 341.794 6.97227 340.073 5.92568Z" fill="url(#paint18_linear_1_585)"/>
<path d="M374.456 208.282L373.361 204.936C390.287 199.375 407.894 196.555 425.686 196.555C425.852 196.555 426.014 196.555 426.176 196.555L426.168 200.079C426.006 200.079 425.845 200.075 425.686 200.075C408.263 200.079 391.032 202.839 374.456 208.282Z" fill="url(#paint19_linear_1_585)"/>
<path d="M211.238 163.889C208.26 163.889 205.369 163.576 202.639 162.955C193.89 160.952 184.384 154.345 182.867 144.109C182.69 142.92 182.63 141.696 182.573 140.484C182.472 138.289 182.37 136.218 181.538 134.475C181.263 133.911 180.909 133.372 180.563 132.83C180.047 132.036 179.543 131.234 179.166 130.357C177.672 126.822 178.613 123.034 179.437 119.691L179.603 119.021C182.25 108.205 182.189 96.7755 179.415 85.9671L178.406 82.0254L181.967 83.9868C191.793 89.4005 198.46 97.5322 203.166 104.008C204.491 105.848 205.809 107.836 206.155 110.189C206.246 110.761 206.272 111.356 206.291 111.951C206.31 112.474 206.317 112.994 206.423 113.506C206.98 116.25 210.105 117.621 213.41 119.074C214.374 119.496 215.326 119.921 216.215 120.369C222.216 123.433 226.989 129.702 229.316 137.562C231.353 144.422 231.481 151.62 231.605 158.577L231.631 159.868L230.411 160.339C223.307 162.729 217.035 163.889 211.238 163.889ZM183.752 89.1972C185.713 99.3242 185.476 109.843 183.025 119.861L182.856 120.538C182.129 123.486 181.369 126.532 182.408 128.983C182.701 129.672 183.115 130.296 183.522 130.925C183.944 131.58 184.365 132.239 184.708 132.943C185.856 135.345 185.977 137.871 186.09 140.314C186.142 141.417 186.191 142.52 186.349 143.597C187.618 152.143 196.089 157.839 203.422 159.518C210.522 161.137 218.511 160.463 228.066 157.402C227.946 151.036 227.72 144.561 225.939 138.56C223.887 131.618 219.757 126.133 214.615 123.509C213.786 123.087 212.894 122.696 211.994 122.3C208.196 120.632 203.897 118.743 202.978 114.214C202.835 113.51 202.801 112.794 202.775 112.075C202.76 111.624 202.748 111.172 202.681 110.728C202.443 109.143 201.431 107.625 200.316 106.082C196.42 100.71 191.119 94.1553 183.752 89.1972Z" fill="url(#paint20_linear_1_585)"/>
<path d="M450.752 217.035C442.549 217.035 433.224 211.573 423.032 200.798L422.332 200.06L422.622 199.085C427.095 184.072 440.58 177.227 451.211 177.227C451.746 177.227 452.269 177.246 452.8 177.276L453.971 177.363C455.767 177.51 457.57 177.562 458.835 177.133C459.674 176.851 460.529 176.331 461.436 175.785L462.261 175.292C466.537 172.804 471.149 171.528 475.219 170.398C479.243 169.276 483.275 168.147 487.3 167.01L501.877 162.914L492.371 185.965C491.456 188.194 490.507 190.317 488.922 191.819C486.807 193.815 484.265 194.048 482.541 194.048C481.717 194.048 480.877 193.992 480.038 193.931C479.277 193.879 478.517 193.826 477.764 193.826C476.04 193.826 474.903 194.142 473.969 194.88C472.926 195.704 472.072 197.165 471.356 198.464C470.837 199.413 470.336 200.38 469.828 201.348C468.382 204.111 466.891 206.972 465.009 209.464C461.286 214.419 456.358 217.035 450.752 217.035ZM426.304 199.127C441.333 214.701 454.408 217.705 462.197 207.349C463.906 205.086 465.265 202.477 466.711 199.718C467.226 198.731 467.742 197.745 468.273 196.774C469.158 195.166 470.231 193.355 471.789 192.124C473.845 190.498 476.186 190.31 477.768 190.31C478.6 190.31 479.443 190.366 480.286 190.426C481.043 190.479 481.8 190.532 482.545 190.532C484.408 190.532 485.557 190.163 486.509 189.263C487.586 188.247 488.328 186.564 489.118 184.632L495.868 168.264L488.264 170.398C484.235 171.543 480.196 172.672 476.164 173.79C472.301 174.863 467.919 176.075 464.034 178.338L463.258 178.797C462.231 179.422 461.161 180.066 459.961 180.469C458.195 181.064 455.97 181.052 453.692 180.868L452.582 180.789C443.189 180.179 430.754 185.867 426.304 199.127Z" fill="url(#paint21_linear_1_585)"/>
<path d="M203.678 344.471C201.118 344.471 198.566 344.222 196.405 343.974C194.104 343.706 191.575 343.213 190.231 341.579C181.414 330.925 182.777 313.559 193.152 304.418C198.054 300.1 204.183 297.856 210.112 295.688C213.474 294.456 216.945 293.184 220.092 291.558C226.993 287.992 232.934 282.315 236.815 275.576C238.389 272.836 239.688 269.816 240.945 266.895L241.928 264.61L243.78 266.24C245.775 268.085 245.47 270.739 245.225 272.877L245.131 273.769C244.841 276.883 245.787 279.981 246.781 283.264C247.108 284.337 247.435 285.406 247.718 286.483C248.877 290.865 249.449 296.956 245.617 301.094C244.796 301.993 243.859 302.682 242.955 303.345C242.108 303.966 241.31 304.55 240.704 305.246C239.149 307.027 238.735 309.587 238.295 312.301C237.862 314.985 237.414 317.764 235.832 320.173C234.202 322.677 231.752 324.186 229.38 325.64C227.757 326.641 226.225 327.582 225.009 328.794C223.605 330.199 222.592 332.009 221.523 333.922C220.337 336.041 219.106 338.24 217.239 340.028C214.11 343.017 209.672 344.471 203.678 344.471ZM241.585 274.086C241.047 275.185 240.486 276.273 239.876 277.331C235.659 284.649 229.21 290.812 221.719 294.682C218.372 296.41 214.792 297.724 211.328 298.993C205.444 301.143 199.891 303.179 195.482 307.061C186.632 314.861 185.423 330.248 192.949 339.343C193.235 339.689 194.135 340.168 196.808 340.48C198.867 340.71 201.295 340.954 203.678 340.954C208.791 340.954 212.333 339.851 214.818 337.483C216.305 336.06 217.352 334.185 218.458 332.205C219.599 330.165 220.777 328.053 222.532 326.306C224.038 324.8 225.822 323.704 227.546 322.643C229.677 321.329 231.695 320.09 232.896 318.249C234.063 316.461 234.436 314.168 234.831 311.736C235.332 308.653 235.844 305.464 238.061 302.931C238.916 301.941 239.913 301.214 240.877 300.503C241.683 299.915 242.44 299.358 243.031 298.707C245.933 295.578 245.082 290.266 244.318 287.375C244.047 286.347 243.735 285.316 243.422 284.288C242.424 281.024 241.4 277.647 241.585 274.086Z" fill="url(#paint22_linear_1_585)"/>
<path d="M150.087 351.567L148.378 349.478C140.999 340.476 132.318 332.721 122.583 326.419L121.943 326.008C119.296 324.311 116.559 322.556 114.601 319.876C107.975 310.776 114.767 298.748 117.993 293.997C118.697 292.969 119.424 291.934 120.154 290.899C124.311 285.011 128.606 278.916 128.361 272.158C128.335 271.567 128.275 270.965 128.218 270.362C128.109 269.199 127.992 267.998 128.079 266.744C128.135 266.025 128.154 265.009 128.173 263.853C128.263 259.479 128.399 255.974 129.231 254.001C130.391 251.241 132.055 249.389 133.527 247.759C134.464 246.72 135.292 245.801 135.887 244.777C135.838 243.064 136.233 241.419 137.065 239.876L140.179 234.101L140.371 240.659C140.427 242.424 140.13 244.006 139.479 245.478C139.881 248.139 141.895 251.019 144.952 253.263L145.344 253.549C149.824 256.836 154.059 259.938 155.546 265.961C156.224 268.725 155.844 271.439 155.471 274.063C155.211 275.938 154.959 277.711 155.095 279.424C155.426 283.682 158.027 287.296 160.783 291.121C162.854 293.993 164.992 296.964 166.257 300.367C169.965 310.336 165.515 320.772 160.64 330.605L156.499 338.835C154.839 342.144 153.126 345.544 151.3 349.15L150.087 351.567ZM136.305 249.943C136.248 250.003 136.199 250.059 136.143 250.12C134.799 251.614 133.406 253.158 132.476 255.371C131.84 256.885 131.753 261.124 131.693 263.932C131.671 265.156 131.644 266.236 131.591 266.993C131.524 267.957 131.622 268.962 131.723 270.031C131.791 270.694 131.851 271.356 131.878 272.019C132.171 279.974 127.526 286.558 123.031 292.928C122.311 293.952 121.592 294.965 120.907 295.977C118.716 299.2 111.992 310.313 117.444 317.801C119.017 319.947 121.359 321.457 123.844 323.049L124.495 323.467C133.786 329.483 142.148 336.783 149.368 345.197C150.75 342.46 152.068 339.836 153.359 337.269L157.5 329.043C162.029 319.91 166.185 310.261 162.963 301.609C161.863 298.65 159.955 296 157.933 293.192C155.019 289.141 152.004 284.947 151.593 279.714C151.424 277.617 151.71 275.569 151.989 273.585C152.327 271.187 152.647 268.92 152.128 266.816C150.95 262.031 147.554 259.546 143.266 256.399L142.874 256.113C140.386 254.287 138.473 252.119 137.284 249.841L136.433 251.509L136.305 249.943Z" fill="url(#paint23_linear_1_585)"/>
<path d="M60.1299 392.324C56.0452 392.324 50.944 391.853 47.7063 388.19C46.8969 387.275 46.2946 386.255 45.711 385.276C44.8715 383.861 44.1487 382.641 43.0381 382.061C41.9275 381.485 40.1468 381.651 38.3925 381.896C36.6042 382.14 34.7559 382.317 33.2312 381.99C28.7248 381.041 26.5448 376.885 24.6211 373.214C24.0639 372.149 23.5068 371.087 22.9007 370.116C19.8513 365.218 14.3059 361.69 6.41888 359.627C5.02218 359.409 3.63282 359.1 2.28882 358.712L3.09465 355.29C4.43489 355.539 5.79014 355.833 7.12661 356.175C8.67391 356.405 10.289 356.525 11.9267 356.525C20.6269 356.521 29.6735 353.231 38.4188 350.046C42.8047 348.45 47.3412 346.801 51.8287 345.562C65.6677 341.737 79.6235 342.106 91.1849 346.639C104.392 351.831 114.583 362.808 117.783 375.292L118.381 377.638L115.964 377.487C104.892 376.772 92.5252 380.857 82.5939 388.367L82.1873 388.668C80.9675 389.587 79.7063 390.539 78.159 391.149C76.2842 391.88 74.2927 391.94 72.5346 391.993L62.1892 392.29C61.5115 392.309 60.8226 392.324 60.1299 392.324ZM41.0014 378.12C42.4094 378.12 43.6066 378.387 44.6682 378.94C46.6635 379.983 47.7666 381.843 48.7379 383.481C49.2649 384.361 49.7543 385.197 50.3454 385.864C52.6532 388.473 56.7868 388.808 60.1336 388.808C60.7925 388.808 61.4475 388.792 62.0913 388.774L72.4405 388.476C73.984 388.427 75.5802 388.382 76.8866 387.87C77.9821 387.441 78.9986 386.673 80.0828 385.856L80.4894 385.555C90.2889 378.142 102.344 373.892 113.536 373.892C113.596 373.892 113.649 373.892 113.709 373.892C110.185 363.433 101.263 354.376 89.9087 349.918C79.0588 345.66 65.8823 345.344 52.7774 348.951C48.4292 350.155 43.9567 351.782 39.6348 353.355C32.1017 356.096 24.3463 358.92 16.5721 359.778C20.638 361.992 23.7592 364.823 25.8975 368.252C26.5526 369.295 27.1509 370.436 27.7495 371.584C29.4625 374.852 31.0852 377.939 33.969 378.553C35.057 378.778 36.5477 378.605 37.9143 378.413C38.9496 378.263 39.9925 378.12 41.0014 378.12Z" fill="url(#paint24_linear_1_585)"/>
<path d="M72.1017 542.897C70.3888 542.897 68.6758 542.75 67.0118 542.468C59.7911 541.225 53.3836 537.306 47.1831 533.515C39.6085 528.881 32.4369 524.491 24.339 525.03L24.0791 521.517C35.0683 520.561 45.7186 514.82 52.5666 506.15L53.1012 505.472C54.6146 503.529 56.3276 501.331 58.9779 500.363C60.9883 499.641 62.6636 499.784 64.192 499.833C64.9375 499.855 65.6942 499.885 66.4396 499.833C72.5422 499.422 76.5553 494.073 80.8019 488.414C82.4923 486.159 84.2391 483.833 86.144 481.815C91.9003 475.735 100.405 472.249 109.478 472.249C117.342 472.249 124.702 474.869 130.199 479.635L130.583 479.97L130.729 480.456C132.476 486.223 130.315 492.905 124.473 499.776C123.735 500.642 122.974 501.504 122.206 502.37C118.803 506.214 115.279 510.182 114.123 514.929C113.931 515.701 113.8 516.484 113.668 517.263C113.344 519.145 113.013 521.096 111.97 522.906C110.728 525.018 108.755 526.438 107.019 527.684C96.2033 535.398 84.6306 542.897 72.1017 542.897ZM34.304 522.952C39.4692 524.668 44.2956 527.62 49.0203 530.511C54.9346 534.129 61.0523 537.871 67.6104 538.997C69.0786 539.249 70.5883 539.377 72.0979 539.377C83.5916 539.381 94.6184 532.205 104.934 524.853C106.564 523.682 108.07 522.598 108.928 521.137C109.651 519.887 109.918 518.325 110.201 516.672C110.347 515.806 110.498 514.933 110.713 514.082C112.072 508.503 115.889 504.196 119.575 500.036C120.324 499.189 121.073 498.349 121.792 497.498C125.199 493.489 128.9 487.586 127.499 481.961C122.688 477.967 116.307 475.769 109.481 475.769C101.372 475.769 93.7977 478.856 88.704 484.235C86.9346 486.106 85.248 488.354 83.6179 490.526C79.0777 496.572 74.3869 502.825 66.673 503.349C65.8222 503.409 64.945 503.383 64.0753 503.353C62.4942 503.304 61.12 503.33 60.1789 503.673C58.4885 504.29 57.2198 505.92 55.8758 507.641L55.3262 508.337C49.9878 515.095 42.5149 520.218 34.304 522.952Z" fill="url(#paint25_linear_1_585)"/>
<path d="M280.666 531.449L277.165 531.068C280.738 498.556 291.437 465.028 307.294 436.657L310.366 438.377C294.735 466.342 284.186 499.396 280.666 531.449Z" fill="url(#paint26_linear_1_585)"/>
<path d="M304.998 442.056L304.824 440.218C303.33 424.26 307.102 409.544 315.448 398.78C323.136 388.853 335.236 382.69 347.023 382.69C349.643 382.69 352.233 382.995 354.718 383.593C355.573 383.797 356.42 384.038 357.271 384.282C359.036 384.783 360.704 385.261 362.383 385.382L362.842 385.397C364.898 385.397 366.859 384.324 368.941 383.187C371.4 381.847 374.189 380.322 377.623 380.322H386.12L378.323 383.695C374.6 385.31 373.256 389.99 372.856 391.929C372.484 393.724 372.318 395.55 372.149 397.481C371.96 399.548 371.768 401.683 371.298 403.799C369.645 411.26 364.585 417.773 357.752 421.21C356.619 421.783 355.441 422.272 354.259 422.758C352.309 423.56 350.472 424.32 348.89 425.453C347.102 426.745 345.66 428.525 344.124 430.415C342.005 433.024 339.817 435.723 336.557 437.218C334.347 438.227 331.953 438.528 329.845 438.792L327.371 439.104C320.008 440.03 312.772 440.941 306.827 441.8L304.998 442.056ZM347.023 386.206C336.301 386.206 325.271 391.849 318.231 400.934C310.758 410.579 307.215 423.699 308.183 438.046C313.762 437.263 320.297 436.439 326.935 435.607L329.408 435.294C331.362 435.049 333.38 434.797 335.096 434.014C337.608 432.862 339.445 430.596 341.391 428.194C343.002 426.21 344.666 424.158 346.835 422.592C348.751 421.218 350.867 420.341 352.915 419.501C354.014 419.049 355.113 418.598 356.168 418.063C362.059 415.096 366.434 409.476 367.861 403.034C368.279 401.141 368.452 399.209 368.636 397.165C368.813 395.215 368.994 393.205 369.404 391.209C369.815 389.237 370.458 387.452 371.305 385.909C371.08 386.029 370.857 386.15 370.628 386.274C368.064 387.678 365.414 389.139 362.123 388.887C360.087 388.74 358.163 388.19 356.299 387.663C355.501 387.433 354.699 387.208 353.89 387.012C351.676 386.477 349.365 386.206 347.023 386.206Z" fill="url(#paint27_linear_1_585)"/>
<path d="M307.987 437.658C315.464 429.79 324.07 422.788 332.009 415.533C322.782 421.466 313.619 428.013 307.987 437.658Z" fill="url(#paint28_linear_1_585)"/>
<path d="M364.265 392.482C367.081 390.829 369.491 388.612 371.603 386.146C369.031 388.028 366.502 390.231 364.265 392.482Z" fill="url(#paint29_linear_1_585)"/>
<path d="M344.238 414.34C344.132 414.34 344.042 414.359 343.936 414.396L344.238 414.34Z" fill="url(#paint30_linear_1_585)"/>
<path d="M320.938 429.387C321.732 429.195 322.662 428.894 323.313 428.54C322.489 428.698 321.675 428.981 320.938 429.387Z" fill="url(#paint31_linear_1_585)"/>
<path d="M333.274 412.352C343.198 407.232 353.318 402.089 361.713 394.594C352.456 399.876 340.171 406.208 333.274 412.352Z" fill="url(#paint32_linear_1_585)"/>
<path d="M314.989 435.019C320.851 434.507 326.483 432.764 331.78 430.268C326.148 431.432 320.267 433.186 314.989 435.019Z" fill="url(#paint33_linear_1_585)"/>
<path d="M313.739 423.895C318.336 417.559 322.402 410.662 326.957 404.416C321.039 409.608 316.593 416.821 313.739 423.895Z" fill="url(#paint34_linear_1_585)"/>
<path d="M309.5 432.29C311.1 427.098 312.911 421.997 314.27 416.734C314.989 414.234 315.659 411.93 317.048 409.796C311.857 415.853 310.362 424.877 309.5 432.29Z" fill="url(#paint35_linear_1_585)"/>
<path d="M361.694 410.835C365.937 404.698 367.273 397.286 369.702 390.389C365.798 396.619 364.265 404.119 361.694 410.835Z" fill="url(#paint36_linear_1_585)"/>
<path d="M362.699 388.171C356.258 389.79 350.17 390.332 343.729 391.108C342.423 391.228 340.879 391.371 339.719 391.529C340.39 391.563 341.037 391.612 341.703 391.654C348.548 392.143 355.659 391.755 362.086 389.169C363.719 388.499 365.304 387.622 366.52 386.3C365.267 387.309 364.156 387.731 362.699 388.171Z" fill="url(#paint37_linear_1_585)"/>
<path d="M97.2611 504.023C104.109 501.082 110.569 497.28 116.551 492.845C120.847 489.852 124.819 486.283 129.54 483.942C117.447 488.079 107.911 497.227 97.2611 504.023Z" fill="url(#paint38_linear_1_585)"/>
<path d="M60.4311 517.677C51.3318 519.386 41.9012 521.705 32.9224 522.869C31.3036 523.102 29.5755 523.272 28.032 523.418C28.5252 523.434 29.0334 523.471 29.5228 523.49C39.6085 523.84 49.6226 522.259 59.4937 520.354C70.5808 518.242 81.5586 515.147 91.7497 510.223C81.5097 513.506 70.9384 515.513 60.4311 517.677Z" fill="url(#paint39_linear_1_585)"/>
<path d="M47.3901 524.841C53.8504 526.882 60.7473 527.093 67.2941 525.259C60.657 525.564 53.9708 525.259 47.3901 524.841Z" fill="url(#paint40_linear_1_585)"/>
<path d="M37.7299 520.93C46.0687 518.731 54.0386 514.948 60.7962 509.579C53.1426 513.261 45.0334 517.026 37.7299 520.93Z" fill="url(#paint41_linear_1_585)"/>
<path d="M96.6475 494.957C89.4531 500.766 83.4484 506.944 75.5313 511.503C74.8272 511.925 74.0329 512.312 73.3138 512.632C74.319 512.35 75.3016 511.977 76.2541 511.556C86.0574 507.403 93.9369 499.817 101.116 494.682C109.56 488.911 118.784 483.964 128.252 480.286C116.935 482.989 105.852 487.725 96.6475 494.957Z" fill="url(#paint42_linear_1_585)"/>
<path d="M70.8329 368.218C85.1576 368.535 98.0216 371.347 112.542 375.01C99.6404 368.862 84.8752 365.7 70.8329 368.218Z" fill="url(#paint43_linear_1_585)"/>
<path d="M11.3807 356.687C10.7144 356.529 9.56975 356.232 9.20081 356.194C10.4657 356.668 11.7156 357.161 12.9655 357.689C19.0154 360.222 25.92 363.516 32.6438 365.361C40.4743 367.473 48.6588 368.354 56.7529 368.102C41.1934 366.242 26.4132 360.858 11.3807 356.687Z" fill="url(#paint44_linear_1_585)"/>
<path d="M43.2037 372.559C46.7764 374.426 50.6466 375.71 54.6597 376.203C50.895 374.957 46.9684 373.497 43.2037 372.559Z" fill="url(#paint45_linear_1_585)"/>
<path d="M51.5087 356.247C55.0475 355.915 58.4621 355.019 61.8578 354.01C58.3868 354.421 54.7087 355.083 51.5087 356.247Z" fill="url(#paint46_linear_1_585)"/>
<path d="M39.7553 355.422C35.2113 357.199 33.0881 358.272 28.8792 359.887C38.1892 358.039 47.232 354.68 55.5558 350.118C50.3492 352.023 44.8904 353.257 39.7553 355.422Z" fill="url(#paint47_linear_1_585)"/>
<path d="M93.3572 363.181C99.5689 366.246 106.187 368.535 112.542 371.102C106.835 367.123 100.009 364.638 93.3572 363.181Z" fill="url(#paint48_linear_1_585)"/>
<path d="M84.1487 382.17C75.7572 385.107 69.2292 386.116 60.6231 385.901C59.0758 385.882 57.0692 385.758 55.7666 385.705C56.8019 385.95 57.8598 386.18 58.8988 386.413C66.0443 388.081 73.664 387.765 80.4367 384.761C83.1134 383.578 85.9445 382.298 87.936 380.115C86.7577 381.184 85.3346 381.658 84.1487 382.17Z" fill="url(#paint49_linear_1_585)"/>
<path d="M143.759 316.631C144.109 327.42 146.628 337.943 148.457 348.521C148.879 337.698 146.379 327.051 143.759 316.631Z" fill="url(#paint50_linear_1_585)"/>
<path d="M137.001 249.129C135.296 260.337 136.651 271.898 138.285 282.741C138.989 271.492 137.687 260.318 137.001 249.129Z" fill="url(#paint51_linear_1_585)"/>
<path d="M140.431 289.585C139.52 293.549 139.659 297.769 140.518 301.677C140.657 297.649 140.54 293.613 140.431 289.585Z" fill="url(#paint52_linear_1_585)"/>
<path d="M136.968 322.669C134.908 316.985 132.408 311.443 130.312 305.777C132.122 315.629 135.206 325.873 141.752 333.651C139.55 330.082 138.443 326.596 136.968 322.669Z" fill="url(#paint53_linear_1_585)"/>
<path d="M156.785 304.949C156.661 304.456 156.521 303.91 156.393 303.45C156.465 304.384 156.518 305.333 156.57 306.266C157.064 316.86 156.589 326.223 154.157 335.989C158.841 326.385 159.545 315.223 156.785 304.949Z" fill="url(#paint54_linear_1_585)"/>
<path d="M118.434 303.593C119.65 312.448 122.432 321.352 127.936 328.512C124.277 320.666 121.566 311.812 118.434 303.593Z" fill="url(#paint55_linear_1_585)"/>
<path d="M218.989 307.678C224.482 303.77 229.971 299.569 233.841 294.11C229.056 298.436 222.953 302.976 218.989 307.678Z" fill="url(#paint56_linear_1_585)"/>
<path d="M190.727 339.121C191.518 337.276 192.433 335.552 193.754 334.249C199.032 328.794 204.209 323.057 209.984 318.148C202.481 322.037 190.607 333.353 190.727 339.121Z" fill="url(#paint57_linear_1_585)"/>
<path d="M211.441 313.133C214.238 310.792 216.772 308.134 219.43 305.638C216.211 307.411 213.519 310.208 211.441 313.133Z" fill="url(#paint58_linear_1_585)"/>
<path d="M218.165 319.977C222.826 315.347 226.842 310.069 229.99 304.297C225.785 309.154 221.244 314.718 218.165 319.977Z" fill="url(#paint59_linear_1_585)"/>
<path d="M203.204 133.207C202.221 131.746 201.005 129.796 200.181 128.58C200.689 129.845 201.197 131.095 201.762 132.326C205.76 141.368 212.284 150.961 222.599 153.001C213.606 149.203 208.625 140.984 203.204 133.207Z" fill="url(#paint60_linear_1_585)"/>
<path d="M181.594 83.3694C184.885 88.8433 186.345 94.7727 187.979 101.214C190.076 109.274 192.222 117.387 195.584 125.022C192.098 111.191 190.709 93.9068 181.594 83.3694Z" fill="url(#paint61_linear_1_585)"/>
<path d="M188.017 125.218C188.194 129.758 189.497 134.159 191.345 138.296C190.57 133.926 189.248 129.193 188.017 125.218Z" fill="url(#paint62_linear_1_585)"/>
<path d="M192.154 100.664C194.827 106.718 198.682 112.12 202.063 117.79C200.071 111.526 196.216 105.931 192.154 100.664Z" fill="url(#paint63_linear_1_585)"/>
<path d="M184.06 107.106C183.074 114.044 182.777 121.028 182.81 128.034C184.407 121.186 184.708 114.078 184.06 107.106Z" fill="url(#paint64_linear_1_585)"/>
<path d="M184.99 102.197C184.851 109.448 186.345 116.521 187.509 123.629C188.002 116.42 186.541 109.24 184.99 102.197Z" fill="url(#paint65_linear_1_585)"/>
<path d="M263.112 75.4297C265.397 84.9657 267.968 94.4715 272.456 103.255C270.076 94.016 267.177 83.2979 263.112 75.4297Z" fill="url(#paint66_linear_1_585)"/>
<path d="M253.24 10.0518C249.51 30.5355 257.389 50.5111 261.862 70.2193C260.416 49.7017 252.634 30.1666 253.24 10.0518Z" fill="url(#paint67_linear_1_585)"/>
<path d="M272.791 90.1609C272.791 95.0513 273.351 99.6819 274.003 104.275C274.443 99.5765 273.954 94.6297 272.791 90.1609Z" fill="url(#paint68_linear_1_585)"/>
<path d="M261.877 92.0245C262.773 95.6838 264.339 99.1021 266.135 102.408C265.186 98.8009 263.586 95.1944 261.877 92.0245Z" fill="url(#paint69_linear_1_585)"/>
<path d="M242.68 72.9826C242.24 67.6518 241.378 62.3021 240.9 57.0052C240.004 64.8207 240.775 72.9487 243.539 80.3238C242.997 77.9445 242.94 75.5012 242.68 72.9826Z" fill="url(#paint70_linear_1_585)"/>
<path d="M344.045 70.9233C345.367 77.7713 347.388 84.7435 351.209 90.6165C348.902 84.1073 346.88 77.0673 344.045 70.9233Z" fill="url(#paint71_linear_1_585)"/>
<path d="M342.302 56.7605C342.498 59.7158 343.093 62.6522 344.102 65.4532C343.85 62.5468 343.217 59.328 342.302 56.7605Z" fill="url(#paint72_linear_1_585)"/>
<path d="M339.223 4.47623C339.309 12.7473 338.481 20.9845 338.447 29.2555C338.82 35.7835 339.079 42.3115 339.098 48.8433C340.209 42.3304 340.755 35.7835 340.612 29.184C340.894 20.9468 340.702 12.5139 339.223 4.47623Z" fill="url(#paint73_linear_1_585)"/>
<path d="M415.548 72.6852C414.893 72.9487 414.261 73.216 413.628 73.4795C406.359 76.3821 399.443 80.3953 393.969 86.065C389.53 90.7068 386.311 96.3238 382.686 101.587C387.034 97.1633 390.765 92.1675 395.2 87.8607C396.469 86.6635 397.681 85.5718 398.863 84.5327C394.266 89.7242 390.641 95.7591 387.158 101.745C392.967 95.3374 397.862 87.5934 403.019 81.1031C406.027 78.7614 409.144 76.6494 412.962 74.3228C413.786 73.777 414.825 73.1595 415.548 72.6852Z" fill="url(#paint74_linear_1_585)"/>
<path d="M458.025 38.6146C450.266 43.5087 444.424 50.6165 437.843 56.8809C435.524 59.0645 432.9 60.9129 430.543 63.0626C430.505 63.1002 430.475 63.1341 430.505 63.1831C430.543 63.2207 430.592 63.1831 430.63 63.1642C430.577 63.2057 430.524 63.1492 430.562 63.0965C431.017 62.7238 431.567 62.4791 432.057 62.1817C435.418 60.3332 438.69 58.2739 441.593 55.7591C446.43 51.4447 450.549 46.2871 455.036 41.6075C452.657 46.3774 451.204 51.2339 449.193 56.2485C447.379 60.3332 444.529 66.56 442.613 71.4202C445.583 66.56 448.911 61.8278 450.97 56.4969C452.819 51.9191 453.843 45.6734 455.07 41.5699C456.041 40.5497 457.013 39.5633 458.025 38.6146Z" fill="url(#paint75_linear_1_585)"/>
<path d="M446.238 137.781C447.149 136.218 448.312 134.968 449.6 133.613C453.489 129.811 457.555 126.155 461.617 122.526C455.352 126.152 448.949 130.865 446.238 137.781Z" fill="url(#paint76_linear_1_585)"/>
<path d="M490.022 105.28C489.758 105.453 489.472 105.611 489.194 105.788C489.687 105.367 490.199 104.941 490.658 104.486C484.055 108.691 476.702 111.526 470.099 115.731C472.546 114.816 475.027 113.848 477.459 112.776C474.538 114.481 471.65 116.224 468.849 118.163C461.267 123.599 454.37 130.127 449.303 138.01C460.548 124.725 474.342 117.967 488.527 106.876C489.724 105.928 491.204 104.712 492.19 103.849C491.483 104.328 490.745 104.806 490.022 105.28Z" fill="url(#paint77_linear_1_585)"/>
<path d="M496.181 97.6264C500.563 92.5064 504.7 87.1003 507.814 81.1332C503.364 86.1854 499.452 91.7421 496.181 97.6264Z" fill="url(#paint78_linear_1_585)"/>
<path d="M495.39 110.927C503.379 101.353 506.334 88.6626 510.841 77.1539C503.91 87.8193 501.161 100.265 495.39 110.927Z" fill="url(#paint79_linear_1_585)"/>
<path d="M429.466 198.656C437.598 198.02 445.798 195.347 452.819 191.544C444.935 193.604 437.248 196.277 429.466 198.656Z" fill="url(#paint80_linear_1_585)"/>
<path d="M459.912 187.128C471.722 182.92 482.827 176.128 492.661 168.241C481.416 173.963 470.735 180.668 459.912 187.128Z" fill="url(#paint81_linear_1_585)"/>
<path d="M601.438 184.414C591.07 194.15 581.289 204.811 569.638 212.397C583.612 206.487 594.379 195.064 603.11 182.976C603.309 182.697 603.535 182.377 603.659 182.148C602.933 182.92 602.195 183.676 601.438 184.414Z" fill="url(#paint82_linear_1_585)"/>
<path d="M535.533 246.046C542.306 242.952 548.1 237.862 553.589 233.024C546.952 236.51 541.267 241.664 535.533 246.046Z" fill="url(#paint83_linear_1_585)"/>
<path d="M533.613 242.545C535.533 240.644 537.22 238.426 538.628 236.175C536.644 238.024 535.055 240.241 533.613 242.545Z" fill="url(#paint84_linear_1_585)"/>
<path d="M532.326 234.379C532.996 233.641 533.737 232.712 534.155 231.917C533.421 232.636 532.819 233.464 532.326 234.379Z" fill="url(#paint85_linear_1_585)"/>
<path d="M556.86 237.018C554.078 239.078 552.181 240.945 548.89 242.741C556.194 240.188 563.057 234.379 567.774 228.977C564.409 231.454 559.078 235.275 556.86 237.018Z" fill="url(#paint86_linear_1_585)"/>
<path d="M561.525 307.272C552.369 304.666 543.097 302.396 534.069 299.385C551.055 307.569 570.127 313.502 588.695 314.835C579.475 312.956 570.553 309.911 561.525 307.272Z" fill="url(#paint87_linear_1_585)"/>
<path d="M603.196 311.319C610.379 313.818 618.071 315.543 625.675 314.168C618.048 314.067 610.745 312.06 603.196 311.319Z" fill="url(#paint88_linear_1_585)"/>
<path d="M444.13 329.005C456.395 343.176 471.97 353.999 484.939 367.443C474.184 351.797 458.519 340.936 444.13 329.005Z" fill="url(#paint89_linear_1_585)"/>
<path d="M441.837 335.94C443.332 338.522 445.515 341.128 447.627 342.976C445.899 340.461 443.863 338.21 441.837 335.94Z" fill="url(#paint90_linear_1_585)"/>
<path d="M450.741 330.361C451.268 330.835 451.923 331.328 452.484 331.644C451.961 331.151 451.377 330.714 450.741 330.361Z" fill="url(#paint91_linear_1_585)"/>
<path d="M479.428 344.651C481.702 347.979 484.288 351.39 487.157 354.104C485.003 350.637 482.436 347.415 479.428 344.651Z" fill="url(#paint92_linear_1_585)"/>
<defs>
<linearGradient id="paint0_linear_1_585" x1="361.078" y1="725.907" x2="454.794" y2="711.104" gradientUnits="userSpaceOnUse">
<stop stop-color="#0B9B8A"/>
<stop offset="1" stop-color="#08DEC5"/>
</linearGradient>
<linearGradient id="paint1_linear_1_585" x1="273.545" y1="347.467" x2="288.567" y2="346.563" gradientUnits="userSpaceOnUse">
<stop stop-color="#0B9B8A"/>
<stop offset="1" stop-color="#08DEC5"/>
</linearGradient>
<linearGradient id="paint2_linear_1_585" x1="249.177" y1="228.623" x2="267.968" y2="223.366" gradientUnits="userSpaceOnUse">
<stop stop-color="#0B9B8A"/>
<stop offset="1" stop-color="#08DEC5"/>
</linearGradient>
<linearGradient id="paint3_linear_1_585" x1="357.914" y1="258.921" x2="389.282" y2="252.667" gradientUnits="userSpaceOnUse">
<stop stop-color="#0B9B8A"/>
<stop offset="1" stop-color="#08DEC5"/>
</linearGradient>
<linearGradient id="paint4_linear_1_585" x1="421.909" y1="307.761" x2="440.554" y2="263.138" gradientUnits="userSpaceOnUse">
<stop stop-color="#0B9B8A"/>
<stop offset="1" stop-color="#08DEC5"/>
</linearGradient>
<linearGradient id="paint5_linear_1_585" x1="487.282" y1="262.69" x2="492.382" y2="246.954" gradientUnits="userSpaceOnUse">
<stop stop-color="#0B9B8A"/>
<stop offset="1" stop-color="#08DEC5"/>
</linearGradient>
<linearGradient id="paint6_linear_1_585" x1="404.828" y1="329.182" x2="435.153" y2="307.36" gradientUnits="userSpaceOnUse">
<stop stop-color="#0B9B8A"/>
<stop offset="1" stop-color="#08DEC5"/>
</linearGradient>
<linearGradient id="paint7_linear_1_585" x1="229.717" y1="583.217" x2="300.454" y2="560.346" gradientUnits="userSpaceOnUse">
<stop stop-color="#0B9B8A"/>
<stop offset="1" stop-color="#08DEC5"/>
</linearGradient>
<linearGradient id="paint8_linear_1_585" x1="180.272" y1="434.376" x2="195.023" y2="432.042" gradientUnits="userSpaceOnUse">
<stop stop-color="#0B9B8A"/>
<stop offset="1" stop-color="#08DEC5"/>
</linearGradient>
<linearGradient id="paint9_linear_1_585" x1="136.525" y1="394.884" x2="147.264" y2="383.856" gradientUnits="userSpaceOnUse">
<stop stop-color="#0B9B8A"/>
<stop offset="1" stop-color="#08DEC5"/>
</linearGradient>
<linearGradient id="paint10_linear_1_585" x1="162.682" y1="485.594" x2="167.576" y2="473.956" gradientUnits="userSpaceOnUse">
<stop stop-color="#0B9B8A"/>
<stop offset="1" stop-color="#08DEC5"/>
</linearGradient>
<linearGradient id="paint11_linear_1_585" x1="475.241" y1="410.12" x2="508.494" y2="395.823" gradientUnits="userSpaceOnUse">
<stop stop-color="#0B9B8A"/>
<stop offset="1" stop-color="#08DEC5"/>
</linearGradient>
<linearGradient id="paint12_linear_1_585" x1="570.997" y1="249.295" x2="602.746" y2="231.867" gradientUnits="userSpaceOnUse">
<stop stop-color="#0B9B8A"/>
<stop offset="1" stop-color="#08DEC5"/>
</linearGradient>
<linearGradient id="paint13_linear_1_585" x1="586.476" y1="330.756" x2="610.772" y2="302.612" gradientUnits="userSpaceOnUse">
<stop stop-color="#0B9B8A"/>
<stop offset="1" stop-color="#08DEC5"/>
</linearGradient>
<linearGradient id="paint14_linear_1_585" x1="484.56" y1="141.933" x2="515.704" y2="124.812" gradientUnits="userSpaceOnUse">
<stop stop-color="#0B9B8A"/>
<stop offset="1" stop-color="#08DEC5"/>
</linearGradient>
<linearGradient id="paint15_linear_1_585" x1="426.741" y1="106.04" x2="458.89" y2="86.7764" gradientUnits="userSpaceOnUse">
<stop stop-color="#0B9B8A"/>
<stop offset="1" stop-color="#08DEC5"/>
</linearGradient>
<linearGradient id="paint16_linear_1_585" x1="362.373" y1="128.309" x2="373.057" y2="125.032" gradientUnits="userSpaceOnUse">
<stop stop-color="#0B9B8A"/>
<stop offset="1" stop-color="#08DEC5"/>
</linearGradient>
<linearGradient id="paint17_linear_1_585" x1="259.487" y1="108.141" x2="284.825" y2="101.975" gradientUnits="userSpaceOnUse">
<stop stop-color="#0B9B8A"/>
<stop offset="1" stop-color="#08DEC5"/>
</linearGradient>
<linearGradient id="paint18_linear_1_585" x1="338.013" y1="94.2118" x2="359.53" y2="89.0932" gradientUnits="userSpaceOnUse">
<stop stop-color="#0B9B8A"/>
<stop offset="1" stop-color="#08DEC5"/>
</linearGradient>
<linearGradient id="paint19_linear_1_585" x1="401.984" y1="208.282" x2="406.438" y2="198.18" gradientUnits="userSpaceOnUse">
<stop stop-color="#0B9B8A"/>
<stop offset="1" stop-color="#08DEC5"/>
</linearGradient>
<linearGradient id="paint20_linear_1_585" x1="207.238" y1="163.889" x2="232.159" y2="155.725" gradientUnits="userSpaceOnUse">
<stop stop-color="#0B9B8A"/>
<stop offset="1" stop-color="#08DEC5"/>
</linearGradient>
<linearGradient id="paint21_linear_1_585" x1="465.442" y1="217.035" x2="492.07" y2="197.325" gradientUnits="userSpaceOnUse">
<stop stop-color="#0B9B8A"/>
<stop offset="1" stop-color="#08DEC5"/>
</linearGradient>
<linearGradient id="paint22_linear_1_585" x1="219.188" y1="344.471" x2="247.763" y2="332.905" gradientUnits="userSpaceOnUse">
<stop stop-color="#0B9B8A"/>
<stop offset="1" stop-color="#08DEC5"/>
</linearGradient>
<linearGradient id="paint23_linear_1_585" x1="142.058" y1="351.567" x2="169.42" y2="345.018" gradientUnits="userSpaceOnUse">
<stop stop-color="#0B9B8A"/>
<stop offset="1" stop-color="#08DEC5"/>
</linearGradient>
<linearGradient id="paint24_linear_1_585" x1="65.2053" y1="392.324" x2="90.251" y2="362.669" gradientUnits="userSpaceOnUse">
<stop stop-color="#0B9B8A"/>
<stop offset="1" stop-color="#08DEC5"/>
</linearGradient>
<linearGradient id="paint25_linear_1_585" x1="82.1972" y1="542.897" x2="117.27" y2="516.085" gradientUnits="userSpaceOnUse">
<stop stop-color="#0B9B8A"/>
<stop offset="1" stop-color="#08DEC5"/>
</linearGradient>
<linearGradient id="paint26_linear_1_585" x1="295.159" y1="531.449" x2="311.844" y2="528.505" gradientUnits="userSpaceOnUse">
<stop stop-color="#0B9B8A"/>
<stop offset="1" stop-color="#08DEC5"/>
</linearGradient>
<linearGradient id="paint27_linear_1_585" x1="348.736" y1="442.056" x2="378.037" y2="422.546" gradientUnits="userSpaceOnUse">
<stop stop-color="#0B9B8A"/>
<stop offset="1" stop-color="#08DEC5"/>
</linearGradient>
<linearGradient id="paint28_linear_1_585" x1="321.006" y1="437.658" x2="330.589" y2="432.418" gradientUnits="userSpaceOnUse">
<stop stop-color="#0B9B8A"/>
<stop offset="1" stop-color="#08DEC5"/>
</linearGradient>
<linearGradient id="paint29_linear_1_585" x1="368.242" y1="392.482" x2="371.079" y2="390.827" gradientUnits="userSpaceOnUse">
<stop stop-color="#0B9B8A"/>
<stop offset="1" stop-color="#08DEC5"/>
</linearGradient>
<linearGradient id="paint30_linear_1_585" x1="344.1" y1="414.396" x2="344.119" y2="414.345" gradientUnits="userSpaceOnUse">
<stop stop-color="#0B9B8A"/>
<stop offset="1" stop-color="#08DEC5"/>
</linearGradient>
<linearGradient id="paint31_linear_1_585" x1="322.225" y1="429.387" x2="322.636" y2="428.807" gradientUnits="userSpaceOnUse">
<stop stop-color="#0B9B8A"/>
<stop offset="1" stop-color="#08DEC5"/>
</linearGradient>
<linearGradient id="paint32_linear_1_585" x1="348.687" y1="412.352" x2="357.615" y2="405.151" gradientUnits="userSpaceOnUse">
<stop stop-color="#0B9B8A"/>
<stop offset="1" stop-color="#08DEC5"/>
</linearGradient>
<linearGradient id="paint33_linear_1_585" x1="324.089" y1="435.019" x2="326.176" y2="431.304" gradientUnits="userSpaceOnUse">
<stop stop-color="#0B9B8A"/>
<stop offset="1" stop-color="#08DEC5"/>
</linearGradient>
<linearGradient id="paint34_linear_1_585" x1="320.903" y1="423.895" x2="327.036" y2="421.799" gradientUnits="userSpaceOnUse">
<stop stop-color="#0B9B8A"/>
<stop offset="1" stop-color="#08DEC5"/>
</linearGradient>
<linearGradient id="paint35_linear_1_585" x1="313.591" y1="432.29" x2="317.394" y2="431.647" gradientUnits="userSpaceOnUse">
<stop stop-color="#0B9B8A"/>
<stop offset="1" stop-color="#08DEC5"/>
</linearGradient>
<linearGradient id="paint36_linear_1_585" x1="366.034" y1="410.835" x2="370.028" y2="410.047" gradientUnits="userSpaceOnUse">
<stop stop-color="#0B9B8A"/>
<stop offset="1" stop-color="#08DEC5"/>
</linearGradient>
<linearGradient id="paint37_linear_1_585" x1="354.244" y1="391.836" x2="356.244" y2="386.96" gradientUnits="userSpaceOnUse">
<stop stop-color="#0B9B8A"/>
<stop offset="1" stop-color="#08DEC5"/>
</linearGradient>
<linearGradient id="paint38_linear_1_585" x1="114.755" y1="504.023" x2="124.859" y2="495.843" gradientUnits="userSpaceOnUse">
<stop stop-color="#0B9B8A"/>
<stop offset="1" stop-color="#08DEC5"/>
</linearGradient>
<linearGradient id="paint39_linear_1_585" x1="62.5639" y1="523.539" x2="67.4139" y2="511.851" gradientUnits="userSpaceOnUse">
<stop stop-color="#0B9B8A"/>
<stop offset="1" stop-color="#08DEC5"/>
</linearGradient>
<linearGradient id="paint40_linear_1_585" x1="58.1771" y1="526.513" x2="58.4561" y2="524.84" gradientUnits="userSpaceOnUse">
<stop stop-color="#0B9B8A"/>
<stop offset="1" stop-color="#08DEC5"/>
</linearGradient>
<linearGradient id="paint41_linear_1_585" x1="50.2307" y1="520.93" x2="56.0685" y2="514.955" gradientUnits="userSpaceOnUse">
<stop stop-color="#0B9B8A"/>
<stop offset="1" stop-color="#08DEC5"/>
</linearGradient>
<linearGradient id="paint42_linear_1_585" x1="103.088" y1="512.632" x2="119.527" y2="498.57" gradientUnits="userSpaceOnUse">
<stop stop-color="#0B9B8A"/>
<stop offset="1" stop-color="#08DEC5"/>
</linearGradient>
<linearGradient id="paint43_linear_1_585" x1="93.4373" y1="375.01" x2="95.9745" y2="368.053" gradientUnits="userSpaceOnUse">
<stop stop-color="#0B9B8A"/>
<stop offset="1" stop-color="#08DEC5"/>
</linearGradient>
<linearGradient id="paint44_linear_1_585" x1="34.9718" y1="368.144" x2="39.8838" y2="358.3" gradientUnits="userSpaceOnUse">
<stop stop-color="#0B9B8A"/>
<stop offset="1" stop-color="#08DEC5"/>
</linearGradient>
<linearGradient id="paint45_linear_1_585" x1="49.4123" y1="376.203" x2="51.1053" y2="373.523" gradientUnits="userSpaceOnUse">
<stop stop-color="#0B9B8A"/>
<stop offset="1" stop-color="#08DEC5"/>
</linearGradient>
<linearGradient id="paint46_linear_1_585" x1="57.1174" y1="356.247" x2="57.9511" y2="354.303" gradientUnits="userSpaceOnUse">
<stop stop-color="#0B9B8A"/>
<stop offset="1" stop-color="#08DEC5"/>
</linearGradient>
<linearGradient id="paint47_linear_1_585" x1="43.3366" y1="359.887" x2="48.1177" y2="353.312" gradientUnits="userSpaceOnUse">
<stop stop-color="#0B9B8A"/>
<stop offset="1" stop-color="#08DEC5"/>
</linearGradient>
<linearGradient id="paint48_linear_1_585" x1="103.754" y1="371.102" x2="107.75" y2="366.228" gradientUnits="userSpaceOnUse">
<stop stop-color="#0B9B8A"/>
<stop offset="1" stop-color="#08DEC5"/>
</linearGradient>
<linearGradient id="paint49_linear_1_585" x1="73.2009" y1="387.417" x2="76.0157" y2="381.173" gradientUnits="userSpaceOnUse">
<stop stop-color="#0B9B8A"/>
<stop offset="1" stop-color="#08DEC5"/>
</linearGradient>
<linearGradient id="paint50_linear_1_585" x1="146.331" y1="348.521" x2="148.776" y2="348.338" gradientUnits="userSpaceOnUse">
<stop stop-color="#0B9B8A"/>
<stop offset="1" stop-color="#08DEC5"/>
</linearGradient>
<linearGradient id="paint51_linear_1_585" x1="137.446" y1="282.741" x2="138.623" y2="282.701" gradientUnits="userSpaceOnUse">
<stop stop-color="#0B9B8A"/>
<stop offset="1" stop-color="#08DEC5"/>
</linearGradient>
<linearGradient id="paint52_linear_1_585" x1="140.227" y1="301.677" x2="140.627" y2="301.664" gradientUnits="userSpaceOnUse">
<stop stop-color="#0B9B8A"/>
<stop offset="1" stop-color="#08DEC5"/>
</linearGradient>
<linearGradient id="paint53_linear_1_585" x1="136.512" y1="333.651" x2="142.197" y2="332.476" gradientUnits="userSpaceOnUse">
<stop stop-color="#0B9B8A"/>
<stop offset="1" stop-color="#08DEC5"/>
</linearGradient>
<linearGradient id="paint54_linear_1_585" x1="156.458" y1="335.989" x2="158.649" y2="335.845" gradientUnits="userSpaceOnUse">
<stop stop-color="#0B9B8A"/>
<stop offset="1" stop-color="#08DEC5"/>
</linearGradient>
<linearGradient id="paint55_linear_1_585" x1="123.584" y1="328.512" x2="128.332" y2="327.6" gradientUnits="userSpaceOnUse">
<stop stop-color="#0B9B8A"/>
<stop offset="1" stop-color="#08DEC5"/>
</linearGradient>
<linearGradient id="paint56_linear_1_585" x1="227.038" y1="307.678" x2="232.94" y2="304.424" gradientUnits="userSpaceOnUse">
<stop stop-color="#0B9B8A"/>
<stop offset="1" stop-color="#08DEC5"/>
</linearGradient>
<linearGradient id="paint57_linear_1_585" x1="201.163" y1="339.121" x2="209.384" y2="335.319" gradientUnits="userSpaceOnUse">
<stop stop-color="#0B9B8A"/>
<stop offset="1" stop-color="#08DEC5"/>
</linearGradient>
<linearGradient id="paint58_linear_1_585" x1="215.77" y1="313.133" x2="218.984" y2="311.408" gradientUnits="userSpaceOnUse">
<stop stop-color="#0B9B8A"/>
<stop offset="1" stop-color="#08DEC5"/>
</linearGradient>
<linearGradient id="paint59_linear_1_585" x1="224.573" y1="319.977" x2="229.928" y2="317.944" gradientUnits="userSpaceOnUse">
<stop stop-color="#0B9B8A"/>
<stop offset="1" stop-color="#08DEC5"/>
</linearGradient>
<linearGradient id="paint60_linear_1_585" x1="212.331" y1="153.001" x2="221.902" y2="148.576" gradientUnits="userSpaceOnUse">
<stop stop-color="#0B9B8A"/>
<stop offset="1" stop-color="#08DEC5"/>
</linearGradient>
<linearGradient id="paint61_linear_1_585" x1="189.176" y1="125.022" x2="196.223" y2="123.83" gradientUnits="userSpaceOnUse">
<stop stop-color="#0B9B8A"/>
<stop offset="1" stop-color="#08DEC5"/>
</linearGradient>
<linearGradient id="paint62_linear_1_585" x1="189.821" y1="138.296" x2="191.517" y2="138.079" gradientUnits="userSpaceOnUse">
<stop stop-color="#0B9B8A"/>
<stop offset="1" stop-color="#08DEC5"/>
</linearGradient>
<linearGradient id="paint63_linear_1_585" x1="197.524" y1="117.79" x2="202.257" y2="116.411" gradientUnits="userSpaceOnUse">
<stop stop-color="#0B9B8A"/>
<stop offset="1" stop-color="#08DEC5"/>
</linearGradient>
<linearGradient id="paint64_linear_1_585" x1="183.659" y1="128.034" x2="184.472" y2="128.003" gradientUnits="userSpaceOnUse">
<stop stop-color="#0B9B8A"/>
<stop offset="1" stop-color="#08DEC5"/>
</linearGradient>
<linearGradient id="paint65_linear_1_585" x1="186.404" y1="123.629" x2="187.759" y2="123.546" gradientUnits="userSpaceOnUse">
<stop stop-color="#0B9B8A"/>
<stop offset="1" stop-color="#08DEC5"/>
</linearGradient>
<linearGradient id="paint66_linear_1_585" x1="268.176" y1="103.255" x2="272.883" y2="102.458" gradientUnits="userSpaceOnUse">
<stop stop-color="#0B9B8A"/>
<stop offset="1" stop-color="#08DEC5"/>
</linearGradient>
<linearGradient id="paint67_linear_1_585" x1="257.467" y1="70.2193" x2="262.407" y2="69.8225" gradientUnits="userSpaceOnUse">
<stop stop-color="#0B9B8A"/>
<stop offset="1" stop-color="#08DEC5"/>
</linearGradient>
<linearGradient id="paint68_linear_1_585" x1="273.534" y1="104.275" x2="274.244" y2="104.24" gradientUnits="userSpaceOnUse">
<stop stop-color="#0B9B8A"/>
<stop offset="1" stop-color="#08DEC5"/>
</linearGradient>
<linearGradient id="paint69_linear_1_585" x1="264.184" y1="102.408" x2="266.3" y2="101.971" gradientUnits="userSpaceOnUse">
<stop stop-color="#0B9B8A"/>
<stop offset="1" stop-color="#08DEC5"/>
</linearGradient>
<linearGradient id="paint70_linear_1_585" x1="242.167" y1="80.3238" x2="243.712" y2="80.2239" gradientUnits="userSpaceOnUse">
<stop stop-color="#0B9B8A"/>
<stop offset="1" stop-color="#08DEC5"/>
</linearGradient>
<linearGradient id="paint71_linear_1_585" x1="347.928" y1="90.6165" x2="351.52" y2="89.9584" gradientUnits="userSpaceOnUse">
<stop stop-color="#0B9B8A"/>
<stop offset="1" stop-color="#08DEC5"/>
</linearGradient>
<linearGradient id="paint72_linear_1_585" x1="343.277" y1="65.4532" x2="344.2" y2="65.357" gradientUnits="userSpaceOnUse">
<stop stop-color="#0B9B8A"/>
<stop offset="1" stop-color="#08DEC5"/>
</linearGradient>
<linearGradient id="paint73_linear_1_585" x1="339.68" y1="48.8433" x2="340.858" y2="48.8129" gradientUnits="userSpaceOnUse">
<stop stop-color="#0B9B8A"/>
<stop offset="1" stop-color="#08DEC5"/>
</linearGradient>
<linearGradient id="paint74_linear_1_585" x1="400.496" y1="101.745" x2="413.354" y2="94.4221" gradientUnits="userSpaceOnUse">
<stop stop-color="#0B9B8A"/>
<stop offset="1" stop-color="#08DEC5"/>
</linearGradient>
<linearGradient id="paint75_linear_1_585" x1="445.414" y1="71.4202" x2="457.519" y2="66.3041" gradientUnits="userSpaceOnUse">
<stop stop-color="#0B9B8A"/>
<stop offset="1" stop-color="#08DEC5"/>
</linearGradient>
<linearGradient id="paint76_linear_1_585" x1="454.573" y1="137.781" x2="460.908" y2="134.564" gradientUnits="userSpaceOnUse">
<stop stop-color="#0B9B8A"/>
<stop offset="1" stop-color="#08DEC5"/>
</linearGradient>
<linearGradient id="paint77_linear_1_585" x1="472.546" y1="138.01" x2="488.422" y2="127.972" gradientUnits="userSpaceOnUse">
<stop stop-color="#0B9B8A"/>
<stop offset="1" stop-color="#08DEC5"/>
</linearGradient>
<linearGradient id="paint78_linear_1_585" x1="502.485" y1="97.6264" x2="507.838" y2="95.725" gradientUnits="userSpaceOnUse">
<stop stop-color="#0B9B8A"/>
<stop offset="1" stop-color="#08DEC5"/>
</linearGradient>
<linearGradient id="paint79_linear_1_585" x1="503.763" y1="110.927" x2="511.366" y2="109.175" gradientUnits="userSpaceOnUse">
<stop stop-color="#0B9B8A"/>
<stop offset="1" stop-color="#08DEC5"/>
</linearGradient>
<linearGradient id="paint80_linear_1_585" x1="442.122" y1="198.656" x2="445.362" y2="193.298" gradientUnits="userSpaceOnUse">
<stop stop-color="#0B9B8A"/>
<stop offset="1" stop-color="#08DEC5"/>
</linearGradient>
<linearGradient id="paint81_linear_1_585" x1="477.66" y1="187.128" x2="487.288" y2="178.721" gradientUnits="userSpaceOnUse">
<stop stop-color="#0B9B8A"/>
<stop offset="1" stop-color="#08DEC5"/>
</linearGradient>
<linearGradient id="paint82_linear_1_585" x1="588.076" y1="212.397" x2="601.423" y2="204.837" gradientUnits="userSpaceOnUse">
<stop stop-color="#0B9B8A"/>
<stop offset="1" stop-color="#08DEC5"/>
</linearGradient>
<linearGradient id="paint83_linear_1_585" x1="545.318" y1="246.046" x2="551.608" y2="241.654" gradientUnits="userSpaceOnUse">
<stop stop-color="#0B9B8A"/>
<stop offset="1" stop-color="#08DEC5"/>
</linearGradient>
<linearGradient id="paint84_linear_1_585" x1="536.331" y1="242.545" x2="538.576" y2="241.655" gradientUnits="userSpaceOnUse">
<stop stop-color="#0B9B8A"/>
<stop offset="1" stop-color="#08DEC5"/>
</linearGradient>
<linearGradient id="paint85_linear_1_585" x1="533.317" y1="234.379" x2="534.149" y2="234.068" gradientUnits="userSpaceOnUse">
<stop stop-color="#0B9B8A"/>
<stop offset="1" stop-color="#08DEC5"/>
</linearGradient>
<linearGradient id="paint86_linear_1_585" x1="559.124" y1="242.741" x2="565.748" y2="238.164" gradientUnits="userSpaceOnUse">
<stop stop-color="#0B9B8A"/>
<stop offset="1" stop-color="#08DEC5"/>
</linearGradient>
<linearGradient id="paint87_linear_1_585" x1="563.673" y1="314.835" x2="570.461" y2="302.75" gradientUnits="userSpaceOnUse">
<stop stop-color="#0B9B8A"/>
<stop offset="1" stop-color="#08DEC5"/>
</linearGradient>
<linearGradient id="paint88_linear_1_585" x1="615.379" y1="314.655" x2="616.31" y2="311.496" gradientUnits="userSpaceOnUse">
<stop stop-color="#0B9B8A"/>
<stop offset="1" stop-color="#08DEC5"/>
</linearGradient>
<linearGradient id="paint89_linear_1_585" x1="466.247" y1="367.443" x2="482.692" y2="358.65" gradientUnits="userSpaceOnUse">
<stop stop-color="#0B9B8A"/>
<stop offset="1" stop-color="#08DEC5"/>
</linearGradient>
<linearGradient id="paint90_linear_1_585" x1="444.975" y1="342.976" x2="447.536" y2="341.915" gradientUnits="userSpaceOnUse">
<stop stop-color="#0B9B8A"/>
<stop offset="1" stop-color="#08DEC5"/>
</linearGradient>
<linearGradient id="paint91_linear_1_585" x1="451.685" y1="331.644" x2="452.301" y2="331.223" gradientUnits="userSpaceOnUse">
<stop stop-color="#0B9B8A"/>
<stop offset="1" stop-color="#08DEC5"/>
</linearGradient>
<linearGradient id="paint92_linear_1_585" x1="483.616" y1="354.104" x2="487.041" y2="352.694" gradientUnits="userSpaceOnUse">
<stop stop-color="#0B9B8A"/>
<stop offset="1" stop-color="#08DEC5"/>
</linearGradient>
</defs>
</svg>
