<svg width="641" height="1413" viewBox="0 0 641 1413" fill="none" xmlns="http://www.w3.org/2000/svg">
<path d="M323.507 405.275L316.923 403.34C317.224 401.898 317.702 400.456 318.357 399.073C325.022 377.004 316.621 352.978 308.485 329.74C306.116 322.95 303.659 315.932 301.614 309.076C294.449 284.977 293.831 263.798 299.797 246.128C304.814 231.239 314.451 218.674 323.786 206.514C326.251 203.299 328.715 200.092 331.091 196.855C341.868 182.084 346.083 170.078 349.158 145.501L351.402 127.559L355.904 145.067C358.17 153.887 359.325 160.949 360.34 167.18C361.98 177.214 363.165 184.467 367.931 193.214C370.484 197.9 373.493 202.498 376.406 206.941C379.952 212.348 383.63 217.946 386.624 223.919C398.056 246.628 398.718 274.553 388.353 296.791C386.219 301.359 383.615 305.795 381.114 310.084C375.332 319.956 369.881 329.276 369.829 339.715C369.822 341.635 369.991 343.548 370.168 345.453C370.447 348.572 370.734 351.794 370.322 355.112C368.468 369.751 355.124 378.262 343.339 385.78C335.328 390.886 327.759 395.719 324.765 401.596C324.404 402.832 323.977 404.053 323.507 405.275ZM352.983 164.767C349.805 179.384 345.12 189.315 336.652 200.909C334.247 204.204 331.746 207.456 329.252 210.707C320.263 222.411 310.971 234.512 306.322 248.327C300.827 264.622 301.467 284.395 308.22 307.112C310.214 313.806 312.641 320.75 314.988 327.467C322.013 347.557 329.23 368.199 327.376 388.436C331.025 385.493 335.284 382.772 339.654 379.991C350.674 372.966 362.068 365.705 363.51 354.258C363.834 351.676 363.591 348.955 363.334 346.071C363.143 343.945 362.951 341.819 362.966 339.686C363.017 327.408 369.211 316.837 375.185 306.619C377.62 302.463 380.136 298.166 382.129 293.9C391.626 273.515 390.994 247.893 380.489 227.016C377.664 221.396 374.111 215.967 370.661 210.722C367.674 206.154 364.584 201.438 361.907 196.509C356.566 186.74 355.242 178.597 353.557 168.291C353.381 167.15 353.189 165.981 352.983 164.767Z" fill="url(#paint0_linear_1_32)"/>
<path d="M370.286 512.559L373.537 504.894C387.073 473.041 384.866 458.321 382.321 441.284C381.224 433.957 380.084 426.372 380.055 416.942C380.025 408.092 387.021 399.286 393.201 391.526C394.745 389.583 396.209 387.737 397.43 386.052C401.351 380.623 406.825 376.982 412.114 373.451L414.21 372.046C446.652 350.146 471.597 316.072 482.646 278.532L486.758 264.585L489.333 278.893C492.908 298.748 496.608 319.279 494.916 339.892C492.982 363.454 483.867 383.345 469.25 395.895C466.845 397.97 464.204 399.934 461.57 401.891C453.912 407.592 446.681 412.977 445.07 421.054C444.768 422.562 444.673 424.099 444.57 425.637C444.415 427.932 444.261 430.293 443.555 432.692C440.825 442.034 432.402 446.323 424.266 450.464C420.39 452.443 416.38 454.488 413.247 457.004C405.964 462.875 402.109 472.497 398.379 481.81C393.833 493.168 389.125 504.909 377.995 509.433L370.286 512.559ZM484.897 293.341C471.891 327.231 448.064 357.488 418.072 377.732L415.939 379.16C410.937 382.492 406.214 385.648 403.014 390.062C401.741 391.827 400.211 393.755 398.585 395.792C393.384 402.332 386.911 410.468 386.933 416.905C386.962 425.835 388.059 433.17 389.125 440.261C391.347 455.128 393.465 469.297 384.969 494.315C387.683 490.005 389.809 484.701 391.994 479.25C396.055 469.113 400.248 458.637 408.936 451.634C412.621 448.677 416.954 446.463 421.14 444.329C428.298 440.688 435.058 437.238 436.949 430.757C437.434 429.072 437.567 427.182 437.706 425.166C437.831 423.327 437.964 421.488 438.332 419.686C440.45 409.026 449.101 402.589 457.465 396.366C459.974 394.498 462.482 392.636 464.77 390.665C478.012 379.292 486.287 361.063 488.068 339.318C489.318 324.053 487.435 308.561 484.897 293.341Z" fill="url(#paint1_linear_1_32)"/>
<path d="M403.867 633.335L400.373 625.383C378.407 575.264 422.192 528.088 442.032 510.139C452.059 501.091 463.917 494.47 475.386 488.085C480.13 485.436 484.868 482.788 489.488 479.978C508.798 468.201 520.266 455.629 524.541 441.534L529.241 426.063L531.242 442.108C532.691 453.694 534.346 462.646 535.678 469.848C539.018 487.96 540.702 497.045 532.743 513.045C529.837 518.9 525.136 523.351 520.59 527.654C515.544 532.421 510.784 536.938 508.989 542.838C507.893 546.472 507.974 550.488 508.07 554.74C508.18 559.985 508.298 565.407 506.164 570.615C501.589 581.907 489.238 586.497 476.577 589.771L441.26 598.922C432.925 601.07 423.479 603.513 416.837 609.317C410.4 614.952 410.4 614.952 406.781 625.14L403.867 633.335ZM526.115 454.974C519.619 466.133 508.71 476.315 493.07 485.848C488.377 488.71 483.558 491.402 478.74 494.087C467.61 500.296 456.097 506.711 446.652 515.244C429.063 531.149 391.524 571.226 403.632 614.143C405.478 610.214 407.332 608.486 412.305 604.145C420.176 597.26 430.461 594.612 439.531 592.272L474.849 583.121C485.03 580.495 496.182 576.942 499.794 568.033C501.39 564.134 501.295 559.647 501.192 554.902C501.089 550.297 500.986 545.538 502.405 540.859C504.723 533.201 510.387 527.838 515.86 522.667C520.164 518.591 524.224 514.751 526.578 509.992C533.523 496.044 532.176 488.739 528.918 471.099C528.072 466.509 527.093 461.212 526.115 454.974Z" fill="url(#paint2_linear_1_32)"/>
<path d="M419.249 799.625L413.725 795.535C423.317 781.374 429.96 764.991 432.917 748.145C433.925 742.408 434.565 736.375 435.183 730.549C436.743 715.763 438.361 700.484 446.063 687.242C457.649 667.277 479.306 657.567 500.228 648.173C503.406 646.753 506.554 645.333 509.651 643.892C535.192 632.004 549.235 616.82 556.614 593.14L560.645 580.215L563.271 593.493C565.942 607.014 568.98 622.33 568.001 637.477C566.905 654.676 560.491 669.308 549.942 678.687C544.748 683.292 538.591 686.654 532.632 689.898C524.011 694.599 515.867 699.035 511.306 706.722C509.085 710.474 507.871 714.785 506.583 719.353C505.818 722.089 505.031 724.833 504.038 727.489C495.63 750.073 474.767 762.078 454.574 773.687C440.737 781.653 427.672 789.172 419.249 799.625ZM558.799 606.779C550.045 626.045 535.656 639.382 512.557 650.137C509.43 651.594 506.252 653.028 503.045 654.463C483.109 663.408 462.49 672.655 452.007 690.707C445.048 702.676 443.569 716.572 442.024 731.277C441.392 737.229 440.744 743.371 439.7 749.345C437.795 760.18 434.447 770.84 429.828 780.896C436.537 776.144 443.908 771.899 451.154 767.735C470.28 756.738 490.054 745.357 497.594 725.091C498.521 722.612 499.242 720.044 499.963 717.492C501.309 712.703 502.707 707.752 505.384 703.22C510.909 693.907 520.274 688.809 529.329 683.866C534.949 680.806 540.761 677.635 545.366 673.552C554.547 665.394 560.152 652.432 561.138 637.05C561.793 626.972 560.513 616.614 558.799 606.779Z" fill="url(#paint3_linear_1_32)"/>
<path d="M414.269 914.303L415.461 907.689C417.197 898.045 420.272 888.982 421.434 885.576C432.991 851.347 455.509 807.791 497.072 794.674C502.457 792.99 507.989 791.871 513.344 790.797C517.052 790.047 520.759 789.304 524.423 788.37C556.187 780.329 585.936 757.157 608.196 723.105L610.749 719.206L613.721 722.796C630.368 742.878 621.519 774.157 604.173 794.674C600.759 798.705 597.074 802.538 593.513 806.253C587.474 812.535 581.758 818.479 577.131 825.387C571.363 834.016 567.273 844.3 563.323 854.246C556.629 871.084 549.699 888.504 534.295 898.98C524.599 905.578 512.851 908.646 497.344 908.646C489.524 908.646 481.395 907.903 473.532 907.182C465.704 906.461 457.598 905.725 449.844 905.725C437.817 905.725 428.445 907.528 420.338 911.412L414.269 914.303ZM611.154 731.035C588.275 764.256 558.232 786.906 526.115 795.02C522.348 795.991 518.523 796.756 514.698 797.528C509.526 798.573 504.171 799.647 499.132 801.229C460.327 813.477 439.001 855.055 427.944 887.776C427.091 890.299 425.149 896.015 423.545 902.672C431.1 900.068 439.626 898.84 449.829 898.84C457.899 898.84 466.161 899.605 474.149 900.333C481.859 901.039 489.826 901.768 497.329 901.768C511.586 901.768 521.789 899.156 530.418 893.286C544.071 883.995 550.317 868.311 556.923 851.7C561.013 841.431 565.235 830.794 571.415 821.554C576.38 814.146 582.567 807.71 588.54 801.486C592.079 797.801 595.624 794.115 598.913 790.231C613.302 773.216 621.43 748.271 611.154 731.035Z" fill="url(#paint4_linear_1_32)"/>
<path d="M540.577 1055.96C529.336 1055.96 518.287 1053.43 507.606 1050.99C503.545 1050.06 499.492 1049.14 495.431 1048.35C468.132 1043.07 436.691 1043.71 405.861 1050.06L399.99 1051.27L401.91 1045.6C412.202 1015.11 423.538 986.475 448.748 971.299C467.124 960.257 488.788 959.206 509.739 958.198C518.751 957.756 528.064 957.315 536.899 956.057C575.468 950.584 611.242 927.882 632.582 895.331L638.173 886.812L638.894 896.971C641.13 928.537 640.211 960.324 618.517 978.987C614.942 982.062 610.903 984.658 607.005 987.16C599.45 992.015 592.307 996.598 589.261 1003.99C587.702 1007.79 587.371 1012.03 587.017 1016.53C586.723 1020.33 586.414 1024.26 585.333 1028.13C580.272 1046.07 560.483 1055.08 544.226 1055.87C543.012 1055.93 541.791 1055.96 540.577 1055.96ZM456.582 1037.9C470.552 1037.9 484.058 1039.15 496.733 1041.6C500.875 1042.4 505.009 1043.35 509.143 1044.29C520.538 1046.9 532.286 1049.57 543.895 1049C557.776 1048.33 574.585 1040.93 578.712 1026.27C579.61 1023.06 579.874 1019.62 580.161 1016C580.536 1011.17 580.926 1006.17 582.89 1001.38C586.76 991.985 595.161 986.593 603.275 981.37C606.982 978.994 610.815 976.53 614.03 973.771C631.295 958.911 633.759 933.598 632.597 907.196C609.822 937.019 575.093 957.58 537.87 962.862C528.711 964.164 519.236 964.62 510.07 965.061C489.046 966.084 469.184 967.047 452.294 977.192C430.57 990.264 419.727 1015.09 410.341 1042.18C425.862 1039.35 441.384 1037.9 456.582 1037.9Z" fill="url(#paint5_linear_1_32)"/>
<path d="M376.222 1210.49L371.632 1205.61C360.266 1193.54 337.432 1180.73 317.482 1180.73C312.862 1180.73 308.677 1181.45 305.057 1182.86C302.968 1183.68 300.894 1184.6 298.819 1185.52C293.221 1187.98 287.439 1190.54 281.098 1191.5C279.7 1191.7 278.266 1191.81 276.831 1191.81C267.386 1191.81 259.485 1187.47 256.226 1180.5C255.292 1178.49 254.806 1176.47 254.328 1174.52C253.96 1172.99 253.607 1171.46 252.982 1170.04C249.782 1162.83 241.175 1161.54 231.192 1160.05C221.659 1158.63 211.801 1157.14 205.291 1150.01C199.7 1143.87 198.751 1135.88 197.831 1128.14C197.331 1123.88 196.846 1119.87 195.647 1116.2C193.697 1110.22 189.629 1104.89 185.62 1099.94C173.475 1084.95 160.013 1070.97 145.609 1058.39L139.327 1052.9L147.654 1052.37C163.338 1051.37 179.448 1055.63 192.498 1064.17C194.815 1065.68 197.066 1067.34 199.317 1069C203.018 1071.74 206.519 1074.32 210.381 1076.24C216.458 1079.29 223.38 1080.77 231.538 1080.77C240.211 1080.77 249.127 1079.18 258.558 1077.51C270.769 1075.33 283.518 1073.08 295.84 1074.5C311.06 1076.24 324.176 1083.6 331.82 1094.7C334.056 1097.93 336.851 1101 339.801 1104.24C344.325 1109.21 349.011 1114.34 351.843 1120.43L352.329 1121.48C356.434 1130.24 357.964 1133.53 360.634 1143.44C362.937 1151.99 366.137 1160.4 369.219 1168.53C374.611 1182.72 379.26 1194.98 377.517 1203.93L376.222 1210.49ZM317.482 1173.84C336.219 1173.84 357.184 1184.07 370.587 1195.23C369.447 1188.48 366.181 1179.89 362.782 1170.95C359.634 1162.66 356.382 1154.09 353.991 1145.21C351.476 1135.86 350.122 1132.97 346.098 1124.37L345.605 1123.32C343.214 1118.18 339.088 1113.65 334.725 1108.86C331.746 1105.59 328.664 1102.21 326.163 1098.59C319.74 1089.26 308.117 1082.81 295.06 1081.31C283.577 1079.99 271.498 1082.17 259.757 1084.26C250.444 1085.92 240.822 1087.62 231.538 1087.62C222.284 1087.62 214.354 1085.91 207.299 1082.37C202.907 1080.18 199.001 1077.3 195.227 1074.51C193.094 1072.93 190.961 1071.35 188.739 1069.91C179.352 1063.76 168.186 1060.05 156.879 1059.25C169.039 1070.47 180.485 1082.67 190.968 1095.6C195.382 1101.04 199.884 1106.96 202.186 1114.05C203.599 1118.36 204.143 1122.91 204.666 1127.32C205.489 1134.28 206.269 1140.86 210.367 1145.36C215.237 1150.7 223.483 1151.93 232.215 1153.23C243.191 1154.88 254.541 1156.57 259.271 1167.24C260.11 1169.14 260.574 1171.05 261.015 1172.9C261.427 1174.6 261.809 1176.2 262.449 1177.59C265.502 1184.12 273.903 1185.63 280.068 1184.69C285.504 1183.88 290.624 1181.62 296.046 1179.23C298.201 1178.27 300.357 1177.32 302.534 1176.46C306.97 1174.72 312.002 1173.84 317.482 1173.84Z" fill="url(#paint6_linear_1_32)"/>
<path d="M493.857 1201.1C482.896 1201.1 471.869 1197.68 461.202 1194.37C458.782 1193.61 456.369 1192.86 453.971 1192.17C442.473 1188.77 430.526 1186.49 418.484 1185.37C416.461 1185.18 414.35 1185.07 412.224 1185.07C406.001 1185.07 385.418 1186.18 381.651 1200.4L374.891 1199.08L374.994 1198.67L381.938 1171.44C392.546 1131.44 433.241 1101.72 474.995 1104.24C485.25 1104.88 495.284 1107.25 504.98 1109.56C513.41 1111.55 522.127 1113.63 530.756 1114.47C554.834 1116.79 579.904 1109.24 598.295 1094.3L598.354 1093.61L599.097 1093.65C599.2 1093.56 599.295 1093.48 599.398 1093.4L607.402 1086.66L605.085 1097.61C604.033 1120.86 600.185 1146 580.963 1158.5C574.931 1162.39 568.156 1164.46 561.601 1166.45C556.356 1168.05 551.391 1169.56 546.837 1171.93C541.121 1174.91 536.171 1179.2 530.94 1183.75C524.32 1189.5 517.464 1195.45 508.842 1198.59C504.178 1200.28 499.279 1201.1 493.857 1201.1ZM412.224 1178.2C414.571 1178.2 416.888 1178.32 419.124 1178.53C431.608 1179.68 443.996 1182.05 455.921 1185.57C458.333 1186.28 460.783 1187.04 463.24 1187.8C473.414 1190.97 483.933 1194.23 493.857 1194.23C498.469 1194.23 502.596 1193.54 506.488 1192.13C513.918 1189.44 519.987 1184.15 526.424 1178.57C531.727 1173.96 537.215 1169.2 543.659 1165.84C548.779 1163.17 554.275 1161.5 559.6 1159.87C565.978 1157.93 572.003 1156.1 577.219 1152.72C592.204 1142.99 596.448 1123.24 597.846 1103.71L597.611 1103.9L597.64 1103.44C578.403 1117.11 554.179 1123.66 530.102 1121.31C521.017 1120.43 512.064 1118.3 503.406 1116.25C493.989 1114.01 484.25 1111.71 474.583 1111.11C436.058 1108.8 398.401 1136.25 388.603 1173.16L385.675 1184.66C392.229 1180.49 401.329 1178.2 412.224 1178.2Z" fill="url(#paint7_linear_1_32)"/>
<path d="M401.381 1059.08L396.607 1053.87C387.728 1044.19 373.773 1032.63 357.706 1032.63C355.257 1032.63 352.778 1032.89 350.35 1033.42C346.201 1034.33 342.192 1035.65 337.94 1037.06C332.254 1038.94 326.369 1040.88 320.175 1041.69C318.519 1041.91 316.827 1042.02 315.121 1042.02C303.402 1042.02 293.912 1037.1 289.734 1028.87C287.969 1025.38 287.314 1021.68 286.689 1018.12C286.093 1014.75 285.541 1011.56 284.084 1008.93C280.509 1002.45 272.572 1000.4 264.163 998.224C257.329 996.458 250.253 994.634 244.552 990.308C235.172 983.187 232.266 971.763 229.449 960.728C228.86 958.426 228.279 956.145 227.639 953.924C223.623 939.984 221.725 937.637 209.388 922.314C206.255 918.43 202.488 913.751 197.883 907.881L188.209 895.551L202.157 902.694C251.518 927.956 260.279 930.332 271.167 930.332L274.749 930.288C277.206 930.236 279.95 930.185 283.283 930.281C286.939 930.229 290.771 930.133 294.611 930.053C300.357 929.92 306.139 929.78 311.906 929.78C331.584 929.78 354.3 931.288 373.626 942.47C393.186 953.762 393.576 968.57 394.017 985.703C394.194 992.471 394.378 999.459 395.621 1007.23C399.785 1015.79 405.824 1032.29 402.536 1052.12L401.381 1059.08ZM357.706 1025.76C370.624 1025.76 383.924 1032.02 396.511 1043.97C397.298 1028.96 392.612 1016.7 389.449 1010.28L388.507 1008.37L388.75 1007.86C387.492 999.813 387.308 992.427 387.132 985.887C386.69 968.975 386.396 957.801 370.168 948.429C352.292 938.093 331.599 936.666 311.891 936.666C306.183 936.666 300.445 936.798 294.751 936.931C290.889 937.026 287.027 937.107 283.216 937.159C279.663 937.07 277.243 937.122 274.86 937.166L271.145 937.218C260.044 937.218 251.761 935.334 213.081 915.958C213.648 916.664 214.192 917.348 214.729 917.996C227.235 933.517 229.846 936.754 234.238 952.018C234.9 954.314 235.503 956.66 236.106 959.029C238.74 969.379 241.234 979.163 248.693 984.828C253.306 988.322 259.691 989.97 265.877 991.566C275.316 994.008 285.085 996.532 290.102 1005.61C292.103 1009.25 292.787 1013.15 293.456 1016.92C294.015 1020.15 294.552 1023.18 295.862 1025.75C299.378 1032.67 308.11 1035.14 315.113 1035.14C316.511 1035.14 317.909 1035.05 319.27 1034.87C324.816 1034.14 330.135 1032.39 335.763 1030.53C339.992 1029.13 344.369 1027.68 348.872 1026.69C351.792 1026.07 354.764 1025.76 357.706 1025.76Z" fill="url(#paint8_linear_1_32)"/>
<path d="M334.821 891.152C330.753 891.152 326.868 890.321 323.286 888.666C316.731 885.672 312.016 880.213 307.455 874.939C302.394 869.083 297.605 863.559 291.006 862.308C286.526 861.44 282.105 862.639 277.257 863.875C273.226 864.912 269.063 865.972 264.686 865.972C249.693 865.95 239.814 854.621 230.265 843.667C225.918 838.687 221.43 833.538 216.597 829.668C212.743 826.586 208.439 824.158 203.878 821.584C199.795 819.281 195.58 816.905 191.667 813.992C181.007 806.054 175.703 795.447 177.469 785.626C177.932 782.978 178.874 780.565 179.794 778.233C180.434 776.607 181.088 774.989 181.5 773.297C182.971 767.316 181.125 760.629 176.792 756.274L175.071 754.538L176.145 752.346C178.617 747.27 183.501 743.982 188.584 743.982C191.38 743.982 193.844 745.012 195.507 746.88C198.434 750.132 199.148 754.295 199.781 757.959C199.965 759.033 200.148 760.107 200.391 761.151C204.489 778.38 226.896 784.493 244.831 784.493C258.778 784.397 272.535 782.661 285.828 780.969C297.921 779.439 310.42 777.85 322.859 777.475C324.08 777.438 325.309 777.409 326.545 777.409C332.651 777.409 340.559 777.909 347.577 781.83C359.339 788.407 363.871 801.199 368.255 813.58C369.241 816.368 370.227 819.134 371.279 821.804C379.871 843.366 396.827 861.418 417.8 871.342L415.291 877.727C402.852 873.784 396.43 872.173 393.12 872.173C391.464 872.173 390.64 872.556 389 873.313C387.257 874.13 384.858 875.248 380.717 876.123C374.412 877.418 367.909 880.339 361.627 883.171C352.903 887.084 343.862 891.152 334.821 891.152ZM287.902 855.143C289.359 855.143 290.815 855.268 292.286 855.548C301.239 857.24 307.036 863.956 312.656 870.437C316.923 875.373 320.961 880.037 326.155 882.413C335.505 886.709 346.9 882.251 358.817 876.881C365.438 873.909 372.286 870.827 379.319 869.37C382.681 868.664 384.498 867.818 386.109 867.068C388.529 865.95 390.788 864.92 395.496 865.42C382.011 854.636 371.286 840.386 364.893 824.32C363.805 821.576 362.789 818.722 361.774 815.86C357.633 804.164 353.719 793.129 344.222 787.818C339.83 785.368 334.379 784.28 326.545 784.28C325.383 784.28 324.228 784.302 323.073 784.339C310.957 784.706 298.62 786.266 286.696 787.781C273.189 789.488 259.227 791.261 245.309 791.349C224.38 791.349 198.721 783.846 193.69 762.711C193.41 761.527 193.204 760.32 192.991 759.106C192.476 756.09 191.983 753.243 190.387 751.456C189.349 750.294 185.789 750.75 183.501 753.494C188.15 759.445 189.982 767.581 188.172 774.945C187.672 776.931 186.929 778.836 186.179 780.741C185.348 782.838 184.56 784.824 184.222 786.803C182.692 795.307 189.173 803.561 195.749 808.46C199.31 811.116 203.157 813.278 207.233 815.581C211.83 818.178 216.583 820.855 220.871 824.283C226.197 828.55 230.883 833.928 235.429 839.136C244.367 849.391 252.805 859.064 264.678 859.086C268.187 859.086 271.755 858.167 275.543 857.203C279.516 856.195 283.635 855.143 287.902 855.143Z" fill="url(#paint9_linear_1_32)"/>
<path d="M410.812 756.98C402.403 753.861 393.252 749.116 383.564 744.085C362.363 733.094 338.352 720.633 311.685 719.228C298.209 718.514 284.511 720.802 271.226 723.001C261.25 724.657 250.937 726.356 240.609 726.856C239.049 726.937 237.467 726.974 235.878 726.974C213.67 726.974 186.289 718.889 175.998 696.202C174.269 692.407 173.136 688.449 172.048 684.624C171.246 681.791 170.444 678.959 169.392 676.208C166.707 669.271 160.653 665.769 153.649 661.723C144.226 656.28 133.545 650.1 129.41 634.086L126.784 623.904L134.92 630.562C147.007 640.464 165.214 644.186 187.621 641.464C195.507 640.5 203.518 638.897 211.264 637.337C222.277 635.13 233.657 632.85 245.192 632.283C271.343 630.981 297.605 638.897 318.652 654.08C336.16 666.704 349.769 683.947 362.937 700.609C378.459 720.28 393.127 738.847 413.717 750.757L410.812 756.98ZM306.565 712.224C308.39 712.224 310.214 712.269 312.046 712.364C339.588 713.813 363.856 726.128 385.329 737.258C375.214 727.276 366.291 715.976 357.552 704.905C344.678 688.603 331.363 671.743 314.643 659.686C294.847 645.407 270.115 637.999 245.523 639.176C234.51 639.706 223.38 641.942 212.618 644.105C204.754 645.687 196.61 647.32 188.452 648.305C169.429 650.623 153.009 648.541 140.371 642.229C144.631 648.57 150.736 652.109 157.1 655.779C164.552 660.083 172.254 664.533 175.814 673.744C176.947 676.679 177.808 679.717 178.676 682.748C179.75 686.499 180.75 690.038 182.266 693.355C191.211 713.078 215.832 720.103 235.886 720.103C237.357 720.103 238.821 720.066 240.285 719.993C250.216 719.515 260.331 717.837 270.115 716.219C281.98 714.262 294.258 712.224 306.565 712.224Z" fill="url(#paint10_linear_1_32)"/>
<path d="M408.126 630.547L400.925 624.353C381.585 607.706 378.62 609.339 369.44 610.707L368.255 610.884C366.328 611.171 364.629 611.457 363.069 611.715C354.977 613.083 349.688 613.554 340.765 610.759C331.312 607.816 325.081 600.313 319.064 593.074C314.135 587.13 309.478 581.532 303.284 578.435C299.481 576.537 295.295 575.61 290.492 575.61C282.981 575.61 275.095 577.817 266.745 580.149C260.485 581.9 254.019 583.709 247.589 584.548C228.551 587.027 207.799 579.715 194.462 565.848C190.328 561.545 186.826 556.66 183.435 551.93C178.094 544.478 173.041 537.438 165.883 532.818L169.333 526.875C192.167 538.726 219.098 543.522 244.64 540.226C253.195 539.145 261.824 537.144 270.173 535.217C277.934 533.429 285.96 531.575 294.037 530.413C314.915 527.441 332.312 530.185 345.164 538.527C356.529 545.898 364.209 557.389 370.984 567.526C374.758 573.16 379.606 578.803 384.292 584.261C394.127 595.715 404.294 607.551 406.552 621.175L408.126 630.547ZM376.156 603.123C382.203 603.123 387.705 605.308 396.011 611.502C392.031 603.836 385.69 596.436 379.084 588.749C374.265 583.136 369.285 577.331 365.276 571.366C358.869 561.766 351.608 550.908 341.434 544.302C330.01 536.894 314.186 534.496 295.023 537.225C287.233 538.35 279.347 540.167 271.726 541.933C263.222 543.904 254.409 545.927 245.522 547.06C224.851 549.701 203.231 547.377 183.531 540.476C185.443 542.919 187.246 545.435 189.026 547.921C192.27 552.452 195.624 557.131 199.42 561.081C211.264 573.403 229.478 579.95 246.699 577.729C252.636 576.956 258.859 575.213 264.892 573.528C273.322 571.174 282.024 568.739 290.484 568.739C296.384 568.739 301.578 569.902 306.352 572.285C313.841 576.029 319.174 582.459 324.338 588.682C329.973 595.458 335.284 601.858 342.802 604.197C350.563 606.624 354.271 606.227 361.921 604.94C363.518 604.675 365.269 604.381 367.247 604.086L368.424 603.91C371.235 603.483 373.647 603.123 376.156 603.123Z" fill="url(#paint11_linear_1_32)"/>
<path d="M365.276 494.396L357.773 487.967C344.509 476.601 335.954 476.197 322.999 475.594C320.388 475.469 317.637 475.344 314.687 475.108C303.012 474.218 290.933 473.291 278.964 473.291C266.106 473.291 254.99 474.395 244.993 476.675C239.814 477.852 234.51 479.353 229.162 480.868C216.943 484.333 204.305 487.908 192.329 487.908C182.391 487.908 174.107 485.458 166.979 480.412C160.461 475.8 155.775 469.348 151.244 463.11C146.065 455.974 141.173 449.243 134.001 445.646C129.55 443.41 123.878 442.1 118.405 440.835C107.047 438.201 94.1736 435.222 91.5548 422.68C90.6647 418.45 91.4444 414.455 92.2021 410.593C92.7244 407.938 93.2247 405.422 93.1217 403.031C92.6877 392.151 81.1088 385.721 69.905 379.52C67.4922 378.174 65.1087 376.857 62.865 375.511C34.1607 358.275 20.7207 325.731 8.40621 291.075L1.69727 272.184L14.3207 287.757C30.7621 308.039 59.9372 309.245 88.1562 310.415C92.5332 310.591 96.866 310.775 101.096 311.018C127.564 312.614 153.421 318.338 177.969 328.048C184.333 330.556 191.542 333.742 196.368 339.877C200.399 345.004 201.995 351.161 203.533 357.12C204.901 362.395 206.188 367.382 209.043 371.325C214.449 378.792 224.219 381.256 234.554 383.853C245.684 386.663 257.197 389.561 264.024 399.184C268.121 404.929 269.401 411.704 270.637 418.258C271.674 423.724 272.645 428.888 275.146 433.229C282.253 445.572 298.694 447.86 314.591 450.089L319.873 450.847C345.466 454.643 359.693 465.714 363.386 484.693L365.276 494.396ZM19.7717 302.139C30.4899 330.38 43.2531 355.715 66.4108 369.618C68.5883 370.928 70.8981 372.208 73.2522 373.51C85.5152 380.307 99.4187 388.017 100.007 402.759C100.14 405.966 99.5437 408.997 98.9626 411.925C98.3079 415.257 97.6899 418.413 98.2932 421.275C99.9042 428.962 107.555 431.257 119.965 434.133C125.835 435.494 131.904 436.899 137.09 439.496C145.764 443.851 151.376 451.59 156.82 459.064C161.219 465.118 165.368 470.841 170.959 474.792C176.888 478.985 183.877 481.03 192.336 481.03C203.356 481.03 215.523 477.58 227.301 474.247C232.759 472.703 238.181 471.165 243.47 469.966C253.982 467.568 265.598 466.413 278.972 466.413C291.198 466.413 303.409 467.347 315.224 468.252C318.1 468.473 320.778 468.605 323.33 468.715C333.762 469.201 342.486 469.613 352.991 475.947C347.349 466.126 336.241 460.219 318.858 457.652L313.635 456.901C296.921 454.569 277.964 451.914 269.188 436.664C266.106 431.309 264.973 425.328 263.877 419.538C262.722 413.455 261.633 407.702 258.411 403.171C253.048 395.616 243.242 393.144 232.862 390.525C221.791 387.73 210.337 384.853 203.466 375.349C199.855 370.347 198.339 364.498 196.875 358.841C195.448 353.332 194.095 348.123 190.953 344.129C187.194 339.347 180.978 336.618 175.446 334.448C151.568 325.002 126.424 319.426 100.691 317.881C96.4982 317.639 92.2095 317.455 87.8766 317.278C64.4687 316.322 38.4788 315.248 19.7717 302.139Z" fill="url(#paint12_linear_1_32)"/>
<path d="M200.281 255.169C184.281 255.169 166.508 246.312 147.462 228.84C138.076 220.219 127.483 209.677 120.148 196.863C102.258 165.613 102.081 132.031 101.897 96.4782C101.75 69.9071 101.611 42.4166 93.7981 14.6905L90.0464 1.39032L99.5875 11.3802C105.149 17.1991 112.983 20.0827 121.281 23.1282C123.753 24.0404 126.225 24.9526 128.638 25.9383C153.009 36.0165 173.739 56.2023 187.01 82.7733C198.206 105.181 204.187 131.987 204.776 162.442C204.893 168.121 204.864 173.933 204.827 179.766C204.702 204.601 204.562 230.29 216.156 247.481L218.605 251.108L214.501 252.623C209.984 254.308 205.195 255.169 200.281 255.169ZM102.876 22.5692C108.518 47.8014 108.643 72.4819 108.776 96.4414C108.959 131.06 109.136 163.759 126.122 193.435C132.993 205.433 143.122 215.496 152.119 223.765C173.143 243.053 191.954 251.123 208.042 247.4C197.691 228.782 197.817 203.873 197.949 179.737C197.978 173.955 198.015 168.21 197.897 162.582C197.331 133.149 191.6 107.336 180.86 85.8483C168.332 60.7559 148.853 41.7398 126.019 32.3016C123.702 31.3453 121.303 30.4698 118.905 29.5871C113.469 27.5861 107.908 25.5485 102.876 22.5692Z" fill="url(#paint13_linear_1_32)"/>
<path d="M309.714 1409.37L303.483 1406.46C388.507 1224.75 423.501 1005.9 410.488 737.39C407.84 682.424 403.286 623.706 388.11 566.724C356.007 446.323 277.03 340.539 207.358 247.202L212.868 243.082C282.915 336.912 362.311 443.263 394.76 564.951C410.105 622.551 414.688 681.71 417.359 737.059C430.438 1006.71 395.224 1226.62 309.714 1409.37Z" fill="url(#paint14_linear_1_32)"/>
<defs>
<linearGradient id="paint0_linear_1_32" x1="349.906" y1="405.275" x2="400.049" y2="396.186" gradientUnits="userSpaceOnUse">
<stop stop-color="#D02964"/>
<stop offset="1" stop-color="#FC8F59"/>
</linearGradient>
<linearGradient id="paint1_linear_1_32" x1="438.059" y1="512.559" x2="498.932" y2="497.099" gradientUnits="userSpaceOnUse">
<stop stop-color="#D02964"/>
<stop offset="1" stop-color="#FC8F59"/>
</linearGradient>
<linearGradient id="paint2_linear_1_32" x1="472.455" y1="633.335" x2="538.971" y2="610.045" gradientUnits="userSpaceOnUse">
<stop stop-color="#D02964"/>
<stop offset="1" stop-color="#FC8F59"/>
</linearGradient>
<linearGradient id="paint3_linear_1_32" x1="497.437" y1="799.625" x2="568.539" y2="774.415" gradientUnits="userSpaceOnUse">
<stop stop-color="#D02964"/>
<stop offset="1" stop-color="#FC8F59"/>
</linearGradient>
<linearGradient id="paint4_linear_1_32" x1="527.169" y1="914.303" x2="610.902" y2="869.274" gradientUnits="userSpaceOnUse">
<stop stop-color="#D02964"/>
<stop offset="1" stop-color="#FC8F59"/>
</linearGradient>
<linearGradient id="paint5_linear_1_32" x1="529.915" y1="1055.96" x2="612.212" y2="997.222" gradientUnits="userSpaceOnUse">
<stop stop-color="#D02964"/>
<stop offset="1" stop-color="#FC8F59"/>
</linearGradient>
<linearGradient id="paint6_linear_1_32" x1="268.616" y1="1210.49" x2="347.038" y2="1150.96" gradientUnits="userSpaceOnUse">
<stop stop-color="#D02964"/>
<stop offset="1" stop-color="#FC8F59"/>
</linearGradient>
<linearGradient id="paint7_linear_1_32" x1="500.901" y1="1201.1" x2="559.76" y2="1140.88" gradientUnits="userSpaceOnUse">
<stop stop-color="#D02964"/>
<stop offset="1" stop-color="#FC8F59"/>
</linearGradient>
<linearGradient id="paint8_linear_1_32" x1="304.875" y1="1059.08" x2="382.365" y2="1007.71" gradientUnits="userSpaceOnUse">
<stop stop-color="#D02964"/>
<stop offset="1" stop-color="#FC8F59"/>
</linearGradient>
<linearGradient id="paint9_linear_1_32" x1="306.618" y1="891.152" x2="381.045" y2="829.331" gradientUnits="userSpaceOnUse">
<stop stop-color="#D02964"/>
<stop offset="1" stop-color="#FC8F59"/>
</linearGradient>
<linearGradient id="paint10_linear_1_32" x1="282.288" y1="756.98" x2="350.517" y2="682.89" gradientUnits="userSpaceOnUse">
<stop stop-color="#D02964"/>
<stop offset="1" stop-color="#FC8F59"/>
</linearGradient>
<linearGradient id="paint11_linear_1_32" x1="297.167" y1="630.547" x2="349.803" y2="568.607" gradientUnits="userSpaceOnUse">
<stop stop-color="#D02964"/>
<stop offset="1" stop-color="#FC8F59"/>
</linearGradient>
<linearGradient id="paint12_linear_1_32" x1="198.74" y1="494.396" x2="310.948" y2="401.934" gradientUnits="userSpaceOnUse">
<stop stop-color="#D02964"/>
<stop offset="1" stop-color="#FC8F59"/>
</linearGradient>
<linearGradient id="paint13_linear_1_32" x1="159.719" y1="255.169" x2="222.265" y2="239.212" gradientUnits="userSpaceOnUse">
<stop stop-color="#D02964"/>
<stop offset="1" stop-color="#FC8F59"/>
</linearGradient>
<linearGradient id="paint14_linear_1_32" x1="322.605" y1="1409.37" x2="431.877" y2="1399.33" gradientUnits="userSpaceOnUse">
<stop stop-color="#D02964"/>
<stop offset="1" stop-color="#FC8F59"/>
</linearGradient>
</defs>
</svg>
