<svg width="640" height="622" viewBox="0 0 640 622" fill="none" xmlns="http://www.w3.org/2000/svg">
<g clip-path="url(#clip0_1_777)">
<path d="M281.421 517.826C359.779 507.602 427.181 458.738 487.921 408.191C518.17 383.02 549.259 354.632 559.067 316.523C563.108 300.827 561.911 281.412 548.669 272.063C540.137 266.039 528.918 265.864 518.476 266.125C434.861 268.22 351.598 283.82 272.896 312.142C222 330.458 172.146 354.649 132.911 391.884C112.026 411.704 36.0371 503.254 92.5715 517.298C119.772 524.054 153.177 516.694 181.155 517.865C214.548 519.267 248.121 522.174 281.421 517.826Z" fill="#FC8F59"/>
<path d="M176.926 320.548C237.149 252.866 299.133 182.067 324.314 95.0403C329.183 78.2189 332.609 60.4605 329.46 43.2333C326.313 26.0062 315.443 9.33319 298.971 3.37855C278.884 -3.88578 256.843 6.01113 238.782 17.4124C177.632 56.0069 129.78 115.253 104.916 183.156C80.0517 251.055 78.3263 327.195 100.093 396.153C130.371 357.073 160.652 317.998 190.93 278.918" fill="#FC8F59"/>
<path d="M428.51 262.371C494.902 243.906 559.516 216.175 613.813 173.741C622.13 167.242 630.377 160.188 635.471 150.941C640.565 141.694 641.954 129.742 636.441 120.739C627.992 106.943 608.621 105.907 592.492 107.154C516.16 113.059 441.257 135.192 373.546 170.824C341.153 187.87 300.875 208.733 275.8 235.976C261.169 251.87 255.617 285.355 283.117 290.907C302.677 294.856 333.503 283.599 353.043 279.842C378.405 274.963 403.623 269.292 428.51 262.371Z" fill="url(#paint0_linear_1_777)"/>
<path d="M524.084 320.607L524.929 320.376C526.548 320.007 526.212 317.576 524.536 317.803C523.757 317.909 522.976 318.008 522.194 318.107L521.719 317.843L521.346 317.717C521.092 317.506 520.775 317.358 520.35 317.364L520.297 317.368C491.685 307.435 458.929 308.391 430.083 316.682C414.255 321.231 399.492 328.281 385.666 337.197C369.705 347.49 355.147 359.736 340.011 371.163C325.851 381.855 311.065 391.346 295.025 398.967C280.256 405.987 264.866 411.645 249.315 416.666C217.701 426.87 185.272 434.441 153.958 445.598C138.565 451.081 123.449 457.451 109.138 465.365C101.617 469.525 94.0555 474.174 87.2266 479.643C89.6381 474.563 92.1256 469.519 94.7152 464.521C95.0451 463.884 95.3882 463.247 95.7214 462.611C96.3383 461.684 96.9618 460.763 97.5524 459.82C99.281 457.068 100.898 454.261 102.333 451.345C102.92 450.151 103.655 448.801 104.289 447.409C105.011 447.096 105.579 446.459 105.678 445.417C105.717 444.978 105.77 444.539 105.816 444.097C106.275 443.292 106.76 442.507 107.222 441.702C107.97 441.52 108.64 441.012 108.812 440.046C108.924 439.412 109.119 438.812 109.28 438.198L109.478 437.862C118.996 429.202 126.89 418.913 133.61 407.835C142.735 398.043 152.464 388.803 162.14 379.569C182.494 360.138 204.366 342.324 227.301 326.024C233.701 321.475 240.197 317.054 246.778 312.769C250.041 310.644 253.32 308.55 256.622 306.488C259.06 305.482 261.501 304.472 263.939 303.466C264.582 303.202 265.222 302.925 265.862 302.658C267.865 302.516 269.867 302.364 271.87 302.219C275.014 301.991 278.168 301.77 281.302 301.421C284.416 301.074 287.556 300.833 290.568 299.926C291.076 299.774 291.225 299.336 291.142 298.913C304.041 298.257 316.901 296.908 329.638 294.77C357.76 290.052 385.221 281.788 411.352 270.397C438.99 258.346 465.122 243.025 489.946 225.957C502.42 217.379 514.586 208.347 526.529 199.047C537.527 190.483 548.223 181.539 559.195 172.945C563.342 169.699 567.564 166.476 571.87 163.345C573.084 162.841 574.308 162.359 575.515 161.841C576.224 161.538 576.29 160.884 576.01 160.393C591.254 149.714 607.634 140.579 625.884 136.531C626.263 136.479 626.642 136.416 627.022 136.363C630.347 135.918 633.676 135.525 637.011 135.172C638.205 135.047 639.139 133.744 638.918 132.573L638.644 131.698C638.628 131.121 638.38 130.597 637.902 130.27C636.381 128.221 633.554 127.271 631.08 128.578C630.558 128.851 630.258 129.257 630.07 129.693C630.159 128.277 628.839 126.836 627.038 127.456C620.826 129.584 614.644 131.784 608.244 133.298C601.877 134.803 595.401 135.842 588.896 136.528C575.64 137.924 562.286 137.91 548.975 137.755C535.574 137.597 522.164 137.28 508.77 137.897C494.314 138.564 479.95 140.546 465.818 143.641C437.357 149.872 409.989 160.343 383.63 172.622C370.332 178.818 357.252 185.475 344.31 192.376C329.926 200.046 315.539 208.149 303.128 218.821C297.074 224.027 291.515 229.853 286.824 236.322C282.46 242.339 278.844 248.865 275.373 255.426C268.455 268.507 262.257 282.352 252.277 293.473C251.561 294.272 250.806 295.04 250.067 295.819C249.143 295.948 248.226 296.047 247.289 296.215L247.246 296.637C247.781 296.815 248.305 296.97 248.833 297.129C247.378 298.606 245.881 300.045 244.304 301.391L244.033 301.882C239.283 306.158 234.107 309.932 228.271 312.947C227.486 313.353 227.103 313.99 226.981 314.659C221.788 318.367 216.645 322.145 211.571 326.024C187.71 344.257 165.267 364.394 144.912 386.457C147.212 381.516 149.363 376.534 151.392 371.576C162.605 344.188 170.74 315.537 184.081 289.036C190.89 275.51 199.345 263.129 208.635 251.197C218.1 239.04 228.073 227.223 236.393 214.222C252.231 189.467 259.654 160.987 268.818 133.381C277.881 106.085 289.856 77.6086 312.876 59.1047C315.68 56.8515 318.623 54.7566 321.701 52.8927C323.815 51.6094 323.324 47.7034 320.421 48.2577C320.332 47.3834 319.54 46.6016 318.501 47.0931C316.479 48.0531 314.502 49.1022 312.507 50.1183C280.744 57.8148 250.44 70.9018 222.963 88.6139C193.242 107.774 166.923 132.305 145.932 160.776C126.227 187.497 111.415 217.765 102.049 249.604C92.7754 281.138 88.7573 314.122 90.2352 346.959C90.9709 363.259 93.0889 379.497 96.6254 395.427C98.7169 404.843 101.749 414.997 102.425 425.019C102.125 427.83 101.765 430.634 101.495 433.448C101.244 436.028 101.016 438.607 100.789 441.187C100.422 441.517 100.073 441.86 99.7033 442.184C98.9247 442.86 99.1062 443.797 99.667 444.341L99.5515 444.605C92.2707 455.785 85.587 467.394 79.5169 479.313C79.9722 477.255 80.401 475.19 80.7705 473.115C84.2509 453.585 83.7792 433.481 80.7342 413.928C74.0373 370.903 55.8468 330.942 42.1561 289.92C38.2666 278.268 34.7268 266.494 31.9228 254.532C30.5372 248.614 29.2869 242.656 28.2543 236.668C27.489 232.238 26.8787 227.781 26.1529 223.344C26.331 222.747 26.4861 222.133 26.6411 221.516C27.3141 220.523 27.9706 219.514 28.1917 218.399C28.4919 216.901 26.5917 215.532 25.2622 216.254C23.4741 217.224 22.4713 219.51 21.6069 221.272C20.8086 222.898 20.1917 224.581 19.7232 226.329C19.2251 228.187 18.8754 230.001 18.9051 231.928C18.9117 232.317 18.8952 232.779 18.8886 233.267C18.651 233.825 18.4102 234.382 18.176 234.943C16.0778 239.99 14.1809 245.12 12.4919 250.319C9.06094 260.866 6.53393 271.717 4.83166 282.676C1.43043 304.555 1.42713 327.007 4.86135 348.882C8.63537 372.928 17.2193 395.351 27.5022 417.306C38.2567 440.27 50.133 463.059 55.8039 487.95C56.18 489.6 56.4901 491.272 56.8101 492.942C56.5759 498.025 56.7672 503.195 56.5759 508.183C56.279 515.853 55.7082 523.51 54.867 531.14C54.0423 538.589 52.9404 545.982 51.6076 553.332C50.6971 555.368 49.8262 557.364 49.0872 559.498C48.8662 560.138 48.9322 560.696 49.1631 561.138C48.6781 562.523 48.2328 563.919 47.7049 565.288C46.7185 567.854 45.6662 570.405 44.5973 572.938C44.0398 574.264 44.7787 575.267 45.8014 575.643C44.8612 579.675 43.9474 583.713 43.1754 587.787C42.8521 589.483 42.5684 591.188 42.2682 592.887C41.5095 595.582 40.7573 598.278 39.9722 600.963C39.7973 601.57 40.2295 601.966 40.7012 602.025C40.3218 604.361 39.9359 606.7 39.5697 609.039C39.2299 611.21 37.3561 616.63 39.9656 617.969C43.1919 619.629 43.6208 614.162 43.9045 612.298C44.0167 611.553 44.1486 610.814 44.2641 610.068L44.3235 609.982C44.1915 611.497 44.1157 613.017 44.2113 614.561C44.3037 616.089 46.4711 616.082 46.9891 614.852C48.4703 611.328 49.1301 607.62 49.8592 603.863C50.5948 600.052 51.38 596.249 52.2113 592.458C53.8608 584.943 55.7049 577.474 57.7338 570.055C61.8014 555.173 66.4695 540.523 71.7346 526.024C72.6814 523.417 73.6876 520.838 74.6806 518.248C78.7845 513.553 84.4027 510.156 90.7235 509.72C91.1491 509.69 91.4064 509.436 91.5317 509.116C103.992 510.918 116.472 512.593 128.952 514.22C145.467 516.374 162.018 518.39 178.654 519.31C211.763 521.134 245.026 518.024 275.413 503.924C306.608 489.448 332.731 466.279 356.787 442.121C380.381 418.424 402.484 393.21 428.044 371.546C452.134 351.125 479.65 333.327 510.862 326.43C514.662 325.589 518.505 324.866 522.339 324.187C524.292 323.847 524.744 321.96 524.084 320.607ZM262.649 295.324C283.941 282.082 305.932 269.938 328.295 258.676C373.242 236.045 419.8 216.749 466.504 198.09C498.326 185.376 530.411 173.173 562.157 160.198C556.117 163.52 550.159 166.991 544.224 170.491C543.937 170.659 543.653 170.834 543.366 171.006C542.753 171.247 542.136 171.484 541.522 171.725C530.86 175.911 520.264 180.256 509.747 184.795C488.716 193.877 467.922 203.507 447.436 213.757C426.801 224.083 406.664 235.266 386.458 246.397C376.607 251.824 366.693 257.244 356.44 261.872C346.639 266.296 336.518 269.853 326.23 272.954C305.249 279.281 283.248 284.157 264.173 295.311C263.662 295.317 263.157 295.324 262.649 295.324ZM266.087 295.209C283.245 286.295 301.973 281.485 320.559 276.342C330.583 273.567 340.556 270.641 350.228 266.798C360.673 262.651 370.863 257.805 380.777 252.52C400.854 241.811 420.605 230.549 440.924 220.279C461.595 209.828 482.567 199.951 503.842 190.786C511.079 187.669 518.357 184.637 525.648 181.645C521.105 184.416 516.566 187.2 512.066 190.037C490.534 203.606 469.061 217.267 447.139 230.202C407.983 253.308 366.944 274.197 322.806 285.922C304.16 290.874 285.231 293.83 266.087 295.209ZM535.03 185.554C523.309 195.124 511.376 204.437 499.124 213.322C474.758 230.984 449.194 247.096 422.067 260.187C396.008 272.762 368.597 282.326 340.239 288.142C326.148 291.032 311.939 292.919 297.665 294.041C303.58 293.018 309.455 291.817 315.261 290.445C336.712 285.371 357.582 278.041 377.801 269.305C398.967 260.16 419.398 249.435 439.373 237.942C461.555 225.181 483.015 211.263 504.957 198.11C517.159 190.796 529.283 183.347 541.555 176.149C543.264 175.146 544.999 174.199 546.718 173.216C548.902 172.375 551.083 171.534 553.27 170.699C547.154 175.608 541.1 180.596 535.03 185.554ZM589.641 143.139C553.336 158.034 516.839 172.47 480.373 186.946C432.614 205.905 385.056 225.406 339.028 248.317C312.846 261.351 287.187 275.468 262.418 290.992C267.146 286.216 271.975 281.541 277.049 277.084C287.781 267.656 299.162 258.986 310.999 250.992C334.898 234.857 360.607 221.638 387.035 210.184C413.301 198.799 440.307 189.302 467.421 180.164C493.813 171.27 520.234 162.339 546.926 154.372C561.016 150.169 575.264 146.352 589.641 143.139ZM272.83 269.351C280.081 256.004 286.722 242.23 297.094 230.938C308.162 218.89 322.199 209.914 336.392 202.006C349.549 194.676 362.992 187.794 376.551 181.239C402.702 168.597 429.77 157.454 458.006 150.404C472.066 146.894 486.39 144.396 500.839 143.235C514.299 142.153 527.812 142.318 541.301 142.509C552.416 142.668 563.645 142.829 574.819 142.361C568.425 144.023 562.052 145.782 555.701 147.626C528.884 155.411 502.463 164.533 476.031 173.523C448.58 182.859 421.258 192.611 394.53 203.873C368.003 215.05 342.166 227.939 317.891 243.454C296.873 256.891 276.686 272.383 259.35 290.451C264.602 283.989 268.871 276.635 272.83 269.351ZM138.902 385.511C136.757 391.396 133.158 396.582 129.239 401.418C124.792 406.908 119.784 412.09 115.383 417.679C120.691 396.179 127.042 374.931 134.3 354.019C143.599 327.228 154.199 300.926 165.297 274.834C176.54 248.4 188.188 222.11 200.137 195.985C212.446 169.076 225.539 142.404 243.106 118.466C251.492 107.039 260.845 96.3236 271.283 86.7236C277.244 81.244 283.555 76.3748 290.133 71.8552C270.666 87.5715 260.891 112.766 252.706 135.908C247.675 150.13 242.628 164.292 235.7 177.726C228.716 191.268 220.442 204.108 211.822 216.657C195.542 240.35 177.872 263.271 164.132 288.594C157.696 300.457 152.137 312.851 148.258 325.797C146.341 332.189 144.81 338.715 143.771 345.309C142.709 352.052 142.366 358.819 142.032 365.628C141.699 372.334 141.218 379.153 138.902 385.511ZM269.293 117.388C259.011 144.687 252.808 173.576 239.312 199.614C225.183 226.874 202.126 248.053 186.605 274.418C171.542 300.009 162.839 328.574 152.592 356.269C150.408 362.174 148.079 368.095 145.628 373.981C146.215 368.349 146.278 362.672 146.654 357.027C147.093 350.403 148.06 343.822 149.485 337.339C152.348 324.315 157.109 311.713 162.829 299.692C175.015 274.082 191.636 251.167 207.774 227.976C216.262 215.779 224.54 203.395 231.86 190.453C239.144 177.577 245.175 164.19 250.169 150.272C260.03 122.781 268.314 92.2923 291.585 72.703C293.053 71.4659 294.56 70.2783 296.107 69.1467C284.284 83.2135 275.773 100.193 269.293 117.388ZM102.814 265.934C110.366 234.207 123.235 203.689 141.092 176.38C160.368 146.907 185.239 121.264 213.831 100.731C220.413 96.0036 227.215 91.5698 234.176 87.4032C232.098 88.9768 230.042 90.5735 228.04 92.2131C202.39 113.254 182.181 140.243 163.258 167.248C145.044 193.241 127.972 220.256 115.311 249.442C104.177 275.111 96.6221 302.555 95.1012 330.577C95.0023 332.417 94.9924 334.264 94.9462 336.109C94.7185 312.512 97.3544 288.871 102.814 265.934ZM113.153 264.538C124.165 234.887 140.198 207.416 157.762 181.213C166.814 167.707 176.183 154.362 185.958 141.368C196.053 127.951 206.92 115.039 219.083 103.443C231.639 91.4708 245.871 80.8581 261.422 73.0065C267.466 70.2123 273.615 67.6523 279.84 65.2902C283.72 63.997 287.669 62.8985 291.677 61.9946C273.909 73.1715 257.341 86.3113 242.14 100.718C219.334 122.333 199.352 146.917 182.458 173.394C165.811 199.486 152.18 227.378 141.053 256.241C130.126 284.583 121.731 313.831 115.337 343.515C111.906 359.449 109.036 375.511 106.648 391.643C105.948 389.159 105.203 386.711 104.54 384.333C100.907 371.332 99.0303 357.839 98.7334 344.349C98.1231 317.124 103.698 289.99 113.153 264.538ZM100.053 387.302C99.0402 382.08 98.2319 376.824 97.5194 371.553C98.6674 377.84 100.261 383.996 102.042 390.136C103.289 394.424 104.579 398.898 105.015 403.404C104.843 404.694 104.645 405.981 104.48 407.271C103.009 400.617 101.349 394.002 100.053 387.302ZM107.426 428.958C110.079 404.526 113.493 380.176 118.257 356.061C124.076 326.602 131.726 297.442 141.726 269.117C151.824 240.508 164.426 212.744 179.931 186.653C195.848 159.872 214.662 134.684 236.439 112.373C247.25 101.298 258.773 90.9133 270.976 81.3958C280.899 73.6564 291.291 66.7022 301.96 60.1108C302.969 59.969 303.982 59.8205 304.992 59.6985C304.117 60.51 303.243 61.3249 302.399 62.1661C281.674 73.2704 263.962 89.2704 249.061 107.514C230.339 130.428 216.286 156.705 203.4 183.218C190.649 209.449 178.644 236.111 166.791 262.757C155.057 289.138 143.909 315.794 134.022 342.927C124.234 369.784 115.802 397.133 109.439 425.009C109.264 425.771 109.105 426.533 108.937 427.295C108.376 428.341 107.858 429.42 107.373 430.515C107.39 429.997 107.429 429.479 107.426 428.958ZM194.634 344.32C183.86 353.217 173.379 362.477 163.294 372.14C172.558 363.078 182.184 354.378 192.121 346.045C193.143 345.326 194.156 344.593 195.182 343.878L194.634 344.32ZM27.0865 250.128C29.31 260.54 32.1273 270.819 35.2645 280.99C41.5524 301.364 49.206 321.274 56.3548 341.354C70.2501 380.377 82.4167 421.354 77.5705 463.221C76.7095 470.65 75.2843 478 73.2851 485.202C73.3247 484.658 73.4039 484.12 73.4369 483.576C74.6641 462.941 72.4703 442.223 68.3004 422.017C59.0963 377.445 40.8233 335.373 31.1871 290.907C27.5319 274.039 25.1566 256.815 25.0016 239.558C25.6251 243.128 26.3475 246.664 27.0865 250.128ZM38.3458 429.163C27.4329 406.479 16.6057 383.815 11.1921 359.083C6.41517 337.253 5.20445 314.705 7.50053 292.484C8.64197 281.452 10.6214 270.503 13.4882 259.788C14.557 255.796 15.7875 251.877 17.0906 247.981C15.6622 264.152 16.477 280.564 18.463 296.611C21.3298 319.796 26.8325 342.525 32.6618 365.116C38.4414 387.523 44.8843 409.761 49.7239 432.402C52.4225 445.024 54.7053 457.788 56.2559 470.631C51.3437 456.419 44.8711 442.721 38.3458 429.163ZM63.286 498.335C63.1078 497.164 62.8439 496.019 62.6361 494.858C61.9928 477.073 59.4691 459.368 55.8864 441.943C51.2381 419.332 44.7656 397.153 38.5272 374.944C32.1735 352.32 26.1925 329.538 22.4548 306.313C18.8886 284.157 17.6745 261.704 20.1224 239.374C20.4127 238.595 20.7294 237.82 21.023 237.041C21.5508 236.517 21.6861 235.794 21.7851 235.072C22.4053 233.458 23.009 231.842 23.6556 230.235C21.3199 269.331 31.6523 307.913 42.9676 345.095C55.7049 386.952 70.3293 429.575 69.4023 473.893C69.1845 484.278 68.0959 494.65 66.0043 504.831C65.4501 506.005 64.919 507.186 64.3251 508.341C64.0975 504.993 63.7874 501.647 63.286 498.335ZM82.0802 490.863C88.2328 484.358 95.6555 478.914 103.227 474.273C117.119 465.758 132.06 458.965 147.261 453.156C177.737 441.511 209.519 433.873 240.678 424.369C271.936 414.832 302.55 403.081 329.595 384.415C359.162 364.011 385.039 337.92 419.141 324.886C435.556 318.611 453.054 315.194 470.641 314.616C457.468 315.913 444.43 319.298 432.155 324.094C400.663 336.399 373.78 357.875 347.764 378.952C321.18 400.488 294.171 422.436 262.125 435.338C231.283 447.759 198.072 451.985 165.749 458.833C136.236 465.085 106.051 474.005 81.4963 492.127C81.6876 491.704 81.8922 491.289 82.0802 490.863ZM85.4451 503.28C84.6501 503.445 83.8715 503.653 83.0831 503.838L83.0138 503.831C83.8056 503.37 84.5874 502.895 85.3891 502.449C92.2938 498.612 99.5054 495.33 106.882 492.513C122.054 486.716 137.932 482.916 153.895 480.049C185.853 474.316 218.394 472.587 250.272 466.332C266.087 463.228 281.773 459.022 296.645 452.744C312.391 446.096 326.765 436.895 340.018 426.144C367.297 404.014 390.159 376.768 419.596 357.262C429.367 350.786 439.601 345.313 450.164 340.631C442.435 345.438 434.985 350.703 427.8 356.272C414.921 366.251 403.078 377.451 391.3 388.681C378.517 400.867 366.037 413.37 353.059 425.352C327.461 448.986 299.73 470.852 266.347 482.2C237.524 491.998 206.844 494.202 176.642 495.515C146.192 496.847 115.393 497.055 85.4451 503.28ZM286.507 492.694C271.883 500.994 256.18 507.272 239.721 510.805C223.708 514.24 207.276 515.328 190.926 515.031C174.395 514.731 157.924 513.101 141.521 511.119C130.43 509.779 119.352 508.361 108.271 506.949C125.006 505.623 141.993 506.213 158.666 506.866C174.379 507.48 190.125 508.127 205.841 507.289C222.128 506.421 238.164 503.65 253.64 498.441C286.649 487.33 315.568 466.781 341.958 444.509C355.609 432.989 368.745 420.882 381.948 408.847C376.376 414.654 370.834 420.493 365.258 426.292C341.509 450.998 316.535 475.655 286.507 492.694ZM476.694 332.687C462.281 339.576 448.818 348.377 436.206 358.152C435.652 358.584 435.121 359.04 434.57 359.475C433.501 360.273 432.406 361.036 431.347 361.844C403.236 383.277 378.355 408.389 352.089 431.95C325.907 455.432 297.467 477.687 264.82 491.414C249.203 497.982 232.804 502.268 215.946 503.99C200.193 505.596 184.328 505.303 168.526 504.742C145.008 503.907 120.982 502.334 97.6018 505.606C94.5833 505.227 91.568 504.838 88.5495 504.468C99.093 502.759 109.669 501.344 120.345 500.499C135.672 499.289 151.032 498.734 166.392 498.174C196.465 497.072 226.921 495.835 256.121 487.897C271.88 483.615 286.897 477.268 300.996 469.027C316.037 460.239 329.926 449.626 343.109 438.274C356.562 426.688 369.263 414.274 382.021 401.939C393.923 390.429 405.971 379.243 418.755 368.712C438.199 352.699 459.507 337.943 483.121 328.891C485.272 328.294 487.419 327.687 489.59 327.143C485.199 328.835 480.881 330.686 476.694 332.687ZM496.346 319.984C488.495 321.435 480.726 323.375 473.118 325.744C457.702 330.547 442.807 337.019 428.793 345.039C414.09 353.455 400.597 363.563 387.936 374.796C374.482 386.731 361.851 399.558 348.453 411.559C335.297 423.346 321.315 434.365 305.546 442.461C291.166 449.844 275.733 454.944 260.02 458.626C228.02 466.124 195.116 467.982 162.75 473.25C146.634 475.873 130.618 479.31 115.119 484.509C103.302 488.471 91.5251 493.499 80.8332 500.107C80.2262 499.685 79.2266 499.741 78.7911 500.615C78.6031 500.991 78.4348 501.38 78.2468 501.756C77.8773 501.997 77.4979 502.225 77.1317 502.469C77.6662 501.172 78.2138 499.879 78.7581 498.589C100.927 480.425 128.797 470.654 156.475 464.102C187.881 456.666 220.168 452.859 250.892 442.639C266.641 437.4 281.506 430.222 295.586 421.453C309.92 412.529 323.347 402.246 336.508 391.696C363.173 370.319 389.13 347.292 419.952 331.968C445.575 319.228 474.933 312.317 503.419 317.81C503.792 317.882 504.158 317.981 504.531 318.061C501.78 318.588 499.055 319.251 496.346 319.984Z" fill="white"/>
</g>
<defs>
<linearGradient id="paint0_linear_1_777" x1="467.605" y1="291.735" x2="562.736" y2="194.26" gradientUnits="userSpaceOnUse">
<stop stop-color="#D02964"/>
<stop offset="1" stop-color="#FC8F59"/>
</linearGradient>
<clipPath id="clip0_1_777">
<rect width="640" height="620.206" fill="white" transform="translate(0 0.896973)"/>
</clipPath>
</defs>
</svg>
