<svg width="640" height="1510" viewBox="0 0 640 1510" fill="none" xmlns="http://www.w3.org/2000/svg">
<path d="M493.812 1508.48C329.371 1165.83 278.4 771.595 350.3 398.408L359.069 400.099C287.541 771.423 338.245 1163.69 501.875 1504.62L493.812 1508.48Z" fill="url(#paint0_linear_1_274)"/>
<path d="M379.558 871.234C375.823 871.234 372.088 871.101 368.334 870.824C366.615 870.68 364.762 870.652 363.09 870.652L359.575 870.671C357.961 870.671 353.662 870.671 353.242 866.515C352.936 863.526 354.875 862.246 357.072 861.539C371.802 810.377 404.27 761.804 448.745 724.521C489.887 690.057 540.389 664.791 598.878 649.46L603.463 648.247L604.389 652.908C610.312 683.036 603.367 716.45 584.836 747.007C570.192 771.117 549.025 793.145 518.247 816.309C469.827 852.751 423.164 871.234 379.558 871.234ZM366.319 861.778C367.245 861.806 368.153 861.854 369.032 861.93C414.051 865.245 462.09 847.401 512.888 809.183C542.73 786.716 563.181 765.501 577.213 742.384C593.614 715.351 600.358 686.064 596.442 659.375C541.249 674.477 493.507 698.692 454.496 731.39C412.017 766.972 380.848 813.119 366.319 861.778Z" fill="url(#paint1_linear_1_274)"/>
<path d="M387.114 1096.29C387.248 1096.16 387.592 1095.65 387.63 1094.88L378.698 1094.58L378.708 1094.45C380.724 1043.17 408.167 991.086 460.275 939.647C514.541 886.079 571.73 856.142 625.653 853.076L630.39 852.808L630.371 857.556C630.142 899.662 600.845 934.957 570.87 967.502C530.436 1011.46 480.095 1066.16 414.854 1087.07C411.071 1088.28 407.221 1089.39 403.582 1090.45C397.287 1092.24 388.661 1094.73 387.114 1096.29ZM621.278 862.332C557.956 867.891 502.381 910.628 466.55 945.99C419.181 992.758 392.884 1039.75 388.27 1085.84C391.68 1084.56 395.978 1083.33 401.108 1081.85C404.661 1080.83 408.435 1079.73 412.131 1078.55C475.128 1058.36 522.507 1006.88 564.308 961.446C593.041 930.248 618.985 899.146 621.278 862.332Z" fill="url(#paint2_linear_1_274)"/>
<path d="M409.17 1263.09L412.217 1253.3C445.058 1148 531.802 1062.06 633.208 1034.34L638.176 1032.97L638.816 1038.08C643.668 1076.75 626.398 1120.05 592.63 1153.92C562.379 1184.21 524.38 1204.16 487.632 1223.44C465.748 1234.92 443.119 1246.79 418.417 1258.64L409.17 1263.09ZM630.457 1044.4C537.323 1071.85 457.6 1149.86 424.043 1245.99C444.962 1235.74 464.506 1225.49 483.496 1215.53C519.642 1196.55 557.02 1176.93 586.316 1147.6C616.626 1117.21 632.865 1079.01 630.457 1044.4Z" fill="url(#paint3_linear_1_274)"/>
<path d="M378.842 673.083C372.996 673.083 367.226 672.595 361.724 671.621L356.232 670.647L358.381 665.498C403.658 557.195 489.17 465.961 593.012 415.21L594.971 414.752C596.174 414.752 597.158 414.905 602.641 416.5L606.347 417.57L605.822 421.381C599.556 467.853 586.632 513.111 567.432 555.896C561.815 568.39 555.31 581.448 545.824 592.318C534.648 605.109 520.167 614.05 506.154 622.704C464.592 648.237 420.681 673.083 378.842 673.083ZM368.879 663.626C372.136 663.979 375.47 664.161 378.842 664.161C418.35 664.161 461.01 639.975 501.301 615.196C514.904 606.8 528.802 598.222 539.09 586.453C547.802 576.452 553.944 564.101 559.264 552.237C577.586 511.421 590.089 468.311 596.423 424.027C596.136 423.951 595.888 423.884 595.687 423.836C496.038 472.935 413.698 560.051 368.879 663.626Z" fill="url(#paint4_linear_1_274)"/>
<path d="M367.713 475.476L367.541 468.76C366.701 434.821 383.255 409.632 397.755 391.473C442.574 335.421 508.924 296.591 579.764 284.956L587.272 283.724L584.692 290.879C571.109 328.562 556.064 358.843 538.689 383.44C515.334 416.433 486.753 439.731 456.053 450.793C443.721 455.225 430.777 457.823 418.254 460.345C402.57 463.487 387.773 466.468 373.856 472.715L367.713 475.476ZM573.621 295.139C507.797 307.872 446.596 344.715 404.738 397.061C392.158 412.803 377.915 434.143 376.559 461.95C389.54 457.002 403.21 454.26 416.487 451.595C428.695 449.14 441.323 446.609 453.024 442.396C489.629 429.204 515.85 400.261 531.391 378.291C547.171 355.948 561.022 328.686 573.621 295.139Z" fill="url(#paint5_linear_1_274)"/>
<path d="M344.969 425.794L348.915 405.715C364.895 324.502 366.682 241.847 354.245 160.013L353.423 154.673C349.583 129.78 345.609 104.027 354.856 80.156C358.324 71.1864 363.539 63.0193 368.592 55.1291C375.623 44.125 382.271 33.7321 384.162 21.7727L386.378 7.76917L392.578 20.5118C398.491 32.6527 406.973 42.9978 415.952 53.9733C421.416 60.6408 427.061 67.5375 432.038 74.8354C463.78 121.278 469.512 188.087 447.36 253.548C428.198 310.222 393.218 358.785 359.393 405.754L344.969 425.794ZM390.037 34.2766C386.655 43.4658 381.316 51.8145 376.119 59.953C371.305 67.4802 366.338 75.2652 363.186 83.4038C354.799 105.049 358.591 129.589 362.25 153.326L363.071 158.685C374.677 234.96 374.056 311.97 361.256 387.881C391.728 345.355 421.875 301.08 438.916 250.702C460.16 187.886 454.839 124.029 424.673 79.8885C419.916 72.9154 414.395 66.1811 409.055 59.6569C402.455 51.5853 395.692 43.3226 390.037 34.2766Z" fill="url(#paint6_linear_1_274)"/>
<path d="M311.164 429.281L305.786 407.655C296.807 371.509 278.238 338.42 252.064 311.96C245.168 305.006 237.516 298.224 230.094 291.671C208.841 272.872 186.88 253.443 178.025 225.933C167.241 192.404 178.99 157.29 193.07 121.269L199.145 105.737L201.648 122.234C204.084 138.262 219.978 148.158 235.358 157.73C238.729 159.831 242.054 161.904 245.215 164.015C279.9 187.237 304.535 227.815 314.584 278.269C322.092 315.944 322.073 358.126 314.536 407.253L311.164 429.281ZM197.034 135.941C185.686 166.384 177.738 195.881 186.536 223.22C194.636 248.4 214.734 266.176 236.017 285.004C243.544 291.652 251.319 298.539 258.417 305.704C280.817 328.333 297.877 355.624 308.451 385.503C312.95 346.033 312.081 311.368 305.844 280.027C296.253 231.903 272.965 193.35 240.267 171.447C237.182 169.393 233.934 167.368 230.648 165.324C218.011 157.453 204.084 148.789 197.034 135.941Z" fill="url(#paint7_linear_1_274)"/>
<path d="M264.1 621.472L257.586 615.989C172.189 544.032 109.65 445.128 85.9894 344.657L82.493 329.785L93.4591 340.426C110.653 357.142 134.295 366.828 157.173 376.18C185.61 387.834 215.03 399.869 232.884 425.613C242.684 439.721 247.718 456.543 251.692 472.629C264.062 522.664 268.762 572.517 264.922 612.989L264.1 621.472ZM98.0919 356.044C122.842 447.411 179.907 536.524 256.707 603.456C259.066 565.601 254.281 520.304 243.009 474.759C239.245 459.495 234.517 443.6 225.547 430.695C209.194 407.129 182.285 396.106 153.782 384.433C134.524 376.562 114.741 368.452 98.0919 356.044Z" fill="url(#paint8_linear_1_274)"/>
<path d="M299.061 830.609L290.999 829.195C260.776 823.874 227.257 811.409 194.847 799.335C162.035 787.175 124.848 773.372 99.2191 744.81C65.6814 707.471 59.9691 654.847 56.6832 599.664L56.4062 594.984L62.5577 594.926C117.206 594.926 172.361 623.249 213.884 672.624C251.424 717.243 275.047 773.477 295.9 823.072L299.061 830.609ZM65.8815 603.896C69.1197 655.688 75.1854 704.691 105.858 738.85C130.006 765.759 166.113 779.16 197.951 790.967C227.076 801.809 257.098 812.985 284.418 818.812C263.785 769.828 241.872 719.774 207.045 678.365C168.072 632.027 116.795 605.023 65.8815 603.896Z" fill="url(#paint9_linear_1_274)"/>
<path d="M263.269 980.177C252.647 967.301 229.015 967.616 207.513 967.893L206.099 967.912C203.3 967.96 200.501 967.979 197.703 967.979C170.574 967.979 135.25 966.212 102.572 952.466C66.0724 937.087 39.8613 908.488 32.4392 875.982C27.0422 852.302 31.5889 827.943 36.7471 807.244L38.0176 802.152L42.8415 804.225C148.69 849.589 223.131 905.403 270.395 974.819L263.269 980.177ZM217.571 958.876C228.977 958.876 240.411 959.459 250.25 962.296C204.494 903.377 136.817 854.871 44.1882 814.513C39.8515 833.016 36.604 854.011 41.1699 873.995C47.9425 903.712 72.2054 929.961 106.058 944.242C137.266 957.367 171.434 959.057 197.722 959.057C200.482 959.057 203.233 959.029 205.984 958.991L207.398 958.971C210.751 958.924 214.171 958.876 217.571 958.876Z" fill="url(#paint10_linear_1_274)"/>
<path d="M317.421 1159.53L306.063 1156.86C277.254 1150.05 247.04 1147.63 217.829 1145.3C193.309 1143.34 167.947 1141.3 143.284 1136.71C77.1534 1124.37 27.8352 1091.64 7.98563 1046.94L5.93164 1042.31L10.7847 1040.85C45.2588 1030.48 80.9169 1019.74 117.617 1017.06C122.937 1016.69 128.287 1016.48 133.645 1016.48C168.817 1016.48 200.244 1025.1 224.535 1041.42C253.344 1060.87 271.828 1089.84 291.41 1120.51C297.6 1130.22 304.01 1140.25 310.763 1149.96L317.421 1159.53ZM18.3215 1047.89C38.2665 1087.53 84.0501 1116.56 144.927 1127.92C169.122 1132.44 194.245 1134.45 218.536 1136.39C244.432 1138.47 271.093 1140.59 297.122 1145.77C292.566 1138.92 288.162 1132.03 283.873 1125.3C264.807 1095.43 246.792 1067.21 219.539 1048.8C196.738 1033.48 167.03 1025.39 133.645 1025.39C128.506 1025.39 123.367 1025.58 118.266 1025.94C84.2792 1028.43 50.7895 1038.14 18.3215 1047.89Z" fill="url(#paint11_linear_1_274)"/>
<path d="M335.933 1309.29C326.457 1309.29 317.115 1308.7 308.165 1307.53C281.132 1304.03 255.599 1295.43 232.033 1286.66C220.59 1282.38 209.662 1277.81 201.782 1269.09C194.57 1261.1 191.245 1251.07 188.036 1241.38C185.676 1234.27 183.451 1227.54 179.821 1221.65L178.073 1218.83L180.26 1216.35C194.57 1200.15 217.275 1192.6 241.519 1195.77C263.212 1198.59 283.138 1208.71 299.788 1218.24C340.814 1241.78 370.56 1267.5 390.734 1296.88L394.527 1302.41L387.955 1303.78C370.369 1307.44 352.86 1309.29 335.933 1309.29ZM189.134 1219.94C192.325 1225.91 194.455 1232.34 196.518 1238.58C199.575 1247.8 202.46 1256.51 208.401 1263.11C214.945 1270.35 224.392 1274.26 235.157 1278.29C258.216 1286.87 283.167 1295.28 309.321 1298.68C317.879 1299.79 326.839 1300.36 335.933 1300.36C350.09 1300.36 364.676 1299.01 379.386 1296.36C360.1 1270.39 332.542 1247.33 295.355 1225.99C279.479 1216.9 260.528 1207.24 240.373 1204.63C237.058 1204.2 233.734 1203.99 230.476 1203.99C218.66 1203.98 202.173 1206.81 189.134 1219.94Z" fill="url(#paint12_linear_1_274)"/>
<path d="M334.596 897.331L327.451 891.953C336.172 880.366 346.488 870.05 358.113 861.281L363.491 868.416C352.525 876.679 342.811 886.403 334.596 897.331Z" fill="url(#paint13_linear_1_274)"/>
<path d="M372.079 1129.57L363.444 1127.29C367.198 1113.11 373.044 1099.48 380.8 1086.81L388.413 1091.47C381.106 1103.4 375.613 1116.22 372.079 1129.57Z" fill="url(#paint14_linear_1_274)"/>
<path d="M409.724 1273.39L401.996 1268.9C406.104 1261.85 410.689 1254.99 414.739 1248.93L422.161 1253.9C418.188 1259.84 413.679 1266.58 409.724 1273.39Z" fill="url(#paint15_linear_1_274)"/>
<path d="M382.787 1212.27C378.708 1206.32 371.859 1201.85 366.357 1198.26C344.769 1184.11 323.2 1169.89 301.641 1155.68L306.55 1148.23C328.119 1162.43 349.688 1176.65 371.248 1190.79C377.399 1194.81 385.07 1199.8 390.152 1207.22L382.787 1212.27Z" fill="url(#paint16_linear_1_274)"/>
<path d="M417.739 1321.92C406.362 1315.76 394.45 1309.96 382.357 1304.66L385.939 1296.47C398.262 1301.86 410.393 1307.78 421.989 1314.06L417.739 1321.92Z" fill="url(#paint17_linear_1_274)"/>
<path d="M349.325 1060.91C343.623 1054.05 337.93 1047.37 332.217 1040.69L331.587 1039.95C326.056 1033.49 320.325 1026.81 314.24 1020.83C305.987 1012.76 296.635 1005.53 287.608 998.537L255.589 973.759L261.053 966.699L293.072 991.478C302.309 998.623 311.852 1006.02 320.487 1014.45C326.858 1020.71 332.704 1027.54 338.369 1034.14L338.999 1034.88C344.74 1041.61 350.472 1048.31 356.193 1055.21L349.325 1060.91Z" fill="url(#paint18_linear_1_274)"/>
<path d="M332.819 878.809L327.967 877.262L324.566 878.752C315.74 858.759 300.695 841.727 286.147 825.25L292.843 819.337C307.84 836.321 323.353 853.887 332.743 875.141L333.125 877.73L332.819 878.809Z" fill="url(#paint19_linear_1_274)"/>
<path d="M326.572 704.328L321.719 696.829C336.43 687.334 349.383 674.659 361.915 662.384L368.153 668.765C355.305 681.345 342.037 694.346 326.572 704.328Z" fill="url(#paint20_linear_1_274)"/>
<path d="M319.513 703.22C313.027 686.112 300.962 672.271 288.181 657.617C276.041 643.7 263.489 629.305 256.162 611.843L264.406 608.395C271.159 624.519 282.689 637.749 294.897 651.752C307.639 666.358 320.812 681.46 327.861 700.068L319.513 703.22Z" fill="url(#paint21_linear_1_274)"/>
<path d="M337.614 541.033L329.418 537.489C332.599 530.124 336.898 523.437 341.072 516.97C343.881 512.615 346.698 508.259 349.144 503.693C351.876 498.649 354.235 493.185 356.518 487.912C360.511 478.656 364.657 469.085 371.066 460.755L378.135 466.2C372.394 473.651 368.669 482.305 364.704 491.456C362.345 496.901 359.909 502.547 356.996 507.934C354.407 512.748 351.446 517.352 348.571 521.813C344.435 528.252 340.499 534.346 337.614 541.033Z" fill="url(#paint22_linear_1_274)"/>
<path d="M331.138 529.531C330.039 518.776 327.088 508.316 322.388 498.439C321.423 496.433 320.401 494.465 319.37 492.497C317.698 489.288 316.026 486.078 314.632 482.745C311.269 474.893 309.493 466.611 308.06 458.826C303.933 436.082 302.624 412.88 304.153 389.849L313.075 390.451C311.584 412.736 312.864 435.213 316.857 457.221C318.195 464.481 319.847 472.18 322.866 479.268C324.184 482.391 325.741 485.372 327.307 488.352C328.377 490.415 329.466 492.478 330.469 494.58C335.618 505.393 338.837 516.837 340.041 528.615L331.138 529.531Z" fill="url(#paint23_linear_1_274)"/>
<path d="M597.063 1086.6C593.528 1086.65 590.672 1089.77 587.596 1091.28C565.225 1105.44 544.334 1121.78 524.37 1139.11C485.607 1173.22 450.207 1211.32 419.162 1252.58C440.826 1224.08 470.161 1199.8 498.474 1176.93C522.851 1158.31 545.672 1137.05 571.157 1120.18C564.509 1126.35 557.535 1132.24 550.839 1138.22C542.854 1145.11 534.591 1151.61 526.242 1158.1C538.975 1151.84 551.699 1144.83 562.359 1135.46C572.542 1123.94 581.34 1111.17 590.414 1098.75C592.774 1095.03 595.544 1091.52 597.149 1087.4C597.235 1087.13 597.321 1086.73 597.063 1086.6Z" fill="url(#paint24_linear_1_274)"/>
<path d="M530.216 722.458C463.99 757.735 412.733 813.778 358.839 864.815C406.887 827.838 452.881 788.321 501.368 751.889C508.16 746.75 514.636 740.99 521.877 736.443C520.091 738.315 518.304 740.149 516.556 742.069C510.796 748.402 505.18 754.84 499.544 761.307C508.16 751.803 517.903 743.311 526.433 733.797C526.529 733.95 526.433 734.112 526.338 734.255C526.921 733.501 527.503 732.736 528.086 731.982C531.305 728.275 534.343 724.388 537.017 720.194C540.131 716.249 531.248 721.742 530.216 722.458Z" fill="url(#paint25_linear_1_274)"/>
<path d="M524.685 952.103C492.838 977.742 462.519 1005.2 433.586 1034.04C418.054 1050.17 401.213 1065.93 388.575 1084.5C397.641 1072.53 413.411 1059.5 429.755 1044.66C464.764 1013.45 498.388 980.684 531.515 947.499C533.082 945.942 534.591 944.376 536.11 942.819C532.279 945.894 528.43 948.98 524.685 952.103Z" fill="url(#paint26_linear_1_274)"/>
<path d="M388.528 1084.5C386.531 1087.12 384.869 1089.72 383.589 1092.26C385.184 1089.64 386.837 1087.05 388.528 1084.5Z" fill="url(#paint27_linear_1_274)"/>
<path d="M522.842 503.578C474.259 558.895 419.124 608.376 371.372 664.457C369.633 666.205 367.904 667.886 366.195 669.634C366.949 669.052 367.713 668.431 368.468 667.848C367.713 668.794 366.911 669.634 366.109 670.57C367.093 669.462 368.162 668.383 369.184 667.313C413.698 632.705 455.9 594.879 493.01 552.381C470.362 573.405 447.188 593.77 424.282 614.489C461.841 577.255 496.716 537.422 529.452 495.889C535.212 488.658 525.163 500.98 522.842 503.578Z" fill="url(#paint28_linear_1_274)"/>
<path d="M328.75 1275.97C316.513 1271.73 304.946 1265.51 292.48 1261.9C306.159 1270.34 319.007 1280.39 334.233 1286.01C352.449 1293.24 373.072 1296.63 391.47 1301.19C371.525 1290.49 349.908 1283.56 328.75 1275.97Z" fill="url(#paint29_linear_1_274)"/>
<path d="M308.385 1150.77C292.48 1135.67 279.499 1124.06 261.005 1113.76C232.998 1098.65 201.887 1088.79 170.45 1084.23C189.335 1090.88 207.914 1100.36 227.964 1109.24C255.599 1121.96 281.056 1133.71 305.165 1150.41C307.792 1152.07 311.059 1154.16 313.247 1155.59C311.642 1154.03 310.037 1152.38 308.385 1150.77Z" fill="url(#paint30_linear_1_274)"/>
<path d="M188.036 915.051C152.979 899.949 119.852 891.772 88.7307 869.534C116.547 898.306 154.507 913.169 190.987 927.583C203.807 932.455 240.287 950.766 262.037 965.63C247.346 950.766 213.808 925.94 188.036 915.051Z" fill="url(#paint31_linear_1_274)"/>
<path d="M289.624 815.344C283.023 805.028 274.799 786.535 265.963 773.859C236.532 732.775 189.602 693.123 141.287 667.084C169.906 687.984 194.913 713.355 219.912 738.315C248.807 766.628 266.698 788.76 283.272 816.061C282.737 815.831 282.154 815.554 281.399 815.249C272.42 811.275 263.365 807.12 254.433 803.194C254.787 803.414 255.102 803.633 255.455 803.862C265.867 810.597 275.869 818.095 287.026 823.511C288.143 824.046 289.395 824.171 290.56 823.559C293.875 821.639 290.378 816.538 289.624 815.344Z" fill="url(#paint32_linear_1_274)"/>
<path d="M260.241 604.526C246.228 557.739 216.75 471.96 173.583 446.685C192.86 462.628 201.619 488.037 212.423 510.58C226.751 542.561 243.802 573.233 258.407 605.109C259.878 608.318 262.066 612.961 263.279 615.206C262.352 611.671 261.407 608.061 260.241 604.526Z" fill="url(#paint33_linear_1_274)"/>
<path d="M200.817 522.052C211.391 535.32 218.622 550.814 227.515 565.142C236.399 579.442 249.39 597.028 258.054 608.462C243.448 577.255 226.98 545.14 200.817 522.052Z" fill="url(#paint34_linear_1_274)"/>
<path d="M476.714 377.288C434.789 401.799 390.534 429.042 367.943 473.871C378.527 458.998 392.454 446.599 406.39 434.754C427.826 416.309 445.048 403.91 465.194 387.967C470.142 383.984 475.233 379.619 479.742 375.454C478.777 376.046 477.746 376.677 476.714 377.288Z" fill="url(#paint35_linear_1_274)"/>
<path d="M404.556 185.737C401.165 215.387 392.817 244.722 386.035 273.961C377.103 311.922 369.949 350.274 362.765 388.588C362.364 390.91 361.696 393.622 361.208 395.552C362.622 392.658 363.835 389.668 364.991 386.668C389.158 322.687 407.947 254.675 404.556 185.737Z" fill="url(#paint36_linear_1_274)"/>
<path d="M303.207 354.391C296.769 326.441 283.912 300.459 271.494 274.735C267.167 264.323 261.187 255.478 261.139 243.652C259.343 251.246 261.454 259.06 263.107 266.511C270.433 298.616 288.468 326.441 302.128 355.948C302.672 357.056 304.01 360.724 304.497 361.794C304.096 359.301 303.694 356.837 303.207 354.391Z" fill="url(#paint37_linear_1_274)"/>
<defs>
<linearGradient id="paint0_linear_1_274" x1="417.883" y1="1508.48" x2="512.248" y2="1500.63" gradientUnits="userSpaceOnUse">
<stop stop-color="#0B9B8A"/>
<stop offset="1" stop-color="#08DEC5"/>
</linearGradient>
<linearGradient id="paint1_linear_1_274" x1="490.454" y1="871.234" x2="589.332" y2="814.681" gradientUnits="userSpaceOnUse">
<stop stop-color="#0B9B8A"/>
<stop offset="1" stop-color="#08DEC5"/>
</linearGradient>
<linearGradient id="paint2_linear_1_274" x1="515.103" y1="1096.29" x2="617.714" y2="1042.86" gradientUnits="userSpaceOnUse">
<stop stop-color="#0B9B8A"/>
<stop offset="1" stop-color="#08DEC5"/>
</linearGradient>
<linearGradient id="paint3_linear_1_274" x1="534.064" y1="1263.09" x2="629.262" y2="1215.07" gradientUnits="userSpaceOnUse">
<stop stop-color="#0B9B8A"/>
<stop offset="1" stop-color="#08DEC5"/>
</linearGradient>
<linearGradient id="paint4_linear_1_274" x1="491.782" y1="673.083" x2="596.491" y2="622.025" gradientUnits="userSpaceOnUse">
<stop stop-color="#0B9B8A"/>
<stop offset="1" stop-color="#08DEC5"/>
</linearGradient>
<linearGradient id="paint5_linear_1_274" x1="486.611" y1="475.476" x2="572.029" y2="426.173" gradientUnits="userSpaceOnUse">
<stop stop-color="#0B9B8A"/>
<stop offset="1" stop-color="#08DEC5"/>
</linearGradient>
<linearGradient id="paint6_linear_1_274" x1="407.678" y1="425.794" x2="466.493" y2="417.595" gradientUnits="userSpaceOnUse">
<stop stop-color="#0B9B8A"/>
<stop offset="1" stop-color="#08DEC5"/>
</linearGradient>
<linearGradient id="paint7_linear_1_274" x1="253.152" y1="429.281" x2="325.26" y2="412.85" gradientUnits="userSpaceOnUse">
<stop stop-color="#0B9B8A"/>
<stop offset="1" stop-color="#08DEC5"/>
</linearGradient>
<linearGradient id="paint8_linear_1_274" x1="182.068" y1="621.472" x2="268.57" y2="594.03" gradientUnits="userSpaceOnUse">
<stop stop-color="#0B9B8A"/>
<stop offset="1" stop-color="#08DEC5"/>
</linearGradient>
<linearGradient id="paint9_linear_1_274" x1="187.914" y1="830.609" x2="287.009" y2="779.225" gradientUnits="userSpaceOnUse">
<stop stop-color="#0B9B8A"/>
<stop offset="1" stop-color="#08DEC5"/>
</linearGradient>
<linearGradient id="paint10_linear_1_274" x1="160.286" y1="980.177" x2="245.46" y2="922.255" gradientUnits="userSpaceOnUse">
<stop stop-color="#0B9B8A"/>
<stop offset="1" stop-color="#08DEC5"/>
</linearGradient>
<linearGradient id="paint11_linear_1_274" x1="174.744" y1="1159.53" x2="248.026" y2="1079.17" gradientUnits="userSpaceOnUse">
<stop stop-color="#0B9B8A"/>
<stop offset="1" stop-color="#08DEC5"/>
</linearGradient>
<linearGradient id="paint12_linear_1_274" x1="295.38" y1="1309.29" x2="354.082" y2="1253.27" gradientUnits="userSpaceOnUse">
<stop stop-color="#0B9B8A"/>
<stop offset="1" stop-color="#08DEC5"/>
</linearGradient>
<linearGradient id="paint13_linear_1_274" x1="346.983" y1="897.331" x2="361.882" y2="889.83" gradientUnits="userSpaceOnUse">
<stop stop-color="#0B9B8A"/>
<stop offset="1" stop-color="#08DEC5"/>
</linearGradient>
<linearGradient id="paint14_linear_1_274" x1="376.976" y1="1129.57" x2="388.885" y2="1126.07" gradientUnits="userSpaceOnUse">
<stop stop-color="#0B9B8A"/>
<stop offset="1" stop-color="#08DEC5"/>
</linearGradient>
<linearGradient id="paint15_linear_1_274" x1="412.925" y1="1273.39" x2="421.838" y2="1269.69" gradientUnits="userSpaceOnUse">
<stop stop-color="#0B9B8A"/>
<stop offset="1" stop-color="#08DEC5"/>
</linearGradient>
<linearGradient id="paint16_linear_1_274" x1="349.609" y1="1212.27" x2="380.504" y2="1190.76" gradientUnits="userSpaceOnUse">
<stop stop-color="#0B9B8A"/>
<stop offset="1" stop-color="#08DEC5"/>
</linearGradient>
<linearGradient id="paint17_linear_1_274" x1="403.836" y1="1321.92" x2="416.55" y2="1311.95" gradientUnits="userSpaceOnUse">
<stop stop-color="#0B9B8A"/>
<stop offset="1" stop-color="#08DEC5"/>
</linearGradient>
<linearGradient id="paint18_linear_1_274" x1="310.112" y1="1060.91" x2="350.548" y2="1039.17" gradientUnits="userSpaceOnUse">
<stop stop-color="#0B9B8A"/>
<stop offset="1" stop-color="#08DEC5"/>
</linearGradient>
<linearGradient id="paint19_linear_1_274" x1="311.607" y1="878.809" x2="332.624" y2="870.448" gradientUnits="userSpaceOnUse">
<stop stop-color="#0B9B8A"/>
<stop offset="1" stop-color="#08DEC5"/>
</linearGradient>
<linearGradient id="paint20_linear_1_274" x1="346.884" y1="704.328" x2="365.239" y2="694.094" gradientUnits="userSpaceOnUse">
<stop stop-color="#0B9B8A"/>
<stop offset="1" stop-color="#08DEC5"/>
</linearGradient>
<linearGradient id="paint21_linear_1_274" x1="295.02" y1="703.22" x2="327.468" y2="690.864" gradientUnits="userSpaceOnUse">
<stop stop-color="#0B9B8A"/>
<stop offset="1" stop-color="#08DEC5"/>
</linearGradient>
<linearGradient id="paint22_linear_1_274" x1="355.82" y1="541.033" x2="378.908" y2="533.976" gradientUnits="userSpaceOnUse">
<stop stop-color="#0B9B8A"/>
<stop offset="1" stop-color="#08DEC5"/>
</linearGradient>
<linearGradient id="paint23_linear_1_274" x1="323.319" y1="529.531" x2="341.914" y2="527.084" gradientUnits="userSpaceOnUse">
<stop stop-color="#0B9B8A"/>
<stop offset="1" stop-color="#08DEC5"/>
</linearGradient>
<linearGradient id="paint24_linear_1_274" x1="515.669" y1="1252.58" x2="587.091" y2="1213.99" gradientUnits="userSpaceOnUse">
<stop stop-color="#0B9B8A"/>
<stop offset="1" stop-color="#08DEC5"/>
</linearGradient>
<linearGradient id="paint25_linear_1_274" x1="455.76" y1="864.815" x2="522.893" y2="823.411" gradientUnits="userSpaceOnUse">
<stop stop-color="#0B9B8A"/>
<stop offset="1" stop-color="#08DEC5"/>
</linearGradient>
<linearGradient id="paint26_linear_1_274" x1="468.532" y1="1084.5" x2="528.491" y2="1053.05" gradientUnits="userSpaceOnUse">
<stop stop-color="#0B9B8A"/>
<stop offset="1" stop-color="#08DEC5"/>
</linearGradient>
<linearGradient id="paint27_linear_1_274" x1="386.266" y1="1092.26" x2="388.587" y2="1091.52" gradientUnits="userSpaceOnUse">
<stop stop-color="#0B9B8A"/>
<stop offset="1" stop-color="#08DEC5"/>
</linearGradient>
<linearGradient id="paint28_linear_1_274" x1="455.585" y1="670.57" x2="525.66" y2="637.638" gradientUnits="userSpaceOnUse">
<stop stop-color="#0B9B8A"/>
<stop offset="1" stop-color="#08DEC5"/>
</linearGradient>
<linearGradient id="paint29_linear_1_274" x1="346.128" y1="1301.19" x2="365.78" y2="1276.25" gradientUnits="userSpaceOnUse">
<stop stop-color="#0B9B8A"/>
<stop offset="1" stop-color="#08DEC5"/>
</linearGradient>
<linearGradient id="paint30_linear_1_274" x1="247.839" y1="1155.59" x2="284.547" y2="1118.59" gradientUnits="userSpaceOnUse">
<stop stop-color="#0B9B8A"/>
<stop offset="1" stop-color="#08DEC5"/>
</linearGradient>
<linearGradient id="paint31_linear_1_274" x1="182.654" y1="965.63" x2="231.863" y2="920.935" gradientUnits="userSpaceOnUse">
<stop stop-color="#0B9B8A"/>
<stop offset="1" stop-color="#08DEC5"/>
</linearGradient>
<linearGradient id="paint32_linear_1_274" x1="222.947" y1="823.968" x2="286.22" y2="793.362" gradientUnits="userSpaceOnUse">
<stop stop-color="#0B9B8A"/>
<stop offset="1" stop-color="#08DEC5"/>
</linearGradient>
<linearGradient id="paint33_linear_1_274" x1="222.194" y1="615.206" x2="265.557" y2="603.582" gradientUnits="userSpaceOnUse">
<stop stop-color="#0B9B8A"/>
<stop offset="1" stop-color="#08DEC5"/>
</linearGradient>
<linearGradient id="paint34_linear_1_274" x1="231.836" y1="608.462" x2="258.525" y2="599.558" gradientUnits="userSpaceOnUse">
<stop stop-color="#0B9B8A"/>
<stop offset="1" stop-color="#08DEC5"/>
</linearGradient>
<linearGradient id="paint35_linear_1_274" x1="428.533" y1="473.871" x2="472.179" y2="448.9" gradientUnits="userSpaceOnUse">
<stop stop-color="#0B9B8A"/>
<stop offset="1" stop-color="#08DEC5"/>
</linearGradient>
<linearGradient id="paint36_linear_1_274" x1="384.916" y1="395.552" x2="407.336" y2="393.198" gradientUnits="userSpaceOnUse">
<stop stop-color="#0B9B8A"/>
<stop offset="1" stop-color="#08DEC5"/>
</linearGradient>
<linearGradient id="paint37_linear_1_274" x1="284.323" y1="361.794" x2="306.368" y2="357.655" gradientUnits="userSpaceOnUse">
<stop stop-color="#0B9B8A"/>
<stop offset="1" stop-color="#08DEC5"/>
</linearGradient>
</defs>
</svg>
