<svg width="640" height="2938" viewBox="0 0 640 2938" fill="none" xmlns="http://www.w3.org/2000/svg">
<path d="M210.314 2932.75C207.097 2932.75 204.111 2930.68 203.093 2927.46C109.686 2632.42 161.838 2310.47 232.107 2006.49C240.443 1970.4 249.026 1934.26 257.625 1898.05C320.033 1635.24 384.542 1363.48 359.253 1093.29C345.272 943.971 303.606 795.343 263.286 651.606C208.115 454.814 151.04 251.31 165.087 44.574C165.383 40.3893 169.091 37.2058 173.161 37.5175C177.346 37.8129 180.496 41.4234 180.217 45.5916C166.351 249.719 223.048 451.942 277.891 647.503C318.392 791.897 360.271 941.198 374.351 1091.88C399.869 1364.55 335.048 1637.55 272.377 1901.56C263.795 1937.73 255.212 1973.85 246.876 2009.92C177.083 2311.8 125.227 2631.32 217.534 2922.88C218.798 2926.87 216.583 2931.14 212.595 2932.4C211.856 2932.63 211.069 2932.75 210.314 2932.75Z" fill="url(#paint0_linear_1_117)"/>
<path d="M333.735 860.886C330.109 860.886 326.925 858.293 326.285 854.601C278.023 576.841 259.545 293.091 271.344 11.212C271.524 7.02743 275.069 3.74536 279.22 3.95869C283.405 4.13921 286.654 7.66746 286.474 11.8521C274.708 292.631 293.12 575.298 341.202 851.991C341.924 856.11 339.151 860.032 335.032 860.754C334.605 860.853 334.162 860.886 333.735 860.886Z" fill="url(#paint1_linear_1_117)"/>
<path d="M347.208 918.765L332.062 918.043L342.925 670.002C348.505 534.387 355.463 365.641 365.801 161.956L380.948 162.679L355.528 732.328C352.624 801.924 349.982 863.626 347.208 918.765Z" fill="url(#paint2_linear_1_117)"/>
<path d="M366.047 1076.07C365.588 1076.07 365.097 1076.04 364.637 1075.94C360.518 1075.15 357.811 1071.2 358.598 1067.08C406.746 812.574 422.941 552.554 406.712 294.24C406.449 290.071 409.633 286.461 413.817 286.215C417.969 285.723 421.596 289.12 421.842 293.304C438.17 552.865 421.909 814.149 373.515 1069.9C372.81 1073.55 369.608 1076.07 366.047 1076.07Z" fill="url(#paint3_linear_1_117)"/>
<path d="M369.707 1315.75C368.935 1315.75 368.148 1315.63 367.36 1315.38C363.389 1314.09 361.206 1309.82 362.486 1305.83C456.221 1016.77 498.823 716 489.108 411.885C488.976 407.7 492.242 404.188 496.443 404.057C499.906 403.778 504.123 407.191 504.271 411.392C514.035 717.263 471.188 1019.75 376.911 1310.49C375.877 1313.71 372.923 1315.75 369.707 1315.75Z" fill="url(#paint4_linear_1_117)"/>
<path d="M340.956 1555.61C339.758 1555.61 338.544 1555.33 337.395 1554.73C333.703 1552.76 332.291 1548.16 334.277 1544.45C496.049 1241.01 542.654 879.938 566.909 566.765C567.237 562.58 570.979 559.462 575.048 559.79C579.217 560.119 582.334 563.745 582.023 567.93C557.67 882.662 510.769 1245.67 347.668 1551.59C346.289 1554.15 343.664 1555.61 340.956 1555.61Z" fill="url(#paint5_linear_1_117)"/>
<path d="M286.868 1814.72C285.522 1814.72 284.144 1814.35 282.913 1813.6C279.335 1811.4 278.236 1806.72 280.435 1803.16C413.916 1586.58 513.395 1340.82 584.583 1051.87C585.584 1047.8 589.719 1045.27 593.756 1046.32C597.826 1047.31 600.32 1051.41 599.319 1055.49C527.754 1346.01 427.668 1593.18 293.366 1811.12C291.906 1813.42 289.428 1814.72 286.868 1814.72Z" fill="url(#paint6_linear_1_117)"/>
<path d="M249.879 1971.24C248.254 1971.24 246.63 1970.73 245.251 1969.64C241.936 1967.08 241.346 1962.31 243.906 1959.01C398.786 1759.43 514.002 1531.41 617.485 1219.71C618.814 1215.72 623.065 1213.62 627.069 1214.9C631.04 1216.22 633.206 1220.52 631.877 1224.49C527.836 1537.91 411.881 1767.31 255.901 1968.3C254.392 1970.22 252.16 1971.24 249.879 1971.24Z" fill="url(#paint7_linear_1_117)"/>
<path d="M189.44 2262.09C188.587 2262.09 187.717 2261.94 186.864 2261.65C182.925 2260.22 180.89 2255.86 182.318 2251.93C266.634 2019.48 389.35 1805.18 547.102 1614.99C549.76 1611.77 554.535 1611.33 557.768 1613.99C560.985 1616.66 561.444 1621.44 558.769 1624.65C402.15 1813.52 280.287 2026.31 196.595 2257.09C195.446 2260.19 192.542 2262.09 189.44 2262.09Z" fill="url(#paint8_linear_1_117)"/>
<path d="M339.643 889.505C337.132 889.505 334.671 888.258 333.227 885.977C195.282 668.508 106.946 418.334 77.8177 162.531C77.3418 158.379 80.3283 154.621 84.48 154.145C88.599 153.768 92.39 156.656 92.8823 160.808C121.764 414.346 209.313 662.305 346.043 877.854C348.291 881.382 347.224 886.075 343.696 888.324C342.433 889.111 341.021 889.505 339.643 889.505Z" fill="url(#paint9_linear_1_117)"/>
<path d="M376.156 1295.95C372.726 1295.95 369.625 1293.61 368.788 1290.15C298.585 995.319 179.84 716.722 15.9184 462.084C13.6538 458.572 14.6711 453.878 18.1992 451.597C21.7274 449.349 26.4209 450.367 28.6856 453.878C193.543 709.961 312.927 990.133 383.557 1286.62C384.525 1290.7 382.014 1294.79 377.928 1295.76C377.338 1295.89 376.747 1295.95 376.156 1295.95Z" fill="url(#paint10_linear_1_117)"/>
<path d="M362.519 1403.88C359.204 1403.88 356.135 1401.67 355.216 1398.31C298.568 1191.42 211.331 1028.66 54.0887 836.5C51.4303 833.251 51.9062 828.476 55.139 825.833C58.3882 823.175 63.147 823.667 65.8055 826.884C224.492 1020.84 312.566 1185.23 369.821 1394.3C370.921 1398.34 368.558 1402.51 364.521 1403.61C363.865 1403.82 363.192 1403.88 362.519 1403.88Z" fill="url(#paint11_linear_1_117)"/>
<path d="M331.635 1606.86C327.45 1606.86 324.053 1603.47 324.053 1599.28C323.938 1402.7 250.699 1230.23 106.388 1086.67C103.401 1083.72 103.401 1078.93 106.355 1075.96C109.309 1072.99 114.117 1072.99 117.071 1075.94C264.369 1222.44 339.085 1398.52 339.2 1599.3C339.216 1603.48 335.819 1606.86 331.635 1606.86Z" fill="url(#paint12_linear_1_117)"/>
<path d="M306.839 1726.77C303.245 1726.77 300.061 1724.23 299.389 1720.57C271.901 1571.12 214.416 1424.25 133.137 1295.79C130.905 1292.25 131.955 1287.57 135.483 1285.32C139.044 1283.12 143.737 1284.16 145.953 1287.68C228.267 1417.77 286.474 1566.49 314.306 1717.81C315.06 1721.93 312.336 1725.89 308.217 1726.64C307.758 1726.74 307.315 1726.77 306.839 1726.77Z" fill="url(#paint13_linear_1_117)"/>
<defs>
<linearGradient id="paint0_linear_1_117" x1="275.896" y1="2932.75" x2="393.54" y2="2928.09" gradientUnits="userSpaceOnUse">
<stop stop-color="#0B9B8A"/>
<stop offset="1" stop-color="#08DEC5"/>
</linearGradient>
<linearGradient id="paint1_linear_1_117" x1="307.684" y1="860.886" x2="345.661" y2="859.247" gradientUnits="userSpaceOnUse">
<stop stop-color="#0B9B8A"/>
<stop offset="1" stop-color="#08DEC5"/>
</linearGradient>
<linearGradient id="paint2_linear_1_117" x1="358.555" y1="918.765" x2="383.861" y2="917.941" gradientUnits="userSpaceOnUse">
<stop stop-color="#0B9B8A"/>
<stop offset="1" stop-color="#08DEC5"/>
</linearGradient>
<linearGradient id="paint3_linear_1_117" x1="396.14" y1="1076.07" x2="432.095" y2="1074.48" gradientUnits="userSpaceOnUse">
<stop stop-color="#0B9B8A"/>
<stop offset="1" stop-color="#08DEC5"/>
</linearGradient>
<linearGradient id="paint4_linear_1_117" x1="439.896" y1="1315.75" x2="513.796" y2="1309.89" gradientUnits="userSpaceOnUse">
<stop stop-color="#0B9B8A"/>
<stop offset="1" stop-color="#08DEC5"/>
</linearGradient>
<linearGradient id="paint5_linear_1_117" x1="468.142" y1="1555.61" x2="594.991" y2="1539.66" gradientUnits="userSpaceOnUse">
<stop stop-color="#0B9B8A"/>
<stop offset="1" stop-color="#08DEC5"/>
</linearGradient>
<linearGradient id="paint6_linear_1_117" x1="452.856" y1="1814.72" x2="611.799" y2="1781.36" gradientUnits="userSpaceOnUse">
<stop stop-color="#0B9B8A"/>
<stop offset="1" stop-color="#08DEC5"/>
</linearGradient>
<linearGradient id="paint7_linear_1_117" x1="453.651" y1="1971.24" x2="642.966" y2="1922.1" gradientUnits="userSpaceOnUse">
<stop stop-color="#0B9B8A"/>
<stop offset="1" stop-color="#08DEC5"/>
</linearGradient>
<linearGradient id="paint8_linear_1_117" x1="387.072" y1="2262.09" x2="567.724" y2="2209.08" gradientUnits="userSpaceOnUse">
<stop stop-color="#0B9B8A"/>
<stop offset="1" stop-color="#08DEC5"/>
</linearGradient>
<linearGradient id="paint9_linear_1_117" x1="223.799" y1="889.505" x2="358.827" y2="864.588" gradientUnits="userSpaceOnUse">
<stop stop-color="#0B9B8A"/>
<stop offset="1" stop-color="#08DEC5"/>
</linearGradient>
<linearGradient id="paint10_linear_1_117" x1="214.721" y1="1295.95" x2="397.142" y2="1255.86" gradientUnits="userSpaceOnUse">
<stop stop-color="#0B9B8A"/>
<stop offset="1" stop-color="#08DEC5"/>
</linearGradient>
<linearGradient id="paint11_linear_1_117" x1="224.558" y1="1403.88" x2="377.543" y2="1361.66" gradientUnits="userSpaceOnUse">
<stop stop-color="#0B9B8A"/>
<stop offset="1" stop-color="#08DEC5"/>
</linearGradient>
<linearGradient id="paint12_linear_1_117" x1="231.533" y1="1606.88" x2="347.612" y2="1581.11" gradientUnits="userSpaceOnUse">
<stop stop-color="#0B9B8A"/>
<stop offset="1" stop-color="#08DEC5"/>
</linearGradient>
<linearGradient id="paint13_linear_1_117" x1="230.853" y1="1726.77" x2="321.496" y2="1707.95" gradientUnits="userSpaceOnUse">
<stop stop-color="#0B9B8A"/>
<stop offset="1" stop-color="#08DEC5"/>
</linearGradient>
</defs>
</svg>
