<svg width="378" height="1005" viewBox="0 0 378 1005" fill="none" xmlns="http://www.w3.org/2000/svg">
<path fill-rule="evenodd" clip-rule="evenodd" d="M126.56 941.53C126.521 906.873 98.3943 878.81 63.7379 878.849C29.0812 878.888 1.01795 907.014 1.05686 941.671C1.09577 976.327 29.2221 1004.39 63.8788 1004.35C98.5352 1004.31 126.599 976.186 126.56 941.53ZM107.734 941.551C107.707 917.291 88.0188 897.647 63.7591 897.674C39.4994 897.701 19.8551 917.39 19.8823 941.649C19.9096 965.909 39.598 985.553 63.8577 985.526C88.1174 985.499 107.762 965.81 107.734 941.551Z" fill="url(#paint0_linear_3_8)"/>
<path fill-rule="evenodd" clip-rule="evenodd" d="M126.419 816.027C126.38 781.37 98.2534 753.307 63.597 753.346C28.9403 753.385 0.877033 781.511 0.915946 816.168C0.954859 850.824 29.0812 878.888 63.7379 878.849C98.3943 878.81 126.458 850.683 126.419 816.027ZM107.594 816.048C107.566 791.788 87.8779 772.144 63.6181 772.171C39.3585 772.198 19.7142 791.887 19.7414 816.146C19.7686 840.406 39.4571 860.05 63.7168 860.023C87.9765 859.996 107.621 840.307 107.594 816.048Z" fill="url(#paint1_linear_3_8)"/>
<path fill-rule="evenodd" clip-rule="evenodd" d="M126.278 690.524C126.239 655.867 98.1125 627.804 63.4561 627.843C28.7994 627.881 0.736118 656.008 0.77503 690.665C0.813943 725.321 28.9403 753.385 63.597 753.346C98.2534 753.307 126.317 725.18 126.278 690.524ZM107.453 690.545C107.425 666.285 87.737 646.641 63.4772 646.668C39.2176 646.695 19.5732 666.384 19.6005 690.643C19.6277 714.903 39.3162 734.547 63.5759 734.52C87.8356 734.493 107.48 714.804 107.453 690.545Z" fill="url(#paint2_linear_3_8)"/>
<path d="M0.704587 627.926C0.686082 611.445 3.91399 595.122 10.204 579.888C16.494 564.654 25.723 550.808 37.3639 539.141C49.0049 527.474 62.8298 518.214 78.0495 511.89C93.2691 505.565 109.585 502.301 126.067 502.282L0.704587 627.926C33.9901 627.889 65.8974 614.631 89.4074 591.068C112.917 567.505 126.104 535.568 126.067 502.282" fill="url(#paint3_linear_3_8)"/>
<path fill-rule="evenodd" clip-rule="evenodd" d="M125.996 439.531C125.957 404.875 97.8307 376.811 63.1743 376.85C28.5176 376.889 0.454302 405.015 0.493214 439.672C0.532127 474.329 28.6585 502.392 63.3152 502.353C97.9716 502.314 126.035 474.188 125.996 439.531ZM107.171 439.552C107.144 415.292 87.4551 395.648 63.1954 395.675C38.9357 395.703 19.2914 415.391 19.3187 439.651C19.3459 463.91 39.0344 483.555 63.294 483.527C87.5538 483.5 107.198 463.812 107.171 439.552Z" fill="url(#paint4_linear_3_8)"/>
<path d="M125.926 376.779C92.6403 376.817 60.7033 363.63 37.1405 340.12C13.5777 316.61 0.319214 284.703 0.281841 251.417L125.926 376.779C125.888 343.494 112.63 311.587 89.0672 288.077C65.5044 264.567 33.5673 251.38 0.281841 251.417" fill="url(#paint5_linear_3_8)"/>
<path d="M125.785 251.276C92.4994 251.314 60.5624 238.127 36.9996 214.617C13.4367 191.107 0.178298 159.2 0.140925 125.914L125.785 251.276C125.747 217.991 112.489 186.084 88.9263 162.574C65.3634 139.064 33.4264 125.877 0.140925 125.914" fill="url(#paint6_linear_3_8)"/>
<path fill-rule="evenodd" clip-rule="evenodd" d="M125.574 63.0351C125.535 28.3788 97.4079 0.315238 62.7515 0.354151C28.0948 0.393063 0.0315697 28.5197 0.0704821 63.176C0.109395 97.8327 28.2357 125.896 62.8925 125.857C97.5489 125.818 125.612 97.6918 125.574 63.0351ZM106.748 63.0563C106.721 38.7966 87.0324 19.1523 62.7727 19.1795C38.513 19.2068 18.8687 38.8952 18.8959 63.1549C18.9232 87.4146 38.6116 107.059 62.8713 107.032C87.1311 107.004 106.775 87.3159 106.748 63.0563Z" fill="url(#paint7_linear_3_8)"/>
<path d="M126.63 1004.28C126.593 970.996 139.78 939.059 163.29 915.496C186.8 891.933 218.707 878.675 251.992 878.637L126.63 1004.28C159.916 1004.24 191.823 990.985 215.333 967.423C238.843 943.86 252.03 911.923 251.992 878.637" fill="url(#paint8_linear_3_8)"/>
<path d="M126.489 878.778C126.452 845.493 139.639 813.556 163.149 789.993C186.659 766.43 218.566 753.172 251.852 753.134L126.489 878.778C159.775 878.741 191.682 865.482 215.192 841.92C238.702 818.357 251.889 786.42 251.852 753.134" fill="url(#paint9_linear_3_8)"/>
<path fill-rule="evenodd" clip-rule="evenodd" d="M189.065 721.829C189.045 704.501 174.982 690.469 157.654 690.488C140.325 690.508 126.294 704.571 126.313 721.899C126.333 739.228 140.396 753.259 157.724 753.24C175.052 753.22 189.084 739.157 189.065 721.829ZM179.652 721.839C179.638 709.71 169.794 699.887 157.664 699.901C145.535 699.915 135.712 709.759 135.726 721.889C135.74 734.019 145.584 743.841 157.714 743.827C169.844 743.814 179.666 733.969 179.652 721.839Z" fill="url(#paint10_linear_3_8)"/>
<path d="M189.03 690.467C172.387 690.485 156.418 683.892 144.637 672.137C132.856 660.382 126.226 644.428 126.208 627.785L189.03 690.467C189.011 673.824 182.382 657.87 170.6 646.115C158.819 634.36 142.85 627.767 126.208 627.785" fill="url(#paint11_linear_3_8)"/>
<path d="M251.852 753.134C251.833 736.491 245.204 720.538 233.422 708.783C221.641 697.028 205.672 690.434 189.03 690.453L189.1 753.205" fill="url(#paint12_linear_3_8)"/>
<path d="M189.03 690.467C189.011 673.824 195.604 657.855 207.359 646.074C219.114 634.292 235.068 627.663 251.711 627.645L189.03 690.467C205.672 690.448 221.626 683.819 233.381 672.037C245.136 660.256 251.729 644.287 251.711 627.645" fill="url(#paint13_linear_3_8)"/>
<path fill-rule="evenodd" clip-rule="evenodd" d="M251.64 564.893C251.601 530.237 223.475 502.173 188.818 502.212C154.161 502.251 126.098 530.378 126.137 565.034C126.176 599.691 154.302 627.754 188.959 627.715C223.616 627.676 251.679 599.55 251.64 564.893ZM232.815 564.914C232.787 540.654 213.099 521.01 188.839 521.037C164.58 521.065 144.935 540.753 144.963 565.013C144.99 589.273 164.678 608.917 188.938 608.89C213.198 608.862 232.842 589.174 232.815 564.914Z" fill="url(#paint14_linear_3_8)"/>
<path d="M251.57 502.142C251.532 468.856 238.274 436.949 214.711 413.439C191.148 389.929 159.211 376.742 125.926 376.779L126.067 502.282" fill="url(#paint15_linear_3_8)"/>
<path fill-rule="evenodd" clip-rule="evenodd" d="M251.358 313.887C251.319 279.23 223.193 251.167 188.536 251.206C153.88 251.245 125.816 279.371 125.855 314.028C125.894 348.685 154.021 376.748 188.677 376.709C223.334 376.67 251.397 348.544 251.358 313.887ZM232.533 313.908C232.506 289.648 212.817 270.004 188.558 270.031C164.298 270.059 144.654 289.747 144.681 314.007C144.708 338.266 164.396 357.911 188.656 357.883C212.916 357.856 232.56 338.168 232.533 313.908Z" fill="url(#paint16_linear_3_8)"/>
<path d="M125.785 251.276C125.747 217.991 138.934 186.054 162.444 162.491C185.954 138.928 217.862 125.67 251.147 125.632L125.785 251.276C159.07 251.239 190.978 237.981 214.488 214.418C237.998 190.855 251.184 158.918 251.147 125.632" fill="url(#paint17_linear_3_8)"/>
<path d="M125.644 125.787C125.607 92.5012 138.793 60.5642 162.303 37.0013C185.813 13.4385 217.721 0.18015 251.006 0.142777L125.644 125.787C158.929 125.749 190.837 112.491 214.347 88.9281C237.857 65.3652 251.043 33.4282 251.006 0.142777" fill="url(#paint18_linear_3_8)"/>
<path d="M252.133 1004.14C252.115 987.498 258.708 971.529 270.463 959.748C282.218 947.966 298.172 941.337 314.814 941.318L252.133 1004.14C268.776 1004.12 284.73 997.492 296.485 985.711C308.24 973.93 314.833 957.961 314.814 941.318" fill="url(#paint19_linear_3_8)"/>
<path d="M314.814 941.318C298.172 941.337 282.203 934.744 270.422 922.989C258.64 911.234 252.011 895.28 251.992 878.637L314.744 878.567" fill="url(#paint20_linear_3_8)"/>
<path d="M314.872 1004.07C314.853 987.427 321.446 971.459 333.201 959.677C344.956 947.896 360.91 941.267 377.553 941.248L314.872 1004.07C331.514 1004.05 347.468 997.422 359.223 985.641C370.978 973.859 377.571 957.891 377.553 941.248" fill="url(#paint21_linear_3_8)"/>
<path d="M314.801 941.318C331.444 941.3 347.397 934.67 359.152 922.889C370.907 911.108 377.501 895.139 377.482 878.496L314.731 878.567" fill="url(#paint22_linear_3_8)"/>
<path d="M377.495 878.496C361.014 878.515 344.691 875.287 329.457 868.997C314.223 862.707 300.377 853.478 288.71 841.837C265.147 818.327 251.889 786.42 251.852 753.134L377.355 752.993" fill="url(#paint23_linear_3_8)"/>
<path d="M377.355 752.993C360.873 753.012 344.55 749.784 329.316 743.494C314.082 737.204 300.236 727.975 288.569 716.334C265.006 692.824 251.748 660.917 251.711 627.631L377.355 752.993C377.317 719.708 364.059 687.8 340.496 664.291C316.933 640.781 284.996 627.594 251.711 627.631" fill="url(#paint24_linear_3_8)"/>
<path d="M377.214 627.504C377.195 611.022 373.931 594.706 367.606 579.486C361.282 564.267 352.022 550.442 340.355 538.801C328.688 527.16 314.842 517.931 299.608 511.641C284.375 505.351 268.051 502.123 251.57 502.142L251.711 627.645" fill="url(#paint25_linear_3_8)"/>
<path d="M251.57 502.142C284.855 502.104 316.763 488.846 340.273 465.283C363.782 441.72 376.969 409.783 376.932 376.498L251.429 376.638" fill="url(#paint26_linear_3_8)"/>
<path d="M314.18 376.568C297.538 376.587 281.569 369.993 269.788 358.238C258.006 346.483 251.377 330.53 251.358 313.887L314.18 376.568C314.162 359.925 307.532 343.972 295.751 332.217C283.97 320.462 268.001 313.868 251.358 313.887" fill="url(#paint27_linear_3_8)"/>
<path d="M314.11 313.816C297.467 313.835 281.499 307.242 269.717 295.487C257.936 283.732 251.307 267.778 251.288 251.135L314.11 313.816C314.091 297.174 307.462 281.22 295.681 269.465C283.899 257.71 267.931 251.117 251.288 251.135" fill="url(#paint28_linear_3_8)"/>
<path d="M376.918 376.498C360.276 376.516 344.307 369.923 332.526 358.168C320.744 346.413 314.115 330.459 314.097 313.816L376.848 313.746" fill="url(#paint29_linear_3_8)"/>
<path d="M376.848 313.746C360.205 313.765 344.237 307.171 332.455 295.416C320.674 283.661 314.045 267.708 314.026 251.065L376.848 313.746C376.829 297.103 370.2 281.15 358.419 269.395C346.637 257.64 330.669 251.046 314.026 251.065" fill="url(#paint30_linear_3_8)"/>
<path d="M251.288 251.135C251.269 234.654 254.497 218.331 260.787 203.097C267.077 187.863 276.306 174.017 287.947 162.35C299.588 150.683 313.413 141.423 328.633 135.099C343.852 128.775 360.169 125.51 376.65 125.491L251.288 251.135C284.573 251.098 316.481 237.84 339.991 214.277C363.501 190.714 376.687 158.777 376.65 125.491" fill="url(#paint31_linear_3_8)"/>
<path fill-rule="evenodd" clip-rule="evenodd" d="M376.58 62.7533C376.541 28.0969 348.414 0.033407 313.758 0.0723194C279.101 0.111232 251.038 28.2379 251.077 62.8942C251.115 97.5509 279.242 125.614 313.899 125.575C348.555 125.536 376.618 97.41 376.58 62.7533ZM357.754 62.7744C357.727 38.5147 338.038 18.8704 313.779 18.8977C289.519 18.9249 269.875 38.6134 269.902 62.8731C269.929 87.1328 289.618 106.777 313.877 106.75C338.137 106.723 357.781 87.0341 357.754 62.7744Z" fill="url(#paint32_linear_3_8)"/>
<defs>
<linearGradient id="paint0_linear_3_8" x1="377.025" y1="459.88" x2="127.605" y2="274.591" gradientUnits="userSpaceOnUse">
<stop stop-color="#D02964"/>
<stop offset="1" stop-color="#FC8F59"/>
</linearGradient>
<linearGradient id="paint1_linear_3_8" x1="377.025" y1="459.88" x2="127.605" y2="274.591" gradientUnits="userSpaceOnUse">
<stop stop-color="#D02964"/>
<stop offset="1" stop-color="#FC8F59"/>
</linearGradient>
<linearGradient id="paint2_linear_3_8" x1="377.025" y1="459.88" x2="127.605" y2="274.591" gradientUnits="userSpaceOnUse">
<stop stop-color="#D02964"/>
<stop offset="1" stop-color="#FC8F59"/>
</linearGradient>
<linearGradient id="paint3_linear_3_8" x1="377.025" y1="459.88" x2="127.605" y2="274.591" gradientUnits="userSpaceOnUse">
<stop stop-color="#D02964"/>
<stop offset="1" stop-color="#FC8F59"/>
</linearGradient>
<linearGradient id="paint4_linear_3_8" x1="377.025" y1="459.88" x2="127.605" y2="274.591" gradientUnits="userSpaceOnUse">
<stop stop-color="#D02964"/>
<stop offset="1" stop-color="#FC8F59"/>
</linearGradient>
<linearGradient id="paint5_linear_3_8" x1="377.025" y1="459.88" x2="127.605" y2="274.591" gradientUnits="userSpaceOnUse">
<stop stop-color="#D02964"/>
<stop offset="1" stop-color="#FC8F59"/>
</linearGradient>
<linearGradient id="paint6_linear_3_8" x1="377.025" y1="459.88" x2="127.605" y2="274.591" gradientUnits="userSpaceOnUse">
<stop stop-color="#D02964"/>
<stop offset="1" stop-color="#FC8F59"/>
</linearGradient>
<linearGradient id="paint7_linear_3_8" x1="377.025" y1="459.88" x2="127.605" y2="274.591" gradientUnits="userSpaceOnUse">
<stop stop-color="#D02964"/>
<stop offset="1" stop-color="#FC8F59"/>
</linearGradient>
<linearGradient id="paint8_linear_3_8" x1="377.025" y1="459.88" x2="127.605" y2="274.591" gradientUnits="userSpaceOnUse">
<stop stop-color="#D02964"/>
<stop offset="1" stop-color="#FC8F59"/>
</linearGradient>
<linearGradient id="paint9_linear_3_8" x1="377.025" y1="459.88" x2="127.605" y2="274.591" gradientUnits="userSpaceOnUse">
<stop stop-color="#D02964"/>
<stop offset="1" stop-color="#FC8F59"/>
</linearGradient>
<linearGradient id="paint10_linear_3_8" x1="377.025" y1="459.88" x2="127.605" y2="274.591" gradientUnits="userSpaceOnUse">
<stop stop-color="#D02964"/>
<stop offset="1" stop-color="#FC8F59"/>
</linearGradient>
<linearGradient id="paint11_linear_3_8" x1="377.025" y1="459.88" x2="127.605" y2="274.591" gradientUnits="userSpaceOnUse">
<stop stop-color="#D02964"/>
<stop offset="1" stop-color="#FC8F59"/>
</linearGradient>
<linearGradient id="paint12_linear_3_8" x1="377.025" y1="459.88" x2="127.605" y2="274.591" gradientUnits="userSpaceOnUse">
<stop stop-color="#D02964"/>
<stop offset="1" stop-color="#FC8F59"/>
</linearGradient>
<linearGradient id="paint13_linear_3_8" x1="377.025" y1="459.88" x2="127.605" y2="274.591" gradientUnits="userSpaceOnUse">
<stop stop-color="#D02964"/>
<stop offset="1" stop-color="#FC8F59"/>
</linearGradient>
<linearGradient id="paint14_linear_3_8" x1="377.025" y1="459.88" x2="127.605" y2="274.591" gradientUnits="userSpaceOnUse">
<stop stop-color="#D02964"/>
<stop offset="1" stop-color="#FC8F59"/>
</linearGradient>
<linearGradient id="paint15_linear_3_8" x1="377.025" y1="459.88" x2="127.605" y2="274.591" gradientUnits="userSpaceOnUse">
<stop stop-color="#D02964"/>
<stop offset="1" stop-color="#FC8F59"/>
</linearGradient>
<linearGradient id="paint16_linear_3_8" x1="377.025" y1="459.88" x2="127.605" y2="274.591" gradientUnits="userSpaceOnUse">
<stop stop-color="#D02964"/>
<stop offset="1" stop-color="#FC8F59"/>
</linearGradient>
<linearGradient id="paint17_linear_3_8" x1="377.025" y1="459.88" x2="127.605" y2="274.591" gradientUnits="userSpaceOnUse">
<stop stop-color="#D02964"/>
<stop offset="1" stop-color="#FC8F59"/>
</linearGradient>
<linearGradient id="paint18_linear_3_8" x1="377.025" y1="459.88" x2="127.605" y2="274.591" gradientUnits="userSpaceOnUse">
<stop stop-color="#D02964"/>
<stop offset="1" stop-color="#FC8F59"/>
</linearGradient>
<linearGradient id="paint19_linear_3_8" x1="377.025" y1="459.88" x2="127.605" y2="274.591" gradientUnits="userSpaceOnUse">
<stop stop-color="#D02964"/>
<stop offset="1" stop-color="#FC8F59"/>
</linearGradient>
<linearGradient id="paint20_linear_3_8" x1="377.025" y1="459.88" x2="127.605" y2="274.591" gradientUnits="userSpaceOnUse">
<stop stop-color="#D02964"/>
<stop offset="1" stop-color="#FC8F59"/>
</linearGradient>
<linearGradient id="paint21_linear_3_8" x1="377.025" y1="459.88" x2="127.605" y2="274.591" gradientUnits="userSpaceOnUse">
<stop stop-color="#D02964"/>
<stop offset="1" stop-color="#FC8F59"/>
</linearGradient>
<linearGradient id="paint22_linear_3_8" x1="377.025" y1="459.88" x2="127.605" y2="274.591" gradientUnits="userSpaceOnUse">
<stop stop-color="#D02964"/>
<stop offset="1" stop-color="#FC8F59"/>
</linearGradient>
<linearGradient id="paint23_linear_3_8" x1="377.025" y1="459.88" x2="127.605" y2="274.591" gradientUnits="userSpaceOnUse">
<stop stop-color="#D02964"/>
<stop offset="1" stop-color="#FC8F59"/>
</linearGradient>
<linearGradient id="paint24_linear_3_8" x1="377.025" y1="459.88" x2="127.605" y2="274.591" gradientUnits="userSpaceOnUse">
<stop stop-color="#D02964"/>
<stop offset="1" stop-color="#FC8F59"/>
</linearGradient>
<linearGradient id="paint25_linear_3_8" x1="377.025" y1="459.88" x2="127.605" y2="274.591" gradientUnits="userSpaceOnUse">
<stop stop-color="#D02964"/>
<stop offset="1" stop-color="#FC8F59"/>
</linearGradient>
<linearGradient id="paint26_linear_3_8" x1="377.025" y1="459.88" x2="127.605" y2="274.591" gradientUnits="userSpaceOnUse">
<stop stop-color="#D02964"/>
<stop offset="1" stop-color="#FC8F59"/>
</linearGradient>
<linearGradient id="paint27_linear_3_8" x1="377.025" y1="459.88" x2="127.605" y2="274.591" gradientUnits="userSpaceOnUse">
<stop stop-color="#D02964"/>
<stop offset="1" stop-color="#FC8F59"/>
</linearGradient>
<linearGradient id="paint28_linear_3_8" x1="377.025" y1="459.88" x2="127.605" y2="274.591" gradientUnits="userSpaceOnUse">
<stop stop-color="#D02964"/>
<stop offset="1" stop-color="#FC8F59"/>
</linearGradient>
<linearGradient id="paint29_linear_3_8" x1="377.025" y1="459.88" x2="127.605" y2="274.591" gradientUnits="userSpaceOnUse">
<stop stop-color="#D02964"/>
<stop offset="1" stop-color="#FC8F59"/>
</linearGradient>
<linearGradient id="paint30_linear_3_8" x1="377.025" y1="459.88" x2="127.605" y2="274.591" gradientUnits="userSpaceOnUse">
<stop stop-color="#D02964"/>
<stop offset="1" stop-color="#FC8F59"/>
</linearGradient>
<linearGradient id="paint31_linear_3_8" x1="377.025" y1="459.88" x2="127.605" y2="274.591" gradientUnits="userSpaceOnUse">
<stop stop-color="#D02964"/>
<stop offset="1" stop-color="#FC8F59"/>
</linearGradient>
<linearGradient id="paint32_linear_3_8" x1="377.025" y1="459.88" x2="127.605" y2="274.591" gradientUnits="userSpaceOnUse">
<stop stop-color="#D02964"/>
<stop offset="1" stop-color="#FC8F59"/>
</linearGradient>
</defs>
</svg>
