<svg width="1004" height="860" viewBox="0 0 1004 860" fill="none" xmlns="http://www.w3.org/2000/svg">

<path d="M456.308 76.2195C445.248 87.1157 437.826 101.324 433.97 116.696C429.936 132.772 415.844 160.609 368.26 188.446C295.05 231.272 324.077 258.874 294.673 308.34C265.267 357.805 181.5 319.858 146.132 414.752C110.764 509.646 192.309 552.48 186.117 609.208C179.924 665.936 131.24 669.264 153.579 783.148H891.543C891.543 783.148 930.908 681.332 891.543 626C852.179 570.668 820.975 546.25 840.698 501.634C860.419 457.019 851.64 384.088 799.519 362.187C747.397 340.286 771.595 257.828 713.891 210.484C656.184 163.139 609.135 184.553 581.469 126.152C557.165 74.8635 506.756 26.5149 456.308 76.2195Z" fill="#F7E4D2"/>

<path class="sphere-line" d="M891.056 784.714C891.056 784.714 935.143 651.652 894.841 596.32C854.539 540.988 822.593 516.57 842.784 471.954C862.977 427.339 853.987 354.408 800.625 332.507C747.262 310.606 772.036 228.148 712.955 180.804C653.874 133.459 605.705 154.873 577.38 96.4723C552.501 45.1813 500.892 -3.16739 449.242 46.5395C437.919 57.4358 430.319 71.6443 426.372 87.0161C422.241 103.092 407.815 130.929 359.095 158.766C284.141 201.593 313.86 229.194 283.755 278.66C253.649 328.125 157.136 303.235 120.923 398.129C84.7128 493.022 162.865 524.876 156.524 581.604C150.183 638.332 112.641 669.266 135.511 783.15" stroke="url(#paint0_linear_1_784)" stroke-miterlimit="10"/>
<path class="sphere-line" d="M912.361 786.156C912.361 786.156 963.933 638.939 920.451 583.026C876.969 527.114 842.5 502.439 864.284 457.354C886.071 412.271 876.372 338.573 818.796 316.442C761.22 294.31 787.952 210.989 724.208 163.146C660.464 115.305 617.797 119.878 587.236 60.8654C560.394 9.03595 495.406 -22.7555 439.681 27.472C427.465 38.4835 419.264 52.8405 415.004 68.374C410.547 84.6187 394.984 112.748 342.417 140.877C261.548 184.154 293.611 212.046 261.129 262.029C228.646 312.013 138.856 294.871 98.7001 378.591C53.9212 471.95 123.474 509.48 116.635 566.804C109.793 624.128 92.6007 669.634 117.277 784.714" stroke="url(#paint1_linear_1_784)" stroke-miterlimit="10"/>
<path class="sphere-line" d="M459.216 102.893C448.637 113.315 441.538 126.908 437.848 141.608C433.99 156.984 420.512 183.611 374.995 210.236C304.97 251.199 332.736 277.6 304.609 324.914C276.481 372.228 196.358 335.932 162.531 426.696C128.7 517.46 206.698 558.431 200.776 612.693C194.851 666.953 148.286 670.137 169.654 779.064H875.51C875.51 779.064 913.161 681.678 875.51 628.754C837.859 575.83 808.014 552.473 826.877 509.799C845.74 467.124 837.345 397.366 787.491 376.418C737.636 355.47 760.784 276.601 705.588 231.314C650.393 186.031 605.392 206.512 578.929 150.652C555.684 101.597 507.468 55.3507 459.216 102.893Z" stroke="url(#paint2_linear_1_784)" stroke-miterlimit="10"/>


<path class="butterfly" d="M731.588 371.816C727.233 369.288 721.517 371.118 720.588 369.7C719.66 368.285 725.276 363.909 727.082 359.318C728.888 354.727 726.856 342.83 719.458 348.433C712.058 354.036 711.723 363.585 711.723 363.585C711.723 363.585 711.603 364.11 711.506 364.986C708.995 359.081 710.344 350.93 710.358 350.839C710.433 350.396 710.138 349.975 709.695 349.897C709.232 349.82 708.828 350.119 708.755 350.562C708.693 350.91 707.616 357.441 709.216 363.326C705.327 358.842 699.655 356.114 699.343 355.968C698.939 355.778 698.452 355.948 698.259 356.356C698.066 356.761 698.239 357.249 698.647 357.439C698.733 357.481 706.803 361.363 709.957 367.199C708.984 366.494 708.303 366.131 708.303 366.131C708.303 366.131 700.858 360.147 691.783 362.092C682.707 364.037 690.386 373.347 695.041 374.978C699.695 376.609 706.674 375.211 707.14 376.841C707.605 378.47 702.485 381.605 701.554 386.557C700.624 391.506 706.441 396.642 709.699 396.868C712.652 397.074 717.113 387.166 717.064 379.761C722.776 384.266 732.379 386.989 734.072 384.724C736.027 382.105 735.943 374.344 731.588 371.816Z" fill="url(#paint3_linear_1_784)"/>
<path class="butterfly" d="M249.872 448.507C249.056 444.45 244.821 441.929 245.187 440.584C245.552 439.241 251.299 440.316 255.105 438.931C258.91 437.544 265.122 429.818 257.649 428.314C250.176 426.81 244.12 431.799 244.12 431.799C244.12 431.799 243.733 432.012 243.141 432.426C245.406 427.667 251.153 424.062 251.217 424.02C251.532 423.825 251.629 423.413 251.434 423.098C251.23 422.773 250.827 422.686 250.515 422.881C250.266 423.034 245.663 425.923 242.915 430.111C243.555 425.276 242.146 420.302 242.066 420.03C241.964 419.678 241.592 419.472 241.237 419.573C240.882 419.675 240.679 420.048 240.783 420.402C240.805 420.477 242.808 427.556 240.936 432.674C240.838 431.691 240.692 431.075 240.692 431.075C240.692 431.075 240.319 423.236 234.185 418.707C228.05 414.181 226.503 423.974 228.034 427.725C229.566 431.476 234.222 435.012 233.473 436.186C232.724 437.36 228.01 435.913 224.459 438.036C220.909 440.156 220.918 446.533 222.551 448.66C224.032 450.587 232.551 447.944 237.079 443.883C237.418 449.85 240.969 457.241 243.285 457.052C245.962 456.838 250.687 452.564 249.872 448.507Z" fill="url(#paint4_linear_1_784)"/>
<path class="butterfly" d="M480.377 154.969C479.562 150.912 475.326 148.391 475.692 147.046C476.058 145.703 481.805 146.778 485.61 145.393C489.416 144.008 495.628 136.28 488.155 134.776C480.681 133.271 474.626 138.263 474.626 138.263C474.626 138.263 474.238 138.476 473.646 138.89C475.912 134.131 481.658 130.526 481.723 130.484C482.037 130.289 482.135 129.877 481.94 129.563C481.736 129.237 481.333 129.15 481.02 129.345C480.772 129.498 476.169 132.387 473.42 136.575C474.061 131.74 472.651 126.764 472.572 126.494C472.47 126.142 472.097 125.936 471.743 126.038C471.388 126.139 471.184 126.512 471.288 126.866C471.31 126.942 473.314 134.02 471.441 139.138C471.344 138.157 471.197 137.539 471.197 137.539C471.197 137.539 470.825 129.7 464.69 125.171C458.555 120.645 457.008 130.438 458.54 134.189C460.071 137.94 464.728 141.476 463.979 142.65C463.23 143.822 458.516 142.378 454.965 144.5C451.414 146.62 451.423 152.995 453.057 155.124C454.537 157.051 463.057 154.408 467.585 150.347C467.924 156.314 471.474 163.705 473.791 163.517C476.468 163.302 481.193 159.026 480.377 154.969Z" fill="url(#paint5_linear_1_784)"/>

<path d="M385.937 273.774C385.153 274.831 383.661 275.052 382.604 274.268C381.547 273.484 381.325 271.99 382.11 270.934C382.894 269.877 384.386 269.655 385.443 270.44C386.5 271.222 386.722 272.715 385.937 273.774Z" fill="url(#paint6_linear_1_784)"/>
<path d="M392.085 263.618C391.301 264.675 389.809 264.896 388.752 264.112C387.695 263.328 387.473 261.834 388.258 260.777C389.042 259.721 390.534 259.499 391.591 260.283C392.648 261.068 392.87 262.561 392.085 263.618Z" fill="url(#paint7_linear_1_784)"/>
<path d="M399.233 279.637C398.448 280.693 396.957 280.915 395.9 280.131C394.842 279.346 394.621 277.853 395.405 276.796C396.19 275.739 397.682 275.518 398.739 276.302C399.798 277.086 400.018 278.58 399.233 279.637Z" fill="url(#paint8_linear_1_784)"/>
<path d="M706.692 301.708C705.907 302.765 704.416 302.987 703.359 302.202C702.301 301.418 702.08 299.925 702.864 298.868C703.649 297.811 705.14 297.59 706.198 298.374C707.255 299.158 707.476 300.649 706.692 301.708Z" fill="url(#paint9_linear_1_784)"/>
<path d="M712.84 291.552C712.055 292.609 710.564 292.83 709.507 292.046C708.449 291.262 708.228 289.768 709.012 288.711C709.797 287.655 711.289 287.433 712.346 288.217C713.403 289.002 713.625 290.495 712.84 291.552Z" fill="url(#paint10_linear_1_784)"/>
<path d="M719.988 307.571C719.203 308.627 717.712 308.849 716.654 308.065C715.597 307.28 715.375 305.787 716.16 304.73C716.945 303.673 718.436 303.452 719.493 304.236C720.551 305.02 720.772 306.514 719.988 307.571Z" fill="url(#paint11_linear_1_784)"/>
<path d="M593.561 205.023C592.777 206.08 591.285 206.301 590.228 205.517C589.171 204.733 588.949 203.239 589.734 202.182C590.518 201.126 592.01 200.904 593.067 201.688C594.124 202.47 594.346 203.964 593.561 205.023Z" fill="url(#paint12_linear_1_784)"/>
<path d="M599.709 194.867C598.925 195.923 597.433 196.145 596.376 195.361C595.319 194.576 595.097 193.083 595.882 192.026C596.666 190.969 598.158 190.748 599.215 191.532C600.272 192.316 600.494 193.81 599.709 194.867Z" fill="url(#paint13_linear_1_784)"/>
<path d="M606.857 210.888C606.072 211.944 604.581 212.166 603.524 211.382C602.466 210.597 602.245 209.104 603.029 208.047C603.814 206.99 605.306 206.769 606.363 207.553C607.42 208.335 607.642 209.828 606.857 210.888Z" fill="url(#paint14_linear_1_784)"/>
<path d="M624.379 343.78C623.364 342.94 623.222 341.438 624.06 340.423C624.898 339.409 626.401 339.265 627.416 340.104C628.431 340.942 628.573 342.446 627.735 343.461C626.897 344.473 625.395 344.617 624.379 343.78Z" fill="url(#paint15_linear_1_784)"/>
<path d="M634.198 350.449C633.183 349.611 633.041 348.107 633.879 347.092C634.716 346.078 636.219 345.934 637.234 346.773C638.249 347.611 638.391 349.115 637.553 350.13C636.713 351.145 635.213 351.286 634.198 350.449Z" fill="url(#paint16_linear_1_784)"/>
<path d="M617.835 356.757C616.819 355.919 616.678 354.415 617.515 353.4C618.353 352.385 619.856 352.241 620.871 353.081C621.886 353.919 622.028 355.423 621.19 356.438C620.35 357.452 618.85 357.597 617.835 356.757Z" fill="url(#paint17_linear_1_784)"/>
<path d="M281.251 393.839C281.251 395.514 279.894 396.87 278.221 396.87C276.548 396.87 275.191 395.514 275.191 393.839C275.191 392.166 276.548 390.808 278.221 390.808C279.894 390.808 281.251 392.164 281.251 393.839Z" fill="url(#paint18_linear_1_784)"/>
<path d="M687.283 237.6C687.283 239.678 685.599 241.364 683.52 241.364C681.441 241.364 679.757 239.678 679.757 237.6C679.757 235.522 681.441 233.836 683.52 233.836C685.599 233.836 687.283 235.522 687.283 237.6Z" fill="url(#paint19_linear_1_784)"/>
<path d="M427.254 354.92C427.254 356.998 425.57 358.684 423.493 358.684C421.414 358.684 419.73 356.998 419.73 354.92C419.73 352.842 421.414 351.156 423.493 351.156C425.57 351.156 427.254 352.842 427.254 354.92Z" fill="url(#paint20_linear_1_784)"/>
<path d="M499.179 109.11C499.179 110.377 498.15 111.405 496.882 111.405C495.615 111.405 494.586 110.377 494.586 109.11C494.586 107.842 495.615 106.814 496.882 106.814C498.15 106.814 499.179 107.842 499.179 109.11Z" fill="url(#paint21_linear_1_784)"/>
<path d="M674.794 446.355C674.794 448.241 673.267 449.77 671.381 449.77C669.497 449.77 667.968 448.241 667.968 446.355C667.968 444.47 669.495 442.941 671.381 442.941C673.267 442.941 674.794 444.47 674.794 446.355Z" fill="url(#paint22_linear_1_784)"/>
<path d="M450.958 186.702C450.958 188.588 449.431 190.116 447.545 190.116C445.661 190.116 444.131 188.588 444.131 186.702C444.131 184.817 445.659 183.288 447.545 183.288C449.431 183.288 450.958 184.817 450.958 186.702Z" fill="url(#paint23_linear_1_784)"/>
<path d="M74.7548 758.406H985.835C992.544 758.406 994.388 767.643 988.182 770.193C927.244 795.218 765.642 851.913 539.159 858.387C328.552 864.407 152.59 809.615 71.0336 778.686C60.1336 774.554 63.0991 758.406 74.7548 758.406Z" fill="#F7E4D2"/>

<g class="plant">
<path d="M378.428 567.626C376.414 531.649 338.698 524.417 334.926 515.464C331.156 506.511 325.065 488.199 297.909 479.563C270.752 470.926 253.855 486.89 238.637 477.115C223.42 467.339 209.878 459.257 191.74 471.551C173.601 483.845 160.749 479.326 134.563 476.361C108.377 473.397 87.5807 498.643 87.5807 498.643C77.339 508.035 87.2195 519.929 111.364 525.762C145.458 534 135.722 556.136 153.896 565.107C172.07 574.078 193.668 565.189 207.365 576.045C221.06 586.902 220.027 606.589 236.977 611.211C253.928 615.833 273.924 604.58 283.622 611.24C293.321 617.9 298.605 637.634 310.178 644.449C321.754 651.264 354.512 652.951 354.512 652.951L362.424 651.039C362.424 651.039 380.443 603.603 378.428 567.626Z" fill="url(#paint24_linear_1_784)"/>
<path d="M357.049 639.719C357.049 639.719 348.501 566.281 297.98 532.83C247.458 499.379 164.603 498.581 139.485 497.194C114.367 495.807 114.367 495.807 114.367 495.807C114.367 495.807 215.762 489.36 266.038 509.801C335.086 537.873 354.758 583.731 357.049 639.719Z" fill="#FFFBF4"/>
</g>

<g class="plant">
<path d="M319.977 562.413C319.977 562.413 277.731 524.686 271.368 493.284C265.005 461.885 283.678 450.155 271.107 434.258C258.536 418.362 264.154 389.834 277.687 382.593C291.22 375.355 296.763 359.553 298.088 337.71C299.414 315.866 316.069 307.739 321.229 313.799C335.436 330.485 328.372 347.547 350.103 358.159C371.835 368.774 379.541 390.755 374.089 408.753C368.636 426.752 392.599 432.495 408.468 459.97C424.337 487.446 412.841 510.417 406.11 527.65C399.377 544.883 418.036 565.645 411.261 585.51C404.488 605.375 357.736 638.077 357.736 638.077C357.736 638.077 335.117 629.722 319.977 562.413Z" fill="url(#paint25_linear_1_784)"/>
<path d="M319.551 344.21C319.551 344.21 333.501 397.983 350.301 467.304C367.098 536.626 369.926 622.123 369.926 622.123C369.926 622.123 379.652 560.075 367.052 501.847C354.452 443.622 320.615 353.172 319.551 344.21Z" fill="#FFFBF4"/>
</g>

<g class="plant">
<path d="M325.646 590.478C319.886 560.933 348.935 547.333 350.15 539.311C351.362 531.288 352.533 515.21 372.746 502.641C392.958 490.071 409.92 499.525 420.233 488.487C430.545 477.447 439.849 468.122 457.062 474.352C474.274 480.582 483.751 474.283 504.345 466.504C524.937 458.727 546.963 474.899 546.963 474.899C557.185 480.4 551.63 492.059 533.279 501.741C507.368 515.411 519.799 531.335 506.927 542.331C494.057 553.327 474.741 550.564 465.883 562.167C457.024 573.768 461.906 589.498 449.134 596.721C436.359 603.944 417.857 598.939 411.374 606.321C404.891 613.704 404.667 630.768 396.695 638.665C388.723 646.559 362.546 654.65 362.546 654.65L355.746 654.728C355.746 654.728 331.409 620.02 325.646 590.478Z" fill="url(#paint26_linear_1_784)"/>
<path d="M357.772 644.461C357.772 644.461 349.603 583.244 383.634 545.785C417.666 508.326 484.588 490.665 504.64 484.384C524.691 478.103 524.691 478.103 524.691 478.103C524.691 478.103 441.268 493.705 404.763 520.578C354.627 557.487 348.122 598.658 357.772 644.461Z" fill="#FFFBF4"/>
</g>

<path d="M337.794 644.354C337.794 644.354 282.133 629.12 252.908 642.482C223.684 655.844 218.291 674.207 218.291 674.207C218.291 674.207 230.807 678.583 254.608 675.251C278.412 671.916 281.978 657.821 298.574 664.525C315.17 671.229 320.617 677.688 334.589 673.687C348.561 669.685 355.742 654.73 355.742 654.73L337.794 644.354Z" fill="#9A9B82"/>
<path d="M365.199 646.348C365.199 646.348 380.166 629.102 401.875 630.25C423.584 631.397 427.398 638.964 438.034 639.447C448.671 639.93 454.546 636.575 469.065 641.531C483.434 646.437 491.929 653.157 491.929 653.157C491.929 653.157 477.168 674.515 454.187 668.985C431.206 663.455 413.819 659.888 406.301 667.587C398.783 675.286 351.566 661.255 351.566 661.255L365.199 646.348Z" fill="#9A9B82"/>

<g class="plant">
<path d="M687.377 577.86C687.377 577.86 718.667 597.926 783.018 609.14C847.369 620.353 874.528 602.056 878.07 593.5C881.612 584.941 870.984 580.222 829.069 572.549C787.151 564.876 775.935 555.434 796.598 553.074C817.26 550.714 846.19 569.008 870.987 569.008C895.783 569.008 912.904 555.828 913.494 546.777C914.083 537.729 839.105 535.367 829.659 522.384C820.213 509.4 878.267 522.973 903.261 526.516C928.255 530.056 938.29 510.581 936.519 504.089C934.748 497.598 873.939 495.493 868.035 486.511C862.13 477.531 893.42 480.737 920.579 486.511C947.736 492.285 961.316 472.218 957.774 467.497C954.232 462.775 904.05 459.235 898.735 450.381C893.42 441.528 925.892 443.89 942.424 447.43C958.955 450.971 976.666 435.036 970.762 429.725C964.857 424.414 927.663 422.642 926.484 414.969C925.302 407.297 976.037 411.429 971.923 400.216C967.809 389.003 953.64 378.51 931.796 378.148C909.952 377.79 889.879 400.805 878.072 393.724C866.264 386.641 907 369.525 896.375 363.034C885.747 356.542 862.132 360.083 853.868 371.296C845.603 382.509 845.011 401.394 836.157 400.805C827.3 400.216 842.651 373.657 834.976 367.755C827.3 361.853 807.227 374.247 803.096 386.051C798.962 397.854 803.685 421.463 795.421 422.642C787.156 423.823 797.409 384.871 790.214 381.33C783.022 377.79 759.997 400.805 759.407 414.972C758.818 429.136 766.493 451.449 754.095 455.047C741.697 458.645 744.059 414.38 734.613 410.25C725.167 406.118 706.275 433.19 709.227 455.36C712.18 477.531 718.673 495.67 709.817 495.748C700.96 495.825 694.467 467.497 687.383 462.775C680.298 458.054 673.917 469.859 672.09 499.957C670.255 530.056 684.46 570.482 687.377 577.86Z" fill="url(#paint27_linear_1_784)"/>
<path d="M677.277 626.346C677.277 626.346 710.44 541.302 749.017 494.179C787.595 447.056 862.041 418.638 897.913 416.609C897.913 416.609 813.052 432.379 758.492 499.827C703.932 567.274 683.367 659.498 683.367 659.498L668.478 656.571L677.277 626.346Z" fill="#FFFBF4"/>
</g>

<g class="plant">
<path d="M132.603 764.86C131.256 758.169 129.19 750.627 126.621 742.565C130.83 734.394 142.745 708.445 142.459 677.036C142.111 638.915 115.682 598.935 115.682 598.935C115.682 598.935 108.74 664.162 120.243 724.162C112.284 702.689 102.08 679.396 92.6273 659.039C96.65 650.62 103.884 632.501 103.829 611.014C103.751 581.294 83.3497 549.994 83.3497 549.994C83.3497 549.994 77.8732 598.401 85.6658 644.266C78.6999 629.696 72.6892 617.718 69.0522 610.582C68.4116 600.521 65.9249 582.883 56.7781 565.577C42.8883 539.3 10.2705 521.068 10.2705 521.068C10.2705 521.068 30.8071 573.859 62.9794 611.962C65.8894 617.674 70.7787 627.401 76.6342 639.504C72.1661 632.953 66.4568 625.983 59.2715 619.655C36.9663 600.007 0 594.517 0 594.517C0 594.517 42.0129 641.133 88.434 664.483C93.2545 674.94 98.2258 686.074 102.964 697.274C97.603 689.991 91.0293 682.46 83.0793 675.55C54.3047 650.531 6.84183 643.798 6.84183 643.798C6.84183 643.798 58.2386 700.092 116.05 730.366C120.832 743.577 124.642 755.892 126.69 766.052L132.603 764.86Z" fill="url(#paint29_linear_1_784)"/>
</g>

<path d="M76.3993 751.25C76.3993 751.25 81.1356 733.607 104.381 725.429C127.625 717.254 131.07 739.199 145.706 738.339C160.343 737.48 167.141 765.882 167.141 765.882H71.233L76.3993 751.25Z" fill="url(#paint28_linear_1_784)"/>

<g class="plant">
<path d="M891.096 746.863H920.293C920.293 746.863 933.503 722.54 965.48 705.861C997.457 689.182 1000.93 669.065 1002.32 659.666C1003.71 650.268 989.811 655.131 968.955 667.64C948.1 680.149 942.539 709.763 933.501 709.202C924.465 708.642 930.025 674.599 949.489 663.475C968.953 652.352 984.248 625.249 989.113 607.877C993.98 590.504 954.354 603.011 935.584 623.86C916.814 644.709 919.595 695.623 905.692 702.132C891.789 708.642 916.12 665.903 887.966 648.468C876.676 641.478 873.711 661.47 877.188 686.794C880.67 712.116 898.048 723.929 891.096 746.863Z" fill="url(#paint30_linear_1_784)"/>
</g>

<path d="M841.922 761.975C841.922 761.975 893.19 767.556 932.782 767.556C972.375 767.556 987.603 764.005 987.603 764.005C987.603 764.005 978.975 747.767 953.594 741.678C928.215 735.59 925.677 750.811 914.509 741.678C903.341 732.546 883.037 725.948 865.273 731.021C847.505 736.095 841.922 761.975 841.922 761.975Z" fill="url(#paint31_linear_1_784)"/>
<path d="M515.493 808.625C684.794 808.625 822.041 797.383 822.041 783.516C822.041 769.648 684.794 758.406 515.493 758.406C346.192 758.406 208.945 769.648 208.945 783.516C208.945 797.383 346.192 808.625 515.493 808.625Z" fill="#E2C9B5"/>

<g class="woman">
<path d="M793.996 621.13L770.711 645.672C770.711 645.672 770.711 645.697 770.686 645.745L766.307 650.343C766.283 650.367 766.258 650.367 766.258 650.367L765.99 650.66C765.966 650.635 765.917 650.611 765.892 650.586C715.624 619.502 667.133 573.191 654.918 561.249C648.642 555.606 642.753 548.844 638.178 540.771C627.449 521.774 612.948 486.311 602.85 460.336L601.511 465.979L583.311 543.057C591.097 554.999 601.753 573.291 610.878 595.861C615.501 607.318 619.734 619.892 622.994 633.269L518.396 694.781L518.421 696.338L517.009 695.585L515.622 696.387L515.597 694.83L408.71 637.379C412.165 620.45 417.201 604.761 422.653 590.923C422.751 590.703 422.824 590.462 422.921 590.243C430.366 571.563 438.615 556.264 444.916 545.707L423.433 468.166L420.539 457.73L418.981 452.111C408.761 477.48 389.929 522.696 376.79 544.927C372.07 552.905 366.085 559.546 359.66 565.067C347.251 576.765 297.787 622.2 246.935 652.361L242.288 647.279L219.489 622.3L335.402 513.357L374.576 401.399C397.132 353.021 414.04 352.339 414.04 352.339V352.363C417.154 349.736 420.707 347.522 424.696 345.967C425.986 345.455 427.301 344.945 428.637 344.385L428.661 344.361C436.301 341.223 444.865 337.211 453.431 332.175C463.529 326.215 473.651 318.797 482.312 309.627C483.578 301.017 484.039 288.758 484.21 280.804C484.307 276.06 484.307 272.826 484.307 272.826L508.955 275.356L533.481 271.877C533.481 271.877 533.7 278.274 534.283 286.301C534.844 293.524 535.646 302.087 536.863 308.581C540.877 312.52 545.183 316.121 549.636 319.331C565.086 330.69 582.311 337.986 595.84 342.681C599.344 343.897 602.531 345.599 605.425 347.644C608.954 348.519 624.233 354.65 643.138 397.335L680.171 509.998L793.996 621.13Z" fill="#5E4453"/>
<path d="M549.64 319.333C545.675 323.784 533.534 333.343 499.13 341.248C452.609 351.925 428.644 344.385 428.644 344.385L428.668 344.361C436.308 341.223 444.872 337.211 453.438 332.175C463.535 326.215 473.657 318.797 482.319 309.627C483.584 301.017 484.045 288.758 484.216 280.804L534.29 286.301C534.851 293.524 535.653 302.087 536.87 308.581C540.881 312.523 545.187 316.123 549.64 319.333Z" fill="#3F2935"/>
<path d="M575.835 485.618C559.509 492.841 530.979 478.843 506.745 486.65C482.512 494.482 470.517 516.884 465.821 545.561C461.124 574.213 473.119 615.877 473.119 615.877C473.119 615.877 451.465 621.886 422.923 590.24C430.368 571.561 438.617 556.262 444.918 545.705L420.539 457.73L418.981 452.111C418.981 452.111 413.165 422.024 427.764 399.088C427.764 399.088 423.214 423.606 431.755 446.007C440.271 468.409 460.368 468.409 481.342 467.898C502.315 467.386 502.022 460.194 525.721 465.294C565.252 473.804 580.7 469.982 589.92 457.003C596.001 448.445 592.136 478.393 575.835 485.618Z" fill="#3F2935"/>
<path d="M463.34 246.208C463.34 246.208 457.726 234.76 450.337 235.209C442.948 235.659 440.477 251.423 450.885 263.702C461.293 275.983 470.747 270.717 470.747 270.717L463.34 246.208Z" fill="#EA8D78"/>
<path d="M556.01 244.431C556.01 244.431 561.181 232.777 568.581 232.943C575.981 233.109 579.058 248.767 569.128 261.435C559.199 274.106 549.549 269.208 549.549 269.208L556.01 244.431Z" fill="#EA8D78"/>
<path d="M559.334 220.792C560.212 266.536 532.947 307.427 511.224 307.843C484.879 308.348 459.393 265.39 458.575 222.727C457.97 191.17 476.907 165.214 508.474 164.607C540.041 164.002 558.727 189.235 559.334 220.792Z" fill="#FFA488"/>
<path d="M469.868 225.013C469.868 225.013 477.279 222.9 485.298 222.315C495.349 221.579 499.055 222.627 499.055 222.627C499.055 222.627 497.12 216.992 488.66 217.154C480.202 217.318 469.868 225.013 469.868 225.013Z" fill="#2F2A00"/>
<path d="M498.543 237.368C498.543 237.368 492.609 229.391 484.979 229.307C477.348 229.223 470.579 237.904 470.579 237.904C470.579 237.904 472.662 240.192 483.502 240.66C494.606 241.141 498.543 237.368 498.543 237.368Z" fill="#EA8D78"/>
<path d="M484.772 240.019C477.58 240.088 471.732 238.28 470.743 237.957L470.637 237.901C470.63 237.906 470.621 237.91 470.612 237.915C470.601 237.91 470.577 237.904 470.577 237.904C470.583 237.908 470.595 237.917 470.601 237.921C469.338 238.734 466.743 238.952 466.743 238.952C469.418 239.785 471.539 239.508 472.487 239.299C474.562 240.709 478.236 242.556 484.817 242.483C494.267 242.379 498.538 237.367 498.538 237.367C498.538 237.367 492.667 239.944 484.772 240.019Z" fill="#2F2A00"/>
<path d="M547.641 223.522C547.641 223.522 540.154 221.694 532.12 221.417C522.047 221.069 518.385 222.257 518.385 222.257C518.385 222.257 520.103 216.551 528.561 216.39C537.018 216.226 547.641 223.522 547.641 223.522Z" fill="#2F2A00"/>
<path d="M519.462 236.966C519.462 236.966 525.085 228.769 532.707 228.392C540.329 228.013 547.426 236.43 547.426 236.43C547.426 236.43 545.431 238.796 534.618 239.681C523.538 240.584 519.462 236.966 519.462 236.966Z" fill="#EA8D78"/>
<path d="M551.296 237.328C551.296 237.328 548.694 237.21 547.402 236.446C547.408 236.441 547.417 236.432 547.426 236.428C547.426 236.428 547.404 236.437 547.393 236.441C547.386 236.437 547.375 236.435 547.368 236.43L547.264 236.49C546.287 236.851 540.511 238.881 533.323 239.089C525.431 239.317 519.462 236.966 519.462 236.966C519.462 236.966 523.924 241.812 533.372 241.553C539.95 241.373 543.552 239.384 545.571 237.897C546.524 238.068 548.654 238.265 551.296 237.328Z" fill="#2F2A00"/>
<path d="M502.459 264.794C502.459 264.794 506.512 267.258 509.83 267.426C513.148 267.595 517.095 264.513 517.095 264.513C517.095 264.513 514.006 264.189 510.307 264.105C506.605 264.021 502.459 264.794 502.459 264.794Z" fill="#EA8D78"/>
<path d="M511.597 278.972C519.788 278.478 524.99 275.901 524.99 275.901C524.99 275.901 516.224 274.962 513.979 275.4C512.585 275.673 511.612 277.004 511.076 277.975C510.502 277.024 509.48 275.731 508.077 275.513C505.817 275.161 497.095 276.437 497.095 276.437C497.095 276.437 502.395 278.812 510.597 278.992C510.595 278.999 510.582 279.03 510.582 279.03C510.757 279.023 510.923 279.01 511.096 279.001C511.269 279.003 511.435 279.01 511.61 279.01C511.61 279.01 511.601 278.979 511.597 278.972Z" fill="#743F3D"/>
<path d="M499.609 279.929C499.609 279.929 501.333 282.379 507.72 283.933C514.108 285.486 518.738 282.854 522.565 280.412C522.565 280.412 519.108 287.008 511.9 287.896C504.693 288.787 499.859 280.906 499.609 279.929Z" fill="#EA8D78"/>
<path d="M528.722 191.721C528.722 191.721 517.745 185.923 502.964 186.67C488.183 187.416 476.701 198.96 472.421 207.131C468.141 215.302 463.795 217.633 463.795 217.633C463.795 217.633 465.149 237.445 461.357 245.889C461.357 245.889 456.237 237.332 450.339 235.212C450.339 235.212 445.291 217.127 448.389 197.885C451.487 178.643 471.896 157.914 499.354 155.075C526.81 152.237 540.708 165.606 540.708 165.606C540.708 165.606 558.938 175.886 564.359 193.348C569.78 210.809 565.13 233.472 565.13 233.472C565.13 233.472 560.438 235.847 557.415 244.043C557.415 244.043 548.632 230.794 550.89 215.96C550.886 215.96 547.291 192.366 528.722 191.721Z" fill="#743F3D"/>
<path d="M545.048 175.454C539.545 177.196 504.024 157.978 504.024 157.978C504.024 157.978 503.837 154.867 504.837 150.853C506.231 145.305 509.853 137.995 519.301 134.583C520.925 134.003 522.528 133.586 524.084 133.307C538.315 130.894 550.132 140.641 553.523 150.576C557.282 161.6 550.573 173.737 545.048 175.454Z" fill="#743F3D"/>
<path d="M499.055 222.627C499.055 222.627 502.499 229.075 504.436 238.863C506.373 248.654 504.759 255.675 504.759 255.675C504.759 255.675 502.864 227.984 488.766 222.115C488.766 222.115 496.497 221.949 499.055 222.627Z" fill="#EA8D78"/>
<path d="M528.722 191.721C528.722 191.721 511.187 185.855 496.257 192.344C481.328 198.833 481.685 208.305 471.315 209.107L469.978 206.628C469.978 206.628 472.742 207.157 479.059 202.181C485.373 197.203 498.695 179.296 528.722 191.721Z" fill="#743F3D"/>
<path d="M457.394 715.005C457.394 715.005 443.052 716.833 438.052 717.803C438.052 717.803 418.021 714.934 409.605 715.291C401.188 715.647 396.587 725.662 391.833 736.529C387.079 747.397 368.656 758.976 362.147 765.744C355.64 772.511 355.465 782.439 355.607 784.539C355.748 786.639 351.509 792.621 353.738 797.533C355.968 802.445 358.39 800.806 360.463 800.245C362.535 799.685 363.989 796.211 363.989 796.211C363.989 796.211 369.284 796.488 371.538 795.491C373.792 794.496 371.859 793.993 376.901 793.652C381.943 793.313 384.645 792.708 387.726 791.445C390.806 790.182 411.91 768.296 423.336 762.465C434.761 756.631 452.374 757.979 452.374 757.979L457.394 715.005Z" fill="#FFA488"/>
<path d="M781.247 729.878C747.184 748.923 690.761 756.414 625.457 760.378C617.5 760.865 609.424 761.302 601.223 761.692L602.342 790.003C602.342 790.003 597.378 789.954 588.594 789.832C561.659 789.515 498.862 788.713 433.387 787.399C327.499 785.308 243.265 759.04 218.933 735.617C207.207 724.306 200.247 706.282 202.73 689.452C204.7 676.123 212.608 663.548 228.739 655.596C232.584 653.699 239.298 651.291 248.374 648.712C276.84 640.563 328.35 630.713 385.161 630.179C386.061 630.106 386.912 630.057 387.741 629.984C395.235 618.746 422.923 590.24 422.923 590.24C422.923 590.24 442.387 606.609 469.005 616.338C483.068 621.469 499.152 624.777 515.404 622.807C562.413 617.14 609.639 590.945 609.639 590.945C619.2 600.457 628.349 622.783 628.349 622.783C675.406 623.222 753.337 637.499 770.101 645.889C770.223 645.963 770.321 646.036 770.418 646.084C781.806 649.149 791.294 655.764 797.79 664.181C812.852 683.663 811.855 712.803 781.247 729.878Z" fill="#E9835B"/>
<path d="M219.481 622.296C219.481 622.296 207.637 620.488 202.889 620.579C198.14 620.669 188.561 623.703 183.15 624.62C177.738 625.537 175.028 625.725 175.178 626.536C175.329 627.347 177.133 629.348 183.122 630.183C189.11 631.018 194.232 629.428 197.424 629.366C200.615 629.304 201.329 631.191 201.329 631.191C201.329 631.191 198.102 639.801 187.685 641.629C177.268 643.457 173.168 641.908 172.461 640.428C171.754 638.95 176.173 628.823 175.016 625.047C173.857 621.27 172.1 621.576 169.908 627.589C167.716 633.602 163.89 639.373 163.966 643.306C164.041 647.239 170.757 650.64 170.757 650.64C170.757 650.64 157.833 649.124 153.966 652.725C150.098 656.327 157.838 656.449 163.957 657.012C170.076 657.572 175.81 659.362 179.467 658.884C179.467 658.884 163.039 658.656 159.832 661.297C156.625 663.935 163.175 665.71 169.416 665.59C175.657 665.471 184.097 666.802 185.455 666.776C185.455 666.776 170.83 668.548 171.309 672.204C171.785 675.858 174.454 673.365 182.477 674.16C190.5 674.956 197.149 674.83 204.704 672.512C212.26 670.197 242.294 647.272 242.294 647.272L219.481 622.296Z" fill="#FFA488"/>
<path d="M725.48 658.124C662.902 667.002 487.718 711.83 487.718 711.83C487.718 711.83 395.43 669.605 333.556 659.706C274.797 650.318 240.515 654.987 248.374 648.712C276.84 640.563 328.35 630.713 385.161 630.179C386.061 630.106 386.912 630.057 387.741 629.984C395.235 618.746 422.923 590.24 422.923 590.24C422.923 590.24 442.387 606.609 469.005 616.338C471.146 626.652 508.057 677.413 534.651 669.069C561.245 660.749 596.159 649.27 612.85 655.011C629.541 660.752 663.433 657.614 686.791 652.359C710.127 647.106 725.48 658.124 725.48 658.124Z" fill="#CC6A4C"/>
<path d="M770.713 645.672C770.713 645.672 770.713 645.697 770.689 645.745C770.469 646.208 769.35 648.471 766.309 650.343C766.285 650.367 766.26 650.367 766.26 650.367C766.138 650.44 766.017 650.513 765.895 650.586C715.626 619.502 667.135 573.191 654.921 561.249C648.644 555.606 642.755 548.844 638.181 540.771C627.451 521.774 612.95 486.311 602.852 460.336L608.668 411.958C608.668 411.958 630.395 505.576 653.34 535.737C676.284 565.893 770.713 645.672 770.713 645.672Z" fill="#3F2935"/>
<path d="M423.435 468.164L420.541 457.728L418.983 452.109C408.763 477.478 389.931 522.694 376.793 544.925C372.072 552.903 366.088 559.543 359.663 565.065C347.253 576.763 297.789 622.198 246.937 652.359L242.29 647.276C242.29 647.276 342.459 561.757 371.877 528.12C401.268 494.48 419.346 421.124 419.346 421.124L423.435 468.164Z" fill="#3F2935"/>
<path d="M781.247 729.878C747.184 748.923 690.761 756.414 625.457 760.378C598.158 755.902 578.668 745.274 578.668 745.274V742.04L487.791 711.854C488.562 712.045 503.496 707.835 503.496 707.835C544.875 717.05 646.84 744.831 699.932 732.674C768.228 717.034 770.833 688.309 783.339 674.008C788.231 668.413 793.364 665.568 797.792 664.181C812.852 683.663 811.855 712.803 781.247 729.878Z" fill="#CC6A4C"/>
<path d="M578.676 745.265C578.676 745.265 592.981 747.372 597.961 748.44C597.961 748.44 618.043 745.963 626.452 746.484C634.86 747.005 639.264 757.108 643.803 768.066C648.345 779.024 666.536 790.962 672.91 797.855C679.285 804.747 679.265 814.676 679.083 816.774C678.901 818.87 683.021 824.934 680.696 829.801C678.369 834.669 675.98 832.983 673.919 832.38C671.858 831.778 670.473 828.277 670.473 828.277C670.473 828.277 665.173 828.45 662.939 827.411C660.705 826.372 662.647 825.906 657.613 825.468C652.58 825.029 649.889 824.373 646.833 823.05C643.779 821.728 623.105 799.434 611.797 793.379C600.49 787.324 582.852 788.325 582.852 788.325L578.676 745.265Z" fill="#FFA488"/>
<path d="M794 621.137C794 621.137 805.875 619.555 810.622 619.737C815.37 619.918 824.887 623.133 830.281 624.155C835.674 625.176 838.382 625.415 838.214 626.224C838.047 627.033 836.206 628.998 830.204 629.718C824.202 630.438 819.109 628.75 815.922 628.628C812.732 628.506 811.981 630.378 811.981 630.378C811.981 630.378 815.044 639.048 825.423 641.075C835.802 643.102 839.933 641.631 840.669 640.164C841.405 638.7 837.179 628.49 838.409 624.737C839.639 620.984 841.392 621.321 843.469 627.374C845.545 633.427 849.26 639.272 849.109 643.202C848.958 647.133 842.179 650.403 842.179 650.403C842.179 650.403 855.129 649.133 858.925 652.809C862.724 656.485 854.982 656.46 848.854 656.903C842.726 657.346 836.957 659.028 833.311 658.481C833.311 658.481 849.741 658.567 852.897 661.268C856.053 663.969 849.47 665.617 843.234 665.378C836.995 665.139 828.53 666.308 827.174 666.255C827.174 666.255 841.762 668.307 841.217 671.952C840.669 675.596 838.052 673.053 830.013 673.695C821.977 674.338 815.332 674.083 807.821 671.624C800.31 669.164 770.72 645.672 770.72 645.672L794 621.137Z" fill="#FFA488"/>
<path d="M588.594 789.832C561.659 789.515 498.862 788.713 433.387 787.399C327.499 785.308 243.265 759.04 218.933 735.616C207.207 724.306 200.247 706.282 202.73 689.452C211.684 696.409 228.983 708.522 261.975 725.013C316.185 752.134 416.283 766.726 495.553 774.365C574.798 782.002 581.928 778.645 581.928 778.645L588.594 789.832Z" fill="#CC6A4C"/>
<path d="M533.022 163.131C522.319 157.909 505.395 154.706 505.395 154.706C505.116 153.358 504.93 152.06 504.839 150.853C506.233 145.305 509.855 137.996 519.303 134.584C520.928 134.003 522.53 133.587 524.086 133.307C522.299 135.142 520.44 138.552 522.067 144.239C524.826 153.895 543.7 168.354 533.022 163.131Z" fill="#603030"/>
<path d="M523.055 183.027C523.055 183.027 503.33 175.567 484.462 183.027C465.594 190.487 462.968 210.629 458.56 212.619C458.56 212.619 462.381 185.597 482.645 179.713C502.906 173.828 523.055 183.027 523.055 183.027Z" fill="#603030"/>
<path d="M537.98 170.596L530.518 187.414C530.518 187.414 540.715 182.779 537.98 170.596Z" fill="#603030"/>
</g>
<defs>
<linearGradient id="paint0_linear_1_784" x1="545.146" y1="784.714" x2="868.678" y2="612.864" gradientUnits="userSpaceOnUse">
<stop stop-color="#D02964"/>
<stop offset="1" stop-color="#FC8F59"/>
</linearGradient>
<linearGradient id="paint1_linear_1_784" x1="546.566" y1="786.156" x2="886.776" y2="599.438" gradientUnits="userSpaceOnUse">
<stop stop-color="#D02964"/>
<stop offset="1" stop-color="#FC8F59"/>
</linearGradient>
<linearGradient id="paint2_linear_1_784" x1="554.088" y1="779.064" x2="851.724" y2="620.089" gradientUnits="userSpaceOnUse">
<stop stop-color="#D02964"/>
<stop offset="1" stop-color="#FC8F59"/>
</linearGradient>
<linearGradient id="paint3_linear_1_784" x1="713.43" y1="396.871" x2="733.508" y2="387.199" gradientUnits="userSpaceOnUse">
<stop stop-color="#D02964"/>
<stop offset="1" stop-color="#FC8F59"/>
</linearGradient>
<linearGradient id="paint4_linear_1_784" x1="242.99" y1="457.056" x2="259.361" y2="448.781" gradientUnits="userSpaceOnUse">
<stop stop-color="#D02964"/>
<stop offset="1" stop-color="#FC8F59"/>
</linearGradient>
<linearGradient id="paint5_linear_1_784" x1="473.496" y1="163.52" x2="489.866" y2="155.245" gradientUnits="userSpaceOnUse">
<stop stop-color="#D02964"/>
<stop offset="1" stop-color="#FC8F59"/>
</linearGradient>
<linearGradient id="paint6_linear_1_784" x1="384.223" y1="274.737" x2="386.194" y2="273.745" gradientUnits="userSpaceOnUse">
<stop stop-color="#D02964"/>
<stop offset="1" stop-color="#FC8F59"/>
</linearGradient>
<linearGradient id="paint7_linear_1_784" x1="390.371" y1="264.581" x2="392.342" y2="263.589" gradientUnits="userSpaceOnUse">
<stop stop-color="#D02964"/>
<stop offset="1" stop-color="#FC8F59"/>
</linearGradient>
<linearGradient id="paint8_linear_1_784" x1="397.519" y1="280.6" x2="399.49" y2="279.608" gradientUnits="userSpaceOnUse">
<stop stop-color="#D02964"/>
<stop offset="1" stop-color="#FC8F59"/>
</linearGradient>
<linearGradient id="paint9_linear_1_784" x1="704.978" y1="302.672" x2="706.948" y2="301.68" gradientUnits="userSpaceOnUse">
<stop stop-color="#D02964"/>
<stop offset="1" stop-color="#FC8F59"/>
</linearGradient>
<linearGradient id="paint10_linear_1_784" x1="711.126" y1="292.515" x2="713.096" y2="291.523" gradientUnits="userSpaceOnUse">
<stop stop-color="#D02964"/>
<stop offset="1" stop-color="#FC8F59"/>
</linearGradient>
<linearGradient id="paint11_linear_1_784" x1="718.274" y1="308.534" x2="720.244" y2="307.542" gradientUnits="userSpaceOnUse">
<stop stop-color="#D02964"/>
<stop offset="1" stop-color="#FC8F59"/>
</linearGradient>
<linearGradient id="paint12_linear_1_784" x1="591.847" y1="205.986" x2="593.818" y2="204.994" gradientUnits="userSpaceOnUse">
<stop stop-color="#D02964"/>
<stop offset="1" stop-color="#FC8F59"/>
</linearGradient>
<linearGradient id="paint13_linear_1_784" x1="597.996" y1="195.83" x2="599.966" y2="194.838" gradientUnits="userSpaceOnUse">
<stop stop-color="#D02964"/>
<stop offset="1" stop-color="#FC8F59"/>
</linearGradient>
<linearGradient id="paint14_linear_1_784" x1="605.143" y1="211.851" x2="607.114" y2="210.859" gradientUnits="userSpaceOnUse">
<stop stop-color="#D02964"/>
<stop offset="1" stop-color="#FC8F59"/>
</linearGradient>
<linearGradient id="paint15_linear_1_784" x1="626.098" y1="344.325" x2="628.068" y2="343.333" gradientUnits="userSpaceOnUse">
<stop stop-color="#D02964"/>
<stop offset="1" stop-color="#FC8F59"/>
</linearGradient>
<linearGradient id="paint16_linear_1_784" x1="635.916" y1="350.995" x2="637.886" y2="350.003" gradientUnits="userSpaceOnUse">
<stop stop-color="#D02964"/>
<stop offset="1" stop-color="#FC8F59"/>
</linearGradient>
<linearGradient id="paint17_linear_1_784" x1="619.553" y1="357.304" x2="621.523" y2="356.312" gradientUnits="userSpaceOnUse">
<stop stop-color="#D02964"/>
<stop offset="1" stop-color="#FC8F59"/>
</linearGradient>
<linearGradient id="paint18_linear_1_784" x1="278.475" y1="396.87" x2="280.98" y2="395.609" gradientUnits="userSpaceOnUse">
<stop stop-color="#D02964"/>
<stop offset="1" stop-color="#FC8F59"/>
</linearGradient>
<linearGradient id="paint19_linear_1_784" x1="683.836" y1="241.364" x2="686.947" y2="239.798" gradientUnits="userSpaceOnUse">
<stop stop-color="#D02964"/>
<stop offset="1" stop-color="#FC8F59"/>
</linearGradient>
<linearGradient id="paint20_linear_1_784" x1="423.807" y1="358.684" x2="426.918" y2="357.119" gradientUnits="userSpaceOnUse">
<stop stop-color="#D02964"/>
<stop offset="1" stop-color="#FC8F59"/>
</linearGradient>
<linearGradient id="paint21_linear_1_784" x1="497.075" y1="111.405" x2="498.973" y2="110.449" gradientUnits="userSpaceOnUse">
<stop stop-color="#D02964"/>
<stop offset="1" stop-color="#FC8F59"/>
</linearGradient>
<linearGradient id="paint22_linear_1_784" x1="671.668" y1="449.77" x2="674.489" y2="448.349" gradientUnits="userSpaceOnUse">
<stop stop-color="#D02964"/>
<stop offset="1" stop-color="#FC8F59"/>
</linearGradient>
<linearGradient id="paint23_linear_1_784" x1="447.831" y1="190.116" x2="450.653" y2="188.696" gradientUnits="userSpaceOnUse">
<stop stop-color="#D02964"/>
<stop offset="1" stop-color="#FC8F59"/>
</linearGradient>
<linearGradient id="paint24_linear_1_784" x1="243.454" y1="652.951" x2="337.409" y2="578.549" gradientUnits="userSpaceOnUse">
<stop stop-color="#D02964"/>
<stop offset="1" stop-color="#FC8F59"/>
</linearGradient>
<linearGradient id="paint25_linear_1_784" x1="346.673" y1="638.077" x2="421.494" y2="620.476" gradientUnits="userSpaceOnUse">
<stop stop-color="#D02964"/>
<stop offset="1" stop-color="#FC8F59"/>
</linearGradient>
<linearGradient id="paint26_linear_1_784" x1="447.993" y1="654.728" x2="534.461" y2="602.759" gradientUnits="userSpaceOnUse">
<stop stop-color="#D02964"/>
<stop offset="1" stop-color="#FC8F59"/>
</linearGradient>
<linearGradient id="paint27_linear_1_784" x1="834.639" y1="612.674" x2="949.24" y2="544.149" gradientUnits="userSpaceOnUse">
<stop stop-color="#D02964"/>
<stop offset="1" stop-color="#FC8F59"/>
</linearGradient>
<linearGradient id="paint28_linear_1_784" x1="123.21" y1="765.882" x2="144.77" y2="741.251" gradientUnits="userSpaceOnUse">
<stop stop-color="#D02964"/>
<stop offset="1" stop-color="#FC8F59"/>
</linearGradient>
<linearGradient id="paint29_linear_1_784" x1="77.2089" y1="766.052" x2="145.199" y2="746.14" gradientUnits="userSpaceOnUse">
<stop stop-color="#D02964"/>
<stop offset="1" stop-color="#FC8F59"/>
</linearGradient>
<linearGradient id="paint30_linear_1_784" x1="944.429" y1="746.863" x2="999.668" y2="722.935" gradientUnits="userSpaceOnUse">
<stop stop-color="#D02964"/>
<stop offset="1" stop-color="#FC8F59"/>
</linearGradient>
<linearGradient id="paint31_linear_1_784" x1="920.874" y1="767.556" x2="937.038" y2="736.589" gradientUnits="userSpaceOnUse">
<stop stop-color="#D02964"/>
<stop offset="1" stop-color="#FC8F59"/>
</linearGradient>
</defs>
</svg>
